<svg width="38" height="38" viewBox="0 0 38 38" fill="none" xmlns="http://www.w3.org/2000/svg">
<path d="M0.33285 4.57942V1.54365C0.33285 1.23385 0.553355 0.954437 0.890194 0.839526C0.997779 0.802456 1.11061 0.784668 1.2217 0.784668C1.45954 0.784668 1.69221 0.866208 1.86404 1.0189L21.4199 18.4749C21.748 18.7684 21.748 19.2309 21.4199 19.5244L1.86404 36.9803C1.61229 37.2042 1.22687 37.2768 0.890026 37.1597C0.553188 37.0448 0.332685 36.7654 0.332685 36.4556V33.4197C0.332685 33.2256 0.419519 33.0388 0.575772 32.898L15.998 18.9996L0.575855 5.10125C0.419603 4.96044 0.33285 4.77367 0.33285 4.57942Z" fill="white" stroke="white" stroke-width="0.6"/>
<path d="M37.3312 4.74446V1.70869C37.3312 1.39889 37.1107 1.11948 36.7739 1.00457C36.6663 0.967495 36.5534 0.949707 36.4424 0.949707C36.2045 0.949707 35.9719 1.03125 35.8 1.18394L16.2441 18.6399C15.916 18.9334 15.916 19.3959 16.2441 19.6894L35.8 37.1454C36.0518 37.3692 36.4372 37.4419 36.774 37.3247C37.1109 37.2098 37.3314 36.9304 37.3314 36.6206V33.5848C37.3314 33.3906 37.2445 33.2038 37.0883 33.063L21.666 19.1647L37.0882 5.26629C37.2445 5.12548 37.3312 4.93871 37.3312 4.74446Z" fill="white" stroke="white" stroke-width="0.6"/>
</svg>
