<svg width="50" height="50" viewBox="0 0 50 50" fill="none" xmlns="http://www.w3.org/2000/svg">
<rect width="50" height="50" fill="white"/>
<path d="M12.7339 43.4458C12.5029 42.6328 12.2459 41.7638 12.0089 40.8888C10.3969 34.9378 8.78589 28.9868 7.19189 23.0318C7.12489 22.7808 7.14289 22.4388 7.26389 22.2168C8.26689 20.3668 9.28889 18.5258 10.3389 16.7018C10.6139 16.2238 10.6699 15.8108 10.4409 15.3008C9.74289 13.7448 9.08089 12.1728 8.37089 10.5268C9.61389 10.0198 10.8719 9.44579 12.1719 8.98979C15.3359 7.88079 18.6119 7.26079 21.9309 6.82679C24.5999 6.47779 27.2729 6.39579 29.9579 6.52379C30.2429 6.53779 30.3979 6.62279 30.5349 6.87979C31.6689 9.00379 32.7049 11.1708 33.4859 13.4518C33.6159 13.8298 33.8419 14.0798 34.1969 14.2668C35.1219 14.7558 36.0369 15.2648 36.9419 15.7908C37.1049 15.8858 37.2619 16.0788 37.3149 16.2588C39.2559 22.7888 41.1839 29.3218 43.1139 35.8548C43.1349 35.9258 43.1489 35.9988 43.1839 36.1488C38.0369 37.0518 32.9059 37.9788 27.8689 39.3358C22.8319 40.6918 17.8029 42.0678 12.7339 43.4458ZM37.9589 33.3598C37.9769 33.3158 37.9949 33.2718 38.0129 33.2278C39.3949 33.9078 40.7769 34.5878 42.2129 35.2948C42.0519 34.7088 41.9139 34.1688 41.7559 33.6338C40.1189 28.0648 38.4769 22.4978 36.8439 16.9278C36.7739 16.6898 36.6719 16.6128 36.4269 16.6418C35.0279 16.8068 33.6249 16.9378 32.2279 17.1188C28.0739 17.6568 23.9439 18.3348 19.8559 19.2608C15.8909 20.1588 11.9769 21.2258 8.18889 22.7178C8.08989 22.7568 7.99489 22.8088 7.88789 22.8598C9.65489 29.3928 11.4139 35.8968 13.1729 42.4008C13.2109 42.3988 13.2489 42.3968 13.2869 42.3948C14.0469 40.8838 14.7689 39.3508 15.9129 38.0668C15.1389 39.5258 14.3659 40.9848 13.5549 42.5128C22.9539 39.7028 32.3439 37.1828 41.9669 35.6148C41.9659 35.5838 41.9639 35.5518 41.9629 35.5208C40.6279 34.7998 39.2939 34.0798 37.9589 33.3598ZM33.7399 16.2348C33.7059 16.1098 33.6929 16.0508 33.6749 15.9928C32.7599 13.0638 31.7289 10.1828 30.2969 7.45679C30.1349 7.14879 29.9609 7.02279 29.6209 7.00879C27.0349 6.90479 24.4539 6.96579 21.8899 7.31179C17.6789 7.88079 13.5499 8.78679 9.62489 10.4758C9.41189 10.5678 9.19489 10.6498 8.94989 10.7478C10.6329 13.8278 11.7699 17.0808 12.8319 20.3798C19.6909 18.3608 26.6429 17.0358 33.7399 16.2348ZM8.10689 21.9818C8.56389 21.8578 9.02789 21.8108 9.31589 21.3798C9.97289 20.3948 10.6599 19.4288 11.3269 18.4508C11.3919 18.3558 11.4639 18.2128 11.4379 18.1188C11.3379 17.7528 11.1989 17.3978 11.0449 16.9528C10.0359 18.6798 9.07189 20.3308 8.10689 21.9818ZM11.5899 18.5218C10.8729 19.5278 10.2009 20.4718 9.52789 21.4148C9.54489 21.4368 9.56089 21.4598 9.57789 21.4818C10.4589 21.1748 11.3389 20.8688 12.2379 20.5558C12.0239 19.8838 11.8189 19.2408 11.5899 18.5218ZM35.8639 15.9438C35.2289 15.5798 34.6469 15.2468 34.0409 14.8998C34.0839 15.7368 34.8199 16.3348 35.8639 15.9438Z" fill="#0071BC"/>
<path d="M37.959 33.3596C39.293 34.0796 40.628 34.7996 41.962 35.5206C41.963 35.5516 41.965 35.5836 41.966 35.6146C32.343 37.1816 22.953 39.7026 13.554 42.5126C14.364 40.9846 15.138 39.5256 15.912 38.0666C14.768 39.3506 14.046 40.8836 13.286 42.3946C13.248 42.3966 13.21 42.3986 13.172 42.4006C11.413 35.8966 9.65396 29.3926 7.88696 22.8596C7.99396 22.8086 8.08896 22.7566 8.18796 22.7176C11.976 21.2256 15.89 20.1586 19.855 19.2606C23.943 18.3346 28.073 17.6566 32.227 17.1186C33.624 16.9376 35.027 16.8066 36.426 16.6416C36.671 16.6126 36.773 16.6896 36.843 16.9276C38.476 22.4976 40.117 28.0656 41.755 33.6336C41.912 34.1686 42.051 34.7086 42.212 35.2946C40.776 34.5876 39.394 33.9076 38.012 33.2276C37.995 33.2716 37.977 33.3156 37.959 33.3596ZM30.541 27.5636C27.783 30.2166 24.535 30.5246 21.016 29.7286C21.03 29.8226 21.03 29.9096 21.057 29.9876C21.742 31.9726 22.792 33.7136 24.496 34.9926C25.53 35.7676 26.714 36.0946 27.988 35.8576C29.579 35.5626 30.47 34.4756 30.942 33.0006C31.536 31.1456 31.129 29.3576 30.541 27.5636ZM20.678 24.7286C20.584 24.2936 20.55 23.8356 20.385 23.4296C19.882 22.1856 18.567 21.9546 17.751 23.0226C17.353 23.5446 17.011 23.6006 16.495 23.3796C16.484 23.3746 16.47 23.3756 16.458 23.3716C15.602 23.0956 14.879 23.7466 14.706 24.4126C14.467 25.3326 14.744 26.1186 15.381 26.7776C16.505 27.9386 17.929 28.3806 19.504 28.4106C19.617 28.4126 19.8 28.2906 19.838 28.1856C20.242 27.0706 20.61 25.9466 20.678 24.7286ZM26.893 22.3166C26.915 23.2516 27.354 23.9796 28.03 24.5866C28.949 25.4116 30.045 25.8536 31.245 26.0726C31.463 26.1126 31.598 26.0466 31.69 25.8416C31.913 25.3406 32.168 24.8536 32.374 24.3466C32.742 23.4396 33.021 22.5096 32.897 21.5106C32.727 20.1426 31.405 19.4916 30.411 20.3996C29.807 20.9506 29.377 20.9166 28.75 20.6336C28.224 20.3956 27.75 20.5816 27.378 21.0146C27.057 21.3876 26.881 21.8166 26.893 22.3166Z" fill="white"/>
<path d="M33.7399 16.2348C26.6429 17.0358 19.6909 18.3608 12.8329 20.3798C11.7699 17.0808 10.6339 13.8278 8.95093 10.7478C9.19493 10.6498 9.41293 10.5668 9.62593 10.4758C13.5509 8.78683 17.6799 7.87983 21.8909 7.31183C24.4549 6.96583 27.0359 6.90483 29.6219 7.00883C29.9619 7.02283 30.1369 7.14883 30.2979 7.45683C31.7299 10.1828 32.7599 13.0638 33.6759 15.9928C33.6919 16.0508 33.7059 16.1098 33.7399 16.2348ZM21.5349 15.7498C22.3329 15.7448 23.1009 15.5548 23.7249 15.2088C24.9869 14.5098 25.6369 13.2728 25.3909 11.9008C25.1189 10.3798 24.3019 9.25183 22.8579 8.61283C20.5709 7.60083 17.8269 8.82583 17.6379 11.9798C17.5139 14.0518 19.3519 15.7638 21.5349 15.7498Z" fill="white"/>
<path d="M8.10693 21.9817C9.07193 20.3307 10.0369 18.6787 11.0459 16.9517C11.1999 17.3967 11.3389 17.7527 11.4389 18.1177C11.4649 18.2127 11.3929 18.3547 11.3279 18.4497C10.6599 19.4277 9.97393 20.3937 9.31693 21.3787C9.02793 21.8117 8.56393 21.8587 8.10693 21.9817Z" fill="white"/>
<path d="M11.5898 18.522C11.8188 19.241 12.0238 19.884 12.2378 20.556C11.3388 20.869 10.4588 21.175 9.57783 21.482C9.56083 21.46 9.54483 21.437 9.52783 21.415C10.2008 20.472 10.8728 19.528 11.5898 18.522Z" fill="white"/>
<path d="M35.8638 15.9439C34.8198 16.3349 34.0838 15.7379 34.0408 14.8999C34.6468 15.2469 35.2288 15.5799 35.8638 15.9439Z" fill="white"/>
<path d="M30.5409 27.564C31.1279 29.358 31.5359 31.146 30.9419 33.001C30.4699 34.476 29.5789 35.563 27.9879 35.858C26.7139 36.094 25.5289 35.768 24.4959 34.993C22.7919 33.714 21.7419 31.973 21.0569 29.988C21.0299 29.91 21.0299 29.823 21.0159 29.729C24.5349 30.526 27.7829 30.218 30.5409 27.564ZM23.4949 33.729C25.6959 31.914 28.1309 31.72 30.7119 32.635C31.1369 31.044 30.8739 29.575 30.4029 28.103C27.7029 30.43 24.6189 30.741 21.2739 30.024C21.8229 31.374 22.4769 32.63 23.4949 33.729ZM23.6759 33.904C24.7319 35.18 26.3779 35.829 27.9189 35.594C29.1929 35.4 30.5129 34.077 30.6209 32.881C28.1349 31.992 25.8049 32.167 23.6759 33.904Z" fill="#0071BC"/>
<path d="M20.6779 24.7289C20.6099 25.9459 20.2419 27.0709 19.8389 28.1849C19.8009 28.2899 19.6179 28.4119 19.5049 28.4099C17.9299 28.3799 16.5059 27.9379 15.3819 26.7769C14.7449 26.1179 14.4679 25.3309 14.7069 24.4119C14.8799 23.7459 15.6029 23.0949 16.4589 23.3709C16.4709 23.3749 16.4839 23.3739 16.4959 23.3789C17.0119 23.6009 17.3539 23.5439 17.7519 23.0219C18.5669 21.9539 19.8819 22.1859 20.3859 23.4289C20.5499 23.8359 20.5839 24.2939 20.6779 24.7289ZM17.6329 23.8999C17.0949 23.8219 16.6189 23.7189 16.1389 23.6919C15.6239 23.6639 15.3149 23.9039 15.1619 24.3909C14.9089 25.1929 15.1329 25.8909 15.6849 26.4939C16.6559 27.5539 17.9529 27.8239 19.2999 27.9519C19.3809 27.9599 19.5309 27.8219 19.5589 27.7259C19.7389 27.1049 19.9469 26.4839 20.0409 25.8479C20.1309 25.2389 20.1439 24.6069 20.0969 23.9919C20.0569 23.4719 19.8299 22.9839 19.2509 22.8349C18.7409 22.7039 18.1919 23.0089 17.8499 23.5559C17.7689 23.6829 17.6899 23.8079 17.6329 23.8999Z" fill="#0071BC"/>
<path d="M26.8929 22.3166C26.8809 21.8166 27.0569 21.3886 27.3779 21.0146C27.7499 20.5816 28.2239 20.3966 28.7499 20.6336C29.3769 20.9166 29.8069 20.9516 30.4109 20.3996C31.4049 19.4916 32.7269 20.1436 32.8969 21.5106C33.0209 22.5096 32.7419 23.4396 32.3739 24.3466C32.1679 24.8536 31.9129 25.3406 31.6899 25.8416C31.5989 26.0476 31.4629 26.1126 31.2449 26.0726C30.0449 25.8526 28.9479 25.4116 28.0299 24.5866C27.3539 23.9796 26.9149 23.2516 26.8929 22.3166ZM27.3389 22.2946C27.3459 22.9666 27.5499 23.5056 28.0119 23.9866C28.8609 24.8726 29.9149 25.3756 31.1089 25.5936C31.2089 25.6116 31.4019 25.5036 31.4419 25.4076C31.7349 24.7216 32.0679 24.0416 32.2529 23.3246C32.4109 22.7106 32.4939 22.0386 32.4229 21.4136C32.3129 20.4406 31.2539 20.0496 30.6019 20.7726C30.0779 21.3536 29.6879 21.2836 29.0729 21.0346C28.0919 20.6396 27.3279 21.2346 27.3389 22.2946Z" fill="#0071BC"/>
<path d="M21.535 15.7497C19.352 15.7637 17.514 14.0517 17.638 11.9807C17.827 8.82566 20.571 7.60066 22.858 8.61366C24.303 9.25266 25.119 10.3807 25.391 11.9017C25.637 13.2737 24.986 14.5097 23.725 15.2097C23.101 15.5547 22.333 15.7447 21.535 15.7497ZM21.572 15.4047C21.868 15.3657 22.167 15.3447 22.458 15.2867C24.028 14.9747 25.073 13.8137 25.057 12.4127C25.039 10.8157 23.945 9.30466 22.422 8.82466C21.215 8.44466 20.075 8.53466 19.126 9.47666C18.207 10.3887 17.794 11.4857 18.078 12.7747C18.421 14.3267 19.835 15.3637 21.572 15.4047Z" fill="#0071BC"/>
<path d="M23.4949 33.729C22.4769 32.63 21.8229 31.374 21.2739 30.025C24.6199 30.741 27.7029 30.431 30.4029 28.104C30.8739 29.576 31.1359 31.045 30.7119 32.636C28.1309 31.72 25.6949 31.914 23.4949 33.729Z" fill="white"/>
<path d="M23.6758 33.9037C25.8048 32.1667 28.1348 31.9917 30.6208 32.8807C30.5118 34.0767 29.1918 35.3997 27.9188 35.5937C26.3778 35.8277 24.7318 35.1787 23.6758 33.9037Z" fill="white"/>
<path d="M17.633 23.8998C17.691 23.8078 17.77 23.6818 17.849 23.5558C18.191 23.0098 18.741 22.7038 19.25 22.8348C19.829 22.9838 20.057 23.4718 20.096 23.9918C20.143 24.6068 20.13 25.2388 20.04 25.8478C19.946 26.4838 19.738 27.1048 19.558 27.7258C19.53 27.8218 19.381 27.9588 19.299 27.9518C17.952 27.8248 16.655 27.5538 15.684 26.4938C15.132 25.8908 14.908 25.1928 15.161 24.3908C15.315 23.9038 15.623 23.6638 16.138 23.6918C16.619 23.7188 17.095 23.8218 17.633 23.8998Z" fill="white"/>
<path d="M27.339 22.2948C27.328 21.2358 28.093 20.6398 29.072 21.0348C29.687 21.2828 30.077 21.3538 30.601 20.7728C31.253 20.0498 32.312 20.4418 32.422 21.4138C32.493 22.0388 32.41 22.7108 32.252 23.3248C32.067 24.0418 31.734 24.7218 31.441 25.4078C31.4 25.5038 31.208 25.6118 31.108 25.5938C29.914 25.3758 28.86 24.8728 28.011 23.9868C27.55 23.5058 27.345 22.9658 27.339 22.2948Z" fill="white"/>
<path d="M21.572 15.4049C19.835 15.3639 18.421 14.3269 18.079 12.7739C17.795 11.4849 18.208 10.3879 19.127 9.47593C20.076 8.53493 21.216 8.44393 22.423 8.82393C23.946 9.30293 25.04 10.8149 25.058 12.4119C25.073 13.8129 24.029 14.9739 22.459 15.2859C22.167 15.3449 21.868 15.3669 21.572 15.4049ZM22.877 10.8659C23.043 10.6289 23.144 10.3829 22.925 10.1269C22.806 9.98793 21.742 10.0409 21.622 10.1849C21.583 10.2319 21.553 10.2899 21.534 10.3479C21.399 10.7529 21.765 11.2869 22.308 11.4719C22.793 11.6369 22.697 11.1499 22.867 10.9629C22.888 10.9399 22.881 10.8919 22.887 10.8549L22.877 10.8659ZM20.575 11.6339C20.529 11.4059 20.518 11.1639 20.429 10.9539C20.313 10.6809 20.001 10.6249 19.824 10.8469C19.68 11.0259 19.534 11.1049 19.311 11.1419C19.21 11.1589 19.081 11.3379 19.062 11.4589C19.002 11.8469 19.453 12.2079 19.983 12.2299C20.512 12.2509 20.542 12.2199 20.575 11.6339ZM20.812 13.1449C21.053 13.7259 21.465 14.1229 22.085 14.2459C22.484 14.3249 22.833 14.1889 23.051 13.8339C23.378 13.3019 23.269 12.7619 23.047 12.2309C23.05 12.5759 23.107 12.9209 23.107 13.2649C23.106 13.8749 22.609 14.2719 22.027 14.0949C21.733 14.0059 21.465 13.8009 21.213 13.6119C21.052 13.4909 20.944 13.3029 20.812 13.1449ZM22.424 12.5919C22.41 12.5629 22.396 12.5329 22.382 12.5039C21.92 12.6099 21.457 12.7169 20.995 12.8229C21 12.8469 21.005 12.8699 21.01 12.8939C21.482 12.7929 21.953 12.6919 22.424 12.5919Z" fill="white"/>
<path d="M20.5748 11.6337C20.5418 12.2197 20.5128 12.2507 19.9828 12.2297C19.4518 12.2077 19.0018 11.8467 19.0618 11.4587C19.0808 11.3377 19.2098 11.1587 19.3108 11.1417C19.5328 11.1047 19.6798 11.0267 19.8238 10.8467C20.0008 10.6257 20.3128 10.6807 20.4288 10.9537C20.5178 11.1627 20.5288 11.4057 20.5748 11.6337ZM20.4398 12.0357C20.4188 11.7307 20.4318 11.4317 20.3698 11.1477C20.3008 10.8287 20.1068 10.7967 19.8548 11.0057C19.7588 11.0857 19.6298 11.1237 19.5188 11.1867C19.4078 11.2507 19.2318 11.3067 19.2108 11.3957C19.1828 11.5147 19.2398 11.6957 19.3258 11.7917C19.6008 12.0997 19.9618 12.1477 20.4398 12.0357Z" fill="#0071BC"/>
<path d="M22.888 10.855C22.882 10.892 22.889 10.94 22.868 10.963C22.697 11.15 22.794 11.638 22.309 11.472C21.766 11.287 21.4 10.753 21.535 10.348C21.554 10.29 21.584 10.232 21.623 10.185C21.742 10.041 22.807 9.98696 22.926 10.127C23.145 10.383 23.044 10.629 22.877 10.867C22.876 10.807 22.869 10.745 22.878 10.686C22.947 10.234 22.843 10.142 22.416 10.243C22.295 10.271 22.153 10.238 22.027 10.206C21.829 10.156 21.716 10.215 21.671 10.415C21.596 10.752 21.85 11.136 22.257 11.311C22.627 11.47 22.647 11.127 22.787 10.953C22.815 10.916 22.854 10.887 22.888 10.855Z" fill="#0071BC"/>
<path d="M20.8118 13.145C20.9438 13.303 21.0528 13.491 21.2128 13.612C21.4648 13.802 21.7328 14.006 22.0268 14.095C22.6088 14.271 23.1048 13.875 23.1068 13.265C23.1078 12.921 23.0498 12.576 23.0468 12.231C23.2678 12.762 23.3778 13.302 23.0508 13.834C22.8328 14.189 22.4838 14.326 22.0848 14.246C21.4648 14.122 21.0528 13.725 20.8118 13.145Z" fill="#0071BC"/>
<path d="M22.4238 12.5919C21.9528 12.6929 21.4818 12.7929 21.0108 12.8939C21.0058 12.8699 21.0008 12.8469 20.9958 12.8229C21.4578 12.7169 21.9208 12.6099 22.3828 12.5039C22.3958 12.5329 22.4098 12.5619 22.4238 12.5919Z" fill="#0071BC"/>
<path d="M20.4398 12.0359C19.9618 12.1479 19.6008 12.0999 19.3268 11.7929C19.2408 11.6969 19.1838 11.5159 19.2118 11.3969C19.2328 11.3079 19.4088 11.2519 19.5198 11.1879C19.6298 11.1239 19.7598 11.0859 19.8558 11.0069C20.1078 10.7979 20.3018 10.8299 20.3708 11.1489C20.4318 11.4309 20.4188 11.7309 20.4398 12.0359Z" fill="white"/>
<path d="M22.8878 10.8549C22.8538 10.8869 22.8148 10.9159 22.7858 10.9519C22.6458 11.1269 22.6258 11.4689 22.2558 11.3099C21.8488 11.1349 21.5948 10.7499 21.6698 10.4139C21.7148 10.2129 21.8278 10.1549 22.0258 10.2049C22.1518 10.2369 22.2938 10.2699 22.4148 10.2419C22.8418 10.1419 22.9458 10.2329 22.8768 10.6849C22.8678 10.7439 22.8758 10.8059 22.8758 10.8659C22.8768 10.8659 22.8878 10.8549 22.8878 10.8549Z" fill="white"/>
</svg>
