<svg width="20" height="14" viewBox="0 0 20 14" fill="none" xmlns="http://www.w3.org/2000/svg">
<path d="M6.83411 13.3686L6.83409 13.3686L0.63014 7.267C0.456634 7.09636 0.456604 6.82314 0.630145 6.65244C0.63015 6.65243 0.630154 6.65243 0.630158 6.65242L1.97991 5.32491L1.97993 5.3249C2.15808 5.14967 2.45035 5.14967 2.6285 5.3249L2.62852 5.32491L6.80779 9.43518L7.15839 9.77999L7.50899 9.43518L16.4605 0.631411C16.6387 0.456196 16.931 0.456196 17.1091 0.631411L18.4589 1.95893L18.8095 1.60246L18.4589 1.95894C18.6324 2.12959 18.6324 2.40281 18.4589 2.57352L7.48271 13.3686C7.30451 13.5438 7.01225 13.5438 6.83411 13.3686Z" stroke="#2D2D2D"/>
</svg>
