<svg width="181" height="111" viewBox="0 0 181 111" fill="none" xmlns="http://www.w3.org/2000/svg">
<g filter="url(#filter0_d_784_3934)">
<path d="M159.897 90.6157C159.067 89.5827 158.445 88.416 157.921 87.2129C157.665 86.6174 157.421 85.9976 157.189 85.39C157.079 85.0983 156.957 84.8188 156.872 84.5271C156.774 84.2233 156.738 84.0653 156.884 83.7736C156.884 83.567 156.97 83.482 157.128 83.5063C157.262 83.4698 157.348 83.5306 157.396 83.6886C157.518 83.6764 157.64 83.6521 157.75 83.64C157.018 81.4403 156.543 79.1677 156.335 76.8708C156.238 75.7527 156.201 74.6225 156.226 73.4923C156.238 72.9697 156.262 72.4471 156.311 71.9124C156.323 71.7058 156.299 71.1225 156.421 70.9523C156.555 70.9159 156.677 70.8794 156.811 70.8551C157.03 70.6728 157.201 70.6728 157.311 70.8673C157.445 70.9766 157.531 71.1711 157.616 71.3169C159.848 75.0114 161.336 79.1799 162.056 83.4212C162.47 85.8639 162.629 88.331 162.519 90.8102C162.507 91.0411 162.873 91.0411 162.885 90.8102C163.08 85.8882 162.263 80.942 160.47 76.3482C160.019 75.2059 159.519 74.0878 158.958 72.994C158.701 72.4836 158.421 71.9853 158.14 71.4992C157.909 71.0982 157.677 70.6121 157.287 70.3447C156.53 69.8343 156.091 70.5634 156.006 71.2319C155.847 72.4958 155.823 73.784 155.86 75.06C155.945 78.0132 156.457 80.9299 157.384 83.725C157.445 83.9195 157.75 83.8952 157.738 83.6764C157.738 83.1903 157.189 82.9837 156.774 83.1903C156.043 83.5427 156.457 84.5514 156.652 85.0862C157.409 87.1278 158.226 89.1452 159.604 90.8588C159.787 91.0654 160.043 90.798 159.897 90.6157Z" fill="#F3F3F3"/>
<path d="M162.043 81.5253C162.141 79.9089 162.348 78.3048 162.702 76.7127C162.873 75.9714 163.056 75.2301 163.287 74.5009C163.397 74.1363 163.519 73.7718 163.641 73.4193C163.702 73.237 163.763 73.0547 163.836 72.8846C163.861 72.8117 163.885 72.7388 163.922 72.6658C163.97 72.4106 164.141 72.2648 164.422 72.2162C164.397 72.4228 164.727 72.4592 164.775 72.2648C165.019 71.4627 166.995 66.2977 168.203 67.1849C168.556 67.4401 168.654 68.0356 168.715 68.4366C168.812 68.9957 168.898 69.5669 168.959 70.1259C169.069 71.086 169.142 72.046 169.166 73.0183C169.276 76.968 168.678 80.9419 167.41 84.6972C166.678 86.8482 165.727 88.9021 164.58 90.8587C164.458 91.0653 164.775 91.2476 164.897 91.041C167.203 87.1277 168.678 82.777 169.264 78.2926C169.556 76.0322 169.63 73.7474 169.459 71.4749C169.374 70.3933 169.252 69.3117 169.056 68.2422C168.947 67.6589 168.678 66.796 167.983 66.6866C167.068 66.5408 166.361 68.0478 165.995 68.6554C165.324 69.7613 164.812 70.9401 164.434 72.1676C164.556 72.1797 164.678 72.204 164.788 72.2162C164.861 71.6329 164.129 71.5964 163.836 71.9731C163.617 72.2526 163.519 72.6658 163.409 72.994C163.202 73.5652 163.019 74.1485 162.848 74.7318C162.202 76.9437 161.824 79.2162 161.69 81.5131C161.665 81.7562 162.031 81.7562 162.043 81.5253Z" fill="#F3F3F3"/>
<path d="M156.31 70.8187C158.969 77.0046 160.64 83.5793 161.25 90.2755C161.274 90.5064 161.64 90.5064 161.616 90.2755C160.994 83.5063 159.311 76.883 156.628 70.6243C156.53 70.4177 156.213 70.6121 156.31 70.8187Z" fill="#F3F3F3"/>
<path d="M156.238 78.8275C157.506 79.4594 158.677 80.2494 159.738 81.173C159.909 81.331 160.177 81.0758 159.994 80.9178C158.896 79.9699 157.713 79.1678 156.408 78.5115C156.213 78.4143 156.018 78.7303 156.238 78.8275Z" fill="#F3F3F3"/>
<path d="M159.628 75.2667C159.286 75.9351 159.03 76.64 158.872 77.3813C158.823 77.6122 159.177 77.7094 159.225 77.4785C159.384 76.7736 159.616 76.0931 159.945 75.449C160.055 75.2424 159.738 75.0601 159.628 75.2667Z" fill="#F3F3F3"/>
<path d="M167.605 67.4647C166.812 74.5255 165.946 81.8173 162.494 88.1611C162.385 88.3677 162.702 88.55 162.812 88.3434C166.3 81.9388 167.166 74.5984 167.971 67.4647C167.995 67.2338 167.629 67.2338 167.605 67.4647Z" fill="#F3F3F3"/>
<path d="M163.043 74.3797C164.019 76.6644 164.739 79.0343 165.214 81.4649C165.263 81.6958 165.617 81.5985 165.568 81.3676C165.08 78.9006 164.336 76.5064 163.36 74.1974C163.263 73.9786 162.958 74.1609 163.043 74.3797Z" fill="#F3F3F3"/>
<path d="M166.714 76.2146C167.629 75.0601 168.543 73.9056 169.458 72.7632C169.604 72.5809 169.348 72.3257 169.202 72.508C168.287 73.6625 167.373 74.8171 166.458 75.9594C166.311 76.1296 166.568 76.3969 166.714 76.2146Z" fill="#F3F3F3"/>
<path d="M15.1474 88.9994C14.3547 88.1487 13.5497 87.2737 12.9033 86.3014C12.5983 85.8275 12.3178 85.3414 12.0983 84.8188C11.9763 84.5271 11.4031 82.9716 12.1959 83.2875C12.391 83.3605 12.4764 83.1052 12.3788 82.9837C11.5738 81.9629 11.0372 80.7719 10.5737 79.5688C10.1346 78.4264 9.70775 77.2719 9.30527 76.1173C8.86619 74.8534 8.4881 73.5531 8.34174 72.2284C8.23197 71.1833 8.1222 69.7492 8.87839 68.8864C9.98828 67.6346 11.1104 69.7006 11.6348 70.4784C12.3422 71.5236 13.0374 72.593 13.7082 73.6625C15.0377 75.8378 16.2451 78.0983 17.1355 80.5045C18.1478 83.2511 18.7088 86.1556 18.5747 89.0845C18.5625 89.3154 18.9284 89.3154 18.9406 89.0845C19.2089 83.1539 16.6598 77.6243 13.5497 72.7145C12.7813 71.5114 12.0129 70.2961 11.1713 69.1416C10.6957 68.4975 9.93949 67.8291 9.08573 68.2544C8.30515 68.6312 8.01243 69.6399 7.93925 70.4298C7.80509 71.8638 8.08561 73.3222 8.4759 74.6955C8.91498 76.251 9.51261 77.758 10.0737 79.2649C10.5981 80.6747 11.1835 82.0479 12.1227 83.2389C12.1837 83.1417 12.2446 83.0323 12.3056 82.9351C11.9885 82.8136 11.708 82.85 11.4397 83.0445C11.3909 83.0809 11.3421 83.1417 11.3543 83.2025C11.6226 85.6573 13.2935 87.541 14.9035 89.2667C15.0499 89.4369 15.306 89.1817 15.1474 88.9994Z" fill="#F3F3F3"/>
<path d="M16.1478 77.4419C15.7697 74.0391 16.221 70.6242 17.4651 67.428C17.3675 67.4523 17.2577 67.4766 17.1601 67.513C17.5382 67.8533 17.7944 68.2422 17.9407 68.7283C17.9895 68.8985 18.2456 68.9106 18.2944 68.7283C19.1238 65.8602 20.3313 63.1258 21.9168 60.5859C21.807 60.5737 21.6973 60.5616 21.5875 60.5373C22.5388 62.9557 23.1365 65.5078 23.3316 68.1085C23.5024 70.4419 23.5634 73.1277 22.1364 75.1086C22.0632 75.2058 22.1364 75.3516 22.2461 75.3759C23.3438 75.6312 23.0145 77.3569 22.9169 78.1346C22.7706 79.4229 22.551 80.7111 22.2705 81.975C21.7339 84.4177 20.9533 86.8118 19.9654 89.1087C19.8678 89.3274 20.1849 89.5097 20.2825 89.291C21.4411 86.6174 22.3071 83.8222 22.8559 80.9663C23.0999 79.6538 23.3804 78.2683 23.4048 76.9315C23.417 76.1659 23.2218 75.2058 22.3559 75.0114C22.3925 75.0964 22.4291 75.1937 22.4657 75.2787C23.8927 73.2978 23.8683 70.6485 23.7219 68.3151C23.5512 65.605 22.9413 62.9436 21.9534 60.4279C21.8924 60.2821 21.7095 60.2456 21.6241 60.3793C20.0263 62.9436 18.8067 65.7023 17.9651 68.6068C18.0871 68.6068 18.1969 68.6068 18.3188 68.6068C18.1481 68.0599 17.8675 67.6224 17.4407 67.2335C17.3309 67.1363 17.1845 67.1849 17.1358 67.3186C15.8795 70.5391 15.4282 74.0027 15.8063 77.4298C15.8063 77.6728 16.1722 77.6728 16.1478 77.4419Z" fill="#F3F3F3"/>
<path d="M9.01303 68.8256C10.7084 72.1676 12.4403 75.4975 14.0624 78.876C15.648 82.2059 17.0506 85.6452 17.8068 89.2667C17.8555 89.4976 18.2092 89.4004 18.1605 89.1695C17.4043 85.5844 16.0383 82.1937 14.4649 78.8882C12.8306 75.4367 11.0499 72.0461 9.31794 68.6311C9.22037 68.4367 8.90326 68.619 9.01303 68.8256Z" fill="#F3F3F3"/>
<path d="M21.6609 61.0475C21.4048 64.6569 20.2827 68.1083 19.4533 71.6084C18.6239 75.1084 18.0507 78.6692 17.7336 82.2543C17.7092 82.4852 18.0751 82.4852 18.0995 82.2543C18.4288 78.5476 19.0386 74.8653 19.9168 71.2559C20.7461 67.8774 21.7707 64.5354 22.0268 61.0475C22.039 60.8045 21.6731 60.8045 21.6609 61.0475Z" fill="#F3F3F3"/>
<path d="M8.81707 75.7889C10.6588 76.4087 12.3419 77.3566 13.8421 78.5962C14.025 78.742 14.2811 78.4868 14.0982 78.341C12.5492 77.065 10.8173 76.0927 8.91465 75.4365C8.68291 75.3514 8.58534 75.7038 8.81707 75.7889Z" fill="#F3F3F3"/>
<path d="M17.0506 67.7195C17.4653 69.9192 18.0751 72.0824 18.8679 74.1726C18.9532 74.3914 19.3069 74.2942 19.2216 74.0754C18.4288 71.973 17.8312 69.8219 17.4043 67.6223C17.3555 67.3914 17.014 67.4886 17.0506 67.7195Z" fill="#F3F3F3"/>
<path d="M18.3671 83.0567C19.6843 81.331 21.0382 79.5931 22.9652 78.5115C23.1726 78.4021 22.9896 78.0862 22.7823 78.1955C20.8064 79.3136 19.4038 81.1001 18.05 82.8744C17.9158 83.0567 18.2329 83.239 18.3671 83.0567Z" fill="#F3F3F3"/>
<path d="M145.212 91.2717C155.47 91.2717 165.739 91.2717 175.996 91.2717C176.472 91.2717 176.472 90.5425 175.996 90.5425C165.739 90.5425 155.47 90.5425 145.212 90.5425C144.737 90.5425 144.737 91.2717 145.212 91.2717Z" fill="#2D2D2D"/>
<path d="M33.796 88.8413C25.7463 88.8413 17.6965 88.8413 9.64679 88.8413C9.17112 88.8413 9.17112 89.5705 9.64679 89.5705C17.6965 89.5705 25.7463 89.5705 33.796 89.5705C34.2595 89.5705 34.2595 88.8413 33.796 88.8413Z" fill="#2D2D2D"/>
<path d="M115.782 97.2023C126.905 97.2023 138.028 97.2023 149.152 97.2023C152.323 97.2023 155.482 97.2023 158.653 97.2023C159.129 97.2023 159.129 96.4731 158.653 96.4731C147.53 96.4731 136.406 96.4731 125.283 96.4731C122.112 96.4731 118.953 96.4731 115.782 96.4731C115.318 96.4731 115.306 97.2023 115.782 97.2023Z" fill="#2D2D2D"/>
<path d="M142.114 91.4663C106.622 90.7614 71.1297 90.0566 35.6376 89.3517C29.2832 89.2302 24.8436 83.0444 26.7707 77.0165L48.6879 8.3042C49.932 4.40313 53.5666 1.7295 57.6768 1.70519C90.5222 1.47428 123.368 1.23123 156.213 1.00032C162.214 0.951711 166.763 6.40835 165.604 12.2782L151.615 83.81C150.749 88.3309 146.736 91.5635 142.114 91.4663Z" fill="#FF6871" stroke="#2D2D2D" stroke-miterlimit="10"/>
<path d="M141.431 90.8706C105.939 90.2022 70.4471 89.546 34.955 88.8776C28.6006 88.756 24.161 82.9226 26.0881 77.2351L48.0053 12.3752C49.2494 8.69287 52.884 6.17723 56.9942 6.14077C89.8396 5.92202 122.685 5.69111 155.53 5.47236C161.531 5.4359 166.081 10.5766 164.922 16.1183L150.932 83.6518C150.066 87.9053 146.054 90.9557 141.431 90.8706Z" fill="white" stroke="#2D2D2D" stroke-miterlimit="10"/>
<path d="M150.53 85.463C149.359 88.0272 147.102 89.9595 144.383 90.713C144.151 90.7738 144.248 91.1262 144.48 91.0654C147.285 90.2877 149.639 88.2824 150.847 85.6453C150.932 85.4387 150.627 85.2442 150.53 85.463Z" fill="#2D2D2D"/>
<path d="M58.6163 4.39118C58.2504 4.35472 58.1163 3.96583 58.2138 3.64986C58.348 3.24881 58.7383 3.16374 59.1042 3.34603C59.3603 3.47972 59.4945 3.79569 59.3847 4.0752C59.2627 4.37903 58.909 4.47625 58.6163 4.36687C58.3968 4.2818 58.2992 4.63423 58.5187 4.7193C58.9944 4.9016 59.5798 4.65854 59.7506 4.16028C59.9213 3.62555 59.5798 3.10298 59.0676 2.94499C58.4943 2.77485 57.9943 3.04221 57.8479 3.6377C57.726 4.18458 58.0675 4.695 58.6163 4.75576C58.848 4.78007 58.848 4.41549 58.6163 4.39118Z" fill="#2D2D2D"/>
<path d="M58.1892 4.09956C58.3355 4.47629 58.8722 4.59782 59.1893 4.36692C59.3966 4.20893 59.4942 3.90511 59.3966 3.63775C59.2868 3.34608 58.9697 3.17594 58.6892 3.22455C58.2989 3.29747 58.0428 3.74712 58.1892 4.09956Z" fill="white"/>
<path d="M62.7384 4.28132C62.3725 4.24486 62.2383 3.85597 62.3359 3.54C62.4701 3.13895 62.8603 3.05388 63.2262 3.23617C63.4824 3.36986 63.6165 3.68583 63.5068 3.96535C63.3848 4.26917 63.0311 4.36639 62.7384 4.25702C62.5188 4.17195 62.4213 4.52438 62.6408 4.60945C63.1165 4.79174 63.7019 4.54868 63.8726 4.05042C64.0434 3.51569 63.7019 2.99311 63.1896 2.83513C62.6164 2.66499 62.1164 2.93235 61.97 3.52784C61.848 4.07472 62.1895 4.58515 62.7384 4.64591C62.9701 4.67022 62.9701 4.30563 62.7384 4.28132Z" fill="#2D2D2D"/>
<path d="M62.3122 3.9897C62.4586 4.36645 62.9952 4.48798 63.3123 4.25707C63.5197 4.09908 63.6173 3.79525 63.5197 3.52789C63.4099 3.23622 63.0928 3.06607 62.8123 3.11469C62.422 3.1876 62.1658 3.63726 62.3122 3.9897Z" stroke="#2D2D2D" stroke-miterlimit="10"/>
<path d="M58.3719 3.34593C58.5427 3.72267 58.7378 4.08725 58.9695 4.43968C59.0915 4.63413 59.4086 4.45184 59.2867 4.25739C59.0671 3.90496 58.872 3.54037 58.689 3.16364C58.5915 2.95704 58.2744 3.13933 58.3719 3.34593Z" fill="#2D2D2D"/>
<path d="M58.4091 4.43989C58.5799 4.29406 58.7384 4.13607 58.9092 3.99023C59.0555 3.85655 59.2019 3.69857 59.3849 3.60135C59.5922 3.49197 59.4092 3.176 59.2019 3.28537C59.019 3.38259 58.8726 3.54058 58.714 3.68642C58.5311 3.85655 58.3359 4.02669 58.153 4.19683C57.9822 4.34267 58.2384 4.59788 58.4091 4.43989Z" fill="#2D2D2D"/>
<path d="M103.707 12.6428C102.622 16.1185 101.524 19.6064 100.439 23.0821C99.7678 25.2453 101.366 27.4328 103.634 27.4693C118.77 27.6516 133.894 27.8217 149.03 28.004C150.689 28.0283 152.116 26.8373 152.408 25.2088C153.055 21.5144 153.713 17.8199 154.36 14.1254C154.726 12.0594 153.128 10.1636 151.018 10.1636C136.321 10.2 121.624 10.2365 106.939 10.2729C105.464 10.2729 104.146 11.233 103.707 12.6428Z" fill="white" stroke="#2D2D2D" stroke-miterlimit="10"/>
<path d="M45.6272 61.0966C43.5172 67.1365 41.4072 73.1765 39.2972 79.2165C37.9922 82.9596 41.0901 86.7756 45.4809 86.8242C74.7771 87.128 104.085 87.444 133.382 87.7478C136.602 87.7842 139.37 85.7304 139.919 82.8988C141.188 76.4942 142.444 70.0775 143.712 63.673C144.42 60.0757 141.322 56.7944 137.236 56.7944C108.781 56.8552 80.3265 56.916 51.8719 56.9767C49.0057 56.9889 46.481 58.6538 45.6272 61.0966Z" fill="white" stroke="#2D2D2D" stroke-miterlimit="10"/>
<path d="M108.293 33.4606C106.33 39.3183 104.366 45.176 102.402 51.0337C102.329 51.2525 102.683 51.3497 102.756 51.131C104.72 45.2733 106.683 39.4156 108.647 33.5579C108.72 33.327 108.367 33.2297 108.293 33.4606Z" fill="#F3F3F3"/>
<path d="M108.525 33.4973C113.623 33.2299 118.746 32.8167 123.856 32.8167C128.942 32.8167 134.016 33.2542 139.078 33.6917C139.309 33.716 139.309 33.3515 139.078 33.3272C134.016 32.8897 128.942 32.4643 123.856 32.4521C118.746 32.4521 113.623 32.8653 108.525 33.1327C108.293 33.1449 108.281 33.5094 108.525 33.4973Z" fill="#F3F3F3"/>
<path d="M139.016 33.6795C137.65 39.4885 136.272 45.2854 134.906 51.0945C134.857 51.3254 135.211 51.4226 135.26 51.1917C136.626 45.3827 138.004 39.5858 139.37 33.7767C139.419 33.5579 139.065 33.4607 139.016 33.6795Z" fill="#F3F3F3"/>
<path d="M102.622 51.6658C110.989 51.2162 119.368 51.1068 127.747 51.362C130.137 51.4349 132.516 51.5321 134.906 51.6658C135.138 51.678 135.138 51.3134 134.906 51.3012C126.539 50.8394 118.16 50.7422 109.781 50.9974C107.391 51.0703 105.012 51.1676 102.622 51.3012C102.39 51.3134 102.378 51.678 102.622 51.6658Z" fill="#F3F3F3"/>
<path d="M118.867 51.0458C124.087 48.3357 130.051 47.9346 135.82 47.5822C136.052 47.57 136.052 47.2054 135.82 47.2176C129.99 47.5822 123.965 47.9954 118.684 50.7298C118.465 50.8392 118.647 51.1551 118.867 51.0458Z" fill="#F3F3F3"/>
<path d="M127.198 39.4763C127.771 42.2593 128.064 45.0909 128.076 47.9347C128.076 48.1656 128.442 48.1656 128.442 47.9347C128.418 45.0545 128.125 42.1986 127.552 39.3791C127.503 39.1482 127.149 39.2454 127.198 39.4763Z" fill="#F3F3F3"/>
<path d="M127.064 39.4153C126.32 40.4969 125.588 41.5907 124.844 42.6723C124.954 42.7087 125.076 42.7331 125.186 42.7695C125.125 41.6758 125.405 40.6549 126.027 39.7556C126.161 39.5611 125.844 39.3789 125.71 39.5733C125.051 40.5212 124.746 41.6271 124.807 42.7695C124.82 42.9518 125.039 43.0126 125.149 42.8667C125.893 41.7851 126.625 40.6914 127.369 39.6098C127.515 39.4032 127.198 39.2209 127.064 39.4153Z" fill="#F3F3F3"/>
<path d="M125.831 39.3182C125.417 39.1359 125.002 39.0508 124.551 39.0751C124.282 39.0872 123.197 39.4154 123.356 39.0143C123.417 38.8563 123.758 38.6497 123.892 38.5404C124.148 38.3338 124.417 38.1393 124.697 37.9813C125.319 37.6289 126.014 37.4587 126.722 37.5681C126.954 37.6046 127.051 37.2522 126.819 37.2157C125.405 36.9969 123.929 37.7626 123.014 38.8199C122.77 39.0994 122.807 39.4883 123.209 39.6098C123.429 39.6706 123.673 39.5855 123.88 39.5369C124.478 39.4032 125.063 39.3546 125.648 39.6098C125.856 39.7314 126.039 39.4154 125.831 39.3182Z" fill="#F3F3F3"/>
<path d="M127.052 37.1918C127.515 36.098 128.43 35.296 129.564 34.9557C129.503 34.8585 129.442 34.7491 129.381 34.6519C128.966 35.1866 128.723 35.7699 128.637 36.4383C128.613 36.6692 128.979 36.6692 129.003 36.4383C129.076 35.8671 129.296 35.3567 129.637 34.9071C129.735 34.7734 129.649 34.5425 129.454 34.6032C128.186 34.98 127.198 35.8793 126.686 37.0946C126.613 37.3133 126.966 37.4106 127.052 37.1918Z" fill="#F3F3F3"/>
<path d="M128.905 36.6568C129.856 36.1099 130.978 36.0978 131.942 36.6203C131.942 36.511 131.942 36.4138 131.942 36.3044C131.174 36.669 130.442 37.1065 129.747 37.5926C129.551 37.7262 129.734 38.0422 129.93 37.9085C130.625 37.4224 131.357 36.9849 132.125 36.6203C132.247 36.5596 132.235 36.3651 132.125 36.3044C131.039 35.7089 129.783 35.721 128.722 36.3408C128.515 36.4624 128.698 36.7783 128.905 36.6568Z" fill="#F3F3F3"/>
<path d="M129.613 37.9329C130.405 38.3704 131.174 39.0874 130.954 40.0839C131.064 40.0718 131.174 40.0596 131.284 40.0353C130.771 39.2211 129.893 38.7593 128.93 38.7957C128.698 38.8079 128.698 39.1725 128.93 39.1603C129.771 39.1239 130.527 39.5127 130.967 40.2176C131.04 40.3391 131.271 40.3391 131.296 40.169C131.54 39.0145 130.735 38.1273 129.783 37.6048C129.588 37.5075 129.405 37.8235 129.613 37.9329Z" fill="#F3F3F3"/>
<path d="M128.613 39.0994C129.174 42.0161 129.381 44.9692 129.223 47.9345C129.211 48.1654 129.577 48.1654 129.589 47.9345C129.747 44.9449 129.54 41.9431 128.967 39.0021C128.918 38.7712 128.564 38.8685 128.613 39.0994Z" fill="#F3F3F3"/>
<path d="M128.21 44.8238C128.612 44.8724 128.991 44.7995 129.356 44.6415C129.576 44.5442 129.381 44.2283 129.173 44.3255C128.869 44.4713 128.539 44.5078 128.21 44.4592C127.978 44.4227 127.978 44.7873 128.21 44.8238Z" fill="#F3F3F3"/>
<path d="M104.207 46.6948C106.208 46.8164 108.232 46.8528 110.22 47.0837C111.196 47.1931 112.135 47.4848 113.099 47.6306C114.038 47.7643 114.953 47.6306 115.892 47.4605C120.002 46.7435 124.137 47.1323 128.247 47.5698C128.479 47.5941 128.479 47.2296 128.247 47.2053C124.271 46.7799 120.234 46.3667 116.258 47.023C115.136 47.2053 114.074 47.424 112.94 47.2296C112.025 47.0716 111.147 46.8285 110.233 46.7191C108.245 46.4882 106.22 46.4518 104.22 46.3303C103.976 46.306 103.976 46.6705 104.207 46.6948Z" fill="#F3F3F3"/>
<path d="M127.783 42.3078C127.832 42.5144 128.039 42.563 128.234 42.5265C128.612 42.4658 129.003 42.3321 129.368 42.2227C129.6 42.162 129.503 41.8095 129.271 41.8703C129.051 41.9311 128.832 41.9918 128.612 42.0404C128.515 42.0647 128.405 42.089 128.307 42.1255C128.259 42.1377 128.21 42.1498 128.161 42.162C128.076 42.1498 128.076 42.162 128.137 42.1984C128.088 41.9797 127.734 42.0769 127.783 42.3078Z" fill="#F3F3F3"/>
<path d="M112.33 37.6653C111.123 37.2764 112.696 35.2104 113.538 36.134C113.843 36.4622 113.83 37.0333 113.55 37.3736C113.233 37.7625 112.684 37.8233 112.257 37.5802C112.05 37.4587 111.867 37.7747 112.074 37.8962C112.696 38.2486 113.538 38.115 113.928 37.4952C114.282 36.924 114.184 36.0368 113.562 35.6844C112.208 34.9309 110.586 37.4952 112.245 38.0299C112.464 38.0906 112.562 37.7382 112.33 37.6653Z" fill="#F3F3F3"/>
<path d="M140.528 34.7366C144.468 34.9432 148.371 35.405 152.249 36.1342C152.481 36.1828 152.579 35.8304 152.347 35.7817C148.444 35.0404 144.504 34.5665 140.528 34.3599C140.297 34.3599 140.297 34.7244 140.528 34.7366Z" fill="#F3F3F3"/>
<path d="M140.468 35.794C144.224 36.195 147.993 36.6204 151.737 37.07C151.969 37.0943 151.969 36.7297 151.737 36.7054C147.981 36.2558 144.224 35.8304 140.468 35.4294C140.236 35.4051 140.236 35.7697 140.468 35.794Z" fill="#F3F3F3"/>
<path d="M140.345 36.8878C142.614 37.2645 144.895 37.5076 147.188 37.5805C147.419 37.5927 147.419 37.2281 147.188 37.2159C144.931 37.1309 142.675 36.9121 140.443 36.5354C140.211 36.4989 140.114 36.8513 140.345 36.8878Z" fill="#F3F3F3"/>
<path d="M138.98 43.4381C142.066 43.8756 145.164 44.2402 148.262 44.5318C148.493 44.5562 148.493 44.1916 148.262 44.1673C145.188 43.8756 142.127 43.511 139.078 43.0856C138.846 43.0492 138.748 43.4016 138.98 43.4381Z" fill="#F3F3F3"/>
<path d="M138.748 44.4835C141.199 44.9089 143.651 45.2613 146.114 45.553C146.346 45.5773 146.346 45.2127 146.114 45.1884C143.675 44.9089 141.26 44.5564 138.845 44.1311C138.614 44.0824 138.516 44.4349 138.748 44.4835Z" fill="#F3F3F3"/>
<path d="M138.492 46.027C141.565 46.6346 144.663 47.0478 147.786 47.2422C148.017 47.2544 148.017 46.8898 147.786 46.8777C144.7 46.6711 141.626 46.27 138.589 45.6745C138.358 45.6259 138.26 45.9783 138.492 46.027Z" fill="#F3F3F3"/>
<path d="M50.9085 61.6675C56.519 61.947 62.1538 61.6553 67.7642 61.5703C73.3747 61.4852 78.9729 61.4609 84.5833 61.473C95.8408 61.4973 107.086 61.7039 118.343 61.9592C124.686 62.105 131.016 62.2751 137.358 62.4331C137.59 62.4453 137.59 62.0807 137.358 62.0685C126.113 61.7769 114.855 61.473 103.598 61.2907C92.3403 61.1085 81.0951 61.0234 69.8376 61.1692C63.532 61.2421 57.202 61.6189 50.9085 61.2907C50.6646 61.2907 50.6646 61.6553 50.9085 61.6675Z" fill="#F3F3F3"/>
<path d="M50.6887 18.8649C51.4205 18.9743 51.9328 18.476 53.3841 17.4065C55.5673 15.7902 56.0308 15.7416 56.3601 15.7659C56.5187 15.7781 56.8114 15.8267 58.1896 16.8597C60.202 18.3666 60.324 18.8284 60.9826 18.8649C62.1779 18.9135 62.3486 17.4065 63.7756 17.2729C65.0685 17.1513 65.471 18.3302 67.0687 18.2694C68.3006 18.2329 69.0202 17.4795 69.1299 17.6375C69.2641 17.8441 68.1054 19.4361 66.4345 19.6913C65.2026 19.8736 64.9343 19.1566 63.739 19.3267C62.0803 19.5698 61.7632 21.0767 60.5435 20.9673C59.8239 20.8944 59.7264 20.3597 58.4823 19.509C57.8237 19.0593 56.6772 18.2816 55.421 18.1843C53.1158 18.0142 51.9206 20.2382 50.5301 19.5941C49.8593 19.2902 49.4812 18.4638 49.5666 18.3666C49.6276 18.2694 50.0545 18.7677 50.6887 18.8649Z" fill="#0071BC"/>
<path d="M107.829 12.6306C107.085 15.9969 106.17 19.3268 105.097 22.6081C105.024 22.8268 105.377 22.924 105.451 22.7053C106.524 19.424 107.439 16.0941 108.183 12.7278C108.231 12.4969 107.878 12.3997 107.829 12.6306Z" fill="#F3F3F3"/>
<path d="M105.317 22.8875C106.574 23.0333 107.83 22.9725 109.098 22.9482C110.416 22.9118 111.733 22.8875 113.062 22.851C115.697 22.7903 118.343 22.7173 120.978 22.6566C121.21 22.6566 121.21 22.292 120.978 22.292C118.343 22.3528 115.697 22.4257 113.062 22.4864C111.782 22.5229 110.501 22.5472 109.22 22.5837C107.915 22.6201 106.622 22.6809 105.317 22.535C105.086 22.4986 105.086 22.8632 105.317 22.8875Z" fill="#F3F3F3"/>
<path d="M109.855 16.0212C109.391 18.1844 109.001 20.3598 108.672 22.5473C108.635 22.7782 108.989 22.8754 109.025 22.6445C109.355 20.457 109.745 18.2816 110.208 16.1184C110.257 15.8875 109.903 15.7903 109.855 16.0212Z" fill="#F3F3F3"/>
<path d="M110.135 16.2159C110.781 16.2524 111.415 16.3131 112.049 16.4347C112.013 16.3617 111.964 16.2888 111.927 16.2159C111.354 18.2697 110.866 20.3479 110.464 22.4382C110.415 22.6691 110.769 22.7663 110.818 22.5354C111.22 20.4451 111.708 18.367 112.281 16.3131C112.306 16.2281 112.257 16.1065 112.159 16.0944C111.488 15.9728 110.83 15.8999 110.147 15.8635C109.891 15.8392 109.891 16.2037 110.135 16.2159Z" fill="#F3F3F3"/>
<path d="M113.281 18.0872C113.098 19.5699 112.854 21.0282 112.55 22.4866C112.501 22.7175 112.854 22.8147 112.903 22.5838C113.22 21.1012 113.464 19.5942 113.647 18.0872C113.672 17.8563 113.306 17.8563 113.281 18.0872Z" fill="#F3F3F3"/>
<path d="M113.465 18.1116C114.148 18.0873 114.843 18.0994 115.526 18.148C115.465 18.0751 115.404 17.99 115.355 17.9171C115.087 19.3633 114.855 20.8095 114.66 22.2679C114.623 22.4988 114.989 22.4988 115.026 22.2679C115.221 20.846 115.44 19.4362 115.709 18.0144C115.733 17.8928 115.66 17.7956 115.538 17.7834C114.855 17.7348 114.16 17.7348 113.477 17.747C113.221 17.747 113.221 18.1116 113.465 18.1116Z" fill="#F3F3F3"/>
<path d="M117.733 14.7814C117.306 17.3214 116.806 19.8613 116.258 22.377C116.209 22.6079 116.562 22.7051 116.611 22.4742C117.16 19.9586 117.66 17.4186 118.087 14.8787C118.136 14.6478 117.782 14.5505 117.733 14.7814Z" fill="#F3F3F3"/>
<path d="M118.026 14.5993C118.026 14.6236 118.026 14.6357 118.026 14.66C118.026 14.7573 118.112 14.8423 118.209 14.8423C118.307 14.8423 118.392 14.7573 118.392 14.66C118.392 14.6357 118.392 14.6236 118.392 14.5993C118.392 14.5021 118.307 14.417 118.209 14.417C118.112 14.4291 118.026 14.5021 118.026 14.5993Z" fill="#F3F3F3"/>
<path d="M118.111 14.9031C118.672 15.0246 119.209 15.0854 119.782 15.0732C119.721 15.0003 119.66 14.9152 119.611 14.8423C119.136 17.3823 118.697 19.9344 118.282 22.4865C118.245 22.7174 118.599 22.8146 118.636 22.5837C119.05 20.0316 119.489 17.4795 119.965 14.9395C119.99 14.8301 119.916 14.7086 119.794 14.7086C119.258 14.7086 118.745 14.66 118.221 14.5506C117.977 14.502 117.879 14.8423 118.111 14.9031Z" fill="#F3F3F3"/>
<path d="M123.686 14.077C127.832 14.0284 131.967 14.0527 136.114 14.162C136.346 14.162 136.346 13.7975 136.114 13.7975C131.967 13.7002 127.832 13.6759 123.686 13.7124C123.454 13.7124 123.454 14.077 123.686 14.077Z" fill="#F3F3F3"/>
<path d="M123.966 15.5596C126.539 15.7297 129.125 15.6933 131.698 15.4502C131.93 15.4259 131.93 15.0613 131.698 15.0856C129.125 15.3287 126.539 15.3651 123.966 15.195C123.734 15.1829 123.734 15.5474 123.966 15.5596Z" fill="#F3F3F3"/>
<path d="M123.404 17.3944C126.941 17.3336 130.478 17.3944 134.015 17.5767C134.247 17.5889 134.247 17.2243 134.015 17.2121C130.478 17.0177 126.941 16.9569 123.404 17.0298C123.173 17.0298 123.173 17.3944 123.404 17.3944Z" fill="#F3F3F3"/>
<path d="M142.382 23.0338C141.138 22.8758 140.541 21.6362 140.187 20.5789C139.858 19.5824 139.736 18.5372 140.114 17.5407C140.772 15.7907 142.565 14.3809 144.37 13.9799C146.249 13.5545 148.151 14.5511 149.054 16.216C150.005 17.966 149.676 20.2143 148.566 21.8063C147.2 23.763 144.322 23.9817 142.321 22.9487C142.114 22.8393 141.931 23.1553 142.139 23.2647C144.053 24.2491 146.7 24.2005 148.322 22.6571C149.908 21.1501 150.42 18.4643 149.591 16.4712C148.798 14.5875 146.798 13.275 144.724 13.5424C142.675 13.8097 140.614 15.3653 139.833 17.2733C139.309 18.5737 139.528 19.9348 140.041 21.1987C140.48 22.2682 141.175 23.2404 142.395 23.3984C142.614 23.4227 142.614 23.0581 142.382 23.0338Z" fill="#F3F3F3"/>
<path d="M142.895 14.4657C143.468 15.9362 143.993 17.431 144.493 18.938C144.566 19.1567 144.92 19.0595 144.847 18.8408C144.346 17.3338 143.822 15.8512 143.249 14.3685C143.163 14.1619 142.81 14.247 142.895 14.4657Z" fill="#F3F3F3"/>
<path d="M144.871 19.1444C146.31 18.1479 147.737 17.1149 149.128 16.0576C149.31 15.9118 149.128 15.5958 148.945 15.7416C147.542 16.7989 146.127 17.8319 144.688 18.8285C144.493 18.9622 144.676 19.2781 144.871 19.1444Z" fill="#F3F3F3"/>
<path d="M144.81 19.1567C146.444 19.0837 148.054 18.8164 149.627 18.3546C149.847 18.2938 149.761 17.9414 149.53 18.0021C147.993 18.4518 146.42 18.7192 144.81 18.7799C144.578 18.8042 144.578 19.1688 144.81 19.1567Z" fill="#F3F3F3"/>
<path d="M144.517 19.0355C143.541 20.2872 142.578 21.539 141.602 22.7907C141.456 22.973 141.773 23.1553 141.919 22.973C142.895 21.7213 143.859 20.4695 144.834 19.2178C144.981 19.0355 144.664 18.8532 144.517 19.0355Z" fill="#F3F3F3"/>
<path d="M51.1521 61.0479C50.8471 60.9628 51.0301 60.5618 51.1643 60.4281C51.3106 60.2823 51.6765 60.2944 51.8717 60.2944C52.2254 60.2823 52.5791 60.2944 52.945 60.2823C53.6768 60.2823 54.4085 60.2701 55.1403 60.2701C56.6039 60.258 58.0675 60.258 59.5311 60.2458C62.4217 60.2337 65.3001 60.2094 68.1907 60.1972C74.0085 60.1608 79.814 60.1365 85.6318 60.1243C97.2185 60.0878 108.793 60.0878 120.38 60.1486C123.551 60.1729 126.734 60.1729 129.905 60.3066C131.479 60.3674 133.052 60.4646 134.625 60.6104C135.406 60.6833 136.199 60.7684 136.979 60.8656C137.236 60.9021 137.492 60.9264 137.748 60.975C137.955 61.0115 138.077 60.975 138.15 61.1694C138.345 61.6313 137.723 62.1052 137.345 62.1295C137.114 62.1417 137.114 62.5063 137.345 62.4941C138.162 62.4334 138.736 61.607 138.431 60.8292C138.406 60.7684 138.37 60.7076 138.309 60.7076C132.491 59.8448 126.6 59.8448 120.734 59.8083C114.672 59.7719 108.622 59.7597 102.561 59.7476C90.4129 59.7476 78.2529 59.7962 66.1051 59.8569C62.69 59.8812 59.275 59.8934 55.8599 59.9177C55.0428 59.9177 54.2378 59.9299 53.4206 59.9299C52.7376 59.9299 51.9326 59.8205 51.274 60.0149C50.6398 60.1972 50.2251 61.1938 51.0545 61.4247C51.274 61.4611 51.3716 61.1087 51.1521 61.0479Z" fill="#F3F3F3"/>
<path d="M50.2491 63.1867C49.0294 67.5739 47.5415 71.8882 45.773 76.0931C45.6876 76.3118 46.0413 76.4091 46.1267 76.1903C47.8952 71.9854 49.3831 67.6711 50.6028 63.2839C50.6638 63.053 50.3101 62.9558 50.2491 63.1867Z" fill="#F3F3F3"/>
<path d="M50.3718 63.5508C53.5063 63.9275 56.7384 63.6723 59.8851 63.6359C60.1168 63.6359 60.1168 63.2713 59.8851 63.2713C56.7384 63.3199 53.5063 63.5629 50.3718 63.1862C50.1278 63.1619 50.14 63.5265 50.3718 63.5508Z" fill="#F3F3F3"/>
<path d="M59.4944 63.612C58.4577 67.428 57.36 71.2197 56.2013 75.0114C56.1281 75.2423 56.4818 75.3274 56.555 75.1086C57.7137 71.3291 58.8114 67.5252 59.8481 63.7092C59.9091 63.4783 59.5554 63.3811 59.4944 63.612Z" fill="#F3F3F3"/>
<path d="M45.9443 76.2751C47.664 76.263 49.3716 76.2508 51.0913 76.2387C51.9328 76.2387 52.7622 76.2265 53.6038 76.2265C54.3478 76.2265 55.0918 76.2508 55.8235 76.0807C56.0553 76.0321 55.9577 75.6796 55.726 75.7282C54.9576 75.9105 54.1526 75.8619 53.3598 75.8619C52.5183 75.8619 51.6889 75.8741 50.8473 75.8741C49.213 75.8862 47.5787 75.8984 45.9443 75.8984C45.7126 75.9105 45.7126 76.2751 45.9443 76.2751Z" fill="#F3F3F3"/>
<path d="M61.4092 63.6967C69.654 63.4658 77.9111 63.478 86.156 63.7454C86.3878 63.7575 86.3878 63.3929 86.156 63.3808C77.9111 63.1134 69.654 63.0891 61.4092 63.3321C61.1774 63.3321 61.1774 63.6967 61.4092 63.6967Z" fill="#F3F3F3"/>
<path d="M61.0677 65.8356C65.8488 65.8235 70.6298 65.8235 75.4231 65.8113C75.6548 65.8113 75.6548 65.4468 75.4231 65.4468C70.642 65.4589 65.861 65.4589 61.0677 65.4711C60.8238 65.4711 60.8238 65.8356 61.0677 65.8356Z" fill="#F3F3F3"/>
<path d="M56.1531 75.8496C56.3727 75.485 56.5312 75.0961 56.6166 74.6951C56.6654 74.4642 56.3117 74.3669 56.2629 74.5978C56.1775 74.9746 56.0434 75.3392 55.836 75.6673C55.7141 75.8617 56.0312 76.044 56.1531 75.8496Z" fill="#F3F3F3"/>
<path d="M101.914 64.7663C100.939 69.4087 99.9994 74.0511 99.0847 78.6935C99.0359 78.9245 99.3896 79.0217 99.4384 78.7908C100.353 74.1484 101.292 69.5059 102.268 64.8635C102.317 64.6326 101.963 64.5354 101.914 64.7663Z" fill="#F3F3F3"/>
<path d="M99.1582 78.9977C104.171 79.1314 109.172 79.2651 114.184 79.3988C119.136 79.5324 124.088 79.7391 129.04 79.7391C129.272 79.7391 129.272 79.3745 129.04 79.3745C124.088 79.3745 119.136 79.1557 114.184 79.0342C109.172 78.9005 104.171 78.7668 99.1582 78.6331C98.9264 78.621 98.9264 78.9856 99.1582 78.9977Z" fill="#F3F3F3"/>
<path d="M99.5238 78.9609C101.036 77.3324 102.549 75.6918 104.061 74.0633C103.976 74.0633 103.89 74.0633 103.805 74.0633C104.305 74.6831 104.89 75.1935 105.573 75.6067C105.781 75.7282 105.964 75.4122 105.756 75.2907C105.098 74.9018 104.537 74.4035 104.061 73.808C104 73.7351 103.866 73.7473 103.805 73.808C102.292 75.4365 100.78 77.0772 99.2677 78.7057C99.1091 78.8758 99.3652 79.131 99.5238 78.9609Z" fill="#F3F3F3"/>
<path d="M105.671 75.4854C107.293 73.5774 108.928 71.6815 110.55 69.7735C110.696 69.5912 110.44 69.336 110.294 69.5183C108.672 71.4263 107.037 73.3221 105.415 75.2302C105.257 75.4003 105.513 75.6555 105.671 75.4854Z" fill="#F3F3F3"/>
<path d="M110.293 69.5912C110.623 70.0287 110.952 70.4541 111.281 70.8916C111.355 70.9888 111.464 71.0131 111.574 70.928C113.062 69.7128 114.513 68.4367 115.916 67.1243C116.087 66.9663 115.831 66.7111 115.66 66.869C114.257 68.1815 112.806 69.4576 111.318 70.6728C111.416 70.685 111.513 70.6971 111.611 70.7093C111.281 70.2718 110.952 69.8465 110.623 69.409C110.464 69.2145 110.147 69.3968 110.293 69.5912Z" fill="#F3F3F3"/>
<path d="M115.526 67.2822C117.563 68.8863 119.526 70.5756 121.429 72.3256C121.6 72.4836 121.856 72.2284 121.685 72.0704C119.782 70.3082 117.819 68.6311 115.782 67.0269C115.599 66.8811 115.343 67.1363 115.526 67.2822Z" fill="#F3F3F3"/>
<path d="M121.648 72.2769C124.161 70.6848 125.966 68.23 128.417 66.5529C128.612 66.4192 128.43 66.1032 128.234 66.2369C125.783 67.914 123.978 70.3689 121.465 71.9609C121.27 72.0824 121.453 72.3984 121.648 72.2769Z" fill="#F3F3F3"/>
<path d="M126.283 66.9296C127.052 66.7959 127.796 66.6014 128.539 66.3705C128.466 66.2976 128.393 66.2247 128.32 66.1518C128.186 66.7594 128.064 67.3671 127.93 67.9747C127.881 68.2056 128.235 68.3028 128.283 68.0719C128.418 67.4643 128.539 66.8566 128.674 66.249C128.698 66.1153 128.588 65.9816 128.454 66.0302C127.71 66.2611 126.966 66.4556 126.198 66.5893C125.966 66.6257 126.064 66.9782 126.283 66.9296Z" fill="#F3F3F3"/>
<path d="M106.402 65.7264C105.976 70.065 105.536 74.4036 105.11 78.7422C105.085 78.9731 105.451 78.9731 105.475 78.7422C105.902 74.4036 106.341 70.065 106.768 65.7264C106.781 65.4955 106.415 65.4955 106.402 65.7264Z" fill="#F3F3F3"/>
<path d="M111.817 64.961C111.366 69.6155 111 74.2822 110.732 78.9489C110.72 79.1798 111.085 79.1798 111.098 78.9489C111.366 74.2822 111.732 69.6155 112.183 64.961C112.195 64.7179 111.829 64.7301 111.817 64.961Z" fill="#F3F3F3"/>
<path d="M122.038 64.827C121.563 69.6881 121.221 74.5493 121.014 79.4347C121.002 79.6656 121.368 79.6656 121.38 79.4347C121.587 74.5614 121.929 69.6881 122.404 64.827C122.429 64.5961 122.063 64.5961 122.038 64.827Z" fill="#F3F3F3"/>
<path d="M115.928 63.0529C115.611 68.4731 115.294 73.8811 114.977 79.3013C114.965 79.5322 115.331 79.5322 115.343 79.3013C115.66 73.8811 115.977 68.4731 116.294 63.0529C116.306 62.8098 115.94 62.8098 115.928 63.0529Z" fill="#F3F3F3"/>
<path d="M77.9108 65.7752C80.3867 65.9939 82.8627 65.447 85.3386 65.7509C85.5703 65.7752 85.5703 65.4106 85.3386 65.3863C82.8627 65.0825 80.3867 65.6293 77.9108 65.4106C77.6669 65.3984 77.6791 65.763 77.9108 65.7752Z" fill="#F3F3F3"/>
<path d="M39.504 43.8512C43.8216 43.2192 47.9806 44.9449 51.8103 46.7435C55.3595 48.4206 58.8722 50.1342 62.8117 50.6325C71.2273 51.6776 79.2893 48.1533 87.2048 45.9293C91.8517 44.6289 96.6694 43.7175 101.511 44.3251C101.743 44.3494 101.743 43.9848 101.511 43.9605C92.9372 42.8789 84.8387 46.4762 76.7646 48.7002C72.6665 49.8304 68.4221 50.6811 64.1533 50.4016C59.8723 50.122 56.1035 48.3963 52.286 46.5856C48.2733 44.6776 43.9557 42.8425 39.4064 43.5109C39.1747 43.5352 39.2844 43.8876 39.504 43.8512Z" fill="#F3F3F3"/>
<path d="M62.6045 47.1692C73.3497 47.7404 83.3021 42.9643 93.5838 40.6674C96.5475 40.0112 99.5601 39.5494 102.609 39.4886C102.841 39.4886 102.841 39.124 102.609 39.124C91.8763 39.3671 82.058 44.289 71.6177 46.1727C68.6418 46.7074 65.6292 46.9748 62.6045 46.8168C62.3727 46.7803 62.3727 47.1449 62.6045 47.1692Z" fill="#F3F3F3"/>
<path d="M41.9313 34.7364C46.7978 35.0767 51.2373 37.2399 55.7257 38.9291C60.2872 40.6427 65.0439 41.6028 69.9225 41.4812C72.7155 41.4083 75.4963 41.0073 78.204 40.3024C78.4357 40.2417 78.3381 39.8892 78.1064 39.95C73.1912 41.2382 68.032 41.4812 63.0192 40.6184C58.2382 39.792 53.9328 37.7139 49.4078 36.0975C46.9929 35.2347 44.5048 34.5541 41.9313 34.384C41.6874 34.3597 41.6996 34.7243 41.9313 34.7364Z" fill="#F3F3F3"/>
<path d="M75.021 11.3664C74.9234 11.974 74.7648 12.5695 74.5453 13.1529C74.4965 13.2744 74.6185 13.3838 74.716 13.3838C82.4853 13.7241 90.2545 13.797 98.0238 13.5904C98.2555 13.5782 98.2555 13.2136 98.0238 13.2258C90.2545 13.4324 82.4731 13.3716 74.716 13.0192C74.777 13.0921 74.838 13.1772 74.8868 13.2501C75.1063 12.6668 75.2649 12.0834 75.3625 11.4636C75.4112 11.2327 75.0575 11.1355 75.021 11.3664Z" fill="#F3F3F3"/>
<path d="M75.2646 11.5006C83.0826 11.5979 90.8884 11.6951 98.7065 11.7923C98.9382 11.7923 98.9382 11.4277 98.7065 11.4277C90.8884 11.3305 83.0826 11.2333 75.2646 11.136C75.0329 11.1239 75.0329 11.4885 75.2646 11.5006Z" fill="#F3F3F3"/>
<path d="M98.6697 11.5734C98.4257 12.1446 98.2428 12.74 98.1452 13.3599C98.1086 13.5908 98.4623 13.688 98.4989 13.4571C98.5965 12.8737 98.7551 12.3025 98.9868 11.7557C99.0722 11.5369 98.7551 11.3546 98.6697 11.5734Z" fill="#F3F3F3"/>
<path d="M12.269 81.3184C10.1834 81.8166 8.08562 82.3149 6 82.8132C7.0855 89.6431 7.93926 93.0459 8.53689 92.9972C9.04915 92.9608 9.37846 90.4087 9.52482 85.341C10.6835 84.9399 11.8422 84.551 13.0008 84.15C12.7569 83.2142 12.513 82.2663 12.269 81.3184Z" fill="#2D2D2D" stroke="#2D2D2D" stroke-width="3" stroke-miterlimit="10"/>
<path d="M26.527 55.8582C26.2587 56.6603 25.8562 57.9363 25.4415 59.5527C24.5755 62.919 24.539 64.353 23.6608 68.6308C22.6119 73.7229 22.0752 74.5979 21.7337 75.0962C20.1848 77.308 18.0382 78.3167 16.8673 78.8636C14.0377 80.1882 11.4032 80.3097 9.84207 80.249C9.78108 80.966 9.7201 82.716 10.769 84.4782C11.2935 85.3532 11.9155 85.9487 12.3912 86.3254C13.9645 86.4105 16.6722 86.3497 19.7213 85.1709C21.0263 84.6726 24.356 83.3358 26.8929 80.0181C28.8444 77.466 29.381 74.9746 29.9786 72.1795C31.1373 66.7958 29.6981 65.9815 31.1373 61.412C32.0033 58.6412 33.0034 57.2801 32.296 56.2592C31.4544 55.0075 28.8078 55.3356 26.527 55.8582Z" fill="#FF6871"/>
<path opacity="0.09" d="M26.6739 55.8706C26.5519 57.171 26.369 58.9696 26.1129 61.1085C25.8811 62.9922 25.625 65.0339 25.2103 67.4158C24.4907 71.4992 24.1248 73.5409 23.3442 75.2423C22.6612 76.7249 21.344 79.4715 18.3192 81.5496C15.1725 83.7007 11.916 83.9073 10.4646 83.9194C10.2939 83.5305 10.1231 83.0323 10.0134 82.4611C9.85482 81.6347 9.85482 80.9177 9.9036 80.3829C10.8427 80.3951 12.1356 80.3222 13.6358 79.994C16.2458 79.4107 17.9899 78.3534 18.4412 78.0739C19.5511 77.3812 20.7098 76.6642 21.6611 75.2544C22.3075 74.3065 22.5759 73.4437 23.0149 71.645C23.6614 68.9957 23.9907 67.6832 24.259 65.7387C24.5517 63.4905 25.1981 60.2092 26.6739 55.8706Z" fill="#2D2D2D"/>
<path opacity="0.12" d="M9.92754 80.3464C9.87875 80.8811 9.85436 81.6103 10.0251 82.4488C10.1471 83.0686 10.33 83.5791 10.5008 83.9801C12.1717 83.6277 17.4284 82.2909 20.6849 77.5026C21.6485 76.0807 22.2217 74.6831 22.5754 73.48C22.2461 74.2456 21.6729 75.3637 20.6605 76.4453C18.9164 78.3047 16.9162 78.9853 15.477 79.4714C14.2573 79.8967 12.3547 80.3828 9.92754 80.3464Z" fill="#2D2D2D"/>
<path d="M25.6372 92.4751C24.6859 95.088 23.7345 97.7008 22.7832 100.326C29.4669 101.104 32.8698 101.213 32.9917 100.63C33.0893 100.18 31.1135 99.2928 27.0886 97.9925C27.6374 96.3762 28.1985 94.7598 28.7473 93.1435C27.7106 92.9248 26.6739 92.6938 25.6372 92.4751Z" fill="#2D2D2D" stroke="#2D2D2D" stroke-width="3" stroke-miterlimit="10"/>
<path d="M35.5527 57.2438C35.6868 59.0424 35.8088 61.4973 35.7844 64.3897C35.7234 72.3741 34.6379 78.3655 34.3208 79.994C33.5036 84.2597 32.0888 89.7649 29.5397 95.9143C28.7348 95.9507 26.7467 95.9264 24.7587 94.6868C23.539 93.9212 22.7828 92.9976 22.3682 92.3778C23.1122 90.968 24.0269 89.1087 24.9172 86.8361C26.4906 82.8256 27.1736 79.6294 27.6127 77.527C28.6006 72.7995 29.1007 70.4418 28.6982 67.914C28.3079 65.5199 27.6737 65.1067 27.7712 63.065C27.7956 62.6154 28.1006 57.3775 31.3936 56.381C33.089 55.8827 34.7721 56.7577 35.5527 57.2438Z" fill="#FF6871"/>
<path opacity="0.14" d="M32.6607 56.3315C33.7462 56.7933 33.3925 59.8315 33.2949 60.6336C31.9899 72.0816 33.7828 65.9201 32.2094 72.9809C30.0506 82.6789 27.1356 92.0002 26.1111 95.2085C25.8672 95.2085 25.5257 95.1842 25.1598 95.0141C24.8183 94.8561 24.7451 94.6495 24.3304 94.3214C23.8791 93.9689 23.7206 93.9932 23.3791 93.7502C23.0742 93.5314 22.6961 93.1425 22.4277 92.4255C23.062 91.1859 23.8181 89.5939 24.5865 87.6737C25.5623 85.2432 26.0989 83.3959 26.6843 81.4028C26.6843 81.4028 28.5138 75.1198 28.8431 70.3194C28.9041 69.3593 28.8553 68.7031 28.7822 68.2291C28.6724 67.4756 28.5138 67.0989 28.2699 66.1996C28.2089 65.9687 27.8674 64.6562 27.7576 63.6718C27.4527 60.7673 29.0017 58.4339 29.7335 57.5954C29.9896 57.2915 30.3311 56.9634 30.819 56.7082C31.0019 56.6231 32.063 56.0762 32.6607 56.3315Z" fill="#2D2D2D"/>
<path opacity="0.11" d="M29.8691 76.1051C29.6618 79.0582 28.9666 79.9332 26.942 87.1885C26.0516 90.3725 25.393 92.9854 24.9661 94.6625C24.6246 94.5288 24.1978 94.3101 23.7587 93.9698C23.1001 93.4594 22.7098 92.9003 22.4902 92.5115C23.1001 91.2597 23.9172 89.4732 24.71 87.2493C25.0271 86.3743 25.2345 85.7058 25.4296 85.0982C28.2104 76.2144 28.6495 73.5165 28.7837 71.6693C28.8934 70.1015 28.808 68.8376 28.7837 68.4366C28.6617 66.7595 28.369 65.605 28.369 65.605C28.369 65.605 30.2716 70.3689 29.8691 76.1051Z" fill="#2D2D2D"/>
<path d="M14.4537 51.8129C14.4781 51.7764 14.6 51.7886 14.844 51.8129C15.2586 51.8493 15.3928 51.9101 15.6611 51.9344C15.9173 51.9466 16.2588 51.9709 16.3563 51.8129C16.4905 51.6063 16.0636 51.2052 15.466 50.3424C14.4415 48.884 14.4903 48.3736 14.5756 48.1427C14.6 48.0819 14.6732 47.851 14.8318 47.8146C15.0391 47.766 15.2708 48.0455 15.4904 48.325C15.8563 48.7747 16.0026 49.1271 16.0392 49.1028C16.1124 49.0785 15.6855 48.167 15.7831 47.0489C15.8075 46.7451 15.8563 46.3076 16.0758 46.2469C16.271 46.1861 16.5637 46.4292 16.7954 46.818C16.7954 46.7694 16.8564 46.101 17.0881 46.0524C17.2711 46.016 17.4784 46.3684 17.6858 46.7087C17.8565 46.9882 17.9663 47.2434 18.0273 47.4135C18.0151 47.0733 18.198 46.7937 18.4541 46.7087C18.7347 46.6236 18.9908 46.8424 19.003 46.8545C19.2835 47.1097 19.2591 47.5594 19.2591 47.7174C19.2347 48.4101 19.3079 49.5767 19.4665 51.2781C19.7836 51.1566 20.247 50.9379 20.7593 50.5976C21.2837 50.2452 21.8326 49.7833 23.1864 48.167C23.7109 47.5351 23.9792 47.2191 24.4427 46.5993C26.1136 44.3753 27.1015 43.0628 28.1016 41.2034C28.4188 40.6079 28.931 39.5993 29.9921 38.6999C30.3336 38.4083 31.0044 37.8614 31.3947 38.068C31.6752 38.2138 31.6996 38.6756 31.6874 39.3562C31.6752 40.8388 31.663 41.568 31.4069 42.5767C30.8215 44.91 29.736 46.5385 29.4921 46.9031C28.5285 48.3129 27.565 49.1271 26.3209 50.1844C25.0281 51.2781 23.9548 52.1775 22.2595 52.858C21.1496 53.2955 20.2714 53.4535 19.3445 53.6236C17.8077 53.891 17.0149 54.0247 16.2222 53.6844C15.0879 53.1983 14.3195 51.9952 14.4537 51.8129Z" fill="white"/>
<path d="M31.3445 37.8967C30.0272 38.079 29.2466 39.3065 28.5392 40.3152C27.6367 41.6034 26.7829 42.928 25.9048 44.2284C25.0266 45.5409 24.1119 46.8291 23.0752 48.0323C22.5751 48.6034 22.0629 49.1625 21.5018 49.6729C20.8798 50.2562 20.1968 50.9246 19.3796 51.2042C19.1601 51.2771 19.2576 51.6295 19.4772 51.5566C20.7578 51.1312 21.8433 49.9159 22.7337 48.9559C23.7582 47.85 24.6729 46.6468 25.5389 45.4072C26.417 44.1433 27.2586 42.843 28.1124 41.5669C28.9173 40.3759 29.8687 38.4679 31.442 38.2492C31.6738 38.2127 31.5762 37.8724 31.3445 37.8967Z" fill="#2D2D2D"/>
<path d="M19.8072 53.817C21.3684 53.6712 22.6856 52.9541 23.9906 52.1278C25.2835 51.3135 26.5153 50.3777 27.613 49.3083C29.0278 47.9472 30.2231 46.3308 31.0158 44.5201C31.7964 42.7093 32.1623 40.7284 31.9062 38.7596C31.8818 38.5287 31.5159 38.5287 31.5403 38.7596C31.955 42.053 30.6378 45.3221 28.5155 47.8256C27.5642 48.9437 26.4543 49.9281 25.2835 50.8031C23.6735 51.9941 21.844 53.2701 19.795 53.4646C19.5755 53.4767 19.5755 53.8413 19.8072 53.817Z" fill="#2D2D2D"/>
<path d="M19.8069 53.4402C19.0873 53.4281 18.3921 53.5982 17.6847 53.6468C16.8675 53.7076 16.1845 53.4645 15.5137 53.0149C15.2453 52.8326 14.9526 52.6138 14.7819 52.3222C14.4282 51.7024 15.16 52.067 15.4161 52.1399C15.8308 52.2614 16.2089 52.2128 16.526 51.9333C16.7089 51.7753 16.4406 51.5201 16.2698 51.6781C15.721 52.1642 14.6965 51.0826 14.3306 51.7024C14.0501 52.1763 14.6965 52.8569 15.0136 53.1121C15.5624 53.5618 16.2333 53.9263 16.9529 54.0114C17.9042 54.1208 18.8555 53.7927 19.8069 53.817C20.0386 53.8048 20.0386 53.4402 19.8069 53.4402Z" fill="#2D2D2D"/>
<path d="M16.5503 51.7267C16.3064 50.9124 15.7575 50.2805 15.3185 49.5635C15.2575 49.4662 14.5257 48.1416 14.7696 48.0322C15.1965 47.8378 15.8063 49.0652 15.8917 49.3083C15.9649 49.527 16.3186 49.4298 16.2454 49.211C16.0503 48.652 15.7087 48.1294 15.1965 47.7892C14.9282 47.6069 14.5379 47.4732 14.4159 47.8864C14.2574 48.4454 14.672 49.1989 14.9526 49.6607C15.3916 50.3777 15.9649 50.9975 16.2088 51.8239C16.2698 52.0548 16.6235 51.9576 16.5503 51.7267Z" fill="#2D2D2D"/>
<path d="M16.3546 49.1991C16.2448 48.7495 16.0985 48.2876 16.0253 47.8258C15.9765 47.5463 15.9643 47.2668 15.9887 46.9873C16.0253 46.6227 16.0985 46.2581 16.3912 46.6834C16.8425 47.3519 16.9888 48.2633 17.2084 49.0168C17.2694 49.2477 17.6231 49.1505 17.5621 48.9196C17.3791 48.2755 17.2328 47.5949 16.9644 46.9751C16.8303 46.6713 16.5254 45.9907 16.0985 45.9907C15.6594 45.9907 15.6472 46.6713 15.6228 46.9751C15.5618 47.7651 15.8058 48.5186 16.0009 49.272C16.0497 49.5273 16.4034 49.43 16.3546 49.1991Z" fill="#2D2D2D"/>
<path d="M17.2088 47.4732C17.1478 47.218 17.0259 46.7926 17.1234 46.5374C17.3064 46.0634 17.5747 46.9141 17.6479 47.0964C17.9162 47.7405 18.0626 48.4211 18.0992 49.1138C18.1113 49.3447 18.4772 49.3447 18.4651 49.1138C18.4163 48.4454 18.3065 47.8013 18.0748 47.1815C17.9406 46.8048 17.7455 46.1364 17.3796 45.9298C16.5502 45.4558 16.7819 47.2787 16.8429 47.5825C16.9039 47.8013 17.2576 47.7041 17.2088 47.4732Z" fill="#2D2D2D"/>
<path d="M18.4407 47.8986C18.4285 47.7771 18.3432 47.1208 18.4895 46.9993C18.892 46.6469 19.0018 47.291 19.0506 47.4854C19.1359 47.8986 19.1237 48.3604 19.1603 48.7858C19.2213 49.6608 19.2823 50.5236 19.3433 51.3986C19.3555 51.6295 19.7214 51.6295 19.7092 51.3986C19.6482 50.5236 19.5872 49.6608 19.5262 48.7858C19.4896 48.1781 19.5384 47.376 19.2213 46.8291C19.0506 46.5375 18.7579 46.2701 18.4163 46.4889C17.9773 46.7805 18.0382 47.5583 18.0992 47.9958C18.1236 48.2267 18.4773 48.1295 18.4407 47.8986Z" fill="#2D2D2D"/>
<path opacity="0.09" d="M31.4788 38.3218C31.4178 38.3218 31.4666 39.2819 31.0885 40.6187C30.7957 41.6395 30.3201 42.6117 28.7833 44.6291C27.3685 46.4885 26.344 47.8375 24.5633 49.4173C22.6118 51.1552 21.6361 52.0181 20.2945 52.3462C17.3917 53.0632 14.7206 51.3983 14.4645 51.9573C14.3303 52.2611 15.0621 52.8688 15.3427 53.0754C15.6964 53.3306 16.3794 53.7316 17.9893 53.7559C19.709 53.7802 21.0263 53.367 21.319 53.2698C24.4169 52.249 26.4538 50.2316 27.5393 49.1135C28.9784 47.6552 30.1493 46.4642 30.9177 44.4711C32.1496 41.3721 31.6007 38.3218 31.4788 38.3218Z" fill="#2D2D2D"/>
<path opacity="0.13" d="M31.2354 43.0132C31.1501 42.9646 30.6378 43.8153 29.906 44.824C29.906 44.824 28.1497 47.2546 25.8811 49.3206C24.6371 50.4508 22.3685 52.2008 18.7705 53.5741C19.5145 53.6227 20.6244 53.5984 21.8562 53.1852C22.2465 53.0515 23.2223 52.6869 25.5762 50.6452C27.4545 49.0167 28.5034 48.1174 29.5523 46.5376C30.6866 44.8483 31.3574 43.074 31.2354 43.0132Z" fill="#2D2D2D"/>
<path d="M32.7604 36.5607C31.992 36.8281 31.5164 37.3021 31.0163 37.8003C29.6259 39.1979 29.1258 40.7778 28.7355 42.0538C27.5647 45.8941 26.967 47.8021 26.6987 49.4792C26.3816 51.3872 26.1133 53.915 26.1987 56.9046C26.8329 57.3421 27.7354 57.9012 28.8819 58.3873C30.1991 58.9463 31.3822 59.4446 32.9068 59.323C33.5166 59.2744 34.5655 59.1043 35.7364 58.3873C35.7974 57.5973 35.9315 56.3699 36.2852 54.9237C36.8951 52.3595 37.5537 51.6181 38.627 48.4341C39.4685 45.9184 39.8832 44.6302 39.8222 43.0868C39.7735 42.0052 39.6759 39.8906 38.0781 38.2378C36.8585 36.9861 34.6753 35.8923 32.7604 36.5607Z" fill="white"/>
<path d="M32.2104 36.6445C30.7468 37.5195 29.8564 38.9779 29.1246 40.4727C28.3441 42.089 27.7586 43.7904 27.3317 45.5404C26.4414 49.1863 26.2219 52.9658 26.0755 56.7089C26.0633 56.9398 26.4292 56.9398 26.4414 56.7089C26.5756 53.136 26.7829 49.5509 27.5879 46.0508C27.9782 44.3373 28.5148 42.648 29.2588 41.0439C29.9784 39.4761 30.8688 37.8598 32.3933 36.9605C32.5885 36.839 32.4055 36.523 32.2104 36.6445Z" fill="#2D2D2D"/>
<path d="M36.9307 37.4345C38.309 38.504 39.2603 40.0109 39.5652 41.7245C39.9067 43.6811 39.4311 45.6742 38.7724 47.5092C38.1382 49.2836 37.3088 50.9728 36.7356 52.7714C36.1624 54.5336 35.8087 56.3687 35.6623 58.2159C35.6379 58.4468 36.0038 58.4468 36.0282 58.2159C36.199 56.1378 36.638 54.084 37.3454 52.1273C38.0162 50.2558 38.9066 48.4693 39.4798 46.5613C39.9921 44.8478 40.2604 42.9884 39.8335 41.214C39.4554 39.6099 38.5041 38.188 37.1991 37.1914C37.0039 37.0335 36.7478 37.2887 36.9307 37.4345Z" fill="#2D2D2D"/>
<path d="M26.1491 56.9519C27.6249 58.2644 29.4544 59.1273 31.418 59.4068C32.9792 59.6255 34.9916 59.6377 36.0161 58.2401C36.1503 58.0457 35.8332 57.8634 35.699 58.0578C34.6745 59.4432 32.4059 59.2609 30.918 58.9571C29.2348 58.6168 27.6859 57.8269 26.4052 56.6967C26.2345 56.5387 25.9783 56.7939 26.1491 56.9519Z" fill="#2D2D2D"/>
<path opacity="0.11" d="M34.3325 36.6082C34.7472 37.3252 33.2104 38.6498 32.0273 40.7158C31.2711 42.0284 30.9784 43.1707 30.4052 45.4555C29.0635 50.8027 29.3197 56.8792 29.4294 58.6413C28.3805 58.0823 27.3438 57.5354 26.2949 56.9764C26.3437 55.7854 26.4413 54.084 26.6364 52.0423C26.9535 48.8097 27.1365 47.0475 27.7585 44.7627C28.3074 42.7818 28.844 40.9346 30.3076 38.9537C31.2589 37.6655 32.2713 36.7783 33.003 36.2193C33.4665 36.195 34.1129 36.2314 34.3325 36.6082Z" fill="#2D2D2D"/>
<path opacity="0.15" d="M29.6735 40.2783C29.832 40.3269 29.1856 42.8669 28.1489 48.4815C27.4659 52.1638 27.3073 53.4885 27.8562 55.1291C28.5636 57.2316 29.9906 58.5076 29.7223 58.7871C29.5515 58.9573 28.8197 58.7142 26.295 56.8305C26.234 54.1812 26.4048 50.5232 27.4659 46.3304C28.3075 43.0127 29.5027 40.2176 29.6735 40.2783Z" fill="#2D2D2D"/>
<path d="M41.053 31.6011C41.6262 32.1237 41.5531 33.1446 41.4433 34.6272C41.3701 35.6602 41.3335 36.1828 40.9798 36.681C40.248 37.714 38.5893 38.188 37.2843 37.6047C37.1257 37.5317 36.3207 37.155 35.8816 36.2435C35.2474 34.931 35.906 33.6185 36.0402 33.3755C37.0647 31.4675 40.0285 30.6532 41.053 31.6011Z" fill="#0071BC"/>
<path d="M41.0778 24.8803C41.5413 24.9775 41.8218 25.6216 42.3829 26.922C42.8585 28.0279 43.0781 28.9272 43.1756 29.3526C43.3342 30.0939 43.4196 30.7258 43.4562 31.1998C43.1269 31.297 42.7976 31.3821 42.4682 31.4793C42.3951 31.9047 42.2365 32.5366 41.9194 33.2415C41.4803 34.2137 41.1144 35.0523 40.2607 35.4411C39.2727 35.8908 38.2116 35.4898 37.8579 35.3196C37.7238 35.6599 37.5286 36.0488 37.2725 36.462C37.0896 36.7537 36.8944 36.9967 36.7237 37.2033C35.6138 37.4828 35.1015 37.1912 34.9064 37.0453C33.8819 36.2918 33.9672 33.8613 35.5406 31.1147C35.4552 30.981 35.3211 30.7866 35.1503 30.5678C34.7966 30.1303 34.6746 30.1182 34.5161 29.863C34.4673 29.7901 34.0892 29.146 34.3941 28.5626C34.5405 28.2831 34.8454 28.04 35.1869 28.0157C35.6016 27.9793 35.7357 28.3074 36.0894 28.4046C36.6993 28.5869 37.3701 27.9307 39.041 26.363C40.4436 25.0504 40.7241 24.8074 41.0778 24.8803Z" fill="white"/>
<path d="M42.2492 26.8739C42.8224 28.3079 43.1883 29.8027 43.3225 31.3461C43.3347 31.5163 43.6152 31.5163 43.603 31.3461C43.4688 29.7784 43.103 28.2593 42.5175 26.8009C42.4565 26.6308 42.1882 26.7037 42.2492 26.8739Z" fill="#2D2D2D"/>
<path d="M43.3953 31.2247C43.066 31.2612 42.7367 31.3098 42.4074 31.3462C42.2366 31.3705 42.2366 31.6379 42.4074 31.6258C42.7367 31.5893 43.066 31.5407 43.3953 31.5042C43.566 31.4678 43.566 31.2004 43.3953 31.2247Z" fill="#2D2D2D"/>
<path d="M42.3344 31.4674C42.1149 32.6827 41.6148 33.8616 40.7976 34.7973C39.8219 35.9397 38.2729 35.3442 37.0776 34.8581C36.9191 34.7852 36.8459 35.0526 37.0045 35.1255C38.1266 35.5873 39.7365 36.2192 40.7488 35.247C41.749 34.2991 42.3466 32.8772 42.5905 31.5404C42.6271 31.3702 42.371 31.2973 42.3344 31.4674Z" fill="#2D2D2D"/>
<path d="M37.6746 35.3809C37.4184 35.9642 37.1013 36.5111 36.7354 37.0337C36.6378 37.1796 36.8696 37.3132 36.9671 37.1674C37.333 36.6448 37.6502 36.0858 37.9063 35.5146C37.9795 35.3566 37.7477 35.2229 37.6746 35.3809Z" fill="#2D2D2D"/>
<path d="M36.9802 35.1622C37.1631 35.3567 37.3705 35.5268 37.6022 35.6483C37.7607 35.7334 37.8949 35.5025 37.7364 35.4174C37.5168 35.2959 37.3339 35.1501 37.1631 34.9678C37.0533 34.8341 36.8582 35.0285 36.9802 35.1622Z" fill="#2D2D2D"/>
<path d="M41.2244 28.8545C41.1512 28.7087 41.1634 28.5264 41.261 28.4049C41.1878 28.3806 41.1024 28.3684 41.0292 28.3441C41.0658 28.5507 41.0658 28.7452 41.0536 28.9518C41.1024 28.9031 41.1512 28.8545 41.1878 28.8181C41.2 28.8424 41.2122 28.8667 41.2366 28.891C41.2732 28.7208 41.0049 28.6479 40.9683 28.8181C40.9317 28.9639 41.0292 29.0976 41.1878 29.0976C41.2732 29.0976 41.322 29.0368 41.322 28.9639C41.3464 28.733 41.3342 28.5142 41.2976 28.2833C41.2854 28.1861 41.1268 28.1497 41.0658 28.2226C40.8829 28.4535 40.8463 28.7452 40.9927 29.0004C41.0658 29.1462 41.3098 29.0125 41.2244 28.8545Z" fill="#2D2D2D"/>
<path d="M40.4921 27.2141C40.6629 26.7888 41.1507 26.6673 41.5288 26.9103C41.6752 27.0075 41.8094 26.7645 41.663 26.6794C41.1263 26.327 40.4677 26.5579 40.2238 27.1412C40.1628 27.3114 40.4311 27.3843 40.4921 27.2141Z" fill="#2D2D2D"/>
<path d="M39.931 29.4017C39.8822 29.4017 39.8213 29.4017 39.7725 29.4017C39.7603 29.3774 39.7603 29.3531 39.7481 29.3288C39.7725 29.2438 39.8091 29.2195 39.8822 29.2438C39.8944 29.2559 39.9188 29.2802 39.931 29.2924C39.931 29.2924 39.931 29.2924 39.931 29.2802C39.8944 29.2195 39.8091 29.1951 39.7481 29.2316C39.6871 29.2681 39.6627 29.3531 39.6993 29.4139C39.7481 29.4747 39.8213 29.5111 39.8944 29.499C39.9676 29.4747 40.0286 29.4139 40.0286 29.3288C40.0286 29.1465 39.7725 29.0979 39.6871 29.2438C39.6505 29.3045 39.6749 29.3896 39.7359 29.4261C39.8091 29.4868 39.8944 29.4625 39.931 29.4017Z" fill="#2D2D2D"/>
<path d="M40.5408 29.9606C40.5164 29.9849 40.4798 30.0214 40.4432 30.0457C40.4432 30.0457 40.4432 30.0457 40.4554 30.0457C40.431 30.0457 40.4066 30.0457 40.3822 30.0457C40.3822 30.0457 40.37 30.0457 40.37 30.0335C40.3578 30.0214 40.3334 29.9971 40.3212 29.9849V29.9971C40.3212 29.9606 40.309 29.9242 40.309 29.8877C40.3212 29.8756 40.3334 29.8634 40.3456 29.8513C40.2846 29.8999 40.2603 29.9728 40.2968 30.0335C40.3334 30.0943 40.431 30.1308 40.4798 30.0821C40.5652 30.0214 40.6262 29.8999 40.5286 29.8148C40.492 29.7783 40.431 29.754 40.37 29.7783C40.309 29.7905 40.2846 29.8269 40.2603 29.8877C40.2359 29.9606 40.2846 30.0335 40.3578 30.0578C40.4432 30.0821 40.5164 30.0335 40.5408 29.9606Z" fill="#2D2D2D"/>
<path d="M39.578 29.9727C39.5658 29.9727 39.5658 29.9727 39.5536 29.9727C39.3828 29.9727 39.3706 30.2522 39.5536 30.2522C39.5658 30.2522 39.5658 30.2522 39.578 30.2522C39.7609 30.2522 39.7609 29.9727 39.578 29.9727Z" fill="#2D2D2D"/>
<path d="M40.6751 31.7716C40.8702 32.3671 41.1751 32.9018 41.785 33.1328C41.9435 33.1935 42.0167 32.9383 41.8582 32.8654C41.3581 32.6709 41.102 32.1727 40.9434 31.6865C40.8824 31.5286 40.6263 31.6015 40.6751 31.7716Z" fill="#2D2D2D"/>
<path d="M40.6385 31.9174C40.7116 31.808 40.8336 31.7472 40.98 31.7229C41.0531 31.7108 41.0897 31.6136 41.0775 31.5528C41.0531 31.4677 40.98 31.4434 40.9068 31.4556C40.6994 31.4799 40.5287 31.6014 40.4067 31.7715C40.297 31.9174 40.5287 32.0632 40.6385 31.9174Z" fill="#2D2D2D"/>
<path d="M35.4558 30.3374C34.7118 30.6048 34.3093 29.4624 34.4434 28.9277C34.5166 28.6482 34.7118 28.32 35.0045 28.235C35.407 28.1134 35.7729 28.4294 36.029 28.6725C36.151 28.794 36.3461 28.5995 36.2241 28.478C35.8948 28.162 35.4923 27.8582 35.0045 27.9555C34.5654 28.0405 34.2971 28.4537 34.1873 28.8548C33.9922 29.5961 34.5898 30.9329 35.5289 30.6048C35.6997 30.544 35.6265 30.2766 35.4558 30.3374Z" fill="#2D2D2D"/>
<path d="M40.1141 25.148C39.9677 25.3182 39.7482 25.5977 39.4921 25.9623C38.5651 27.3112 38.6505 27.8581 38.0041 28.247C37.504 28.5508 36.7356 28.6481 36.1502 28.405C35.7111 28.2227 35.5892 27.9432 35.2111 27.9553C34.7964 27.9675 34.4061 28.3078 34.2475 28.7088C34.0524 29.1828 34.2475 29.6203 34.3817 29.8998C34.5037 30.155 34.6744 30.5318 35.0403 30.6168C35.2721 30.6654 35.4794 30.5804 35.5892 30.5196C35.577 30.6533 35.5526 30.8599 35.5404 31.1151C35.4794 32.1724 35.6014 32.9016 35.6502 33.3755C35.7721 34.5179 35.8819 35.4294 35.5404 36.2922C35.0159 37.5804 33.7109 38.1516 33.2352 38.3582C31.2106 39.2454 29.3323 38.504 29.0762 38.3947C28.6737 38.2245 26.7466 37.4346 26.271 35.636C25.9783 34.5544 26.3076 33.4606 26.4417 32.9988C26.5027 32.8043 26.6613 32.3182 26.9784 31.7592C27.6736 30.5196 28.6737 29.7661 29.3689 29.3408C29.6006 28.5022 29.9909 27.2991 30.6739 25.9258C31.4423 24.3702 31.8692 23.5074 32.8449 22.7053C34.3939 21.4293 36.1502 21.2713 36.7235 21.2348C37.0162 21.2105 38.4554 21.1254 40.1629 21.8181C41.3703 22.3043 42.7852 22.8876 43.3706 24.3338C44.0414 26.023 43.0901 27.7001 42.9071 28.0161C42.8583 27.8095 42.7608 27.4935 42.5534 27.1897C42.2485 26.7401 41.907 26.5578 41.3947 26.2053C41.0654 25.9501 40.6264 25.622 40.1141 25.148Z" fill="#0071BC"/>
<path d="M35.0893 37.1551C35.6137 37.4589 36.2235 37.5318 36.809 37.3374C37.0285 37.2644 36.9309 36.912 36.7114 36.9849C36.2235 37.1429 35.7235 37.0943 35.2722 36.8391C35.0649 36.7297 34.8819 37.0457 35.0893 37.1551Z" fill="#2D2D2D"/>
<path opacity="0.14" d="M34.5165 29.8876C34.6141 30.1672 34.8702 30.3616 35.1507 30.3981C35.4556 30.4345 35.7606 30.2887 35.9191 30.0213C35.8581 30.4224 35.7972 31.2366 36.1752 32.1359C36.6875 33.3755 37.6876 33.9589 38.1267 34.2141C39.2 34.8217 40.2245 34.8582 40.7246 34.846C40.6148 35.0405 40.3709 35.3564 39.9562 35.563C38.9683 36.0492 37.9316 35.3929 37.8706 35.3565C37.6022 35.9398 37.3217 36.3651 37.1022 36.669C36.7973 37.0822 36.6753 37.1794 36.5899 37.2158C36.0045 37.5561 35.2361 37.2037 35.0166 37.0943C34.7726 37.3252 34.4189 37.6169 33.9555 37.8964C33.5652 38.1273 32.5163 38.735 31.0649 38.7471C31.0649 38.7471 29.1134 38.7471 27.5401 37.4346C26.9302 36.9242 26.6741 36.4745 26.6009 36.3287C26.5399 36.2072 26.2838 35.721 26.2228 34.9311C26.0887 33.412 26.7473 32.1238 27.1132 31.5404C27.7718 30.4953 28.6134 29.8755 29.15 29.5474C29.1134 29.681 28.6621 31.5647 29.6623 32.4762C30.9185 33.6064 33.7603 32.537 34.3823 30.9085C34.5409 30.5074 34.5409 30.1307 34.5165 29.8876Z" fill="#2D2D2D"/>
<path opacity="0.07" d="M36.0044 33.2542C35.9068 33.3028 36.1386 33.9347 36.3581 34.3844C36.7118 35.1257 37.1509 35.6726 37.468 36.0007C37.5534 35.782 37.6387 35.5632 37.7241 35.3566C38.0046 35.4781 38.5291 35.6483 39.1877 35.6118C39.6268 35.5875 39.9805 35.4781 40.2244 35.3809C38.3461 35.3445 37.3948 34.7733 36.8703 34.2507C36.4435 33.8253 36.102 33.2055 36.0044 33.2542Z" fill="#2D2D2D"/>
<path d="M66.3006 22.0372C66.1298 21.9399 66.0932 21.709 66.0689 21.5511C65.9835 20.9799 66.4104 20.5181 66.4835 20.4208C66.9348 19.9226 67.1909 20.1778 67.6178 19.716C67.9349 19.3757 67.9105 19.0962 68.3984 18.6465C68.7155 18.3427 68.8253 18.3791 68.8497 18.3913C69.0204 18.4642 68.8741 18.841 69.0448 19.4243C69.1912 19.9104 69.3741 19.9104 69.4351 20.3236C69.4473 20.433 69.5327 20.9799 69.2034 21.2958C69.057 21.4417 68.8619 21.4781 68.4594 21.5511C67.9959 21.6361 67.9349 21.5875 67.6178 21.6483C66.8494 21.7941 66.5811 22.1952 66.3006 22.0372Z" fill="white"/>
<path d="M66.2642 21.5264C64.4225 23.4222 62.5808 25.3302 60.7391 27.226C60.5074 27.4934 60.4952 27.8945 60.7025 28.1618C60.9343 28.4535 61.349 28.5264 61.6783 28.3198C63.5687 26.1323 65.447 23.9326 67.3375 21.7451C66.9838 21.6722 66.6301 21.5993 66.2642 21.5264Z" fill="#2D2D2D"/>
<path d="M59.605 31.9052C59.666 32.0631 59.4708 32.3913 58.4097 33.0961C58.1048 33.0354 57.8487 32.8652 57.7999 32.6465C57.7267 32.2819 58.2512 31.9781 58.4829 31.8687C58.9098 31.6743 59.5196 31.6864 59.605 31.9052Z" fill="#2D2D2D"/>
<path d="M38.1508 36.9123C37.4922 37.0582 36.3335 37.3377 35.7969 38.2856C35.4432 38.9054 35.5163 39.5616 35.5407 39.7926C35.6627 40.8255 36.3823 41.6884 37.1995 42.0651C38.1996 42.5148 39.2363 42.1745 39.7607 41.9922C44.3223 40.4245 46.603 39.6467 47.53 39.1849C50.2132 37.8359 53.2014 36.3168 56.6042 33.4974C57.4824 32.7682 58.1776 32.1241 58.6655 31.6623C58.8606 31.7717 59.2997 31.9783 59.8241 31.9175C60.251 31.8689 60.5315 31.6744 60.9462 31.3828C61.2389 31.1762 61.5804 30.9331 61.8854 30.4834C62.1781 30.0581 62.2757 29.6814 62.361 29.3654C62.4464 29.013 62.6172 28.381 62.3976 28.2473C62.2391 28.1501 62.0683 28.4175 61.6414 28.4296C61.6048 28.4296 61.0804 28.4296 60.8486 28.1015C60.6291 27.7977 60.8608 27.5182 60.6657 27.2751C60.4584 27.0077 59.9217 27.032 59.5802 27.1293C58.7874 27.3723 58.4093 28.2473 58.1654 28.7091C57.4946 30.0338 56.5311 30.7508 54.7382 32.0998C53.3477 33.1449 52.1037 33.631 50.4328 34.2995C49.7741 34.5668 48.5179 35.0529 46.8592 35.454C44.0661 36.1102 41.8586 36.0859 38.1508 36.9123Z" fill="white"/>
<path d="M36.1508 38.1638C37.407 36.9121 39.3829 36.8635 41.0416 36.6326C42.9809 36.3652 44.9202 36.0735 46.8228 35.6239C50.2013 34.8461 53.5553 33.5457 56.202 31.261C56.8972 30.6533 57.5436 29.9849 58.0803 29.2193C58.5682 28.5266 59.4951 26.4849 60.6416 27.4571C60.8245 27.603 61.0807 27.3477 60.8977 27.2019C60.4586 26.8252 59.8732 26.8009 59.3609 27.0561C58.6413 27.4207 58.312 28.2228 57.8851 28.8669C56.7753 30.544 55.0921 31.8322 53.3602 32.8165C49.7134 34.8825 45.5178 35.6239 41.4197 36.2193C39.5658 36.4867 37.3217 36.511 35.9069 37.9086C35.7239 38.0666 35.98 38.3218 36.1508 38.1638Z" fill="#2D2D2D"/>
<path d="M35.8822 37.7265C35.065 39.1119 35.2236 40.947 36.5896 41.9314C38.2239 43.1102 40.5169 41.9921 42.1878 41.4209C46.1273 40.0598 49.8839 38.2126 53.3721 35.9278C55.3114 34.6639 57.153 33.2542 58.8972 31.7351C59.0801 31.5771 58.8118 31.3219 58.641 31.4799C53.1648 36.2438 46.5176 40.0112 39.468 41.8949C38.2605 42.223 37.0043 42.1501 36.2237 41.0564C35.5407 40.1206 35.6261 38.881 36.1993 37.9209C36.3213 37.7143 36.0042 37.532 35.8822 37.7265Z" fill="#2D2D2D"/>
<path d="M62.1659 27.9918C62.2269 28.2713 62.2879 28.5751 62.2635 28.8668C62.2147 29.2678 62.0196 29.4015 61.8732 29.7296C61.8122 29.8755 61.8 30.0213 61.7512 30.1671C61.6537 30.4953 61.5195 30.5682 61.2878 30.7626C61.0316 30.9692 60.8853 31.2123 60.6658 31.4432C60.3121 31.8199 60.1047 31.6984 59.6656 31.6498C59.3485 31.6133 59.0192 31.5647 58.7021 31.5283C58.4704 31.5039 58.4704 31.8685 58.7021 31.8928C59.2266 31.9658 60.1169 32.2696 60.6048 32.0144C60.7999 31.9171 60.9097 31.7349 61.0317 31.5647C61.1902 31.346 61.3366 31.1637 61.5805 31.0421C61.7025 30.9814 61.7634 31.03 61.8732 30.9328C62.0074 30.8234 62.044 30.6411 62.0805 30.4831C62.1659 30.0942 62.2879 29.839 62.4586 29.4987C62.7148 29.0005 62.6294 28.4414 62.5196 27.9189C62.4708 27.6636 62.1171 27.7609 62.1659 27.9918Z" fill="#2D2D2D"/>
<path d="M60.6661 27.3116C60.3856 27.7248 60.6051 28.3203 61.0442 28.5148C61.5565 28.7457 62.1297 28.4054 62.3858 27.9558C62.5078 27.7492 62.1907 27.5669 62.0687 27.7735C61.9102 28.053 61.5808 28.3082 61.2515 28.1988C60.9588 28.1137 60.8003 27.7492 60.9832 27.4939C61.1052 27.2995 60.7881 27.1172 60.6661 27.3116Z" fill="#2D2D2D"/>
<path d="M60.8974 27.4814C62.7391 25.5734 64.5564 23.6411 66.3493 21.6845C66.5078 21.5144 66.2517 21.247 66.0931 21.4293C64.3002 23.3859 62.483 25.3182 60.6413 27.2262C60.4705 27.3842 60.7267 27.6515 60.8974 27.4814Z" fill="#2D2D2D"/>
<path d="M62.3734 27.8705C64.1297 25.8532 65.8738 23.8358 67.6301 21.8184C67.7887 21.6361 67.5204 21.3809 67.374 21.5632C65.6177 23.5806 63.8736 25.598 62.1173 27.6153C61.9587 27.7976 62.2148 28.0528 62.3734 27.8705Z" fill="#2D2D2D"/>
<path d="M59.4585 31.8564C59.2267 32.0873 58.995 32.3304 58.7633 32.5613C58.6901 32.6342 58.5803 32.7922 58.4949 32.8408C58.19 32.9988 58.0315 32.6949 57.9217 32.5005C57.7997 32.2939 57.4826 32.4762 57.6046 32.6828C57.7875 32.9866 58.0924 33.3755 58.4949 33.254C58.7145 33.1932 58.873 32.9745 59.0194 32.8165C59.2511 32.5856 59.4829 32.3425 59.7146 32.1116C59.8853 31.9415 59.617 31.6863 59.4585 31.8564Z" fill="#2D2D2D"/>
<path d="M67.5323 21.7695C68.2641 22.0976 69.1544 21.9031 69.5325 21.1497C69.7155 20.7851 69.7277 20.3476 69.5935 19.9708C69.3618 19.3632 68.5202 18.8285 69.2642 18.1965C69.4472 18.0385 69.1788 17.7833 69.0081 17.9413C68.5812 18.3059 68.4592 18.8649 68.7398 19.351C69.0081 19.825 69.435 20.0924 69.3008 20.7122C69.1544 21.4413 68.3739 21.7452 67.7275 21.4535C67.4957 21.3563 67.3128 21.6722 67.5323 21.7695Z" fill="#2D2D2D"/>
<path d="M66.3251 21.369C66.3982 20.8343 66.5934 20.4818 67.0691 20.2145C67.313 20.0808 67.5691 19.9714 67.7886 19.8013C68.2399 19.4367 68.3741 18.7683 68.9107 18.5009C69.1181 18.3915 68.9351 18.0877 68.7278 18.1849C68.4229 18.3308 68.2399 18.5617 68.0692 18.8533C67.8008 19.2787 67.5569 19.5582 67.1056 19.7891C66.3739 20.1658 66.0689 20.5426 65.9592 21.369C65.9348 21.5999 66.3007 21.5999 66.3251 21.369Z" fill="#2D2D2D"/>
<path d="M66.2641 21.721C66.6056 21.5873 66.9593 21.6359 67.2521 21.8547C67.435 22.0005 67.618 21.6845 67.435 21.5387C67.0691 21.2592 66.5813 21.1984 66.1544 21.3686C65.947 21.4536 66.0446 21.8061 66.2641 21.721Z" fill="#2D2D2D"/>
<path d="M67.4713 20.0441C67.947 19.8861 68.4349 19.8739 68.9227 19.9954C69.1544 20.0562 69.252 19.7038 69.0203 19.643C68.4714 19.5093 67.9104 19.5215 67.3737 19.6916C67.1542 19.7645 67.2518 20.117 67.4713 20.0441Z" fill="#0071BC"/>
<path d="M67.2641 20.0442C68.1544 19.6675 68.4228 18.6345 69.2522 18.1727C69.179 18.0755 69.1058 17.9783 69.0326 17.8811C68.3984 18.4522 68.9594 19.23 69.118 19.862C69.2034 19.789 69.3009 19.7283 69.3863 19.6554C68.9228 19.4609 68.4594 19.3758 67.9593 19.4123C68.0081 19.5095 68.0691 19.5946 68.1179 19.6918C68.2886 19.3637 68.496 19.072 68.7277 18.7804C68.6301 18.7196 68.5203 18.6588 68.4228 18.5981C68.3252 18.8533 68.2032 19.1692 68.252 19.4366C68.2642 19.5095 68.3496 19.5703 68.4228 19.5703C68.7155 19.5581 68.7887 19.1571 68.8863 18.9383C68.7765 18.9019 68.6545 18.8776 68.5447 18.8411C68.5691 19.0234 68.6301 19.2422 68.6057 19.4366C68.6301 19.388 68.6667 19.3272 68.6911 19.2786C68.6057 19.3272 68.2764 19.2908 68.1301 19.3272C67.8861 19.3758 67.6788 19.4609 67.4592 19.5824C67.3007 19.6675 67.3739 19.9349 67.5568 19.9227C67.8617 19.8984 68.1666 19.862 68.4716 19.8377C68.7033 19.8133 68.7033 19.4488 68.4716 19.4731C68.1666 19.4974 67.8617 19.5338 67.5568 19.5581C67.5934 19.6675 67.6178 19.789 67.6544 19.8984C67.9105 19.7647 68.191 19.6675 68.4838 19.6554C68.5935 19.6432 68.7643 19.6918 68.8619 19.6189C69.0814 19.4609 68.935 19.0842 68.9106 18.8533C68.8862 18.6953 68.6545 18.5738 68.5691 18.7561C68.5569 18.7925 68.3618 19.2057 68.4228 19.2057C68.4838 19.2543 68.5447 19.2908 68.5935 19.3394C68.5569 19.1571 68.7033 18.8533 68.7643 18.6953C68.8253 18.5251 68.5691 18.3793 68.4594 18.513C68.2032 18.8168 67.9837 19.1449 67.7886 19.4974C67.7276 19.6067 67.8007 19.789 67.9471 19.7769C68.3862 19.7404 68.7887 19.8012 69.1912 19.9713C69.3375 20.0321 69.5083 19.9349 69.4595 19.7647C69.3375 19.2786 68.8009 18.5616 69.2765 18.1363C69.4351 17.9904 69.2278 17.7474 69.057 17.8446C68.2398 18.3064 67.9471 19.3394 67.0689 19.7161C66.8616 19.8255 67.0567 20.1293 67.2641 20.0442Z" fill="#0071BC"/>
<path d="M69.0446 17.7956C68.5323 18.1116 68.2152 18.5855 67.8371 19.0352C67.6054 19.3147 67.3492 19.4848 67.0931 19.7279C66.9955 19.813 66.9102 19.8616 66.9102 19.9953C66.9102 20.0196 66.9223 20.056 66.9589 20.0682C67.7273 20.3963 68.5811 19.5213 69.3373 20.1411C69.3861 20.1776 69.4471 20.1776 69.4836 20.1168C69.7032 19.8008 69.2153 19.497 69.0324 19.3025C68.9714 19.2418 68.8494 19.3025 68.8738 19.3876C68.9104 19.5091 68.8982 19.497 68.9836 19.5942C69.0568 19.6914 69.2153 19.5942 69.1421 19.497C69.1177 19.4362 69.0812 19.3876 69.0568 19.3269C69.008 19.3512 68.9592 19.3876 68.8982 19.4119C68.9836 19.497 69.4349 19.8494 69.3251 20.0074C69.3739 19.9953 69.4227 19.9953 69.4714 19.9831C69.2153 19.7765 68.9226 19.6793 68.5811 19.6914C68.386 19.7036 68.1908 19.7401 67.9957 19.7765C67.8371 19.813 67.6907 19.8494 67.5322 19.8616C67.3614 19.8859 67.1541 19.9831 67.2882 19.7522C67.3614 19.6307 67.581 19.5213 67.6785 19.4241C67.8249 19.2782 67.9591 19.1203 68.081 18.9501C68.3981 18.5612 68.6909 18.1723 69.1177 17.905C69.2397 17.8928 69.1421 17.7348 69.0446 17.7956Z" fill="#0071BC"/>
<path d="M67.1664 20.1292C67.5323 20.1778 67.886 20.0563 68.2519 20.0077C68.5568 19.9712 68.8007 20.0198 69.0812 20.117C69.2398 20.1778 69.3374 20.2143 69.5081 20.19C69.5691 20.1778 69.6057 20.1413 69.5935 20.0806C69.5691 19.9226 69.5325 19.8375 69.4471 19.7038C69.3862 19.6066 69.2276 19.7038 69.2886 19.8011C69.374 19.8983 69.4105 20.0077 69.4227 20.1292C69.4471 20.0927 69.4837 20.0563 69.5081 20.0198C69.1666 20.0563 68.8251 19.8132 68.4714 19.8132C68.0567 19.8254 67.6298 20.0198 67.2151 19.9591C67.0932 19.9347 67.0444 20.1049 67.1664 20.1292Z" fill="#0071BC"/>
<path d="M68.8981 18.1117C68.9591 18.0266 69.0323 17.9537 69.1299 17.9051C69.1543 17.8929 69.2396 17.8321 69.264 17.8565C69.3006 17.8808 69.2031 17.9537 69.1787 17.9658C69.0323 18.0874 68.9347 18.2453 68.8616 18.4155C68.8128 18.5249 68.9957 18.5735 69.0323 18.4641C69.1055 18.294 69.2274 18.1846 69.3616 18.0509C69.447 17.978 69.4958 17.8686 69.4104 17.7592C69.2275 17.5162 68.8738 17.8321 68.7518 17.9901C68.6908 18.0752 68.825 18.2089 68.8981 18.1117Z" fill="#0071BC"/>
<path d="M69.3135 17.7107C69.1062 17.8443 68.9598 18.0509 68.8989 18.294C68.8745 18.4034 69.0452 18.452 69.0696 18.3426C69.1184 18.1482 69.2282 17.9902 69.3989 17.8687C69.5087 17.7957 69.4111 17.6378 69.3135 17.7107Z" fill="#0071BC"/>
<path d="M36.0289 38.1395C36.4192 37.3738 37.834 37.0822 38.6146 36.985C38.8463 36.9485 38.7487 36.5961 38.517 36.6325C37.6388 36.7541 36.1631 37.0943 35.7118 37.9572C35.6142 38.1638 35.9313 38.3582 36.0289 38.1395Z" fill="#2D2D2D"/>
<path opacity="0.13" d="M35.6143 39.9018C36.712 39.8289 38.3097 39.6831 40.2002 39.3185C45.6155 38.2855 49.4696 36.2803 51.8235 35.0407C53.775 34.0077 56.3607 32.4643 59.2025 30.2403C60.4465 29.8393 61.2149 29.2924 61.7028 28.8549C62.0321 28.5632 62.276 28.2716 62.398 28.3323C62.5931 28.4417 62.2882 29.4504 61.8735 30.1795C61.5076 30.8358 61.0807 31.2125 60.9466 31.3341C60.6051 31.6257 60.4099 31.8323 60.0806 31.9174C59.4708 32.0754 58.9219 31.7473 58.739 31.6257C58.2877 31.9782 57.6291 32.5007 56.8119 33.1205C53.5188 35.6119 51.8601 36.8636 49.6769 38.0546C47.6645 39.1483 45.9814 39.8046 42.7005 41.0685C42.3956 41.19 41.9931 41.3237 41.1881 41.5911C39.0415 42.3081 38.5292 42.3932 37.9316 42.2838C37.6877 42.2352 37.09 42.1258 36.5412 41.6518C35.8216 41.0077 35.663 40.1813 35.6143 39.9018Z" fill="#2D2D2D"/>
<path opacity="0.19" d="M45.2857 39.9871C45.2613 39.9507 45.4687 39.7805 50.0424 36.8881C56.0675 33.0721 55.6406 33.4124 56.2749 32.9506C58.9093 31.0061 60.0802 29.6936 60.69 30.0825C61.1047 30.3499 61.1779 31.3221 60.7266 31.7475C60.3363 32.1242 59.5192 32.0877 58.7874 31.553C57.3116 32.8655 55.1162 34.652 52.2256 36.4628C48.8105 38.5652 45.3711 40.133 45.2857 39.9871Z" fill="#2D2D2D"/>
</g>
<defs>
<filter id="filter0_d_784_3934" x="0.300537" y="0.5" width="180.053" height="110" filterUnits="userSpaceOnUse" color-interpolation-filters="sRGB">
<feFlood flood-opacity="0" result="BackgroundImageFix"/>
<feColorMatrix in="SourceAlpha" type="matrix" values="0 0 0 0 0 0 0 0 0 0 0 0 0 0 0 0 0 0 127 0" result="hardAlpha"/>
<feOffset dy="4"/>
<feGaussianBlur stdDeviation="2"/>
<feComposite in2="hardAlpha" operator="out"/>
<feColorMatrix type="matrix" values="0 0 0 0 0 0 0 0 0 0 0 0 0 0 0 0 0 0 0.25 0"/>
<feBlend mode="normal" in2="BackgroundImageFix" result="effect1_dropShadow_784_3934"/>
<feBlend mode="normal" in="SourceGraphic" in2="effect1_dropShadow_784_3934" result="shape"/>
</filter>
</defs>
</svg>
