<svg width="14" height="15" viewBox="0 0 14 15" fill="none" xmlns="http://www.w3.org/2000/svg">
<path d="M1.31486 1.00035C1.15352 1.0004 0.995857 1.04857 0.862029 1.13871C0.728202 1.22885 0.62429 1.35686 0.563578 1.50639C0.502867 1.65591 0.488115 1.82014 0.521208 1.9781C0.554301 2.13605 0.633736 2.28054 0.749357 2.3931L5.85315 7.49826L0.749357 12.6034C0.67152 12.6782 0.609376 12.7677 0.566566 12.8668C0.523756 12.9659 0.50114 13.0725 0.500042 13.1804C0.498944 13.2883 0.519387 13.3954 0.560173 13.4953C0.600959 13.5953 0.661269 13.686 0.737569 13.7624C0.81387 13.8387 0.904628 13.899 1.00453 13.9398C1.10443 13.9806 1.21146 14.0011 1.31936 14C1.42726 13.9989 1.53386 13.9762 1.63291 13.9334C1.73196 13.8906 1.82147 13.8284 1.89621 13.7506L7 8.64541L12.1038 13.7506C12.1785 13.8284 12.268 13.8906 12.3671 13.9334C12.4661 13.9762 12.5727 13.9989 12.6806 14C12.7885 14.0011 12.8956 13.9806 12.9955 13.9398C13.0954 13.899 13.1861 13.8387 13.2624 13.7624C13.3387 13.686 13.399 13.5953 13.4398 13.4953C13.4806 13.3954 13.5011 13.2883 13.5 13.1804C13.4989 13.0725 13.4762 12.9659 13.4334 12.8668C13.3906 12.7677 13.3285 12.6782 13.2506 12.6034L8.14685 7.49826L13.2506 2.3931C13.3678 2.27915 13.4479 2.13244 13.4803 1.97221C13.5127 1.81197 13.496 1.64568 13.4323 1.49512C13.3686 1.34456 13.2609 1.21677 13.1233 1.12848C12.9858 1.04019 12.8247 0.995534 12.6614 1.00035C12.4507 1.00663 12.2507 1.09472 12.1038 1.24595L7 6.3511L1.89621 1.24595C1.82063 1.16823 1.73024 1.10646 1.63039 1.06428C1.53054 1.0221 1.42325 1.00036 1.31486 1.00035Z" fill="#D6D6D6" stroke="#D6D6D6" stroke-width="0.6"/>
</svg>
