<svg width="414" height="288" viewBox="0 0 414 288" fill="none" xmlns="http://www.w3.org/2000/svg">
<g id="1">
<g id="1-1">
<g id="Group 741">
<g id="Rectangle 222" filter="url(#filter0_d_1104_3253)">
<rect x="34" y="30" width="345.435" height="219.661" rx="10" fill="url(#paint0_linear_1104_3253)"/>
</g>
<path id="Arrow 1" d="M123.478 82.9184C123.214 82.6545 122.786 82.6545 122.522 82.9184L118.221 87.2197C117.957 87.4837 117.957 87.9116 118.221 88.1755C118.485 88.4395 118.913 88.4395 119.177 88.1755L123 84.3522L126.823 88.1755C127.087 88.4395 127.515 88.4395 127.779 88.1755C128.043 87.9116 128.043 87.4837 127.779 87.2197L123.478 82.9184ZM123.676 97.5898L123.676 83.3963L122.324 83.3963L122.324 97.5898L123.676 97.5898Z" fill="#8D52C6"/>
<path id="&#208;&#163;&#208;&#183;&#208;&#189;&#208;&#176;&#208;&#178;&#208;&#176;&#208;&#181;&#208;&#188;&#208;&#190;&#209;&#129;&#209;&#130;&#209;&#140; &#208;&#184; &#209;&#128;&#208;&#190;&#209;&#129;&#209;&#130; &#208;&#177;&#209;&#128;&#208;&#181;&#208;&#189;&#208;&#180;&#208;&#176;" d="M64.8334 53.5998L59.2001 64.0337C58.7986 64.7777 58.3262 65.3327 57.7829 65.6989C57.2515 66.0531 56.6669 66.2303 56.0292 66.2303C55.5568 66.2303 55.049 66.1181 54.5057 65.8937L54.8777 64.8308C55.3029 64.9962 55.6926 65.0788 56.0469 65.0788C56.8618 65.0788 57.529 64.636 58.0487 63.7502L58.403 63.1479L53.372 53.5998H54.7715L59.0938 61.9965L63.5225 53.5998H64.8334ZM70.5169 61.1462C71.1782 61.2997 71.686 61.5654 72.0403 61.9434C72.4064 62.3213 72.5895 62.7818 72.5895 63.3251C72.5895 63.8683 72.4005 64.3525 72.0226 64.7777C71.6565 65.2028 71.1546 65.5335 70.5169 65.7697C69.8791 65.9941 69.1764 66.1063 68.4088 66.1063C67.7357 66.1063 67.0743 66.0118 66.4248 65.8229C65.7752 65.6221 65.2084 65.3327 64.7242 64.9548L65.1493 64.016C65.5745 64.3348 66.0705 64.5828 66.6374 64.76C67.2042 64.9371 67.777 65.0257 68.3557 65.0257C69.2178 65.0257 69.9205 64.8663 70.4637 64.5474C71.0188 64.2167 71.2963 63.7739 71.2963 63.2188C71.2963 62.7228 71.0719 62.339 70.6231 62.0674C70.1744 61.7839 69.5603 61.6422 68.7808 61.6422H67.1865V60.721H68.71C69.4067 60.721 69.9677 60.5911 70.3928 60.3313C70.818 60.0597 71.0306 59.6995 71.0306 59.2507C71.0306 58.7547 70.7885 58.365 70.3043 58.0816C69.8319 57.7981 69.2119 57.6564 68.4442 57.6564C67.4404 57.6564 66.4484 57.9103 65.4682 58.4181L65.1139 57.4438C66.224 56.8652 67.3755 56.5758 68.5682 56.5758C69.2768 56.5758 69.9146 56.6821 70.4814 56.8947C71.0601 57.0955 71.5089 57.3848 71.8277 57.7627C72.1584 58.1406 72.3237 58.5776 72.3237 59.0736C72.3237 59.546 72.1584 59.9652 71.8277 60.3313C71.5089 60.6974 71.0719 60.969 70.5169 61.1462ZM75.4447 56.6821H76.7024V60.8096H82.566V56.6821H83.8237V66H82.566V61.8902H76.7024V66H75.4447V56.6821ZM90.605 56.6113C91.8214 56.6113 92.7543 56.9183 93.4039 57.5324C94.0534 58.1347 94.3782 59.0322 94.3782 60.225V66H93.1736V64.5474C92.8901 65.0316 92.4709 65.4095 91.9158 65.6811C91.3726 65.9528 90.723 66.0886 89.9672 66.0886C88.928 66.0886 88.1013 65.8406 87.4872 65.3446C86.8731 64.8485 86.566 64.1931 86.566 63.3782C86.566 62.587 86.8495 61.9493 87.4163 61.4651C87.995 60.9809 88.9103 60.7388 90.1621 60.7388H93.1204V60.1719C93.1204 59.3688 92.896 58.7606 92.4473 58.3473C91.9985 57.9221 91.3431 57.7096 90.4809 57.7096C89.8905 57.7096 89.3236 57.8099 88.7803 58.0107C88.2371 58.1997 87.7706 58.4654 87.3809 58.8079L86.814 57.869C87.2864 57.4675 87.8533 57.1604 88.5146 56.9478C89.176 56.7234 89.8727 56.6113 90.605 56.6113ZM90.1621 65.0966C90.8707 65.0966 91.4789 64.9371 91.9867 64.6183C92.4945 64.2876 92.8724 63.8152 93.1204 63.2011V61.6776H90.1975C88.6032 61.6776 87.806 62.2327 87.806 63.3428C87.806 63.8861 88.0127 64.3171 88.4261 64.636C88.8394 64.943 89.4181 65.0966 90.1621 65.0966ZM103.661 61.1816C104.924 61.4769 105.556 62.2386 105.556 63.4668C105.556 64.2817 105.255 64.9076 104.653 65.3446C104.05 65.7815 103.153 66 101.96 66H97.7264V56.6821H101.836C102.899 56.6821 103.732 56.8888 104.334 57.3021C104.936 57.7155 105.237 58.306 105.237 59.0736C105.237 59.5814 105.096 60.0184 104.812 60.3845C104.541 60.7388 104.157 61.0045 103.661 61.1816ZM98.9487 60.8273H101.748C102.468 60.8273 103.017 60.6915 103.395 60.4199C103.785 60.1483 103.98 59.7526 103.98 59.233C103.98 58.7134 103.785 58.3237 103.395 58.0639C103.017 57.804 102.468 57.6741 101.748 57.6741H98.9487V60.8273ZM101.907 65.008C102.71 65.008 103.312 64.8781 103.714 64.6183C104.115 64.3584 104.316 63.951 104.316 63.396C104.316 62.8409 104.133 62.4335 103.767 62.1736C103.401 61.902 102.822 61.7662 102.031 61.7662H98.9487V65.008H101.907ZM111.71 56.6113C112.927 56.6113 113.86 56.9183 114.509 57.5324C115.159 58.1347 115.483 59.0322 115.483 60.225V66H114.279V64.5474C113.995 65.0316 113.576 65.4095 113.021 65.6811C112.478 65.9528 111.828 66.0886 111.073 66.0886C110.033 66.0886 109.207 65.8406 108.592 65.3446C107.978 64.8485 107.671 64.1931 107.671 63.3782C107.671 62.587 107.955 61.9493 108.522 61.4651C109.1 60.9809 110.016 60.7388 111.267 60.7388H114.226V60.1719C114.226 59.3688 114.001 58.7606 113.553 58.3473C113.104 57.9221 112.448 57.7096 111.586 57.7096C110.996 57.7096 110.429 57.8099 109.886 58.0107C109.342 58.1997 108.876 58.4654 108.486 58.8079L107.919 57.869C108.392 57.4675 108.959 57.1604 109.62 56.9478C110.281 56.7234 110.978 56.6113 111.71 56.6113ZM111.267 65.0966C111.976 65.0966 112.584 64.9371 113.092 64.6183C113.6 64.2876 113.978 63.8152 114.226 63.2011V61.6776H111.303C109.709 61.6776 108.911 62.2327 108.911 63.3428C108.911 63.8861 109.118 64.3171 109.531 64.636C109.945 64.943 110.523 65.0966 111.267 65.0966ZM126.98 61.7308H119.186C119.257 62.6992 119.629 63.4845 120.302 64.0868C120.975 64.6773 121.825 64.9726 122.853 64.9726C123.432 64.9726 123.963 64.8722 124.447 64.6714C124.931 64.4588 125.351 64.1518 125.705 63.7502L126.414 64.5651C126 65.0611 125.481 65.439 124.855 65.6989C124.241 65.9587 123.561 66.0886 122.817 66.0886C121.861 66.0886 121.011 65.8878 120.267 65.4863C119.534 65.0729 118.962 64.5061 118.548 63.7857C118.135 63.0653 117.928 62.2504 117.928 61.3411C117.928 60.4317 118.123 59.6168 118.513 58.8964C118.914 58.176 119.458 57.6151 120.143 57.2135C120.839 56.812 121.619 56.6113 122.481 56.6113C123.343 56.6113 124.117 56.812 124.801 57.2135C125.486 57.6151 126.024 58.176 126.414 58.8964C126.803 59.605 126.998 60.4199 126.998 61.3411L126.98 61.7308ZM122.481 57.6918C121.583 57.6918 120.828 57.9812 120.213 58.5599C119.611 59.1267 119.269 59.8707 119.186 60.7919H125.794C125.711 59.8707 125.362 59.1267 124.748 58.5599C124.146 57.9812 123.39 57.6918 122.481 57.6918ZM140.198 56.6821V66H139.047V58.6307L135.274 64.8663H134.707L130.934 58.613V66H129.782V56.6821H131.058L135.008 63.396L139.029 56.6821H140.198ZM147.622 66.0886C146.724 66.0886 145.915 65.8878 145.195 65.4863C144.474 65.0729 143.907 64.5061 143.494 63.7857C143.081 63.0653 142.874 62.2504 142.874 61.3411C142.874 60.4317 143.081 59.6168 143.494 58.8964C143.907 58.176 144.474 57.6151 145.195 57.2135C145.915 56.812 146.724 56.6113 147.622 56.6113C148.519 56.6113 149.328 56.812 150.048 57.2135C150.769 57.6151 151.33 58.176 151.731 58.8964C152.145 59.6168 152.351 60.4317 152.351 61.3411C152.351 62.2504 152.145 63.0653 151.731 63.7857C151.33 64.5061 150.769 65.0729 150.048 65.4863C149.328 65.8878 148.519 66.0886 147.622 66.0886ZM147.622 64.9726C148.283 64.9726 148.873 64.8249 149.393 64.5297C149.924 64.2226 150.338 63.7916 150.633 63.2365C150.928 62.6815 151.076 62.0496 151.076 61.3411C151.076 60.6325 150.928 60.0006 150.633 59.4456C150.338 58.8905 149.924 58.4654 149.393 58.1701C148.873 57.8631 148.283 57.7096 147.622 57.7096C146.96 57.7096 146.364 57.8631 145.832 58.1701C145.313 58.4654 144.899 58.8905 144.592 59.4456C144.297 60.0006 144.149 60.6325 144.149 61.3411C144.149 62.0496 144.297 62.6815 144.592 63.2365C144.899 63.7916 145.313 64.2226 145.832 64.5297C146.364 64.8249 146.96 64.9726 147.622 64.9726ZM158.937 66.0886C158.015 66.0886 157.189 65.8878 156.457 65.4863C155.736 65.0847 155.169 64.5238 154.756 63.8034C154.343 63.0712 154.136 62.2504 154.136 61.3411C154.136 60.4317 154.343 59.6168 154.756 58.8964C155.169 58.176 155.736 57.6151 156.457 57.2135C157.189 56.812 158.015 56.6113 158.937 56.6113C159.74 56.6113 160.454 56.7707 161.08 57.0895C161.718 57.3966 162.22 57.8513 162.586 58.4536L161.647 59.0913C161.34 58.6307 160.95 58.2882 160.478 58.0639C160.005 57.8277 159.492 57.7096 158.937 57.7096C158.263 57.7096 157.655 57.8631 157.112 58.1701C156.581 58.4654 156.161 58.8905 155.854 59.4456C155.559 60.0006 155.411 60.6325 155.411 61.3411C155.411 62.0614 155.559 62.6992 155.854 63.2542C156.161 63.7975 156.581 64.2226 157.112 64.5297C157.655 64.8249 158.263 64.9726 158.937 64.9726C159.492 64.9726 160.005 64.8604 160.478 64.636C160.95 64.4116 161.34 64.0691 161.647 63.6085L162.586 64.2463C162.22 64.8485 161.718 65.3091 161.08 65.628C160.442 65.935 159.728 66.0886 158.937 66.0886ZM171.403 57.7981H167.877V66H166.62V57.7981H163.094V56.6821H171.403V57.7981ZM177.225 59.977C178.394 59.9888 179.279 60.2487 179.882 60.7565C180.496 61.2643 180.803 61.9965 180.803 62.9531C180.803 63.9451 180.472 64.7068 179.811 65.2383C179.161 65.7697 178.217 66.0295 176.977 66.0177L173.221 66V56.6821H174.479V59.9416L177.225 59.977ZM176.906 65.0611C177.768 65.0729 178.417 64.9017 178.854 64.5474C179.303 64.1813 179.527 63.6499 179.527 62.9531C179.527 62.2681 179.309 61.7603 178.872 61.4296C178.435 61.099 177.78 60.9277 176.906 60.9159L174.479 60.8805V65.0257L176.906 65.0611ZM187.839 56.6821H189.097V64.0868L195.315 56.6821H196.431V66H195.173V58.5953L188.973 66H187.839V56.6821ZM209.472 56.6113C210.346 56.6113 211.137 56.812 211.846 57.2135C212.554 57.6033 213.11 58.1583 213.511 58.8787C213.913 59.5991 214.113 60.4199 214.113 61.3411C214.113 62.274 213.913 63.1007 213.511 63.8211C213.11 64.5415 212.554 65.1025 211.846 65.504C211.149 65.8937 210.358 66.0886 209.472 66.0886C208.716 66.0886 208.031 65.935 207.417 65.628C206.815 65.3091 206.319 64.8485 205.929 64.2463V69.4366H204.671V56.6821H205.876V58.5244C206.254 57.9103 206.75 57.4379 207.364 57.1073C207.99 56.7766 208.693 56.6113 209.472 56.6113ZM209.384 64.9726C210.033 64.9726 210.624 64.8249 211.155 64.5297C211.686 64.2226 212.1 63.7916 212.395 63.2365C212.702 62.6815 212.856 62.0496 212.856 61.3411C212.856 60.6325 212.702 60.0066 212.395 59.4633C212.1 58.9082 211.686 58.4772 211.155 58.1701C210.624 57.8631 210.033 57.7096 209.384 57.7096C208.722 57.7096 208.126 57.8631 207.594 58.1701C207.075 58.4772 206.661 58.9082 206.354 59.4633C206.059 60.0066 205.911 60.6325 205.911 61.3411C205.911 62.0496 206.059 62.6815 206.354 63.2365C206.661 63.7916 207.075 64.2226 207.594 64.5297C208.126 64.8249 208.722 64.9726 209.384 64.9726ZM220.66 66.0886C219.762 66.0886 218.953 65.8878 218.233 65.4863C217.512 65.0729 216.946 64.5061 216.532 63.7857C216.119 63.0653 215.912 62.2504 215.912 61.3411C215.912 60.4317 216.119 59.6168 216.532 58.8964C216.946 58.176 217.512 57.6151 218.233 57.2135C218.953 56.812 219.762 56.6113 220.66 56.6113C221.557 56.6113 222.366 56.812 223.087 57.2135C223.807 57.6151 224.368 58.176 224.77 58.8964C225.183 59.6168 225.39 60.4317 225.39 61.3411C225.39 62.2504 225.183 63.0653 224.77 63.7857C224.368 64.5061 223.807 65.0729 223.087 65.4863C222.366 65.8878 221.557 66.0886 220.66 66.0886ZM220.66 64.9726C221.321 64.9726 221.912 64.8249 222.431 64.5297C222.963 64.2226 223.376 63.7916 223.671 63.2365C223.966 62.6815 224.114 62.0496 224.114 61.3411C224.114 60.6325 223.966 60.0006 223.671 59.4456C223.376 58.8905 222.963 58.4654 222.431 58.1701C221.912 57.8631 221.321 57.7096 220.66 57.7096C219.998 57.7096 219.402 57.8631 218.871 58.1701C218.351 58.4654 217.938 58.8905 217.631 59.4456C217.335 60.0006 217.188 60.6325 217.188 61.3411C217.188 62.0496 217.335 62.6815 217.631 63.2365C217.938 63.7916 218.351 64.2226 218.871 64.5297C219.402 64.8249 219.998 64.9726 220.66 64.9726ZM231.975 66.0886C231.054 66.0886 230.227 65.8878 229.495 65.4863C228.774 65.0847 228.207 64.5238 227.794 63.8034C227.381 63.0712 227.174 62.2504 227.174 61.3411C227.174 60.4317 227.381 59.6168 227.794 58.8964C228.207 58.176 228.774 57.6151 229.495 57.2135C230.227 56.812 231.054 56.6113 231.975 56.6113C232.778 56.6113 233.492 56.7707 234.118 57.0895C234.756 57.3966 235.258 57.8513 235.624 58.4536L234.685 59.0913C234.378 58.6307 233.988 58.2882 233.516 58.0639C233.044 57.8277 232.53 57.7096 231.975 57.7096C231.302 57.7096 230.693 57.8631 230.15 58.1701C229.619 58.4654 229.2 58.8905 228.892 59.4456C228.597 60.0006 228.45 60.6325 228.45 61.3411C228.45 62.0614 228.597 62.6992 228.892 63.2542C229.2 63.7975 229.619 64.2226 230.15 64.5297C230.693 64.8249 231.302 64.9726 231.975 64.9726C232.53 64.9726 233.044 64.8604 233.516 64.636C233.988 64.4116 234.378 64.0691 234.685 63.6085L235.624 64.2463C235.258 64.8485 234.756 65.3091 234.118 65.628C233.481 65.935 232.766 66.0886 231.975 66.0886ZM244.441 57.7981H240.916V66H239.658V57.7981H236.133V56.6821H244.441V57.7981ZM255.413 56.9124C256.275 56.9124 257.043 57.1073 257.716 57.497C258.401 57.8749 258.932 58.4122 259.31 59.109C259.688 59.794 259.877 60.5793 259.877 61.4651C259.877 62.3744 259.676 63.1834 259.275 63.892C258.885 64.5887 258.336 65.132 257.627 65.5217C256.919 65.9114 256.104 66.1063 255.182 66.1063C253.635 66.1063 252.437 65.563 251.586 64.4765C250.736 63.39 250.311 61.8902 250.311 59.977C250.311 57.9812 250.689 56.4518 251.445 55.3889C252.212 54.3261 253.405 53.6057 255.023 53.2278L259.204 52.2712L259.416 53.4226L255.484 54.3261C254.149 54.6213 253.169 55.1468 252.543 55.9027C251.917 56.6467 251.575 57.7509 251.516 59.2153C251.893 58.4949 252.419 57.9339 253.092 57.5324C253.765 57.1191 254.539 56.9124 255.413 56.9124ZM255.218 65.0611C255.867 65.0611 256.446 64.9135 256.954 64.6183C257.474 64.3112 257.875 63.8861 258.159 63.3428C258.454 62.7996 258.601 62.1855 258.601 61.5005C258.601 60.8155 258.46 60.2132 258.176 59.6936C257.893 59.174 257.491 58.7724 256.972 58.489C256.464 58.1938 255.879 58.0461 255.218 58.0461C254.557 58.0461 253.966 58.1938 253.446 58.489C252.939 58.7724 252.537 59.174 252.242 59.6936C251.958 60.2132 251.817 60.8155 251.817 61.5005C251.817 62.1855 251.958 62.7996 252.242 63.3428C252.537 63.8861 252.945 64.3112 253.464 64.6183C253.984 64.9135 254.568 65.0611 255.218 65.0611ZM267.373 56.6113C268.247 56.6113 269.038 56.812 269.747 57.2135C270.456 57.6033 271.011 58.1583 271.412 58.8787C271.814 59.5991 272.015 60.4199 272.015 61.3411C272.015 62.274 271.814 63.1007 271.412 63.8211C271.011 64.5415 270.456 65.1025 269.747 65.504C269.05 65.8937 268.259 66.0886 267.373 66.0886C266.617 66.0886 265.933 65.935 265.318 65.628C264.716 65.3091 264.22 64.8485 263.83 64.2463V69.4366H262.573V56.6821H263.777V58.5244C264.155 57.9103 264.651 57.4379 265.265 57.1073C265.891 56.7766 266.594 56.6113 267.373 56.6113ZM267.285 64.9726C267.934 64.9726 268.525 64.8249 269.056 64.5297C269.588 64.2226 270.001 63.7916 270.296 63.2365C270.603 62.6815 270.757 62.0496 270.757 61.3411C270.757 60.6325 270.603 60.0066 270.296 59.4633C270.001 58.9082 269.588 58.4772 269.056 58.1701C268.525 57.8631 267.934 57.7096 267.285 57.7096C266.623 57.7096 266.027 57.8631 265.496 58.1701C264.976 58.4772 264.563 58.9082 264.256 59.4633C263.96 60.0066 263.813 60.6325 263.813 61.3411C263.813 62.0496 263.96 62.6815 264.256 63.2365C264.563 63.7916 264.976 64.2226 265.496 64.5297C266.027 64.8249 266.623 64.9726 267.285 64.9726ZM282.866 61.7308H275.071C275.142 62.6992 275.514 63.4845 276.187 64.0868C276.86 64.6773 277.711 64.9726 278.738 64.9726C279.317 64.9726 279.848 64.8722 280.332 64.6714C280.817 64.4588 281.236 64.1518 281.59 63.7502L282.299 64.5651C281.885 65.0611 281.366 65.439 280.74 65.6989C280.126 65.9587 279.447 66.0886 278.703 66.0886C277.746 66.0886 276.896 65.8878 276.152 65.4863C275.42 65.0729 274.847 64.5061 274.433 63.7857C274.02 63.0653 273.813 62.2504 273.813 61.3411C273.813 60.4317 274.008 59.6168 274.398 58.8964C274.8 58.176 275.343 57.6151 276.028 57.2135C276.725 56.812 277.504 56.6113 278.366 56.6113C279.228 56.6113 280.002 56.812 280.687 57.2135C281.372 57.6151 281.909 58.176 282.299 58.8964C282.688 59.605 282.883 60.4199 282.883 61.3411L282.866 61.7308ZM278.366 57.6918C277.469 57.6918 276.713 57.9812 276.099 58.5599C275.496 59.1267 275.154 59.8707 275.071 60.7919H281.679C281.596 59.8707 281.248 59.1267 280.634 58.5599C280.031 57.9812 279.275 57.6918 278.366 57.6918ZM285.667 56.6821H286.925V60.8096H292.789V56.6821H294.046V66H292.789V61.8902H286.925V66H285.667V56.6821ZM306.709 64.9017V68.2498H305.522V66H297.178V68.2498H295.992V64.9017H296.523C297.149 64.8663 297.574 64.4057 297.798 63.52C298.023 62.6342 298.176 61.3942 298.259 59.7999L298.383 56.6821H305.256V64.9017H306.709ZM299.41 59.8707C299.351 61.1934 299.239 62.2858 299.074 63.1479C298.909 63.9982 298.613 64.5828 298.188 64.9017H303.999V57.7981H299.517L299.41 59.8707ZM312.366 56.6113C313.583 56.6113 314.516 56.9183 315.165 57.5324C315.815 58.1347 316.14 59.0322 316.14 60.225V66H314.935V64.5474C314.652 65.0316 314.232 65.4095 313.677 65.6811C313.134 65.9528 312.484 66.0886 311.729 66.0886C310.689 66.0886 309.863 65.8406 309.249 65.3446C308.634 64.8485 308.327 64.1931 308.327 63.3782C308.327 62.587 308.611 61.9493 309.178 61.4651C309.756 60.9809 310.672 60.7388 311.924 60.7388H314.882V60.1719C314.882 59.3688 314.657 58.7606 314.209 58.3473C313.76 57.9221 313.104 57.7096 312.242 57.7096C311.652 57.7096 311.085 57.8099 310.542 58.0107C309.999 58.1997 309.532 58.4654 309.142 58.8079L308.575 57.869C309.048 57.4675 309.615 57.1604 310.276 56.9478C310.937 56.7234 311.634 56.6113 312.366 56.6113ZM311.924 65.0966C312.632 65.0966 313.24 64.9371 313.748 64.6183C314.256 64.2876 314.634 63.8152 314.882 63.2011V61.6776H311.959C310.365 61.6776 309.567 62.2327 309.567 63.3428C309.567 63.8861 309.774 64.3171 310.187 64.636C310.601 64.943 311.179 65.0966 311.924 65.0966Z" fill="#2D2D2D"/>
<path id="+95%" d="M64.1072 90.2595H60.3447V93.9795H58.0701V90.2595H54.3075V88.1337H58.0701V84.4136H60.3447V88.1337H64.1072V90.2595ZM71.4165 81.5439C73.4572 81.5439 75.0374 82.1816 76.157 83.457C77.2907 84.7325 77.8576 86.5606 77.8576 88.9415C77.8576 90.6137 77.5529 92.0451 76.9435 93.2355C76.3341 94.4118 75.4767 95.3117 74.3713 95.9352C73.2801 96.5446 72.0117 96.8493 70.5662 96.8493C69.8009 96.8493 69.0782 96.7713 68.398 96.6155C67.7319 96.4454 67.1508 96.2045 66.6548 95.8927L67.6752 93.8095C68.4121 94.2913 69.3545 94.5322 70.5024 94.5322C71.9338 94.5322 73.0534 94.0929 73.8611 93.2143C74.6689 92.3356 75.0728 91.0672 75.0728 89.4092V89.3879C74.6335 89.8981 74.0737 90.2878 73.3935 90.5571C72.7132 90.8122 71.948 90.9397 71.0977 90.9397C70.1198 90.9397 69.2412 90.7555 68.4617 90.387C67.6823 90.0044 67.0729 89.4658 66.6336 88.7714C66.1943 88.077 65.9746 87.2763 65.9746 86.3693C65.9746 85.4056 66.2155 84.5624 66.6973 83.8397C67.1792 83.1027 67.8311 82.5359 68.653 82.1391C69.475 81.7423 70.3962 81.5439 71.4165 81.5439ZM71.6291 88.7714C72.5219 88.7714 73.2447 88.5305 73.7974 88.0487C74.3642 87.5668 74.6477 86.9575 74.6477 86.2205C74.6477 85.4978 74.3713 84.9026 73.8186 84.4349C73.2801 83.9531 72.529 83.7121 71.5653 83.7121C70.7009 83.7121 69.9994 83.946 69.4608 84.4136C68.9223 84.8671 68.653 85.4765 68.653 86.2418C68.653 87.0212 68.9223 87.6377 69.4608 88.0912C69.9994 88.5447 70.7221 88.7714 71.6291 88.7714ZM84.3826 87.5172C86.48 87.5172 88.0318 87.9282 89.038 88.7502C90.0442 89.558 90.5473 90.6633 90.5473 92.0663C90.5473 92.9592 90.3277 93.767 89.8883 94.4897C89.449 95.2125 88.79 95.7864 87.9114 96.2116C87.0327 96.6367 85.9486 96.8493 84.659 96.8493C83.5961 96.8493 82.5687 96.7005 81.5766 96.4029C80.5846 96.0911 79.7485 95.666 79.0682 95.1274L80.2374 92.9804C80.7901 93.4339 81.4491 93.7953 82.2144 94.0646C82.9938 94.3196 83.7945 94.4472 84.6165 94.4472C85.5943 94.4472 86.3596 94.2488 86.9123 93.852C87.4791 93.441 87.7626 92.8812 87.7626 92.1726C87.7626 91.4074 87.4579 90.8334 86.8485 90.4508C86.2533 90.054 85.2258 89.8556 83.7662 89.8556H80.1736L80.9389 81.7564H89.6758V84.0735H83.2772L82.9584 87.5172H84.3826ZM95.2499 89.7705C94.187 89.7705 93.3296 89.395 92.6777 88.6439C92.0258 87.8928 91.6999 86.9078 91.6999 85.6891C91.6999 84.4703 92.0258 83.4854 92.6777 82.7343C93.3296 81.9832 94.187 81.6076 95.2499 81.6076C96.3128 81.6076 97.1701 81.9832 97.822 82.7343C98.4881 83.4712 98.8212 84.4561 98.8212 85.6891C98.8212 86.922 98.4881 87.914 97.822 88.6651C97.1701 89.4021 96.3128 89.7705 95.2499 89.7705ZM104.178 81.7564H106.261L96.1002 96.6367H94.0169L104.178 81.7564ZM95.2499 88.2825C95.8309 88.2825 96.2773 88.0558 96.5891 87.6023C96.9151 87.1488 97.078 86.511 97.078 85.6891C97.078 84.8671 96.9151 84.2294 96.5891 83.7759C96.2773 83.3224 95.8309 83.0957 95.2499 83.0957C94.6972 83.0957 94.2508 83.3295 93.9107 83.7972C93.5847 84.2507 93.4217 84.8813 93.4217 85.6891C93.4217 86.4969 93.5847 87.1346 93.9107 87.6023C94.2508 88.0558 94.6972 88.2825 95.2499 88.2825ZM105.007 96.7855C103.944 96.7855 103.087 96.41 102.435 95.6589C101.783 94.9078 101.457 93.9228 101.457 92.7041C101.457 91.4853 101.783 90.5004 102.435 89.7493C103.087 88.9982 103.944 88.6226 105.007 88.6226C106.07 88.6226 106.927 88.9982 107.579 89.7493C108.245 90.5004 108.578 91.4853 108.578 92.7041C108.578 93.9228 108.245 94.9078 107.579 95.6589C106.927 96.41 106.07 96.7855 105.007 96.7855ZM105.007 95.2975C105.574 95.2975 106.02 95.0707 106.346 94.6173C106.672 94.1496 106.835 93.5119 106.835 92.7041C106.835 91.8963 106.672 91.2656 106.346 90.8122C106.02 90.3445 105.574 90.1107 105.007 90.1107C104.44 90.1107 103.994 90.3374 103.668 90.7909C103.342 91.2444 103.179 91.8821 103.179 92.7041C103.179 93.526 103.342 94.1638 103.668 94.6173C103.994 95.0707 104.44 95.2975 105.007 95.2975Z" fill="#2D2D2D"/>
<path id="100%" d="M57.3079 115.8V122H56.6702V116.367H55.2087V115.8H57.3079ZM61.2612 122.053C60.7829 122.053 60.3548 121.926 59.9769 121.672C59.6049 121.418 59.3126 121.055 59.1 120.583C58.8933 120.105 58.79 119.544 58.79 118.9C58.79 118.256 58.8933 117.698 59.1 117.226C59.3126 116.748 59.6049 116.382 59.9769 116.128C60.3548 115.874 60.7829 115.747 61.2612 115.747C61.7395 115.747 62.1646 115.874 62.5366 116.128C62.9145 116.382 63.2098 116.748 63.4224 117.226C63.6349 117.698 63.7412 118.256 63.7412 118.9C63.7412 119.544 63.6349 120.105 63.4224 120.583C63.2098 121.055 62.9145 121.418 62.5366 121.672C62.1646 121.926 61.7395 122.053 61.2612 122.053ZM61.2612 121.469C61.6214 121.469 61.9373 121.368 62.2089 121.167C62.4864 120.967 62.702 120.674 62.8555 120.291C63.009 119.907 63.0858 119.443 63.0858 118.9C63.0858 118.357 63.009 117.893 62.8555 117.509C62.702 117.126 62.4864 116.833 62.2089 116.632C61.9373 116.432 61.6214 116.331 61.2612 116.331C60.901 116.331 60.5821 116.432 60.3046 116.632C60.033 116.833 59.8204 117.126 59.6669 117.509C59.5133 117.893 59.4366 118.357 59.4366 118.9C59.4366 119.443 59.5133 119.907 59.6669 120.291C59.8204 120.674 60.033 120.967 60.3046 121.167C60.5821 121.368 60.901 121.469 61.2612 121.469ZM67.1257 122.053C66.6474 122.053 66.2193 121.926 65.8414 121.672C65.4694 121.418 65.1771 121.055 64.9645 120.583C64.7578 120.105 64.6545 119.544 64.6545 118.9C64.6545 118.256 64.7578 117.698 64.9645 117.226C65.1771 116.748 65.4694 116.382 65.8414 116.128C66.2193 115.874 66.6474 115.747 67.1257 115.747C67.604 115.747 68.0291 115.874 68.4011 116.128C68.779 116.382 69.0743 116.748 69.2869 117.226C69.4994 117.698 69.6057 118.256 69.6057 118.9C69.6057 119.544 69.4994 120.105 69.2869 120.583C69.0743 121.055 68.779 121.418 68.4011 121.672C68.0291 121.926 67.604 122.053 67.1257 122.053ZM67.1257 121.469C67.4859 121.469 67.8018 121.368 68.0734 121.167C68.3509 120.967 68.5665 120.674 68.72 120.291C68.8735 119.907 68.9503 119.443 68.9503 118.9C68.9503 118.357 68.8735 117.893 68.72 117.509C68.5665 117.126 68.3509 116.833 68.0734 116.632C67.8018 116.432 67.4859 116.331 67.1257 116.331C66.7655 116.331 66.4466 116.432 66.1691 116.632C65.8975 116.833 65.6849 117.126 65.5314 117.509C65.3778 117.893 65.3011 118.357 65.3011 118.9C65.3011 119.443 65.3778 119.907 65.5314 120.291C65.6849 120.674 65.8975 120.967 66.1691 121.167C66.4466 121.368 66.7655 121.469 67.1257 121.469ZM71.8299 119.121C71.4106 119.121 71.0711 118.968 70.8113 118.661C70.5574 118.348 70.4304 117.94 70.4304 117.438C70.4304 116.937 70.5574 116.532 70.8113 116.225C71.0711 115.912 71.4106 115.756 71.8299 115.756C72.2432 115.756 72.5798 115.909 72.8396 116.216C73.0994 116.523 73.2293 116.931 73.2293 117.438C73.2293 117.946 73.0994 118.354 72.8396 118.661C72.5798 118.968 72.2432 119.121 71.8299 119.121ZM75.5854 115.8H76.108L71.8742 122H71.3516L75.5854 115.8ZM71.8299 118.723C72.1192 118.723 72.3495 118.611 72.5208 118.386C72.6979 118.156 72.7865 117.84 72.7865 117.438C72.7865 117.037 72.6979 116.724 72.5208 116.5C72.3495 116.269 72.1192 116.154 71.8299 116.154C71.5346 116.154 71.3014 116.269 71.1302 116.5C70.9589 116.73 70.8733 117.043 70.8733 117.438C70.8733 117.834 70.9589 118.147 71.1302 118.377C71.3014 118.608 71.5346 118.723 71.8299 118.723ZM75.6297 122.044C75.2163 122.044 74.8797 121.891 74.6199 121.584C74.3601 121.271 74.2302 120.863 74.2302 120.361C74.2302 119.859 74.3601 119.455 74.6199 119.148C74.8797 118.835 75.2163 118.679 75.6297 118.679C76.0489 118.679 76.3855 118.835 76.6394 119.148C76.8992 119.455 77.0291 119.859 77.0291 120.361C77.0291 120.863 76.8992 121.271 76.6394 121.584C76.3855 121.891 76.0489 122.044 75.6297 122.044ZM75.6297 121.646C75.9249 121.646 76.1582 121.531 76.3294 121.3C76.5006 121.07 76.5863 120.757 76.5863 120.361C76.5863 119.966 76.5006 119.653 76.3294 119.423C76.1582 119.192 75.9249 119.077 75.6297 119.077C75.3403 119.077 75.1071 119.192 74.9299 119.423C74.7587 119.647 74.6731 119.96 74.6731 120.361C74.6731 120.763 74.7587 121.079 74.9299 121.309C75.1071 121.534 75.3403 121.646 75.6297 121.646Z" fill="#2D2D2D"/>
<path id="75%" d="M65.7985 145.429V145.881L63.2033 151.629H62.5124L65.0633 145.996H61.8747V147.156H61.2458V145.429H65.7985ZM68.1041 147.971C69.0017 147.971 69.6542 148.133 70.0616 148.458C70.4749 148.777 70.6816 149.226 70.6816 149.804C70.6816 150.164 70.596 150.486 70.4247 150.77C70.2594 151.053 70.0085 151.278 69.6719 151.443C69.3353 151.602 68.922 151.682 68.4319 151.682C67.989 151.682 67.5668 151.611 67.1653 151.469C66.7696 151.322 66.4508 151.127 66.2087 150.885L66.5187 150.38C66.7253 150.593 66.997 150.767 67.3335 150.903C67.6701 151.033 68.0333 151.097 68.423 151.097C68.9367 151.097 69.3323 150.982 69.6099 150.752C69.8933 150.522 70.035 150.215 70.035 149.831C70.035 149.406 69.8756 149.084 69.5567 148.865C69.2438 148.647 68.7123 148.538 67.9624 148.538H66.6427L66.9615 145.429H70.3539V145.996H67.5196L67.307 147.971H68.1041ZM72.7156 148.75C72.2964 148.75 71.9568 148.597 71.697 148.29C71.4431 147.977 71.3162 147.569 71.3162 147.067C71.3162 146.565 71.4431 146.161 71.697 145.854C71.9568 145.541 72.2964 145.385 72.7156 145.385C73.129 145.385 73.4655 145.538 73.7253 145.845C73.9852 146.152 74.1151 146.56 74.1151 147.067C74.1151 147.575 73.9852 147.983 73.7253 148.29C73.4655 148.597 73.129 148.75 72.7156 148.75ZM76.4711 145.429H76.9937L72.7599 151.629H72.2373L76.4711 145.429ZM72.7156 148.352C73.0049 148.352 73.2352 148.24 73.4065 148.015C73.5836 147.785 73.6722 147.469 73.6722 147.067C73.6722 146.666 73.5836 146.353 73.4065 146.129C73.2352 145.898 73.0049 145.783 72.7156 145.783C72.4204 145.783 72.1871 145.898 72.0159 146.129C71.8446 146.359 71.759 146.672 71.759 147.067C71.759 147.463 71.8446 147.776 72.0159 148.006C72.1871 148.237 72.4204 148.352 72.7156 148.352ZM76.5154 151.673C76.1021 151.673 75.7655 151.52 75.5057 151.213C75.2458 150.9 75.1159 150.492 75.1159 149.99C75.1159 149.488 75.2458 149.084 75.5057 148.777C75.7655 148.464 76.1021 148.307 76.5154 148.307C76.9346 148.307 77.2712 148.464 77.5251 148.777C77.7849 149.084 77.9149 149.488 77.9149 149.99C77.9149 150.492 77.7849 150.9 77.5251 151.213C77.2712 151.52 76.9346 151.673 76.5154 151.673ZM76.5154 151.275C76.8106 151.275 77.0439 151.159 77.2151 150.929C77.3864 150.699 77.472 150.386 77.472 149.99C77.472 149.595 77.3864 149.282 77.2151 149.051C77.0439 148.821 76.8106 148.706 76.5154 148.706C76.2261 148.706 75.9928 148.821 75.8157 149.051C75.6444 149.276 75.5588 149.589 75.5588 149.99C75.5588 150.392 75.6444 150.708 75.8157 150.938C75.9928 151.162 76.2261 151.275 76.5154 151.275Z" fill="#2D2D2D"/>
<path id="50%" d="M61.2674 177.6C62.1649 177.6 62.8174 177.762 63.2249 178.087C63.6382 178.406 63.8449 178.855 63.8449 179.433C63.8449 179.793 63.7593 180.115 63.588 180.399C63.4227 180.682 63.1717 180.906 62.8351 181.072C62.4986 181.231 62.0852 181.311 61.5951 181.311C61.1523 181.311 60.7301 181.24 60.3285 181.098C59.9329 180.951 59.614 180.756 59.3719 180.514L59.6819 180.009C59.8886 180.222 60.1602 180.396 60.4968 180.532C60.8334 180.661 61.1965 180.726 61.5863 180.726C62.1 180.726 62.4956 180.611 62.7731 180.381C63.0566 180.151 63.1983 179.844 63.1983 179.46C63.1983 179.035 63.0389 178.713 62.72 178.494C62.407 178.276 61.8756 178.167 61.1257 178.167H59.8059L60.1248 175.058H63.5172V175.625H60.6828L60.4702 177.6H61.2674ZM67.1257 181.311C66.6474 181.311 66.2193 181.184 65.8414 180.93C65.4694 180.676 65.1771 180.313 64.9645 179.841C64.7578 179.362 64.6545 178.801 64.6545 178.158C64.6545 177.514 64.7578 176.956 64.9645 176.484C65.1771 176.005 65.4694 175.639 65.8414 175.385C66.2193 175.132 66.6474 175.005 67.1257 175.005C67.604 175.005 68.0291 175.132 68.4011 175.385C68.779 175.639 69.0743 176.005 69.2869 176.484C69.4994 176.956 69.6057 177.514 69.6057 178.158C69.6057 178.801 69.4994 179.362 69.2869 179.841C69.0743 180.313 68.779 180.676 68.4011 180.93C68.0291 181.184 67.604 181.311 67.1257 181.311ZM67.1257 180.726C67.4859 180.726 67.8018 180.626 68.0734 180.425C68.3509 180.224 68.5665 179.932 68.72 179.548C68.8735 179.165 68.9503 178.701 68.9503 178.158C68.9503 177.615 68.8735 177.151 68.72 176.767C68.5665 176.383 68.3509 176.091 68.0734 175.89C67.8018 175.69 67.4859 175.589 67.1257 175.589C66.7655 175.589 66.4466 175.69 66.1691 175.89C65.8975 176.091 65.6849 176.383 65.5314 176.767C65.3778 177.151 65.3011 177.615 65.3011 178.158C65.3011 178.701 65.3778 179.165 65.5314 179.548C65.6849 179.932 65.8975 180.224 66.1691 180.425C66.4466 180.626 66.7655 180.726 67.1257 180.726ZM71.8299 178.379C71.4106 178.379 71.0711 178.226 70.8113 177.919C70.5574 177.606 70.4304 177.198 70.4304 176.696C70.4304 176.194 70.5574 175.79 70.8113 175.483C71.0711 175.17 71.4106 175.013 71.8299 175.013C72.2432 175.013 72.5798 175.167 72.8396 175.474C73.0994 175.781 73.2293 176.188 73.2293 176.696C73.2293 177.204 73.0994 177.612 72.8396 177.919C72.5798 178.226 72.2432 178.379 71.8299 178.379ZM75.5854 175.058H76.108L71.8742 181.258H71.3516L75.5854 175.058ZM71.8299 177.981C72.1192 177.981 72.3495 177.868 72.5208 177.644C72.6979 177.414 72.7865 177.098 72.7865 176.696C72.7865 176.295 72.6979 175.982 72.5208 175.757C72.3495 175.527 72.1192 175.412 71.8299 175.412C71.5346 175.412 71.3014 175.527 71.1302 175.757C70.9589 175.988 70.8733 176.301 70.8733 176.696C70.8733 177.092 70.9589 177.405 71.1302 177.635C71.3014 177.865 71.5346 177.981 71.8299 177.981ZM75.6297 181.302C75.2163 181.302 74.8797 181.149 74.6199 180.842C74.3601 180.529 74.2302 180.121 74.2302 179.619C74.2302 179.117 74.3601 178.713 74.6199 178.406C74.8797 178.093 75.2163 177.936 75.6297 177.936C76.0489 177.936 76.3855 178.093 76.6394 178.406C76.8992 178.713 77.0291 179.117 77.0291 179.619C77.0291 180.121 76.8992 180.529 76.6394 180.842C76.3855 181.149 76.0489 181.302 75.6297 181.302ZM75.6297 180.904C75.9249 180.904 76.1582 180.788 76.3294 180.558C76.5006 180.328 76.5863 180.015 76.5863 179.619C76.5863 179.224 76.5006 178.911 76.3294 178.68C76.1582 178.45 75.9249 178.335 75.6297 178.335C75.3403 178.335 75.1071 178.45 74.9299 178.68C74.7587 178.905 74.6731 179.218 74.6731 179.619C74.6731 180.021 74.7587 180.337 74.9299 180.567C75.1071 180.791 75.3403 180.904 75.6297 180.904Z" fill="#2D2D2D"/>
<path id="25%" d="M64.7883 210.32V210.887H60.4394V210.435L63.0169 207.911C63.3416 207.592 63.5601 207.317 63.6723 207.087C63.7904 206.851 63.8494 206.615 63.8494 206.378C63.8494 206.012 63.7225 205.729 63.4686 205.528C63.2206 205.321 62.8633 205.218 62.3968 205.218C61.6705 205.218 61.1066 205.448 60.7051 205.909L60.2534 205.519C60.4955 205.236 60.8025 205.017 61.1745 204.864C61.5525 204.71 61.9776 204.633 62.45 204.633C63.0818 204.633 63.5808 204.784 63.9469 205.085C64.3189 205.38 64.5049 205.788 64.5049 206.307C64.5049 206.626 64.434 206.933 64.2923 207.229C64.1506 207.524 63.8819 207.863 63.4863 208.247L61.3783 210.32H64.7883ZM67.2184 207.229C68.1159 207.229 68.7684 207.391 69.1759 207.716C69.5892 208.035 69.7959 208.483 69.7959 209.062C69.7959 209.422 69.7103 209.744 69.539 210.028C69.3737 210.311 69.1227 210.535 68.7862 210.701C68.4496 210.86 68.0362 210.94 67.5461 210.94C67.1033 210.94 66.6811 210.869 66.2795 210.727C65.8839 210.58 65.565 210.385 65.3229 210.143L65.6329 209.638C65.8396 209.85 66.1112 210.025 66.4478 210.16C66.7844 210.29 67.1475 210.355 67.5373 210.355C68.051 210.355 68.4466 210.24 68.7241 210.01C69.0076 209.78 69.1493 209.473 69.1493 209.089C69.1493 208.664 68.9899 208.342 68.671 208.123C68.358 207.905 67.8266 207.796 67.0767 207.796H65.757L66.0758 204.687H69.4682V205.253H66.6338L66.4212 207.229H67.2184ZM71.8299 208.008C71.4106 208.008 71.0711 207.855 70.8113 207.548C70.5574 207.235 70.4304 206.827 70.4304 206.325C70.4304 205.823 70.5574 205.419 70.8113 205.112C71.0711 204.799 71.4106 204.642 71.8299 204.642C72.2432 204.642 72.5798 204.796 72.8396 205.103C73.0994 205.41 73.2293 205.817 73.2293 206.325C73.2293 206.833 73.0994 207.24 72.8396 207.548C72.5798 207.855 72.2432 208.008 71.8299 208.008ZM75.5854 204.687H76.108L71.8742 210.887H71.3516L75.5854 204.687ZM71.8299 207.61C72.1192 207.61 72.3495 207.497 72.5208 207.273C72.6979 207.043 72.7865 206.727 72.7865 206.325C72.7865 205.924 72.6979 205.611 72.5208 205.386C72.3495 205.156 72.1192 205.041 71.8299 205.041C71.5346 205.041 71.3014 205.156 71.1302 205.386C70.9589 205.617 70.8733 205.93 70.8733 206.325C70.8733 206.721 70.9589 207.034 71.1302 207.264C71.3014 207.494 71.5346 207.61 71.8299 207.61ZM75.6297 210.931C75.2163 210.931 74.8797 210.777 74.6199 210.47C74.3601 210.157 74.2302 209.75 74.2302 209.248C74.2302 208.746 74.3601 208.342 74.6199 208.035C74.8797 207.722 75.2163 207.565 75.6297 207.565C76.0489 207.565 76.3855 207.722 76.6394 208.035C76.8992 208.342 77.0291 208.746 77.0291 209.248C77.0291 209.75 76.8992 210.157 76.6394 210.47C76.3855 210.777 76.0489 210.931 75.6297 210.931ZM75.6297 210.532C75.9249 210.532 76.1582 210.417 76.3294 210.187C76.5006 209.957 76.5863 209.644 76.5863 209.248C76.5863 208.852 76.5006 208.54 76.3294 208.309C76.1582 208.079 75.9249 207.964 75.6297 207.964C75.3403 207.964 75.1071 208.079 74.9299 208.309C74.7587 208.534 74.6731 208.847 74.6731 209.248C74.6731 209.65 74.7587 209.966 74.9299 210.196C75.1071 210.42 75.3403 210.532 75.6297 210.532Z" fill="#2D2D2D"/>
<path id="01.06" d="M104.248 232.914C103.77 232.914 103.342 232.788 102.964 232.534C102.592 232.28 102.3 231.917 102.087 231.444C101.88 230.966 101.777 230.405 101.777 229.761C101.777 229.118 101.88 228.56 102.087 228.087C102.3 227.609 102.592 227.243 102.964 226.989C103.342 226.735 103.77 226.608 104.248 226.608C104.726 226.608 105.152 226.735 105.524 226.989C105.902 227.243 106.197 227.609 106.409 228.087C106.622 228.56 106.728 229.118 106.728 229.761C106.728 230.405 106.622 230.966 106.409 231.444C106.197 231.917 105.902 232.28 105.524 232.534C105.152 232.788 104.726 232.914 104.248 232.914ZM104.248 232.33C104.608 232.33 104.924 232.23 105.196 232.029C105.473 231.828 105.689 231.536 105.842 231.152C105.996 230.768 106.073 230.305 106.073 229.761C106.073 229.218 105.996 228.754 105.842 228.371C105.689 227.987 105.473 227.695 105.196 227.494C104.924 227.293 104.608 227.193 104.248 227.193C103.888 227.193 103.569 227.293 103.292 227.494C103.02 227.695 102.807 227.987 102.654 228.371C102.5 228.754 102.424 229.218 102.424 229.761C102.424 230.305 102.5 230.768 102.654 231.152C102.807 231.536 103.02 231.828 103.292 232.029C103.569 232.23 103.888 232.33 104.248 232.33ZM109.343 226.661V232.861H108.705V227.228H107.243V226.661H109.343ZM111.303 232.906C111.173 232.906 111.061 232.858 110.966 232.764C110.878 232.669 110.833 232.554 110.833 232.418C110.833 232.283 110.878 232.17 110.966 232.082C111.061 231.987 111.173 231.94 111.303 231.94C111.433 231.94 111.545 231.987 111.639 232.082C111.734 232.17 111.781 232.283 111.781 232.418C111.781 232.554 111.734 232.669 111.639 232.764C111.545 232.858 111.433 232.906 111.303 232.906ZM115.078 232.914C114.599 232.914 114.171 232.788 113.793 232.534C113.421 232.28 113.129 231.917 112.916 231.444C112.71 230.966 112.606 230.405 112.606 229.761C112.606 229.118 112.71 228.56 112.916 228.087C113.129 227.609 113.421 227.243 113.793 226.989C114.171 226.735 114.599 226.608 115.078 226.608C115.556 226.608 115.981 226.735 116.353 226.989C116.731 227.243 117.026 227.609 117.239 228.087C117.451 228.56 117.558 229.118 117.558 229.761C117.558 230.405 117.451 230.966 117.239 231.444C117.026 231.917 116.731 232.28 116.353 232.534C115.981 232.788 115.556 232.914 115.078 232.914ZM115.078 232.33C115.438 232.33 115.754 232.23 116.025 232.029C116.303 231.828 116.518 231.536 116.672 231.152C116.825 230.768 116.902 230.305 116.902 229.761C116.902 229.218 116.825 228.754 116.672 228.371C116.518 227.987 116.303 227.695 116.025 227.494C115.754 227.293 115.438 227.193 115.078 227.193C114.717 227.193 114.399 227.293 114.121 227.494C113.849 227.695 113.637 227.987 113.483 228.371C113.33 228.754 113.253 229.218 113.253 229.761C113.253 230.305 113.33 230.768 113.483 231.152C113.637 231.536 113.849 231.828 114.121 232.029C114.399 232.23 114.717 232.33 115.078 232.33ZM121.04 229.15C121.447 229.15 121.807 229.227 122.12 229.38C122.439 229.534 122.687 229.752 122.864 230.036C123.041 230.313 123.13 230.638 123.13 231.01C123.13 231.388 123.038 231.722 122.855 232.011C122.672 232.3 122.418 232.525 122.094 232.684C121.775 232.838 121.415 232.914 121.013 232.914C120.192 232.914 119.563 232.646 119.126 232.108C118.689 231.565 118.471 230.801 118.471 229.814C118.471 229.124 118.589 228.539 118.825 228.061C119.061 227.582 119.392 227.222 119.817 226.98C120.242 226.732 120.738 226.608 121.305 226.608C121.919 226.608 122.409 226.72 122.776 226.945L122.519 227.458C122.223 227.264 121.822 227.166 121.314 227.166C120.629 227.166 120.092 227.385 119.702 227.822C119.312 228.253 119.118 228.881 119.118 229.708C119.118 229.856 119.126 230.024 119.144 230.213C119.298 229.876 119.543 229.617 119.879 229.434C120.216 229.245 120.603 229.15 121.04 229.15ZM120.986 232.374C121.435 232.374 121.798 232.253 122.076 232.011C122.359 231.763 122.501 231.435 122.501 231.028C122.501 230.62 122.359 230.296 122.076 230.054C121.798 229.811 121.42 229.69 120.942 229.69C120.629 229.69 120.352 229.749 120.11 229.868C119.873 229.986 119.687 230.148 119.552 230.355C119.416 230.561 119.348 230.792 119.348 231.046C119.348 231.282 119.41 231.5 119.534 231.701C119.664 231.902 119.853 232.064 120.101 232.188C120.349 232.312 120.644 232.374 120.986 232.374Z" fill="#2D2D2D"/>
<path id="01.07" d="M162.705 232.914C162.227 232.914 161.799 232.788 161.421 232.534C161.049 232.28 160.757 231.917 160.544 231.444C160.337 230.966 160.234 230.405 160.234 229.761C160.234 229.118 160.337 228.56 160.544 228.087C160.757 227.609 161.049 227.243 161.421 226.989C161.799 226.735 162.227 226.608 162.705 226.608C163.184 226.608 163.609 226.735 163.981 226.989C164.359 227.243 164.654 227.609 164.866 228.087C165.079 228.56 165.185 229.118 165.185 229.761C165.185 230.405 165.079 230.966 164.866 231.444C164.654 231.917 164.359 232.28 163.981 232.534C163.609 232.788 163.184 232.914 162.705 232.914ZM162.705 232.33C163.065 232.33 163.381 232.23 163.653 232.029C163.93 231.828 164.146 231.536 164.3 231.152C164.453 230.768 164.53 230.305 164.53 229.761C164.53 229.218 164.453 228.754 164.3 228.371C164.146 227.987 163.93 227.695 163.653 227.494C163.381 227.293 163.065 227.193 162.705 227.193C162.345 227.193 162.026 227.293 161.749 227.494C161.477 227.695 161.264 227.987 161.111 228.371C160.957 228.754 160.881 229.218 160.881 229.761C160.881 230.305 160.957 230.768 161.111 231.152C161.264 231.536 161.477 231.828 161.749 232.029C162.026 232.23 162.345 232.33 162.705 232.33ZM167.8 226.661V232.861H167.162V227.228H165.7V226.661H167.8ZM169.76 232.906C169.63 232.906 169.518 232.858 169.423 232.764C169.335 232.669 169.29 232.554 169.29 232.418C169.29 232.283 169.335 232.17 169.423 232.082C169.518 231.987 169.63 231.94 169.76 231.94C169.89 231.94 170.002 231.987 170.096 232.082C170.191 232.17 170.238 232.283 170.238 232.418C170.238 232.554 170.191 232.669 170.096 232.764C170.002 232.858 169.89 232.906 169.76 232.906ZM173.535 232.914C173.056 232.914 172.628 232.788 172.25 232.534C171.878 232.28 171.586 231.917 171.373 231.444C171.167 230.966 171.063 230.405 171.063 229.761C171.063 229.118 171.167 228.56 171.373 228.087C171.586 227.609 171.878 227.243 172.25 226.989C172.628 226.735 173.056 226.608 173.535 226.608C174.013 226.608 174.438 226.735 174.81 226.989C175.188 227.243 175.483 227.609 175.696 228.087C175.908 228.56 176.015 229.118 176.015 229.761C176.015 230.405 175.908 230.966 175.696 231.444C175.483 231.917 175.188 232.28 174.81 232.534C174.438 232.788 174.013 232.914 173.535 232.914ZM173.535 232.33C173.895 232.33 174.211 232.23 174.482 232.029C174.76 231.828 174.975 231.536 175.129 231.152C175.282 230.768 175.359 230.305 175.359 229.761C175.359 229.218 175.282 228.754 175.129 228.371C174.975 227.987 174.76 227.695 174.482 227.494C174.211 227.293 173.895 227.193 173.535 227.193C173.174 227.193 172.856 227.293 172.578 227.494C172.306 227.695 172.094 227.987 171.94 228.371C171.787 228.754 171.71 229.218 171.71 229.761C171.71 230.305 171.787 230.768 171.94 231.152C172.094 231.536 172.306 231.828 172.578 232.029C172.856 232.23 173.174 232.33 173.535 232.33ZM181.234 226.661V227.113L178.639 232.861H177.948L180.499 227.228H177.31V228.388H176.682V226.661H181.234Z" fill="#2D2D2D"/>
<path id="01.08" d="M221.162 232.914C220.684 232.914 220.256 232.788 219.878 232.534C219.506 232.28 219.214 231.917 219.001 231.444C218.794 230.966 218.691 230.405 218.691 229.761C218.691 229.118 218.794 228.56 219.001 228.087C219.214 227.609 219.506 227.243 219.878 226.989C220.256 226.735 220.684 226.608 221.162 226.608C221.641 226.608 222.066 226.735 222.438 226.989C222.816 227.243 223.111 227.609 223.323 228.087C223.536 228.56 223.642 229.118 223.642 229.761C223.642 230.405 223.536 230.966 223.323 231.444C223.111 231.917 222.816 232.28 222.438 232.534C222.066 232.788 221.641 232.914 221.162 232.914ZM221.162 232.33C221.522 232.33 221.838 232.23 222.11 232.029C222.387 231.828 222.603 231.536 222.757 231.152C222.91 230.768 222.987 230.305 222.987 229.761C222.987 229.218 222.91 228.754 222.757 228.371C222.603 227.987 222.387 227.695 222.11 227.494C221.838 227.293 221.522 227.193 221.162 227.193C220.802 227.193 220.483 227.293 220.206 227.494C219.934 227.695 219.721 227.987 219.568 228.371C219.414 228.754 219.338 229.218 219.338 229.761C219.338 230.305 219.414 230.768 219.568 231.152C219.721 231.536 219.934 231.828 220.206 232.029C220.483 232.23 220.802 232.33 221.162 232.33ZM226.257 226.661V232.861H225.619V227.228H224.157V226.661H226.257ZM228.217 232.906C228.087 232.906 227.975 232.858 227.88 232.764C227.792 232.669 227.748 232.554 227.748 232.418C227.748 232.283 227.792 232.17 227.88 232.082C227.975 231.987 228.087 231.94 228.217 231.94C228.347 231.94 228.459 231.987 228.554 232.082C228.648 232.17 228.695 232.283 228.695 232.418C228.695 232.554 228.648 232.669 228.554 232.764C228.459 232.858 228.347 232.906 228.217 232.906ZM231.992 232.914C231.513 232.914 231.085 232.788 230.707 232.534C230.335 232.28 230.043 231.917 229.83 231.444C229.624 230.966 229.52 230.405 229.52 229.761C229.52 229.118 229.624 228.56 229.83 228.087C230.043 227.609 230.335 227.243 230.707 226.989C231.085 226.735 231.513 226.608 231.992 226.608C232.47 226.608 232.895 226.735 233.267 226.989C233.645 227.243 233.94 227.609 234.153 228.087C234.365 228.56 234.472 229.118 234.472 229.761C234.472 230.405 234.365 230.966 234.153 231.444C233.94 231.917 233.645 232.28 233.267 232.534C232.895 232.788 232.47 232.914 231.992 232.914ZM231.992 232.33C232.352 232.33 232.668 232.23 232.939 232.029C233.217 231.828 233.432 231.536 233.586 231.152C233.74 230.768 233.816 230.305 233.816 229.761C233.816 229.218 233.74 228.754 233.586 228.371C233.432 227.987 233.217 227.695 232.939 227.494C232.668 227.293 232.352 227.193 231.992 227.193C231.631 227.193 231.313 227.293 231.035 227.494C230.763 227.695 230.551 227.987 230.397 228.371C230.244 228.754 230.167 229.218 230.167 229.761C230.167 230.305 230.244 230.768 230.397 231.152C230.551 231.536 230.763 231.828 231.035 232.029C231.313 232.23 231.631 232.33 231.992 232.33ZM238.937 229.611C239.327 229.741 239.625 229.935 239.831 230.195C240.044 230.455 240.15 230.768 240.15 231.134C240.15 231.494 240.053 231.81 239.858 232.082C239.663 232.348 239.383 232.554 239.016 232.702C238.656 232.844 238.231 232.914 237.741 232.914C236.997 232.914 236.412 232.755 235.987 232.436C235.562 232.117 235.35 231.683 235.35 231.134C235.35 230.762 235.45 230.449 235.651 230.195C235.857 229.935 236.156 229.741 236.545 229.611C236.226 229.487 235.984 229.31 235.819 229.079C235.654 228.843 235.571 228.566 235.571 228.247C235.571 227.745 235.766 227.346 236.156 227.051C236.551 226.756 237.08 226.608 237.741 226.608C238.178 226.608 238.559 226.676 238.884 226.812C239.214 226.942 239.471 227.131 239.654 227.379C239.837 227.627 239.929 227.916 239.929 228.247C239.929 228.566 239.843 228.843 239.672 229.079C239.501 229.31 239.256 229.487 238.937 229.611ZM236.209 228.264C236.209 228.607 236.345 228.878 236.616 229.079C236.888 229.28 237.263 229.38 237.741 229.38C238.219 229.38 238.594 229.28 238.866 229.079C239.143 228.878 239.282 228.61 239.282 228.273C239.282 227.925 239.141 227.65 238.857 227.45C238.58 227.249 238.208 227.148 237.741 227.148C237.269 227.148 236.894 227.249 236.616 227.45C236.345 227.65 236.209 227.922 236.209 228.264ZM237.741 232.374C238.29 232.374 238.718 232.262 239.025 232.038C239.338 231.813 239.495 231.509 239.495 231.125C239.495 230.741 239.338 230.44 239.025 230.222C238.718 229.997 238.29 229.885 237.741 229.885C237.198 229.885 236.77 229.997 236.457 230.222C236.15 230.44 235.996 230.741 235.996 231.125C235.996 231.515 236.15 231.822 236.457 232.046C236.764 232.265 237.192 232.374 237.741 232.374Z" fill="#2D2D2D"/>
<path id="01.09" d="M280.51 232.914C280.032 232.914 279.603 232.788 279.226 232.534C278.854 232.28 278.561 231.917 278.349 231.444C278.142 230.966 278.039 230.405 278.039 229.761C278.039 229.118 278.142 228.56 278.349 228.087C278.561 227.609 278.854 227.243 279.226 226.989C279.603 226.735 280.032 226.608 280.51 226.608C280.988 226.608 281.413 226.735 281.785 226.989C282.163 227.243 282.459 227.609 282.671 228.087C282.884 228.56 282.99 229.118 282.99 229.761C282.99 230.405 282.884 230.966 282.671 231.444C282.459 231.917 282.163 232.28 281.785 232.534C281.413 232.788 280.988 232.914 280.51 232.914ZM280.51 232.33C280.87 232.33 281.186 232.23 281.458 232.029C281.735 231.828 281.951 231.536 282.104 231.152C282.258 230.768 282.335 230.305 282.335 229.761C282.335 229.218 282.258 228.754 282.104 228.371C281.951 227.987 281.735 227.695 281.458 227.494C281.186 227.293 280.87 227.193 280.51 227.193C280.15 227.193 279.831 227.293 279.553 227.494C279.282 227.695 279.069 227.987 278.916 228.371C278.762 228.754 278.685 229.218 278.685 229.761C278.685 230.305 278.762 230.768 278.916 231.152C279.069 231.536 279.282 231.828 279.553 232.029C279.831 232.23 280.15 232.33 280.51 232.33ZM285.604 226.661V232.861H284.967V227.228H283.505V226.661H285.604ZM287.565 232.906C287.435 232.906 287.323 232.858 287.228 232.764C287.139 232.669 287.095 232.554 287.095 232.418C287.095 232.283 287.139 232.17 287.228 232.082C287.323 231.987 287.435 231.94 287.565 231.94C287.695 231.94 287.807 231.987 287.901 232.082C287.996 232.17 288.043 232.283 288.043 232.418C288.043 232.554 287.996 232.669 287.901 232.764C287.807 232.858 287.695 232.906 287.565 232.906ZM291.339 232.914C290.861 232.914 290.433 232.788 290.055 232.534C289.683 232.28 289.391 231.917 289.178 231.444C288.971 230.966 288.868 230.405 288.868 229.761C288.868 229.118 288.971 228.56 289.178 228.087C289.391 227.609 289.683 227.243 290.055 226.989C290.433 226.735 290.861 226.608 291.339 226.608C291.818 226.608 292.243 226.735 292.615 226.989C292.993 227.243 293.288 227.609 293.501 228.087C293.713 228.56 293.819 229.118 293.819 229.761C293.819 230.405 293.713 230.966 293.501 231.444C293.288 231.917 292.993 232.28 292.615 232.534C292.243 232.788 291.818 232.914 291.339 232.914ZM291.339 232.33C291.7 232.33 292.015 232.23 292.287 232.029C292.565 231.828 292.78 231.536 292.934 231.152C293.087 230.768 293.164 230.305 293.164 229.761C293.164 229.218 293.087 228.754 292.934 228.371C292.78 227.987 292.565 227.695 292.287 227.494C292.015 227.293 291.7 227.193 291.339 227.193C290.979 227.193 290.66 227.293 290.383 227.494C290.111 227.695 289.899 227.987 289.745 228.371C289.591 228.754 289.515 229.218 289.515 229.761C289.515 230.305 289.591 230.768 289.745 231.152C289.899 231.536 290.111 231.828 290.383 232.029C290.66 232.23 290.979 232.33 291.339 232.33ZM296.664 226.608C297.484 226.608 298.113 226.88 298.55 227.423C298.987 227.96 299.206 228.722 299.206 229.708C299.206 230.399 299.088 230.984 298.851 231.462C298.615 231.94 298.284 232.303 297.859 232.551C297.434 232.793 296.938 232.914 296.371 232.914C295.757 232.914 295.267 232.802 294.901 232.578L295.158 232.064C295.453 232.259 295.855 232.356 296.362 232.356C297.047 232.356 297.585 232.141 297.974 231.71C298.364 231.273 298.559 230.641 298.559 229.814C298.559 229.661 298.55 229.493 298.532 229.31C298.379 229.646 298.134 229.909 297.797 230.098C297.461 230.281 297.074 230.372 296.637 230.372C296.23 230.372 295.866 230.296 295.548 230.142C295.235 229.989 294.99 229.773 294.812 229.496C294.635 229.212 294.547 228.884 294.547 228.512C294.547 228.134 294.638 227.801 294.821 227.512C295.004 227.222 295.255 227.001 295.574 226.847C295.899 226.688 296.262 226.608 296.664 226.608ZM296.734 229.832C297.047 229.832 297.322 229.773 297.558 229.655C297.8 229.537 297.989 229.375 298.125 229.168C298.261 228.961 298.329 228.731 298.329 228.477C298.329 228.241 298.264 228.022 298.134 227.822C298.01 227.621 297.824 227.458 297.576 227.334C297.328 227.21 297.033 227.148 296.69 227.148C296.241 227.148 295.875 227.272 295.592 227.52C295.314 227.762 295.176 228.087 295.176 228.495C295.176 228.902 295.314 229.227 295.592 229.469C295.875 229.711 296.256 229.832 296.734 229.832Z" fill="#2D2D2D"/>
<path id="01.10" d="M338.967 232.914C338.489 232.914 338.061 232.788 337.683 232.534C337.311 232.28 337.018 231.917 336.806 231.444C336.599 230.966 336.496 230.405 336.496 229.761C336.496 229.118 336.599 228.56 336.806 228.087C337.018 227.609 337.311 227.243 337.683 226.989C338.061 226.735 338.489 226.608 338.967 226.608C339.445 226.608 339.87 226.735 340.242 226.989C340.62 227.243 340.916 227.609 341.128 228.087C341.341 228.56 341.447 229.118 341.447 229.761C341.447 230.405 341.341 230.966 341.128 231.444C340.916 231.917 340.62 232.28 340.242 232.534C339.87 232.788 339.445 232.914 338.967 232.914ZM338.967 232.33C339.327 232.33 339.643 232.23 339.915 232.029C340.192 231.828 340.408 231.536 340.561 231.152C340.715 230.768 340.792 230.305 340.792 229.761C340.792 229.218 340.715 228.754 340.561 228.371C340.408 227.987 340.192 227.695 339.915 227.494C339.643 227.293 339.327 227.193 338.967 227.193C338.607 227.193 338.288 227.293 338.01 227.494C337.739 227.695 337.526 227.987 337.373 228.371C337.219 228.754 337.142 229.218 337.142 229.761C337.142 230.305 337.219 230.768 337.373 231.152C337.526 231.536 337.739 231.828 338.01 232.029C338.288 232.23 338.607 232.33 338.967 232.33ZM344.061 226.661V232.861H343.424V227.228H341.962V226.661H344.061ZM346.022 232.906C345.892 232.906 345.78 232.858 345.685 232.764C345.596 232.669 345.552 232.554 345.552 232.418C345.552 232.283 345.596 232.17 345.685 232.082C345.78 231.987 345.892 231.94 346.022 231.94C346.152 231.94 346.264 231.987 346.358 232.082C346.453 232.17 346.5 232.283 346.5 232.418C346.5 232.554 346.453 232.669 346.358 232.764C346.264 232.858 346.152 232.906 346.022 232.906ZM349.035 226.661V232.861H348.397V227.228H346.936V226.661H349.035ZM352.988 232.914C352.51 232.914 352.082 232.788 351.704 232.534C351.332 232.28 351.04 231.917 350.827 231.444C350.62 230.966 350.517 230.405 350.517 229.761C350.517 229.118 350.62 228.56 350.827 228.087C351.04 227.609 351.332 227.243 351.704 226.989C352.082 226.735 352.51 226.608 352.988 226.608C353.466 226.608 353.892 226.735 354.264 226.989C354.641 227.243 354.937 227.609 355.149 228.087C355.362 228.56 355.468 229.118 355.468 229.761C355.468 230.405 355.362 230.966 355.149 231.444C354.937 231.917 354.641 232.28 354.264 232.534C353.892 232.788 353.466 232.914 352.988 232.914ZM352.988 232.33C353.348 232.33 353.664 232.23 353.936 232.029C354.213 231.828 354.429 231.536 354.582 231.152C354.736 230.768 354.813 230.305 354.813 229.761C354.813 229.218 354.736 228.754 354.582 228.371C354.429 227.987 354.213 227.695 353.936 227.494C353.664 227.293 353.348 227.193 352.988 227.193C352.628 227.193 352.309 227.293 352.032 227.494C351.76 227.695 351.547 227.987 351.394 228.371C351.24 228.754 351.164 229.218 351.164 229.761C351.164 230.305 351.24 230.768 351.394 231.152C351.547 231.536 351.76 231.828 352.032 232.029C352.309 232.23 352.628 232.33 352.988 232.33Z" fill="#2D2D2D"/>
<line id="Line 28" x1="70.3164" y1="219.989" x2="357.293" y2="219.989" stroke="#707070" stroke-opacity="0.3" stroke-width="0.885731"/>
<line id="Line 29" x1="85.8149" y1="231.945" x2="85.8149" y2="116.8" stroke="#707070" stroke-opacity="0.3" stroke-width="0.885731"/>
<g id="1-1-range-max">
<path id="Vector 18" d="M91.5742 208.918C142.061 176.157 262.697 111.356 341.35 114.238" stroke="#8D52C6" stroke-width="3" stroke-linecap="round"/>
</g>
</g>
<path id="Vector 18_2" d="M91.5742 208.918C93.2758 207.814 95.057 206.673 96.9136 205.5" stroke="#8D52C6" stroke-width="3" stroke-linecap="round"/>
<g id="1-1-aura">
<path id="Vector 22" d="M78.361 200.88C75.861 208.88 86.3606 217.38 109.361 213.38C122.348 211.121 218.861 155.285 256.361 150.582C293.861 145.88 349.861 132.88 362.361 124.38C374.861 115.88 369.861 88.8796 337.861 86.8797C305.861 84.8798 303.361 82.2834 248.861 92.0816C194.361 101.88 128.361 165.38 109.861 175.88C91.3613 186.38 80.861 192.88 78.361 200.88Z" fill="#8D52C6"/>
</g>
</g>
</g>
<defs>
<filter id="filter0_d_1104_3253" x="0" y="0" width="413.436" height="287.661" filterUnits="userSpaceOnUse" color-interpolation-filters="sRGB">
<feFlood flood-opacity="0" result="BackgroundImageFix"/>
<feColorMatrix in="SourceAlpha" type="matrix" values="0 0 0 0 0 0 0 0 0 0 0 0 0 0 0 0 0 0 127 0" result="hardAlpha"/>
<feOffset dy="4"/>
<feGaussianBlur stdDeviation="17"/>
<feComposite in2="hardAlpha" operator="out"/>
<feColorMatrix type="matrix" values="0 0 0 0 0 0 0 0 0 0 0 0 0 0 0 0 0 0 0.1 0"/>
<feBlend mode="normal" in2="BackgroundImageFix" result="effect1_dropShadow_1104_3253"/>
<feBlend mode="normal" in="SourceGraphic" in2="effect1_dropShadow_1104_3253" result="shape"/>
</filter>
<linearGradient id="paint0_linear_1104_3253" x1="36.2143" y1="33.4203" x2="404.871" y2="174.943" gradientUnits="userSpaceOnUse">
<stop stop-color="#FAFDFC"/>
<stop offset="1" stop-color="#F0F8FD"/>
</linearGradient>
</defs>
</svg>
