<svg width="570" height="413" viewBox="0 0 570 413" fill="none" xmlns="http://www.w3.org/2000/svg">
<g id="7">
<g id="7-1">
<g id="Rectangle 528" filter="url(#filter0_d_1123_3415)">
<rect x="40" y="214.652" width="255.352" height="131.127" rx="11.5023" fill="white"/>
<rect x="40" y="214.652" width="255.352" height="131.127" rx="11.5023" fill="url(#paint0_linear_1123_3415)" fill-opacity="0.4"/>
</g>
<path id="&#208;&#157;&#208;&#190;&#208;&#178;&#209;&#139;&#209;&#133; &#208;&#186;&#208;&#187;&#208;&#184;&#208;&#181;&#208;&#189;&#209;&#130;&#208;&#190;&#208;&#178;" d="M64.4417 229.971V242.854H63.0983V236.909H55.0374V242.854H53.6755V229.971H55.0374V235.713H63.0983V229.971H64.4417ZM72.4711 242.946C71.5386 242.946 70.6982 242.737 69.9498 242.32C69.2014 241.89 68.6125 241.301 68.183 240.553C67.7536 239.805 67.5389 238.958 67.5389 238.013C67.5389 237.069 67.7536 236.222 68.183 235.474C68.6125 234.725 69.2014 234.142 69.9498 233.725C70.6982 233.308 71.5386 233.1 72.4711 233.1C73.4036 233.1 74.244 233.308 74.9924 233.725C75.7408 234.142 76.3236 234.725 76.7408 235.474C77.1702 236.222 77.3849 237.069 77.3849 238.013C77.3849 238.958 77.1702 239.805 76.7408 240.553C76.3236 241.301 75.7408 241.89 74.9924 242.32C74.244 242.737 73.4036 242.946 72.4711 242.946ZM72.4711 241.786C73.1582 241.786 73.7716 241.633 74.3115 241.326C74.8636 241.007 75.293 240.559 75.5997 239.983C75.9065 239.406 76.0598 238.749 76.0598 238.013C76.0598 237.277 75.9065 236.621 75.5997 236.044C75.293 235.467 74.8636 235.026 74.3115 234.719C73.7716 234.4 73.1582 234.241 72.4711 234.241C71.784 234.241 71.1644 234.4 70.6123 234.719C70.0725 235.026 69.6431 235.467 69.3241 236.044C69.0173 236.621 68.864 237.277 68.864 238.013C68.864 238.749 69.0173 239.406 69.3241 239.983C69.6431 240.559 70.0725 241.007 70.6123 241.326C71.1644 241.633 71.784 241.786 72.4711 241.786ZM86.3428 237.848C87.6556 238.154 88.312 238.946 88.312 240.222C88.312 241.068 87.9991 241.719 87.3734 242.173C86.7477 242.627 85.8152 242.854 84.576 242.854H80.1775V233.173H84.4472C85.5514 233.173 86.4164 233.388 87.0421 233.817C87.6679 234.247 87.9807 234.86 87.9807 235.658C87.9807 236.185 87.8335 236.639 87.539 237.02C87.2568 237.388 86.8581 237.664 86.3428 237.848ZM81.4474 237.48H84.3552C85.1036 237.48 85.6741 237.339 86.0667 237.056C86.4716 236.774 86.6741 236.363 86.6741 235.823C86.6741 235.283 86.4716 234.879 86.0667 234.609C85.6741 234.339 85.1036 234.204 84.3552 234.204H81.4474V237.48ZM84.5208 241.823C85.3551 241.823 85.9809 241.688 86.398 241.418C86.8152 241.148 87.0237 240.725 87.0237 240.148C87.0237 239.572 86.8336 239.148 86.4532 238.878C86.0729 238.596 85.4717 238.455 84.6496 238.455H81.4474V241.823H84.5208ZM95.4416 236.596C96.6562 236.609 97.5826 236.878 98.2205 237.406C98.8585 237.934 99.1775 238.694 99.1775 239.688C99.1775 240.719 98.834 241.51 98.1469 242.062C97.4599 242.614 96.4783 242.884 95.2023 242.872L91.3744 242.854V233.173H92.681V236.559L95.4416 236.596ZM100.797 233.173H102.104V242.854H100.797V233.173ZM95.1287 241.878C96.0244 241.89 96.6992 241.712 97.1531 241.344C97.6194 240.964 97.8525 240.412 97.8525 239.688C97.8525 238.976 97.6255 238.449 97.1715 238.105C96.7176 237.762 96.0366 237.584 95.1287 237.572L92.681 237.535V241.841L95.1287 241.878ZM111.879 242.854L108.806 238.805L105.714 242.854H104.241L108.069 237.885L104.425 233.173H105.898L108.806 236.964L111.713 233.173H113.149L109.505 237.885L113.37 242.854H111.879ZM123.843 238.547H121.635V242.854H120.328V233.173H121.635V237.424H123.861L127.266 233.173H128.683L124.874 237.866L128.959 242.854H127.413L123.843 238.547ZM138.935 233.173V242.854H137.628V234.333H132.991L132.862 236.725C132.764 238.737 132.531 240.283 132.163 241.363C131.794 242.442 131.138 242.982 130.193 242.982C129.936 242.982 129.623 242.933 129.255 242.835L129.347 241.712C129.568 241.762 129.721 241.786 129.807 241.786C130.31 241.786 130.69 241.553 130.948 241.087C131.206 240.621 131.377 240.044 131.463 239.357C131.549 238.67 131.623 237.762 131.684 236.633L131.85 233.173H138.935ZM142.65 233.173H143.956V240.866L150.416 233.173H151.575V242.854H150.269V235.161L143.828 242.854H142.65V233.173ZM163.786 238.418H155.688C155.762 239.424 156.148 240.24 156.848 240.866C157.547 241.479 158.43 241.786 159.498 241.786C160.099 241.786 160.651 241.682 161.154 241.473C161.657 241.252 162.093 240.933 162.461 240.516L163.197 241.363C162.768 241.878 162.228 242.271 161.577 242.541C160.94 242.811 160.234 242.946 159.461 242.946C158.467 242.946 157.584 242.737 156.811 242.32C156.05 241.89 155.455 241.301 155.026 240.553C154.596 239.805 154.382 238.958 154.382 238.013C154.382 237.069 154.584 236.222 154.989 235.474C155.406 234.725 155.97 234.142 156.682 233.725C157.406 233.308 158.216 233.1 159.111 233.1C160.007 233.1 160.811 233.308 161.522 233.725C162.234 234.142 162.792 234.725 163.197 235.474C163.602 236.21 163.804 237.056 163.804 238.013L163.786 238.418ZM159.111 234.222C158.179 234.222 157.394 234.523 156.756 235.124C156.13 235.713 155.774 236.486 155.688 237.443H162.553C162.467 236.486 162.105 235.713 161.467 235.124C160.841 234.523 160.056 234.222 159.111 234.222ZM166.697 233.173H168.003V237.461H174.095V233.173H175.402V242.854H174.095V238.584H168.003V242.854H166.697V233.173ZM185.925 234.333H182.263V242.854H180.956V234.333H177.294V233.173H185.925V234.333ZM191.359 242.946C190.426 242.946 189.586 242.737 188.837 242.32C188.089 241.89 187.5 241.301 187.071 240.553C186.641 239.805 186.426 238.958 186.426 238.013C186.426 237.069 186.641 236.222 187.071 235.474C187.5 234.725 188.089 234.142 188.837 233.725C189.586 233.308 190.426 233.1 191.359 233.1C192.291 233.1 193.132 233.308 193.88 233.725C194.628 234.142 195.211 234.725 195.628 235.474C196.058 236.222 196.272 237.069 196.272 238.013C196.272 238.958 196.058 239.805 195.628 240.553C195.211 241.301 194.628 241.89 193.88 242.32C193.132 242.737 192.291 242.946 191.359 242.946ZM191.359 241.786C192.046 241.786 192.659 241.633 193.199 241.326C193.751 241.007 194.181 240.559 194.487 239.983C194.794 239.406 194.947 238.749 194.947 238.013C194.947 237.277 194.794 236.621 194.487 236.044C194.181 235.467 193.751 235.026 193.199 234.719C192.659 234.4 192.046 234.241 191.359 234.241C190.672 234.241 190.052 234.4 189.5 234.719C188.96 235.026 188.531 235.467 188.212 236.044C187.905 236.621 187.752 237.277 187.752 238.013C187.752 238.749 187.905 239.406 188.212 239.983C188.531 240.559 188.96 241.007 189.5 241.326C190.052 241.633 190.672 241.786 191.359 241.786ZM205.23 237.848C206.543 238.154 207.2 238.946 207.2 240.222C207.2 241.068 206.887 241.719 206.261 242.173C205.635 242.627 204.703 242.854 203.464 242.854H199.065V233.173H203.335C204.439 233.173 205.304 233.388 205.93 233.817C206.555 234.247 206.868 234.86 206.868 235.658C206.868 236.185 206.721 236.639 206.427 237.02C206.144 237.388 205.746 237.664 205.23 237.848ZM200.335 237.48H203.243C203.991 237.48 204.562 237.339 204.954 237.056C205.359 236.774 205.562 236.363 205.562 235.823C205.562 235.283 205.359 234.879 204.954 234.609C204.562 234.339 203.991 234.204 203.243 234.204H200.335V237.48ZM203.408 241.823C204.243 241.823 204.868 241.688 205.286 241.418C205.703 241.148 205.911 240.725 205.911 240.148C205.911 239.572 205.721 239.148 205.341 238.878C204.96 238.596 204.359 238.455 203.537 238.455H200.335V241.823H203.408Z" fill="#565656"/>
<g id="7-1-price-min">
<path id="+ 0" d="M62.6389 268.776H59.0363V272.296H56.3655V268.776H52.7837V266.251H56.3655V262.731H59.0363V266.251H62.6389V268.776ZM76.7765 275.008C75.5756 275.008 74.5059 274.712 73.5673 274.118C72.6287 273.525 71.8903 272.669 71.352 271.551C70.8275 270.419 70.5652 269.073 70.5652 267.514C70.5652 265.954 70.8275 264.615 71.352 263.497C71.8903 262.365 72.6287 261.502 73.5673 260.909C74.5059 260.315 75.5756 260.019 76.7765 260.019C77.9773 260.019 79.047 260.315 79.9856 260.909C80.9242 261.502 81.6558 262.365 82.1803 263.497C82.7186 264.615 82.9877 265.954 82.9877 267.514C82.9877 269.073 82.7186 270.419 82.1803 271.551C81.6558 272.669 80.9242 273.525 79.9856 274.118C79.047 274.712 77.9773 275.008 76.7765 275.008ZM76.7765 272.172C77.6598 272.172 78.35 271.792 78.8469 271.033C79.3576 270.274 79.6129 269.101 79.6129 267.514C79.6129 265.926 79.3576 264.753 78.8469 263.994C78.35 263.235 77.6598 262.855 76.7765 262.855C75.9069 262.855 75.2167 263.235 74.706 263.994C74.2091 264.753 73.9607 265.926 73.9607 267.514C73.9607 269.101 74.2091 270.274 74.706 271.033C75.2167 271.792 75.9069 272.172 76.7765 272.172Z" fill="#565656"/>
</g>
<g id="7-1-price-max">
<path id="+ 18 731" d="M62.6428 268.776H59.0402V272.296H56.3694V268.776H52.7876V266.25H56.3694V262.731H59.0402V266.25H62.6428V268.776ZM76.1592 260.267V274.76H72.8052V262.958H69.9066V260.267H76.1592ZM88.5942 267.141C89.312 267.499 89.8572 267.969 90.2299 268.548C90.6163 269.128 90.8096 269.798 90.8096 270.557C90.8096 271.454 90.5542 272.241 90.0435 272.917C89.5328 273.58 88.8151 274.097 87.8903 274.47C86.9655 274.829 85.8958 275.008 84.6811 275.008C83.4665 275.008 82.3968 274.829 81.472 274.47C80.561 274.097 79.8502 273.58 79.3394 272.917C78.8425 272.241 78.5941 271.454 78.5941 270.557C78.5941 269.798 78.7804 269.128 79.1531 268.548C79.5396 267.969 80.0848 267.499 80.7887 267.141C80.2504 266.809 79.8363 266.395 79.5465 265.898C79.2566 265.388 79.1117 264.808 79.1117 264.159C79.1117 263.317 79.3463 262.586 79.8156 261.965C80.2849 261.343 80.9406 260.867 81.7825 260.536C82.6245 260.191 83.5907 260.018 84.6811 260.018C85.7854 260.018 86.7585 260.191 87.6004 260.536C88.4562 260.867 89.1187 261.343 89.588 261.965C90.0573 262.586 90.292 263.317 90.292 264.159C90.292 264.808 90.1471 265.388 89.8572 265.898C89.5673 266.395 89.1463 266.809 88.5942 267.141ZM84.6811 262.482C84.0048 262.482 83.4596 262.648 83.0455 262.979C82.6452 263.297 82.4451 263.738 82.4451 264.304C82.4451 264.856 82.6452 265.291 83.0455 265.608C83.4458 265.926 83.991 266.085 84.6811 266.085C85.3713 266.085 85.9234 265.926 86.3375 265.608C86.7516 265.291 86.9586 264.856 86.9586 264.304C86.9586 263.738 86.7516 263.297 86.3375 262.979C85.9234 262.648 85.3713 262.482 84.6811 262.482ZM84.6811 272.544C85.5231 272.544 86.1856 272.358 86.6687 271.985C87.1656 271.599 87.4141 271.088 87.4141 270.453C87.4141 269.818 87.1656 269.315 86.6687 268.942C86.1856 268.569 85.5231 268.383 84.6811 268.383C83.853 268.383 83.1973 268.569 82.7142 268.942C82.2311 269.315 81.9896 269.818 81.9896 270.453C81.9896 271.102 82.2311 271.613 82.7142 271.985C83.1973 272.358 83.853 272.544 84.6811 272.544ZM109.554 260.267V262.441L104.171 274.76H100.527L105.724 263H100.921V265.36H97.9393V260.267H109.554ZM117.676 266.168C118.946 266.375 119.919 266.851 120.596 267.596C121.272 268.328 121.61 269.239 121.61 270.329C121.61 271.171 121.389 271.951 120.948 272.669C120.506 273.373 119.829 273.938 118.918 274.366C118.021 274.794 116.917 275.008 115.606 275.008C114.584 275.008 113.577 274.877 112.583 274.615C111.603 274.339 110.768 273.952 110.078 273.455L111.382 270.888C111.934 271.302 112.569 271.627 113.287 271.861C114.018 272.082 114.764 272.192 115.523 272.192C116.365 272.192 117.028 272.034 117.511 271.716C117.994 271.385 118.235 270.923 118.235 270.329C118.235 269.142 117.331 268.548 115.523 268.548H113.991V266.333L116.972 262.958H110.802V260.267H120.948V262.441L117.676 266.168ZM128.749 260.267V274.76H125.395V262.958H122.496V260.267H128.749Z" fill="#565656"/>
</g>
<g id="7-1-range">
<path id="Vector 20" d="M197.844 286.699C175.607 283.938 163.099 303.569 159.625 313.729V336.578H283.546V276.922C283.546 276.922 288.411 274.737 259.225 286.699C222.744 301.652 225.639 290.15 197.844 286.699Z" fill="url(#paint1_linear_1123_3415)"/>
<path id="Vector 21" d="M159.625 313.729C163.076 303.569 175.498 283.938 197.583 286.699C225.188 290.15 222.313 301.652 258.545 286.699C287.531 274.737 282.7 276.922 282.7 276.922" stroke="url(#paint2_linear_1123_3415)" stroke-width="2.30047" stroke-linecap="round"/>
</g>
<g id="Group 1331">
<path id="1 731 &#209;&#135;/&#208;&#188;&#208;&#181;&#209;&#129;" d="M87.689 315.22V323.271H86.8608V315.956H84.9629V315.22H87.689ZM98.3062 315.22V315.806L94.936 323.271H94.0388L97.3515 315.956H93.2106V317.463H92.394V315.22H98.3062ZM102.034 318.671C102.877 318.717 103.518 318.947 103.955 319.361C104.399 319.767 104.622 320.3 104.622 320.96C104.622 321.42 104.511 321.83 104.288 322.19C104.066 322.543 103.736 322.823 103.299 323.03C102.862 323.237 102.329 323.34 101.7 323.34C101.117 323.34 100.565 323.248 100.044 323.064C99.5301 322.873 99.1161 322.62 98.8017 322.305L99.2042 321.65C99.4726 321.926 99.8292 322.152 100.274 322.328C100.719 322.497 101.194 322.581 101.7 322.581C102.36 322.581 102.87 322.439 103.23 322.156C103.59 321.864 103.771 321.466 103.771 320.96C103.771 320.461 103.59 320.07 103.23 319.786C102.87 319.503 102.325 319.361 101.597 319.361H101.022V318.751L103.253 315.956H99.1352V315.22H104.311V315.806L102.034 318.671ZM108.02 315.22V323.271H107.192V315.956H105.294V315.22H108.02ZM118.085 317.221V323.271H117.269V320.752C116.571 321.059 115.885 321.213 115.21 321.213C114.481 321.213 113.914 321.048 113.507 320.718C113.101 320.381 112.898 319.878 112.898 319.211V317.221H113.714V319.165C113.714 319.618 113.86 319.963 114.152 320.2C114.443 320.43 114.846 320.545 115.359 320.545C115.927 320.545 116.563 320.396 117.269 320.097V317.221H118.085ZM122.751 313.587H123.499L119.703 324.422H118.955L122.751 313.587ZM130.235 317.221V323.271H129.487V318.487L127.037 322.535H126.669L124.219 318.475V323.271H123.471V317.221H124.299L126.864 321.581L129.475 317.221H130.235ZM137.85 320.499H132.788C132.834 321.128 133.076 321.638 133.513 322.029C133.95 322.413 134.502 322.604 135.169 322.604C135.545 322.604 135.89 322.539 136.205 322.409C136.519 322.271 136.791 322.071 137.021 321.811L137.481 322.34C137.213 322.662 136.876 322.907 136.469 323.076C136.07 323.245 135.63 323.329 135.146 323.329C134.525 323.329 133.973 323.199 133.49 322.938C133.015 322.67 132.643 322.301 132.374 321.834C132.106 321.366 131.972 320.837 131.972 320.246C131.972 319.656 132.098 319.127 132.351 318.659C132.612 318.191 132.965 317.827 133.41 317.566C133.862 317.306 134.368 317.175 134.928 317.175C135.488 317.175 135.99 317.306 136.435 317.566C136.879 317.827 137.228 318.191 137.481 318.659C137.734 319.119 137.861 319.648 137.861 320.246L137.85 320.499ZM134.928 317.877C134.345 317.877 133.854 318.065 133.456 318.44C133.065 318.809 132.842 319.292 132.788 319.89H137.079C137.025 319.292 136.799 318.809 136.4 318.44C136.009 318.065 135.518 317.877 134.928 317.877ZM142.199 323.329C141.601 323.329 141.064 323.199 140.589 322.938C140.121 322.677 139.753 322.313 139.485 321.845C139.216 321.37 139.082 320.837 139.082 320.246C139.082 319.656 139.216 319.127 139.485 318.659C139.753 318.191 140.121 317.827 140.589 317.566C141.064 317.306 141.601 317.175 142.199 317.175C142.721 317.175 143.185 317.279 143.591 317.486C144.005 317.685 144.331 317.98 144.569 318.371L143.959 318.786C143.76 318.487 143.507 318.264 143.2 318.118C142.893 317.965 142.56 317.888 142.199 317.888C141.762 317.888 141.367 317.988 141.015 318.187C140.669 318.379 140.397 318.655 140.198 319.016C140.006 319.376 139.91 319.786 139.91 320.246C139.91 320.714 140.006 321.128 140.198 321.489C140.397 321.841 140.669 322.117 141.015 322.317C141.367 322.508 141.762 322.604 142.199 322.604C142.56 322.604 142.893 322.531 143.2 322.386C143.507 322.24 143.76 322.018 143.959 321.719L144.569 322.133C144.331 322.524 144.005 322.823 143.591 323.03C143.177 323.229 142.713 323.329 142.199 323.329Z" fill="#DD54FF"/>
<g id="Group 1328" opacity="0.7">
<circle id="Ellipse 189" cx="67.606" cy="318.172" r="9.777" fill="#F7EAFF" stroke="#C971FF" stroke-width="1.15023"/>
<path id="Arrow 2" d="M67.0304 323.924C67.0304 324.241 67.2878 324.499 67.6055 324.499C67.9231 324.499 68.1806 324.241 68.1806 323.924L67.0304 323.924ZM68.0121 312.015C67.7875 311.79 67.4234 311.79 67.1988 312.015L63.5388 315.675C63.3142 315.899 63.3142 316.264 63.5388 316.488C63.7634 316.713 64.1275 316.713 64.3521 316.488L67.6055 313.235L70.8588 316.488C71.0834 316.713 71.4476 316.713 71.6722 316.488C71.8968 316.264 71.8968 315.899 71.6722 315.675L68.0121 312.015ZM68.1806 323.924L68.1806 312.421L67.0304 312.421L67.0304 323.924L68.1806 323.924Z" fill="#C971FF"/>
</g>
</g>
</g>
<g id="7-2">
<g id="Rectangle 222" filter="url(#filter1_d_1123_3415)">
<rect x="157.324" y="35.2168" width="277.207" height="193.239" rx="11.5023" fill="url(#paint3_linear_1123_3415)"/>
</g>
<g id="Group 1332">
<g id="Frame 1332" clip-path="url(#clip0_1123_3415)">
<path id="Ellipse 190" d="M188.637 200.769C187.226 200.769 186.079 199.625 186.112 198.215C186.427 184.66 189.25 171.273 194.444 158.733C199.964 145.405 208.056 133.296 218.256 123.095C228.456 112.895 240.566 104.804 253.893 99.2835C267.22 93.7632 281.505 90.9219 295.93 90.9219C310.355 90.9219 324.639 93.7632 337.967 99.2835C351.294 104.804 363.404 112.895 373.604 123.095C383.804 133.296 391.895 145.405 397.416 158.733C402.61 171.273 405.432 184.66 405.748 198.215C405.78 199.625 404.634 200.769 403.223 200.769L380.87 200.769C379.459 200.769 378.32 199.625 378.276 198.215C377.967 188.267 375.858 178.45 372.044 169.242C367.904 159.246 361.836 150.164 354.185 142.514C346.535 134.864 337.453 128.795 327.458 124.655C317.462 120.515 306.749 118.384 295.93 118.384C285.111 118.384 274.398 120.515 264.402 124.655C254.407 128.795 245.325 134.864 237.675 142.514C230.024 150.164 223.956 159.246 219.816 169.242C216.001 178.45 213.893 188.267 213.584 198.215C213.54 199.625 212.401 200.769 210.99 200.769H188.637Z" fill="url(#paint4_linear_1123_3415)" fill-opacity="0.6"/>
<g id="7-2-scale-min">
<path id="Ellipse 192" d="M188.315 200.847C187.038 200.847 186 199.812 186.027 198.535V198.535C186.054 197.259 187.134 196.268 188.41 196.322L211.859 197.31C212.815 197.35 213.555 198.158 213.535 199.115V199.115C213.515 200.071 212.741 200.847 211.784 200.847H188.315Z" fill="url(#paint5_linear_1123_3415)"/>
</g>
<g id="7-2-scale-max">
<path id="Ellipse 192_2" d="M188.637 200.769C187.226 200.769 186.079 199.625 186.112 198.215C186.676 173.953 195.262 150.532 210.566 131.635C225.87 112.738 246.996 99.473 270.611 93.8796C271.984 93.5544 273.341 94.4385 273.634 95.8185L278.29 117.735C278.583 119.115 277.701 120.467 276.331 120.803C258.882 125.08 243.284 134.955 231.948 148.952C220.612 162.949 214.194 180.258 213.637 198.215C213.593 199.625 212.453 200.769 211.043 200.769H188.637Z" fill="url(#paint6_linear_1123_3415)"/>
</g>
<path id="&#208;&#148;&#208;&#190;&#208;&#191;&#209;&#128;&#208;&#190;&#208;&#180;&#208;&#176;&#208;&#182;&#208;&#184;" d="M254.15 77.7284V81.7956H252.88V78.9062H241.635L241.617 81.7956H240.347L240.365 77.7284H241.01C241.856 77.6793 242.445 77.0107 242.776 75.7224C243.108 74.4219 243.31 72.5815 243.384 70.2013L243.531 66.0236H252.217V77.7284H254.15ZM244.598 70.3301C244.537 72.2932 244.384 73.9127 244.138 75.1887C243.905 76.4524 243.506 77.299 242.942 77.7284H250.874V67.2015H244.709L244.598 70.3301ZM260.339 78.9983C259.406 78.9983 258.566 78.7897 257.818 78.3725C257.069 77.9431 256.48 77.3542 256.051 76.6058C255.621 75.8574 255.407 75.0108 255.407 74.0661C255.407 73.1213 255.621 72.2748 256.051 71.5263C256.48 70.7779 257.069 70.1951 257.818 69.778C258.566 69.3608 259.406 69.1523 260.339 69.1523C261.271 69.1523 262.112 69.3608 262.86 69.778C263.609 70.1951 264.191 70.7779 264.609 71.5263C265.038 72.2748 265.253 73.1213 265.253 74.0661C265.253 75.0108 265.038 75.8574 264.609 76.6058C264.191 77.3542 263.609 77.9431 262.86 78.3725C262.112 78.7897 261.271 78.9983 260.339 78.9983ZM260.339 77.8388C261.026 77.8388 261.639 77.6855 262.179 77.3787C262.731 77.0597 263.161 76.6119 263.468 76.0353C263.774 75.4586 263.928 74.8022 263.928 74.0661C263.928 73.3299 263.774 72.6735 263.468 72.0969C263.161 71.5202 262.731 71.0785 262.179 70.7718C261.639 70.4528 261.026 70.2933 260.339 70.2933C259.652 70.2933 259.032 70.4528 258.48 70.7718C257.94 71.0785 257.511 71.5202 257.192 72.0969C256.885 72.6735 256.732 73.3299 256.732 74.0661C256.732 74.8022 256.885 75.4586 257.192 76.0353C257.511 76.6119 257.94 77.0597 258.48 77.3787C259.032 77.6855 259.652 77.8388 260.339 77.8388ZM276.732 69.2259V78.9062H275.425V70.3853H269.352V78.9062H268.045V69.2259H276.732ZM285.434 69.1523C286.342 69.1523 287.164 69.3608 287.9 69.778C288.636 70.1829 289.213 70.7595 289.63 71.5079C290.047 72.2564 290.256 73.1091 290.256 74.0661C290.256 75.0353 290.047 75.8942 289.63 76.6426C289.213 77.391 288.636 77.9738 287.9 78.3909C287.176 78.7958 286.354 78.9983 285.434 78.9983C284.649 78.9983 283.937 78.8388 283.299 78.5198C282.673 78.1885 282.158 77.71 281.753 77.0843V82.4766H280.446V69.2259H281.698V71.1399C282.09 70.5019 282.606 70.0111 283.244 69.6676C283.894 69.324 284.624 69.1523 285.434 69.1523ZM285.342 77.8388C286.017 77.8388 286.63 77.6855 287.182 77.3787C287.734 77.0597 288.164 76.6119 288.47 76.0353C288.789 75.4586 288.949 74.8022 288.949 74.0661C288.949 73.3299 288.789 72.6796 288.47 72.1153C288.164 71.5386 287.734 71.0908 287.182 70.7718C286.63 70.4528 286.017 70.2933 285.342 70.2933C284.655 70.2933 284.035 70.4528 283.483 70.7718C282.943 71.0908 282.514 71.5386 282.195 72.1153C281.888 72.6796 281.735 73.3299 281.735 74.0661C281.735 74.8022 281.888 75.4586 282.195 76.0353C282.514 76.6119 282.943 77.0597 283.483 77.3787C284.035 77.6855 284.655 77.8388 285.342 77.8388ZM297.057 78.9983C296.124 78.9983 295.284 78.7897 294.535 78.3725C293.787 77.9431 293.198 77.3542 292.768 76.6058C292.339 75.8574 292.124 75.0108 292.124 74.0661C292.124 73.1213 292.339 72.2748 292.768 71.5263C293.198 70.7779 293.787 70.1951 294.535 69.778C295.284 69.3608 296.124 69.1523 297.057 69.1523C297.989 69.1523 298.829 69.3608 299.578 69.778C300.326 70.1951 300.909 70.7779 301.326 71.5263C301.756 72.2748 301.97 73.1213 301.97 74.0661C301.97 75.0108 301.756 75.8574 301.326 76.6058C300.909 77.3542 300.326 77.9431 299.578 78.3725C298.829 78.7897 297.989 78.9983 297.057 78.9983ZM297.057 77.8388C297.744 77.8388 298.357 77.6855 298.897 77.3787C299.449 77.0597 299.878 76.6119 300.185 76.0353C300.492 75.4586 300.645 74.8022 300.645 74.0661C300.645 73.3299 300.492 72.6735 300.185 72.0969C299.878 71.5202 299.449 71.0785 298.897 70.7718C298.357 70.4528 297.744 70.2933 297.057 70.2933C296.369 70.2933 295.75 70.4528 295.198 70.7718C294.658 71.0785 294.229 71.5202 293.91 72.0969C293.603 72.6735 293.449 73.3299 293.449 74.0661C293.449 74.8022 293.603 75.4586 293.91 76.0353C294.229 76.6119 294.658 77.0597 295.198 77.3787C295.75 77.6855 296.369 77.8388 297.057 77.8388ZM314.15 77.7652V81.2435H312.917V78.9062H304.249V81.2435H303.016V77.7652H303.568C304.218 77.7284 304.66 77.2499 304.893 76.3297C305.126 75.4095 305.286 74.1213 305.372 72.4649L305.5 69.2259H312.641V77.7652H314.15ZM306.568 72.5385C306.507 73.9127 306.39 75.0476 306.218 75.9432C306.046 76.8266 305.74 77.4339 305.298 77.7652H311.334V70.3853H306.678L306.568 72.5385ZM320.028 69.1523C321.291 69.1523 322.261 69.4713 322.936 70.1093C323.61 70.735 323.948 71.6674 323.948 72.9066V78.9062H322.696V77.3971C322.402 77.9002 321.966 78.2928 321.39 78.575C320.825 78.8572 320.15 78.9983 319.365 78.9983C318.286 78.9983 317.427 78.7406 316.789 78.2253C316.151 77.71 315.832 77.0291 315.832 76.1825C315.832 75.3605 316.126 74.6979 316.715 74.1949C317.316 73.6919 318.267 73.4403 319.568 73.4403H322.641V72.8514C322.641 72.0171 322.408 71.3852 321.942 70.9558C321.476 70.5141 320.795 70.2933 319.899 70.2933C319.285 70.2933 318.697 70.3976 318.132 70.6062C317.568 70.8025 317.083 71.0785 316.678 71.4343L316.089 70.4589C316.58 70.0418 317.169 69.7228 317.856 69.5019C318.543 69.2688 319.267 69.1523 320.028 69.1523ZM319.568 77.9677C320.304 77.9677 320.936 77.802 321.463 77.4708C321.991 77.1272 322.383 76.6365 322.641 75.9985V74.4157H319.604C317.948 74.4157 317.12 74.9924 317.12 76.1457C317.12 76.7101 317.335 77.1579 317.764 77.4892C318.194 77.8082 318.795 77.9677 319.568 77.9677ZM335.91 74.5998H333.812V78.9062H332.506V74.5998H330.408L327.445 78.9062H325.88L329.359 73.9188L326.156 69.2259H327.573L330.408 73.4771H332.506V69.2259H333.812V73.4771H335.91L338.763 69.2259H340.18L336.978 73.9372L340.456 78.9062H338.892L335.91 74.5998ZM342.631 69.2259H343.938V76.9186L350.397 69.2259H351.557V78.9062H350.25V71.2135L343.809 78.9062H342.631V69.2259Z" fill="#565656"/>
<g id="7-2-price-max">
<path id="43%" d="M288.305 182.406H283.209V188.941H278.029V182.406H262.245V178.706L276.426 160.168H282.14L268.781 177.884H278.194V172.089H283.209V177.884H288.305V182.406ZM302.402 172.047C305.06 172.376 307.088 173.281 308.486 174.76C309.883 176.24 310.582 178.09 310.582 180.309C310.582 181.981 310.157 183.502 309.308 184.872C308.458 186.242 307.17 187.338 305.444 188.16C303.745 188.955 301.662 189.352 299.196 189.352C297.141 189.352 295.154 189.065 293.236 188.489C291.345 187.886 289.728 187.064 288.385 186.023L290.687 181.871C291.729 182.748 292.989 183.447 294.469 183.968C295.976 184.461 297.524 184.708 299.114 184.708C301.005 184.708 302.484 184.324 303.553 183.557C304.649 182.762 305.197 181.693 305.197 180.351C305.197 179.008 304.677 177.966 303.635 177.227C302.621 176.459 301.059 176.076 298.949 176.076H296.319V172.417L302.854 164.649H289.783V160.168H309.39V163.744L302.402 172.047ZM318.141 179.458C316.672 179.458 315.488 178.939 314.588 177.902C313.688 176.865 313.237 175.504 313.237 173.821C313.237 172.137 313.688 170.777 314.588 169.74C315.488 168.702 316.672 168.184 318.141 168.184C319.609 168.184 320.793 168.702 321.693 169.74C322.613 170.758 323.073 172.118 323.073 173.821C323.073 175.524 322.613 176.894 321.693 177.931C320.793 178.949 319.609 179.458 318.141 179.458ZM330.472 168.389H333.349L319.315 188.941H316.438L330.472 168.389ZM318.141 177.403C318.943 177.403 319.56 177.09 319.99 176.463C320.44 175.837 320.666 174.956 320.666 173.821C320.666 172.686 320.44 171.805 319.99 171.178C319.56 170.552 318.943 170.239 318.141 170.239C317.377 170.239 316.761 170.562 316.291 171.208C315.841 171.834 315.616 172.705 315.616 173.821C315.616 174.937 315.841 175.817 316.291 176.463C316.761 177.09 317.377 177.403 318.141 177.403ZM331.617 189.147C330.149 189.147 328.965 188.628 328.064 187.591C327.164 186.553 326.714 185.193 326.714 183.51C326.714 181.826 327.164 180.466 328.064 179.429C328.965 178.391 330.149 177.873 331.617 177.873C333.085 177.873 334.269 178.391 335.17 179.429C336.089 180.466 336.549 181.826 336.549 183.51C336.549 185.193 336.089 186.553 335.17 187.591C334.269 188.628 333.085 189.147 331.617 189.147ZM331.617 187.092C332.4 187.092 333.016 186.779 333.467 186.152C333.917 185.506 334.142 184.625 334.142 183.51C334.142 182.394 333.917 181.523 333.467 180.897C333.016 180.251 332.4 179.928 331.617 179.928C330.834 179.928 330.217 180.241 329.767 180.867C329.317 181.494 329.092 182.374 329.092 183.51C329.092 184.645 329.317 185.526 329.767 186.152C330.217 186.779 330.834 187.092 331.617 187.092Z" fill="url(#paint7_linear_1123_3415)" fill-opacity="0.8"/>
</g>
<g id="7-2-price-min">
<path id="0%" d="M298.852 189.411C296.551 189.411 294.495 188.836 292.687 187.685C290.878 186.506 289.453 184.807 288.412 182.588C287.371 180.341 286.85 177.683 286.85 174.613C286.85 171.544 287.371 168.9 288.412 166.68C289.453 164.433 290.878 162.734 292.687 161.583C294.495 160.405 296.551 159.816 298.852 159.816C301.154 159.816 303.209 160.405 305.018 161.583C306.854 162.734 308.293 164.433 309.334 166.68C310.375 168.9 310.896 171.544 310.896 174.613C310.896 177.683 310.375 180.341 309.334 182.588C308.293 184.807 306.854 186.506 305.018 187.685C303.209 188.836 301.154 189.411 298.852 189.411ZM298.852 184.766C300.908 184.766 302.524 183.917 303.703 182.218C304.908 180.519 305.511 177.984 305.511 174.613C305.511 171.243 304.908 168.708 303.703 167.009C302.524 165.31 300.908 164.461 298.852 164.461C296.825 164.461 295.208 165.31 294.002 167.009C292.824 168.708 292.235 171.243 292.235 174.613C292.235 177.984 292.824 180.519 294.002 182.218C295.208 183.917 296.825 184.766 298.852 184.766ZM318.571 179.517C317.103 179.517 315.918 178.998 315.018 177.961C314.118 176.923 313.667 175.563 313.667 173.879C313.667 172.196 314.118 170.836 315.018 169.798C315.918 168.761 317.103 168.242 318.571 168.242C320.039 168.242 321.223 168.761 322.123 169.798C323.043 170.816 323.503 172.177 323.503 173.879C323.503 175.582 323.043 176.952 322.123 177.99C321.223 179.008 320.039 179.517 318.571 179.517ZM330.902 168.448H333.779L319.745 189H316.868L330.902 168.448ZM318.571 177.461C319.373 177.461 319.99 177.148 320.42 176.522C320.87 175.895 321.096 175.015 321.096 173.879C321.096 172.744 320.87 171.863 320.42 171.237C319.99 170.611 319.373 170.297 318.571 170.297C317.807 170.297 317.191 170.62 316.721 171.266C316.271 171.893 316.046 172.764 316.046 173.879C316.046 174.995 316.271 175.876 316.721 176.522C317.191 177.148 317.807 177.461 318.571 177.461ZM332.047 189.206C330.579 189.206 329.395 188.687 328.494 187.649C327.594 186.612 327.144 185.252 327.144 183.568C327.144 181.885 327.594 180.525 328.494 179.487C329.395 178.45 330.579 177.931 332.047 177.931C333.515 177.931 334.699 178.45 335.6 179.487C336.52 180.525 336.98 181.885 336.98 183.568C336.98 185.252 336.52 186.612 335.6 187.649C334.699 188.687 333.515 189.206 332.047 189.206ZM332.047 187.15C332.83 187.15 333.446 186.837 333.897 186.211C334.347 185.565 334.572 184.684 334.572 183.568C334.572 182.453 334.347 181.582 333.897 180.955C333.446 180.309 332.83 179.986 332.047 179.986C331.264 179.986 330.647 180.3 330.197 180.926C329.747 181.552 329.522 182.433 329.522 183.568C329.522 184.704 329.747 185.584 330.197 186.211C330.647 186.837 331.264 187.15 332.047 187.15Z" fill="url(#paint8_linear_1123_3415)" fill-opacity="0.8"/>
</g>
</g>
</g>
</g>
<g id="7-3">
<g id="Rectangle 331" filter="url(#filter2_d_1123_3415)">
<rect x="270.047" y="190.498" width="259.953" height="178.286" rx="11.5023" fill="white"/>
<rect x="270.047" y="190.498" width="259.953" height="178.286" rx="11.5023" fill="url(#paint9_linear_1123_3415)" fill-opacity="0.6"/>
</g>
<g id="Group 990">
<g id="Group 999">
<path id="0kk" opacity="0.5" d="M282.379 342.893C283.641 342.893 284.272 341.695 284.272 339.299C284.272 337.857 284.06 336.85 283.636 336.277C283.328 335.874 282.91 335.673 282.379 335.673C281.256 335.673 280.635 336.606 280.519 338.472C280.508 338.726 280.503 338.997 280.503 339.283C280.503 339.559 280.508 339.829 280.519 340.094C280.54 340.349 280.572 340.608 280.614 340.874C280.656 341.139 280.72 341.393 280.805 341.637C280.89 341.87 281.001 342.077 281.139 342.257C281.446 342.681 281.86 342.893 282.379 342.893ZM282.379 334.798C284.394 334.798 285.401 336.298 285.401 339.299C285.401 340.158 285.338 340.815 285.21 341.271C285.083 341.727 284.945 342.098 284.797 342.384C284.648 342.66 284.463 342.899 284.24 343.1C283.763 343.535 283.143 343.752 282.379 343.752C281.277 343.752 280.476 343.296 279.978 342.384C279.575 341.653 279.374 340.624 279.374 339.299C279.374 338.43 279.432 337.762 279.548 337.295C279.676 336.829 279.814 336.457 279.962 336.182C280.121 335.896 280.312 335.652 280.535 335.45C281.012 335.015 281.627 334.798 282.379 334.798ZM287.958 340.349V343.132C287.958 343.291 287.905 343.413 287.799 343.498C287.693 343.583 287.577 343.625 287.449 343.625C287.333 343.625 287.221 343.588 287.115 343.514C287.02 343.429 286.972 343.302 286.972 343.132V335.371C286.972 335.212 287.025 335.09 287.131 335.005C287.237 334.92 287.333 334.878 287.418 334.878C287.513 334.878 287.587 334.888 287.64 334.909C287.704 334.931 287.757 334.962 287.799 335.005C287.905 335.111 287.958 335.233 287.958 335.371V340.015L290.726 337.693C290.821 337.597 290.927 337.55 291.044 337.55C291.16 337.55 291.261 337.587 291.346 337.661C291.431 337.735 291.473 337.809 291.473 337.884C291.473 338.032 291.431 338.138 291.346 338.202L288.976 340.174L291.648 342.941C291.722 343.037 291.759 343.116 291.759 343.18C291.759 343.243 291.744 343.302 291.712 343.355C291.69 343.408 291.659 343.455 291.616 343.498C291.51 343.583 291.399 343.625 291.282 343.625C291.176 343.625 291.07 343.572 290.964 343.466L287.958 340.349ZM294.032 340.349V343.132C294.032 343.291 293.979 343.413 293.873 343.498C293.767 343.583 293.65 343.625 293.523 343.625C293.406 343.625 293.295 343.588 293.189 343.514C293.094 343.429 293.046 343.302 293.046 343.132V335.371C293.046 335.212 293.099 335.09 293.205 335.005C293.311 334.92 293.406 334.878 293.491 334.878C293.587 334.878 293.661 334.888 293.714 334.909C293.777 334.931 293.83 334.962 293.873 335.005C293.979 335.111 294.032 335.233 294.032 335.371V340.015L296.799 337.693C296.895 337.597 297.001 337.55 297.117 337.55C297.234 337.55 297.335 337.587 297.42 337.661C297.504 337.735 297.547 337.809 297.547 337.884C297.547 338.032 297.504 338.138 297.42 338.202L295.05 340.174L297.722 342.941C297.796 343.037 297.833 343.116 297.833 343.18C297.833 343.243 297.817 343.302 297.785 343.355C297.764 343.408 297.732 343.455 297.69 343.498C297.584 343.583 297.473 343.625 297.356 343.625C297.25 343.625 297.144 343.572 297.038 343.466L294.032 340.349Z" fill="#565656"/>
<line id="Line 127" x1="282.492" y1="348.315" x2="518.051" y2="348.315" stroke="#E2F1EA" stroke-width="1.25644"/>
</g>
<g id="Group 1000">
<path id="2kk" opacity="0.5" d="M282.459 305.912C282.279 305.912 282.109 305.928 281.95 305.959C281.802 305.981 281.658 306.018 281.521 306.071C281.192 306.198 280.948 306.315 280.789 306.421C280.672 306.484 280.556 306.516 280.439 306.516C280.333 306.516 280.238 306.479 280.153 306.405C280.079 306.331 280.042 306.246 280.042 306.15C280.042 306.055 280.079 305.965 280.153 305.88C280.227 305.784 280.328 305.694 280.455 305.61C280.582 305.525 280.725 305.45 280.884 305.387C281.054 305.313 281.229 305.244 281.409 305.18C281.802 305.063 282.167 305.005 282.507 305.005C282.846 305.005 283.169 305.053 283.477 305.148C283.795 305.233 284.071 305.36 284.304 305.53C284.823 305.912 285.083 306.426 285.083 307.073C285.083 308.144 284.261 309.485 282.618 311.096C282.3 311.415 281.966 311.749 281.616 312.098C281.277 312.438 280.98 312.719 280.725 312.941H284.654C284.802 312.941 284.908 312.989 284.972 313.085C285.046 313.18 285.083 313.286 285.083 313.403C285.083 313.509 285.046 313.609 284.972 313.705C284.898 313.79 284.792 313.832 284.654 313.832H280.201C279.946 313.832 279.755 313.779 279.628 313.673C279.511 313.567 279.453 313.44 279.453 313.291C279.453 313.005 279.591 312.745 279.867 312.512C280.068 312.332 280.323 312.077 280.63 311.749C280.937 311.42 281.24 311.107 281.537 310.81C281.833 310.513 282.125 310.201 282.411 309.872C282.708 309.533 282.973 309.204 283.206 308.886C283.715 308.197 283.97 307.624 283.97 307.168C283.97 306.765 283.811 306.452 283.493 306.23C283.196 306.018 282.851 305.912 282.459 305.912ZM287.958 310.556V313.339C287.958 313.498 287.905 313.62 287.799 313.705C287.693 313.79 287.577 313.832 287.449 313.832C287.333 313.832 287.221 313.795 287.115 313.721C287.02 313.636 286.972 313.509 286.972 313.339V305.578C286.972 305.419 287.025 305.297 287.131 305.212C287.237 305.127 287.333 305.085 287.418 305.085C287.513 305.085 287.587 305.095 287.64 305.116C287.704 305.138 287.757 305.169 287.799 305.212C287.905 305.318 287.958 305.44 287.958 305.578V310.222L290.726 307.9C290.821 307.804 290.927 307.757 291.044 307.757C291.16 307.757 291.261 307.794 291.346 307.868C291.431 307.942 291.473 308.016 291.473 308.091C291.473 308.239 291.431 308.345 291.346 308.409L288.976 310.381L291.648 313.148C291.722 313.244 291.759 313.323 291.759 313.387C291.759 313.45 291.744 313.509 291.712 313.562C291.69 313.615 291.659 313.662 291.616 313.705C291.51 313.79 291.399 313.832 291.282 313.832C291.176 313.832 291.07 313.779 290.964 313.673L287.958 310.556ZM294.032 310.556V313.339C294.032 313.498 293.979 313.62 293.873 313.705C293.767 313.79 293.65 313.832 293.523 313.832C293.406 313.832 293.295 313.795 293.189 313.721C293.094 313.636 293.046 313.509 293.046 313.339V305.578C293.046 305.419 293.099 305.297 293.205 305.212C293.311 305.127 293.406 305.085 293.491 305.085C293.587 305.085 293.661 305.095 293.714 305.116C293.777 305.138 293.83 305.169 293.873 305.212C293.979 305.318 294.032 305.44 294.032 305.578V310.222L296.799 307.9C296.895 307.804 297.001 307.757 297.117 307.757C297.234 307.757 297.335 307.794 297.42 307.868C297.504 307.942 297.547 308.016 297.547 308.091C297.547 308.239 297.504 308.345 297.42 308.409L295.05 310.381L297.722 313.148C297.796 313.244 297.833 313.323 297.833 313.387C297.833 313.45 297.817 313.509 297.785 313.562C297.764 313.615 297.732 313.662 297.69 313.705C297.584 313.79 297.473 313.832 297.356 313.832C297.25 313.832 297.144 313.779 297.038 313.673L294.032 310.556Z" fill="#565656"/>
<line id="Line 128" x1="282.492" y1="318.772" x2="518.051" y2="318.772" stroke="#E2F1EA" stroke-width="1.25644"/>
</g>
<g id="Group 1001">
<path id="4kk" opacity="0.5" d="M282.586 275.783C282.777 275.454 283.069 275.29 283.461 275.29C283.8 275.29 284.034 275.428 284.161 275.703C284.203 275.799 284.224 275.91 284.224 276.037V281.286H285.163C285.301 281.286 285.401 281.328 285.465 281.413C285.539 281.498 285.576 281.593 285.576 281.699C285.576 281.805 285.539 281.901 285.465 281.985C285.401 282.06 285.301 282.097 285.163 282.097H284.224V283.544C284.224 283.693 284.187 283.799 284.113 283.862C283.986 283.979 283.848 284.037 283.7 284.037C283.477 284.037 283.313 283.942 283.206 283.751C283.175 283.698 283.159 283.629 283.159 283.544V282.097H279.628C279.448 282.097 279.305 282.038 279.199 281.922C279.093 281.805 279.04 281.694 279.04 281.588C279.04 281.397 279.077 281.243 279.151 281.127L282.586 275.783ZM279.978 281.286H283.159V276.292L279.978 281.286ZM287.958 280.761V283.544C287.958 283.703 287.905 283.825 287.799 283.91C287.693 283.995 287.577 284.037 287.449 284.037C287.333 284.037 287.221 284 287.115 283.926C287.02 283.841 286.972 283.714 286.972 283.544V275.783C286.972 275.624 287.025 275.502 287.131 275.417C287.237 275.332 287.333 275.29 287.418 275.29C287.513 275.29 287.587 275.3 287.64 275.322C287.704 275.343 287.757 275.375 287.799 275.417C287.905 275.523 287.958 275.645 287.958 275.783V280.427L290.726 278.105C290.821 278.009 290.927 277.962 291.044 277.962C291.16 277.962 291.261 277.999 291.346 278.073C291.431 278.147 291.473 278.221 291.473 278.296C291.473 278.444 291.431 278.55 291.346 278.614L288.976 280.586L291.648 283.353C291.722 283.449 291.759 283.528 291.759 283.592C291.759 283.655 291.744 283.714 291.712 283.767C291.69 283.82 291.659 283.867 291.616 283.91C291.51 283.995 291.399 284.037 291.282 284.037C291.176 284.037 291.07 283.984 290.964 283.878L287.958 280.761ZM294.032 280.761V283.544C294.032 283.703 293.979 283.825 293.873 283.91C293.767 283.995 293.65 284.037 293.523 284.037C293.406 284.037 293.295 284 293.189 283.926C293.094 283.841 293.046 283.714 293.046 283.544V275.783C293.046 275.624 293.099 275.502 293.205 275.417C293.311 275.332 293.406 275.29 293.491 275.29C293.587 275.29 293.661 275.3 293.714 275.322C293.777 275.343 293.83 275.375 293.873 275.417C293.979 275.523 294.032 275.645 294.032 275.783V280.427L296.799 278.105C296.895 278.009 297.001 277.962 297.117 277.962C297.234 277.962 297.335 277.999 297.42 278.073C297.504 278.147 297.547 278.221 297.547 278.296C297.547 278.444 297.504 278.55 297.42 278.614L295.05 280.586L297.722 283.353C297.796 283.449 297.833 283.528 297.833 283.592C297.833 283.655 297.817 283.714 297.785 283.767C297.764 283.82 297.732 283.867 297.69 283.91C297.584 283.995 297.473 284.037 297.356 284.037C297.25 284.037 297.144 283.984 297.038 283.878L294.032 280.761Z" fill="#565656"/>
<line id="Line 129" x1="282.492" y1="289.229" x2="518.051" y2="289.229" stroke="#E2F1EA" stroke-width="1.25644"/>
</g>
<g id="Group 1002">
<path id="6kk" opacity="0.5" d="M280.614 246.165C280.879 245.931 281.197 245.751 281.568 245.624C281.939 245.486 282.427 245.417 283.032 245.417C283.636 245.417 284.214 245.566 284.765 245.863C284.892 245.916 284.956 246.027 284.956 246.197C284.956 246.377 284.876 246.52 284.717 246.626C284.664 246.658 284.611 246.674 284.558 246.674C284.516 246.674 284.421 246.642 284.272 246.578C283.827 246.398 283.403 246.308 283 246.308C282.597 246.308 282.263 246.361 281.998 246.467C281.733 246.573 281.51 246.716 281.33 246.896C281.15 247.066 281.001 247.267 280.884 247.501C280.768 247.734 280.678 247.983 280.614 248.248C280.519 248.704 280.471 249.245 280.471 249.87C280.683 249.436 280.985 249.112 281.377 248.9C281.77 248.678 282.199 248.566 282.666 248.566C283.132 248.566 283.53 248.635 283.859 248.773C284.198 248.911 284.484 249.102 284.717 249.346C285.195 249.844 285.433 250.528 285.433 251.397C285.433 252.288 285.179 253.004 284.67 253.544C284.161 254.096 283.456 254.371 282.554 254.371C280.413 254.371 279.342 252.988 279.342 250.22C279.342 248.259 279.766 246.907 280.614 246.165ZM282.491 253.513C282.766 253.513 283.021 253.465 283.254 253.369C283.487 253.274 283.689 253.141 283.859 252.972C284.177 252.622 284.336 252.113 284.336 251.445C284.336 250.48 284.018 249.833 283.381 249.505C283.169 249.399 282.904 249.346 282.586 249.346C282.279 249.346 281.998 249.399 281.743 249.505C281.499 249.611 281.293 249.759 281.123 249.95C280.784 250.31 280.614 250.83 280.614 251.509C280.614 252.102 280.784 252.579 281.123 252.94C281.484 253.322 281.939 253.513 282.491 253.513ZM287.958 250.968V253.751C287.958 253.91 287.905 254.032 287.799 254.117C287.693 254.202 287.577 254.244 287.449 254.244C287.333 254.244 287.221 254.207 287.115 254.133C287.02 254.048 286.972 253.921 286.972 253.751V245.99C286.972 245.831 287.025 245.709 287.131 245.624C287.237 245.539 287.333 245.497 287.418 245.497C287.513 245.497 287.587 245.507 287.64 245.529C287.704 245.55 287.757 245.582 287.799 245.624C287.905 245.73 287.958 245.852 287.958 245.99V250.634L290.726 248.312C290.821 248.216 290.927 248.169 291.044 248.169C291.16 248.169 291.261 248.206 291.346 248.28C291.431 248.354 291.473 248.428 291.473 248.503C291.473 248.651 291.431 248.757 291.346 248.821L288.976 250.793L291.648 253.56C291.722 253.656 291.759 253.735 291.759 253.799C291.759 253.862 291.744 253.921 291.712 253.974C291.69 254.027 291.659 254.074 291.616 254.117C291.51 254.202 291.399 254.244 291.282 254.244C291.176 254.244 291.07 254.191 290.964 254.085L287.958 250.968ZM294.032 250.968V253.751C294.032 253.91 293.979 254.032 293.873 254.117C293.767 254.202 293.65 254.244 293.523 254.244C293.406 254.244 293.295 254.207 293.189 254.133C293.094 254.048 293.046 253.921 293.046 253.751V245.99C293.046 245.831 293.099 245.709 293.205 245.624C293.311 245.539 293.406 245.497 293.491 245.497C293.587 245.497 293.661 245.507 293.714 245.529C293.777 245.55 293.83 245.582 293.873 245.624C293.979 245.73 294.032 245.852 294.032 245.99V250.634L296.799 248.312C296.895 248.216 297.001 248.169 297.117 248.169C297.234 248.169 297.335 248.206 297.42 248.28C297.504 248.354 297.547 248.428 297.547 248.503C297.547 248.651 297.504 248.757 297.42 248.821L295.05 250.793L297.722 253.56C297.796 253.656 297.833 253.735 297.833 253.799C297.833 253.862 297.817 253.921 297.785 253.974C297.764 254.027 297.732 254.074 297.69 254.117C297.584 254.202 297.473 254.244 297.356 254.244C297.25 254.244 297.144 254.191 297.038 254.085L294.032 250.968Z" fill="#565656"/>
<line id="Line 130" x1="282.492" y1="258.909" x2="518.051" y2="258.909" stroke="#E2F1EA" stroke-width="1.25644"/>
</g>
</g>
<g id="7-3-scale-min">
<rect id="Rectangle 320" x="304.5" y="344.5" width="7" height="7" rx="3.5" fill="#00B76A"/>
<rect id="Rectangle 321" x="322.301" y="344.5" width="7" height="7" rx="3.5" fill="#00B76A"/>
<rect id="Rectangle 322" x="340.699" y="344.5" width="7" height="7" rx="3.5" fill="#00B76A"/>
<rect id="Rectangle 323" x="359.199" y="344.5" width="7" height="7" rx="3.5" fill="#00B76A"/>
<rect id="Rectangle 324" x="377" y="344.5" width="7" height="7" rx="3.5" fill="#00B76A"/>
<rect id="Rectangle 325" x="395.5" y="344.5" width="7" height="7" rx="3.5" fill="#00B76A"/>
<rect id="Rectangle 326" x="414.5" y="344.5" width="7" height="7" rx="3.5" fill="#00B76A"/>
<rect id="Rectangle 327" width="7.04659" height="7" rx="3.5" transform="matrix(0.999999 0.00144083 -0.00201295 0.999998 432.699 344.5)" fill="#00B76A"/>
<rect id="Rectangle 332" width="7.04659" height="7" rx="3.5" transform="matrix(0.999999 0.00144083 -0.00201295 0.999998 451.221 344.5)" fill="#00B76A"/>
<rect id="Rectangle 328" x="469.5" y="344.5" width="7" height="7" rx="3.5" fill="#00B76A"/>
<rect id="Rectangle 329" x="488" y="344.5" width="7" height="7" rx="3.5" fill="#00B76A"/>
<rect id="Rectangle 330" x="507" y="344.5" width="7" height="7" rx="3.5" fill="#00B76A"/>
</g>
<g id="7-3-scale-max">
<rect id="Rectangle 320_2" x="304.555" y="304.371" width="6.90141" height="47.1596" rx="3.4507" fill="#00B76A"/>
<rect id="Rectangle 321_2" x="321.809" y="303.221" width="8.05164" height="48.3099" rx="4.02582" fill="#00B76A"/>
<rect id="Rectangle 322_2" x="340.211" y="298.621" width="8.05164" height="52.9108" rx="4.02582" fill="#00B76A"/>
<rect id="Rectangle 323_2" x="358.613" y="295.17" width="8.05164" height="56.3615" rx="4.02582" fill="#00B76A"/>
<rect id="Rectangle 324_2" x="377.02" y="289.418" width="6.90141" height="62.1127" rx="3.4507" fill="#00B76A"/>
<rect id="Rectangle 325_2" x="395.422" y="272.164" width="6.90141" height="79.3662" rx="3.4507" fill="#00B76A"/>
<rect id="Rectangle 326_2" x="413.828" y="268.715" width="8.05164" height="82.8169" rx="4.02582" fill="#00B76A"/>
<rect id="Rectangle 327_2" width="7.53863" height="71.074" rx="3.76932" transform="matrix(0.999999 0.00145042 -0.00199964 0.999998 432.504 280.582)" fill="#00B76A"/>
<rect id="Rectangle 332_2" width="7.53863" height="63.5664" rx="3.76932" transform="matrix(0.999999 0.00145042 -0.00199964 0.999998 450.992 288.09)" fill="#00B76A"/>
<rect id="Rectangle 328_2" x="469.039" y="280.217" width="8.05164" height="71.3146" rx="4.02582" fill="#00B76A"/>
<rect id="Rectangle 329_2" x="487.441" y="258.361" width="8.05164" height="93.169" rx="4.02582" fill="#00B76A"/>
<rect id="Rectangle 330_2" x="506.996" y="243.41" width="6.90141" height="108.122" rx="3.4507" fill="#00B76A"/>
</g>
<path id="&#208;&#161;&#209;&#128;&#208;&#181;&#208;&#180;&#208;&#189;&#208;&#184;&#208;&#185; &#209;&#135;&#208;&#181;&#208;&#186;" d="M289.514 218.96C288.238 218.96 287.085 218.678 286.054 218.113C285.036 217.549 284.232 216.77 283.643 215.776C283.067 214.77 282.778 213.647 282.778 212.408C282.778 211.169 283.067 210.053 283.643 209.059C284.232 208.053 285.042 207.268 286.073 206.703C287.103 206.139 288.257 205.857 289.533 205.857C290.49 205.857 291.373 206.016 292.183 206.335C292.992 206.654 293.68 207.12 294.244 207.734L293.379 208.599C292.373 207.58 291.103 207.071 289.569 207.071C288.551 207.071 287.625 207.304 286.79 207.771C285.956 208.237 285.3 208.875 284.821 209.685C284.355 210.494 284.122 211.402 284.122 212.408C284.122 213.414 284.355 214.322 284.821 215.132C285.3 215.942 285.956 216.58 286.79 217.046C287.625 217.512 288.551 217.745 289.569 217.745C291.115 217.745 292.385 217.23 293.379 216.199L294.244 217.064C293.68 217.678 292.986 218.15 292.164 218.482C291.355 218.801 290.471 218.96 289.514 218.96ZM301.731 209.096C302.639 209.096 303.461 209.304 304.197 209.721C304.933 210.126 305.51 210.703 305.927 211.451C306.344 212.2 306.553 213.052 306.553 214.009C306.553 214.979 306.344 215.838 305.927 216.586C305.51 217.334 304.933 217.917 304.197 218.334C303.473 218.739 302.651 218.942 301.731 218.942C300.946 218.942 300.234 218.782 299.596 218.463C298.97 218.132 298.455 217.653 298.05 217.028V222.42H296.744V209.169H297.995V211.083C298.388 210.445 298.903 209.954 299.541 209.611C300.191 209.267 300.921 209.096 301.731 209.096ZM301.639 217.782C302.314 217.782 302.927 217.629 303.479 217.322C304.031 217.003 304.461 216.555 304.768 215.979C305.087 215.402 305.246 214.746 305.246 214.009C305.246 213.273 305.087 212.623 304.768 212.059C304.461 211.482 304.031 211.034 303.479 210.715C302.927 210.396 302.314 210.237 301.639 210.237C300.952 210.237 300.332 210.396 299.78 210.715C299.24 211.034 298.811 211.482 298.492 212.059C298.185 212.623 298.032 213.273 298.032 214.009C298.032 214.746 298.185 215.402 298.492 215.979C298.811 216.555 299.24 217.003 299.78 217.322C300.332 217.629 300.952 217.782 301.639 217.782ZM317.826 214.414H309.728C309.802 215.42 310.188 216.236 310.888 216.862C311.587 217.475 312.47 217.782 313.538 217.782C314.139 217.782 314.691 217.678 315.194 217.469C315.697 217.248 316.133 216.929 316.501 216.512L317.237 217.359C316.808 217.874 316.268 218.267 315.617 218.537C314.979 218.807 314.274 218.942 313.501 218.942C312.507 218.942 311.624 218.733 310.851 218.316C310.09 217.886 309.495 217.298 309.066 216.549C308.636 215.801 308.422 214.954 308.422 214.009C308.422 213.065 308.624 212.218 309.029 211.47C309.446 210.721 310.01 210.138 310.722 209.721C311.446 209.304 312.256 209.096 313.151 209.096C314.047 209.096 314.851 209.304 315.562 209.721C316.274 210.138 316.832 210.721 317.237 211.47C317.642 212.206 317.844 213.052 317.844 214.009L317.826 214.414ZM313.151 210.218C312.219 210.218 311.434 210.519 310.796 211.12C310.17 211.709 309.814 212.482 309.728 213.439H316.593C316.507 212.482 316.145 211.709 315.507 211.12C314.881 210.519 314.096 210.218 313.151 210.218ZM329.98 217.709V221.187H328.747V218.85H320.079V221.187H318.846V217.709H319.398C320.048 217.672 320.49 217.193 320.723 216.273C320.956 215.353 321.116 214.065 321.202 212.408L321.33 209.169H328.471V217.709H329.98ZM322.398 212.482C322.336 213.856 322.22 214.991 322.048 215.887C321.876 216.77 321.57 217.377 321.128 217.709H327.164V210.329H322.508L322.398 212.482ZM332.527 209.169H333.833V213.457H339.925V209.169H341.232V218.85H339.925V214.58H333.833V218.85H332.527V209.169ZM344.946 209.169H346.252V216.862L352.712 209.169H353.871V218.85H352.565V211.157L346.123 218.85H344.946V209.169ZM357.616 209.169H358.923V216.862L365.382 209.169H366.542V218.85H365.235V211.157L358.794 218.85H357.616V209.169ZM362.015 207.771C361.18 207.771 360.518 207.562 360.027 207.145C359.536 206.728 359.285 206.139 359.272 205.378H360.211C360.223 205.857 360.395 206.243 360.726 206.537C361.058 206.82 361.487 206.961 362.015 206.961C362.542 206.961 362.972 206.82 363.303 206.537C363.646 206.243 363.824 205.857 363.837 205.378H364.775C364.763 206.139 364.505 206.728 364.002 207.145C363.511 207.562 362.849 207.771 362.015 207.771ZM382.41 209.169V218.85H381.103V214.819C379.986 215.31 378.888 215.555 377.809 215.555C376.643 215.555 375.735 215.292 375.085 214.764C374.435 214.224 374.109 213.421 374.109 212.353V209.169H375.416V212.279C375.416 213.003 375.649 213.555 376.115 213.936C376.582 214.304 377.226 214.488 378.048 214.488C378.956 214.488 379.974 214.249 381.103 213.77V209.169H382.41ZM394.586 214.414H386.488C386.562 215.42 386.949 216.236 387.648 216.862C388.347 217.475 389.231 217.782 390.298 217.782C390.899 217.782 391.451 217.678 391.954 217.469C392.457 217.248 392.893 216.929 393.261 216.512L393.997 217.359C393.568 217.874 393.028 218.267 392.378 218.537C391.74 218.807 391.034 218.942 390.261 218.942C389.267 218.942 388.384 218.733 387.611 218.316C386.85 217.886 386.255 217.298 385.826 216.549C385.396 215.801 385.182 214.954 385.182 214.009C385.182 213.065 385.384 212.218 385.789 211.47C386.206 210.721 386.771 210.138 387.482 209.721C388.206 209.304 389.016 209.096 389.912 209.096C390.807 209.096 391.611 209.304 392.322 209.721C393.034 210.138 393.592 210.721 393.997 211.47C394.402 212.206 394.604 213.052 394.604 214.009L394.586 214.414ZM389.912 210.218C388.979 210.218 388.194 210.519 387.556 211.12C386.93 211.709 386.574 212.482 386.488 213.439H393.353C393.267 212.482 392.905 211.709 392.267 211.12C391.641 210.519 390.856 210.218 389.912 210.218ZM401.012 214.543H398.804V218.85H397.497V209.169H398.804V213.421H401.03L404.435 209.169H405.852L402.043 213.862L406.128 218.85H404.582L401.012 214.543Z" fill="#565656"/>
</g>
</g>
<defs>
<filter id="filter0_d_1123_3415" x="0.892017" y="180.145" width="333.568" height="209.343" filterUnits="userSpaceOnUse" color-interpolation-filters="sRGB">
<feFlood flood-opacity="0" result="BackgroundImageFix"/>
<feColorMatrix in="SourceAlpha" type="matrix" values="0 0 0 0 0 0 0 0 0 0 0 0 0 0 0 0 0 0 127 0" result="hardAlpha"/>
<feOffset dy="4.60094"/>
<feGaussianBlur stdDeviation="19.554"/>
<feComposite in2="hardAlpha" operator="out"/>
<feColorMatrix type="matrix" values="0 0 0 0 0 0 0 0 0 0 0 0 0 0 0 0 0 0 0.1 0"/>
<feBlend mode="normal" in2="BackgroundImageFix" result="effect1_dropShadow_1123_3415"/>
<feBlend mode="normal" in="SourceGraphic" in2="effect1_dropShadow_1123_3415" result="shape"/>
</filter>
<filter id="filter1_d_1123_3415" x="118.216" y="0.709754" width="355.423" height="271.455" filterUnits="userSpaceOnUse" color-interpolation-filters="sRGB">
<feFlood flood-opacity="0" result="BackgroundImageFix"/>
<feColorMatrix in="SourceAlpha" type="matrix" values="0 0 0 0 0 0 0 0 0 0 0 0 0 0 0 0 0 0 127 0" result="hardAlpha"/>
<feOffset dy="4.60094"/>
<feGaussianBlur stdDeviation="19.554"/>
<feComposite in2="hardAlpha" operator="out"/>
<feColorMatrix type="matrix" values="0 0 0 0 0 0 0 0 0 0 0 0 0 0 0 0 0 0 0.1 0"/>
<feBlend mode="normal" in2="BackgroundImageFix" result="effect1_dropShadow_1123_3415"/>
<feBlend mode="normal" in="SourceGraphic" in2="effect1_dropShadow_1123_3415" result="shape"/>
</filter>
<filter id="filter2_d_1123_3415" x="230.939" y="155.991" width="338.169" height="256.502" filterUnits="userSpaceOnUse" color-interpolation-filters="sRGB">
<feFlood flood-opacity="0" result="BackgroundImageFix"/>
<feColorMatrix in="SourceAlpha" type="matrix" values="0 0 0 0 0 0 0 0 0 0 0 0 0 0 0 0 0 0 127 0" result="hardAlpha"/>
<feOffset dy="4.60094"/>
<feGaussianBlur stdDeviation="19.554"/>
<feComposite in2="hardAlpha" operator="out"/>
<feColorMatrix type="matrix" values="0 0 0 0 0 0 0 0 0 0 0 0 0 0 0 0 0 0 0.1 0"/>
<feBlend mode="normal" in2="BackgroundImageFix" result="effect1_dropShadow_1123_3415"/>
<feBlend mode="normal" in="SourceGraphic" in2="effect1_dropShadow_1123_3415" result="shape"/>
</filter>
<linearGradient id="paint0_linear_1123_3415" x1="41.6369" y1="216.694" x2="296.68" y2="337.936" gradientUnits="userSpaceOnUse">
<stop stop-color="#FCF6FF"/>
<stop offset="1" stop-color="#F8F0FD"/>
</linearGradient>
<linearGradient id="paint1_linear_1123_3415" x1="221.738" y1="276.766" x2="221.738" y2="336.578" gradientUnits="userSpaceOnUse">
<stop stop-color="#EABDFF"/>
<stop offset="0.700529" stop-color="#EED1FF" stop-opacity="0"/>
<stop offset="1" stop-color="#EBD1FF" stop-opacity="0"/>
</linearGradient>
<linearGradient id="paint2_linear_1123_3415" x1="221.314" y1="276.766" x2="221.314" y2="313.729" gradientUnits="userSpaceOnUse">
<stop stop-color="#E168FF"/>
<stop offset="1" stop-color="#ECA1FF"/>
</linearGradient>
<linearGradient id="paint3_linear_1123_3415" x1="159.101" y1="38.2257" x2="461.462" y2="144.108" gradientUnits="userSpaceOnUse">
<stop stop-color="#FAFDFC"/>
<stop offset="1" stop-color="#F0F8FD"/>
</linearGradient>
<linearGradient id="paint4_linear_1123_3415" x1="405.888" y1="101.595" x2="181.922" y2="106.195" gradientUnits="userSpaceOnUse">
<stop stop-color="#1C89D1"/>
<stop offset="1" stop-color="#2FA0EB"/>
</linearGradient>
<linearGradient id="paint5_linear_1123_3415" x1="405.808" y1="101.673" x2="181.842" y2="106.273" gradientUnits="userSpaceOnUse">
<stop stop-color="#1C89D1"/>
<stop offset="1" stop-color="#2FA0EB"/>
</linearGradient>
<linearGradient id="paint6_linear_1123_3415" x1="405.888" y1="101.595" x2="181.922" y2="106.195" gradientUnits="userSpaceOnUse">
<stop stop-color="#1C89D1"/>
<stop offset="1" stop-color="#2FA0EB"/>
</linearGradient>
<linearGradient id="paint7_linear_1123_3415" x1="260.809" y1="150.516" x2="339.269" y2="152.858" gradientUnits="userSpaceOnUse">
<stop stop-color="#1C89D1"/>
<stop offset="1" stop-color="#2FA0EB"/>
</linearGradient>
<linearGradient id="paint8_linear_1123_3415" x1="284.973" y1="150.575" x2="339.004" y2="151.685" gradientUnits="userSpaceOnUse">
<stop stop-color="#1C89D1"/>
<stop offset="1" stop-color="#2FA0EB"/>
</linearGradient>
<linearGradient id="paint9_linear_1123_3415" x1="271.713" y1="193.274" x2="554.234" y2="293.832" gradientUnits="userSpaceOnUse">
<stop stop-color="#E9FFF8"/>
<stop offset="1" stop-color="#F0FDF2"/>
</linearGradient>
<clipPath id="clip0_1123_3415">
<rect width="219.695" height="159.917" fill="white" transform="translate(186.082 58.2227)"/>
</clipPath>
</defs>
</svg>
