<svg width="549" height="357" viewBox="0 0 549 357" fill="none" xmlns="http://www.w3.org/2000/svg">
<g id="1">
<g id="1-1">
<g id="Group 741">
<g id="Rectangle 222" filter="url(#filter0_d_1104_3253)">
<rect x="169" y="30" width="345.435" height="219.661" rx="10" fill="url(#paint0_linear_1104_3253)"/>
</g>
<path id="Arrow 1" d="M258.478 82.9184C258.214 82.6545 257.786 82.6545 257.522 82.9184L253.221 87.2197C252.957 87.4837 252.957 87.9116 253.221 88.1755C253.485 88.4395 253.913 88.4395 254.177 88.1755L258 84.3522L261.823 88.1755C262.087 88.4395 262.515 88.4395 262.779 88.1755C263.043 87.9116 263.043 87.4837 262.779 87.2197L258.478 82.9184ZM258.676 97.5898L258.676 83.3963L257.324 83.3963L257.324 97.5898L258.676 97.5898Z" fill="#8D52C6"/>
<path id="&#208;&#163;&#208;&#183;&#208;&#189;&#208;&#176;&#208;&#178;&#208;&#176;&#208;&#181;&#208;&#188;&#208;&#190;&#209;&#129;&#209;&#130;&#209;&#140; &#208;&#184; &#209;&#128;&#208;&#190;&#209;&#129;&#209;&#130; &#208;&#177;&#209;&#128;&#208;&#181;&#208;&#189;&#208;&#180;&#208;&#176;" d="M199.833 53.5998L194.2 64.0337C193.799 64.7777 193.326 65.3327 192.783 65.6989C192.252 66.0531 191.667 66.2303 191.029 66.2303C190.557 66.2303 190.049 66.1181 189.506 65.8937L189.878 64.8308C190.303 64.9962 190.693 65.0788 191.047 65.0788C191.862 65.0788 192.529 64.636 193.049 63.7502L193.403 63.1479L188.372 53.5998H189.771L194.094 61.9965L198.522 53.5998H199.833ZM205.517 61.1462C206.178 61.2997 206.686 61.5654 207.04 61.9434C207.406 62.3213 207.589 62.7818 207.589 63.3251C207.589 63.8683 207.401 64.3525 207.023 64.7777C206.656 65.2028 206.155 65.5335 205.517 65.7697C204.879 65.9941 204.176 66.1063 203.409 66.1063C202.736 66.1063 202.074 66.0118 201.425 65.8229C200.775 65.6221 200.208 65.3327 199.724 64.9548L200.149 64.016C200.574 64.3348 201.07 64.5828 201.637 64.76C202.204 64.9371 202.777 65.0257 203.356 65.0257C204.218 65.0257 204.92 64.8663 205.464 64.5474C206.019 64.2167 206.296 63.7739 206.296 63.2188C206.296 62.7228 206.072 62.339 205.623 62.0674C205.174 61.7839 204.56 61.6422 203.781 61.6422H202.187V60.721H203.71C204.407 60.721 204.968 60.5911 205.393 60.3313C205.818 60.0597 206.031 59.6995 206.031 59.2507C206.031 58.7547 205.788 58.365 205.304 58.0816C204.832 57.7981 204.212 57.6564 203.444 57.6564C202.44 57.6564 201.448 57.9103 200.468 58.4181L200.114 57.4438C201.224 56.8652 202.375 56.5758 203.568 56.5758C204.277 56.5758 204.915 56.6821 205.481 56.8947C206.06 57.0955 206.509 57.3848 206.828 57.7627C207.158 58.1406 207.324 58.5776 207.324 59.0736C207.324 59.546 207.158 59.9652 206.828 60.3313C206.509 60.6974 206.072 60.969 205.517 61.1462ZM210.445 56.6821H211.702V60.8096H217.566V56.6821H218.824V66H217.566V61.8902H211.702V66H210.445V56.6821ZM225.605 56.6113C226.821 56.6113 227.754 56.9183 228.404 57.5324C229.053 58.1347 229.378 59.0322 229.378 60.225V66H228.174V64.5474C227.89 65.0316 227.471 65.4095 226.916 65.6811C226.373 65.9528 225.723 66.0886 224.967 66.0886C223.928 66.0886 223.101 65.8406 222.487 65.3446C221.873 64.8485 221.566 64.1931 221.566 63.3782C221.566 62.587 221.849 61.9493 222.416 61.4651C222.995 60.9809 223.91 60.7388 225.162 60.7388H228.12V60.1719C228.12 59.3688 227.896 58.7606 227.447 58.3473C226.999 57.9221 226.343 57.7096 225.481 57.7096C224.89 57.7096 224.324 57.8099 223.78 58.0107C223.237 58.1997 222.771 58.4654 222.381 58.8079L221.814 57.869C222.286 57.4675 222.853 57.1604 223.515 56.9478C224.176 56.7234 224.873 56.6113 225.605 56.6113ZM225.162 65.0966C225.871 65.0966 226.479 64.9371 226.987 64.6183C227.495 64.2876 227.872 63.8152 228.12 63.2011V61.6776H225.198C223.603 61.6776 222.806 62.2327 222.806 63.3428C222.806 63.8861 223.013 64.3171 223.426 64.636C223.839 64.943 224.418 65.0966 225.162 65.0966ZM238.661 61.1816C239.924 61.4769 240.556 62.2386 240.556 63.4668C240.556 64.2817 240.255 64.9076 239.653 65.3446C239.05 65.7815 238.153 66 236.96 66H232.726V56.6821H236.836C237.899 56.6821 238.732 56.8888 239.334 57.3021C239.936 57.7155 240.237 58.306 240.237 59.0736C240.237 59.5814 240.096 60.0184 239.812 60.3845C239.541 60.7388 239.157 61.0045 238.661 61.1816ZM233.949 60.8273H236.748C237.468 60.8273 238.017 60.6915 238.395 60.4199C238.785 60.1483 238.98 59.7526 238.98 59.233C238.98 58.7134 238.785 58.3237 238.395 58.0639C238.017 57.804 237.468 57.6741 236.748 57.6741H233.949V60.8273ZM236.907 65.008C237.71 65.008 238.312 64.8781 238.714 64.6183C239.115 64.3584 239.316 63.951 239.316 63.396C239.316 62.8409 239.133 62.4335 238.767 62.1736C238.401 61.902 237.822 61.7662 237.031 61.7662H233.949V65.008H236.907ZM246.71 56.6113C247.927 56.6113 248.86 56.9183 249.509 57.5324C250.159 58.1347 250.483 59.0322 250.483 60.225V66H249.279V64.5474C248.995 65.0316 248.576 65.4095 248.021 65.6811C247.478 65.9528 246.828 66.0886 246.073 66.0886C245.033 66.0886 244.207 65.8406 243.592 65.3446C242.978 64.8485 242.671 64.1931 242.671 63.3782C242.671 62.587 242.955 61.9493 243.522 61.4651C244.1 60.9809 245.016 60.7388 246.267 60.7388H249.226V60.1719C249.226 59.3688 249.001 58.7606 248.553 58.3473C248.104 57.9221 247.448 57.7096 246.586 57.7096C245.996 57.7096 245.429 57.8099 244.886 58.0107C244.342 58.1997 243.876 58.4654 243.486 58.8079L242.919 57.869C243.392 57.4675 243.959 57.1604 244.62 56.9478C245.281 56.7234 245.978 56.6113 246.71 56.6113ZM246.267 65.0966C246.976 65.0966 247.584 64.9371 248.092 64.6183C248.6 64.2876 248.978 63.8152 249.226 63.2011V61.6776H246.303C244.709 61.6776 243.911 62.2327 243.911 63.3428C243.911 63.8861 244.118 64.3171 244.531 64.636C244.945 64.943 245.523 65.0966 246.267 65.0966ZM261.98 61.7308H254.186C254.257 62.6992 254.629 63.4845 255.302 64.0868C255.975 64.6773 256.825 64.9726 257.853 64.9726C258.432 64.9726 258.963 64.8722 259.447 64.6714C259.931 64.4588 260.351 64.1518 260.705 63.7502L261.414 64.5651C261 65.0611 260.481 65.439 259.855 65.6989C259.241 65.9587 258.561 66.0886 257.817 66.0886C256.861 66.0886 256.011 65.8878 255.267 65.4863C254.534 65.0729 253.962 64.5061 253.548 63.7857C253.135 63.0653 252.928 62.2504 252.928 61.3411C252.928 60.4317 253.123 59.6168 253.513 58.8964C253.914 58.176 254.458 57.6151 255.143 57.2135C255.839 56.812 256.619 56.6113 257.481 56.6113C258.343 56.6113 259.117 56.812 259.801 57.2135C260.486 57.6151 261.024 58.176 261.414 58.8964C261.803 59.605 261.998 60.4199 261.998 61.3411L261.98 61.7308ZM257.481 57.6918C256.583 57.6918 255.828 57.9812 255.213 58.5599C254.611 59.1267 254.269 59.8707 254.186 60.7919H260.794C260.711 59.8707 260.362 59.1267 259.748 58.5599C259.146 57.9812 258.39 57.6918 257.481 57.6918ZM275.198 56.6821V66H274.047V58.6307L270.274 64.8663H269.707L265.934 58.613V66H264.782V56.6821H266.058L270.008 63.396L274.029 56.6821H275.198ZM282.622 66.0886C281.724 66.0886 280.915 65.8878 280.195 65.4863C279.474 65.0729 278.907 64.5061 278.494 63.7857C278.081 63.0653 277.874 62.2504 277.874 61.3411C277.874 60.4317 278.081 59.6168 278.494 58.8964C278.907 58.176 279.474 57.6151 280.195 57.2135C280.915 56.812 281.724 56.6113 282.622 56.6113C283.519 56.6113 284.328 56.812 285.048 57.2135C285.769 57.6151 286.33 58.176 286.731 58.8964C287.145 59.6168 287.351 60.4317 287.351 61.3411C287.351 62.2504 287.145 63.0653 286.731 63.7857C286.33 64.5061 285.769 65.0729 285.048 65.4863C284.328 65.8878 283.519 66.0886 282.622 66.0886ZM282.622 64.9726C283.283 64.9726 283.873 64.8249 284.393 64.5297C284.924 64.2226 285.338 63.7916 285.633 63.2365C285.928 62.6815 286.076 62.0496 286.076 61.3411C286.076 60.6325 285.928 60.0006 285.633 59.4456C285.338 58.8905 284.924 58.4654 284.393 58.1701C283.873 57.8631 283.283 57.7096 282.622 57.7096C281.96 57.7096 281.364 57.8631 280.832 58.1701C280.313 58.4654 279.899 58.8905 279.592 59.4456C279.297 60.0006 279.149 60.6325 279.149 61.3411C279.149 62.0496 279.297 62.6815 279.592 63.2365C279.899 63.7916 280.313 64.2226 280.832 64.5297C281.364 64.8249 281.96 64.9726 282.622 64.9726ZM293.937 66.0886C293.015 66.0886 292.189 65.8878 291.457 65.4863C290.736 65.0847 290.169 64.5238 289.756 63.8034C289.343 63.0712 289.136 62.2504 289.136 61.3411C289.136 60.4317 289.343 59.6168 289.756 58.8964C290.169 58.176 290.736 57.6151 291.457 57.2135C292.189 56.812 293.015 56.6113 293.937 56.6113C294.74 56.6113 295.454 56.7707 296.08 57.0895C296.718 57.3966 297.22 57.8513 297.586 58.4536L296.647 59.0913C296.34 58.6307 295.95 58.2882 295.478 58.0639C295.005 57.8277 294.492 57.7096 293.937 57.7096C293.263 57.7096 292.655 57.8631 292.112 58.1701C291.581 58.4654 291.161 58.8905 290.854 59.4456C290.559 60.0006 290.411 60.6325 290.411 61.3411C290.411 62.0614 290.559 62.6992 290.854 63.2542C291.161 63.7975 291.581 64.2226 292.112 64.5297C292.655 64.8249 293.263 64.9726 293.937 64.9726C294.492 64.9726 295.005 64.8604 295.478 64.636C295.95 64.4116 296.34 64.0691 296.647 63.6085L297.586 64.2463C297.22 64.8485 296.718 65.3091 296.08 65.628C295.442 65.935 294.728 66.0886 293.937 66.0886ZM306.403 57.7981H302.877V66H301.62V57.7981H298.094V56.6821H306.403V57.7981ZM312.225 59.977C313.394 59.9888 314.279 60.2487 314.882 60.7565C315.496 61.2643 315.803 61.9965 315.803 62.9531C315.803 63.9451 315.472 64.7068 314.811 65.2383C314.161 65.7697 313.217 66.0295 311.977 66.0177L308.221 66V56.6821H309.479V59.9416L312.225 59.977ZM311.906 65.0611C312.768 65.0729 313.417 64.9017 313.854 64.5474C314.303 64.1813 314.527 63.6499 314.527 62.9531C314.527 62.2681 314.309 61.7603 313.872 61.4296C313.435 61.099 312.78 60.9277 311.906 60.9159L309.479 60.8805V65.0257L311.906 65.0611ZM322.839 56.6821H324.097V64.0868L330.315 56.6821H331.431V66H330.173V58.5953L323.973 66H322.839V56.6821ZM344.472 56.6113C345.346 56.6113 346.137 56.812 346.846 57.2135C347.554 57.6033 348.11 58.1583 348.511 58.8787C348.913 59.5991 349.113 60.4199 349.113 61.3411C349.113 62.274 348.913 63.1007 348.511 63.8211C348.11 64.5415 347.554 65.1025 346.846 65.504C346.149 65.8937 345.358 66.0886 344.472 66.0886C343.716 66.0886 343.031 65.935 342.417 65.628C341.815 65.3091 341.319 64.8485 340.929 64.2463V69.4366H339.671V56.6821H340.876V58.5244C341.254 57.9103 341.75 57.4379 342.364 57.1073C342.99 56.7766 343.693 56.6113 344.472 56.6113ZM344.384 64.9726C345.033 64.9726 345.624 64.8249 346.155 64.5297C346.686 64.2226 347.1 63.7916 347.395 63.2365C347.702 62.6815 347.856 62.0496 347.856 61.3411C347.856 60.6325 347.702 60.0066 347.395 59.4633C347.1 58.9082 346.686 58.4772 346.155 58.1701C345.624 57.8631 345.033 57.7096 344.384 57.7096C343.722 57.7096 343.126 57.8631 342.594 58.1701C342.075 58.4772 341.661 58.9082 341.354 59.4633C341.059 60.0066 340.911 60.6325 340.911 61.3411C340.911 62.0496 341.059 62.6815 341.354 63.2365C341.661 63.7916 342.075 64.2226 342.594 64.5297C343.126 64.8249 343.722 64.9726 344.384 64.9726ZM355.66 66.0886C354.762 66.0886 353.953 65.8878 353.233 65.4863C352.512 65.0729 351.946 64.5061 351.532 63.7857C351.119 63.0653 350.912 62.2504 350.912 61.3411C350.912 60.4317 351.119 59.6168 351.532 58.8964C351.946 58.176 352.512 57.6151 353.233 57.2135C353.953 56.812 354.762 56.6113 355.66 56.6113C356.557 56.6113 357.366 56.812 358.087 57.2135C358.807 57.6151 359.368 58.176 359.77 58.8964C360.183 59.6168 360.39 60.4317 360.39 61.3411C360.39 62.2504 360.183 63.0653 359.77 63.7857C359.368 64.5061 358.807 65.0729 358.087 65.4863C357.366 65.8878 356.557 66.0886 355.66 66.0886ZM355.66 64.9726C356.321 64.9726 356.912 64.8249 357.431 64.5297C357.963 64.2226 358.376 63.7916 358.671 63.2365C358.966 62.6815 359.114 62.0496 359.114 61.3411C359.114 60.6325 358.966 60.0006 358.671 59.4456C358.376 58.8905 357.963 58.4654 357.431 58.1701C356.912 57.8631 356.321 57.7096 355.66 57.7096C354.998 57.7096 354.402 57.8631 353.871 58.1701C353.351 58.4654 352.938 58.8905 352.631 59.4456C352.335 60.0006 352.188 60.6325 352.188 61.3411C352.188 62.0496 352.335 62.6815 352.631 63.2365C352.938 63.7916 353.351 64.2226 353.871 64.5297C354.402 64.8249 354.998 64.9726 355.66 64.9726ZM366.975 66.0886C366.054 66.0886 365.227 65.8878 364.495 65.4863C363.774 65.0847 363.207 64.5238 362.794 63.8034C362.381 63.0712 362.174 62.2504 362.174 61.3411C362.174 60.4317 362.381 59.6168 362.794 58.8964C363.207 58.176 363.774 57.6151 364.495 57.2135C365.227 56.812 366.054 56.6113 366.975 56.6113C367.778 56.6113 368.492 56.7707 369.118 57.0895C369.756 57.3966 370.258 57.8513 370.624 58.4536L369.685 59.0913C369.378 58.6307 368.988 58.2882 368.516 58.0639C368.044 57.8277 367.53 57.7096 366.975 57.7096C366.302 57.7096 365.693 57.8631 365.15 58.1701C364.619 58.4654 364.2 58.8905 363.892 59.4456C363.597 60.0006 363.45 60.6325 363.45 61.3411C363.45 62.0614 363.597 62.6992 363.892 63.2542C364.2 63.7975 364.619 64.2226 365.15 64.5297C365.693 64.8249 366.302 64.9726 366.975 64.9726C367.53 64.9726 368.044 64.8604 368.516 64.636C368.988 64.4116 369.378 64.0691 369.685 63.6085L370.624 64.2463C370.258 64.8485 369.756 65.3091 369.118 65.628C368.481 65.935 367.766 66.0886 366.975 66.0886ZM379.441 57.7981H375.916V66H374.658V57.7981H371.133V56.6821H379.441V57.7981ZM390.413 56.9124C391.275 56.9124 392.043 57.1073 392.716 57.497C393.401 57.8749 393.932 58.4122 394.31 59.109C394.688 59.794 394.877 60.5793 394.877 61.4651C394.877 62.3744 394.676 63.1834 394.275 63.892C393.885 64.5887 393.336 65.132 392.627 65.5217C391.919 65.9114 391.104 66.1063 390.182 66.1063C388.635 66.1063 387.437 65.563 386.586 64.4765C385.736 63.39 385.311 61.8902 385.311 59.977C385.311 57.9812 385.689 56.4518 386.445 55.3889C387.212 54.3261 388.405 53.6057 390.023 53.2278L394.204 52.2712L394.416 53.4226L390.484 54.3261C389.149 54.6213 388.169 55.1468 387.543 55.9027C386.917 56.6467 386.575 57.7509 386.516 59.2153C386.893 58.4949 387.419 57.9339 388.092 57.5324C388.765 57.1191 389.539 56.9124 390.413 56.9124ZM390.218 65.0611C390.867 65.0611 391.446 64.9135 391.954 64.6183C392.474 64.3112 392.875 63.8861 393.159 63.3428C393.454 62.7996 393.601 62.1855 393.601 61.5005C393.601 60.8155 393.46 60.2132 393.176 59.6936C392.893 59.174 392.491 58.7724 391.972 58.489C391.464 58.1938 390.879 58.0461 390.218 58.0461C389.557 58.0461 388.966 58.1938 388.446 58.489C387.939 58.7724 387.537 59.174 387.242 59.6936C386.958 60.2132 386.817 60.8155 386.817 61.5005C386.817 62.1855 386.958 62.7996 387.242 63.3428C387.537 63.8861 387.945 64.3112 388.464 64.6183C388.984 64.9135 389.568 65.0611 390.218 65.0611ZM402.373 56.6113C403.247 56.6113 404.038 56.812 404.747 57.2135C405.456 57.6033 406.011 58.1583 406.412 58.8787C406.814 59.5991 407.015 60.4199 407.015 61.3411C407.015 62.274 406.814 63.1007 406.412 63.8211C406.011 64.5415 405.456 65.1025 404.747 65.504C404.05 65.8937 403.259 66.0886 402.373 66.0886C401.617 66.0886 400.933 65.935 400.318 65.628C399.716 65.3091 399.22 64.8485 398.83 64.2463V69.4366H397.573V56.6821H398.777V58.5244C399.155 57.9103 399.651 57.4379 400.265 57.1073C400.891 56.7766 401.594 56.6113 402.373 56.6113ZM402.285 64.9726C402.934 64.9726 403.525 64.8249 404.056 64.5297C404.588 64.2226 405.001 63.7916 405.296 63.2365C405.603 62.6815 405.757 62.0496 405.757 61.3411C405.757 60.6325 405.603 60.0066 405.296 59.4633C405.001 58.9082 404.588 58.4772 404.056 58.1701C403.525 57.8631 402.934 57.7096 402.285 57.7096C401.623 57.7096 401.027 57.8631 400.496 58.1701C399.976 58.4772 399.563 58.9082 399.256 59.4633C398.96 60.0066 398.813 60.6325 398.813 61.3411C398.813 62.0496 398.96 62.6815 399.256 63.2365C399.563 63.7916 399.976 64.2226 400.496 64.5297C401.027 64.8249 401.623 64.9726 402.285 64.9726ZM417.866 61.7308H410.071C410.142 62.6992 410.514 63.4845 411.187 64.0868C411.86 64.6773 412.711 64.9726 413.738 64.9726C414.317 64.9726 414.848 64.8722 415.332 64.6714C415.817 64.4588 416.236 64.1518 416.59 63.7502L417.299 64.5651C416.885 65.0611 416.366 65.439 415.74 65.6989C415.126 65.9587 414.447 66.0886 413.703 66.0886C412.746 66.0886 411.896 65.8878 411.152 65.4863C410.42 65.0729 409.847 64.5061 409.433 63.7857C409.02 63.0653 408.813 62.2504 408.813 61.3411C408.813 60.4317 409.008 59.6168 409.398 58.8964C409.8 58.176 410.343 57.6151 411.028 57.2135C411.725 56.812 412.504 56.6113 413.366 56.6113C414.228 56.6113 415.002 56.812 415.687 57.2135C416.372 57.6151 416.909 58.176 417.299 58.8964C417.688 59.605 417.883 60.4199 417.883 61.3411L417.866 61.7308ZM413.366 57.6918C412.469 57.6918 411.713 57.9812 411.099 58.5599C410.496 59.1267 410.154 59.8707 410.071 60.7919H416.679C416.596 59.8707 416.248 59.1267 415.634 58.5599C415.031 57.9812 414.275 57.6918 413.366 57.6918ZM420.667 56.6821H421.925V60.8096H427.789V56.6821H429.046V66H427.789V61.8902H421.925V66H420.667V56.6821ZM441.709 64.9017V68.2498H440.522V66H432.178V68.2498H430.992V64.9017H431.523C432.149 64.8663 432.574 64.4057 432.798 63.52C433.023 62.6342 433.176 61.3942 433.259 59.7999L433.383 56.6821H440.256V64.9017H441.709ZM434.41 59.8707C434.351 61.1934 434.239 62.2858 434.074 63.1479C433.909 63.9982 433.613 64.5828 433.188 64.9017H438.999V57.7981H434.517L434.41 59.8707ZM447.366 56.6113C448.583 56.6113 449.516 56.9183 450.165 57.5324C450.815 58.1347 451.14 59.0322 451.14 60.225V66H449.935V64.5474C449.652 65.0316 449.232 65.4095 448.677 65.6811C448.134 65.9528 447.484 66.0886 446.729 66.0886C445.689 66.0886 444.863 65.8406 444.249 65.3446C443.634 64.8485 443.327 64.1931 443.327 63.3782C443.327 62.587 443.611 61.9493 444.178 61.4651C444.756 60.9809 445.672 60.7388 446.924 60.7388H449.882V60.1719C449.882 59.3688 449.657 58.7606 449.209 58.3473C448.76 57.9221 448.104 57.7096 447.242 57.7096C446.652 57.7096 446.085 57.8099 445.542 58.0107C444.999 58.1997 444.532 58.4654 444.142 58.8079L443.575 57.869C444.048 57.4675 444.615 57.1604 445.276 56.9478C445.937 56.7234 446.634 56.6113 447.366 56.6113ZM446.924 65.0966C447.632 65.0966 448.24 64.9371 448.748 64.6183C449.256 64.2876 449.634 63.8152 449.882 63.2011V61.6776H446.959C445.365 61.6776 444.567 62.2327 444.567 63.3428C444.567 63.8861 444.774 64.3171 445.187 64.636C445.601 64.943 446.179 65.0966 446.924 65.0966Z" fill="#2D2D2D"/>
<path id="+95%" d="M199.107 90.2595H195.345V93.9795H193.07V90.2595H189.308V88.1337H193.07V84.4136H195.345V88.1337H199.107V90.2595ZM206.417 81.5439C208.457 81.5439 210.037 82.1816 211.157 83.457C212.291 84.7325 212.858 86.5606 212.858 88.9415C212.858 90.6137 212.553 92.0451 211.943 93.2355C211.334 94.4118 210.477 95.3117 209.371 95.9352C208.28 96.5446 207.012 96.8493 205.566 96.8493C204.801 96.8493 204.078 96.7713 203.398 96.6155C202.732 96.4454 202.151 96.2045 201.655 95.8927L202.675 93.8095C203.412 94.2913 204.355 94.5322 205.502 94.5322C206.934 94.5322 208.053 94.0929 208.861 93.2143C209.669 92.3356 210.073 91.0672 210.073 89.4092V89.3879C209.633 89.8981 209.074 90.2878 208.393 90.5571C207.713 90.8122 206.948 90.9397 206.098 90.9397C205.12 90.9397 204.241 90.7555 203.462 90.387C202.682 90.0044 202.073 89.4658 201.634 88.7714C201.194 88.077 200.975 87.2763 200.975 86.3693C200.975 85.4056 201.216 84.5624 201.697 83.8397C202.179 83.1027 202.831 82.5359 203.653 82.1391C204.475 81.7423 205.396 81.5439 206.417 81.5439ZM206.629 88.7714C207.522 88.7714 208.245 88.5305 208.797 88.0487C209.364 87.5668 209.648 86.9575 209.648 86.2205C209.648 85.4978 209.371 84.9026 208.819 84.4349C208.28 83.9531 207.529 83.7121 206.565 83.7121C205.701 83.7121 204.999 83.946 204.461 84.4136C203.922 84.8671 203.653 85.4765 203.653 86.2418C203.653 87.0212 203.922 87.6377 204.461 88.0912C204.999 88.5447 205.722 88.7714 206.629 88.7714ZM219.383 87.5172C221.48 87.5172 223.032 87.9282 224.038 88.7502C225.044 89.558 225.547 90.6633 225.547 92.0663C225.547 92.9592 225.328 93.767 224.888 94.4897C224.449 95.2125 223.79 95.7864 222.911 96.2116C222.033 96.6367 220.949 96.8493 219.659 96.8493C218.596 96.8493 217.569 96.7005 216.577 96.4029C215.585 96.0911 214.748 95.666 214.068 95.1274L215.237 92.9804C215.79 93.4339 216.449 93.7953 217.214 94.0646C217.994 94.3196 218.795 94.4472 219.616 94.4472C220.594 94.4472 221.36 94.2488 221.912 93.852C222.479 93.441 222.763 92.8812 222.763 92.1726C222.763 91.4074 222.458 90.8334 221.849 90.4508C221.253 90.054 220.226 89.8556 218.766 89.8556H215.174L215.939 81.7564H224.676V84.0735H218.277L217.958 87.5172H219.383ZM230.25 89.7705C229.187 89.7705 228.33 89.395 227.678 88.6439C227.026 87.8928 226.7 86.9078 226.7 85.6891C226.7 84.4703 227.026 83.4854 227.678 82.7343C228.33 81.9832 229.187 81.6076 230.25 81.6076C231.313 81.6076 232.17 81.9832 232.822 82.7343C233.488 83.4712 233.821 84.4561 233.821 85.6891C233.821 86.922 233.488 87.914 232.822 88.6651C232.17 89.4021 231.313 89.7705 230.25 89.7705ZM239.178 81.7564H241.261L231.1 96.6367H229.017L239.178 81.7564ZM230.25 88.2825C230.831 88.2825 231.277 88.0558 231.589 87.6023C231.915 87.1488 232.078 86.511 232.078 85.6891C232.078 84.8671 231.915 84.2294 231.589 83.7759C231.277 83.3224 230.831 83.0957 230.25 83.0957C229.697 83.0957 229.251 83.3295 228.911 83.7972C228.585 84.2507 228.422 84.8813 228.422 85.6891C228.422 86.4969 228.585 87.1346 228.911 87.6023C229.251 88.0558 229.697 88.2825 230.25 88.2825ZM240.007 96.7855C238.944 96.7855 238.087 96.41 237.435 95.6589C236.783 94.9078 236.457 93.9228 236.457 92.7041C236.457 91.4853 236.783 90.5004 237.435 89.7493C238.087 88.9982 238.944 88.6226 240.007 88.6226C241.07 88.6226 241.927 88.9982 242.579 89.7493C243.245 90.5004 243.578 91.4853 243.578 92.7041C243.578 93.9228 243.245 94.9078 242.579 95.6589C241.927 96.41 241.07 96.7855 240.007 96.7855ZM240.007 95.2975C240.574 95.2975 241.02 95.0707 241.346 94.6173C241.672 94.1496 241.835 93.5119 241.835 92.7041C241.835 91.8963 241.672 91.2656 241.346 90.8122C241.02 90.3445 240.574 90.1107 240.007 90.1107C239.44 90.1107 238.994 90.3374 238.668 90.7909C238.342 91.2444 238.179 91.8821 238.179 92.7041C238.179 93.526 238.342 94.1638 238.668 94.6173C238.994 95.0707 239.44 95.2975 240.007 95.2975Z" fill="#2D2D2D"/>
<path id="100%" d="M192.308 115.8V122H191.67V116.367H190.209V115.8H192.308ZM196.261 122.053C195.783 122.053 195.355 121.926 194.977 121.672C194.605 121.418 194.313 121.055 194.1 120.583C193.893 120.105 193.79 119.544 193.79 118.9C193.79 118.256 193.893 117.698 194.1 117.226C194.313 116.748 194.605 116.382 194.977 116.128C195.355 115.874 195.783 115.747 196.261 115.747C196.739 115.747 197.165 115.874 197.537 116.128C197.915 116.382 198.21 116.748 198.422 117.226C198.635 117.698 198.741 118.256 198.741 118.9C198.741 119.544 198.635 120.105 198.422 120.583C198.21 121.055 197.915 121.418 197.537 121.672C197.165 121.926 196.739 122.053 196.261 122.053ZM196.261 121.469C196.621 121.469 196.937 121.368 197.209 121.167C197.486 120.967 197.702 120.674 197.855 120.291C198.009 119.907 198.086 119.443 198.086 118.9C198.086 118.357 198.009 117.893 197.855 117.509C197.702 117.126 197.486 116.833 197.209 116.632C196.937 116.432 196.621 116.331 196.261 116.331C195.901 116.331 195.582 116.432 195.305 116.632C195.033 116.833 194.82 117.126 194.667 117.509C194.513 117.893 194.437 118.357 194.437 118.9C194.437 119.443 194.513 119.907 194.667 120.291C194.82 120.674 195.033 120.967 195.305 121.167C195.582 121.368 195.901 121.469 196.261 121.469ZM202.126 122.053C201.647 122.053 201.219 121.926 200.841 121.672C200.469 121.418 200.177 121.055 199.964 120.583C199.758 120.105 199.654 119.544 199.654 118.9C199.654 118.256 199.758 117.698 199.964 117.226C200.177 116.748 200.469 116.382 200.841 116.128C201.219 115.874 201.647 115.747 202.126 115.747C202.604 115.747 203.029 115.874 203.401 116.128C203.779 116.382 204.074 116.748 204.287 117.226C204.499 117.698 204.606 118.256 204.606 118.9C204.606 119.544 204.499 120.105 204.287 120.583C204.074 121.055 203.779 121.418 203.401 121.672C203.029 121.926 202.604 122.053 202.126 122.053ZM202.126 121.469C202.486 121.469 202.802 121.368 203.073 121.167C203.351 120.967 203.566 120.674 203.72 120.291C203.874 119.907 203.95 119.443 203.95 118.9C203.95 118.357 203.874 117.893 203.72 117.509C203.566 117.126 203.351 116.833 203.073 116.632C202.802 116.432 202.486 116.331 202.126 116.331C201.765 116.331 201.447 116.432 201.169 116.632C200.897 116.833 200.685 117.126 200.531 117.509C200.378 117.893 200.301 118.357 200.301 118.9C200.301 119.443 200.378 119.907 200.531 120.291C200.685 120.674 200.897 120.967 201.169 121.167C201.447 121.368 201.765 121.469 202.126 121.469ZM206.83 119.121C206.411 119.121 206.071 118.968 205.811 118.661C205.557 118.348 205.43 117.94 205.43 117.438C205.43 116.937 205.557 116.532 205.811 116.225C206.071 115.912 206.411 115.756 206.83 115.756C207.243 115.756 207.58 115.909 207.84 116.216C208.099 116.523 208.229 116.931 208.229 117.438C208.229 117.946 208.099 118.354 207.84 118.661C207.58 118.968 207.243 119.121 206.83 119.121ZM210.585 115.8H211.108L206.874 122H206.352L210.585 115.8ZM206.83 118.723C207.119 118.723 207.35 118.611 207.521 118.386C207.698 118.156 207.786 117.84 207.786 117.438C207.786 117.037 207.698 116.724 207.521 116.5C207.35 116.269 207.119 116.154 206.83 116.154C206.535 116.154 206.301 116.269 206.13 116.5C205.959 116.73 205.873 117.043 205.873 117.438C205.873 117.834 205.959 118.147 206.13 118.377C206.301 118.608 206.535 118.723 206.83 118.723ZM210.63 122.044C210.216 122.044 209.88 121.891 209.62 121.584C209.36 121.271 209.23 120.863 209.23 120.361C209.23 119.859 209.36 119.455 209.62 119.148C209.88 118.835 210.216 118.679 210.63 118.679C211.049 118.679 211.385 118.835 211.639 119.148C211.899 119.455 212.029 119.859 212.029 120.361C212.029 120.863 211.899 121.271 211.639 121.584C211.385 121.891 211.049 122.044 210.63 122.044ZM210.63 121.646C210.925 121.646 211.158 121.531 211.329 121.3C211.501 121.07 211.586 120.757 211.586 120.361C211.586 119.966 211.501 119.653 211.329 119.423C211.158 119.192 210.925 119.077 210.63 119.077C210.34 119.077 210.107 119.192 209.93 119.423C209.759 119.647 209.673 119.96 209.673 120.361C209.673 120.763 209.759 121.079 209.93 121.309C210.107 121.534 210.34 121.646 210.63 121.646Z" fill="#2D2D2D"/>
<path id="75%" d="M200.798 145.429V145.881L198.203 151.629H197.512L200.063 145.996H196.875V147.156H196.246V145.429H200.798ZM203.104 147.971C204.002 147.971 204.654 148.133 205.062 148.458C205.475 148.777 205.682 149.226 205.682 149.804C205.682 150.164 205.596 150.486 205.425 150.77C205.259 151.053 205.008 151.278 204.672 151.443C204.335 151.602 203.922 151.682 203.432 151.682C202.989 151.682 202.567 151.611 202.165 151.469C201.77 151.322 201.451 151.127 201.209 150.885L201.519 150.38C201.725 150.593 201.997 150.767 202.334 150.903C202.67 151.033 203.033 151.097 203.423 151.097C203.937 151.097 204.332 150.982 204.61 150.752C204.893 150.522 205.035 150.215 205.035 149.831C205.035 149.406 204.876 149.084 204.557 148.865C204.244 148.647 203.712 148.538 202.962 148.538H201.643L201.962 145.429H205.354V145.996H202.52L202.307 147.971H203.104ZM207.716 148.75C207.296 148.75 206.957 148.597 206.697 148.29C206.443 147.977 206.316 147.569 206.316 147.067C206.316 146.565 206.443 146.161 206.697 145.854C206.957 145.541 207.296 145.385 207.716 145.385C208.129 145.385 208.466 145.538 208.725 145.845C208.985 146.152 209.115 146.56 209.115 147.067C209.115 147.575 208.985 147.983 208.725 148.29C208.466 148.597 208.129 148.75 207.716 148.75ZM211.471 145.429H211.994L207.76 151.629H207.237L211.471 145.429ZM207.716 148.352C208.005 148.352 208.235 148.24 208.406 148.015C208.584 147.785 208.672 147.469 208.672 147.067C208.672 146.666 208.584 146.353 208.406 146.129C208.235 145.898 208.005 145.783 207.716 145.783C207.42 145.783 207.187 145.898 207.016 146.129C206.845 146.359 206.759 146.672 206.759 147.067C206.759 147.463 206.845 147.776 207.016 148.006C207.187 148.237 207.42 148.352 207.716 148.352ZM211.515 151.673C211.102 151.673 210.765 151.52 210.506 151.213C210.246 150.9 210.116 150.492 210.116 149.99C210.116 149.488 210.246 149.084 210.506 148.777C210.765 148.464 211.102 148.307 211.515 148.307C211.935 148.307 212.271 148.464 212.525 148.777C212.785 149.084 212.915 149.488 212.915 149.99C212.915 150.492 212.785 150.9 212.525 151.213C212.271 151.52 211.935 151.673 211.515 151.673ZM211.515 151.275C211.811 151.275 212.044 151.159 212.215 150.929C212.386 150.699 212.472 150.386 212.472 149.99C212.472 149.595 212.386 149.282 212.215 149.051C212.044 148.821 211.811 148.706 211.515 148.706C211.226 148.706 210.993 148.821 210.816 149.051C210.644 149.276 210.559 149.589 210.559 149.99C210.559 150.392 210.644 150.708 210.816 150.938C210.993 151.162 211.226 151.275 211.515 151.275Z" fill="#2D2D2D"/>
<path id="50%" d="M196.267 177.6C197.165 177.6 197.817 177.762 198.225 178.087C198.638 178.406 198.845 178.855 198.845 179.433C198.845 179.793 198.759 180.115 198.588 180.399C198.423 180.682 198.172 180.906 197.835 181.072C197.499 181.231 197.085 181.311 196.595 181.311C196.152 181.311 195.73 181.24 195.329 181.098C194.933 180.951 194.614 180.756 194.372 180.514L194.682 180.009C194.889 180.222 195.16 180.396 195.497 180.532C195.833 180.661 196.197 180.726 196.586 180.726C197.1 180.726 197.496 180.611 197.773 180.381C198.057 180.151 198.198 179.844 198.198 179.46C198.198 179.035 198.039 178.713 197.72 178.494C197.407 178.276 196.876 178.167 196.126 178.167H194.806L195.125 175.058H198.517V175.625H195.683L195.47 177.6H196.267ZM202.126 181.311C201.647 181.311 201.219 181.184 200.841 180.93C200.469 180.676 200.177 180.313 199.964 179.841C199.758 179.362 199.654 178.801 199.654 178.158C199.654 177.514 199.758 176.956 199.964 176.484C200.177 176.005 200.469 175.639 200.841 175.385C201.219 175.132 201.647 175.005 202.126 175.005C202.604 175.005 203.029 175.132 203.401 175.385C203.779 175.639 204.074 176.005 204.287 176.484C204.499 176.956 204.606 177.514 204.606 178.158C204.606 178.801 204.499 179.362 204.287 179.841C204.074 180.313 203.779 180.676 203.401 180.93C203.029 181.184 202.604 181.311 202.126 181.311ZM202.126 180.726C202.486 180.726 202.802 180.626 203.073 180.425C203.351 180.224 203.566 179.932 203.72 179.548C203.874 179.165 203.95 178.701 203.95 178.158C203.95 177.615 203.874 177.151 203.72 176.767C203.566 176.383 203.351 176.091 203.073 175.89C202.802 175.69 202.486 175.589 202.126 175.589C201.765 175.589 201.447 175.69 201.169 175.89C200.897 176.091 200.685 176.383 200.531 176.767C200.378 177.151 200.301 177.615 200.301 178.158C200.301 178.701 200.378 179.165 200.531 179.548C200.685 179.932 200.897 180.224 201.169 180.425C201.447 180.626 201.765 180.726 202.126 180.726ZM206.83 178.379C206.411 178.379 206.071 178.226 205.811 177.919C205.557 177.606 205.43 177.198 205.43 176.696C205.43 176.194 205.557 175.79 205.811 175.483C206.071 175.17 206.411 175.013 206.83 175.013C207.243 175.013 207.58 175.167 207.84 175.474C208.099 175.781 208.229 176.188 208.229 176.696C208.229 177.204 208.099 177.612 207.84 177.919C207.58 178.226 207.243 178.379 206.83 178.379ZM210.585 175.058H211.108L206.874 181.258H206.352L210.585 175.058ZM206.83 177.981C207.119 177.981 207.35 177.868 207.521 177.644C207.698 177.414 207.786 177.098 207.786 176.696C207.786 176.295 207.698 175.982 207.521 175.757C207.35 175.527 207.119 175.412 206.83 175.412C206.535 175.412 206.301 175.527 206.13 175.757C205.959 175.988 205.873 176.301 205.873 176.696C205.873 177.092 205.959 177.405 206.13 177.635C206.301 177.865 206.535 177.981 206.83 177.981ZM210.63 181.302C210.216 181.302 209.88 181.149 209.62 180.842C209.36 180.529 209.23 180.121 209.23 179.619C209.23 179.117 209.36 178.713 209.62 178.406C209.88 178.093 210.216 177.936 210.63 177.936C211.049 177.936 211.385 178.093 211.639 178.406C211.899 178.713 212.029 179.117 212.029 179.619C212.029 180.121 211.899 180.529 211.639 180.842C211.385 181.149 211.049 181.302 210.63 181.302ZM210.63 180.904C210.925 180.904 211.158 180.788 211.329 180.558C211.501 180.328 211.586 180.015 211.586 179.619C211.586 179.224 211.501 178.911 211.329 178.68C211.158 178.45 210.925 178.335 210.63 178.335C210.34 178.335 210.107 178.45 209.93 178.68C209.759 178.905 209.673 179.218 209.673 179.619C209.673 180.021 209.759 180.337 209.93 180.567C210.107 180.791 210.34 180.904 210.63 180.904Z" fill="#2D2D2D"/>
<path id="25%" d="M199.788 210.32V210.887H195.439V210.435L198.017 207.911C198.342 207.592 198.56 207.317 198.672 207.087C198.79 206.851 198.849 206.615 198.849 206.378C198.849 206.012 198.722 205.729 198.469 205.528C198.221 205.321 197.863 205.218 197.397 205.218C196.671 205.218 196.107 205.448 195.705 205.909L195.253 205.519C195.495 205.236 195.803 205.017 196.175 204.864C196.552 204.71 196.978 204.633 197.45 204.633C198.082 204.633 198.581 204.784 198.947 205.085C199.319 205.38 199.505 205.788 199.505 206.307C199.505 206.626 199.434 206.933 199.292 207.229C199.151 207.524 198.882 207.863 198.486 208.247L196.378 210.32H199.788ZM202.218 207.229C203.116 207.229 203.768 207.391 204.176 207.716C204.589 208.035 204.796 208.483 204.796 209.062C204.796 209.422 204.71 209.744 204.539 210.028C204.374 210.311 204.123 210.535 203.786 210.701C203.45 210.86 203.036 210.94 202.546 210.94C202.103 210.94 201.681 210.869 201.28 210.727C200.884 210.58 200.565 210.385 200.323 210.143L200.633 209.638C200.84 209.85 201.111 210.025 201.448 210.16C201.784 210.29 202.148 210.355 202.537 210.355C203.051 210.355 203.447 210.24 203.724 210.01C204.008 209.78 204.149 209.473 204.149 209.089C204.149 208.664 203.99 208.342 203.671 208.123C203.358 207.905 202.827 207.796 202.077 207.796H200.757L201.076 204.687H204.468V205.253H201.634L201.421 207.229H202.218ZM206.83 208.008C206.411 208.008 206.071 207.855 205.811 207.548C205.557 207.235 205.43 206.827 205.43 206.325C205.43 205.823 205.557 205.419 205.811 205.112C206.071 204.799 206.411 204.642 206.83 204.642C207.243 204.642 207.58 204.796 207.84 205.103C208.099 205.41 208.229 205.817 208.229 206.325C208.229 206.833 208.099 207.24 207.84 207.548C207.58 207.855 207.243 208.008 206.83 208.008ZM210.585 204.687H211.108L206.874 210.887H206.352L210.585 204.687ZM206.83 207.61C207.119 207.61 207.35 207.497 207.521 207.273C207.698 207.043 207.786 206.727 207.786 206.325C207.786 205.924 207.698 205.611 207.521 205.386C207.35 205.156 207.119 205.041 206.83 205.041C206.535 205.041 206.301 205.156 206.13 205.386C205.959 205.617 205.873 205.93 205.873 206.325C205.873 206.721 205.959 207.034 206.13 207.264C206.301 207.494 206.535 207.61 206.83 207.61ZM210.63 210.931C210.216 210.931 209.88 210.777 209.62 210.47C209.36 210.157 209.23 209.75 209.23 209.248C209.23 208.746 209.36 208.342 209.62 208.035C209.88 207.722 210.216 207.565 210.63 207.565C211.049 207.565 211.385 207.722 211.639 208.035C211.899 208.342 212.029 208.746 212.029 209.248C212.029 209.75 211.899 210.157 211.639 210.47C211.385 210.777 211.049 210.931 210.63 210.931ZM210.63 210.532C210.925 210.532 211.158 210.417 211.329 210.187C211.501 209.957 211.586 209.644 211.586 209.248C211.586 208.852 211.501 208.54 211.329 208.309C211.158 208.079 210.925 207.964 210.63 207.964C210.34 207.964 210.107 208.079 209.93 208.309C209.759 208.534 209.673 208.847 209.673 209.248C209.673 209.65 209.759 209.966 209.93 210.196C210.107 210.42 210.34 210.532 210.63 210.532Z" fill="#2D2D2D"/>
<path id="01.06" d="M239.248 232.914C238.77 232.914 238.342 232.788 237.964 232.534C237.592 232.28 237.3 231.917 237.087 231.444C236.88 230.966 236.777 230.405 236.777 229.761C236.777 229.118 236.88 228.56 237.087 228.087C237.3 227.609 237.592 227.243 237.964 226.989C238.342 226.735 238.77 226.608 239.248 226.608C239.726 226.608 240.152 226.735 240.524 226.989C240.902 227.243 241.197 227.609 241.409 228.087C241.622 228.56 241.728 229.118 241.728 229.761C241.728 230.405 241.622 230.966 241.409 231.444C241.197 231.917 240.902 232.28 240.524 232.534C240.152 232.788 239.726 232.914 239.248 232.914ZM239.248 232.33C239.608 232.33 239.924 232.23 240.196 232.029C240.473 231.828 240.689 231.536 240.842 231.152C240.996 230.768 241.073 230.305 241.073 229.761C241.073 229.218 240.996 228.754 240.842 228.371C240.689 227.987 240.473 227.695 240.196 227.494C239.924 227.293 239.608 227.193 239.248 227.193C238.888 227.193 238.569 227.293 238.292 227.494C238.02 227.695 237.807 227.987 237.654 228.371C237.5 228.754 237.424 229.218 237.424 229.761C237.424 230.305 237.5 230.768 237.654 231.152C237.807 231.536 238.02 231.828 238.292 232.029C238.569 232.23 238.888 232.33 239.248 232.33ZM244.343 226.661V232.861H243.705V227.228H242.243V226.661H244.343ZM246.303 232.906C246.173 232.906 246.061 232.858 245.966 232.764C245.878 232.669 245.833 232.554 245.833 232.418C245.833 232.283 245.878 232.17 245.966 232.082C246.061 231.987 246.173 231.94 246.303 231.94C246.433 231.94 246.545 231.987 246.639 232.082C246.734 232.17 246.781 232.283 246.781 232.418C246.781 232.554 246.734 232.669 246.639 232.764C246.545 232.858 246.433 232.906 246.303 232.906ZM250.078 232.914C249.599 232.914 249.171 232.788 248.793 232.534C248.421 232.28 248.129 231.917 247.916 231.444C247.71 230.966 247.606 230.405 247.606 229.761C247.606 229.118 247.71 228.56 247.916 228.087C248.129 227.609 248.421 227.243 248.793 226.989C249.171 226.735 249.599 226.608 250.078 226.608C250.556 226.608 250.981 226.735 251.353 226.989C251.731 227.243 252.026 227.609 252.239 228.087C252.451 228.56 252.558 229.118 252.558 229.761C252.558 230.405 252.451 230.966 252.239 231.444C252.026 231.917 251.731 232.28 251.353 232.534C250.981 232.788 250.556 232.914 250.078 232.914ZM250.078 232.33C250.438 232.33 250.754 232.23 251.025 232.029C251.303 231.828 251.518 231.536 251.672 231.152C251.825 230.768 251.902 230.305 251.902 229.761C251.902 229.218 251.825 228.754 251.672 228.371C251.518 227.987 251.303 227.695 251.025 227.494C250.754 227.293 250.438 227.193 250.078 227.193C249.717 227.193 249.399 227.293 249.121 227.494C248.849 227.695 248.637 227.987 248.483 228.371C248.33 228.754 248.253 229.218 248.253 229.761C248.253 230.305 248.33 230.768 248.483 231.152C248.637 231.536 248.849 231.828 249.121 232.029C249.399 232.23 249.717 232.33 250.078 232.33ZM256.04 229.15C256.447 229.15 256.807 229.227 257.12 229.38C257.439 229.534 257.687 229.752 257.864 230.036C258.041 230.313 258.13 230.638 258.13 231.01C258.13 231.388 258.038 231.722 257.855 232.011C257.672 232.3 257.418 232.525 257.094 232.684C256.775 232.838 256.415 232.914 256.013 232.914C255.192 232.914 254.563 232.646 254.126 232.108C253.689 231.565 253.471 230.801 253.471 229.814C253.471 229.124 253.589 228.539 253.825 228.061C254.061 227.582 254.392 227.222 254.817 226.98C255.242 226.732 255.738 226.608 256.305 226.608C256.919 226.608 257.409 226.72 257.776 226.945L257.519 227.458C257.223 227.264 256.822 227.166 256.314 227.166C255.629 227.166 255.092 227.385 254.702 227.822C254.312 228.253 254.118 228.881 254.118 229.708C254.118 229.856 254.126 230.024 254.144 230.213C254.298 229.876 254.543 229.617 254.879 229.434C255.216 229.245 255.603 229.15 256.04 229.15ZM255.986 232.374C256.435 232.374 256.798 232.253 257.076 232.011C257.359 231.763 257.501 231.435 257.501 231.028C257.501 230.62 257.359 230.296 257.076 230.054C256.798 229.811 256.42 229.69 255.942 229.69C255.629 229.69 255.352 229.749 255.11 229.868C254.873 229.986 254.687 230.148 254.552 230.355C254.416 230.561 254.348 230.792 254.348 231.046C254.348 231.282 254.41 231.5 254.534 231.701C254.664 231.902 254.853 232.064 255.101 232.188C255.349 232.312 255.644 232.374 255.986 232.374Z" fill="#2D2D2D"/>
<path id="01.07" d="M297.705 232.914C297.227 232.914 296.799 232.788 296.421 232.534C296.049 232.28 295.757 231.917 295.544 231.444C295.337 230.966 295.234 230.405 295.234 229.761C295.234 229.118 295.337 228.56 295.544 228.087C295.757 227.609 296.049 227.243 296.421 226.989C296.799 226.735 297.227 226.608 297.705 226.608C298.184 226.608 298.609 226.735 298.981 226.989C299.359 227.243 299.654 227.609 299.866 228.087C300.079 228.56 300.185 229.118 300.185 229.761C300.185 230.405 300.079 230.966 299.866 231.444C299.654 231.917 299.359 232.28 298.981 232.534C298.609 232.788 298.184 232.914 297.705 232.914ZM297.705 232.33C298.065 232.33 298.381 232.23 298.653 232.029C298.93 231.828 299.146 231.536 299.3 231.152C299.453 230.768 299.53 230.305 299.53 229.761C299.53 229.218 299.453 228.754 299.3 228.371C299.146 227.987 298.93 227.695 298.653 227.494C298.381 227.293 298.065 227.193 297.705 227.193C297.345 227.193 297.026 227.293 296.749 227.494C296.477 227.695 296.264 227.987 296.111 228.371C295.957 228.754 295.881 229.218 295.881 229.761C295.881 230.305 295.957 230.768 296.111 231.152C296.264 231.536 296.477 231.828 296.749 232.029C297.026 232.23 297.345 232.33 297.705 232.33ZM302.8 226.661V232.861H302.162V227.228H300.7V226.661H302.8ZM304.76 232.906C304.63 232.906 304.518 232.858 304.423 232.764C304.335 232.669 304.29 232.554 304.29 232.418C304.29 232.283 304.335 232.17 304.423 232.082C304.518 231.987 304.63 231.94 304.76 231.94C304.89 231.94 305.002 231.987 305.096 232.082C305.191 232.17 305.238 232.283 305.238 232.418C305.238 232.554 305.191 232.669 305.096 232.764C305.002 232.858 304.89 232.906 304.76 232.906ZM308.535 232.914C308.056 232.914 307.628 232.788 307.25 232.534C306.878 232.28 306.586 231.917 306.373 231.444C306.167 230.966 306.063 230.405 306.063 229.761C306.063 229.118 306.167 228.56 306.373 228.087C306.586 227.609 306.878 227.243 307.25 226.989C307.628 226.735 308.056 226.608 308.535 226.608C309.013 226.608 309.438 226.735 309.81 226.989C310.188 227.243 310.483 227.609 310.696 228.087C310.908 228.56 311.015 229.118 311.015 229.761C311.015 230.405 310.908 230.966 310.696 231.444C310.483 231.917 310.188 232.28 309.81 232.534C309.438 232.788 309.013 232.914 308.535 232.914ZM308.535 232.33C308.895 232.33 309.211 232.23 309.482 232.029C309.76 231.828 309.975 231.536 310.129 231.152C310.282 230.768 310.359 230.305 310.359 229.761C310.359 229.218 310.282 228.754 310.129 228.371C309.975 227.987 309.76 227.695 309.482 227.494C309.211 227.293 308.895 227.193 308.535 227.193C308.174 227.193 307.856 227.293 307.578 227.494C307.306 227.695 307.094 227.987 306.94 228.371C306.787 228.754 306.71 229.218 306.71 229.761C306.71 230.305 306.787 230.768 306.94 231.152C307.094 231.536 307.306 231.828 307.578 232.029C307.856 232.23 308.174 232.33 308.535 232.33ZM316.234 226.661V227.113L313.639 232.861H312.948L315.499 227.228H312.31V228.388H311.682V226.661H316.234Z" fill="#2D2D2D"/>
<path id="01.08" d="M356.162 232.914C355.684 232.914 355.256 232.788 354.878 232.534C354.506 232.28 354.214 231.917 354.001 231.444C353.794 230.966 353.691 230.405 353.691 229.761C353.691 229.118 353.794 228.56 354.001 228.087C354.214 227.609 354.506 227.243 354.878 226.989C355.256 226.735 355.684 226.608 356.162 226.608C356.641 226.608 357.066 226.735 357.438 226.989C357.816 227.243 358.111 227.609 358.323 228.087C358.536 228.56 358.642 229.118 358.642 229.761C358.642 230.405 358.536 230.966 358.323 231.444C358.111 231.917 357.816 232.28 357.438 232.534C357.066 232.788 356.641 232.914 356.162 232.914ZM356.162 232.33C356.522 232.33 356.838 232.23 357.11 232.029C357.387 231.828 357.603 231.536 357.757 231.152C357.91 230.768 357.987 230.305 357.987 229.761C357.987 229.218 357.91 228.754 357.757 228.371C357.603 227.987 357.387 227.695 357.11 227.494C356.838 227.293 356.522 227.193 356.162 227.193C355.802 227.193 355.483 227.293 355.206 227.494C354.934 227.695 354.721 227.987 354.568 228.371C354.414 228.754 354.338 229.218 354.338 229.761C354.338 230.305 354.414 230.768 354.568 231.152C354.721 231.536 354.934 231.828 355.206 232.029C355.483 232.23 355.802 232.33 356.162 232.33ZM361.257 226.661V232.861H360.619V227.228H359.157V226.661H361.257ZM363.217 232.906C363.087 232.906 362.975 232.858 362.88 232.764C362.792 232.669 362.748 232.554 362.748 232.418C362.748 232.283 362.792 232.17 362.88 232.082C362.975 231.987 363.087 231.94 363.217 231.94C363.347 231.94 363.459 231.987 363.554 232.082C363.648 232.17 363.695 232.283 363.695 232.418C363.695 232.554 363.648 232.669 363.554 232.764C363.459 232.858 363.347 232.906 363.217 232.906ZM366.992 232.914C366.513 232.914 366.085 232.788 365.707 232.534C365.335 232.28 365.043 231.917 364.83 231.444C364.624 230.966 364.52 230.405 364.52 229.761C364.52 229.118 364.624 228.56 364.83 228.087C365.043 227.609 365.335 227.243 365.707 226.989C366.085 226.735 366.513 226.608 366.992 226.608C367.47 226.608 367.895 226.735 368.267 226.989C368.645 227.243 368.94 227.609 369.153 228.087C369.365 228.56 369.472 229.118 369.472 229.761C369.472 230.405 369.365 230.966 369.153 231.444C368.94 231.917 368.645 232.28 368.267 232.534C367.895 232.788 367.47 232.914 366.992 232.914ZM366.992 232.33C367.352 232.33 367.668 232.23 367.939 232.029C368.217 231.828 368.432 231.536 368.586 231.152C368.74 230.768 368.816 230.305 368.816 229.761C368.816 229.218 368.74 228.754 368.586 228.371C368.432 227.987 368.217 227.695 367.939 227.494C367.668 227.293 367.352 227.193 366.992 227.193C366.631 227.193 366.313 227.293 366.035 227.494C365.763 227.695 365.551 227.987 365.397 228.371C365.244 228.754 365.167 229.218 365.167 229.761C365.167 230.305 365.244 230.768 365.397 231.152C365.551 231.536 365.763 231.828 366.035 232.029C366.313 232.23 366.631 232.33 366.992 232.33ZM373.937 229.611C374.327 229.741 374.625 229.935 374.831 230.195C375.044 230.455 375.15 230.768 375.15 231.134C375.15 231.494 375.053 231.81 374.858 232.082C374.663 232.348 374.383 232.554 374.016 232.702C373.656 232.844 373.231 232.914 372.741 232.914C371.997 232.914 371.412 232.755 370.987 232.436C370.562 232.117 370.35 231.683 370.35 231.134C370.35 230.762 370.45 230.449 370.651 230.195C370.857 229.935 371.156 229.741 371.545 229.611C371.226 229.487 370.984 229.31 370.819 229.079C370.654 228.843 370.571 228.566 370.571 228.247C370.571 227.745 370.766 227.346 371.156 227.051C371.551 226.756 372.08 226.608 372.741 226.608C373.178 226.608 373.559 226.676 373.884 226.812C374.214 226.942 374.471 227.131 374.654 227.379C374.837 227.627 374.929 227.916 374.929 228.247C374.929 228.566 374.843 228.843 374.672 229.079C374.501 229.31 374.256 229.487 373.937 229.611ZM371.209 228.264C371.209 228.607 371.345 228.878 371.616 229.079C371.888 229.28 372.263 229.38 372.741 229.38C373.219 229.38 373.594 229.28 373.866 229.079C374.143 228.878 374.282 228.61 374.282 228.273C374.282 227.925 374.141 227.65 373.857 227.45C373.58 227.249 373.208 227.148 372.741 227.148C372.269 227.148 371.894 227.249 371.616 227.45C371.345 227.65 371.209 227.922 371.209 228.264ZM372.741 232.374C373.29 232.374 373.718 232.262 374.025 232.038C374.338 231.813 374.495 231.509 374.495 231.125C374.495 230.741 374.338 230.44 374.025 230.222C373.718 229.997 373.29 229.885 372.741 229.885C372.198 229.885 371.77 229.997 371.457 230.222C371.15 230.44 370.996 230.741 370.996 231.125C370.996 231.515 371.15 231.822 371.457 232.046C371.764 232.265 372.192 232.374 372.741 232.374Z" fill="#2D2D2D"/>
<path id="01.09" d="M415.51 232.914C415.032 232.914 414.603 232.788 414.226 232.534C413.854 232.28 413.561 231.917 413.349 231.444C413.142 230.966 413.039 230.405 413.039 229.761C413.039 229.118 413.142 228.56 413.349 228.087C413.561 227.609 413.854 227.243 414.226 226.989C414.603 226.735 415.032 226.608 415.51 226.608C415.988 226.608 416.413 226.735 416.785 226.989C417.163 227.243 417.459 227.609 417.671 228.087C417.884 228.56 417.99 229.118 417.99 229.761C417.99 230.405 417.884 230.966 417.671 231.444C417.459 231.917 417.163 232.28 416.785 232.534C416.413 232.788 415.988 232.914 415.51 232.914ZM415.51 232.33C415.87 232.33 416.186 232.23 416.458 232.029C416.735 231.828 416.951 231.536 417.104 231.152C417.258 230.768 417.335 230.305 417.335 229.761C417.335 229.218 417.258 228.754 417.104 228.371C416.951 227.987 416.735 227.695 416.458 227.494C416.186 227.293 415.87 227.193 415.51 227.193C415.15 227.193 414.831 227.293 414.553 227.494C414.282 227.695 414.069 227.987 413.916 228.371C413.762 228.754 413.685 229.218 413.685 229.761C413.685 230.305 413.762 230.768 413.916 231.152C414.069 231.536 414.282 231.828 414.553 232.029C414.831 232.23 415.15 232.33 415.51 232.33ZM420.604 226.661V232.861H419.967V227.228H418.505V226.661H420.604ZM422.565 232.906C422.435 232.906 422.323 232.858 422.228 232.764C422.139 232.669 422.095 232.554 422.095 232.418C422.095 232.283 422.139 232.17 422.228 232.082C422.323 231.987 422.435 231.94 422.565 231.94C422.695 231.94 422.807 231.987 422.901 232.082C422.996 232.17 423.043 232.283 423.043 232.418C423.043 232.554 422.996 232.669 422.901 232.764C422.807 232.858 422.695 232.906 422.565 232.906ZM426.339 232.914C425.861 232.914 425.433 232.788 425.055 232.534C424.683 232.28 424.391 231.917 424.178 231.444C423.971 230.966 423.868 230.405 423.868 229.761C423.868 229.118 423.971 228.56 424.178 228.087C424.391 227.609 424.683 227.243 425.055 226.989C425.433 226.735 425.861 226.608 426.339 226.608C426.818 226.608 427.243 226.735 427.615 226.989C427.993 227.243 428.288 227.609 428.501 228.087C428.713 228.56 428.819 229.118 428.819 229.761C428.819 230.405 428.713 230.966 428.501 231.444C428.288 231.917 427.993 232.28 427.615 232.534C427.243 232.788 426.818 232.914 426.339 232.914ZM426.339 232.33C426.7 232.33 427.015 232.23 427.287 232.029C427.565 231.828 427.78 231.536 427.934 231.152C428.087 230.768 428.164 230.305 428.164 229.761C428.164 229.218 428.087 228.754 427.934 228.371C427.78 227.987 427.565 227.695 427.287 227.494C427.015 227.293 426.7 227.193 426.339 227.193C425.979 227.193 425.66 227.293 425.383 227.494C425.111 227.695 424.899 227.987 424.745 228.371C424.591 228.754 424.515 229.218 424.515 229.761C424.515 230.305 424.591 230.768 424.745 231.152C424.899 231.536 425.111 231.828 425.383 232.029C425.66 232.23 425.979 232.33 426.339 232.33ZM431.664 226.608C432.484 226.608 433.113 226.88 433.55 227.423C433.987 227.96 434.206 228.722 434.206 229.708C434.206 230.399 434.088 230.984 433.851 231.462C433.615 231.94 433.284 232.303 432.859 232.551C432.434 232.793 431.938 232.914 431.371 232.914C430.757 232.914 430.267 232.802 429.901 232.578L430.158 232.064C430.453 232.259 430.855 232.356 431.362 232.356C432.047 232.356 432.585 232.141 432.974 231.71C433.364 231.273 433.559 230.641 433.559 229.814C433.559 229.661 433.55 229.493 433.532 229.31C433.379 229.646 433.134 229.909 432.797 230.098C432.461 230.281 432.074 230.372 431.637 230.372C431.23 230.372 430.866 230.296 430.548 230.142C430.235 229.989 429.99 229.773 429.812 229.496C429.635 229.212 429.547 228.884 429.547 228.512C429.547 228.134 429.638 227.801 429.821 227.512C430.004 227.222 430.255 227.001 430.574 226.847C430.899 226.688 431.262 226.608 431.664 226.608ZM431.734 229.832C432.047 229.832 432.322 229.773 432.558 229.655C432.8 229.537 432.989 229.375 433.125 229.168C433.261 228.961 433.329 228.731 433.329 228.477C433.329 228.241 433.264 228.022 433.134 227.822C433.01 227.621 432.824 227.458 432.576 227.334C432.328 227.21 432.033 227.148 431.69 227.148C431.241 227.148 430.875 227.272 430.592 227.52C430.314 227.762 430.176 228.087 430.176 228.495C430.176 228.902 430.314 229.227 430.592 229.469C430.875 229.711 431.256 229.832 431.734 229.832Z" fill="#2D2D2D"/>
<path id="01.10" d="M473.967 232.914C473.489 232.914 473.061 232.788 472.683 232.534C472.311 232.28 472.018 231.917 471.806 231.444C471.599 230.966 471.496 230.405 471.496 229.761C471.496 229.118 471.599 228.56 471.806 228.087C472.018 227.609 472.311 227.243 472.683 226.989C473.061 226.735 473.489 226.608 473.967 226.608C474.445 226.608 474.87 226.735 475.242 226.989C475.62 227.243 475.916 227.609 476.128 228.087C476.341 228.56 476.447 229.118 476.447 229.761C476.447 230.405 476.341 230.966 476.128 231.444C475.916 231.917 475.62 232.28 475.242 232.534C474.87 232.788 474.445 232.914 473.967 232.914ZM473.967 232.33C474.327 232.33 474.643 232.23 474.915 232.029C475.192 231.828 475.408 231.536 475.561 231.152C475.715 230.768 475.792 230.305 475.792 229.761C475.792 229.218 475.715 228.754 475.561 228.371C475.408 227.987 475.192 227.695 474.915 227.494C474.643 227.293 474.327 227.193 473.967 227.193C473.607 227.193 473.288 227.293 473.01 227.494C472.739 227.695 472.526 227.987 472.373 228.371C472.219 228.754 472.142 229.218 472.142 229.761C472.142 230.305 472.219 230.768 472.373 231.152C472.526 231.536 472.739 231.828 473.01 232.029C473.288 232.23 473.607 232.33 473.967 232.33ZM479.061 226.661V232.861H478.424V227.228H476.962V226.661H479.061ZM481.022 232.906C480.892 232.906 480.78 232.858 480.685 232.764C480.596 232.669 480.552 232.554 480.552 232.418C480.552 232.283 480.596 232.17 480.685 232.082C480.78 231.987 480.892 231.94 481.022 231.94C481.152 231.94 481.264 231.987 481.358 232.082C481.453 232.17 481.5 232.283 481.5 232.418C481.5 232.554 481.453 232.669 481.358 232.764C481.264 232.858 481.152 232.906 481.022 232.906ZM484.035 226.661V232.861H483.397V227.228H481.936V226.661H484.035ZM487.988 232.914C487.51 232.914 487.082 232.788 486.704 232.534C486.332 232.28 486.04 231.917 485.827 231.444C485.62 230.966 485.517 230.405 485.517 229.761C485.517 229.118 485.62 228.56 485.827 228.087C486.04 227.609 486.332 227.243 486.704 226.989C487.082 226.735 487.51 226.608 487.988 226.608C488.466 226.608 488.892 226.735 489.264 226.989C489.641 227.243 489.937 227.609 490.149 228.087C490.362 228.56 490.468 229.118 490.468 229.761C490.468 230.405 490.362 230.966 490.149 231.444C489.937 231.917 489.641 232.28 489.264 232.534C488.892 232.788 488.466 232.914 487.988 232.914ZM487.988 232.33C488.348 232.33 488.664 232.23 488.936 232.029C489.213 231.828 489.429 231.536 489.582 231.152C489.736 230.768 489.813 230.305 489.813 229.761C489.813 229.218 489.736 228.754 489.582 228.371C489.429 227.987 489.213 227.695 488.936 227.494C488.664 227.293 488.348 227.193 487.988 227.193C487.628 227.193 487.309 227.293 487.032 227.494C486.76 227.695 486.547 227.987 486.394 228.371C486.24 228.754 486.164 229.218 486.164 229.761C486.164 230.305 486.24 230.768 486.394 231.152C486.547 231.536 486.76 231.828 487.032 232.029C487.309 232.23 487.628 232.33 487.988 232.33Z" fill="#2D2D2D"/>
<line id="Line 28" x1="205.316" y1="219.989" x2="492.293" y2="219.989" stroke="#707070" stroke-opacity="0.3" stroke-width="0.885731"/>
<line id="Line 29" x1="220.815" y1="231.945" x2="220.815" y2="116.8" stroke="#707070" stroke-opacity="0.3" stroke-width="0.885731"/>
<g id="1-1-range-max">
<path id="Vector 18" d="M226.574 208.918C277.061 176.157 397.697 111.356 476.35 114.238" stroke="#8D52C6" stroke-width="3" stroke-linecap="round"/>
</g>
</g>
<path id="Vector 18_2" d="M226.574 208.918C228.276 207.814 230.057 206.673 231.914 205.5" stroke="#8D52C6" stroke-width="3" stroke-linecap="round"/>
</g>
<g id="1-2">
<g id="Rectangle 505" filter="url(#filter1_d_1104_3253)">
<rect x="34" y="154" width="415" height="165" rx="10" fill="white"/>
<rect x="34" y="154" width="415" height="165" rx="10" fill="url(#paint1_linear_1104_3253)"/>
<rect x="34" y="154" width="415" height="165" rx="10" fill="url(#paint2_linear_1104_3253)"/>
</g>
<g id="groupppp">
<path id="&#208;&#163;&#208;&#178;&#208;&#181;&#208;&#187;&#208;&#184;&#209;&#135;&#208;&#184;&#208;&#178;&#208;&#176;&#208;&#181;&#209;&#130; Click Rate" d="M69.688 176.8L64.6 186.224C64.2373 186.896 63.8107 187.397 63.32 187.728C62.84 188.048 62.312 188.208 61.736 188.208C61.3093 188.208 60.8507 188.107 60.36 187.904L60.696 186.944C61.08 187.093 61.432 187.168 61.752 187.168C62.488 187.168 63.0907 186.768 63.56 185.968L63.88 185.424L59.336 176.8H60.6L64.504 184.384L68.504 176.8H69.688ZM76.2885 183.648C77.4298 183.915 78.0005 184.603 78.0005 185.712C78.0005 186.448 77.7285 187.013 77.1845 187.408C76.6405 187.803 75.8298 188 74.7525 188H70.9285V179.584H74.6405C75.6005 179.584 76.3525 179.771 76.8965 180.144C77.4405 180.517 77.7125 181.051 77.7125 181.744C77.7125 182.203 77.5845 182.597 77.3285 182.928C77.0832 183.248 76.7365 183.488 76.2885 183.648ZM72.0325 183.328H74.5605C75.2112 183.328 75.7072 183.205 76.0485 182.96C76.4005 182.715 76.5765 182.357 76.5765 181.888C76.5765 181.419 76.4005 181.067 76.0485 180.832C75.7072 180.597 75.2112 180.48 74.5605 180.48H72.0325V183.328ZM74.7045 187.104C75.4298 187.104 75.9738 186.987 76.3365 186.752C76.6992 186.517 76.8805 186.149 76.8805 185.648C76.8805 185.147 76.7152 184.779 76.3845 184.544C76.0538 184.299 75.5312 184.176 74.8165 184.176H72.0325V187.104H74.7045ZM88.0229 184.144H80.9829C81.0469 185.019 81.3829 185.728 81.9909 186.272C82.5989 186.805 83.3669 187.072 84.2949 187.072C84.8175 187.072 85.2975 186.981 85.7349 186.8C86.1722 186.608 86.5509 186.331 86.8709 185.968L87.5109 186.704C87.1375 187.152 86.6682 187.493 86.1029 187.728C85.5482 187.963 84.9349 188.08 84.2629 188.08C83.3989 188.08 82.6309 187.899 81.9589 187.536C81.2975 187.163 80.7802 186.651 80.4069 186C80.0335 185.349 79.8469 184.613 79.8469 183.792C79.8469 182.971 80.0229 182.235 80.3749 181.584C80.7375 180.933 81.2282 180.427 81.8469 180.064C82.4762 179.701 83.1802 179.52 83.9589 179.52C84.7375 179.52 85.4362 179.701 86.0549 180.064C86.6735 180.427 87.1589 180.933 87.5109 181.584C87.8629 182.224 88.0389 182.96 88.0389 183.792L88.0229 184.144ZM83.9589 180.496C83.1482 180.496 82.4655 180.757 81.9109 181.28C81.3669 181.792 81.0575 182.464 80.9829 183.296H86.9509C86.8762 182.464 86.5615 181.792 86.0069 181.28C85.4629 180.757 84.7802 180.496 83.9589 180.496ZM97.2616 179.584V188H96.1256V180.592H92.0936L91.9816 182.672C91.8963 184.421 91.6936 185.765 91.3736 186.704C91.0536 187.643 90.483 188.112 89.6616 188.112C89.4376 188.112 89.1656 188.069 88.8456 187.984L88.9256 187.008C89.1176 187.051 89.251 187.072 89.3256 187.072C89.763 187.072 90.0936 186.869 90.3176 186.464C90.5416 186.059 90.691 185.557 90.7656 184.96C90.8403 184.363 90.9043 183.573 90.9576 182.592L91.1016 179.584H97.2616ZM100.491 179.584H101.627V186.272L107.243 179.584H108.251V188H107.115V181.312L101.515 188H100.491V179.584ZM117.859 179.584V188H116.723V184.496C115.752 184.923 114.797 185.136 113.859 185.136C112.845 185.136 112.056 184.907 111.491 184.448C110.925 183.979 110.643 183.28 110.643 182.352V179.584H111.779V182.288C111.779 182.917 111.981 183.397 112.387 183.728C112.792 184.048 113.352 184.208 114.067 184.208C114.856 184.208 115.741 184 116.723 183.584V179.584H117.859ZM121.085 179.584H122.221V186.272L127.837 179.584H128.845V188H127.709V181.312L122.109 188H121.085V179.584ZM137.46 183.648C138.602 183.915 139.172 184.603 139.172 185.712C139.172 186.448 138.9 187.013 138.356 187.408C137.812 187.803 137.002 188 135.924 188H132.1V179.584H135.812C136.772 179.584 137.524 179.771 138.068 180.144C138.612 180.517 138.884 181.051 138.884 181.744C138.884 182.203 138.756 182.597 138.5 182.928C138.255 183.248 137.908 183.488 137.46 183.648ZM133.204 183.328H135.732C136.383 183.328 136.879 183.205 137.22 182.96C137.572 182.715 137.748 182.357 137.748 181.888C137.748 181.419 137.572 181.067 137.22 180.832C136.879 180.597 136.383 180.48 135.732 180.48H133.204V183.328ZM135.876 187.104C136.602 187.104 137.146 186.987 137.508 186.752C137.871 186.517 138.052 186.149 138.052 185.648C138.052 185.147 137.887 184.779 137.556 184.544C137.226 184.299 136.703 184.176 135.988 184.176H133.204V187.104H135.876ZM144.731 179.52C145.829 179.52 146.672 179.797 147.259 180.352C147.845 180.896 148.139 181.707 148.139 182.784V188H147.051V186.688C146.795 187.125 146.416 187.467 145.915 187.712C145.424 187.957 144.837 188.08 144.155 188.08C143.216 188.08 142.469 187.856 141.915 187.408C141.36 186.96 141.083 186.368 141.083 185.632C141.083 184.917 141.339 184.341 141.851 183.904C142.373 183.467 143.2 183.248 144.331 183.248H147.003V182.736C147.003 182.011 146.8 181.461 146.395 181.088C145.989 180.704 145.397 180.512 144.619 180.512C144.085 180.512 143.573 180.603 143.083 180.784C142.592 180.955 142.171 181.195 141.819 181.504L141.307 180.656C141.733 180.293 142.245 180.016 142.843 179.824C143.44 179.621 144.069 179.52 144.731 179.52ZM144.331 187.184C144.971 187.184 145.52 187.04 145.979 186.752C146.437 186.453 146.779 186.027 147.003 185.472V184.096H144.363C142.923 184.096 142.203 184.597 142.203 185.6C142.203 186.091 142.389 186.48 142.763 186.768C143.136 187.045 143.659 187.184 144.331 187.184ZM158.523 184.144H151.483C151.547 185.019 151.883 185.728 152.491 186.272C153.099 186.805 153.867 187.072 154.795 187.072C155.318 187.072 155.798 186.981 156.235 186.8C156.672 186.608 157.051 186.331 157.371 185.968L158.011 186.704C157.638 187.152 157.168 187.493 156.603 187.728C156.048 187.963 155.435 188.08 154.763 188.08C153.899 188.08 153.131 187.899 152.459 187.536C151.798 187.163 151.28 186.651 150.907 186C150.534 185.349 150.347 184.613 150.347 183.792C150.347 182.971 150.523 182.235 150.875 181.584C151.238 180.933 151.728 180.427 152.347 180.064C152.976 179.701 153.68 179.52 154.459 179.52C155.238 179.52 155.936 179.701 156.555 180.064C157.174 180.427 157.659 180.933 158.011 181.584C158.363 182.224 158.539 182.96 158.539 183.792L158.523 184.144ZM154.459 180.496C153.648 180.496 152.966 180.757 152.411 181.28C151.867 181.792 151.558 182.464 151.483 183.296H157.451C157.376 182.464 157.062 181.792 156.507 181.28C155.963 180.757 155.28 180.496 154.459 180.496ZM166.599 180.592H163.415V188H162.279V180.592H159.095V179.584H166.599V180.592ZM177.501 188.096C176.391 188.096 175.389 187.851 174.493 187.36C173.607 186.869 172.909 186.192 172.397 185.328C171.895 184.453 171.645 183.477 171.645 182.4C171.645 181.323 171.895 180.352 172.397 179.488C172.909 178.613 173.613 177.931 174.509 177.44C175.405 176.949 176.407 176.704 177.517 176.704C178.349 176.704 179.117 176.843 179.821 177.12C180.525 177.397 181.122 177.803 181.613 178.336L180.861 179.088C179.986 178.203 178.882 177.76 177.549 177.76C176.663 177.76 175.858 177.963 175.133 178.368C174.407 178.773 173.837 179.328 173.421 180.032C173.015 180.736 172.812 181.525 172.812 182.4C172.812 183.275 173.015 184.064 173.421 184.768C173.837 185.472 174.407 186.027 175.133 186.432C175.858 186.837 176.663 187.04 177.549 187.04C178.893 187.04 179.997 186.592 180.861 185.696L181.613 186.448C181.122 186.981 180.519 187.392 179.805 187.68C179.101 187.957 178.333 188.096 177.501 188.096ZM183.897 176.128H185.033V188H183.897V176.128ZM188.193 179.584H189.329V188H188.193V179.584ZM188.769 177.744C188.535 177.744 188.337 177.664 188.177 177.504C188.017 177.344 187.937 177.152 187.937 176.928C187.937 176.715 188.017 176.528 188.177 176.368C188.337 176.208 188.535 176.128 188.769 176.128C189.004 176.128 189.201 176.208 189.361 176.368C189.521 176.517 189.601 176.699 189.601 176.912C189.601 177.147 189.521 177.344 189.361 177.504C189.201 177.664 189.004 177.744 188.769 177.744ZM195.978 188.08C195.146 188.08 194.4 187.899 193.738 187.536C193.088 187.173 192.576 186.667 192.202 186.016C191.829 185.355 191.642 184.613 191.642 183.792C191.642 182.971 191.829 182.235 192.202 181.584C192.576 180.933 193.088 180.427 193.738 180.064C194.4 179.701 195.146 179.52 195.978 179.52C196.704 179.52 197.349 179.664 197.914 179.952C198.49 180.229 198.944 180.64 199.274 181.184L198.426 181.76C198.149 181.344 197.797 181.035 197.37 180.832C196.944 180.619 196.48 180.512 195.978 180.512C195.37 180.512 194.821 180.651 194.33 180.928C193.85 181.195 193.472 181.579 193.194 182.08C192.928 182.581 192.794 183.152 192.794 183.792C192.794 184.443 192.928 185.019 193.194 185.52C193.472 186.011 193.85 186.395 194.33 186.672C194.821 186.939 195.37 187.072 195.978 187.072C196.48 187.072 196.944 186.971 197.37 186.768C197.797 186.565 198.149 186.256 198.426 185.84L199.274 186.416C198.944 186.96 198.49 187.376 197.914 187.664C197.338 187.941 196.693 188.08 195.978 188.08ZM204.501 183.776L202.517 185.6V188H201.381V176.128H202.517V184.176L207.541 179.584H208.949L205.349 183.024L209.285 188H207.893L204.501 183.776ZM223.066 188L220.506 184.4C220.218 184.432 219.919 184.448 219.61 184.448H216.602V188H215.418V176.8H219.61C221.039 176.8 222.159 177.141 222.97 177.824C223.78 178.507 224.186 179.445 224.186 180.64C224.186 181.515 223.962 182.256 223.514 182.864C223.076 183.461 222.447 183.893 221.626 184.16L224.362 188H223.066ZM219.578 183.44C220.687 183.44 221.535 183.195 222.122 182.704C222.708 182.213 223.002 181.525 223.002 180.64C223.002 179.733 222.708 179.04 222.122 178.56C221.535 178.069 220.687 177.824 219.578 177.824H216.602V183.44H219.578ZM229.606 179.52C230.705 179.52 231.547 179.797 232.134 180.352C232.721 180.896 233.014 181.707 233.014 182.784V188H231.926V186.688C231.67 187.125 231.291 187.467 230.79 187.712C230.299 187.957 229.713 188.08 229.03 188.08C228.091 188.08 227.345 187.856 226.79 187.408C226.235 186.96 225.958 186.368 225.958 185.632C225.958 184.917 226.214 184.341 226.726 183.904C227.249 183.467 228.075 183.248 229.206 183.248H231.878V182.736C231.878 182.011 231.675 181.461 231.27 181.088C230.865 180.704 230.273 180.512 229.494 180.512C228.961 180.512 228.449 180.603 227.958 180.784C227.467 180.955 227.046 181.195 226.694 181.504L226.182 180.656C226.609 180.293 227.121 180.016 227.718 179.824C228.315 179.621 228.945 179.52 229.606 179.52ZM229.206 187.184C229.846 187.184 230.395 187.04 230.854 186.752C231.313 186.453 231.654 186.027 231.878 185.472V184.096H229.238C227.798 184.096 227.078 184.597 227.078 185.6C227.078 186.091 227.265 186.48 227.638 186.768C228.011 187.045 228.534 187.184 229.206 187.184ZM240.532 187.488C240.318 187.68 240.052 187.829 239.732 187.936C239.422 188.032 239.097 188.08 238.756 188.08C237.966 188.08 237.358 187.867 236.932 187.44C236.505 187.013 236.292 186.411 236.292 185.632V180.544H234.788V179.584H236.292V177.744H237.428V179.584H239.988V180.544H237.428V185.568C237.428 186.069 237.55 186.453 237.796 186.72C238.052 186.976 238.414 187.104 238.884 187.104C239.118 187.104 239.342 187.067 239.556 186.992C239.78 186.917 239.972 186.811 240.132 186.672L240.532 187.488ZM249.631 184.144H242.591C242.655 185.019 242.991 185.728 243.599 186.272C244.207 186.805 244.975 187.072 245.903 187.072C246.425 187.072 246.905 186.981 247.343 186.8C247.78 186.608 248.159 186.331 248.479 185.968L249.119 186.704C248.745 187.152 248.276 187.493 247.711 187.728C247.156 187.963 246.543 188.08 245.871 188.08C245.007 188.08 244.239 187.899 243.567 187.536C242.905 187.163 242.388 186.651 242.015 186C241.641 185.349 241.455 184.613 241.455 183.792C241.455 182.971 241.631 182.235 241.983 181.584C242.345 180.933 242.836 180.427 243.455 180.064C244.084 179.701 244.788 179.52 245.567 179.52C246.345 179.52 247.044 179.701 247.663 180.064C248.281 180.427 248.767 180.933 249.119 181.584C249.471 182.224 249.647 182.96 249.647 183.792L249.631 184.144ZM245.567 180.496C244.756 180.496 244.073 180.757 243.519 181.28C242.975 181.792 242.665 182.464 242.591 183.296H248.559C248.484 182.464 248.169 181.792 247.615 181.28C247.071 180.757 246.388 180.496 245.567 180.496Z" fill="#2B2B2B"/>
<g id="Group 1235">
<g id="Group 1234">
<rect id="Rectangle 506" x="54" y="200" width="345" height="12" rx="6" fill="white" fill-opacity="0.7"/>
<g id="1-2-scale-1">
<rect id="Rectangle 507" x="55" y="201" width="10" height="10" rx="5" fill="url(#paint3_linear_1104_3253)" fill-opacity="0.4"/>
</g>
</g>
<circle id="Ellipse 176" cx="399.5" cy="205.5" r="23.5" fill="#FAFEFD"/>
<path id="43%" d="M395.024 209.138H392.792V212H390.524V209.138H383.612V207.518L389.822 199.4H392.324L386.474 207.158H390.596V204.62H392.792V207.158H395.024V209.138ZM401.197 204.602C402.361 204.746 403.249 205.142 403.861 205.79C404.473 206.438 404.779 207.248 404.779 208.22C404.779 208.952 404.593 209.618 404.221 210.218C403.849 210.818 403.285 211.298 402.529 211.658C401.785 212.006 400.873 212.18 399.793 212.18C398.893 212.18 398.023 212.054 397.183 211.802C396.355 211.538 395.647 211.178 395.059 210.722L396.067 208.904C396.523 209.288 397.075 209.594 397.723 209.822C398.383 210.038 399.061 210.146 399.757 210.146C400.585 210.146 401.233 209.978 401.701 209.642C402.181 209.294 402.421 208.826 402.421 208.238C402.421 207.65 402.193 207.194 401.737 206.87C401.293 206.534 400.609 206.366 399.685 206.366H398.533V204.764L401.395 201.362H395.671V199.4H404.257V200.966L401.197 204.602ZM408.942 206.186C408.042 206.186 407.316 205.868 406.764 205.232C406.212 204.596 405.936 203.762 405.936 202.73C405.936 201.698 406.212 200.864 406.764 200.228C407.316 199.592 408.042 199.274 408.942 199.274C409.842 199.274 410.568 199.592 411.12 200.228C411.684 200.852 411.966 201.686 411.966 202.73C411.966 203.774 411.684 204.614 411.12 205.25C410.568 205.874 409.842 206.186 408.942 206.186ZM416.502 199.4H418.266L409.662 212H407.898L416.502 199.4ZM408.942 204.926C409.434 204.926 409.812 204.734 410.076 204.35C410.352 203.966 410.49 203.426 410.49 202.73C410.49 202.034 410.352 201.494 410.076 201.11C409.812 200.726 409.434 200.534 408.942 200.534C408.474 200.534 408.096 200.732 407.808 201.128C407.532 201.512 407.394 202.046 407.394 202.73C407.394 203.414 407.532 203.954 407.808 204.35C408.096 204.734 408.474 204.926 408.942 204.926ZM417.204 212.126C416.304 212.126 415.578 211.808 415.026 211.172C414.474 210.536 414.198 209.702 414.198 208.67C414.198 207.638 414.474 206.804 415.026 206.168C415.578 205.532 416.304 205.214 417.204 205.214C418.104 205.214 418.83 205.532 419.382 206.168C419.946 206.804 420.228 207.638 420.228 208.67C420.228 209.702 419.946 210.536 419.382 211.172C418.83 211.808 418.104 212.126 417.204 212.126ZM417.204 210.866C417.684 210.866 418.062 210.674 418.338 210.29C418.614 209.894 418.752 209.354 418.752 208.67C418.752 207.986 418.614 207.452 418.338 207.068C418.062 206.672 417.684 206.474 417.204 206.474C416.724 206.474 416.346 206.666 416.07 207.05C415.794 207.434 415.656 207.974 415.656 208.67C415.656 209.366 415.794 209.906 416.07 210.29C416.346 210.674 416.724 210.866 417.204 210.866Z" fill="#2D2D2D"/>
</g>
</g>
<g id="Group 1237">
<path id="&#208;&#155;&#208;&#190;&#209;&#143;&#208;&#187;&#209;&#140;&#208;&#189;&#208;&#190;&#209;&#129;&#209;&#130;&#209;&#140; &#208;&#176;&#209;&#131;&#208;&#180;&#208;&#184;&#209;&#130;&#208;&#190;&#209;&#128;&#208;&#184;&#208;&#184;" d="M69.672 244.8V256H68.504V245.824H63.096L62.968 249.568C62.9147 251.115 62.7867 252.363 62.584 253.312C62.392 254.251 62.0933 254.955 61.688 255.424C61.2827 255.883 60.744 256.112 60.072 256.112C59.784 256.112 59.4853 256.075 59.176 256L59.272 254.944C59.4533 254.987 59.6293 255.008 59.8 255.008C60.2693 255.008 60.648 254.821 60.936 254.448C61.2347 254.075 61.4587 253.499 61.608 252.72C61.7573 251.931 61.8587 250.891 61.912 249.6L62.072 244.8H69.672ZM76.6505 256.08C75.8398 256.08 75.1092 255.899 74.4585 255.536C73.8078 255.163 73.2958 254.651 72.9225 254C72.5492 253.349 72.3625 252.613 72.3625 251.792C72.3625 250.971 72.5492 250.235 72.9225 249.584C73.2958 248.933 73.8078 248.427 74.4585 248.064C75.1092 247.701 75.8398 247.52 76.6505 247.52C77.4612 247.52 78.1918 247.701 78.8425 248.064C79.4932 248.427 79.9998 248.933 80.3625 249.584C80.7358 250.235 80.9225 250.971 80.9225 251.792C80.9225 252.613 80.7358 253.349 80.3625 254C79.9998 254.651 79.4932 255.163 78.8425 255.536C78.1918 255.899 77.4612 256.08 76.6505 256.08ZM76.6505 255.072C77.2478 255.072 77.7812 254.939 78.2505 254.672C78.7305 254.395 79.1038 254.005 79.3705 253.504C79.6372 253.003 79.7705 252.432 79.7705 251.792C79.7705 251.152 79.6372 250.581 79.3705 250.08C79.1038 249.579 78.7305 249.195 78.2505 248.928C77.7812 248.651 77.2478 248.512 76.6505 248.512C76.0532 248.512 75.5145 248.651 75.0345 248.928C74.5652 249.195 74.1918 249.579 73.9145 250.08C73.6478 250.581 73.5145 251.152 73.5145 251.792C73.5145 252.432 73.6478 253.003 73.9145 253.504C74.1918 254.005 74.5652 254.395 75.0345 254.672C75.5145 254.939 76.0532 255.072 76.6505 255.072ZM89.5175 247.584V256H88.4775V253.216H85.8375H85.5175L83.5655 256H82.3335L84.4295 253.056C83.7788 252.875 83.2775 252.565 82.9255 252.128C82.5735 251.691 82.3975 251.136 82.3975 250.464C82.3975 249.525 82.7175 248.811 83.3575 248.32C83.9975 247.829 84.8722 247.584 85.9815 247.584H89.5175ZM83.5495 250.496C83.5495 251.744 84.3442 252.368 85.9335 252.368H88.4775V248.592H86.0135C84.3708 248.592 83.5495 249.227 83.5495 250.496ZM99.6366 247.584V256H98.5006V248.592H94.4686L94.3566 250.672C94.2713 252.421 94.0686 253.765 93.7486 254.704C93.4286 255.643 92.858 256.112 92.0366 256.112C91.8126 256.112 91.5406 256.069 91.2206 255.984L91.3006 255.008C91.4926 255.051 91.626 255.072 91.7006 255.072C92.138 255.072 92.4686 254.869 92.6926 254.464C92.9166 254.059 93.066 253.557 93.1406 252.96C93.2153 252.363 93.2793 251.573 93.3326 250.592L93.4766 247.584H99.6366ZM106.482 250.56C107.538 250.571 108.338 250.805 108.882 251.264C109.437 251.723 109.714 252.384 109.714 253.248C109.714 254.144 109.415 254.832 108.818 255.312C108.231 255.792 107.378 256.027 106.258 256.016L102.866 256V247.584H104.002V250.528L106.482 250.56ZM106.194 255.152C106.973 255.163 107.559 255.008 107.954 254.688C108.359 254.357 108.562 253.877 108.562 253.248C108.562 252.629 108.365 252.171 107.97 251.872C107.575 251.573 106.983 251.419 106.194 251.408L104.002 251.376V255.12L106.194 255.152ZM111.882 247.584H113.018V251.312H118.314V247.584H119.45V256H118.314V252.288H113.018V256H111.882V247.584ZM126.151 256.08C125.34 256.08 124.609 255.899 123.959 255.536C123.308 255.163 122.796 254.651 122.423 254C122.049 253.349 121.863 252.613 121.863 251.792C121.863 250.971 122.049 250.235 122.423 249.584C122.796 248.933 123.308 248.427 123.959 248.064C124.609 247.701 125.34 247.52 126.151 247.52C126.961 247.52 127.692 247.701 128.343 248.064C128.993 248.427 129.5 248.933 129.863 249.584C130.236 250.235 130.423 250.971 130.423 251.792C130.423 252.613 130.236 253.349 129.863 254C129.5 254.651 128.993 255.163 128.343 255.536C127.692 255.899 126.961 256.08 126.151 256.08ZM126.151 255.072C126.748 255.072 127.281 254.939 127.751 254.672C128.231 254.395 128.604 254.005 128.871 253.504C129.137 253.003 129.271 252.432 129.271 251.792C129.271 251.152 129.137 250.581 128.871 250.08C128.604 249.579 128.231 249.195 127.751 248.928C127.281 248.651 126.748 248.512 126.151 248.512C125.553 248.512 125.015 248.651 124.535 248.928C124.065 249.195 123.692 249.579 123.414 250.08C123.148 250.581 123.015 251.152 123.015 251.792C123.015 252.432 123.148 253.003 123.414 253.504C123.692 254.005 124.065 254.395 124.535 254.672C125.015 254.939 125.553 255.072 126.151 255.072ZM136.37 256.08C135.538 256.08 134.792 255.899 134.13 255.536C133.48 255.173 132.968 254.667 132.594 254.016C132.221 253.355 132.034 252.613 132.034 251.792C132.034 250.971 132.221 250.235 132.594 249.584C132.968 248.933 133.48 248.427 134.13 248.064C134.792 247.701 135.538 247.52 136.37 247.52C137.096 247.52 137.741 247.664 138.306 247.952C138.882 248.229 139.336 248.64 139.666 249.184L138.818 249.76C138.541 249.344 138.189 249.035 137.762 248.832C137.336 248.619 136.872 248.512 136.37 248.512C135.762 248.512 135.213 248.651 134.722 248.928C134.242 249.195 133.864 249.579 133.586 250.08C133.32 250.581 133.186 251.152 133.186 251.792C133.186 252.443 133.32 253.019 133.586 253.52C133.864 254.011 134.242 254.395 134.722 254.672C135.213 254.939 135.762 255.072 136.37 255.072C136.872 255.072 137.336 254.971 137.762 254.768C138.189 254.565 138.541 254.256 138.818 253.84L139.666 254.416C139.336 254.96 138.882 255.376 138.306 255.664C137.73 255.941 137.085 256.08 136.37 256.08ZM147.63 248.592H144.446V256H143.31V248.592H140.126V247.584H147.63V248.592ZM152.888 250.56C153.944 250.571 154.744 250.805 155.288 251.264C155.843 251.723 156.12 252.384 156.12 253.248C156.12 254.144 155.822 254.832 155.224 255.312C154.638 255.792 153.784 256.027 152.664 256.016L149.272 256V247.584H150.408V250.528L152.888 250.56ZM152.6 255.152C153.379 255.163 153.966 255.008 154.36 254.688C154.766 254.357 154.968 253.877 154.968 253.248C154.968 252.629 154.771 252.171 154.376 251.872C153.982 251.573 153.39 251.419 152.6 251.408L150.408 251.376V255.12L152.6 255.152ZM165.371 247.52C166.47 247.52 167.313 247.797 167.899 248.352C168.486 248.896 168.779 249.707 168.779 250.784V256H167.691V254.688C167.435 255.125 167.057 255.467 166.555 255.712C166.065 255.957 165.478 256.08 164.795 256.08C163.857 256.08 163.11 255.856 162.555 255.408C162.001 254.96 161.723 254.368 161.723 253.632C161.723 252.917 161.979 252.341 162.491 251.904C163.014 251.467 163.841 251.248 164.971 251.248H167.643V250.736C167.643 250.011 167.441 249.461 167.035 249.088C166.63 248.704 166.038 248.512 165.259 248.512C164.726 248.512 164.214 248.603 163.723 248.784C163.233 248.955 162.811 249.195 162.459 249.504L161.947 248.656C162.374 248.293 162.886 248.016 163.483 247.824C164.081 247.621 164.71 247.52 165.371 247.52ZM164.971 255.184C165.611 255.184 166.161 255.04 166.619 254.752C167.078 254.453 167.419 254.027 167.643 253.472V252.096H165.003C163.563 252.096 162.843 252.597 162.843 253.6C162.843 254.091 163.03 254.48 163.403 254.768C163.777 255.045 164.299 255.184 164.971 255.184ZM178.956 247.584L174.748 257.008C174.406 257.797 174.012 258.357 173.564 258.688C173.116 259.019 172.577 259.184 171.948 259.184C171.542 259.184 171.164 259.12 170.812 258.992C170.46 258.864 170.155 258.672 169.899 258.416L170.428 257.568C170.854 257.995 171.366 258.208 171.964 258.208C172.348 258.208 172.673 258.101 172.94 257.888C173.217 257.675 173.473 257.312 173.708 256.8L174.076 255.984L170.316 247.584H171.5L174.668 254.736L177.836 247.584H178.956ZM188.558 255.008V258.032H187.486V256H179.95V258.032H178.878V255.008H179.358C179.924 254.976 180.308 254.56 180.51 253.76C180.713 252.96 180.852 251.84 180.926 250.4L181.038 247.584H187.246V255.008H188.558ZM181.966 250.464C181.913 251.659 181.812 252.645 181.662 253.424C181.513 254.192 181.246 254.72 180.862 255.008H186.11V248.592H182.062L181.966 250.464ZM190.772 247.584H191.908V254.272L197.524 247.584H198.532V256H197.396V249.312L191.796 256H190.772V247.584ZM207.708 248.592H204.524V256H203.388V248.592H200.204V247.584H207.708V248.592ZM212.432 256.08C211.621 256.08 210.89 255.899 210.24 255.536C209.589 255.163 209.077 254.651 208.704 254C208.33 253.349 208.144 252.613 208.144 251.792C208.144 250.971 208.33 250.235 208.704 249.584C209.077 248.933 209.589 248.427 210.24 248.064C210.89 247.701 211.621 247.52 212.432 247.52C213.242 247.52 213.973 247.701 214.624 248.064C215.274 248.427 215.781 248.933 216.144 249.584C216.517 250.235 216.704 250.971 216.704 251.792C216.704 252.613 216.517 253.349 216.144 254C215.781 254.651 215.274 255.163 214.624 255.536C213.973 255.899 213.242 256.08 212.432 256.08ZM212.432 255.072C213.029 255.072 213.562 254.939 214.032 254.672C214.512 254.395 214.885 254.005 215.152 253.504C215.418 253.003 215.552 252.432 215.552 251.792C215.552 251.152 215.418 250.581 215.152 250.08C214.885 249.579 214.512 249.195 214.032 248.928C213.562 248.651 213.029 248.512 212.432 248.512C211.834 248.512 211.296 248.651 210.816 248.928C210.346 249.195 209.973 249.579 209.696 250.08C209.429 250.581 209.296 251.152 209.296 251.792C209.296 252.432 209.429 253.003 209.696 253.504C209.973 254.005 210.346 254.395 210.816 254.672C211.296 254.939 211.834 255.072 212.432 255.072ZM223.468 247.52C224.257 247.52 224.972 247.701 225.612 248.064C226.252 248.416 226.753 248.917 227.116 249.568C227.478 250.219 227.66 250.96 227.66 251.792C227.66 252.635 227.478 253.381 227.116 254.032C226.753 254.683 226.252 255.189 225.612 255.552C224.982 255.904 224.268 256.08 223.468 256.08C222.785 256.08 222.166 255.941 221.612 255.664C221.068 255.376 220.62 254.96 220.268 254.416V259.104H219.132V247.584H220.22V249.248C220.561 248.693 221.009 248.267 221.564 247.968C222.129 247.669 222.764 247.52 223.468 247.52ZM223.388 255.072C223.974 255.072 224.508 254.939 224.988 254.672C225.468 254.395 225.841 254.005 226.108 253.504C226.385 253.003 226.524 252.432 226.524 251.792C226.524 251.152 226.385 250.587 226.108 250.096C225.841 249.595 225.468 249.205 224.988 248.928C224.508 248.651 223.974 248.512 223.388 248.512C222.79 248.512 222.252 248.651 221.772 248.928C221.302 249.205 220.929 249.595 220.652 250.096C220.385 250.587 220.252 251.152 220.252 251.792C220.252 252.432 220.385 253.003 220.652 253.504C220.929 254.005 221.302 254.395 221.772 254.672C222.252 254.939 222.79 255.072 223.388 255.072ZM230.1 247.584H231.236V254.272L236.852 247.584H237.86V256H236.724V249.312L231.124 256H230.1V247.584ZM241.116 247.584H242.252V254.272L247.868 247.584H248.876V256H247.74V249.312L242.14 256H241.116V247.584Z" fill="#2D2D2D"/>
<g id="Group 1235_2">
<g id="Group 1234_2">
<rect id="Rectangle 506_2" x="54" y="268" width="345" height="12" rx="6" fill="#FAFEFD"/>
<g id="1-2-scale-2">
<rect id="Rectangle 507_2" x="55" y="269" width="10" height="10" rx="5" fill="url(#paint4_linear_1104_3253)" fill-opacity="0.5"/>
</g>
</g>
<g id="Group 1238">
<circle id="Ellipse 176_2" cx="399.5" cy="273.5" r="23.5" fill="#FAFEFD"/>
<path id="57%" d="M387.734 272.278C389.51 272.278 390.824 272.626 391.676 273.322C392.528 274.006 392.954 274.942 392.954 276.13C392.954 276.886 392.768 277.57 392.396 278.182C392.024 278.794 391.466 279.28 390.722 279.64C389.978 280 389.06 280.18 387.968 280.18C387.068 280.18 386.198 280.054 385.358 279.802C384.518 279.538 383.81 279.178 383.234 278.722L384.224 276.904C384.692 277.288 385.25 277.594 385.898 277.822C386.558 278.038 387.236 278.146 387.932 278.146C388.76 278.146 389.408 277.978 389.876 277.642C390.356 277.294 390.596 276.82 390.596 276.22C390.596 275.572 390.338 275.086 389.822 274.762C389.318 274.426 388.448 274.258 387.212 274.258H384.17L384.818 267.4H392.216V269.362H386.798L386.528 272.278H387.734ZM403.579 267.4V268.966L398.683 280H396.181L400.915 269.38H395.965V271.522H393.787V267.4H403.579ZM407.922 274.186C407.022 274.186 406.296 273.868 405.744 273.232C405.192 272.596 404.916 271.762 404.916 270.73C404.916 269.698 405.192 268.864 405.744 268.228C406.296 267.592 407.022 267.274 407.922 267.274C408.822 267.274 409.548 267.592 410.1 268.228C410.664 268.852 410.946 269.686 410.946 270.73C410.946 271.774 410.664 272.614 410.1 273.25C409.548 273.874 408.822 274.186 407.922 274.186ZM415.482 267.4H417.246L408.642 280H406.878L415.482 267.4ZM407.922 272.926C408.414 272.926 408.792 272.734 409.056 272.35C409.332 271.966 409.47 271.426 409.47 270.73C409.47 270.034 409.332 269.494 409.056 269.11C408.792 268.726 408.414 268.534 407.922 268.534C407.454 268.534 407.076 268.732 406.788 269.128C406.512 269.512 406.374 270.046 406.374 270.73C406.374 271.414 406.512 271.954 406.788 272.35C407.076 272.734 407.454 272.926 407.922 272.926ZM416.184 280.126C415.284 280.126 414.558 279.808 414.006 279.172C413.454 278.536 413.178 277.702 413.178 276.67C413.178 275.638 413.454 274.804 414.006 274.168C414.558 273.532 415.284 273.214 416.184 273.214C417.084 273.214 417.81 273.532 418.362 274.168C418.926 274.804 419.208 275.638 419.208 276.67C419.208 277.702 418.926 278.536 418.362 279.172C417.81 279.808 417.084 280.126 416.184 280.126ZM416.184 278.866C416.664 278.866 417.042 278.674 417.318 278.29C417.594 277.894 417.732 277.354 417.732 276.67C417.732 275.986 417.594 275.452 417.318 275.068C417.042 274.672 416.664 274.474 416.184 274.474C415.704 274.474 415.326 274.666 415.05 275.05C414.774 275.434 414.636 275.974 414.636 276.67C414.636 277.366 414.774 277.906 415.05 278.29C415.326 278.674 415.704 278.866 416.184 278.866Z" fill="#2D2D2D"/>
</g>
</g>
</g>
</g>
</g>
<defs>
<filter id="filter0_d_1104_3253" x="135" y="0" width="413.436" height="287.661" filterUnits="userSpaceOnUse" color-interpolation-filters="sRGB">
<feFlood flood-opacity="0" result="BackgroundImageFix"/>
<feColorMatrix in="SourceAlpha" type="matrix" values="0 0 0 0 0 0 0 0 0 0 0 0 0 0 0 0 0 0 127 0" result="hardAlpha"/>
<feOffset dy="4"/>
<feGaussianBlur stdDeviation="17"/>
<feComposite in2="hardAlpha" operator="out"/>
<feColorMatrix type="matrix" values="0 0 0 0 0 0 0 0 0 0 0 0 0 0 0 0 0 0 0.1 0"/>
<feBlend mode="normal" in2="BackgroundImageFix" result="effect1_dropShadow_1104_3253"/>
<feBlend mode="normal" in="SourceGraphic" in2="effect1_dropShadow_1104_3253" result="shape"/>
</filter>
<filter id="filter1_d_1104_3253" x="0" y="124" width="483" height="233" filterUnits="userSpaceOnUse" color-interpolation-filters="sRGB">
<feFlood flood-opacity="0" result="BackgroundImageFix"/>
<feColorMatrix in="SourceAlpha" type="matrix" values="0 0 0 0 0 0 0 0 0 0 0 0 0 0 0 0 0 0 127 0" result="hardAlpha"/>
<feOffset dy="4"/>
<feGaussianBlur stdDeviation="17"/>
<feComposite in2="hardAlpha" operator="out"/>
<feColorMatrix type="matrix" values="0 0 0 0 0 0 0 0 0 0 0 0 0 0 0 0 0 0 0.1 0"/>
<feBlend mode="normal" in2="BackgroundImageFix" result="effect1_dropShadow_1104_3253"/>
<feBlend mode="normal" in="SourceGraphic" in2="effect1_dropShadow_1104_3253" result="shape"/>
</filter>
<linearGradient id="paint0_linear_1104_3253" x1="171.214" y1="33.4203" x2="539.871" y2="174.943" gradientUnits="userSpaceOnUse">
<stop stop-color="#FAFDFC"/>
<stop offset="1" stop-color="#F0F8FD"/>
</linearGradient>
<linearGradient id="paint1_linear_1104_3253" x1="36.6603" y1="156.569" x2="405.707" y2="383.157" gradientUnits="userSpaceOnUse">
<stop stop-color="#EFFBF8"/>
<stop offset="1" stop-color="#EFFBF8"/>
</linearGradient>
<linearGradient id="paint2_linear_1104_3253" x1="36.6603" y1="156.569" x2="405.707" y2="383.157" gradientUnits="userSpaceOnUse">
<stop stop-color="#FAFDFC"/>
<stop offset="1" stop-color="#F0F8FD"/>
</linearGradient>
<linearGradient id="paint3_linear_1104_3253" x1="64.956" y1="203.591" x2="53.7508" y2="208.368" gradientUnits="userSpaceOnUse">
<stop stop-color="#0884E0"/>
<stop offset="0.867202" stop-color="#0B72BE"/>
</linearGradient>
<linearGradient id="paint4_linear_1104_3253" x1="64.956" y1="271.591" x2="53.7508" y2="276.368" gradientUnits="userSpaceOnUse">
<stop stop-color="#F95F09"/>
<stop offset="0.867202" stop-color="#FF8743"/>
</linearGradient>
</defs>
</svg>
