<svg width="414" height="286" viewBox="0 0 414 286" fill="none" xmlns="http://www.w3.org/2000/svg">
<g id="3">
<g id="Rectangle 332" filter="url(#filter0_d_884_2741)">
<rect x="34" y="30" width="346" height="218" rx="10" fill="white"/>
<rect x="34" y="30" width="346" height="218" rx="10" fill="url(#paint0_linear_884_2741)"/>
<rect x="34" y="30" width="346" height="218" rx="10" fill="url(#paint1_linear_884_2741)"/>
</g>
<g id="Group 994">
<g id="Group 995">
<g id="Group 379">
<rect id="Rectangle 518" x="47" y="52" width="47" height="28" rx="5" fill="#DAF0FF"/>
<path id="0%" d="M63.0682 72.1892C62.1725 72.1892 61.4092 72.0568 60.7783 71.7918C60.1475 71.5269 59.6302 71.161 59.2265 70.6942C58.8228 70.2274 58.52 69.6912 58.3181 69.0856C58.1163 68.4674 57.9964 67.8113 57.9586 67.1174C57.9459 66.7768 57.9333 66.4046 57.9207 66.0009C57.9207 65.5845 57.9207 65.1682 57.9207 64.7519C57.9333 64.3355 57.9459 63.9507 57.9586 63.5974C57.9838 62.9035 58.1037 62.2538 58.3181 61.6482C58.5326 61.03 58.8417 60.4938 59.2454 60.0396C59.6618 59.5854 60.1854 59.2259 60.8162 58.9609C61.447 58.696 62.1977 58.5635 63.0682 58.5635C63.9514 58.5635 64.7084 58.696 65.3392 58.9609C65.97 59.2259 66.4873 59.5854 66.891 60.0396C67.3073 60.4938 67.6165 61.03 67.8183 61.6482C68.0328 62.2538 68.1527 62.9035 68.1779 63.5974C68.2031 63.9507 68.2157 64.3355 68.2157 64.7519C68.2157 65.1682 68.2157 65.5845 68.2157 66.0009C68.2157 66.4046 68.2031 66.7768 68.1779 67.1174C68.1527 67.8113 68.0391 68.4674 67.8372 69.0856C67.6354 69.6912 67.3326 70.2274 66.9289 70.6942C66.5251 71.161 66.0015 71.5269 65.3581 71.7918C64.7273 72.0568 63.964 72.1892 63.0682 72.1892ZM63.0682 70.0129C63.8883 70.0129 64.4876 69.748 64.8661 69.2181C65.2572 68.6756 65.459 67.9438 65.4717 67.0228C65.4969 66.6569 65.5095 66.2911 65.5095 65.9252C65.5095 65.5467 65.5095 65.1682 65.5095 64.7897C65.5095 64.4112 65.4969 64.0516 65.4717 63.711C65.459 62.8152 65.2572 62.0961 64.8661 61.5536C64.4876 60.9985 63.8883 60.7209 63.0682 60.7209C62.2608 60.7209 61.6615 60.9985 61.2704 61.5536C60.8919 62.0961 60.69 62.8152 60.6648 63.711C60.6648 64.0516 60.6585 64.4112 60.6459 64.7897C60.6459 65.1682 60.6459 65.5467 60.6459 65.9252C60.6585 66.2911 60.6648 66.6569 60.6648 67.0228C60.69 67.9438 60.8982 68.6756 61.2893 69.2181C61.6804 69.748 62.2734 70.0129 63.0682 70.0129ZM71.3804 72C71.1155 72 70.983 71.8738 70.983 71.6215C70.983 71.5458 71.0083 71.4764 71.0587 71.4133L80.3886 59.1123C80.4769 58.9988 80.5652 58.9104 80.6535 58.8474C80.7418 58.7843 80.868 58.7527 81.032 58.7527H82.035C82.3 58.7527 82.4324 58.8789 82.4324 59.1312C82.4324 59.2069 82.4072 59.2763 82.3567 59.3394L73.0269 71.6404C72.9386 71.754 72.8503 71.8423 72.7619 71.9054C72.6862 71.9685 72.5601 72 72.3834 72H71.3804ZM80.4832 72.1135C79.6379 72.1135 78.9692 71.8801 78.4772 71.4133C77.9851 70.9465 77.7139 70.3346 77.6634 69.5776C77.6508 69.2496 77.6445 68.9657 77.6445 68.726C77.6445 68.4863 77.6508 68.1898 77.6634 67.8366C77.7139 67.0796 77.9725 66.4677 78.4393 66.0009C78.9188 65.5341 79.6001 65.3007 80.4832 65.3007C81.379 65.3007 82.0603 65.5341 82.5271 66.0009C83.0065 66.4677 83.2651 67.0796 83.303 67.8366C83.3282 68.1898 83.3408 68.4863 83.3408 68.726C83.3408 68.9657 83.3282 69.2496 83.303 69.5776C83.2651 70.3346 82.9939 70.9465 82.4892 71.4133C81.9972 71.8801 81.3285 72.1135 80.4832 72.1135ZM80.4832 70.6374C80.7608 70.6374 80.9752 70.5807 81.1266 70.4671C81.2907 70.3536 81.4105 70.2085 81.4862 70.0318C81.5619 69.8552 81.5998 69.6786 81.5998 69.5019C81.625 69.1865 81.6376 68.9216 81.6376 68.7071C81.6376 68.48 81.625 68.2214 81.5998 67.9312C81.5871 67.641 81.4988 67.3761 81.3348 67.1364C81.1708 66.884 80.8869 66.7579 80.4832 66.7579C80.0921 66.7579 79.8145 66.884 79.6505 67.1364C79.4865 67.3761 79.3919 67.641 79.3666 67.9312C79.354 68.2214 79.3477 68.48 79.3477 68.7071C79.3477 68.9216 79.354 69.1865 79.3666 69.5019C79.3919 69.6786 79.436 69.8552 79.4991 70.0318C79.5748 70.2085 79.6884 70.3536 79.8398 70.4671C80.0038 70.5807 80.2183 70.6374 80.4832 70.6374ZM72.9323 65.4142C72.087 65.4142 71.4183 65.1934 70.9262 64.7519C70.4342 64.3103 70.163 63.711 70.1125 62.954C70.0999 62.626 70.0936 62.3421 70.0936 62.1024C70.0936 61.8501 70.0999 61.5473 70.1125 61.194C70.163 60.437 70.4216 59.8251 70.8884 59.3583C71.3678 58.8915 72.0491 58.6581 72.9323 58.6581C73.828 58.6581 74.5093 58.8915 74.9761 59.3583C75.4556 59.8251 75.7142 60.437 75.752 61.194C75.7773 61.5473 75.7899 61.8501 75.7899 62.1024C75.7899 62.3421 75.7773 62.626 75.752 62.954C75.7142 63.711 75.4429 64.3103 74.9383 64.7519C74.4462 65.1934 73.7776 65.4142 72.9323 65.4142ZM72.9323 64.0138C73.2098 64.0138 73.4243 63.957 73.5757 63.8435C73.7397 63.7299 73.8596 63.5848 73.9353 63.4082C74.011 63.2316 74.0488 63.0486 74.0488 62.8594C74.0741 62.544 74.0867 62.279 74.0867 62.0646C74.0867 61.8375 74.0741 61.5788 74.0488 61.2886C74.0362 60.9985 73.9479 60.7335 73.7839 60.4938C73.6199 60.2541 73.336 60.1342 72.9323 60.1342C72.5412 60.1342 72.2636 60.2541 72.0996 60.4938C71.9356 60.7335 71.8472 60.9985 71.8346 61.2886C71.822 61.5788 71.8157 61.8375 71.8157 62.0646C71.8157 62.279 71.822 62.544 71.8346 62.8594C71.8472 63.0486 71.8851 63.2316 71.9482 63.4082C72.0239 63.5848 72.1374 63.7299 72.2888 63.8435C72.4528 63.957 72.6673 64.0138 72.9323 64.0138Z" fill="url(#paint2_linear_884_2741)"/>
</g>
<g id="Group 993">
<path id="&#208;&#159;&#208;&#184;&#209;&#129;&#208;&#181;&#208;&#188; &#208;&#178; &#209;&#129;&#208;&#191;&#208;&#176;&#208;&#188;&#208;&#181;" d="M116.664 56.8V68H115.496V57.824H108.408V68H107.24V56.8H116.664ZM120.171 59.584H121.307V66.272L126.923 59.584H127.931V68H126.795V61.312L121.195 68H120.171V59.584ZM134.706 68.08C133.874 68.08 133.128 67.8987 132.466 67.536C131.816 67.1733 131.304 66.6667 130.93 66.016C130.557 65.3547 130.37 64.6133 130.37 63.792C130.37 62.9707 130.557 62.2347 130.93 61.584C131.304 60.9333 131.816 60.4267 132.466 60.064C133.128 59.7013 133.874 59.52 134.706 59.52C135.432 59.52 136.077 59.664 136.642 59.952C137.218 60.2293 137.672 60.64 138.002 61.184L137.154 61.76C136.877 61.344 136.525 61.0347 136.098 60.832C135.672 60.6187 135.208 60.512 134.706 60.512C134.098 60.512 133.549 60.6507 133.058 60.928C132.578 61.1947 132.2 61.5787 131.922 62.08C131.656 62.5813 131.522 63.152 131.522 63.792C131.522 64.4427 131.656 65.0187 131.922 65.52C132.2 66.0107 132.578 66.3947 133.058 66.672C133.549 66.9387 134.098 67.072 134.706 67.072C135.208 67.072 135.672 66.9707 136.098 66.768C136.525 66.5653 136.877 66.256 137.154 65.84L138.002 66.416C137.672 66.96 137.218 67.376 136.642 67.664C136.066 67.9413 135.421 68.08 134.706 68.08ZM147.421 64.144H140.381C140.445 65.0187 140.781 65.728 141.389 66.272C141.997 66.8053 142.765 67.072 143.693 67.072C144.216 67.072 144.696 66.9813 145.133 66.8C145.571 66.608 145.949 66.3307 146.269 65.968L146.909 66.704C146.536 67.152 146.067 67.4933 145.501 67.728C144.947 67.9627 144.333 68.08 143.661 68.08C142.797 68.08 142.029 67.8987 141.357 67.536C140.696 67.1627 140.179 66.6507 139.805 66C139.432 65.3493 139.245 64.6133 139.245 63.792C139.245 62.9707 139.421 62.2347 139.773 61.584C140.136 60.9333 140.627 60.4267 141.245 60.064C141.875 59.7013 142.579 59.52 143.357 59.52C144.136 59.52 144.835 59.7013 145.453 60.064C146.072 60.4267 146.557 60.9333 146.909 61.584C147.261 62.224 147.437 62.96 147.437 63.792L147.421 64.144ZM143.357 60.496C142.547 60.496 141.864 60.7573 141.309 61.28C140.765 61.792 140.456 62.464 140.381 63.296H146.349C146.275 62.464 145.96 61.792 145.405 61.28C144.861 60.7573 144.179 60.496 143.357 60.496ZM159.36 59.584V68H158.32V61.344L154.912 66.976H154.4L150.992 61.328V68H149.952V59.584H151.104L154.672 65.648L158.304 59.584H159.36ZM172.14 63.648C173.281 63.9147 173.852 64.6027 173.852 65.712C173.852 66.448 173.58 67.0133 173.036 67.408C172.492 67.8027 171.681 68 170.604 68H166.78V59.584H170.492C171.452 59.584 172.204 59.7707 172.748 60.144C173.292 60.5173 173.564 61.0507 173.564 61.744C173.564 62.2027 173.436 62.5973 173.18 62.928C172.935 63.248 172.588 63.488 172.14 63.648ZM167.884 63.328H170.412C171.063 63.328 171.559 63.2053 171.9 62.96C172.252 62.7147 172.428 62.3573 172.428 61.888C172.428 61.4187 172.252 61.0667 171.9 60.832C171.559 60.5973 171.063 60.48 170.412 60.48H167.884V63.328ZM170.556 67.104C171.281 67.104 171.825 66.9867 172.188 66.752C172.551 66.5173 172.732 66.1493 172.732 65.648C172.732 65.1467 172.567 64.7787 172.236 64.544C171.905 64.2987 171.383 64.176 170.668 64.176H167.884V67.104H170.556ZM184.222 68.08C183.39 68.08 182.643 67.8987 181.982 67.536C181.331 67.1733 180.819 66.6667 180.446 66.016C180.073 65.3547 179.886 64.6133 179.886 63.792C179.886 62.9707 180.073 62.2347 180.446 61.584C180.819 60.9333 181.331 60.4267 181.982 60.064C182.643 59.7013 183.39 59.52 184.222 59.52C184.947 59.52 185.593 59.664 186.158 59.952C186.734 60.2293 187.187 60.64 187.518 61.184L186.67 61.76C186.393 61.344 186.041 61.0347 185.614 60.832C185.187 60.6187 184.723 60.512 184.222 60.512C183.614 60.512 183.065 60.6507 182.574 60.928C182.094 61.1947 181.715 61.5787 181.438 62.08C181.171 62.5813 181.038 63.152 181.038 63.792C181.038 64.4427 181.171 65.0187 181.438 65.52C181.715 66.0107 182.094 66.3947 182.574 66.672C183.065 66.9387 183.614 67.072 184.222 67.072C184.723 67.072 185.187 66.9707 185.614 66.768C186.041 66.5653 186.393 66.256 186.67 65.84L187.518 66.416C187.187 66.96 186.734 67.376 186.158 67.664C185.582 67.9413 184.937 68.08 184.222 68.08ZM197.27 59.584V68H196.134V60.592H190.854V68H189.718V59.584H197.27ZM203.395 59.52C204.493 59.52 205.336 59.7973 205.923 60.352C206.509 60.896 206.803 61.7067 206.803 62.784V68H205.715V66.688C205.459 67.1253 205.08 67.4667 204.579 67.712C204.088 67.9573 203.501 68.08 202.819 68.08C201.88 68.08 201.133 67.856 200.579 67.408C200.024 66.96 199.747 66.368 199.747 65.632C199.747 64.9173 200.003 64.3413 200.515 63.904C201.037 63.4667 201.864 63.248 202.995 63.248H205.667V62.736C205.667 62.0107 205.464 61.4613 205.059 61.088C204.653 60.704 204.061 60.512 203.283 60.512C202.749 60.512 202.237 60.6027 201.747 60.784C201.256 60.9547 200.835 61.1947 200.483 61.504L199.971 60.656C200.397 60.2933 200.909 60.016 201.507 59.824C202.104 59.6213 202.733 59.52 203.395 59.52ZM202.995 67.184C203.635 67.184 204.184 67.04 204.643 66.752C205.101 66.4533 205.443 66.0267 205.667 65.472V64.096H203.027C201.587 64.096 200.867 64.5973 200.867 65.6C200.867 66.0907 201.053 66.48 201.427 66.768C201.8 67.0453 202.323 67.184 202.995 67.184ZM219.235 59.584V68H218.195V61.344L214.787 66.976H214.275L210.867 61.328V68H209.827V59.584H210.979L214.547 65.648L218.179 59.584H219.235ZM229.828 64.144H222.788C222.852 65.0187 223.188 65.728 223.796 66.272C224.404 66.8053 225.172 67.072 226.1 67.072C226.622 67.072 227.102 66.9813 227.54 66.8C227.977 66.608 228.356 66.3307 228.676 65.968L229.316 66.704C228.942 67.152 228.473 67.4933 227.908 67.728C227.353 67.9627 226.74 68.08 226.068 68.08C225.204 68.08 224.436 67.8987 223.764 67.536C223.102 67.1627 222.585 66.6507 222.212 66C221.838 65.3493 221.652 64.6133 221.652 63.792C221.652 62.9707 221.828 62.2347 222.18 61.584C222.542 60.9333 223.033 60.4267 223.652 60.064C224.281 59.7013 224.985 59.52 225.764 59.52C226.542 59.52 227.241 59.7013 227.86 60.064C228.478 60.4267 228.964 60.9333 229.316 61.584C229.668 62.224 229.844 62.96 229.844 63.792L229.828 64.144ZM225.764 60.496C224.953 60.496 224.27 60.7573 223.716 61.28C223.172 61.792 222.862 62.464 222.788 63.296H228.756C228.681 62.464 228.366 61.792 227.812 61.28C227.268 60.7573 226.585 60.496 225.764 60.496Z" fill="#2D2D2D"/>
<rect id="Rectangle 335" x="104" y="76" width="255" height="4" rx="2" fill="#DAF0FF"/>
<rect id="Rectangle 336" x="104" y="76" width="4" height="4" rx="2" fill="url(#paint3_linear_884_2741)"/>
</g>
</g>
</g>
<g id="Group 1252">
<g id="Group 995_2">
<g id="3-price-min-1">
<rect id="Rectangle 518_2" x="47" y="101" width="47" height="28" rx="5" fill="#D5FFED"/>
<path id="0%_2" d="M63.0682 121.189C62.1725 121.189 61.4092 121.057 60.7783 120.792C60.1475 120.527 59.6302 120.161 59.2265 119.694C58.8228 119.227 58.52 118.691 58.3181 118.086C58.1163 117.467 57.9964 116.811 57.9586 116.117C57.9459 115.777 57.9333 115.405 57.9207 115.001C57.9207 114.585 57.9207 114.168 57.9207 113.752C57.9333 113.336 57.9459 112.951 57.9586 112.597C57.9838 111.904 58.1037 111.254 58.3181 110.648C58.5326 110.03 58.8417 109.494 59.2454 109.04C59.6618 108.585 60.1854 108.226 60.8162 107.961C61.447 107.696 62.1977 107.563 63.0682 107.563C63.9514 107.563 64.7084 107.696 65.3392 107.961C65.97 108.226 66.4873 108.585 66.891 109.04C67.3073 109.494 67.6165 110.03 67.8183 110.648C68.0328 111.254 68.1527 111.904 68.1779 112.597C68.2031 112.951 68.2157 113.336 68.2157 113.752C68.2157 114.168 68.2157 114.585 68.2157 115.001C68.2157 115.405 68.2031 115.777 68.1779 116.117C68.1527 116.811 68.0391 117.467 67.8372 118.086C67.6354 118.691 67.3326 119.227 66.9289 119.694C66.5251 120.161 66.0015 120.527 65.3581 120.792C64.7273 121.057 63.964 121.189 63.0682 121.189ZM63.0682 119.013C63.8883 119.013 64.4876 118.748 64.8661 118.218C65.2572 117.676 65.459 116.944 65.4717 116.023C65.4969 115.657 65.5095 115.291 65.5095 114.925C65.5095 114.547 65.5095 114.168 65.5095 113.79C65.5095 113.411 65.4969 113.052 65.4717 112.711C65.459 111.815 65.2572 111.096 64.8661 110.554C64.4876 109.998 63.8883 109.721 63.0682 109.721C62.2608 109.721 61.6615 109.998 61.2704 110.554C60.8919 111.096 60.69 111.815 60.6648 112.711C60.6648 113.052 60.6585 113.411 60.6459 113.79C60.6459 114.168 60.6459 114.547 60.6459 114.925C60.6585 115.291 60.6648 115.657 60.6648 116.023C60.69 116.944 60.8982 117.676 61.2893 118.218C61.6804 118.748 62.2734 119.013 63.0682 119.013ZM71.3804 121C71.1155 121 70.983 120.874 70.983 120.622C70.983 120.546 71.0083 120.476 71.0587 120.413L80.3886 108.112C80.4769 107.999 80.5652 107.91 80.6535 107.847C80.7418 107.784 80.868 107.753 81.032 107.753H82.035C82.3 107.753 82.4324 107.879 82.4324 108.131C82.4324 108.207 82.4072 108.276 82.3567 108.339L73.0269 120.64C72.9386 120.754 72.8503 120.842 72.7619 120.905C72.6862 120.968 72.5601 121 72.3834 121H71.3804ZM80.4832 121.114C79.6379 121.114 78.9692 120.88 78.4772 120.413C77.9851 119.947 77.7139 119.335 77.6634 118.578C77.6508 118.25 77.6445 117.966 77.6445 117.726C77.6445 117.486 77.6508 117.19 77.6634 116.837C77.7139 116.08 77.9725 115.468 78.4393 115.001C78.9188 114.534 79.6001 114.301 80.4832 114.301C81.379 114.301 82.0603 114.534 82.5271 115.001C83.0065 115.468 83.2651 116.08 83.303 116.837C83.3282 117.19 83.3408 117.486 83.3408 117.726C83.3408 117.966 83.3282 118.25 83.303 118.578C83.2651 119.335 82.9939 119.947 82.4892 120.413C81.9972 120.88 81.3285 121.114 80.4832 121.114ZM80.4832 119.637C80.7608 119.637 80.9752 119.581 81.1266 119.467C81.2907 119.354 81.4105 119.208 81.4862 119.032C81.5619 118.855 81.5998 118.679 81.5998 118.502C81.625 118.187 81.6376 117.922 81.6376 117.707C81.6376 117.48 81.625 117.221 81.5998 116.931C81.5871 116.641 81.4988 116.376 81.3348 116.136C81.1708 115.884 80.8869 115.758 80.4832 115.758C80.0921 115.758 79.8145 115.884 79.6505 116.136C79.4865 116.376 79.3919 116.641 79.3666 116.931C79.354 117.221 79.3477 117.48 79.3477 117.707C79.3477 117.922 79.354 118.187 79.3666 118.502C79.3919 118.679 79.436 118.855 79.4991 119.032C79.5748 119.208 79.6884 119.354 79.8398 119.467C80.0038 119.581 80.2183 119.637 80.4832 119.637ZM72.9323 114.414C72.087 114.414 71.4183 114.193 70.9262 113.752C70.4342 113.31 70.163 112.711 70.1125 111.954C70.0999 111.626 70.0936 111.342 70.0936 111.102C70.0936 110.85 70.0999 110.547 70.1125 110.194C70.163 109.437 70.4216 108.825 70.8884 108.358C71.3678 107.892 72.0491 107.658 72.9323 107.658C73.828 107.658 74.5093 107.892 74.9761 108.358C75.4556 108.825 75.7142 109.437 75.752 110.194C75.7773 110.547 75.7899 110.85 75.7899 111.102C75.7899 111.342 75.7773 111.626 75.752 111.954C75.7142 112.711 75.4429 113.31 74.9383 113.752C74.4462 114.193 73.7776 114.414 72.9323 114.414ZM72.9323 113.014C73.2098 113.014 73.4243 112.957 73.5757 112.843C73.7397 112.73 73.8596 112.585 73.9353 112.408C74.011 112.232 74.0488 112.049 74.0488 111.859C74.0741 111.544 74.0867 111.279 74.0867 111.065C74.0867 110.837 74.0741 110.579 74.0488 110.289C74.0362 109.998 73.9479 109.734 73.7839 109.494C73.6199 109.254 73.336 109.134 72.9323 109.134C72.5412 109.134 72.2636 109.254 72.0996 109.494C71.9356 109.734 71.8472 109.998 71.8346 110.289C71.822 110.579 71.8157 110.837 71.8157 111.065C71.8157 111.279 71.822 111.544 71.8346 111.859C71.8472 112.049 71.8851 112.232 71.9482 112.408C72.0239 112.585 72.1374 112.73 72.2888 112.843C72.4528 112.957 72.6673 113.014 72.9323 113.014Z" fill="#00B76A"/>
</g>
<g id="3-price-max-1">
<rect id="Rectangle 518_3" x="47" y="101" width="47" height="28" rx="5" fill="#D5FFED"/>
<path id="90%" d="M54.503 121C54.3895 121 54.2949 120.962 54.2192 120.886C54.1435 120.798 54.1056 120.697 54.1056 120.584C54.1056 120.521 54.1119 120.47 54.1245 120.432C54.1498 120.394 54.1687 120.363 54.1813 120.338L56.9632 116.496C56.7109 116.559 56.446 116.584 56.1684 116.572C55.5376 116.559 54.9446 116.439 54.3895 116.212C53.847 115.972 53.3676 115.657 52.9512 115.266C52.5475 114.862 52.2258 114.402 51.9861 113.884C51.759 113.354 51.6454 112.78 51.6454 112.162C51.6454 111.594 51.7527 111.039 51.9671 110.497C52.1816 109.942 52.497 109.443 52.9134 109.002C53.3423 108.56 53.8722 108.213 54.503 107.961C55.1465 107.696 55.8972 107.563 56.7551 107.563C57.6004 107.563 58.3447 107.683 58.9882 107.923C59.6316 108.163 60.1678 108.497 60.5968 108.926C61.0384 109.342 61.3664 109.822 61.5809 110.364C61.808 110.907 61.9215 111.481 61.9215 112.086C61.9215 112.629 61.8332 113.134 61.6566 113.6C61.4799 114.067 61.2591 114.496 60.9942 114.887C60.7419 115.266 60.4895 115.638 60.2372 116.004L56.9065 120.622C56.856 120.685 56.7803 120.767 56.6794 120.868C56.5911 120.956 56.4523 121 56.263 121H54.503ZM56.774 114.566C57.2282 114.566 57.6382 114.471 58.0041 114.282C58.3826 114.08 58.6791 113.802 58.8936 113.449C59.1207 113.083 59.2342 112.654 59.2342 112.162C59.2342 111.658 59.1207 111.229 58.8936 110.875C58.6791 110.509 58.3826 110.232 58.0041 110.043C57.6256 109.841 57.2156 109.74 56.774 109.74C56.3198 109.74 55.9035 109.841 55.525 110.043C55.1591 110.232 54.8626 110.509 54.6355 110.875C54.421 111.229 54.3138 111.658 54.3138 112.162C54.3138 112.654 54.421 113.083 54.6355 113.449C54.8626 113.802 55.1591 114.08 55.525 114.282C55.9035 114.471 56.3198 114.566 56.774 114.566ZM68.9083 121.189C68.0125 121.189 67.2492 121.057 66.6184 120.792C65.9876 120.527 65.4703 120.161 65.0666 119.694C64.6628 119.227 64.36 118.691 64.1582 118.086C63.9563 117.467 63.8364 116.811 63.7986 116.117C63.786 115.777 63.7734 115.405 63.7607 115.001C63.7607 114.585 63.7607 114.168 63.7607 113.752C63.7734 113.336 63.786 112.951 63.7986 112.597C63.8238 111.904 63.9437 111.254 64.1582 110.648C64.3726 110.03 64.6818 109.494 65.0855 109.04C65.5018 108.585 66.0254 108.226 66.6562 107.961C67.287 107.696 68.0377 107.563 68.9083 107.563C69.7914 107.563 70.5484 107.696 71.1792 107.961C71.81 108.226 72.3273 108.585 72.731 109.04C73.1474 109.494 73.4565 110.03 73.6583 110.648C73.8728 111.254 73.9927 111.904 74.0179 112.597C74.0432 112.951 74.0558 113.336 74.0558 113.752C74.0558 114.168 74.0558 114.585 74.0558 115.001C74.0558 115.405 74.0432 115.777 74.0179 116.117C73.9927 116.811 73.8791 117.467 73.6773 118.086C73.4754 118.691 73.1726 119.227 72.7689 119.694C72.3652 120.161 71.8416 120.527 71.1981 120.792C70.5673 121.057 69.804 121.189 68.9083 121.189ZM68.9083 119.013C69.7283 119.013 70.3276 118.748 70.7061 118.218C71.0972 117.676 71.2991 116.944 71.3117 116.023C71.3369 115.657 71.3495 115.291 71.3495 114.925C71.3495 114.547 71.3495 114.168 71.3495 113.79C71.3495 113.411 71.3369 113.052 71.3117 112.711C71.2991 111.815 71.0972 111.096 70.7061 110.554C70.3276 109.998 69.7283 109.721 68.9083 109.721C68.1008 109.721 67.5015 109.998 67.1104 110.554C66.7319 111.096 66.5301 111.815 66.5048 112.711C66.5048 113.052 66.4985 113.411 66.4859 113.79C66.4859 114.168 66.4859 114.547 66.4859 114.925C66.4985 115.291 66.5048 115.657 66.5048 116.023C66.5301 116.944 66.7382 117.676 67.1293 118.218C67.5204 118.748 68.1134 119.013 68.9083 119.013ZM77.2205 121C76.9555 121 76.8231 120.874 76.8231 120.622C76.8231 120.546 76.8483 120.476 76.8988 120.413L86.2286 108.112C86.3169 107.999 86.4052 107.91 86.4936 107.847C86.5819 107.784 86.708 107.753 86.8721 107.753H87.8751C88.14 107.753 88.2725 107.879 88.2725 108.131C88.2725 108.207 88.2472 108.276 88.1968 108.339L78.8669 120.64C78.7786 120.754 78.6903 120.842 78.602 120.905C78.5263 120.968 78.4001 121 78.2235 121H77.2205ZM86.3232 121.114C85.4779 121.114 84.8093 120.88 84.3172 120.413C83.8252 119.947 83.5539 119.335 83.5035 118.578C83.4908 118.25 83.4845 117.966 83.4845 117.726C83.4845 117.486 83.4908 117.19 83.5035 116.837C83.5539 116.08 83.8126 115.468 84.2794 115.001C84.7588 114.534 85.4401 114.301 86.3232 114.301C87.219 114.301 87.9003 114.534 88.3671 115.001C88.8465 115.468 89.1052 116.08 89.143 116.837C89.1682 117.19 89.1809 117.486 89.1809 117.726C89.1809 117.966 89.1682 118.25 89.143 118.578C89.1052 119.335 88.8339 119.947 88.3293 120.413C87.8372 120.88 87.1685 121.114 86.3232 121.114ZM86.3232 119.637C86.6008 119.637 86.8153 119.581 86.9667 119.467C87.1307 119.354 87.2505 119.208 87.3262 119.032C87.4019 118.855 87.4398 118.679 87.4398 118.502C87.465 118.187 87.4776 117.922 87.4776 117.707C87.4776 117.48 87.465 117.221 87.4398 116.931C87.4272 116.641 87.3389 116.376 87.1748 116.136C87.0108 115.884 86.727 115.758 86.3232 115.758C85.9321 115.758 85.6546 115.884 85.4906 116.136C85.3265 116.376 85.2319 116.641 85.2067 116.931C85.1941 117.221 85.1878 117.48 85.1878 117.707C85.1878 117.922 85.1941 118.187 85.2067 118.502C85.2319 118.679 85.2761 118.855 85.3392 119.032C85.4149 119.208 85.5284 119.354 85.6798 119.467C85.8438 119.581 86.0583 119.637 86.3232 119.637ZM78.7723 114.414C77.927 114.414 77.2583 114.193 76.7663 113.752C76.2742 113.31 76.003 112.711 75.9525 111.954C75.9399 111.626 75.9336 111.342 75.9336 111.102C75.9336 110.85 75.9399 110.547 75.9525 110.194C76.003 109.437 76.2616 108.825 76.7284 108.358C77.2079 107.892 77.8891 107.658 78.7723 107.658C79.6681 107.658 80.3494 107.892 80.8162 108.358C81.2956 108.825 81.5542 109.437 81.5921 110.194C81.6173 110.547 81.6299 110.85 81.6299 111.102C81.6299 111.342 81.6173 111.626 81.5921 111.954C81.5542 112.711 81.283 113.31 80.7783 113.752C80.2863 114.193 79.6176 114.414 78.7723 114.414ZM78.7723 113.014C79.0499 113.014 79.2643 112.957 79.4157 112.843C79.5797 112.73 79.6996 112.585 79.7753 112.408C79.851 112.232 79.8889 112.049 79.8889 111.859C79.9141 111.544 79.9267 111.279 79.9267 111.065C79.9267 110.837 79.9141 110.579 79.8889 110.289C79.8762 109.998 79.7879 109.734 79.6239 109.494C79.4599 109.254 79.176 109.134 78.7723 109.134C78.3812 109.134 78.1036 109.254 77.9396 109.494C77.7756 109.734 77.6873 109.998 77.6747 110.289C77.6621 110.579 77.6557 110.837 77.6557 111.065C77.6557 111.279 77.6621 111.544 77.6747 111.859C77.6873 112.049 77.7251 112.232 77.7882 112.408C77.8639 112.585 77.9775 112.73 78.1289 112.843C78.2929 112.957 78.5074 113.014 78.7723 113.014Z" fill="#00B76A"/>
</g>
<g id="Group 993_2">
<path id="&#208;&#158;&#209;&#130;&#208;&#186;&#209;&#128;&#209;&#139;&#209;&#130;&#209;&#139;&#209;&#133; &#208;&#191;&#208;&#184;&#209;&#129;&#208;&#181;&#208;&#188;" d="M112.152 117.096C111.042 117.096 110.034 116.851 109.128 116.36C108.232 115.859 107.528 115.176 107.016 114.312C106.514 113.448 106.264 112.477 106.264 111.4C106.264 110.323 106.514 109.352 107.016 108.488C107.528 107.624 108.232 106.947 109.128 106.456C110.034 105.955 111.042 105.704 112.152 105.704C113.261 105.704 114.258 105.949 115.144 106.44C116.04 106.931 116.744 107.613 117.256 108.488C117.768 109.352 118.024 110.323 118.024 111.4C118.024 112.477 117.768 113.453 117.256 114.328C116.744 115.192 116.04 115.869 115.144 116.36C114.258 116.851 113.261 117.096 112.152 117.096ZM112.152 116.04C113.037 116.04 113.837 115.843 114.552 115.448C115.266 115.043 115.826 114.488 116.232 113.784C116.637 113.069 116.84 112.275 116.84 111.4C116.84 110.525 116.637 109.736 116.232 109.032C115.826 108.317 115.266 107.763 114.552 107.368C113.837 106.963 113.037 106.76 112.152 106.76C111.266 106.76 110.461 106.963 109.736 107.368C109.021 107.763 108.456 108.317 108.04 109.032C107.634 109.736 107.432 110.525 107.432 111.4C107.432 112.275 107.634 113.069 108.04 113.784C108.456 114.488 109.021 115.043 109.736 115.448C110.461 115.843 111.266 116.04 112.152 116.04ZM126.263 109.592H123.079V117H121.943V109.592H118.759V108.584H126.263V109.592ZM130.961 113.256H129.041V117H127.905V108.584H129.041V112.28H130.977L133.937 108.584H135.169L131.857 112.664L135.409 117H134.065L130.961 113.256ZM141.538 108.52C142.327 108.52 143.042 108.701 143.682 109.064C144.322 109.416 144.823 109.917 145.186 110.568C145.549 111.219 145.73 111.96 145.73 112.792C145.73 113.635 145.549 114.381 145.186 115.032C144.823 115.683 144.322 116.189 143.682 116.552C143.053 116.904 142.338 117.08 141.538 117.08C140.855 117.08 140.237 116.941 139.682 116.664C139.138 116.376 138.69 115.96 138.338 115.416V120.104H137.202V108.584H138.29V110.248C138.631 109.693 139.079 109.267 139.634 108.968C140.199 108.669 140.834 108.52 141.538 108.52ZM141.458 116.072C142.045 116.072 142.578 115.939 143.058 115.672C143.538 115.395 143.911 115.005 144.178 114.504C144.455 114.003 144.594 113.432 144.594 112.792C144.594 112.152 144.455 111.587 144.178 111.096C143.911 110.595 143.538 110.205 143.058 109.928C142.578 109.651 142.045 109.512 141.458 109.512C140.861 109.512 140.322 109.651 139.842 109.928C139.373 110.205 138.999 110.595 138.722 111.096C138.455 111.587 138.322 112.152 138.322 112.792C138.322 113.432 138.455 114.003 138.722 114.504C138.999 115.005 139.373 115.395 139.842 115.672C140.322 115.939 140.861 116.072 141.458 116.072ZM151.707 111.56C152.763 111.571 153.568 111.805 154.123 112.264C154.677 112.723 154.955 113.384 154.955 114.248C154.955 115.144 154.656 115.832 154.059 116.312C153.461 116.792 152.608 117.027 151.499 117.016L148.171 117V108.584H149.307V111.528L151.707 111.56ZM156.363 108.584H157.499V117H156.363V108.584ZM151.435 116.152C152.213 116.163 152.8 116.008 153.195 115.688C153.6 115.357 153.803 114.877 153.803 114.248C153.803 113.629 153.605 113.171 153.211 112.872C152.816 112.573 152.224 112.419 151.435 112.408L149.307 112.376V116.12L151.435 116.152ZM166.653 109.592H163.469V117H162.333V109.592H159.149V108.584H166.653V109.592ZM171.832 111.56C172.888 111.571 173.693 111.805 174.248 112.264C174.802 112.723 175.08 113.384 175.08 114.248C175.08 115.144 174.781 115.832 174.184 116.312C173.586 116.792 172.733 117.027 171.624 117.016L168.296 117V108.584H169.432V111.528L171.832 111.56ZM176.488 108.584H177.624V117H176.488V108.584ZM171.56 116.152C172.338 116.163 172.925 116.008 173.32 115.688C173.725 115.357 173.928 114.877 173.928 114.248C173.928 113.629 173.73 113.171 173.336 112.872C172.941 112.573 172.349 112.419 171.56 112.408L169.432 112.376V116.12L171.56 116.152ZM186.122 117L183.45 113.48L180.762 117H179.482L182.81 112.68L179.642 108.584H180.922L183.45 111.88L185.978 108.584H187.226L184.058 112.68L187.418 117H186.122ZM201.02 108.584V117H199.884V109.592H194.604V117H193.468V108.584H201.02ZM204.249 108.584H205.385V115.272L211.001 108.584H212.009V117H210.873V110.312L205.273 117H204.249V108.584ZM218.784 117.08C217.952 117.08 217.206 116.899 216.544 116.536C215.894 116.173 215.382 115.667 215.008 115.016C214.635 114.355 214.448 113.613 214.448 112.792C214.448 111.971 214.635 111.235 215.008 110.584C215.382 109.933 215.894 109.427 216.544 109.064C217.206 108.701 217.952 108.52 218.784 108.52C219.51 108.52 220.155 108.664 220.72 108.952C221.296 109.229 221.75 109.64 222.08 110.184L221.232 110.76C220.955 110.344 220.603 110.035 220.176 109.832C219.75 109.619 219.286 109.512 218.784 109.512C218.176 109.512 217.627 109.651 217.136 109.928C216.656 110.195 216.278 110.579 216 111.08C215.734 111.581 215.6 112.152 215.6 112.792C215.6 113.443 215.734 114.019 216 114.52C216.278 115.011 216.656 115.395 217.136 115.672C217.627 115.939 218.176 116.072 218.784 116.072C219.286 116.072 219.75 115.971 220.176 115.768C220.603 115.565 220.955 115.256 221.232 114.84L222.08 115.416C221.75 115.96 221.296 116.376 220.72 116.664C220.144 116.941 219.499 117.08 218.784 117.08ZM231.499 113.144H224.459C224.523 114.019 224.859 114.728 225.467 115.272C226.075 115.805 226.843 116.072 227.771 116.072C228.294 116.072 228.774 115.981 229.211 115.8C229.649 115.608 230.027 115.331 230.347 114.968L230.987 115.704C230.614 116.152 230.145 116.493 229.579 116.728C229.025 116.963 228.411 117.08 227.739 117.08C226.875 117.08 226.107 116.899 225.435 116.536C224.774 116.163 224.257 115.651 223.883 115C223.51 114.349 223.323 113.613 223.323 112.792C223.323 111.971 223.499 111.235 223.851 110.584C224.214 109.933 224.705 109.427 225.323 109.064C225.953 108.701 226.657 108.52 227.435 108.52C228.214 108.52 228.913 108.701 229.531 109.064C230.15 109.427 230.635 109.933 230.987 110.584C231.339 111.224 231.515 111.96 231.515 112.792L231.499 113.144ZM227.435 109.496C226.625 109.496 225.942 109.757 225.387 110.28C224.843 110.792 224.534 111.464 224.459 112.296H230.427C230.353 111.464 230.038 110.792 229.483 110.28C228.939 109.757 228.257 109.496 227.435 109.496ZM243.438 108.584V117H242.398V110.344L238.99 115.976H238.478L235.07 110.328V117H234.03V108.584H235.182L238.75 114.648L242.382 108.584H243.438Z" fill="#2D2D2D"/>
<rect id="Rectangle 335_2" x="104" y="125" width="255" height="4" rx="2" fill="#D5FFED"/>
<g id="3-scale-1">
<rect id="Rectangle 336_2" x="104" y="125" width="4" height="4" rx="2" fill="#00B76A"/>
</g>
</g>
</g>
</g>
<g id="Group 1253">
<g id="Group 995_3">
<g id="3-price-min-2">
<rect id="Rectangle 518_4" x="47" y="150" width="47" height="28" rx="5" fill="#F3D8FF"/>
<path id="0%_3" d="M63.0682 170.189C62.1725 170.189 61.4092 170.057 60.7783 169.792C60.1475 169.527 59.6302 169.161 59.2265 168.694C58.8228 168.227 58.52 167.691 58.3181 167.086C58.1163 166.467 57.9964 165.811 57.9586 165.117C57.9459 164.777 57.9333 164.405 57.9207 164.001C57.9207 163.585 57.9207 163.168 57.9207 162.752C57.9333 162.336 57.9459 161.951 57.9586 161.597C57.9838 160.904 58.1037 160.254 58.3181 159.648C58.5326 159.03 58.8417 158.494 59.2454 158.04C59.6618 157.585 60.1854 157.226 60.8162 156.961C61.447 156.696 62.1977 156.563 63.0682 156.563C63.9514 156.563 64.7084 156.696 65.3392 156.961C65.97 157.226 66.4873 157.585 66.891 158.04C67.3073 158.494 67.6165 159.03 67.8183 159.648C68.0328 160.254 68.1527 160.904 68.1779 161.597C68.2031 161.951 68.2157 162.336 68.2157 162.752C68.2157 163.168 68.2157 163.585 68.2157 164.001C68.2157 164.405 68.2031 164.777 68.1779 165.117C68.1527 165.811 68.0391 166.467 67.8372 167.086C67.6354 167.691 67.3326 168.227 66.9289 168.694C66.5251 169.161 66.0015 169.527 65.3581 169.792C64.7273 170.057 63.964 170.189 63.0682 170.189ZM63.0682 168.013C63.8883 168.013 64.4876 167.748 64.8661 167.218C65.2572 166.676 65.459 165.944 65.4717 165.023C65.4969 164.657 65.5095 164.291 65.5095 163.925C65.5095 163.547 65.5095 163.168 65.5095 162.79C65.5095 162.411 65.4969 162.052 65.4717 161.711C65.459 160.815 65.2572 160.096 64.8661 159.554C64.4876 158.998 63.8883 158.721 63.0682 158.721C62.2608 158.721 61.6615 158.998 61.2704 159.554C60.8919 160.096 60.69 160.815 60.6648 161.711C60.6648 162.052 60.6585 162.411 60.6459 162.79C60.6459 163.168 60.6459 163.547 60.6459 163.925C60.6585 164.291 60.6648 164.657 60.6648 165.023C60.69 165.944 60.8982 166.676 61.2893 167.218C61.6804 167.748 62.2734 168.013 63.0682 168.013ZM71.3804 170C71.1155 170 70.983 169.874 70.983 169.622C70.983 169.546 71.0083 169.476 71.0587 169.413L80.3886 157.112C80.4769 156.999 80.5652 156.91 80.6535 156.847C80.7418 156.784 80.868 156.753 81.032 156.753H82.035C82.3 156.753 82.4324 156.879 82.4324 157.131C82.4324 157.207 82.4072 157.276 82.3567 157.339L73.0269 169.64C72.9386 169.754 72.8503 169.842 72.7619 169.905C72.6862 169.968 72.5601 170 72.3834 170H71.3804ZM80.4832 170.114C79.6379 170.114 78.9692 169.88 78.4772 169.413C77.9851 168.947 77.7139 168.335 77.6634 167.578C77.6508 167.25 77.6445 166.966 77.6445 166.726C77.6445 166.486 77.6508 166.19 77.6634 165.837C77.7139 165.08 77.9725 164.468 78.4393 164.001C78.9188 163.534 79.6001 163.301 80.4832 163.301C81.379 163.301 82.0603 163.534 82.5271 164.001C83.0065 164.468 83.2651 165.08 83.303 165.837C83.3282 166.19 83.3408 166.486 83.3408 166.726C83.3408 166.966 83.3282 167.25 83.303 167.578C83.2651 168.335 82.9939 168.947 82.4892 169.413C81.9972 169.88 81.3285 170.114 80.4832 170.114ZM80.4832 168.637C80.7608 168.637 80.9752 168.581 81.1266 168.467C81.2907 168.354 81.4105 168.208 81.4862 168.032C81.5619 167.855 81.5998 167.679 81.5998 167.502C81.625 167.187 81.6376 166.922 81.6376 166.707C81.6376 166.48 81.625 166.221 81.5998 165.931C81.5871 165.641 81.4988 165.376 81.3348 165.136C81.1708 164.884 80.8869 164.758 80.4832 164.758C80.0921 164.758 79.8145 164.884 79.6505 165.136C79.4865 165.376 79.3919 165.641 79.3666 165.931C79.354 166.221 79.3477 166.48 79.3477 166.707C79.3477 166.922 79.354 167.187 79.3666 167.502C79.3919 167.679 79.436 167.855 79.4991 168.032C79.5748 168.208 79.6884 168.354 79.8398 168.467C80.0038 168.581 80.2183 168.637 80.4832 168.637ZM72.9323 163.414C72.087 163.414 71.4183 163.193 70.9262 162.752C70.4342 162.31 70.163 161.711 70.1125 160.954C70.0999 160.626 70.0936 160.342 70.0936 160.102C70.0936 159.85 70.0999 159.547 70.1125 159.194C70.163 158.437 70.4216 157.825 70.8884 157.358C71.3678 156.892 72.0491 156.658 72.9323 156.658C73.828 156.658 74.5093 156.892 74.9761 157.358C75.4556 157.825 75.7142 158.437 75.752 159.194C75.7773 159.547 75.7899 159.85 75.7899 160.102C75.7899 160.342 75.7773 160.626 75.752 160.954C75.7142 161.711 75.4429 162.31 74.9383 162.752C74.4462 163.193 73.7776 163.414 72.9323 163.414ZM72.9323 162.014C73.2098 162.014 73.4243 161.957 73.5757 161.843C73.7397 161.73 73.8596 161.585 73.9353 161.408C74.011 161.232 74.0488 161.049 74.0488 160.859C74.0741 160.544 74.0867 160.279 74.0867 160.065C74.0867 159.837 74.0741 159.579 74.0488 159.289C74.0362 158.998 73.9479 158.734 73.7839 158.494C73.6199 158.254 73.336 158.134 72.9323 158.134C72.5412 158.134 72.2636 158.254 72.0996 158.494C71.9356 158.734 71.8472 158.998 71.8346 159.289C71.822 159.579 71.8157 159.837 71.8157 160.065C71.8157 160.279 71.822 160.544 71.8346 160.859C71.8472 161.049 71.8851 161.232 71.9482 161.408C72.0239 161.585 72.1374 161.73 72.2888 161.843C72.4528 161.957 72.6673 162.014 72.9323 162.014Z" fill="#C343FF"/>
</g>
<g id="3-price-max-2">
<rect id="Rectangle 518_5" x="47" y="150" width="47" height="28" rx="5" fill="#F3D8FF"/>
<path id="25%" d="M52.6594 170C52.5332 170 52.426 169.956 52.3376 169.868C52.2493 169.779 52.2052 169.672 52.2052 169.546V168.581C52.2052 168.467 52.2304 168.335 52.2809 168.183C52.344 168.019 52.4764 167.855 52.6783 167.691L55.6684 164.72C56.5011 164.064 57.1697 163.509 57.6744 163.055C58.1917 162.588 58.5639 162.165 58.791 161.787C59.0307 161.396 59.1505 161.011 59.1505 160.632C59.1505 160.065 58.9928 159.604 58.6774 159.251C58.3746 158.898 57.8889 158.721 57.2202 158.721C56.7786 158.721 56.4064 158.816 56.1037 159.005C55.8009 159.181 55.5611 159.421 55.3845 159.724C55.2205 160.027 55.107 160.361 55.0439 160.727C55.0186 160.891 54.9492 161.004 54.8357 161.068C54.7222 161.131 54.6086 161.162 54.4951 161.162H52.8108C52.6972 161.162 52.6026 161.124 52.5269 161.049C52.4512 160.973 52.4133 160.885 52.4133 160.784C52.426 160.241 52.5395 159.718 52.754 159.213C52.9685 158.696 53.2776 158.241 53.6813 157.85C54.0976 157.447 54.6023 157.125 55.1953 156.885C55.7882 156.645 56.4569 156.526 57.2013 156.526C58.2484 156.526 59.1127 156.702 59.794 157.056C60.4879 157.409 61.0051 157.888 61.3458 158.494C61.699 159.099 61.8757 159.781 61.8757 160.538C61.8757 161.131 61.7621 161.679 61.535 162.184C61.3079 162.676 60.9799 163.156 60.551 163.622C60.122 164.077 59.6047 164.543 58.9991 165.023L56.3118 167.748H61.7054C61.8441 167.748 61.9514 167.792 62.0271 167.88C62.1154 167.956 62.1595 168.063 62.1595 168.202V169.546C62.1595 169.672 62.1154 169.779 62.0271 169.868C61.9514 169.956 61.8441 170 61.7054 170H52.6594ZM68.8615 170.208C67.7765 170.208 66.8618 170.032 66.1175 169.678C65.3731 169.312 64.8054 168.839 64.4142 168.259C64.0357 167.679 63.8339 167.06 63.8087 166.404C63.796 166.291 63.8276 166.202 63.9033 166.139C63.9916 166.064 64.0925 166.026 64.2061 166.026H65.9661C66.1048 166.026 66.2184 166.057 66.3067 166.12C66.4076 166.171 66.4833 166.266 66.5338 166.404C66.66 166.783 66.8366 167.092 67.0637 167.332C67.3034 167.571 67.5747 167.748 67.8775 167.862C68.1929 167.975 68.5209 168.032 68.8615 168.032C69.3157 168.032 69.7258 167.944 70.0916 167.767C70.4701 167.578 70.7729 167.3 71 166.934C71.2271 166.568 71.3407 166.12 71.3407 165.591C71.3407 165.124 71.2334 164.72 71.0189 164.379C70.8045 164.039 70.508 163.774 70.1295 163.585C69.7636 163.383 69.341 163.282 68.8615 163.282C68.5083 163.282 68.2181 163.326 67.991 163.414C67.7639 163.503 67.5684 163.603 67.4043 163.717C67.2529 163.831 67.1142 163.931 66.988 164.02C66.8744 164.108 66.742 164.152 66.5906 164.152H64.8495C64.736 164.152 64.635 164.114 64.5467 164.039C64.471 163.95 64.4332 163.849 64.4332 163.736L65.0955 157.264C65.1081 157.1 65.1649 156.974 65.2659 156.885C65.3668 156.797 65.4866 156.753 65.6254 156.753H72.7411C72.8673 156.753 72.9745 156.797 73.0628 156.885C73.1511 156.974 73.1953 157.081 73.1953 157.207V158.475C73.1953 158.601 73.1511 158.708 73.0628 158.797C72.9745 158.885 72.8673 158.929 72.7411 158.929H67.2719L66.9691 162.014C67.1962 161.862 67.499 161.717 67.8775 161.579C68.2559 161.44 68.7795 161.37 69.4482 161.37C70.0538 161.37 70.6278 161.471 71.1703 161.673C71.7255 161.862 72.2175 162.146 72.6465 162.525C73.0754 162.891 73.4098 163.339 73.6495 163.868C73.9018 164.386 74.028 164.979 74.028 165.647C74.028 166.568 73.8135 167.369 73.3845 168.051C72.9556 168.732 72.3563 169.262 71.5867 169.64C70.8171 170.019 69.9087 170.208 68.8615 170.208ZM76.8878 170C76.6229 170 76.4904 169.874 76.4904 169.622C76.4904 169.546 76.5156 169.476 76.5661 169.413L85.896 157.112C85.9843 156.999 86.0726 156.91 86.1609 156.847C86.2492 156.784 86.3754 156.753 86.5394 156.753H87.5424C87.8073 156.753 87.9398 156.879 87.9398 157.131C87.9398 157.207 87.9146 157.276 87.8641 157.339L78.5343 169.64C78.4459 169.754 78.3576 169.842 78.2693 169.905C78.1936 169.968 78.0675 170 77.8908 170H76.8878ZM85.9906 170.114C85.1453 170.114 84.4766 169.88 83.9846 169.413C83.4925 168.947 83.2213 168.335 83.1708 167.578C83.1582 167.25 83.1519 166.966 83.1519 166.726C83.1519 166.486 83.1582 166.19 83.1708 165.837C83.2213 165.08 83.4799 164.468 83.9467 164.001C84.4261 163.534 85.1074 163.301 85.9906 163.301C86.8863 163.301 87.5676 163.534 88.0344 164.001C88.5139 164.468 88.7725 165.08 88.8104 165.837C88.8356 166.19 88.8482 166.486 88.8482 166.726C88.8482 166.966 88.8356 167.25 88.8104 167.578C88.7725 168.335 88.5012 168.947 87.9966 169.413C87.5046 169.88 86.8359 170.114 85.9906 170.114ZM85.9906 168.637C86.2681 168.637 86.4826 168.581 86.634 168.467C86.798 168.354 86.9179 168.208 86.9936 168.032C87.0693 167.855 87.1071 167.679 87.1071 167.502C87.1324 167.187 87.145 166.922 87.145 166.707C87.145 166.48 87.1324 166.221 87.1071 165.931C87.0945 165.641 87.0062 165.376 86.8422 165.136C86.6782 164.884 86.3943 164.758 85.9906 164.758C85.5995 164.758 85.3219 164.884 85.1579 165.136C84.9939 165.376 84.8993 165.641 84.874 165.931C84.8614 166.221 84.8551 166.48 84.8551 166.707C84.8551 166.922 84.8614 167.187 84.874 167.502C84.8993 167.679 84.9434 167.855 85.0065 168.032C85.0822 168.208 85.1957 168.354 85.3471 168.467C85.5112 168.581 85.7256 168.637 85.9906 168.637ZM78.4396 163.414C77.5943 163.414 76.9257 163.193 76.4336 162.752C75.9416 162.31 75.6703 161.711 75.6199 160.954C75.6072 160.626 75.6009 160.342 75.6009 160.102C75.6009 159.85 75.6072 159.547 75.6199 159.194C75.6703 158.437 75.929 157.825 76.3958 157.358C76.8752 156.892 77.5565 156.658 78.4396 156.658C79.3354 156.658 80.0167 156.892 80.4835 157.358C80.9629 157.825 81.2216 158.437 81.2594 159.194C81.2846 159.547 81.2973 159.85 81.2973 160.102C81.2973 160.342 81.2846 160.626 81.2594 160.954C81.2216 161.711 80.9503 162.31 80.4457 162.752C79.9536 163.193 79.2849 163.414 78.4396 163.414ZM78.4396 162.014C78.7172 162.014 78.9317 161.957 79.0831 161.843C79.2471 161.73 79.3669 161.585 79.4426 161.408C79.5183 161.232 79.5562 161.049 79.5562 160.859C79.5814 160.544 79.594 160.279 79.594 160.065C79.594 159.837 79.5814 159.579 79.5562 159.289C79.5436 158.998 79.4553 158.734 79.2912 158.494C79.1272 158.254 78.8434 158.134 78.4396 158.134C78.0485 158.134 77.771 158.254 77.607 158.494C77.4429 158.734 77.3546 158.998 77.342 159.289C77.3294 159.579 77.3231 159.837 77.3231 160.065C77.3231 160.279 77.3294 160.544 77.342 160.859C77.3546 161.049 77.3925 161.232 77.4556 161.408C77.5313 161.585 77.6448 161.73 77.7962 161.843C77.9602 161.957 78.1747 162.014 78.4396 162.014Z" fill="#C343FF"/>
</g>
<g id="Group 993_3">
<path id="&#208;&#159;&#208;&#181;&#209;&#128;&#208;&#181;&#209;&#133;&#208;&#190;&#208;&#180;&#208;&#190;&#208;&#178; &#208;&#184;&#208;&#183; &#208;&#191;&#208;&#184;&#209;&#129;&#209;&#140;&#208;&#188;&#208;&#176;" d="M116.664 154.8V166H115.496V155.824H108.408V166H107.24V154.8H116.664ZM127.531 162.144H120.491C120.555 163.019 120.891 163.728 121.499 164.272C122.107 164.805 122.875 165.072 123.803 165.072C124.325 165.072 124.805 164.981 125.243 164.8C125.68 164.608 126.059 164.331 126.379 163.968L127.019 164.704C126.645 165.152 126.176 165.493 125.611 165.728C125.056 165.963 124.443 166.08 123.771 166.08C122.907 166.08 122.139 165.899 121.467 165.536C120.805 165.163 120.288 164.651 119.915 164C119.541 163.349 119.355 162.613 119.355 161.792C119.355 160.971 119.531 160.235 119.883 159.584C120.245 158.933 120.736 158.427 121.355 158.064C121.984 157.701 122.688 157.52 123.467 157.52C124.245 157.52 124.944 157.701 125.563 158.064C126.181 158.427 126.667 158.933 127.019 159.584C127.371 160.224 127.547 160.96 127.547 161.792L127.531 162.144ZM123.467 158.496C122.656 158.496 121.973 158.757 121.419 159.28C120.875 159.792 120.565 160.464 120.491 161.296H126.459C126.384 160.464 126.069 159.792 125.515 159.28C124.971 158.757 124.288 158.496 123.467 158.496ZM134.397 157.52C135.187 157.52 135.901 157.701 136.541 158.064C137.181 158.416 137.683 158.917 138.045 159.568C138.408 160.219 138.589 160.96 138.589 161.792C138.589 162.635 138.408 163.381 138.045 164.032C137.683 164.683 137.181 165.189 136.541 165.552C135.912 165.904 135.197 166.08 134.397 166.08C133.715 166.08 133.096 165.941 132.541 165.664C131.997 165.376 131.549 164.96 131.197 164.416V169.104H130.061V157.584H131.149V159.248C131.491 158.693 131.939 158.267 132.493 157.968C133.059 157.669 133.693 157.52 134.397 157.52ZM134.317 165.072C134.904 165.072 135.437 164.939 135.917 164.672C136.397 164.395 136.771 164.005 137.037 163.504C137.315 163.003 137.453 162.432 137.453 161.792C137.453 161.152 137.315 160.587 137.037 160.096C136.771 159.595 136.397 159.205 135.917 158.928C135.437 158.651 134.904 158.512 134.317 158.512C133.72 158.512 133.181 158.651 132.701 158.928C132.232 159.205 131.859 159.595 131.581 160.096C131.315 160.587 131.181 161.152 131.181 161.792C131.181 162.432 131.315 163.003 131.581 163.504C131.859 164.005 132.232 164.395 132.701 164.672C133.181 164.939 133.72 165.072 134.317 165.072ZM148.39 162.144H141.35C141.414 163.019 141.75 163.728 142.358 164.272C142.966 164.805 143.734 165.072 144.662 165.072C145.185 165.072 145.665 164.981 146.102 164.8C146.539 164.608 146.918 164.331 147.238 163.968L147.878 164.704C147.505 165.152 147.035 165.493 146.47 165.728C145.915 165.963 145.302 166.08 144.63 166.08C143.766 166.08 142.998 165.899 142.326 165.536C141.665 165.163 141.147 164.651 140.774 164C140.401 163.349 140.214 162.613 140.214 161.792C140.214 160.971 140.39 160.235 140.742 159.584C141.105 158.933 141.595 158.427 142.214 158.064C142.843 157.701 143.547 157.52 144.326 157.52C145.105 157.52 145.803 157.701 146.422 158.064C147.041 158.427 147.526 158.933 147.878 159.584C148.23 160.224 148.406 160.96 148.406 161.792L148.39 162.144ZM144.326 158.496C143.515 158.496 142.833 158.757 142.278 159.28C141.734 159.792 141.425 160.464 141.35 161.296H147.318C147.243 160.464 146.929 159.792 146.374 159.28C145.83 158.757 145.147 158.496 144.326 158.496ZM155.95 166L153.278 162.48L150.59 166H149.31L152.638 161.68L149.47 157.584H150.75L153.278 160.88L155.806 157.584H157.054L153.886 161.68L157.246 166H155.95ZM162.283 166.08C161.473 166.08 160.742 165.899 160.091 165.536C159.441 165.163 158.929 164.651 158.555 164C158.182 163.349 157.995 162.613 157.995 161.792C157.995 160.971 158.182 160.235 158.555 159.584C158.929 158.933 159.441 158.427 160.091 158.064C160.742 157.701 161.473 157.52 162.283 157.52C163.094 157.52 163.825 157.701 164.475 158.064C165.126 158.427 165.633 158.933 165.995 159.584C166.369 160.235 166.555 160.971 166.555 161.792C166.555 162.613 166.369 163.349 165.995 164C165.633 164.651 165.126 165.163 164.475 165.536C163.825 165.899 163.094 166.08 162.283 166.08ZM162.283 165.072C162.881 165.072 163.414 164.939 163.883 164.672C164.363 164.395 164.737 164.005 165.003 163.504C165.27 163.003 165.403 162.432 165.403 161.792C165.403 161.152 165.27 160.581 165.003 160.08C164.737 159.579 164.363 159.195 163.883 158.928C163.414 158.651 162.881 158.512 162.283 158.512C161.686 158.512 161.147 158.651 160.667 158.928C160.198 159.195 159.825 159.579 159.547 160.08C159.281 160.581 159.147 161.152 159.147 161.792C159.147 162.432 159.281 163.003 159.547 163.504C159.825 164.005 160.198 164.395 160.667 164.672C161.147 164.939 161.686 165.072 162.283 165.072ZM177.144 165.008V168.032H176.072V166H168.536V168.032H167.464V165.008H167.944C168.51 164.976 168.894 164.56 169.096 163.76C169.299 162.96 169.438 161.84 169.512 160.4L169.624 157.584H175.832V165.008H177.144ZM170.552 160.464C170.499 161.659 170.398 162.645 170.248 163.424C170.099 164.192 169.832 164.72 169.448 165.008H174.696V158.592H170.648L170.552 160.464ZM182.83 166.08C182.02 166.08 181.289 165.899 180.638 165.536C179.988 165.163 179.476 164.651 179.102 164C178.729 163.349 178.542 162.613 178.542 161.792C178.542 160.971 178.729 160.235 179.102 159.584C179.476 158.933 179.988 158.427 180.638 158.064C181.289 157.701 182.02 157.52 182.83 157.52C183.641 157.52 184.372 157.701 185.022 158.064C185.673 158.427 186.18 158.933 186.542 159.584C186.916 160.235 187.102 160.971 187.102 161.792C187.102 162.613 186.916 163.349 186.542 164C186.18 164.651 185.673 165.163 185.022 165.536C184.372 165.899 183.641 166.08 182.83 166.08ZM182.83 165.072C183.428 165.072 183.961 164.939 184.43 164.672C184.91 164.395 185.284 164.005 185.55 163.504C185.817 163.003 185.95 162.432 185.95 161.792C185.95 161.152 185.817 160.581 185.55 160.08C185.284 159.579 184.91 159.195 184.43 158.928C183.961 158.651 183.428 158.512 182.83 158.512C182.233 158.512 181.694 158.651 181.214 158.928C180.745 159.195 180.372 159.579 180.094 160.08C179.828 160.581 179.694 161.152 179.694 161.792C179.694 162.432 179.828 163.003 180.094 163.504C180.372 164.005 180.745 164.395 181.214 164.672C181.694 164.939 182.233 165.072 182.83 165.072ZM194.89 161.648C196.031 161.915 196.602 162.603 196.602 163.712C196.602 164.448 196.33 165.013 195.786 165.408C195.242 165.803 194.431 166 193.354 166H189.53V157.584H193.242C194.202 157.584 194.954 157.771 195.498 158.144C196.042 158.517 196.314 159.051 196.314 159.744C196.314 160.203 196.186 160.597 195.93 160.928C195.685 161.248 195.338 161.488 194.89 161.648ZM190.634 161.328H193.162C193.813 161.328 194.309 161.205 194.65 160.96C195.002 160.715 195.178 160.357 195.178 159.888C195.178 159.419 195.002 159.067 194.65 158.832C194.309 158.597 193.813 158.48 193.162 158.48H190.634V161.328ZM193.306 165.104C194.031 165.104 194.575 164.987 194.938 164.752C195.301 164.517 195.482 164.149 195.482 163.648C195.482 163.147 195.317 162.779 194.986 162.544C194.655 162.299 194.133 162.176 193.418 162.176H190.634V165.104H193.306ZM203.452 157.584H204.588V164.272L210.204 157.584H211.212V166H210.076V159.312L204.476 166H203.452V157.584ZM218.392 161.616C218.989 161.755 219.448 161.995 219.768 162.336C220.098 162.677 220.264 163.093 220.264 163.584C220.264 164.075 220.093 164.512 219.752 164.896C219.421 165.28 218.968 165.579 218.392 165.792C217.816 165.995 217.181 166.096 216.488 166.096C215.88 166.096 215.282 166.011 214.696 165.84C214.109 165.659 213.597 165.397 213.16 165.056L213.544 164.208C213.928 164.496 214.376 164.72 214.888 164.88C215.4 165.04 215.917 165.12 216.44 165.12C217.218 165.12 217.853 164.976 218.344 164.688C218.845 164.389 219.096 163.989 219.096 163.488C219.096 163.04 218.893 162.693 218.488 162.448C218.082 162.192 217.528 162.064 216.824 162.064H215.384V161.232H216.76C217.389 161.232 217.896 161.115 218.28 160.88C218.664 160.635 218.856 160.309 218.856 159.904C218.856 159.456 218.637 159.104 218.2 158.848C217.773 158.592 217.213 158.464 216.52 158.464C215.613 158.464 214.717 158.693 213.832 159.152L213.512 158.272C214.514 157.749 215.554 157.488 216.632 157.488C217.272 157.488 217.848 157.584 218.36 157.776C218.882 157.957 219.288 158.219 219.576 158.56C219.874 158.901 220.024 159.296 220.024 159.744C220.024 160.171 219.874 160.549 219.576 160.88C219.288 161.211 218.893 161.456 218.392 161.616ZM234.582 157.584V166H233.446V158.592H228.166V166H227.03V157.584H234.582ZM237.811 157.584H238.947V164.272L244.563 157.584H245.571V166H244.435V159.312L238.835 166H237.811V157.584ZM252.347 166.08C251.515 166.08 250.768 165.899 250.107 165.536C249.456 165.173 248.944 164.667 248.571 164.016C248.198 163.355 248.011 162.613 248.011 161.792C248.011 160.971 248.198 160.235 248.571 159.584C248.944 158.933 249.456 158.427 250.107 158.064C250.768 157.701 251.515 157.52 252.347 157.52C253.072 157.52 253.718 157.664 254.283 157.952C254.859 158.229 255.312 158.64 255.643 159.184L254.795 159.76C254.518 159.344 254.166 159.035 253.739 158.832C253.312 158.619 252.848 158.512 252.347 158.512C251.739 158.512 251.19 158.651 250.699 158.928C250.219 159.195 249.84 159.579 249.563 160.08C249.296 160.581 249.163 161.152 249.163 161.792C249.163 162.443 249.296 163.019 249.563 163.52C249.84 164.011 250.219 164.395 250.699 164.672C251.19 164.939 251.739 165.072 252.347 165.072C252.848 165.072 253.312 164.971 253.739 164.768C254.166 164.565 254.518 164.256 254.795 163.84L255.643 164.416C255.312 164.96 254.859 165.376 254.283 165.664C253.707 165.941 253.062 166.08 252.347 166.08ZM261.459 160.56C262.515 160.571 263.315 160.805 263.859 161.264C264.413 161.723 264.691 162.384 264.691 163.248C264.691 164.144 264.392 164.832 263.795 165.312C263.208 165.792 262.355 166.027 261.235 166.016L257.843 166V157.584H258.979V160.528L261.459 160.56ZM261.171 165.152C261.949 165.163 262.536 165.008 262.931 164.688C263.336 164.357 263.539 163.877 263.539 163.248C263.539 162.629 263.341 162.171 262.947 161.872C262.552 161.573 261.96 161.419 261.171 161.408L258.979 161.376V165.12L261.171 165.152ZM276.266 157.584V166H275.226V159.344L271.818 164.976H271.306L267.898 159.328V166H266.858V157.584H268.01L271.578 163.648L275.21 157.584H276.266ZM282.395 157.52C283.493 157.52 284.336 157.797 284.923 158.352C285.509 158.896 285.803 159.707 285.803 160.784V166H284.715V164.688C284.459 165.125 284.08 165.467 283.579 165.712C283.088 165.957 282.501 166.08 281.819 166.08C280.88 166.08 280.133 165.856 279.579 165.408C279.024 164.96 278.747 164.368 278.747 163.632C278.747 162.917 279.003 162.341 279.515 161.904C280.037 161.467 280.864 161.248 281.995 161.248H284.667V160.736C284.667 160.011 284.464 159.461 284.059 159.088C283.653 158.704 283.061 158.512 282.283 158.512C281.749 158.512 281.237 158.603 280.747 158.784C280.256 158.955 279.835 159.195 279.483 159.504L278.971 158.656C279.397 158.293 279.909 158.016 280.507 157.824C281.104 157.621 281.733 157.52 282.395 157.52ZM281.995 165.184C282.635 165.184 283.184 165.04 283.643 164.752C284.101 164.453 284.443 164.027 284.667 163.472V162.096H282.027C280.587 162.096 279.867 162.597 279.867 163.6C279.867 164.091 280.053 164.48 280.427 164.768C280.8 165.045 281.323 165.184 281.995 165.184Z" fill="#2D2D2D"/>
<rect id="Rectangle 335_3" x="104" y="174" width="255" height="4" rx="2" fill="#F3D8FF"/>
<rect id="3-scale-2" x="104" y="174" width="4" height="4" rx="2" fill="#C343FF"/>
</g>
</g>
</g>
<g id="Group 1254">
<g id="Group 995_4">
<g id="3-price-min-3">
<rect id="Rectangle 518_6" x="47" y="199" width="47" height="28" rx="5" fill="#FFF5EB"/>
<path id="0%_4" d="M63.0682 219.189C62.1725 219.189 61.4092 219.057 60.7783 218.792C60.1475 218.527 59.6302 218.161 59.2265 217.694C58.8228 217.227 58.52 216.691 58.3181 216.086C58.1163 215.467 57.9964 214.811 57.9586 214.117C57.9459 213.777 57.9333 213.405 57.9207 213.001C57.9207 212.585 57.9207 212.168 57.9207 211.752C57.9333 211.336 57.9459 210.951 57.9586 210.597C57.9838 209.904 58.1037 209.254 58.3181 208.648C58.5326 208.03 58.8417 207.494 59.2454 207.04C59.6618 206.585 60.1854 206.226 60.8162 205.961C61.447 205.696 62.1977 205.563 63.0682 205.563C63.9514 205.563 64.7084 205.696 65.3392 205.961C65.97 206.226 66.4873 206.585 66.891 207.04C67.3073 207.494 67.6165 208.03 67.8183 208.648C68.0328 209.254 68.1527 209.904 68.1779 210.597C68.2031 210.951 68.2157 211.336 68.2157 211.752C68.2157 212.168 68.2157 212.585 68.2157 213.001C68.2157 213.405 68.2031 213.777 68.1779 214.117C68.1527 214.811 68.0391 215.467 67.8372 216.086C67.6354 216.691 67.3326 217.227 66.9289 217.694C66.5251 218.161 66.0015 218.527 65.3581 218.792C64.7273 219.057 63.964 219.189 63.0682 219.189ZM63.0682 217.013C63.8883 217.013 64.4876 216.748 64.8661 216.218C65.2572 215.676 65.459 214.944 65.4717 214.023C65.4969 213.657 65.5095 213.291 65.5095 212.925C65.5095 212.547 65.5095 212.168 65.5095 211.79C65.5095 211.411 65.4969 211.052 65.4717 210.711C65.459 209.815 65.2572 209.096 64.8661 208.554C64.4876 207.998 63.8883 207.721 63.0682 207.721C62.2608 207.721 61.6615 207.998 61.2704 208.554C60.8919 209.096 60.69 209.815 60.6648 210.711C60.6648 211.052 60.6585 211.411 60.6459 211.79C60.6459 212.168 60.6459 212.547 60.6459 212.925C60.6585 213.291 60.6648 213.657 60.6648 214.023C60.69 214.944 60.8982 215.676 61.2893 216.218C61.6804 216.748 62.2734 217.013 63.0682 217.013ZM71.3804 219C71.1155 219 70.983 218.874 70.983 218.622C70.983 218.546 71.0083 218.476 71.0587 218.413L80.3886 206.112C80.4769 205.999 80.5652 205.91 80.6535 205.847C80.7418 205.784 80.868 205.753 81.032 205.753H82.035C82.3 205.753 82.4324 205.879 82.4324 206.131C82.4324 206.207 82.4072 206.276 82.3567 206.339L73.0269 218.64C72.9386 218.754 72.8503 218.842 72.7619 218.905C72.6862 218.968 72.5601 219 72.3834 219H71.3804ZM80.4832 219.114C79.6379 219.114 78.9692 218.88 78.4772 218.413C77.9851 217.947 77.7139 217.335 77.6634 216.578C77.6508 216.25 77.6445 215.966 77.6445 215.726C77.6445 215.486 77.6508 215.19 77.6634 214.837C77.7139 214.08 77.9725 213.468 78.4393 213.001C78.9188 212.534 79.6001 212.301 80.4832 212.301C81.379 212.301 82.0603 212.534 82.5271 213.001C83.0065 213.468 83.2651 214.08 83.303 214.837C83.3282 215.19 83.3408 215.486 83.3408 215.726C83.3408 215.966 83.3282 216.25 83.303 216.578C83.2651 217.335 82.9939 217.947 82.4892 218.413C81.9972 218.88 81.3285 219.114 80.4832 219.114ZM80.4832 217.637C80.7608 217.637 80.9752 217.581 81.1266 217.467C81.2907 217.354 81.4105 217.208 81.4862 217.032C81.5619 216.855 81.5998 216.679 81.5998 216.502C81.625 216.187 81.6376 215.922 81.6376 215.707C81.6376 215.48 81.625 215.221 81.5998 214.931C81.5871 214.641 81.4988 214.376 81.3348 214.136C81.1708 213.884 80.8869 213.758 80.4832 213.758C80.0921 213.758 79.8145 213.884 79.6505 214.136C79.4865 214.376 79.3919 214.641 79.3666 214.931C79.354 215.221 79.3477 215.48 79.3477 215.707C79.3477 215.922 79.354 216.187 79.3666 216.502C79.3919 216.679 79.436 216.855 79.4991 217.032C79.5748 217.208 79.6884 217.354 79.8398 217.467C80.0038 217.581 80.2183 217.637 80.4832 217.637ZM72.9323 212.414C72.087 212.414 71.4183 212.193 70.9262 211.752C70.4342 211.31 70.163 210.711 70.1125 209.954C70.0999 209.626 70.0936 209.342 70.0936 209.102C70.0936 208.85 70.0999 208.547 70.1125 208.194C70.163 207.437 70.4216 206.825 70.8884 206.358C71.3678 205.892 72.0491 205.658 72.9323 205.658C73.828 205.658 74.5093 205.892 74.9761 206.358C75.4556 206.825 75.7142 207.437 75.752 208.194C75.7773 208.547 75.7899 208.85 75.7899 209.102C75.7899 209.342 75.7773 209.626 75.752 209.954C75.7142 210.711 75.4429 211.31 74.9383 211.752C74.4462 212.193 73.7776 212.414 72.9323 212.414ZM72.9323 211.014C73.2098 211.014 73.4243 210.957 73.5757 210.843C73.7397 210.73 73.8596 210.585 73.9353 210.408C74.011 210.232 74.0488 210.049 74.0488 209.859C74.0741 209.544 74.0867 209.279 74.0867 209.065C74.0867 208.837 74.0741 208.579 74.0488 208.289C74.0362 207.998 73.9479 207.734 73.7839 207.494C73.6199 207.254 73.336 207.134 72.9323 207.134C72.5412 207.134 72.2636 207.254 72.0996 207.494C71.9356 207.734 71.8472 207.998 71.8346 208.289C71.822 208.579 71.8157 208.837 71.8157 209.065C71.8157 209.279 71.822 209.544 71.8346 209.859C71.8472 210.049 71.8851 210.232 71.9482 210.408C72.0239 210.585 72.1374 210.73 72.2888 210.843C72.4528 210.957 72.6673 211.014 72.9323 211.014Z" fill="#FDA24C"/>
</g>
<g id="Group 993_4">
<g id="3-price-max-3">
<rect id="Rectangle 518_7" x="47" y="199" width="47" height="28" rx="5" fill="#FFF5EB"/>
<path id="30%" d="M56.7863 219.189C55.9032 219.189 55.1399 219.082 54.4965 218.868C53.853 218.653 53.3168 218.375 52.8879 218.035C52.4715 217.682 52.1561 217.303 51.9416 216.899C51.7272 216.483 51.6136 216.073 51.601 215.669C51.601 215.556 51.6388 215.467 51.7145 215.404C51.8029 215.329 51.9038 215.291 52.0173 215.291H53.7206C53.8467 215.291 53.954 215.316 54.0423 215.366C54.1306 215.417 54.2063 215.518 54.2694 215.669C54.3829 216.01 54.5659 216.281 54.8182 216.483C55.0831 216.685 55.3859 216.83 55.7266 216.918C56.0672 216.994 56.4268 217.032 56.8053 217.032C57.5623 217.032 58.1615 216.855 58.6031 216.502C59.0573 216.136 59.2844 215.619 59.2844 214.95C59.2844 214.281 59.0762 213.802 58.6599 213.512C58.2435 213.209 57.6632 213.058 56.9188 213.058H54.9696C54.8308 213.058 54.7172 213.02 54.6289 212.944C54.5406 212.856 54.4965 212.742 54.4965 212.603V211.809C54.4965 211.682 54.5217 211.575 54.5722 211.487C54.6352 211.386 54.6983 211.304 54.7614 211.241L58.1489 207.929H52.7365C52.5977 207.929 52.4841 207.885 52.3958 207.797C52.3201 207.708 52.2823 207.601 52.2823 207.475V206.226C52.2823 206.087 52.3201 205.974 52.3958 205.885C52.4841 205.797 52.5977 205.753 52.7365 205.753H60.8551C60.9939 205.753 61.1075 205.797 61.1958 205.885C61.2841 205.974 61.3283 206.087 61.3283 206.226V207.361C61.3283 207.475 61.303 207.576 61.2526 207.664C61.2021 207.752 61.1453 207.828 61.0822 207.891L57.8083 211.26L58.0354 211.279C58.805 211.342 59.4863 211.518 60.0792 211.809C60.6848 212.086 61.1516 212.496 61.4797 213.039C61.8203 213.581 61.9906 214.263 61.9906 215.083C61.9906 215.941 61.7635 216.679 61.3093 217.297C60.8678 217.902 60.2559 218.369 59.4736 218.697C58.6914 219.025 57.7957 219.189 56.7863 219.189ZM69.0284 219.189C68.1326 219.189 67.3693 219.057 66.7385 218.792C66.1077 218.527 65.5904 218.161 65.1867 217.694C64.783 217.227 64.4802 216.691 64.2783 216.086C64.0764 215.467 63.9566 214.811 63.9187 214.117C63.9061 213.777 63.8935 213.405 63.8809 213.001C63.8809 212.585 63.8809 212.168 63.8809 211.752C63.8935 211.336 63.9061 210.951 63.9187 210.597C63.944 209.904 64.0638 209.254 64.2783 208.648C64.4928 208.03 64.8019 207.494 65.2056 207.04C65.6219 206.585 66.1455 206.226 66.7764 205.961C67.4072 205.696 68.1579 205.563 69.0284 205.563C69.9115 205.563 70.6685 205.696 71.2993 205.961C71.9302 206.226 72.4474 206.585 72.8512 207.04C73.2675 207.494 73.5766 208.03 73.7785 208.648C73.993 209.254 74.1128 209.904 74.138 210.597C74.1633 210.951 74.1759 211.336 74.1759 211.752C74.1759 212.168 74.1759 212.585 74.1759 213.001C74.1759 213.405 74.1633 213.777 74.138 214.117C74.1128 214.811 73.9993 215.467 73.7974 216.086C73.5955 216.691 73.2927 217.227 72.889 217.694C72.4853 218.161 71.9617 218.527 71.3183 218.792C70.6874 219.057 69.9242 219.189 69.0284 219.189ZM69.0284 217.013C69.8485 217.013 70.4477 216.748 70.8262 216.218C71.2173 215.676 71.4192 214.944 71.4318 214.023C71.4571 213.657 71.4697 213.291 71.4697 212.925C71.4697 212.547 71.4697 212.168 71.4697 211.79C71.4697 211.411 71.4571 211.052 71.4318 210.711C71.4192 209.815 71.2173 209.096 70.8262 208.554C70.4477 207.998 69.8485 207.721 69.0284 207.721C68.2209 207.721 67.6217 207.998 67.2305 208.554C66.852 209.096 66.6502 209.815 66.625 210.711C66.625 211.052 66.6186 211.411 66.606 211.79C66.606 212.168 66.606 212.547 66.606 212.925C66.6186 213.291 66.625 213.657 66.625 214.023C66.6502 214.944 66.8584 215.676 67.2495 216.218C67.6406 216.748 68.2336 217.013 69.0284 217.013ZM77.3406 219C77.0757 219 76.9432 218.874 76.9432 218.622C76.9432 218.546 76.9684 218.476 77.0189 218.413L86.3487 206.112C86.4371 205.999 86.5254 205.91 86.6137 205.847C86.702 205.784 86.8282 205.753 86.9922 205.753H87.9952C88.2601 205.753 88.3926 205.879 88.3926 206.131C88.3926 206.207 88.3674 206.276 88.3169 206.339L78.987 218.64C78.8987 218.754 78.8104 218.842 78.7221 218.905C78.6464 218.968 78.5202 219 78.3436 219H77.3406ZM86.4434 219.114C85.5981 219.114 84.9294 218.88 84.4374 218.413C83.9453 217.947 83.6741 217.335 83.6236 216.578C83.611 216.25 83.6047 215.966 83.6047 215.726C83.6047 215.486 83.611 215.19 83.6236 214.837C83.6741 214.08 83.9327 213.468 84.3995 213.001C84.8789 212.534 85.5602 212.301 86.4434 212.301C87.3391 212.301 88.0204 212.534 88.4872 213.001C88.9667 213.468 89.2253 214.08 89.2631 214.837C89.2884 215.19 89.301 215.486 89.301 215.726C89.301 215.966 89.2884 216.25 89.2631 216.578C89.2253 217.335 88.954 217.947 88.4494 218.413C87.9573 218.88 87.2887 219.114 86.4434 219.114ZM86.4434 217.637C86.7209 217.637 86.9354 217.581 87.0868 217.467C87.2508 217.354 87.3707 217.208 87.4464 217.032C87.5221 216.855 87.5599 216.679 87.5599 216.502C87.5852 216.187 87.5978 215.922 87.5978 215.707C87.5978 215.48 87.5852 215.221 87.5599 214.931C87.5473 214.641 87.459 214.376 87.295 214.136C87.131 213.884 86.8471 213.758 86.4434 213.758C86.0523 213.758 85.7747 213.884 85.6107 214.136C85.4467 214.376 85.352 214.641 85.3268 214.931C85.3142 215.221 85.3079 215.48 85.3079 215.707C85.3079 215.922 85.3142 216.187 85.3268 216.502C85.352 216.679 85.3962 216.855 85.4593 217.032C85.535 217.208 85.6485 217.354 85.7999 217.467C85.9639 217.581 86.1784 217.637 86.4434 217.637ZM78.8924 212.414C78.0471 212.414 77.3785 212.193 76.8864 211.752C76.3944 211.31 76.1231 210.711 76.0726 209.954C76.06 209.626 76.0537 209.342 76.0537 209.102C76.0537 208.85 76.06 208.547 76.0726 208.194C76.1231 207.437 76.3818 206.825 76.8486 206.358C77.328 205.892 78.0093 205.658 78.8924 205.658C79.7882 205.658 80.4695 205.892 80.9363 206.358C81.4157 206.825 81.6743 207.437 81.7122 208.194C81.7374 208.547 81.75 208.85 81.75 209.102C81.75 209.342 81.7374 209.626 81.7122 209.954C81.6743 210.711 81.4031 211.31 80.8984 211.752C80.4064 212.193 79.7377 212.414 78.8924 212.414ZM78.8924 211.014C79.17 211.014 79.3845 210.957 79.5359 210.843C79.6999 210.73 79.8197 210.585 79.8954 210.408C79.9711 210.232 80.009 210.049 80.009 209.859C80.0342 209.544 80.0468 209.279 80.0468 209.065C80.0468 208.837 80.0342 208.579 80.009 208.289C79.9964 207.998 79.908 207.734 79.744 207.494C79.58 207.254 79.2961 207.134 78.8924 207.134C78.5013 207.134 78.2238 207.254 78.0597 207.494C77.8957 207.734 77.8074 207.998 77.7948 208.289C77.7822 208.579 77.7759 208.837 77.7759 209.065C77.7759 209.279 77.7822 209.544 77.7948 209.859C77.8074 210.049 77.8453 210.232 77.9083 210.408C77.984 210.585 78.0976 210.73 78.249 210.843C78.413 210.957 78.6275 211.014 78.8924 211.014Z" fill="#FDA24C"/>
</g>
<path id="&#208;&#160;&#208;&#190;&#209;&#129;&#209;&#130; &#208;&#191;&#209;&#128;&#208;&#190;&#208;&#180;&#208;&#176;&#208;&#182;" d="M111.432 203.8C112.861 203.8 113.981 204.141 114.792 204.824C115.602 205.507 116.008 206.445 116.008 207.64C116.008 208.835 115.602 209.773 114.792 210.456C113.981 211.128 112.861 211.464 111.432 211.464H108.424V215H107.24V203.8H111.432ZM111.4 210.424C112.509 210.424 113.357 210.184 113.944 209.704C114.53 209.213 114.824 208.525 114.824 207.64C114.824 206.733 114.53 206.04 113.944 205.56C113.357 205.069 112.509 204.824 111.4 204.824H108.424V210.424H111.4ZM121.596 215.08C120.785 215.08 120.054 214.899 119.404 214.536C118.753 214.163 118.241 213.651 117.868 213C117.494 212.349 117.308 211.613 117.308 210.792C117.308 209.971 117.494 209.235 117.868 208.584C118.241 207.933 118.753 207.427 119.404 207.064C120.054 206.701 120.785 206.52 121.596 206.52C122.406 206.52 123.137 206.701 123.788 207.064C124.438 207.427 124.945 207.933 125.308 208.584C125.681 209.235 125.868 209.971 125.868 210.792C125.868 211.613 125.681 212.349 125.308 213C124.945 213.651 124.438 214.163 123.788 214.536C123.137 214.899 122.406 215.08 121.596 215.08ZM121.596 214.072C122.193 214.072 122.726 213.939 123.196 213.672C123.676 213.395 124.049 213.005 124.316 212.504C124.582 212.003 124.716 211.432 124.716 210.792C124.716 210.152 124.582 209.581 124.316 209.08C124.049 208.579 123.676 208.195 123.196 207.928C122.726 207.651 122.193 207.512 121.596 207.512C120.998 207.512 120.46 207.651 119.98 207.928C119.51 208.195 119.137 208.579 118.86 209.08C118.593 209.581 118.46 210.152 118.46 210.792C118.46 211.432 118.593 212.003 118.86 212.504C119.137 213.005 119.51 213.395 119.98 213.672C120.46 213.939 120.998 214.072 121.596 214.072ZM131.816 215.08C130.984 215.08 130.237 214.899 129.576 214.536C128.925 214.173 128.413 213.667 128.04 213.016C127.666 212.355 127.48 211.613 127.48 210.792C127.48 209.971 127.666 209.235 128.04 208.584C128.413 207.933 128.925 207.427 129.576 207.064C130.237 206.701 130.984 206.52 131.816 206.52C132.541 206.52 133.186 206.664 133.752 206.952C134.328 207.229 134.781 207.64 135.112 208.184L134.264 208.76C133.986 208.344 133.634 208.035 133.208 207.832C132.781 207.619 132.317 207.512 131.816 207.512C131.208 207.512 130.658 207.651 130.168 207.928C129.688 208.195 129.309 208.579 129.032 209.08C128.765 209.581 128.632 210.152 128.632 210.792C128.632 211.443 128.765 212.019 129.032 212.52C129.309 213.011 129.688 213.395 130.168 213.672C130.658 213.939 131.208 214.072 131.816 214.072C132.317 214.072 132.781 213.971 133.208 213.768C133.634 213.565 133.986 213.256 134.264 212.84L135.112 213.416C134.781 213.96 134.328 214.376 133.752 214.664C133.176 214.941 132.53 215.08 131.816 215.08ZM143.075 207.592H139.891V215H138.755V207.592H135.571V206.584H143.075V207.592ZM156.457 206.584V215H155.321V207.592H150.041V215H148.905V206.584H156.457ZM164.022 206.52C164.812 206.52 165.526 206.701 166.166 207.064C166.806 207.416 167.308 207.917 167.67 208.568C168.033 209.219 168.214 209.96 168.214 210.792C168.214 211.635 168.033 212.381 167.67 213.032C167.308 213.683 166.806 214.189 166.166 214.552C165.537 214.904 164.822 215.08 164.022 215.08C163.34 215.08 162.721 214.941 162.166 214.664C161.622 214.376 161.174 213.96 160.822 213.416V218.104H159.686V206.584H160.774V208.248C161.116 207.693 161.564 207.267 162.118 206.968C162.684 206.669 163.318 206.52 164.022 206.52ZM163.942 214.072C164.529 214.072 165.062 213.939 165.542 213.672C166.022 213.395 166.396 213.005 166.662 212.504C166.94 212.003 167.078 211.432 167.078 210.792C167.078 210.152 166.94 209.587 166.662 209.096C166.396 208.595 166.022 208.205 165.542 207.928C165.062 207.651 164.529 207.512 163.942 207.512C163.345 207.512 162.806 207.651 162.326 207.928C161.857 208.205 161.484 208.595 161.206 209.096C160.94 209.587 160.806 210.152 160.806 210.792C160.806 211.432 160.94 212.003 161.206 212.504C161.484 213.005 161.857 213.395 162.326 213.672C162.806 213.939 163.345 214.072 163.942 214.072ZM174.127 215.08C173.316 215.08 172.586 214.899 171.935 214.536C171.284 214.163 170.772 213.651 170.399 213C170.026 212.349 169.839 211.613 169.839 210.792C169.839 209.971 170.026 209.235 170.399 208.584C170.772 207.933 171.284 207.427 171.935 207.064C172.586 206.701 173.316 206.52 174.127 206.52C174.938 206.52 175.668 206.701 176.319 207.064C176.97 207.427 177.476 207.933 177.839 208.584C178.212 209.235 178.399 209.971 178.399 210.792C178.399 211.613 178.212 212.349 177.839 213C177.476 213.651 176.97 214.163 176.319 214.536C175.668 214.899 174.938 215.08 174.127 215.08ZM174.127 214.072C174.724 214.072 175.258 213.939 175.727 213.672C176.207 213.395 176.58 213.005 176.847 212.504C177.114 212.003 177.247 211.432 177.247 210.792C177.247 210.152 177.114 209.581 176.847 209.08C176.58 208.579 176.207 208.195 175.727 207.928C175.258 207.651 174.724 207.512 174.127 207.512C173.53 207.512 172.991 207.651 172.511 207.928C172.042 208.195 171.668 208.579 171.391 209.08C171.124 209.581 170.991 210.152 170.991 210.792C170.991 211.432 171.124 212.003 171.391 212.504C171.668 213.005 172.042 213.395 172.511 213.672C172.991 213.939 173.53 214.072 174.127 214.072ZM188.988 214.008V217.032H187.916V215H180.38V217.032H179.308V214.008H179.788C180.353 213.976 180.737 213.56 180.94 212.76C181.143 211.96 181.281 210.84 181.356 209.4L181.468 206.584H187.676V214.008H188.988ZM182.396 209.464C182.343 210.659 182.241 211.645 182.092 212.424C181.943 213.192 181.676 213.72 181.292 214.008H186.54V207.592H182.492L182.396 209.464ZM194.098 206.52C195.197 206.52 196.039 206.797 196.626 207.352C197.213 207.896 197.506 208.707 197.506 209.784V215H196.418V213.688C196.162 214.125 195.783 214.467 195.282 214.712C194.791 214.957 194.205 215.08 193.522 215.08C192.583 215.08 191.837 214.856 191.282 214.408C190.727 213.96 190.45 213.368 190.45 212.632C190.45 211.917 190.706 211.341 191.218 210.904C191.741 210.467 192.567 210.248 193.698 210.248H196.37V209.736C196.37 209.011 196.167 208.461 195.762 208.088C195.357 207.704 194.765 207.512 193.986 207.512C193.453 207.512 192.941 207.603 192.45 207.784C191.959 207.955 191.538 208.195 191.186 208.504L190.674 207.656C191.101 207.293 191.613 207.016 192.21 206.824C192.807 206.621 193.437 206.52 194.098 206.52ZM193.698 214.184C194.338 214.184 194.887 214.04 195.346 213.752C195.805 213.453 196.146 213.027 196.37 212.472V211.096H193.73C192.29 211.096 191.57 211.597 191.57 212.6C191.57 213.091 191.757 213.48 192.13 213.768C192.503 214.045 193.026 214.184 193.698 214.184ZM207.906 211.256H206.082V215H204.946V211.256H203.122L200.546 215H199.186L202.21 210.664L199.426 206.584H200.658L203.122 210.28H204.946V206.584H206.082V210.28H207.906L210.386 206.584H211.618L208.834 210.68L211.858 215H210.498L207.906 211.256Z" fill="#2D2D2D"/>
<g id="Rectangle 335_4">
<rect x="104" y="223" width="255" height="4" rx="2" fill="#DAF0FF"/>
<rect x="104" y="223" width="255" height="4" rx="2" fill="#FFF5EB"/>
</g>
<rect id="3-scale-3" x="104" y="223" width="4" height="4" rx="2" fill="#FDA24C"/>
</g>
</g>
</g>
</g>
<defs>
<filter id="filter0_d_884_2741" x="0" y="0" width="414" height="286" filterUnits="userSpaceOnUse" color-interpolation-filters="sRGB">
<feFlood flood-opacity="0" result="BackgroundImageFix"/>
<feColorMatrix in="SourceAlpha" type="matrix" values="0 0 0 0 0 0 0 0 0 0 0 0 0 0 0 0 0 0 127 0" result="hardAlpha"/>
<feOffset dy="4"/>
<feGaussianBlur stdDeviation="17"/>
<feComposite in2="hardAlpha" operator="out"/>
<feColorMatrix type="matrix" values="0 0 0 0 0 0 0 0 0 0 0 0 0 0 0 0 0 0 0.1 0"/>
<feBlend mode="normal" in2="BackgroundImageFix" result="effect1_dropShadow_884_2741"/>
<feBlend mode="normal" in="SourceGraphic" in2="effect1_dropShadow_884_2741" result="shape"/>
</filter>
<linearGradient id="paint0_linear_884_2741" x1="370.993" y1="248" x2="19.0612" y2="98.9387" gradientUnits="userSpaceOnUse">
<stop stop-color="#FBF6FF"/>
<stop offset="1" stop-color="white"/>
</linearGradient>
<linearGradient id="paint1_linear_884_2741" x1="36.2179" y1="33.3945" x2="404.596" y2="176.121" gradientUnits="userSpaceOnUse">
<stop stop-color="#FAFDFC"/>
<stop offset="1" stop-color="#F0F8FD"/>
</linearGradient>
<linearGradient id="paint2_linear_884_2741" x1="46.9763" y1="56.0202" x2="94.8092" y2="58.219" gradientUnits="userSpaceOnUse">
<stop stop-color="#1C89D1"/>
<stop offset="1" stop-color="#2FA0EB"/>
</linearGradient>
<linearGradient id="paint3_linear_884_2741" x1="103.998" y1="76.1943" x2="108.076" y2="76.2781" gradientUnits="userSpaceOnUse">
<stop stop-color="#1C89D1"/>
<stop offset="1" stop-color="#2FA0EB"/>
</linearGradient>
</defs>
</svg>
