<svg width="290" height="176" viewBox="0 0 290 176" fill="none" xmlns="http://www.w3.org/2000/svg">
<g id="4">
<g id="Rectangle 528" filter="url(#filter0_d_884_2886)">
<rect x="34" y="30" width="222" height="108" rx="10" fill="white"/>
<rect x="34" y="30" width="222" height="108" rx="10" fill="url(#paint0_linear_884_2886)"/>
</g>
<path id="&#208;&#149;&#208;&#182;&#208;&#181;&#208;&#188;&#208;&#181;&#209;&#129;&#209;&#143;&#209;&#135;&#208;&#189;&#208;&#176;&#209;&#143; &#209;&#141;&#208;&#186;&#208;&#190;&#208;&#189;&#208;&#190;&#208;&#188;&#208;&#184;&#209;&#143;" d="M53.808 49.976V51H45.888V39.8H53.568V40.824H47.072V44.808H52.864V45.816H47.072V49.976H53.808ZM63.3045 47.256H61.4805V51H60.3445V47.256H58.5205L55.9445 51H54.5845L57.6085 46.664L54.8245 42.584H56.0565L58.5205 46.28H60.3445V42.584H61.4805V46.28H63.3045L65.7845 42.584H67.0165L64.2325 46.68L67.2565 51H65.8965L63.3045 47.256ZM76.2104 47.144H69.1704C69.2344 48.0187 69.5704 48.728 70.1784 49.272C70.7864 49.8053 71.5544 50.072 72.4824 50.072C73.005 50.072 73.485 49.9813 73.9224 49.8C74.3597 49.608 74.7384 49.3307 75.0584 48.968L75.6984 49.704C75.325 50.152 74.8557 50.4933 74.2904 50.728C73.7357 50.9627 73.1224 51.08 72.4504 51.08C71.5864 51.08 70.8184 50.8987 70.1464 50.536C69.485 50.1627 68.9677 49.6507 68.5944 49C68.221 48.3493 68.0344 47.6133 68.0344 46.792C68.0344 45.9707 68.2104 45.2347 68.5624 44.584C68.925 43.9333 69.4157 43.4267 70.0344 43.064C70.6637 42.7013 71.3677 42.52 72.1464 42.52C72.925 42.52 73.6237 42.7013 74.2424 43.064C74.861 43.4267 75.3464 43.9333 75.6984 44.584C76.0504 45.224 76.2264 45.96 76.2264 46.792L76.2104 47.144ZM72.1464 43.496C71.3357 43.496 70.653 43.7573 70.0984 44.28C69.5544 44.792 69.245 45.464 69.1704 46.296H75.1384C75.0637 45.464 74.749 44.792 74.1944 44.28C73.6504 43.7573 72.9677 43.496 72.1464 43.496ZM88.149 42.584V51H87.109V44.344L83.701 49.976H83.189L79.781 44.328V51H78.741V42.584H79.893L83.461 48.648L87.093 42.584H88.149ZM98.7416 47.144H91.7016C91.7656 48.0187 92.1016 48.728 92.7096 49.272C93.3176 49.8053 94.0856 50.072 95.0136 50.072C95.5363 50.072 96.0163 49.9813 96.4536 49.8C96.891 49.608 97.2696 49.3307 97.5896 48.968L98.2296 49.704C97.8563 50.152 97.387 50.4933 96.8216 50.728C96.267 50.9627 95.6536 51.08 94.9816 51.08C94.1176 51.08 93.3496 50.8987 92.6776 50.536C92.0163 50.1627 91.499 49.6507 91.1256 49C90.7523 48.3493 90.5656 47.6133 90.5656 46.792C90.5656 45.9707 90.7416 45.2347 91.0936 44.584C91.4563 43.9333 91.947 43.4267 92.5656 43.064C93.195 42.7013 93.899 42.52 94.6776 42.52C95.4563 42.52 96.155 42.7013 96.7736 43.064C97.3923 43.4267 97.8776 43.9333 98.2296 44.584C98.5816 45.224 98.7576 45.96 98.7576 46.792L98.7416 47.144ZM94.6776 43.496C93.867 43.496 93.1843 43.7573 92.6296 44.28C92.0856 44.792 91.7763 45.464 91.7016 46.296H97.6696C97.595 45.464 97.2803 44.792 96.7256 44.28C96.1816 43.7573 95.499 43.496 94.6776 43.496ZM104.792 51.08C103.96 51.08 103.214 50.8987 102.552 50.536C101.902 50.1733 101.39 49.6667 101.016 49.016C100.643 48.3547 100.456 47.6133 100.456 46.792C100.456 45.9707 100.643 45.2347 101.016 44.584C101.39 43.9333 101.902 43.4267 102.552 43.064C103.214 42.7013 103.96 42.52 104.792 42.52C105.518 42.52 106.163 42.664 106.728 42.952C107.304 43.2293 107.758 43.64 108.088 44.184L107.24 44.76C106.963 44.344 106.611 44.0347 106.184 43.832C105.758 43.6187 105.294 43.512 104.792 43.512C104.184 43.512 103.635 43.6507 103.144 43.928C102.664 44.1947 102.286 44.5787 102.008 45.08C101.742 45.5813 101.608 46.152 101.608 46.792C101.608 47.4427 101.742 48.0187 102.008 48.52C102.286 49.0107 102.664 49.3947 103.144 49.672C103.635 49.9387 104.184 50.072 104.792 50.072C105.294 50.072 105.758 49.9707 106.184 49.768C106.611 49.5653 106.963 49.256 107.24 48.84L108.088 49.416C107.758 49.96 107.304 50.376 106.728 50.664C106.152 50.9413 105.507 51.08 104.792 51.08ZM116.471 42.584V51H115.431V48.216H112.791H112.471L110.519 51H109.287L111.383 48.056C110.732 47.8747 110.231 47.5653 109.879 47.128C109.527 46.6907 109.351 46.136 109.351 45.464C109.351 44.5253 109.671 43.8107 110.311 43.32C110.951 42.8293 111.825 42.584 112.935 42.584H116.471ZM110.503 45.496C110.503 46.744 111.297 47.368 112.887 47.368H115.431V43.592H112.967C111.324 43.592 110.503 44.2267 110.503 45.496ZM126.062 42.584V51H124.926V47.496C123.955 47.9227 123 48.136 122.062 48.136C121.048 48.136 120.259 47.9067 119.694 47.448C119.128 46.9787 118.846 46.28 118.846 45.352V42.584H119.982V45.288C119.982 45.9173 120.184 46.3973 120.59 46.728C120.995 47.048 121.555 47.208 122.27 47.208C123.059 47.208 123.944 47 124.926 46.584V42.584H126.062ZM129.288 42.584H130.424V46.312H135.72V42.584H136.856V51H135.72V47.288H130.424V51H129.288V42.584ZM142.981 42.52C144.079 42.52 144.922 42.7973 145.509 43.352C146.095 43.896 146.389 44.7067 146.389 45.784V51H145.301V49.688C145.045 50.1253 144.666 50.4667 144.165 50.712C143.674 50.9573 143.087 51.08 142.405 51.08C141.466 51.08 140.719 50.856 140.165 50.408C139.61 49.96 139.333 49.368 139.333 48.632C139.333 47.9173 139.589 47.3413 140.101 46.904C140.623 46.4667 141.45 46.248 142.581 46.248H145.253V45.736C145.253 45.0107 145.05 44.4613 144.645 44.088C144.239 43.704 143.647 43.512 142.869 43.512C142.335 43.512 141.823 43.6027 141.333 43.784C140.842 43.9547 140.421 44.1947 140.069 44.504L139.557 43.656C139.983 43.2933 140.495 43.016 141.093 42.824C141.69 42.6213 142.319 42.52 142.981 42.52ZM142.581 50.184C143.221 50.184 143.77 50.04 144.229 49.752C144.687 49.4533 145.029 49.0267 145.253 48.472V47.096H142.613C141.173 47.096 140.453 47.5973 140.453 48.6C140.453 49.0907 140.639 49.48 141.013 49.768C141.386 50.0453 141.909 50.184 142.581 50.184ZM155.877 42.584V51H154.837V48.216H152.197H151.877L149.925 51H148.693L150.789 48.056C150.138 47.8747 149.637 47.5653 149.285 47.128C148.933 46.6907 148.757 46.136 148.757 45.464C148.757 44.5253 149.077 43.8107 149.717 43.32C150.357 42.8293 151.232 42.584 152.341 42.584H155.877ZM149.909 45.496C149.909 46.744 150.704 47.368 152.293 47.368H154.837V43.592H152.373C150.73 43.592 149.909 44.2267 149.909 45.496ZM165.592 42.52C166.434 42.52 167.192 42.7067 167.864 43.08C168.546 43.4427 169.08 43.9493 169.464 44.6C169.858 45.2507 170.056 45.9813 170.056 46.792C170.056 47.6027 169.858 48.3387 169.464 49C169.08 49.6507 168.546 50.1627 167.864 50.536C167.192 50.9093 166.434 51.096 165.592 51.096C164.888 51.096 164.242 50.9893 163.656 50.776C163.069 50.552 162.573 50.232 162.168 49.816L162.84 49.144C163.554 49.816 164.456 50.152 165.544 50.152C166.152 50.152 166.701 50.024 167.192 49.768C167.693 49.512 168.098 49.1547 168.408 48.696C168.728 48.2373 168.914 47.7253 168.968 47.16H164.472V46.296H168.952C168.834 45.4533 168.461 44.7707 167.832 44.248C167.202 43.7147 166.44 43.448 165.544 43.448C164.456 43.448 163.554 43.784 162.84 44.456L162.168 43.8C162.573 43.384 163.069 43.0693 163.656 42.856C164.242 42.632 164.888 42.52 165.592 42.52ZM175.5 47.256H173.58V51H172.444V42.584H173.58V46.28H175.516L178.476 42.584H179.708L176.396 46.664L179.948 51H178.604L175.5 47.256ZM184.916 51.08C184.105 51.08 183.375 50.8987 182.724 50.536C182.073 50.1627 181.561 49.6507 181.188 49C180.815 48.3493 180.628 47.6133 180.628 46.792C180.628 45.9707 180.815 45.2347 181.188 44.584C181.561 43.9333 182.073 43.4267 182.724 43.064C183.375 42.7013 184.105 42.52 184.916 42.52C185.727 42.52 186.457 42.7013 187.108 43.064C187.759 43.4267 188.265 43.9333 188.628 44.584C189.001 45.2347 189.188 45.9707 189.188 46.792C189.188 47.6133 189.001 48.3493 188.628 49C188.265 49.6507 187.759 50.1627 187.108 50.536C186.457 50.8987 185.727 51.08 184.916 51.08ZM184.916 50.072C185.513 50.072 186.047 49.9387 186.516 49.672C186.996 49.3947 187.369 49.0053 187.636 48.504C187.903 48.0027 188.036 47.432 188.036 46.792C188.036 46.152 187.903 45.5813 187.636 45.08C187.369 44.5787 186.996 44.1947 186.516 43.928C186.047 43.6507 185.513 43.512 184.916 43.512C184.319 43.512 183.78 43.6507 183.3 43.928C182.831 44.1947 182.457 44.5787 182.18 45.08C181.913 45.5813 181.78 46.152 181.78 46.792C181.78 47.432 181.913 48.0027 182.18 48.504C182.457 49.0053 182.831 49.3947 183.3 49.672C183.78 49.9387 184.319 50.072 184.916 50.072ZM191.616 42.584H192.752V46.312H198.048V42.584H199.184V51H198.048V47.288H192.752V51H191.616V42.584ZM205.885 51.08C205.074 51.08 204.344 50.8987 203.693 50.536C203.042 50.1627 202.53 49.6507 202.157 49C201.784 48.3493 201.597 47.6133 201.597 46.792C201.597 45.9707 201.784 45.2347 202.157 44.584C202.53 43.9333 203.042 43.4267 203.693 43.064C204.344 42.7013 205.074 42.52 205.885 42.52C206.696 42.52 207.426 42.7013 208.077 43.064C208.728 43.4267 209.234 43.9333 209.597 44.584C209.97 45.2347 210.157 45.9707 210.157 46.792C210.157 47.6133 209.97 48.3493 209.597 49C209.234 49.6507 208.728 50.1627 208.077 50.536C207.426 50.8987 206.696 51.08 205.885 51.08ZM205.885 50.072C206.482 50.072 207.016 49.9387 207.485 49.672C207.965 49.3947 208.338 49.0053 208.605 48.504C208.872 48.0027 209.005 47.432 209.005 46.792C209.005 46.152 208.872 45.5813 208.605 45.08C208.338 44.5787 207.965 44.1947 207.485 43.928C207.016 43.6507 206.482 43.512 205.885 43.512C205.288 43.512 204.749 43.6507 204.269 43.928C203.8 44.1947 203.426 44.5787 203.149 45.08C202.882 45.5813 202.749 46.152 202.749 46.792C202.749 47.432 202.882 48.0027 203.149 48.504C203.426 49.0053 203.8 49.3947 204.269 49.672C204.749 49.9387 205.288 50.072 205.885 50.072ZM221.993 42.584V51H220.953V44.344L217.545 49.976H217.033L213.625 44.328V51H212.585V42.584H213.737L217.305 48.648L220.937 42.584H221.993ZM225.225 42.584H226.361V49.272L231.977 42.584H232.985V51H231.849V44.312L226.249 51H225.225V42.584ZM242.705 42.584V51H241.665V48.216H239.025H238.705L236.753 51H235.521L237.617 48.056C236.966 47.8747 236.465 47.5653 236.113 47.128C235.761 46.6907 235.585 46.136 235.585 45.464C235.585 44.5253 235.905 43.8107 236.545 43.32C237.185 42.8293 238.06 42.584 239.169 42.584H242.705ZM236.737 45.496C236.737 46.744 237.532 47.368 239.121 47.368H241.665V43.592H239.201C237.558 43.592 236.737 44.2267 236.737 45.496Z" fill="#2D2D2D"/>
<g id="4-price-up-min">
<path id="&#208;&#190;&#209;&#130; 0 &#226;&#130;&#189;" d="M49.886 76.144C48.866 76.144 47.948 75.934 47.132 75.514C46.328 75.082 45.698 74.488 45.242 73.732C44.786 72.976 44.558 72.118 44.558 71.158C44.558 70.198 44.786 69.34 45.242 68.584C45.698 67.828 46.328 67.24 47.132 66.82C47.948 66.388 48.866 66.172 49.886 66.172C50.906 66.172 51.818 66.388 52.622 66.82C53.426 67.24 54.056 67.828 54.512 68.584C54.968 69.34 55.196 70.198 55.196 71.158C55.196 72.118 54.968 72.976 54.512 73.732C54.056 74.488 53.426 75.082 52.622 75.514C51.818 75.934 50.906 76.144 49.886 76.144ZM49.886 73.84C50.606 73.84 51.194 73.6 51.65 73.12C52.118 72.628 52.352 71.974 52.352 71.158C52.352 70.342 52.118 69.694 51.65 69.214C51.194 68.722 50.606 68.476 49.886 68.476C49.166 68.476 48.572 68.722 48.104 69.214C47.636 69.694 47.402 70.342 47.402 71.158C47.402 71.974 47.636 72.628 48.104 73.12C48.572 73.6 49.166 73.84 49.886 73.84ZM64.9118 68.62H61.6358V76H58.8458V68.62H55.5698V66.316H64.9118V68.62ZM76.3303 76.252C75.2503 76.252 74.2903 75.994 73.4503 75.478C72.6103 74.962 71.9503 74.212 71.4703 73.228C71.0023 72.232 70.7683 71.056 70.7683 69.7C70.7683 68.344 71.0023 67.174 71.4703 66.19C71.9503 65.194 72.6103 64.438 73.4503 63.922C74.2903 63.406 75.2503 63.148 76.3303 63.148C77.3983 63.148 78.3523 63.406 79.1923 63.922C80.0323 64.438 80.6863 65.194 81.1543 66.19C81.6343 67.174 81.8743 68.344 81.8743 69.7C81.8743 71.056 81.6343 72.232 81.1543 73.228C80.6863 74.212 80.0323 74.962 79.1923 75.478C78.3523 75.994 77.3983 76.252 76.3303 76.252ZM76.3303 73.336C76.9303 73.336 77.4043 73.048 77.7523 72.472C78.1123 71.884 78.2923 70.96 78.2923 69.7C78.2923 68.44 78.1123 67.522 77.7523 66.946C77.4043 66.358 76.9303 66.064 76.3303 66.064C75.7183 66.064 75.2323 66.358 74.8723 66.946C74.5243 67.522 74.3503 68.44 74.3503 69.7C74.3503 70.96 74.5243 71.884 74.8723 72.472C75.2323 73.048 75.7183 73.336 76.3303 73.336ZM93.5128 71.932V72.886H97.3468V74.632H93.5128V76H89.9308V74.632H88.2568V72.886H89.9308V63.4H95.6908C97.4548 63.4 98.8288 63.76 99.8128 64.48C100.797 65.2 101.289 66.262 101.289 67.666C101.289 69.07 100.797 70.132 99.8128 70.852C98.8288 71.572 97.4548 71.932 95.6908 71.932H93.5128ZM97.6888 67.702C97.6888 67.222 97.5088 66.856 97.1488 66.604C96.8008 66.34 96.3028 66.208 95.6548 66.208H93.5128V69.214H95.6548C96.3028 69.214 96.8008 69.082 97.1488 68.818C97.5088 68.554 97.6888 68.182 97.6888 67.702Z" fill="#2D2D2D"/>
</g>
<g id="4-price-up-max">
<path id="&#208;&#190;&#209;&#130; 150 000 &#226;&#130;&#189;" d="M49.886 76.144C48.866 76.144 47.948 75.934 47.132 75.514C46.328 75.082 45.698 74.488 45.242 73.732C44.786 72.976 44.558 72.118 44.558 71.158C44.558 70.198 44.786 69.34 45.242 68.584C45.698 67.828 46.328 67.24 47.132 66.82C47.948 66.388 48.866 66.172 49.886 66.172C50.906 66.172 51.818 66.388 52.622 66.82C53.426 67.24 54.056 67.828 54.512 68.584C54.968 69.34 55.196 70.198 55.196 71.158C55.196 72.118 54.968 72.976 54.512 73.732C54.056 74.488 53.426 75.082 52.622 75.514C51.818 75.934 50.906 76.144 49.886 76.144ZM49.886 73.84C50.606 73.84 51.194 73.6 51.65 73.12C52.118 72.628 52.352 71.974 52.352 71.158C52.352 70.342 52.118 69.694 51.65 69.214C51.194 68.722 50.606 68.476 49.886 68.476C49.166 68.476 48.572 68.722 48.104 69.214C47.636 69.694 47.402 70.342 47.402 71.158C47.402 71.974 47.636 72.628 48.104 73.12C48.572 73.6 49.166 73.84 49.886 73.84ZM64.9118 68.62H61.6358V76H58.8458V68.62H55.5698V66.316H64.9118V68.62ZM75.7183 63.4V76H72.8022V65.74H70.2823V63.4H75.7183ZM82.2271 68.134C84.0031 68.134 85.3111 68.488 86.1511 69.196C87.0031 69.904 87.4291 70.852 87.4291 72.04C87.4291 72.808 87.2371 73.51 86.8531 74.146C86.4691 74.77 85.8811 75.274 85.0891 75.658C84.3091 76.03 83.3431 76.216 82.1911 76.216C81.3031 76.216 80.4271 76.102 79.5631 75.874C78.7111 75.634 77.9851 75.298 77.3851 74.866L78.5371 72.634C79.0171 72.994 79.5691 73.276 80.1931 73.48C80.8171 73.672 81.4591 73.768 82.1191 73.768C82.8511 73.768 83.4271 73.624 83.8471 73.336C84.2671 73.048 84.4771 72.646 84.4771 72.13C84.4771 71.59 84.2551 71.182 83.8111 70.906C83.3791 70.63 82.6231 70.492 81.5431 70.492H78.3211L78.9691 63.4H86.6551V65.74H81.3991L81.2011 68.134H82.2271ZM94.0122 76.216C92.9682 76.216 92.0382 75.958 91.2222 75.442C90.4062 74.926 89.7642 74.182 89.2962 73.21C88.8402 72.226 88.6122 71.056 88.6122 69.7C88.6122 68.344 88.8402 67.18 89.2962 66.208C89.7642 65.224 90.4062 64.474 91.2222 63.958C92.0382 63.442 92.9682 63.184 94.0122 63.184C95.0562 63.184 95.9862 63.442 96.8022 63.958C97.6182 64.474 98.2542 65.224 98.7102 66.208C99.1782 67.18 99.4122 68.344 99.4122 69.7C99.4122 71.056 99.1782 72.226 98.7102 73.21C98.2542 74.182 97.6182 74.926 96.8022 75.442C95.9862 75.958 95.0562 76.216 94.0122 76.216ZM94.0122 73.75C94.7802 73.75 95.3802 73.42 95.8122 72.76C96.2562 72.1 96.4782 71.08 96.4782 69.7C96.4782 68.32 96.2562 67.3 95.8122 66.64C95.3802 65.98 94.7802 65.65 94.0122 65.65C93.2562 65.65 92.6562 65.98 92.2122 66.64C91.7802 67.3 91.5642 68.32 91.5642 69.7C91.5642 71.08 91.7802 72.1 92.2122 72.76C92.6562 73.42 93.2562 73.75 94.0122 73.75ZM111.399 76.252C110.319 76.252 109.359 75.994 108.519 75.478C107.679 74.962 107.019 74.212 106.539 73.228C106.071 72.232 105.837 71.056 105.837 69.7C105.837 68.344 106.071 67.174 106.539 66.19C107.019 65.194 107.679 64.438 108.519 63.922C109.359 63.406 110.319 63.148 111.399 63.148C112.467 63.148 113.421 63.406 114.261 63.922C115.101 64.438 115.755 65.194 116.223 66.19C116.703 67.174 116.943 68.344 116.943 69.7C116.943 71.056 116.703 72.232 116.223 73.228C115.755 74.212 115.101 74.962 114.261 75.478C113.421 75.994 112.467 76.252 111.399 76.252ZM111.399 73.336C111.999 73.336 112.473 73.048 112.821 72.472C113.181 71.884 113.361 70.96 113.361 69.7C113.361 68.44 113.181 67.522 112.821 66.946C112.473 66.358 111.999 66.064 111.399 66.064C110.787 66.064 110.301 66.358 109.941 66.946C109.593 67.522 109.419 68.44 109.419 69.7C109.419 70.96 109.593 71.884 109.941 72.472C110.301 73.048 110.787 73.336 111.399 73.336ZM123.721 76.252C122.641 76.252 121.681 75.994 120.841 75.478C120.001 74.962 119.341 74.212 118.861 73.228C118.393 72.232 118.159 71.056 118.159 69.7C118.159 68.344 118.393 67.174 118.861 66.19C119.341 65.194 120.001 64.438 120.841 63.922C121.681 63.406 122.641 63.148 123.721 63.148C124.789 63.148 125.743 63.406 126.583 63.922C127.423 64.438 128.077 65.194 128.545 66.19C129.025 67.174 129.265 68.344 129.265 69.7C129.265 71.056 129.025 72.232 128.545 73.228C128.077 74.212 127.423 74.962 126.583 75.478C125.743 75.994 124.789 76.252 123.721 76.252ZM123.721 73.336C124.321 73.336 124.795 73.048 125.143 72.472C125.503 71.884 125.683 70.96 125.683 69.7C125.683 68.44 125.503 67.522 125.143 66.946C124.795 66.358 124.321 66.064 123.721 66.064C123.109 66.064 122.623 66.358 122.263 66.946C121.915 67.522 121.741 68.44 121.741 69.7C121.741 70.96 121.915 71.884 122.263 72.472C122.623 73.048 123.109 73.336 123.721 73.336ZM136.043 76.252C134.963 76.252 134.003 75.994 133.163 75.478C132.323 74.962 131.663 74.212 131.183 73.228C130.715 72.232 130.481 71.056 130.481 69.7C130.481 68.344 130.715 67.174 131.183 66.19C131.663 65.194 132.323 64.438 133.163 63.922C134.003 63.406 134.963 63.148 136.043 63.148C137.111 63.148 138.065 63.406 138.905 63.922C139.745 64.438 140.399 65.194 140.867 66.19C141.347 67.174 141.587 68.344 141.587 69.7C141.587 71.056 141.347 72.232 140.867 73.228C140.399 74.212 139.745 74.962 138.905 75.478C138.065 75.994 137.111 76.252 136.043 76.252ZM136.043 73.336C136.643 73.336 137.117 73.048 137.465 72.472C137.825 71.884 138.005 70.96 138.005 69.7C138.005 68.44 137.825 67.522 137.465 66.946C137.117 66.358 136.643 66.064 136.043 66.064C135.431 66.064 134.945 66.358 134.585 66.946C134.237 67.522 134.063 68.44 134.063 69.7C134.063 70.96 134.237 71.884 134.585 72.472C134.945 73.048 135.431 73.336 136.043 73.336ZM153.226 71.932V72.886H157.06V74.632H153.226V76H149.644V74.632H147.97V72.886H149.644V63.4H155.404C157.168 63.4 158.542 63.76 159.526 64.48C160.51 65.2 161.002 66.262 161.002 67.666C161.002 69.07 160.51 70.132 159.526 70.852C158.542 71.572 157.168 71.932 155.404 71.932H153.226ZM157.402 67.702C157.402 67.222 157.222 66.856 156.862 66.604C156.514 66.34 156.016 66.208 155.368 66.208H153.226V69.214H155.368C156.016 69.214 156.514 69.082 156.862 68.818C157.222 68.554 157.402 68.182 157.402 67.702Z" fill="#2D2D2D"/>
</g>
<g id="Group 1327">
<g id="4-range-min">
<path id="Vector 21" d="M138 110.136C138.561 108.485 139.394 106.546 140.504 104.5" stroke="url(#paint1_linear_884_2886)" stroke-width="2" stroke-linecap="round"/>
</g>
<g id="4-range-max">
<path id="Vector 20" d="M224.591 86.6358C192.875 99.6357 195.392 89.6358 171.227 86.6358C156.496 84.8071 146.677 94.2808 141.5 102.802C139.883 105.464 138.719 108.033 138 110.136V130H245.736V78.1361C245.736 78.1361 249.965 76.2359 224.591 86.6358Z" fill="url(#paint2_linear_884_2886)"/>
<path id="Vector 21_2" d="M138 110.136C138.561 108.485 139.394 106.546 140.504 104.5C145.331 95.6021 155.389 84.6845 171 86.6358C195 89.6358 192.5 99.6357 224 86.6358C249.2 76.2359 245 78.1361 245 78.1361" stroke="url(#paint3_linear_884_2886)" stroke-width="2" stroke-linecap="round"/>
</g>
<g id="4-aura">
<path id="Vector 22" d="M208.5 72.5C246 71.5 269 80 269 80C269 80 205 98 171 117.5C149.5 120 115.5 109 115.5 109C115.5 109 168.5 78 208.5 72.5Z" fill="url(#paint4_linear_884_2886)"/>
</g>
</g>
<g id="Group 1331">
<g id="4-price-down-min">
<path id="0 &#226;&#130;&#189;" d="M76.31 118.06C75.77 118.06 75.2867 117.917 74.86 117.63C74.44 117.343 74.11 116.933 73.87 116.4C73.6367 115.86 73.52 115.227 73.52 114.5C73.52 113.773 73.6367 113.143 73.87 112.61C74.11 112.07 74.44 111.657 74.86 111.37C75.2867 111.083 75.77 110.94 76.31 110.94C76.85 110.94 77.33 111.083 77.75 111.37C78.1767 111.657 78.51 112.07 78.75 112.61C78.99 113.143 79.11 113.773 79.11 114.5C79.11 115.227 78.99 115.86 78.75 116.4C78.51 116.933 78.1767 117.343 77.75 117.63C77.33 117.917 76.85 118.06 76.31 118.06ZM76.31 117.4C76.7167 117.4 77.0733 117.287 77.38 117.06C77.6933 116.833 77.9367 116.503 78.11 116.07C78.2833 115.637 78.37 115.113 78.37 114.5C78.37 113.887 78.2833 113.363 78.11 112.93C77.9367 112.497 77.6933 112.167 77.38 111.94C77.0733 111.713 76.7167 111.6 76.31 111.6C75.9033 111.6 75.5433 111.713 75.23 111.94C74.9233 112.167 74.6833 112.497 74.51 112.93C74.3367 113.363 74.25 113.887 74.25 114.5C74.25 115.113 74.3367 115.637 74.51 116.07C74.6833 116.503 74.9233 116.833 75.23 117.06C75.5433 117.287 75.9033 117.4 76.31 117.4ZM84.3283 115.65V116.26H86.5783V116.7H84.3283V118H83.5883V116.7H82.5383V116.26H83.5883V111H86.2083C87.1083 111 87.8083 111.203 88.3083 111.61C88.8149 112.01 89.0683 112.58 89.0683 113.32C89.0683 114.067 88.8149 114.643 88.3083 115.05C87.8083 115.45 87.1083 115.65 86.2083 115.65H84.3283ZM84.3283 111.64V115.02H86.2183C86.8983 115.02 87.4183 114.873 87.7783 114.58C88.1449 114.287 88.3283 113.87 88.3283 113.33C88.3283 112.79 88.1449 112.373 87.7783 112.08C87.4183 111.787 86.8983 111.64 86.2183 111.64H84.3283Z" fill="url(#paint5_linear_884_2886)"/>
</g>
<g id="4-price-down-max">
<path id="187 000 &#226;&#130;&#189;" d="M75.74 118V111.3L76.06 111.64H74.09V111H76.46V118H75.74ZM80.7933 118.06C80.2333 118.06 79.7499 117.98 79.3433 117.82C78.9433 117.66 78.6333 117.43 78.4133 117.13C78.1999 116.823 78.0933 116.463 78.0933 116.05C78.0933 115.65 78.1966 115.31 78.4033 115.03C78.6166 114.743 78.9233 114.523 79.3233 114.37C79.7299 114.217 80.2199 114.14 80.7933 114.14C81.3599 114.14 81.8466 114.217 82.2533 114.37C82.6599 114.523 82.9699 114.743 83.1833 115.03C83.4033 115.31 83.5133 115.65 83.5133 116.05C83.5133 116.463 83.4033 116.823 83.1833 117.13C82.9633 117.43 82.6499 117.66 82.2433 117.82C81.8366 117.98 81.3533 118.06 80.7933 118.06ZM80.7933 117.45C81.4133 117.45 81.8966 117.323 82.2433 117.07C82.5966 116.817 82.7733 116.473 82.7733 116.04C82.7733 115.607 82.5966 115.267 82.2433 115.02C81.8966 114.767 81.4133 114.64 80.7933 114.64C80.1733 114.64 79.6899 114.767 79.3433 115.02C78.9966 115.267 78.8233 115.607 78.8233 116.04C78.8233 116.473 78.9966 116.817 79.3433 117.07C79.6899 117.323 80.1733 117.45 80.7933 117.45ZM80.7933 114.55C80.2733 114.55 79.8299 114.48 79.4633 114.34C79.1033 114.2 78.8266 114 78.6333 113.74C78.4399 113.473 78.3433 113.157 78.3433 112.79C78.3433 112.403 78.4433 112.073 78.6433 111.8C78.8499 111.52 79.1366 111.307 79.5033 111.16C79.8699 111.013 80.2999 110.94 80.7933 110.94C81.2866 110.94 81.7166 111.013 82.0833 111.16C82.4566 111.307 82.7466 111.52 82.9533 111.8C83.1599 112.073 83.2633 112.403 83.2633 112.79C83.2633 113.157 83.1666 113.473 82.9733 113.74C82.7799 114 82.4966 114.2 82.1233 114.34C81.7566 114.48 81.3133 114.55 80.7933 114.55ZM80.7933 114.07C81.3399 114.07 81.7666 113.957 82.0733 113.73C82.3799 113.503 82.5333 113.2 82.5333 112.82C82.5333 112.42 82.3733 112.11 82.0533 111.89C81.7399 111.663 81.3199 111.55 80.7933 111.55C80.2666 111.55 79.8466 111.663 79.5333 111.89C79.2199 112.11 79.0633 112.417 79.0633 112.81C79.0633 113.197 79.2133 113.503 79.5133 113.73C79.8199 113.957 80.2466 114.07 80.7933 114.07ZM85.7402 118L88.7602 111.32L88.9802 111.64H84.6502L85.0202 111.29V112.95H84.3102V111H89.4502V111.51L86.5202 118H85.7402ZM95.8061 118.06C95.2661 118.06 94.7861 117.92 94.3661 117.64C93.9461 117.353 93.6161 116.947 93.3761 116.42C93.1361 115.887 93.0161 115.247 93.0161 114.5C93.0161 113.753 93.1361 113.117 93.3761 112.59C93.6161 112.057 93.9461 111.65 94.3661 111.37C94.7861 111.083 95.2661 110.94 95.8061 110.94C96.3461 110.94 96.8261 111.083 97.2461 111.37C97.6661 111.65 97.9961 112.057 98.2361 112.59C98.4828 113.117 98.6061 113.753 98.6061 114.5C98.6061 115.247 98.4828 115.887 98.2361 116.42C97.9961 116.947 97.6661 117.353 97.2461 117.64C96.8261 117.92 96.3461 118.06 95.8061 118.06ZM95.8061 117.4C96.2194 117.4 96.5794 117.29 96.8861 117.07C97.1928 116.843 97.4328 116.517 97.6061 116.09C97.7794 115.657 97.8661 115.127 97.8661 114.5C97.8661 113.873 97.7794 113.347 97.6061 112.92C97.4328 112.487 97.1928 112.16 96.8861 111.94C96.5794 111.713 96.2194 111.6 95.8061 111.6C95.4061 111.6 95.0494 111.713 94.7361 111.94C94.4228 112.16 94.1794 112.487 94.0061 112.92C93.8328 113.347 93.7461 113.873 93.7461 114.5C93.7461 115.127 93.8328 115.657 94.0061 116.09C94.1794 116.517 94.4228 116.843 94.7361 117.07C95.0494 117.29 95.4061 117.4 95.8061 117.4ZM102.427 118.06C101.887 118.06 101.407 117.92 100.987 117.64C100.567 117.353 100.237 116.947 99.9972 116.42C99.7572 115.887 99.6372 115.247 99.6372 114.5C99.6372 113.753 99.7572 113.117 99.9972 112.59C100.237 112.057 100.567 111.65 100.987 111.37C101.407 111.083 101.887 110.94 102.427 110.94C102.967 110.94 103.447 111.083 103.867 111.37C104.287 111.65 104.617 112.057 104.857 112.59C105.104 113.117 105.227 113.753 105.227 114.5C105.227 115.247 105.104 115.887 104.857 116.42C104.617 116.947 104.287 117.353 103.867 117.64C103.447 117.92 102.967 118.06 102.427 118.06ZM102.427 117.4C102.841 117.4 103.201 117.29 103.507 117.07C103.814 116.843 104.054 116.517 104.227 116.09C104.401 115.657 104.487 115.127 104.487 114.5C104.487 113.873 104.401 113.347 104.227 112.92C104.054 112.487 103.814 112.16 103.507 111.94C103.201 111.713 102.841 111.6 102.427 111.6C102.027 111.6 101.671 111.713 101.357 111.94C101.044 112.16 100.801 112.487 100.627 112.92C100.454 113.347 100.367 113.873 100.367 114.5C100.367 115.127 100.454 115.657 100.627 116.09C100.801 116.517 101.044 116.843 101.357 117.07C101.671 117.29 102.027 117.4 102.427 117.4ZM109.048 118.06C108.508 118.06 108.028 117.92 107.608 117.64C107.188 117.353 106.858 116.947 106.618 116.42C106.378 115.887 106.258 115.247 106.258 114.5C106.258 113.753 106.378 113.117 106.618 112.59C106.858 112.057 107.188 111.65 107.608 111.37C108.028 111.083 108.508 110.94 109.048 110.94C109.588 110.94 110.068 111.083 110.488 111.37C110.908 111.65 111.238 112.057 111.478 112.59C111.725 113.117 111.848 113.753 111.848 114.5C111.848 115.247 111.725 115.887 111.478 116.42C111.238 116.947 110.908 117.353 110.488 117.64C110.068 117.92 109.588 118.06 109.048 118.06ZM109.048 117.4C109.462 117.4 109.822 117.29 110.128 117.07C110.435 116.843 110.675 116.517 110.848 116.09C111.022 115.657 111.108 115.127 111.108 114.5C111.108 113.873 111.022 113.347 110.848 112.92C110.675 112.487 110.435 112.16 110.128 111.94C109.822 111.713 109.462 111.6 109.048 111.6C108.648 111.6 108.292 111.713 107.978 111.94C107.665 112.16 107.422 112.487 107.248 112.92C107.075 113.347 106.988 113.873 106.988 114.5C106.988 115.127 107.075 115.657 107.248 116.09C107.422 116.517 107.665 116.843 107.978 117.07C108.292 117.29 108.648 117.4 109.048 117.4ZM116.327 118V111H118.947C119.833 111 120.53 111.2 121.037 111.6C121.55 112 121.807 112.573 121.807 113.32C121.807 114.073 121.55 114.65 121.037 115.05C120.53 115.45 119.833 115.65 118.947 115.65H116.737L117.067 115.3V118H116.327ZM117.067 115.36L116.737 115.02H118.957C119.637 115.02 120.157 114.873 120.517 114.58C120.883 114.287 121.067 113.87 121.067 113.33C121.067 112.79 120.883 112.373 120.517 112.08C120.157 111.787 119.637 111.64 118.957 111.64H116.737L117.067 111.29V115.36ZM115.277 116.7V116.26H119.317V116.7H115.277Z" fill="url(#paint6_linear_884_2886)"/>
</g>
<g id="Group 1328" opacity="0.7">
<circle id="Ellipse 189" cx="58" cy="114" r="8.5" fill="#D6EFFE" stroke="url(#paint7_linear_884_2886)"/>
<path id="Arrow 2" d="M57.5 119C57.5 119.276 57.7239 119.5 58 119.5C58.2761 119.5 58.5 119.276 58.5 119L57.5 119ZM58.3536 108.646C58.1583 108.451 57.8417 108.451 57.6464 108.646L54.4645 111.828C54.2692 112.024 54.2692 112.34 54.4645 112.536C54.6597 112.731 54.9763 112.731 55.1716 112.536L58 109.707L60.8284 112.536C61.0237 112.731 61.3403 112.731 61.5355 112.536C61.7308 112.34 61.7308 112.024 61.5355 111.828L58.3536 108.646ZM58.5 119L58.5 109L57.5 109L57.5 119L58.5 119Z" fill="url(#paint8_linear_884_2886)"/>
</g>
</g>
</g>
<defs>
<filter id="filter0_d_884_2886" x="0" y="0" width="290" height="176" filterUnits="userSpaceOnUse" color-interpolation-filters="sRGB">
<feFlood flood-opacity="0" result="BackgroundImageFix"/>
<feColorMatrix in="SourceAlpha" type="matrix" values="0 0 0 0 0 0 0 0 0 0 0 0 0 0 0 0 0 0 127 0" result="hardAlpha"/>
<feOffset dy="4"/>
<feGaussianBlur stdDeviation="17"/>
<feComposite in2="hardAlpha" operator="out"/>
<feColorMatrix type="matrix" values="0 0 0 0 0 0 0 0 0 0 0 0 0 0 0 0 0 0 0.1 0"/>
<feBlend mode="normal" in2="BackgroundImageFix" result="effect1_dropShadow_884_2886"/>
<feBlend mode="normal" in="SourceGraphic" in2="effect1_dropShadow_884_2886" result="shape"/>
</filter>
<linearGradient id="paint0_linear_884_2886" x1="35.4231" y1="31.6817" x2="252.583" y2="140.65" gradientUnits="userSpaceOnUse">
<stop stop-color="#FAFDFC"/>
<stop offset="1" stop-color="#F0F8FD"/>
</linearGradient>
<linearGradient id="paint1_linear_884_2886" x1="137.999" y1="104.774" x2="140.552" y2="104.797" gradientUnits="userSpaceOnUse">
<stop stop-color="#1C89D1"/>
<stop offset="1" stop-color="#2FA0EB"/>
</linearGradient>
<linearGradient id="paint2_linear_884_2886" x1="192" y1="78" x2="192" y2="130" gradientUnits="userSpaceOnUse">
<stop stop-color="#BEE5FF"/>
<stop offset="1" stop-color="#D1EDFF" stop-opacity="0"/>
</linearGradient>
<linearGradient id="paint3_linear_884_2886" x1="137.946" y1="79.5613" x2="246.828" y2="87.0255" gradientUnits="userSpaceOnUse">
<stop stop-color="#1C89D1"/>
<stop offset="1" stop-color="#2FA0EB"/>
</linearGradient>
<linearGradient id="paint4_linear_884_2886" x1="192.25" y1="72.4182" x2="192.25" y2="117.87" gradientUnits="userSpaceOnUse">
<stop stop-color="#2FA0EB"/>
<stop offset="1" stop-color="#1C89D1"/>
</linearGradient>
<linearGradient id="paint5_linear_884_2886" x1="72.9914" y1="108.632" x2="90.3167" y2="109.097" gradientUnits="userSpaceOnUse">
<stop stop-color="#1C89D1"/>
<stop offset="1" stop-color="#2FA0EB"/>
</linearGradient>
<linearGradient id="paint6_linear_884_2886" x1="73.9753" y1="108.632" x2="123.651" y2="112.477" gradientUnits="userSpaceOnUse">
<stop stop-color="#1C89D1"/>
<stop offset="1" stop-color="#2FA0EB"/>
</linearGradient>
<linearGradient id="paint7_linear_884_2886" x1="48.9909" y1="105.874" x2="67.3409" y2="106.251" gradientUnits="userSpaceOnUse">
<stop stop-color="#1C89D1"/>
<stop offset="1" stop-color="#2FA0EB"/>
</linearGradient>
<linearGradient id="paint8_linear_884_2886" x1="58.0486" y1="119.005" x2="60.0585" y2="109.219" gradientUnits="userSpaceOnUse">
<stop stop-color="#1C89D1"/>
<stop offset="1" stop-color="#2FA0EB"/>
</linearGradient>
</defs>
</svg>
