<svg width="1083" height="647" viewBox="0 0 1083 647" fill="none" xmlns="http://www.w3.org/2000/svg">
<path d="M330.732 165.354L332.335 193.238L229.91 199.123L222.58 71.5484L322.635 65.7997L324.238 93.6838L259.903 97.3802L261.139 118.886L317.819 115.629L319.368 142.602L262.689 145.859L264.029 169.187L330.732 165.354ZM473.617 84.3697C485.767 83.6716 495.636 86.7616 503.223 93.6397C510.932 100.511 515.209 111.297 516.054 125.999L519.3 182.496L484.672 184.485L481.751 133.638C481.353 126.712 479.723 121.686 476.862 118.559C474.122 115.425 470.383 113.995 465.644 114.267C460.42 114.567 456.333 116.63 453.383 120.457C450.433 124.283 449.172 129.902 449.597 137.314L452.414 186.339L417.787 188.328L414.865 137.481C414.09 123.994 408.722 117.537 398.759 118.11C393.413 118.417 389.265 120.484 386.315 124.31C383.366 128.137 382.104 133.756 382.53 141.167L385.346 190.192L350.719 192.182L345.044 93.4027L378.031 91.5074L378.628 101.896C382.042 97.6767 386.184 94.4521 391.054 92.2219C396.039 89.8632 401.507 88.5128 407.461 88.1708C414.386 87.7729 420.656 88.6926 426.27 90.9299C431.884 93.1673 436.542 96.8005 440.245 101.829C443.846 96.6246 448.547 92.5147 454.347 89.4996C460.147 86.4846 466.57 84.7746 473.617 84.3697ZM577.485 78.4019C593.888 77.4594 606.619 80.5069 615.678 87.5442C624.73 94.4601 629.7 105.633 630.586 121.064L633.738 175.921L601.48 177.774L600.747 165.017C596.317 174.901 586.873 180.259 572.414 181.09C564.76 181.53 558.061 180.574 552.319 178.222C546.576 175.87 542.118 172.53 538.944 168.202C535.884 163.746 534.186 158.601 533.851 152.769C533.314 143.414 536.483 135.979 543.358 130.464C550.226 124.828 561.133 121.58 576.077 120.721L595.76 119.59C594.552 109.176 587.266 104.353 573.901 105.121C569.162 105.393 564.408 106.459 559.639 108.318C554.863 110.055 550.851 112.358 547.602 115.226L534.587 92.3862C539.846 88.4271 546.307 85.2521 553.971 82.8614C561.75 80.3421 569.588 78.8556 577.485 78.4019ZM580.817 158.665C584.826 158.435 588.294 157.26 591.22 155.142C594.146 153.023 596.169 150.042 597.289 146.199L596.797 137.633L581.852 138.492C571.768 139.071 566.917 142.702 567.301 149.385C567.476 152.422 568.77 154.786 571.183 156.476C573.596 158.166 576.808 158.895 580.817 158.665ZM649.92 75.8857L684.547 73.8962L690.223 172.675L655.595 174.665L649.92 75.8857ZM666.605 63.956C660.287 64.319 655.083 62.8504 650.993 59.5503C646.902 56.2502 644.707 51.988 644.407 46.7635C644.107 41.539 645.799 37.0533 649.485 33.3064C653.17 29.5595 658.172 27.5046 664.49 27.1416C670.808 26.7786 676.009 28.1864 680.092 31.365C684.169 34.4221 686.357 38.5629 686.657 43.7874C686.971 49.2549 685.289 53.9228 681.611 57.7912C677.925 61.538 672.923 63.593 666.605 63.956ZM704.956 36.1533L739.584 34.1638L747.354 169.393L712.726 171.382L704.956 36.1533Z" fill="white" fill-opacity="0.04"/>
<path d="M107.72 371.475L108.222 380.207L76.1496 382.049L73.8544 342.102L105.184 340.302L105.686 349.033L85.5413 350.191L85.9282 356.925L103.676 355.905L104.161 364.351L86.4135 365.371L86.8332 372.675L107.72 371.475ZM152.461 346.117C156.266 345.898 159.356 346.866 161.732 349.019C164.145 351.171 165.485 354.549 165.749 359.152L166.766 376.843L155.923 377.466L155.008 361.544C154.883 359.375 154.373 357.802 153.477 356.823C152.619 355.841 151.448 355.393 149.964 355.478C148.329 355.572 147.049 356.219 146.125 357.417C145.202 358.615 144.806 360.374 144.94 362.695L145.822 378.046L134.979 378.669L134.064 362.747C133.822 358.524 132.14 356.503 129.021 356.682C127.347 356.778 126.048 357.425 125.124 358.623C124.201 359.821 123.806 361.581 123.939 363.902L124.821 379.253L113.978 379.876L112.201 348.945L122.53 348.352L122.717 351.605C123.786 350.284 125.083 349.274 126.608 348.576C128.169 347.837 129.881 347.414 131.746 347.307C133.914 347.182 135.877 347.47 137.635 348.171C139.393 348.872 140.852 350.009 142.011 351.584C143.139 349.954 144.611 348.667 146.427 347.723C148.243 346.779 150.255 346.244 152.461 346.117ZM184.985 344.248C190.121 343.953 194.108 344.907 196.944 347.111C199.779 349.276 201.335 352.775 201.613 357.607L202.6 374.784L192.499 375.364L192.269 371.37C190.882 374.465 187.925 376.142 183.397 376.403C181 376.54 178.903 376.241 177.105 375.505C175.307 374.768 173.911 373.722 172.917 372.367C171.959 370.972 171.427 369.361 171.322 367.535C171.154 364.605 172.146 362.277 174.299 360.55C176.45 358.785 179.865 357.768 184.544 357.5L190.707 357.145C190.329 353.884 188.048 352.374 183.863 352.615C182.379 352.7 180.89 353.034 179.397 353.616C177.901 354.16 176.645 354.881 175.628 355.779L171.553 348.627C173.199 347.387 175.222 346.393 177.622 345.644C180.058 344.856 182.512 344.39 184.985 344.248ZM186.028 369.381C187.284 369.309 188.37 368.941 189.286 368.277C190.202 367.614 190.835 366.681 191.186 365.477L191.032 362.795L186.353 363.064C183.195 363.245 181.676 364.382 181.796 366.475C181.851 367.426 182.256 368.166 183.012 368.695C183.767 369.224 184.773 369.453 186.028 369.381ZM207.666 343.46L218.509 342.837L220.286 373.768L209.444 374.391L207.666 343.46ZM212.891 339.725C210.913 339.838 209.283 339.378 208.002 338.345C206.722 337.312 206.034 335.977 205.94 334.341C205.846 332.705 206.376 331.301 207.53 330.127C208.684 328.954 210.25 328.311 212.229 328.197C214.207 328.083 215.836 328.524 217.114 329.52C218.391 330.477 219.076 331.773 219.17 333.409C219.268 335.121 218.742 336.583 217.59 337.794C216.436 338.968 214.869 339.611 212.891 339.725ZM224.9 331.019L235.743 330.396L238.176 372.74L227.333 373.363L224.9 331.019ZM243.307 351.948L259.97 350.99L260.449 359.322L243.785 360.279L243.307 351.948ZM305.83 337.305C309.634 337.086 312.725 338.054 315.1 340.208C317.514 342.359 318.853 345.737 319.118 350.34L320.134 368.031L309.292 368.654L308.377 352.732C308.252 350.564 307.742 348.99 306.846 348.011C305.988 347.029 304.817 346.581 303.333 346.666C301.697 346.76 300.418 347.407 299.494 348.605C298.57 349.803 298.175 351.562 298.309 353.883L299.191 369.234L288.348 369.857L287.433 353.935C287.19 349.712 285.509 347.691 282.39 347.87C280.716 347.966 279.417 348.613 278.493 349.811C277.57 351.01 277.174 352.769 277.308 355.09L278.19 370.441L267.347 371.064L265.57 340.133L275.899 339.54L276.086 342.793C277.155 341.472 278.452 340.462 279.977 339.764C281.538 339.025 283.25 338.602 285.115 338.495C287.283 338.37 289.246 338.658 291.004 339.359C292.762 340.06 294.221 341.197 295.38 342.772C296.508 341.142 297.98 339.855 299.796 338.911C301.612 337.967 303.623 337.432 305.83 337.305ZM338.354 335.436C343.49 335.141 347.476 336.095 350.313 338.299C353.148 340.464 354.704 343.963 354.981 348.795L355.968 365.972L345.867 366.552L345.638 362.558C344.251 365.653 341.293 367.331 336.766 367.591C334.369 367.728 332.272 367.429 330.474 366.693C328.675 365.956 327.279 364.91 326.285 363.555C325.327 362.16 324.796 360.549 324.691 358.723C324.523 355.793 325.515 353.465 327.668 351.738C329.818 349.973 333.233 348.956 337.913 348.688L344.076 348.333C343.698 345.073 341.416 343.562 337.232 343.803C335.748 343.888 334.259 344.222 332.766 344.804C331.27 345.348 330.014 346.069 328.997 346.967L324.921 339.815C326.568 338.575 328.591 337.581 330.991 336.833C333.427 336.044 335.881 335.578 338.354 335.436ZM339.397 360.569C340.653 360.497 341.739 360.129 342.655 359.466C343.571 358.802 344.204 357.869 344.555 356.665L344.401 353.983L339.721 354.252C336.564 354.433 335.045 355.57 335.165 357.663C335.22 358.614 335.625 359.354 336.381 359.883C337.136 360.412 338.142 360.641 339.397 360.569ZM371.578 337.764C372.6 336.293 373.967 335.165 375.677 334.38C377.424 333.554 379.439 333.076 381.721 332.944L382.282 342.703C381.286 342.646 380.465 342.636 379.818 342.673C377.497 342.806 375.707 343.539 374.448 344.871C373.227 346.201 372.69 348.159 372.839 350.746L373.655 364.956L362.812 365.579L361.035 334.648L371.364 334.055L371.578 337.764ZM401.418 352.482L398.409 355.919L398.845 363.509L388.002 364.132L385.569 321.787L396.412 321.164L397.688 343.364L408.139 331.942L420.979 331.204L408.9 345.182L423.841 362.072L410.715 362.827L401.418 352.482ZM456.462 344.739C456.466 344.815 456.46 345.712 456.445 347.431L433.96 348.723C434.508 350.295 435.454 351.481 436.798 352.281C438.178 353.042 439.857 353.365 441.835 353.252C443.319 353.166 444.581 352.884 445.623 352.404C446.702 351.922 447.766 351.174 448.815 350.16L454.862 355.767C452.049 359.287 447.751 361.214 441.968 361.546C438.354 361.754 435.138 361.252 432.32 360.039C429.502 358.827 427.262 357.047 425.6 354.7C423.977 352.35 423.076 349.635 422.899 346.553C422.725 343.509 423.291 340.748 424.599 338.268C425.943 335.748 427.869 333.728 430.377 332.21C432.886 330.692 435.757 329.84 438.991 329.654C442.072 329.477 444.906 329.963 447.491 331.112C450.074 332.223 452.159 333.955 453.744 336.307C455.366 338.618 456.271 341.429 456.462 344.739ZM439.49 337.355C437.816 337.451 436.436 338.007 435.349 339.024C434.301 340.039 433.671 341.373 433.461 343.026L446.13 342.298C445.731 340.68 444.934 339.428 443.738 338.542C442.58 337.654 441.164 337.259 439.49 337.355ZM483.617 357.378C482.737 358.001 481.64 358.503 480.326 358.884C479.05 359.263 477.67 359.495 476.186 359.58C472.153 359.812 468.996 359.001 466.713 357.147C464.431 355.293 463.178 352.407 462.952 348.489L462.356 338.102L457.847 338.361L457.382 330.258L461.89 329.999L461.428 321.952L472.271 321.329L472.733 329.376L479.809 328.969L480.275 337.073L473.198 337.479L473.789 347.751C473.852 348.855 474.188 349.713 474.795 350.327C475.439 350.901 476.256 351.16 477.245 351.103C478.5 351.031 479.585 350.644 480.499 349.942L483.617 357.378ZM486.093 327.463L496.936 326.84L498.713 357.771L487.87 358.394L486.093 327.463ZM491.318 323.727C489.34 323.841 487.71 323.381 486.429 322.348C485.148 321.315 484.461 319.98 484.367 318.344C484.273 316.708 484.803 315.303 485.957 314.13C487.111 312.957 488.677 312.313 490.656 312.2C492.634 312.086 494.262 312.527 495.541 313.522C496.818 314.48 497.503 315.776 497.597 317.412C497.695 319.124 497.168 320.586 496.017 321.797C494.862 322.97 493.296 323.614 491.318 323.727ZM524.098 324.764C527.94 324.543 531.088 325.508 533.54 327.657C536.03 329.804 537.407 333.179 537.671 337.783L538.688 355.474L527.845 356.097L526.93 340.175C526.687 335.952 524.873 333.938 521.487 334.132C519.623 334.239 518.155 334.934 517.084 336.217C516.05 337.498 515.604 339.356 515.743 341.791L516.603 356.743L505.76 357.366L503.983 326.435L514.312 325.842L514.505 329.209C515.651 327.883 517.042 326.849 518.678 326.106C520.313 325.325 522.12 324.878 524.098 324.764ZM577.434 322.215L578.887 347.496C579.217 353.241 577.904 357.629 574.948 360.662C571.995 363.733 567.588 365.436 561.73 365.773C558.686 365.948 555.813 365.769 553.11 365.237C550.408 364.706 548.086 363.827 546.146 362.603L549.647 354.787C550.962 355.742 552.586 356.45 554.521 356.912C556.497 357.409 558.416 357.604 560.281 357.497C563.134 357.333 565.19 356.585 566.45 355.253C567.709 353.921 568.268 352.018 568.126 349.545L568.067 348.518C566.114 351.073 563.122 352.467 559.089 352.698C556.35 352.856 553.785 352.392 551.394 351.308C549.001 350.186 547.055 348.542 545.557 346.376C544.056 344.172 543.22 341.586 543.05 338.619C542.882 335.689 543.418 333.063 544.658 330.74C545.897 328.378 547.641 326.522 549.892 325.171C552.141 323.783 554.635 323.01 557.374 322.852C561.787 322.599 565.103 323.839 567.321 326.575L567.105 322.808L577.434 322.215ZM561.162 343.934C563.102 343.822 564.666 343.141 565.854 341.889C567.08 340.635 567.639 339.076 567.532 337.212C567.425 335.348 566.711 333.881 565.39 332.812C564.066 331.705 562.416 331.208 560.437 331.322C558.459 331.435 556.857 332.119 555.631 333.373C554.441 334.586 553.9 336.125 554.007 337.989C554.114 339.854 554.848 341.338 556.209 342.443C557.571 343.548 559.222 344.045 561.162 343.934Z" fill="white" fill-opacity="0.04"/>
<path d="M38.7198 620.475L39.2215 629.207L7.1496 631.049L4.85439 591.102L36.1844 589.302L36.6861 598.033L16.5413 599.191L16.9282 605.925L34.6762 604.905L35.1614 613.351L17.4135 614.371L17.8332 621.675L38.7198 620.475ZM83.4612 595.117C87.2657 594.898 90.3558 595.866 92.7316 598.019C95.1455 600.171 96.4847 603.549 96.7492 608.152L97.7656 625.843L86.9228 626.466L86.008 610.544C85.8834 608.375 85.3731 606.802 84.4771 605.823C83.6191 604.841 82.4482 604.393 80.9645 604.478C79.3286 604.572 78.0488 605.219 77.1252 606.417C76.2016 607.615 75.8065 609.374 75.9398 611.695L76.8218 627.046L65.979 627.669L65.0642 611.747C64.8216 607.524 63.1404 605.503 60.0207 605.682C58.3468 605.778 57.048 606.425 56.1244 607.623C55.2008 608.821 54.8057 610.581 54.939 612.902L55.821 628.253L44.9782 628.876L43.201 597.945L53.5303 597.352L53.7172 600.605C54.7864 599.284 56.0834 598.274 57.6083 597.576C59.169 596.837 60.8815 596.414 62.7457 596.307C64.9142 596.182 66.8775 596.47 68.6354 597.171C70.3933 597.872 71.8519 599.009 73.0112 600.584C74.139 598.954 75.611 597.667 77.4271 596.723C79.2432 595.779 81.2546 595.244 83.4612 595.117ZM115.985 593.248C121.121 592.953 125.108 593.907 127.944 596.111C130.779 598.276 132.335 601.775 132.613 606.607L133.6 623.784L123.499 624.364L123.269 620.37C121.882 623.465 118.925 625.142 114.397 625.403C112 625.54 109.903 625.241 108.105 624.505C106.307 623.768 104.911 622.722 103.917 621.367C102.959 619.972 102.427 618.361 102.322 616.535C102.154 613.605 103.146 611.277 105.299 609.55C107.45 607.785 110.865 606.768 115.544 606.5L121.707 606.145C121.329 602.884 119.048 601.374 114.863 601.615C113.379 601.7 111.89 602.034 110.397 602.616C108.901 603.16 107.645 603.881 106.628 604.779L102.553 597.627C104.199 596.387 106.222 595.393 108.622 594.644C111.058 593.856 113.512 593.39 115.985 593.248ZM117.028 618.381C118.284 618.309 119.37 617.941 120.286 617.277C121.202 616.614 121.835 615.681 122.186 614.477L122.032 611.795L117.353 612.064C114.195 612.245 112.676 613.382 112.796 615.475C112.851 616.426 113.256 617.166 114.012 617.695C114.767 618.224 115.773 618.453 117.028 618.381ZM138.666 592.46L149.509 591.837L151.286 622.768L140.444 623.391L138.666 592.46ZM143.891 588.725C141.913 588.838 140.283 588.378 139.002 587.345C137.722 586.312 137.034 584.977 136.94 583.341C136.846 581.705 137.376 580.301 138.53 579.127C139.684 577.954 141.25 577.311 143.229 577.197C145.207 577.083 146.836 577.524 148.114 578.52C149.391 579.477 150.076 580.773 150.17 582.409C150.268 584.121 149.742 585.583 148.59 586.794C147.436 587.968 145.869 588.611 143.891 588.725ZM155.9 580.019L166.743 579.396L169.176 621.74L158.333 622.363L155.9 580.019ZM174.307 600.948L190.97 599.99L191.449 608.322L174.785 609.279L174.307 600.948ZM236.83 586.305C240.634 586.086 243.725 587.054 246.1 589.208C248.514 591.359 249.853 594.737 250.118 599.34L251.134 617.031L240.292 617.654L239.377 601.732C239.252 599.564 238.742 597.99 237.846 597.011C236.988 596.029 235.817 595.581 234.333 595.666C232.697 595.76 231.418 596.407 230.494 597.605C229.57 598.803 229.175 600.562 229.309 602.883L230.191 618.234L219.348 618.857L218.433 602.935C218.19 598.712 216.509 596.691 213.39 596.87C211.716 596.966 210.417 597.613 209.493 598.811C208.57 600.01 208.174 601.769 208.308 604.09L209.19 619.441L198.347 620.064L196.57 589.133L206.899 588.54L207.086 591.793C208.155 590.472 209.452 589.462 210.977 588.764C212.538 588.025 214.25 587.602 216.115 587.495C218.283 587.37 220.246 587.658 222.004 588.359C223.762 589.06 225.221 590.197 226.38 591.772C227.508 590.142 228.98 588.855 230.796 587.911C232.612 586.967 234.623 586.432 236.83 586.305ZM269.354 584.436C274.49 584.141 278.476 585.095 281.313 587.299C284.148 589.464 285.704 592.963 285.981 597.795L286.968 614.972L276.867 615.552L276.638 611.558C275.251 614.653 272.293 616.331 267.766 616.591C265.369 616.728 263.272 616.429 261.474 615.693C259.675 614.956 258.279 613.91 257.285 612.555C256.327 611.16 255.796 609.549 255.691 607.723C255.523 604.793 256.515 602.465 258.668 600.738C260.818 598.973 264.233 597.956 268.913 597.688L275.076 597.333C274.698 594.073 272.416 592.562 268.232 592.803C266.748 592.888 265.259 593.222 263.766 593.804C262.27 594.348 261.014 595.069 259.997 595.967L255.921 588.815C257.568 587.575 259.591 586.581 261.991 585.833C264.427 585.044 266.881 584.578 269.354 584.436ZM270.397 609.569C271.653 609.497 272.739 609.129 273.655 608.466C274.571 607.802 275.204 606.869 275.555 605.665L275.401 602.983L270.721 603.252C267.564 603.433 266.045 604.57 266.165 606.663C266.22 607.614 266.625 608.354 267.381 608.883C268.136 609.412 269.142 609.641 270.397 609.569ZM302.578 586.764C303.6 585.293 304.967 584.165 306.677 583.38C308.424 582.554 310.439 582.076 312.721 581.944L313.282 591.703C312.286 591.646 311.465 591.636 310.818 591.673C308.497 591.806 306.707 592.539 305.448 593.871C304.227 595.201 303.69 597.159 303.839 599.746L304.655 613.956L293.812 614.579L292.035 583.648L302.364 583.055L302.578 586.764ZM332.418 601.482L329.409 604.919L329.845 612.509L319.002 613.132L316.569 570.787L327.412 570.164L328.688 592.364L339.139 580.942L351.979 580.204L339.9 594.182L354.841 611.072L341.715 611.827L332.418 601.482ZM387.462 593.739C387.466 593.815 387.46 594.712 387.445 596.431L364.96 597.723C365.508 599.295 366.454 600.481 367.798 601.281C369.178 602.042 370.857 602.365 372.835 602.252C374.319 602.166 375.581 601.884 376.623 601.404C377.702 600.922 378.766 600.174 379.815 599.16L385.862 604.767C383.049 608.287 378.751 610.214 372.968 610.546C369.354 610.754 366.138 610.252 363.32 609.039C360.502 607.827 358.262 606.047 356.6 603.7C354.977 601.35 354.076 598.635 353.899 595.553C353.725 592.509 354.291 589.748 355.599 587.268C356.943 584.748 358.869 582.728 361.377 581.21C363.886 579.692 366.757 578.84 369.991 578.654C373.072 578.477 375.906 578.963 378.491 580.112C381.074 581.223 383.159 582.955 384.744 585.307C386.366 587.618 387.271 590.429 387.462 593.739ZM370.49 586.355C368.816 586.451 367.436 587.007 366.349 588.024C365.301 589.039 364.671 590.373 364.461 592.026L377.13 591.298C376.731 589.68 375.934 588.428 374.738 587.542C373.58 586.654 372.164 586.259 370.49 586.355ZM414.617 606.378C413.737 607.001 412.64 607.503 411.326 607.884C410.05 608.263 408.67 608.495 407.186 608.58C403.153 608.812 399.996 608.001 397.713 606.147C395.431 604.293 394.178 601.407 393.952 597.489L393.356 587.102L388.847 587.361L388.382 579.258L392.89 578.999L392.428 570.952L403.271 570.329L403.733 578.376L410.809 577.969L411.275 586.073L404.198 586.479L404.789 596.751C404.852 597.855 405.188 598.713 405.795 599.327C406.439 599.901 407.256 600.16 408.245 600.103C409.5 600.031 410.585 599.644 411.499 598.942L414.617 606.378ZM417.093 576.463L427.936 575.84L429.713 606.771L418.87 607.394L417.093 576.463ZM422.318 572.727C420.34 572.841 418.71 572.381 417.429 571.348C416.148 570.315 415.461 568.98 415.367 567.344C415.273 565.708 415.803 564.303 416.957 563.13C418.111 561.957 419.677 561.313 421.656 561.2C423.634 561.086 425.262 561.527 426.541 562.522C427.818 563.48 428.503 564.776 428.597 566.412C428.695 568.124 428.168 569.586 427.017 570.797C425.862 571.97 424.296 572.614 422.318 572.727ZM455.098 573.764C458.94 573.543 462.088 574.508 464.54 576.657C467.03 578.804 468.407 582.179 468.671 586.783L469.688 604.474L458.845 605.097L457.93 589.175C457.687 584.952 455.873 582.938 452.487 583.132C450.623 583.239 449.155 583.934 448.084 585.217C447.05 586.498 446.604 588.356 446.743 590.791L447.603 605.743L436.76 606.366L434.983 575.435L445.312 574.842L445.505 578.209C446.651 576.883 448.042 575.849 449.678 575.106C451.313 574.325 453.12 573.878 455.098 573.764ZM508.434 571.215L509.887 596.496C510.217 602.241 508.904 606.629 505.948 609.662C502.995 612.733 498.588 614.436 492.73 614.773C489.686 614.948 486.813 614.769 484.11 614.237C481.408 613.706 479.086 612.827 477.146 611.603L480.647 603.787C481.962 604.742 483.586 605.45 485.521 605.912C487.497 606.409 489.416 606.604 491.281 606.497C494.134 606.333 496.19 605.585 497.45 604.253C498.709 602.921 499.268 601.018 499.126 598.545L499.067 597.518C497.114 600.073 494.122 601.467 490.089 601.698C487.35 601.856 484.785 601.392 482.394 600.308C480.001 599.186 478.055 597.542 476.557 595.376C475.056 593.172 474.22 590.586 474.05 587.619C473.882 584.689 474.418 582.063 475.658 579.74C476.897 577.378 478.641 575.522 480.892 574.171C483.141 572.783 485.635 572.01 488.374 571.852C492.787 571.599 496.103 572.839 498.321 575.575L498.105 571.808L508.434 571.215ZM492.162 592.934C494.102 592.822 495.666 592.141 496.854 590.889C498.08 589.635 498.639 588.076 498.532 586.212C498.425 584.348 497.711 582.881 496.39 581.812C495.066 580.705 493.416 580.208 491.437 580.322C489.459 580.435 487.857 581.119 486.631 582.373C485.441 583.586 484.9 585.125 485.007 586.989C485.114 588.854 485.848 590.338 487.209 591.443C488.571 592.548 490.222 593.045 492.162 592.934Z" fill="white" fill-opacity="0.04"/>
<path d="M605.72 333.475L606.222 342.207L574.15 344.049L571.854 304.102L603.184 302.302L603.686 311.033L583.541 312.191L583.928 318.925L601.676 317.905L602.161 326.351L584.413 327.371L584.833 334.675L605.72 333.475ZM650.461 308.117C654.266 307.898 657.356 308.866 659.732 311.019C662.145 313.171 663.485 316.549 663.749 321.152L664.766 338.843L653.923 339.466L653.008 323.544C652.883 321.375 652.373 319.802 651.477 318.823C650.619 317.841 649.448 317.393 647.964 317.478C646.329 317.572 645.049 318.219 644.125 319.417C643.202 320.615 642.806 322.374 642.94 324.695L643.822 340.046L632.979 340.669L632.064 324.747C631.822 320.524 630.14 318.503 627.021 318.682C625.347 318.778 624.048 319.425 623.124 320.623C622.201 321.821 621.806 323.581 621.939 325.902L622.821 341.253L611.978 341.876L610.201 310.945L620.53 310.352L620.717 313.605C621.786 312.284 623.083 311.274 624.608 310.576C626.169 309.837 627.881 309.414 629.746 309.307C631.914 309.182 633.877 309.47 635.635 310.171C637.393 310.872 638.852 312.009 640.011 313.584C641.139 311.954 642.611 310.667 644.427 309.723C646.243 308.779 648.255 308.244 650.461 308.117ZM682.985 306.248C688.121 305.953 692.108 306.907 694.944 309.111C697.779 311.276 699.335 314.775 699.613 319.607L700.6 336.784L690.499 337.364L690.269 333.37C688.882 336.465 685.925 338.142 681.397 338.403C679 338.54 676.903 338.241 675.105 337.505C673.307 336.768 671.911 335.722 670.917 334.367C669.959 332.972 669.427 331.361 669.322 329.535C669.154 326.605 670.146 324.277 672.299 322.55C674.45 320.785 677.865 319.768 682.544 319.5L688.707 319.145C688.329 315.884 686.048 314.374 681.863 314.615C680.379 314.7 678.89 315.034 677.397 315.616C675.901 316.16 674.645 316.881 673.628 317.779L669.553 310.627C671.199 309.387 673.222 308.393 675.622 307.644C678.058 306.856 680.512 306.39 682.985 306.248ZM684.028 331.381C685.284 331.309 686.37 330.941 687.286 330.277C688.202 329.614 688.835 328.681 689.186 327.477L689.032 324.795L684.353 325.064C681.195 325.245 679.676 326.382 679.796 328.475C679.851 329.426 680.256 330.166 681.012 330.695C681.767 331.224 682.773 331.453 684.028 331.381ZM705.666 305.46L716.509 304.837L718.286 335.768L707.444 336.391L705.666 305.46ZM710.891 301.725C708.913 301.838 707.283 301.378 706.002 300.345C704.722 299.312 704.034 297.977 703.94 296.341C703.846 294.705 704.376 293.301 705.53 292.127C706.684 290.954 708.25 290.311 710.229 290.197C712.207 290.083 713.836 290.524 715.114 291.52C716.391 292.477 717.076 293.773 717.17 295.409C717.268 297.121 716.742 298.583 715.59 299.794C714.436 300.968 712.869 301.611 710.891 301.725ZM722.9 293.019L733.743 292.396L736.176 334.74L725.333 335.363L722.9 293.019ZM741.307 313.948L757.97 312.99L758.449 321.322L741.785 322.279L741.307 313.948ZM803.83 299.305C807.634 299.086 810.725 300.054 813.1 302.208C815.514 304.359 816.853 307.737 817.118 312.34L818.134 330.031L807.292 330.654L806.377 314.732C806.252 312.564 805.742 310.99 804.846 310.011C803.988 309.029 802.817 308.581 801.333 308.666C799.697 308.76 798.418 309.407 797.494 310.605C796.57 311.803 796.175 313.562 796.309 315.883L797.191 331.234L786.348 331.857L785.433 315.935C785.19 311.712 783.509 309.691 780.39 309.87C778.716 309.966 777.417 310.613 776.493 311.811C775.57 313.01 775.174 314.769 775.308 317.09L776.19 332.441L765.347 333.064L763.57 302.133L773.899 301.54L774.086 304.793C775.155 303.472 776.452 302.462 777.977 301.764C779.538 301.025 781.25 300.602 783.115 300.495C785.283 300.37 787.246 300.658 789.004 301.359C790.762 302.06 792.221 303.197 793.38 304.772C794.508 303.142 795.98 301.855 797.796 300.911C799.612 299.967 801.623 299.432 803.83 299.305ZM836.354 297.436C841.49 297.141 845.476 298.095 848.313 300.299C851.148 302.464 852.704 305.963 852.981 310.795L853.968 327.972L843.867 328.552L843.638 324.558C842.251 327.653 839.293 329.331 834.766 329.591C832.369 329.728 830.272 329.429 828.474 328.693C826.675 327.956 825.279 326.91 824.285 325.555C823.327 324.16 822.796 322.549 822.691 320.723C822.523 317.793 823.515 315.465 825.668 313.738C827.818 311.973 831.233 310.956 835.913 310.688L842.076 310.333C841.698 307.073 839.416 305.562 835.232 305.803C833.748 305.888 832.259 306.222 830.766 306.804C829.27 307.348 828.014 308.069 826.997 308.967L822.921 301.815C824.568 300.575 826.591 299.581 828.991 298.833C831.427 298.044 833.881 297.578 836.354 297.436ZM837.397 322.569C838.653 322.497 839.739 322.129 840.655 321.466C841.571 320.802 842.204 319.869 842.555 318.665L842.401 315.983L837.721 316.252C834.564 316.433 833.045 317.57 833.165 319.663C833.22 320.614 833.625 321.354 834.381 321.883C835.136 322.412 836.142 322.641 837.397 322.569ZM869.578 299.764C870.6 298.293 871.967 297.165 873.677 296.38C875.424 295.554 877.439 295.076 879.721 294.944L880.282 304.703C879.286 304.646 878.465 304.636 877.818 304.673C875.497 304.806 873.707 305.539 872.448 306.871C871.227 308.201 870.69 310.159 870.839 312.746L871.655 326.956L860.812 327.579L859.035 296.648L869.364 296.055L869.578 299.764ZM899.418 314.482L896.409 317.919L896.845 325.509L886.002 326.132L883.569 283.787L894.412 283.164L895.688 305.364L906.139 293.942L918.979 293.204L906.9 307.182L921.841 324.072L908.715 324.827L899.418 314.482ZM954.462 306.739C954.466 306.815 954.46 307.712 954.445 309.431L931.96 310.723C932.508 312.295 933.454 313.481 934.798 314.281C936.178 315.042 937.857 315.365 939.835 315.252C941.319 315.166 942.581 314.884 943.623 314.404C944.702 313.922 945.766 313.174 946.815 312.16L952.862 317.767C950.049 321.287 945.751 323.214 939.968 323.546C936.354 323.754 933.138 323.252 930.32 322.039C927.502 320.827 925.262 319.047 923.6 316.7C921.977 314.35 921.076 311.635 920.899 308.553C920.725 305.509 921.291 302.748 922.599 300.268C923.943 297.748 925.869 295.728 928.377 294.21C930.886 292.692 933.757 291.84 936.991 291.654C940.072 291.477 942.906 291.963 945.491 293.112C948.074 294.223 950.159 295.955 951.744 298.307C953.366 300.618 954.271 303.429 954.462 306.739ZM937.49 299.355C935.816 299.451 934.436 300.007 933.349 301.024C932.301 302.039 931.671 303.373 931.461 305.026L944.13 304.298C943.731 302.68 942.934 301.428 941.738 300.542C940.58 299.654 939.164 299.259 937.49 299.355ZM981.617 319.378C980.737 320.001 979.64 320.503 978.326 320.884C977.05 321.263 975.67 321.495 974.186 321.58C970.153 321.812 966.996 321.001 964.713 319.147C962.431 317.293 961.178 314.407 960.952 310.489L960.356 300.102L955.847 300.361L955.382 292.258L959.89 291.999L959.428 283.952L970.271 283.329L970.733 291.376L977.809 290.969L978.275 299.073L971.198 299.479L971.789 309.751C971.852 310.855 972.188 311.713 972.795 312.327C973.439 312.901 974.256 313.16 975.245 313.103C976.5 313.031 977.585 312.644 978.499 311.942L981.617 319.378ZM984.093 289.463L994.936 288.84L996.713 319.771L985.87 320.394L984.093 289.463ZM989.318 285.727C987.34 285.841 985.71 285.381 984.429 284.348C983.148 283.315 982.461 281.98 982.367 280.344C982.273 278.708 982.803 277.303 983.957 276.13C985.111 274.957 986.677 274.313 988.656 274.2C990.634 274.086 992.262 274.527 993.541 275.522C994.818 276.48 995.503 277.776 995.597 279.412C995.695 281.124 995.168 282.586 994.017 283.797C992.862 284.97 991.296 285.614 989.318 285.727ZM1022.1 286.764C1025.94 286.543 1029.09 287.508 1031.54 289.657C1034.03 291.804 1035.41 295.179 1035.67 299.783L1036.69 317.474L1025.84 318.097L1024.93 302.175C1024.69 297.952 1022.87 295.938 1019.49 296.132C1017.62 296.239 1016.16 296.934 1015.08 298.217C1014.05 299.498 1013.6 301.356 1013.74 303.791L1014.6 318.743L1003.76 319.366L1001.98 288.435L1012.31 287.842L1012.51 291.209C1013.65 289.883 1015.04 288.849 1016.68 288.106C1018.31 287.325 1020.12 286.878 1022.1 286.764ZM1075.43 284.215L1076.89 309.496C1077.22 315.241 1075.9 319.629 1072.95 322.662C1069.99 325.733 1065.59 327.436 1059.73 327.773C1056.69 327.948 1053.81 327.769 1051.11 327.237C1048.41 326.706 1046.09 325.827 1044.15 324.603L1047.65 316.787C1048.96 317.742 1050.59 318.45 1052.52 318.912C1054.5 319.409 1056.42 319.604 1058.28 319.497C1061.13 319.333 1063.19 318.585 1064.45 317.253C1065.71 315.921 1066.27 314.018 1066.13 311.545L1066.07 310.518C1064.11 313.073 1061.12 314.467 1057.09 314.698C1054.35 314.856 1051.78 314.392 1049.39 313.308C1047 312.186 1045.06 310.542 1043.56 308.376C1042.06 306.172 1041.22 303.586 1041.05 300.619C1040.88 297.689 1041.42 295.063 1042.66 292.74C1043.9 290.378 1045.64 288.522 1047.89 287.171C1050.14 285.783 1052.63 285.01 1055.37 284.852C1059.79 284.599 1063.1 285.839 1065.32 288.575L1065.11 284.808L1075.43 284.215ZM1059.16 305.934C1061.1 305.822 1062.67 305.141 1063.85 303.889C1065.08 302.635 1065.64 301.076 1065.53 299.212C1065.42 297.348 1064.71 295.881 1063.39 294.812C1062.07 293.705 1060.42 293.208 1058.44 293.322C1056.46 293.435 1054.86 294.119 1053.63 295.373C1052.44 296.586 1051.9 298.125 1052.01 299.989C1052.11 301.854 1052.85 303.338 1054.21 304.443C1055.57 305.548 1057.22 306.045 1059.16 305.934Z" fill="white" fill-opacity="0.04"/>
</svg>
