<svg width="288" height="237" viewBox="0 0 288 237" fill="none" xmlns="http://www.w3.org/2000/svg">
<path d="M199.331 53.7016C201.352 53.7016 202.99 52.0591 202.99 50.0329C202.99 48.0068 201.352 46.3643 199.331 46.3643C197.31 46.3643 195.672 48.0068 195.672 50.0329C195.672 52.0591 197.31 53.7016 199.331 53.7016Z" fill="#EC615B"/>
<path d="M203.214 43.5285C204.156 43.5285 204.92 42.7627 204.92 41.818C204.92 40.8733 204.156 40.1074 203.214 40.1074C202.272 40.1074 201.508 40.8733 201.508 41.818C201.508 42.7627 202.272 43.5285 203.214 43.5285Z" fill="#EC615B"/>
<path d="M91.3603 21.2689C92.3273 21.2689 93.1112 20.4829 93.1112 19.5134C93.1112 18.5438 92.3273 17.7578 91.3603 17.7578C90.3933 17.7578 89.6094 18.5438 89.6094 19.5134C89.6094 20.4829 90.3933 21.2689 91.3603 21.2689Z" fill="#EC615B"/>
<path d="M205.932 226.737C207.568 226.737 208.895 225.407 208.895 223.766C208.895 222.125 207.568 220.795 205.932 220.795C204.295 220.795 202.969 222.125 202.969 223.766C202.969 225.407 204.295 226.737 205.932 226.737Z" fill="#EC615B"/>
<path d="M71.0919 236.91C71.8482 236.91 72.4612 236.295 72.4612 235.537C72.4612 234.779 71.8482 234.164 71.0919 234.164C70.3357 234.164 69.7227 234.779 69.7227 235.537C69.7227 236.295 70.3357 236.91 71.0919 236.91Z" fill="#EC615B"/>
<path d="M88.1955 135.493C88.9765 135.493 89.6096 134.858 89.6096 134.075C89.6096 133.292 88.9765 132.657 88.1955 132.657C87.4144 132.657 86.7812 133.292 86.7812 134.075C86.7812 134.858 87.4144 135.493 88.1955 135.493Z" fill="#EC615B"/>
<path d="M90.9787 142.718C91.7349 142.718 92.348 142.103 92.348 141.345C92.348 140.586 91.7349 139.972 90.9787 139.972C90.2224 139.972 89.6094 140.586 89.6094 141.345C89.6094 142.103 90.2224 142.718 90.9787 142.718Z" fill="#2F80ED"/>
<path d="M89.3403 180.979C90.7536 180.979 91.8993 179.831 91.8993 178.413C91.8993 176.996 90.7536 175.848 89.3403 175.848C87.927 175.848 86.7812 176.996 86.7812 178.413C86.7812 179.831 87.927 180.979 89.3403 180.979Z" fill="#2F80ED"/>
<path d="M197.288 35.1561C198.181 35.1561 198.904 34.4305 198.904 33.5356C198.904 32.6406 198.181 31.915 197.288 31.915C196.395 31.915 195.672 32.6406 195.672 33.5356C195.672 34.4305 196.395 35.1561 197.288 35.1561Z" fill="#2F80ED"/>
<path d="M135.809 37.9921C136.59 37.9921 137.223 37.3573 137.223 36.5742C137.223 35.7911 136.59 35.1562 135.809 35.1562C135.028 35.1562 134.395 35.7911 134.395 36.5742C134.395 37.3573 135.028 37.9921 135.809 37.9921Z" fill="#2F80ED"/>
<path d="M9.7181 148.907C10.3132 148.907 10.7956 148.423 10.7956 147.826C10.7956 147.23 10.3132 146.746 9.7181 146.746C9.12303 146.746 8.64062 147.23 8.64062 147.826C8.64062 148.423 9.12303 148.907 9.7181 148.907Z" fill="#2F80ED"/>
<path d="M202.182 234.163C203.67 234.163 204.876 232.954 204.876 231.463C204.876 229.971 203.67 228.762 202.182 228.762C200.694 228.762 199.488 229.971 199.488 231.463C199.488 232.954 200.694 234.163 202.182 234.163Z" fill="#2F80ED"/>
<path d="M231.027 2.92574C231.808 2.92574 232.442 2.2909 232.442 1.50779C232.442 0.72468 231.808 0.0898438 231.027 0.0898438C230.246 0.0898438 229.613 0.72468 229.613 1.50779C229.613 2.2909 230.246 2.92574 231.027 2.92574Z" fill="#2F80ED"/>
<path d="M93.628 65.2478C93.4036 63.8524 93.2015 61.0615 95.4238 61.2866C96.2319 61.3766 96.6809 62.0968 97.5788 61.7817C99.2623 61.1965 98.8807 59.0133 99.5766 57.7529C100.721 55.7273 102.944 58.6757 104.65 57.7079C105.211 57.3928 105.346 56.8076 105.323 56.1999C105.278 53.9267 107.276 54.0843 108.915 54.5344C109.341 54.6469 109.521 53.9942 109.094 53.8817C107.433 53.4316 104.672 53.274 104.605 55.6823C104.582 56.2675 104.897 56.8527 104.044 57.2128C103.774 57.3253 103.325 57.1903 103.078 57.1227C102.495 56.9427 101.978 56.5376 101.372 56.38C100.587 56.1549 99.8235 56.3125 99.2848 56.9427C98.6114 57.7529 98.6338 58.8558 98.3195 59.8011C97.9828 60.8139 97.3319 61.3991 96.2319 60.9039C95.783 60.7014 95.3789 60.5213 94.8626 60.5888C92.5506 60.9039 92.6628 63.7173 92.9546 65.4279C93.0444 65.8555 93.6954 65.6755 93.628 65.2478Z" fill="#2F80ED"/>
<path d="M96.2758 66.5531C96.4554 65.1576 97.5777 64.5499 98.8797 64.5499C99.5756 64.5499 100.271 64.6625 100.945 64.4149C102.471 63.8297 102.179 62.1642 102.539 60.8588C103.212 58.383 106.332 59.9135 108.061 59.5083C109.228 59.2157 110.216 58.0454 109.722 56.8075C109.565 56.4023 108.914 56.5824 109.071 56.9875C109.834 58.8556 107.23 58.9682 106.13 58.8331C105.322 58.7431 104.536 58.608 103.728 58.8106C102.449 59.1482 101.955 60.0935 101.775 61.3089C101.618 62.4343 101.641 63.6722 100.182 63.8522C99.396 63.9422 98.6103 63.7172 97.8247 63.8972C96.5676 64.1898 95.7595 65.2477 95.6024 66.5081C95.535 66.9807 96.2085 66.9807 96.2758 66.5531Z" fill="#2F80ED"/>
<path d="M142.651 11.2756C141.865 12.2659 141.034 13.4813 141.416 14.8092C141.73 15.8896 142.583 16.2947 143.616 16.2272C144.222 16.1822 144.85 16.0246 145.344 16.5648C145.726 16.9699 145.479 17.8252 145.367 18.2753C145.187 18.973 144.85 19.6483 144.918 20.391C145.03 21.4038 145.838 22.1916 146.871 21.9665C147.297 21.8765 147.118 21.2238 146.691 21.3138C144.738 21.7639 146.085 18.5004 146.175 17.7126C146.242 17.0599 146.13 16.3397 145.636 15.8671C145.142 15.3944 144.536 15.4394 143.908 15.5069C142.92 15.6195 142 15.3044 141.955 14.1115C141.932 13.2112 142.561 12.401 143.1 11.7257C143.414 11.4332 142.92 10.938 142.651 11.2756Z" fill="#2F80ED"/>
<path d="M147.948 10.9387C146.893 11.3888 146.22 12.4917 146.489 13.6395C146.624 14.1572 146.938 14.6524 147.387 14.9675C147.926 15.3726 148.554 15.2826 149.093 15.6202C150.103 16.2279 149.295 17.4207 149.34 18.366C149.362 18.8387 149.475 19.2663 149.879 19.5589C150.485 20.0316 151.383 19.874 151.63 19.1088C151.764 18.7036 151.113 18.5236 150.979 18.9287C150.126 18.8162 149.834 18.4336 150.081 17.7809C150.126 17.5558 150.171 17.3307 150.215 17.1056C150.26 16.8806 150.283 16.6555 150.283 16.4304C150.283 15.9578 150.148 15.4626 149.789 15.125C149.25 14.6299 148.42 14.8324 147.836 14.4273C146.646 13.5945 147.073 12.019 148.285 11.5014C148.689 11.3438 148.33 10.7811 147.948 10.9387Z" fill="#2F80ED"/>
<path d="M1.16651 143.978C0.650216 143.167 0.650216 142.177 1.16651 141.344C1.6828 140.534 2.40111 140.511 3.23166 140.196C4.37648 139.724 4.39893 138.531 4.33159 137.451C4.30914 137.068 4.2867 136.663 4.39893 136.28C4.69075 135.38 5.45396 135.627 6.14983 135.74C6.55388 135.807 6.93548 135.74 7.27219 135.515C7.6987 135.222 7.96807 134.705 8.10275 134.209C8.21499 133.804 8.23744 133.377 8.32722 132.972C8.37212 132.679 8.46191 132.409 8.59659 132.161C8.95575 131.599 9.38225 131.554 9.89854 132.049C10.0108 132.476 10.6618 132.296 10.5495 131.869C10.1455 130.406 8.34967 131.059 7.90072 132.094C7.6987 132.566 7.67625 133.084 7.56401 133.579C7.49667 133.872 7.45178 134.187 7.29464 134.457C6.95793 135.065 6.32941 134.952 5.74578 134.885C5.04991 134.817 4.51117 134.75 4.06222 135.402C3.54593 136.145 3.68061 137.023 3.68061 137.878C3.70306 138.913 3.47859 139.319 2.46846 139.656C2.0644 139.791 1.72769 139.859 1.36853 140.129C0.0665854 141.052 -0.270125 142.965 0.582875 144.293C0.807349 144.675 1.39098 144.338 1.16651 143.978Z" fill="#EC615B"/>
<path d="M3.97406 145.531C3.03127 145.396 3.39043 144.36 3.81693 143.955C4.1312 143.663 4.5577 143.483 4.96175 143.28C5.45559 143.032 5.94944 142.74 6.30859 142.312C7.27383 141.097 5.88209 139.476 7.22893 138.509C8.57578 137.563 12.1898 137.136 11.1348 134.615C10.9777 134.21 10.394 134.57 10.5511 134.952C11.3144 136.775 7.61054 137.316 6.66775 138.081C6.33104 138.351 6.03922 138.711 5.90454 139.139C5.63517 140.084 6.42083 141.052 5.72496 141.952C4.91685 142.942 3.1884 142.942 2.78435 144.338C2.53743 145.126 2.96393 146.071 3.81693 146.206C4.22099 146.251 4.40056 145.598 3.97406 145.531Z" fill="#EC615B"/>
<path d="M250.041 93.2242C249.749 92.7066 249.794 92.1439 250.108 91.6487C250.602 90.9285 251.186 91.086 251.949 91.1536C252.465 91.1986 252.937 91.3111 253.43 91.0185C254.306 90.4783 254.171 89.353 254.328 88.4977C254.688 86.4946 256.416 88.3177 257.583 87.6875C258.01 87.4624 258.167 87.0348 258.257 86.5846C258.414 85.7068 258.459 83.096 260.142 84.1538C260.501 84.3789 260.861 83.7937 260.479 83.5687C258.975 82.6459 257.763 84.1763 257.628 85.5943C257.538 86.4046 257.628 87.1923 256.551 87.0798C256.169 87.0348 255.787 86.8322 255.406 86.7872C254.8 86.7197 254.261 86.8997 253.924 87.4399C253.543 88.0701 253.677 88.8578 253.52 89.533C253.184 91.0635 251.882 90.2083 250.827 90.3883C249.412 90.6359 248.761 92.3464 249.435 93.5393C249.659 93.9444 250.243 93.6068 250.041 93.2242Z" fill="#EC615B"/>
<path d="M253.385 94.6425C253.003 93.6072 254.193 92.4593 255.225 92.9995C255.36 93.067 255.54 93.067 255.629 92.9545C256.146 92.3918 256.28 91.7391 256.505 91.0189C256.909 89.7134 257.874 89.5334 259.041 89.1733C260.186 88.8132 261.466 87.8679 260.994 86.5174C260.837 86.1123 260.186 86.2924 260.343 86.6975C260.994 88.4755 257.807 88.6106 256.864 89.2633C255.719 90.0736 256.056 91.5365 255.181 92.4818C255.315 92.4593 255.45 92.4368 255.585 92.4368C254.081 91.6491 252.173 93.202 252.756 94.8451C252.891 95.2277 253.542 95.0701 253.385 94.6425Z" fill="#EC615B"/>
<path d="M162.719 100.539C162.764 100.539 163.258 101.754 163.46 101.912C163.774 102.16 164.156 102.182 164.538 102.115C165.211 102.002 165.638 101.507 166.221 101.192C167.478 100.472 167.478 101.709 167.972 102.407C168.533 103.24 169.139 102.835 169.79 102.43C170.217 102.16 170.621 101.98 171.003 102.362C171.205 102.565 171.339 102.902 171.496 103.15C171.743 103.51 172.013 103.803 172.417 103.983C172.798 104.163 173.157 103.578 172.753 103.397C171.833 102.992 171.721 101.462 170.621 101.304C170.105 101.237 169.88 101.529 169.476 101.754C168.982 102.047 168.69 102.25 168.376 101.687C168.242 101.462 168.219 101.147 168.062 100.922C167.344 99.7288 166.221 100.382 165.323 100.967C165.166 101.079 165.009 101.192 164.83 101.282C164.448 101.169 164.044 101.057 163.662 100.944C163.505 100.787 163.505 100.404 163.37 100.201C163.146 99.8864 162.921 99.7963 162.562 99.8639C162.113 99.9539 162.293 100.607 162.719 100.539Z" fill="#EC615B"/>
<path d="M167.994 98.3785C168.667 97.3207 170.216 99.5264 170.845 99.7964C171.226 99.954 171.586 99.954 171.99 99.8415C172.169 99.7964 172.326 99.7064 172.483 99.6389C173.089 99.3913 173.606 99.5489 174.1 99.9765C174.818 100.584 175.02 101.394 176.053 101.62C176.659 101.755 177.22 101.575 177.489 100.989C177.669 100.607 177.085 100.247 176.906 100.652C176.277 102.002 174.549 99.3463 174.1 99.0537C173.269 98.5135 172.753 98.9637 171.922 99.1437C170.598 99.4138 170.171 97.9283 169.071 97.5682C168.42 97.3432 167.792 97.4557 167.433 98.0634C167.163 98.4235 167.747 98.7611 167.994 98.3785Z" fill="#EC615B"/>
<path d="M251.882 137.721C263.802 137.721 275.722 137.721 287.664 137.721C288.09 137.721 288.09 137.046 287.664 137.046C275.744 137.046 263.824 137.046 251.882 137.046C251.456 137.046 251.456 137.721 251.882 137.721Z" fill="#E8E8E8"/>
<path d="M261.648 137.564C261.648 141.052 261.648 144.519 261.648 148.007C261.648 148.435 262.322 148.435 262.322 148.007C262.322 144.519 262.322 141.052 262.322 137.564C262.322 137.136 261.648 137.136 261.648 137.564Z" fill="#E8E8E8"/>
<path d="M278.302 137.226C278.302 132.364 278.302 127.503 278.302 122.641C278.302 122.213 277.629 122.213 277.629 122.641C277.629 127.503 277.629 132.364 277.629 137.226C277.629 137.676 278.302 137.676 278.302 137.226Z" fill="#E8E8E8"/>
<path d="M270.378 122.912C274.89 122.912 279.402 122.912 283.914 122.912C284.341 122.912 284.341 122.236 283.914 122.236C279.402 122.236 274.89 122.236 270.378 122.236C269.952 122.236 269.952 122.912 270.378 122.912Z" fill="#E8E8E8"/>
<path d="M261.512 41.8637C261.512 46.0725 261.512 50.2814 261.512 54.4677C261.512 54.8953 262.185 54.8953 262.185 54.4677C262.185 50.2589 262.185 46.05 262.185 41.8637C262.185 41.4361 261.512 41.4361 261.512 41.8637Z" fill="#E8E8E8"/>
<path d="M251.028 55.435C259.132 55.435 267.213 55.435 275.316 55.435C275.743 55.435 275.743 54.7598 275.316 54.7598C267.213 54.7598 259.132 54.7598 251.028 54.7598C250.579 54.7598 250.579 55.435 251.028 55.435Z" fill="#E8E8E8"/>
<path d="M275.094 55.3451C275.094 58.136 275.094 60.9269 275.094 63.7178C275.094 64.1454 275.767 64.1454 275.767 63.7178C275.767 60.9269 275.767 58.136 275.767 55.3451C275.767 54.9175 275.094 54.9175 275.094 55.3451Z" fill="#E8E8E8"/>
<path d="M49.6526 28.7416C57.5765 28.7416 65.5229 28.7416 73.4468 28.7416C73.8733 28.7416 73.8733 28.0664 73.4468 28.0664C65.5229 28.0664 57.5765 28.0664 49.6526 28.0664C49.2261 28.0664 49.2036 28.7416 49.6526 28.7416Z" fill="#E8E8E8"/>
<path d="M72.4609 28.6745C72.4609 30.8352 72.4609 32.9959 72.4609 35.1566C72.4609 35.5842 73.1343 35.5842 73.1343 35.1566C73.1343 32.9959 73.1343 30.8352 73.1343 28.6745C73.1343 28.2244 72.4609 28.2244 72.4609 28.6745Z" fill="#E8E8E8"/>
<path d="M65.2555 28.134C65.2555 24.6679 65.2555 21.2243 65.2555 17.7582C65.2555 17.3306 64.582 17.3306 64.582 17.7582C64.582 21.2243 64.582 24.6679 64.582 28.134C64.582 28.5842 65.2555 28.5842 65.2555 28.134Z" fill="#E8E8E8"/>
<path d="M2.58159 98.1088C8.05876 98.1088 13.5359 98.1088 19.0131 98.1088C19.4396 98.1088 19.4396 97.4336 19.0131 97.4336C13.5359 97.4336 8.05876 97.4336 2.58159 97.4336C2.15509 97.4336 2.15509 98.1088 2.58159 98.1088Z" fill="#E8E8E8"/>
<path d="M12.6172 91.3344C12.6172 93.36 12.6172 95.3857 12.6172 97.4113C12.6172 97.8389 13.2906 97.8389 13.2906 97.4113C13.2906 95.3857 13.2906 93.36 13.2906 91.3344C13.2906 90.9068 12.6172 90.9068 12.6172 91.3344Z" fill="#E8E8E8"/>
<path d="M8.66484 91.6713C11.583 91.6713 14.5012 91.6713 17.4193 91.6713C17.8458 91.6713 17.8458 90.9961 17.4193 90.9961C14.5012 90.9961 11.583 90.9961 8.66484 90.9961C8.21589 90.9961 8.21589 91.6713 8.66484 91.6713Z" fill="#E8E8E8"/>
<path d="M107.524 233.58C114.842 233.58 122.16 233.58 129.478 233.58C129.904 233.58 129.904 232.904 129.478 232.904C122.16 232.904 114.842 232.904 107.524 232.904C107.075 232.904 107.075 233.58 107.524 233.58Z" fill="#E8E8E8"/>
<path d="M121.037 232.904C121.037 231.328 121.037 229.753 121.037 228.155C121.037 227.727 120.363 227.727 120.363 228.155C120.363 229.73 120.363 231.306 120.363 232.904C120.363 233.354 121.037 233.354 121.037 232.904Z" fill="#E8E8E8"/>
<path d="M118.992 228.177C122.022 228.177 125.075 228.177 128.105 228.177C128.532 228.177 128.532 227.502 128.105 227.502C125.075 227.502 122.022 227.502 118.992 227.502C118.565 227.502 118.565 228.177 118.992 228.177Z" fill="#E8E8E8"/>
<path d="M3.09722 221.74C10.4151 221.74 17.7329 221.74 25.0508 221.74C25.4773 221.74 25.4773 221.064 25.0508 221.064C17.7329 221.064 10.4151 221.064 3.09722 221.064C2.67072 221.064 2.67072 221.74 3.09722 221.74Z" fill="#E8E8E8"/>
<path d="M13.2422 212.917C13.2422 215.506 13.2422 218.117 13.2422 220.705C13.2422 221.132 13.9156 221.132 13.9156 220.705C13.9156 218.117 13.9156 215.506 13.9156 212.917C13.9156 212.49 13.2422 212.49 13.2422 212.917Z" fill="#E8E8E8"/>
<path d="M13.2452 211.904C10.3271 211.904 7.38647 211.904 4.46831 211.904C4.04181 211.904 4.04181 212.579 4.46831 212.579C7.38647 212.579 10.3271 212.579 13.2452 212.579C13.6717 212.579 13.6717 211.904 13.2452 211.904Z" fill="#E8E8E8"/>
<path d="M247.122 201.934C246.381 201.192 246.56 199.751 247.705 199.504C248.311 199.368 248.895 199.751 249.478 199.819C249.927 199.886 250.399 199.841 250.691 199.436C251.14 198.851 250.78 198.176 250.758 197.523C250.713 195.475 253.137 195.61 254.35 196.33C254.619 196.488 254.911 196.217 254.843 195.947C254.26 193.134 257.47 191.198 259.67 193.067C260.006 193.337 260.478 192.864 260.141 192.594C257.425 190.298 253.452 192.639 254.192 196.15C254.35 196.015 254.529 195.902 254.686 195.767C253.654 195.137 252.329 194.822 251.229 195.52C250.825 195.767 250.466 196.15 250.287 196.6C250.152 196.915 250.085 197.208 250.107 197.545C250.129 198.153 250.331 198.108 249.883 198.693C249.389 199.346 249.344 199.053 248.648 198.896C248.401 198.828 248.177 198.783 247.907 198.806C247.346 198.828 246.83 199.098 246.471 199.504C245.685 200.381 245.887 201.619 246.673 202.407C246.964 202.722 247.436 202.249 247.122 201.934Z" fill="#E8E8E8"/>
<path d="M251.499 202.609C251.252 200.561 254.597 200.539 255.54 199.121C255.787 198.761 255.876 198.356 256.034 197.973C256.325 197.275 256.842 196.825 257.605 196.623C258.84 196.307 260.119 196.87 261.241 197.343C261.645 197.5 261.825 196.848 261.421 196.69C259.356 195.835 256.572 195.182 255.427 197.703C255.023 198.603 254.889 199.098 253.946 199.571C253.385 199.841 252.801 199.999 252.262 200.314C251.409 200.809 250.736 201.574 250.848 202.609C250.893 203.037 251.567 203.037 251.499 202.609Z" fill="#E8E8E8"/>
<path d="M154.952 137.158C155.401 138.284 155.85 139.432 156.299 140.557C156.344 140.422 156.411 140.309 156.456 140.174C156.209 140.332 155.962 140.489 155.715 140.67C155.334 139.769 155.491 139.544 156.209 139.949C156.636 140.219 156.838 140.805 156.928 141.277C157.13 142.358 156.905 143.483 156.546 144.518C156.456 144.788 156.726 144.968 156.95 144.923C158.297 144.653 158.836 146.274 158.566 147.287C158.364 148.029 157.96 148.682 157.556 149.335C157.332 149.695 157.915 150.033 158.14 149.672C158.858 148.547 159.689 147.152 159.195 145.756C158.813 144.721 157.87 144.068 156.77 144.271C156.905 144.406 157.04 144.541 157.175 144.676C157.623 143.37 157.915 141.727 157.354 140.399C156.972 139.522 156.097 138.846 155.109 139.139C154.346 139.364 153.965 140.129 154.324 140.872C154.93 142.11 155.985 141.277 156.77 140.76C156.883 140.692 156.972 140.512 156.928 140.377C156.479 139.252 156.03 138.104 155.581 136.978C155.446 136.596 154.795 136.753 154.952 137.158Z" fill="#E8E8E8"/>
<path d="M22.2031 30.6777C21.7766 29.5973 23.2133 29.3048 23.8867 29.6874C24.403 29.98 24.7397 30.4976 25.0539 30.9703C25.3458 31.3979 25.66 31.8706 25.8171 32.3657C25.9967 32.7934 25.9743 33.1985 25.7498 33.6036C24.9642 33.9637 24.5601 33.8737 24.5376 33.356C24.3356 32.6133 25.1213 32.1181 25.7947 32.1407C26.4906 32.1632 27.1415 32.5683 27.6129 33.0634C28.421 33.9187 28.7129 35.0441 28.6006 36.1919C28.8027 36.1244 29.0271 36.0794 29.2292 36.0119C28.7802 35.3592 29.2067 34.6615 29.8128 34.3238C30.3291 34.0538 30.9127 34.1213 31.4065 34.3914C32.2147 34.819 32.7758 35.6068 33.2921 36.327C33.5391 36.6871 34.1227 36.3495 33.8758 35.9894C33.0228 34.7965 31.7433 33.131 30.0597 33.5136C28.8251 33.7837 27.8374 35.2241 28.6455 36.3495C28.8475 36.6421 29.2292 36.507 29.274 36.1694C29.4761 34.0313 27.9048 31.1053 25.3907 31.4654C24.4928 31.6005 23.8418 32.2307 23.8418 33.1535C23.8418 33.8737 24.2907 34.6164 25.0539 34.6615C25.9518 34.729 26.5579 33.8512 26.6028 33.0409C26.6702 31.9156 25.7947 30.7002 25.1213 29.8674C24.4928 29.1247 23.5724 28.4945 22.5847 28.8771C21.7766 29.1697 21.2379 29.98 21.5746 30.8127C21.7093 31.2629 22.3602 31.0828 22.2031 30.6777Z" fill="#E8E8E8"/>
<path d="M140.454 63.6956C139.511 63.1329 140.185 61.4674 141.24 62.1651C142.25 62.8403 140.903 63.9882 140.252 63.2005C139.983 62.8628 139.511 63.3355 139.781 63.6731C140.297 64.3033 141.284 64.2583 141.868 63.7406C142.542 63.1329 142.362 62.1426 141.666 61.6475C140.97 61.1523 139.96 61.2423 139.534 62.0526C139.107 62.8178 139.399 63.8532 140.14 64.2808C140.476 64.4834 140.813 63.9207 140.454 63.6956Z" fill="#E8E8E8"/>
<path d="M211.971 14.4722C211.477 13.7745 212.33 12.7166 213.116 13.0317C213.048 12.9867 212.981 12.9192 212.914 12.8742C213.34 13.6169 212.712 14.6297 211.881 14.5847C211.993 14.6747 212.106 14.7423 212.196 14.8323C212.061 14.4497 211.904 14.0445 211.769 13.6619C211.612 13.2568 210.961 13.4369 211.118 13.842C211.253 14.2246 211.41 14.6297 211.545 15.0124C211.589 15.1699 211.702 15.2599 211.859 15.2599C212.577 15.3049 213.206 14.8548 213.52 14.2246C213.767 13.7294 213.901 12.6941 213.295 12.379C211.971 11.7263 210.602 13.7069 211.387 14.8098C211.634 15.1699 212.218 14.8323 211.971 14.4722Z" fill="#E8E8E8"/>
<path d="M230.241 47.9402C230.129 47.4225 230.511 46.8598 231.027 46.7473C231.498 46.6573 231.925 47.0399 232.037 47.4675C232.329 48.4803 231.005 48.953 230.376 48.2553C230.084 47.9402 229.613 48.4128 229.905 48.7279C231.072 50.0333 233.317 48.7504 232.598 47.0849C232.284 46.3422 231.498 45.8695 230.713 46.1171C229.882 46.3872 229.388 47.265 229.568 48.1202C229.703 48.5479 230.354 48.3678 230.241 47.9402Z" fill="#E8E8E8"/>
<path d="M157.376 234.232C156.523 233.827 156.591 232.657 157.376 232.206C158.139 231.779 158.858 232.161 159.554 232.477C160.137 232.747 160.811 232.994 161.327 232.477C161.798 232.026 161.709 231.329 161.731 230.744C161.821 228.47 164.021 228.92 165.525 229.483C165.929 229.641 166.108 228.988 165.704 228.83C164.38 228.313 162.539 227.818 161.484 229.123C161.17 229.506 161.08 229.956 161.058 230.428C161.035 230.744 161.17 231.441 160.99 231.734C160.496 232.477 159.823 231.801 159.307 231.576C158.319 231.149 156.905 231.261 156.299 232.297C155.782 233.174 156.097 234.367 157.017 234.795C157.421 234.997 157.758 234.412 157.376 234.232Z" fill="#E8E8E8"/>
<path d="M168.243 181.182C167.57 189.442 167.929 197.725 169.321 205.895C169.388 206.323 170.039 206.142 169.972 205.715C168.603 197.612 168.243 189.375 168.917 181.182C168.962 180.754 168.288 180.754 168.243 181.182Z" fill="#E8E8E8"/>
<path d="M168.691 181.7C172.193 182.916 175.807 183.726 179.488 184.131C182.945 184.491 186.918 184.874 190.241 183.569C190.645 183.411 190.465 182.758 190.061 182.916C186.829 184.199 182.9 183.816 179.488 183.456C175.874 183.073 172.305 182.241 168.871 181.048C168.444 180.89 168.287 181.543 168.691 181.7Z" fill="#E8E8E8"/>
<path d="M174.036 182.622C172.869 180.799 171.904 178.864 171.23 176.793C170.916 175.803 170.647 174.812 170.445 173.8C170.332 173.192 170.22 172.584 170.153 171.977C170.153 171.909 169.906 170.311 170.377 170.536C170.602 170.649 170.983 170.446 170.871 170.153C169.636 167.025 168.963 163.739 168.896 160.363C168.783 160.475 168.671 160.588 168.559 160.7C168.739 160.768 168.896 160.836 169.075 160.903C169.3 161.173 169.726 160.881 169.636 160.565C169.187 159.125 168.896 157.64 168.806 156.109C168.783 155.749 168.851 151.698 169.098 151.765C169.367 151.833 169.547 151.585 169.502 151.36C169.075 148.817 168.873 146.228 168.985 143.663C169.03 142.38 169.143 141.119 169.345 139.859C169.524 138.711 169.614 137.316 170.512 136.483C170.332 136.46 170.153 136.438 169.973 136.415C171.859 139.971 172.914 143.865 173.879 147.736C174.822 151.54 175.652 155.389 176.371 159.26C177.83 167.25 178.75 175.33 179.154 183.455C179.177 183.883 179.85 183.883 179.828 183.455C179.423 175.285 178.503 167.138 177.022 159.08C176.281 155.074 175.428 151.09 174.44 147.129C173.475 143.325 172.42 139.544 170.557 136.055C170.445 135.853 170.175 135.853 170.018 135.988C169.255 136.685 169.03 137.608 168.851 138.576C168.604 139.949 168.424 141.367 168.334 142.762C168.155 145.688 168.334 148.614 168.828 151.518C168.963 151.383 169.098 151.248 169.232 151.112C167.93 150.752 168.088 153.566 168.065 154.196C167.975 156.402 168.312 158.607 168.963 160.723C169.143 160.61 169.345 160.498 169.524 160.385C169.232 160.048 168.985 159.935 168.536 159.98C168.357 160.003 168.2 160.115 168.2 160.318C168.267 163.739 168.941 167.093 170.198 170.289C170.355 170.153 170.534 170.041 170.691 169.906C168.447 168.826 169.749 173.912 169.928 174.677C170.602 177.603 171.814 180.394 173.43 182.915C173.699 183.32 174.283 182.983 174.036 182.622Z" fill="#E8E8E8"/>
<path d="M177.603 160.138C177.401 158.698 177.356 157.235 177.536 155.794C177.581 155.434 178.434 151.203 178.86 151.383C179.085 151.495 179.354 151.36 179.377 151.09C179.511 148.209 180.409 145.644 181.464 142.988C182.519 140.354 183.552 137.811 185.303 135.538C185.146 135.538 184.988 135.538 184.831 135.538C186.111 137.001 185.954 139.229 186.021 141.052C186.111 143.1 186.178 145.148 186.201 147.197C186.245 151.225 186.178 155.254 185.998 159.283C185.617 167.52 184.697 175.736 183.305 183.861C183.237 184.288 183.888 184.468 183.956 184.041C185.415 175.578 186.335 167.003 186.717 158.405C186.896 154.084 186.941 149.762 186.851 145.441C186.807 143.28 186.762 141.12 186.605 138.959C186.515 137.541 186.29 136.146 185.303 135.043C185.19 134.908 184.943 134.908 184.831 135.043C183.103 137.293 182.025 139.769 180.993 142.403C179.848 145.238 178.883 147.984 178.726 151.09C178.905 151 179.062 150.888 179.242 150.798C177.873 150.19 177.424 153.116 177.244 153.904C176.75 156.019 176.705 158.157 177.02 160.296C176.997 160.746 177.648 160.566 177.603 160.138Z" fill="#E8E8E8"/>
<path d="M169.634 206.458C176.661 208.731 184.27 208.618 191.229 206.143C191.633 206.008 191.453 205.355 191.049 205.49C184.203 207.921 176.728 208.033 169.814 205.805C169.388 205.67 169.208 206.323 169.634 206.458Z" fill="#E8E8E8"/>
<path d="M190.153 183.343C190.422 186.989 190.714 190.636 190.961 194.282C191.208 197.995 191.298 201.754 190.692 205.445C190.624 205.873 191.275 206.053 191.343 205.625C191.949 202.002 191.904 198.355 191.657 194.709C191.41 190.928 191.118 187.124 190.826 183.343C190.804 182.916 190.13 182.916 190.153 183.343Z" fill="#E8E8E8"/>
<path d="M70.3516 212.242C74.9308 209.789 79.5325 207.336 84.1118 204.883C86.2668 205.243 89.2298 205.715 92.7765 206.21C99.8699 207.201 111.296 208.799 125.752 209.226C140.208 209.654 151.05 208.731 155.18 208.326C165.124 207.381 171.14 206.098 176.056 204.77C180.523 203.555 184.205 202.227 186.831 201.214C188.986 201.934 191.388 202.902 193.947 204.23C195.406 204.995 196.753 205.783 197.943 206.571C193.722 207.786 188.043 209.339 181.287 210.914C167.055 214.246 156.145 215.821 153.856 216.159C140.769 218.027 122.115 220.66 98.6577 217.937C91.3623 217.059 81.6426 215.461 70.3516 212.242Z" fill="white"/>
<path d="M70.1055 212.264C70.2177 213.21 70.3524 214.133 70.4646 215.078C72.1482 215.551 74.6174 216.226 77.6702 216.901C83.5066 218.206 89.4327 219.107 97.177 219.714C125.775 221.965 148.626 219.962 148.626 219.962C160.052 218.949 171.141 217.914 185.463 213.727C190.85 212.152 195.25 210.554 198.392 209.316C198.145 208.258 197.898 207.2 197.651 206.143C196.776 206.503 195.474 207.02 193.88 207.606C183.061 211.567 174.149 212.872 166.203 213.84C148.739 216.001 140.007 217.059 127.189 217.261C112.598 217.509 93.0242 216.631 70.1055 212.264Z" fill="#161616"/>
<path d="M69.9453 212.692C69.9453 213.412 69.9453 214.133 69.9453 214.853C69.9453 215.28 70.6187 215.28 70.6187 214.853C70.6187 214.133 70.6187 213.412 70.6187 212.692C70.6187 212.242 69.9453 212.242 69.9453 212.692Z" fill="#161616"/>
<path d="M70.1931 215.483C86.9613 220.029 104.47 220.614 121.732 220.862C138.321 221.087 155.022 220.367 171.363 217.328C180.567 215.618 189.636 213.12 198.39 209.721C198.794 209.563 198.615 208.911 198.211 209.068C182.767 215.078 166.358 218.139 149.859 219.422C133.225 220.704 116.435 220.412 99.8012 219.399C89.857 218.769 80.0026 217.463 70.3727 214.853C69.9462 214.718 69.7666 215.37 70.1931 215.483Z" fill="#161616"/>
<path d="M198.39 209.248C198.525 208.303 198.57 207.335 198.48 206.39C198.435 205.962 197.762 205.962 197.807 206.39C197.874 207.29 197.874 208.191 197.739 209.068C197.672 209.474 198.323 209.676 198.39 209.248Z" fill="#161616"/>
<path d="M70.484 212.625C75.1979 210.374 79.8221 207.966 84.3564 205.355C84.738 205.13 84.4013 204.567 84.0197 204.77C79.4854 207.358 74.8612 209.789 70.1472 212.04C69.7432 212.22 70.0799 212.805 70.484 212.625Z" fill="#161616"/>
<path d="M84.1775 205.04C110.957 210.149 138.792 211.095 165.796 207.223C172.979 206.188 180.118 204.59 186.762 201.619C187.166 201.439 186.807 200.854 186.425 201.034C180.454 203.69 174.079 205.243 167.637 206.256C161.082 207.291 154.46 207.921 147.838 208.349C134.392 209.204 120.879 208.979 107.478 207.696C99.7111 206.953 92.0116 205.828 84.357 204.388C83.9305 204.32 83.751 204.973 84.1775 205.04Z" fill="#161616"/>
<path d="M186.631 201.506C190.626 202.811 194.375 204.634 197.877 206.953C198.236 207.2 198.573 206.615 198.213 206.367C194.667 204.027 190.851 202.181 186.81 200.853C186.384 200.718 186.204 201.371 186.631 201.506Z" fill="#161616"/>
<path d="M70.5314 212.265C78.4553 214.943 86.7159 216.203 95.0215 216.879C103.439 217.554 111.924 217.756 120.365 217.756C137.133 217.756 153.946 216.609 170.467 213.593C179.85 211.882 189.143 209.564 198.19 206.525C198.594 206.39 198.414 205.738 198.01 205.873C182.095 211.184 165.551 214.29 148.85 215.821C132.239 217.351 115.449 217.441 98.7926 216.451C89.2749 215.866 79.7348 214.673 70.666 211.612C70.3069 211.477 70.1273 212.13 70.5314 212.265Z" fill="#161616"/>
<path d="M83.4586 83.7262C110.889 77.3567 139.128 75.9612 167.187 75.6911C175.134 75.6011 183.08 75.6236 191.026 75.6236C191.453 75.6236 191.453 74.9484 191.026 74.9484C162.877 74.9034 134.594 74.8809 106.647 78.7746C98.7902 79.8774 91.0009 81.2729 83.279 83.0735C82.8525 83.186 83.0321 83.8387 83.4586 83.7262Z" fill="#161616"/>
<path d="M192.417 75.0162C192.709 85.482 192.888 97.6133 192.821 111.095C192.776 118.928 192.709 115.191 192.013 147.782C191.609 166.553 191.497 173.62 190.172 184.468C189.319 191.536 188.287 197.342 187.523 201.281C193.315 202.902 198.837 204.432 203.686 205.783C211.183 207.876 213.181 208.438 216.166 208.866C220.79 209.496 226.425 209.586 232.935 208.258C235.336 188.542 236.661 171.729 237.424 158.855C240.163 113.616 237.604 92.7743 236.616 85.4595C235.269 75.6014 233.608 67.4988 232.328 61.8945C227.525 62.8173 223.619 63.8076 220.88 64.5504C211.475 67.1387 204.022 70.1772 197.782 72.743C195.47 73.7108 193.607 74.4985 192.417 75.0162Z" fill="white"/>
<path d="M37.6665 62.2998C37.4869 64.2354 37.2849 66.6212 37.1053 68.6918C33.3791 111.298 31.5159 132.612 30.9099 146.319C30.2813 161.039 30.2364 182.375 33.3566 208.911C33.6036 209.451 34.0525 210.194 34.8606 210.802C35.9156 211.59 36.8809 211.567 38.7889 212.107C40.2929 212.535 41.0785 212.962 41.7969 213.233C43.862 214.043 48.4862 214.966 54.3674 214.741C62.8076 214.403 69.2949 211.815 74.0538 209.857C78.5208 208.033 82.0899 206.075 84.5591 204.59C83.1674 192.053 82.1348 178.819 81.5512 164.932C80.3615 135.403 81.5512 108.282 83.998 84.1092C82.9654 83.7041 81.4614 83.1414 79.6881 82.4212C76.6352 81.1833 69.3174 78.1898 56.4326 71.8878C51.337 69.4121 44.9619 66.1935 37.6665 62.2998Z" fill="white"/>
<path d="M232.195 61.8047C232.465 63.2902 232.824 65.3383 233.228 67.7916C233.789 71.2802 235.046 79.5403 235.966 90.3887C236.909 101.687 237.134 111.41 237.156 119.153C237.223 134.863 236.64 146.386 235.113 173.26C234.642 181.633 233.946 193.899 233.071 208.866C233.991 208.799 234.889 208.754 235.809 208.686C236.258 204.95 236.864 199.391 237.336 192.594C237.695 187.687 237.852 184.108 238.009 180.26C238.795 162.614 238.929 162.817 239.199 155.614C239.738 141.412 239.625 130.496 239.536 120.683C239.468 113.909 239.266 107.494 238.862 94.6651C238.57 85.9323 238.278 78.1899 236.303 68.1292C235.787 65.5634 235.293 63.4252 234.934 61.9622C234.014 61.9172 233.116 61.8722 232.195 61.8047Z" fill="#161616"/>
<path d="M34.234 62.7051C34.0768 63.4928 33.8299 64.7082 33.583 66.1937C32.8647 70.4925 32.6851 73.7336 32.6178 74.7914C32.1239 82.4438 31.1362 86.18 29.6996 103.173C29.4302 106.279 29.2282 109.002 28.8241 114.471C27.9936 125.635 27.5895 131.217 27.2977 137.519C26.9835 144.564 26.9386 149.538 26.8712 159.486C26.8039 168.083 26.759 174.295 26.9835 182.421C27.163 188.903 27.5222 197.703 28.3976 208.191C30.2159 208.731 32.0117 209.271 33.8299 209.812C33.8075 208.799 33.7401 206.976 33.6054 204.703C33.0667 194.597 32.1913 190.501 31.9892 182.083C31.9219 179.495 31.9668 177.784 31.9892 175.331C32.2361 157.73 31.9443 149.695 32.1015 138.262C32.3708 119.603 33.6279 105.018 34.7054 92.5945C35.7155 80.8458 36.8603 70.7851 37.848 62.9076C36.6134 62.8401 35.4237 62.7726 34.234 62.7051Z" fill="#161616"/>
<path d="M191.88 75.3989C192.71 91.9191 192.598 108.484 192.374 125.005C192.127 141.165 192.014 157.37 190.78 173.507C190.084 182.69 188.984 191.851 187.278 200.921C187.188 201.349 187.839 201.529 187.929 201.101C190.914 185.234 192.014 169.096 192.508 152.981C193.025 136.528 193.249 120.03 193.227 103.555C193.204 94.1698 193.047 84.7843 192.576 75.3989C192.531 74.9712 191.857 74.9712 191.88 75.3989Z" fill="#161616"/>
<path d="M192.712 75.3984C205.17 69.209 218.391 64.7526 232.039 62.1192C232.466 62.0292 232.286 61.3765 231.86 61.4665C218.167 64.1224 204.878 68.6238 192.375 74.8132C191.993 75.0158 192.33 75.601 192.712 75.3984Z" fill="#161616"/>
<path d="M231.813 61.9169C235.517 80.6203 236.639 99.7288 236.617 118.77C236.572 137.811 235.45 156.807 234.529 175.825C233.991 186.786 233.452 197.725 232.913 208.686C232.891 209.113 233.564 209.113 233.586 208.686C234.552 189.285 235.562 169.884 236.437 150.46C237.29 131.419 237.829 112.333 236.55 93.3143C235.831 82.7135 234.552 72.1576 232.487 61.7593C232.374 61.3092 231.723 61.4892 231.813 61.9169Z" fill="#161616"/>
<path d="M187.392 201.056C188.402 202.226 190.198 202.452 191.612 202.879C193.543 203.464 195.496 204.05 197.426 204.635C201.332 205.805 205.216 207.043 209.166 208.033C216.888 209.924 224.812 210.307 232.646 208.956C233.073 208.889 232.893 208.236 232.467 208.303C224.745 209.631 216.933 209.249 209.346 207.381C205.732 206.503 202.185 205.377 198.639 204.297C196.843 203.757 195.047 203.217 193.251 202.677C192.353 202.406 191.455 202.136 190.557 201.866C189.615 201.574 188.56 201.371 187.886 200.583C187.572 200.268 187.101 200.741 187.392 201.056Z" fill="#161616"/>
<path d="M232.263 61.9395C233.094 62.1421 233.925 62.3447 234.777 62.5472C235.204 62.6598 235.384 62.007 234.957 61.8945C234.127 61.692 233.296 61.4894 232.443 61.2868C232.016 61.1968 231.837 61.8495 232.263 61.9395Z" fill="#161616"/>
<path d="M234.732 62.3221C236.976 71.415 237.583 80.913 238.233 90.2535C238.907 99.7965 239.266 109.362 239.423 118.95C239.693 137.969 239.042 156.987 237.964 175.983C237.358 186.742 236.595 197.5 235.809 208.258C235.787 208.686 236.46 208.686 236.483 208.258C237.897 189.127 239.176 169.996 239.782 150.82C240.388 131.689 240.344 112.513 239.131 93.382C238.48 82.9837 237.897 72.3153 235.405 62.1646C235.27 61.7144 234.619 61.8945 234.732 62.3221Z" fill="#161616"/>
<path d="M233.273 209.069C234.261 208.979 235.226 208.888 236.214 208.798C236.64 208.753 236.64 208.078 236.214 208.123C235.226 208.213 234.261 208.303 233.273 208.393C232.847 208.438 232.847 209.114 233.273 209.069Z" fill="#161616"/>
<path d="M83.4394 83.9291C81.9354 99.5266 81.0375 115.169 80.7457 130.834C80.4539 146.566 80.7681 162.321 81.7109 178.031C82.2272 186.854 82.968 195.655 83.8659 204.432C83.9108 204.86 84.5842 204.86 84.5393 204.432C82.9231 188.857 81.913 173.215 81.5089 157.55C81.1048 141.817 81.3069 126.062 82.1374 110.352C82.6088 101.53 83.2598 92.7294 84.0903 83.9291C84.1577 83.5015 83.4843 83.5015 83.4394 83.9291Z" fill="#161616"/>
<path d="M38.0936 62.8399C52.662 70.965 67.7915 78.0772 83.3251 84.1316C83.7292 84.2892 83.9088 83.6365 83.5047 83.4789C68.016 77.447 52.9538 70.3573 38.4304 62.2547C38.0488 62.0297 37.712 62.6148 38.0936 62.8399Z" fill="#161616"/>
<path d="M37.3993 62.6821C34.9077 81.7231 33.1792 100.877 32.2364 120.075C31.2936 139.274 31.1589 158.495 31.7875 177.693C32.1466 188.474 32.7527 199.255 33.6057 210.014C33.6506 210.441 34.324 210.441 34.2791 210.014C32.7527 190.86 32.0344 171.639 32.0793 152.44C32.1242 133.219 32.9772 114.021 34.5934 94.8672C35.5137 84.1088 36.681 73.3954 38.0728 62.6821C38.1176 62.2544 37.4442 62.2544 37.3993 62.6821Z" fill="#161616"/>
<path d="M33.5814 210.442C46.0846 217.261 61.057 215.798 73.7623 210.397C77.5783 208.776 81.2597 206.818 84.8064 204.68C85.1655 204.455 84.8288 203.869 84.4697 204.095C72.6399 211.274 58.7674 216.293 44.7827 213.683C40.9891 212.985 37.3077 211.702 33.9181 209.856C33.559 209.654 33.1998 210.239 33.5814 210.442Z" fill="#161616"/>
<path d="M28.6199 208.573C30.1912 209.316 31.8074 209.946 33.4461 210.509C33.8501 210.644 34.0297 209.991 33.6257 209.856C32.0319 209.316 30.483 208.708 28.9566 207.988C28.5526 207.808 28.2158 208.393 28.6199 208.573Z" fill="#161616"/>
<path d="M33.784 62.8402C31.3597 81.7012 29.3394 100.607 28.015 119.581C26.7131 138.464 26.0846 157.393 26.4886 176.321C26.7131 187.034 27.2518 197.748 28.1722 208.416C28.2171 208.844 28.8905 208.844 28.8456 208.416C27.2294 189.488 26.758 170.492 27.2069 151.496C27.6334 132.567 28.9354 113.661 30.7985 94.8003C31.8535 84.1319 33.0881 73.4636 34.4574 62.8177C34.5248 62.4126 33.8513 62.4126 33.784 62.8402Z" fill="#161616"/>
<path d="M34.1656 63.3122C35.4676 63.0421 36.7695 62.952 38.1164 63.0196C38.5429 63.0421 38.5429 62.3668 38.1164 62.3443C36.7246 62.2768 35.3553 62.3894 33.9861 62.6594C33.5596 62.7495 33.7391 63.4022 34.1656 63.3122Z" fill="#161616"/>
<path d="M200.477 76.9291C201.42 103.037 201.375 129.168 200.298 155.276C200.006 162.591 199.624 169.884 199.153 177.198C199.13 177.626 199.804 177.626 199.826 177.198C201.465 151.135 202.094 125.004 201.712 98.8736C201.6 91.5588 201.42 84.2439 201.151 76.9291C201.128 76.5015 200.455 76.5015 200.477 76.9291Z" fill="#161616"/>
<path d="M211.364 67.5668C212.262 85.7301 212.71 103.938 212.688 122.124C212.688 140.31 212.239 158.518 211.341 176.681C210.847 186.967 210.196 197.23 209.411 207.494C209.388 207.921 210.062 207.921 210.084 207.494C211.476 189.353 212.419 171.19 212.935 153.004C213.429 134.818 213.496 116.61 213.115 98.4241C212.89 88.1383 212.531 77.8526 212.037 67.5668C212.015 67.1392 211.341 67.1392 211.364 67.5668Z" fill="#161616"/>
<path d="M224.431 63.5602C225.688 82.4437 226.451 101.372 226.653 120.323C226.855 139.342 226.541 158.338 225.688 177.334C225.216 187.98 224.565 198.625 223.735 209.249C223.712 209.676 224.386 209.676 224.408 209.249C225.845 190.365 226.788 171.437 227.169 152.508C227.551 133.512 227.416 114.494 226.743 95.4753C226.361 84.8294 225.823 74.1836 225.104 63.5377C225.082 63.1101 224.408 63.1101 224.431 63.5602Z" fill="#161616"/>
<path d="M198.165 185.639C197.649 191.536 196.706 197.388 195.337 203.15C195.247 203.577 195.876 203.757 195.988 203.33C197.38 197.5 198.322 191.603 198.839 185.639C198.884 185.211 198.21 185.211 198.165 185.639Z" fill="#161616"/>
<path d="M45.456 67.2284C42.7623 86.1119 41.6175 105.198 41.4379 124.261C41.2808 143.437 42.0665 162.591 43.2337 181.722C43.8847 192.548 44.6479 203.351 45.4111 214.177C45.4336 214.605 46.107 214.605 46.0846 214.177C44.7377 195.114 43.3909 176.05 42.6501 156.964C41.9093 137.923 41.7971 118.837 42.897 99.7962C43.5256 88.9703 44.5581 78.1443 46.0846 67.4084C46.1743 67.0033 45.5234 66.8007 45.456 67.2284Z" fill="#161616"/>
<path d="M58.364 73.5309C56.658 91.7841 55.5132 110.105 55.1316 128.448C54.7724 146.769 55.1989 165.09 56.7029 183.366C57.5335 193.516 58.7007 203.622 60.2271 213.683C60.2945 214.11 60.9455 213.93 60.8781 213.503C58.1395 195.362 56.5682 177.041 55.9846 158.698C55.4009 140.602 55.7377 122.461 56.7253 104.388C57.2865 94.1024 58.0722 83.8166 59.0374 73.5534C59.0823 73.1032 58.4089 73.1032 58.364 73.5309Z" fill="#161616"/>
<path d="M71.2952 78.9095C69.0953 95.9474 67.8158 113.098 67.4791 130.271C67.1424 147.444 67.726 164.639 69.23 181.745C70.083 191.288 71.2054 200.786 72.6196 210.261C72.6869 210.689 73.3379 210.509 73.2705 210.081C70.734 193.111 69.1178 176.028 68.4219 158.9C67.726 141.817 67.9729 124.689 69.1178 107.606C69.7687 98.0181 70.7115 88.43 71.9461 78.887C72.0359 78.4819 71.3625 78.4819 71.2952 78.9095Z" fill="#161616"/>
<path opacity="0.12" d="M219.4 65.0908C221.892 75.2865 223.912 87.2378 224.586 100.63C226.269 134.705 218.278 162.547 211.319 180.417C206.403 188.317 201.51 196.217 196.594 204.117C201.375 206.188 208.468 208.596 217.313 209.316C223.418 209.812 228.716 209.361 232.846 208.686C232.891 207.696 233.632 192.639 233.677 191.648C236.124 141.21 236.281 137.766 236.371 134.3C236.775 120.188 236.707 99.9318 234.305 74.6563C233.475 70.3574 232.644 66.0586 231.814 61.7822C227.706 62.8626 223.553 63.9654 219.4 65.0908Z" fill="#3F3F3F"/>
<path opacity="0.13" d="M62.7412 76.0961C62.1576 78.5493 61.2821 82.218 60.2496 86.6969C55.6703 106.683 52.3032 121.38 50.5074 134.907C47.3199 158.742 44.2446 181.835 57.3538 200.786C61.1699 206.3 65.3451 210.013 68.1286 212.219C65.4349 213.277 62.0903 214.245 58.1844 214.717C47.3199 216 38.6103 212.467 34.3453 210.351C32.7291 195.429 31.6067 179.449 31.2475 162.546C30.4394 125.139 33.4698 91.5135 38.094 62.5918C46.2873 67.0932 54.503 71.5946 62.7412 76.0961Z" fill="#3F3F3F"/>
<path d="M39.1944 51.8788C38.9026 52.1039 39.1271 52.9816 39.5311 54.4896C39.6882 55.0748 39.8454 55.5249 39.9352 55.8175C39.7556 57.0329 39.5985 58.2483 39.4189 59.4637C39.0597 59.5087 38.1394 59.7113 37.2864 60.454C36.5007 61.1517 36.1865 61.962 36.0742 62.3221C36.7925 62.3896 37.668 62.5472 38.6108 62.8398C39.9801 63.2674 41.0575 63.8526 41.8432 64.3477C41.8432 64.6178 41.8881 65.1355 42.2473 65.5181C42.5615 65.8332 42.9431 65.8782 43.1676 65.9232C43.9757 66.0583 44.9409 66.2383 46.1755 66.5084C46.7143 66.8235 47.6122 67.3412 48.7121 67.9489C52.4384 69.9745 53.7852 70.3121 57.5115 72.2928C59.9134 73.5757 59.7113 73.6207 61.3949 74.4309C63.9763 75.6913 66.1986 76.4341 67.7026 76.8617C68.3311 76.164 69.3413 74.8136 69.9024 72.8554C70.3514 71.3024 70.3289 69.952 70.2392 69.0742C70.6208 69.2768 71.2268 69.5019 71.9227 69.4118C73.7185 69.2093 74.8633 67.1611 75.2225 65.6982C75.5367 64.4153 75.2449 63.605 74.998 62.097C74.4368 58.721 73.943 55.705 75.3347 53.7919C76.502 52.1939 78.9038 51.4512 80.8343 49.313C81.0139 49.1104 81.3506 48.7278 81.2384 48.5477C81.0363 48.2101 79.465 48.7953 78.7018 49.1329C78.208 49.358 74.5042 51.0685 73.3818 54.9398C73.2022 55.5475 73.1798 57.303 73.1573 60.7916C73.1349 63.3349 73.1798 64.7754 72.1696 65.6081C71.6533 66.0358 70.8901 66.2833 70.1943 66.1258C69.1617 65.9007 68.6678 64.8879 68.2189 64.2127C67.0516 62.4346 65.3905 61.6919 63.3478 60.6791C61.754 59.8913 60.3847 59.5987 57.6237 58.991C55.0198 58.4284 54.2342 58.4959 53.1118 57.6631C51.8547 56.7178 51.1589 55.3899 50.7997 54.6472C50.4405 53.9494 49.8794 52.8466 49.6324 51.2711C49.4978 50.3483 49.5202 49.6956 49.2957 49.6506C48.8917 49.5606 48.6896 51.4286 47.3204 52.0814C46.4898 52.4865 45.9511 52.1039 44.492 52.1489C43.5492 52.1714 42.4717 52.3739 41.2596 52.9141C40.8555 52.6215 39.5985 51.5862 39.1944 51.8788Z" fill="#2D2D2D"/>
<path d="M39.866 59.2841C39.3946 55.5704 42.7617 52.1943 46.488 52.577C50.0122 52.9371 52.3467 57.2359 52.2345 60.4544C52.2121 60.8821 52.8855 60.8821 52.9079 60.4544C53.0202 56.8983 50.3714 52.2168 46.488 51.9017C42.4025 51.5641 38.6763 55.1878 39.1926 59.2841C39.2599 59.6892 39.9333 59.7117 39.866 59.2841Z" fill="#2D2D2D"/>
<path d="M39.7997 61.6245C41.169 64.3029 44.1096 66.1935 47.1849 65.7883C49.9908 65.4057 52.3702 63.1325 52.7967 60.3191C52.8641 59.8915 52.2131 59.7114 52.1458 60.1391C51.7641 62.7049 49.6541 64.7755 47.0951 65.1131C44.2892 65.4957 41.6404 63.7402 40.3833 61.2869C40.1813 60.9043 39.5977 61.2419 39.7997 61.6245Z" fill="#2D2D2D"/>
<path d="M42.2231 64.8882C42.1557 64.0329 44.58 63.6728 45.1861 63.5377C46.286 63.2901 47.4084 63.1551 48.5308 63.1551C50.6184 63.1551 52.6162 63.6953 54.3895 64.7981C54.7487 65.0232 55.1079 64.438 54.7262 64.2129C52.4366 62.795 49.7654 62.2998 47.1166 62.5474C45.7248 62.6825 44.3556 62.975 43.0312 63.4252C42.3128 63.6728 41.4598 63.9879 41.5272 64.8882C41.5721 65.3158 42.268 65.3158 42.2231 64.8882Z" fill="#2D2D2D"/>
<path d="M51.8775 57.1007C53.2917 58.8113 55.5813 59.2164 57.6241 59.6666C60.3402 60.2968 63.1461 60.8594 65.5255 62.3674C70.4415 65.4734 71.3619 72.248 67.4785 76.5919C67.1866 76.907 67.658 77.4022 67.9499 77.0646C71.4068 73.2158 71.4965 67.319 67.9274 63.4928C66.0418 61.4671 63.3481 60.4093 60.7218 59.7116C58.0506 59.0138 54.212 58.9013 52.3265 56.6056C52.0795 56.2905 51.6081 56.7631 51.8775 57.1007Z" fill="#2D2D2D"/>
<path d="M67.5891 68.8718C66.4667 67.3863 64.4913 66.8686 62.7629 67.5888C60.6304 68.4666 60.5182 71.1 60.7651 73.1031C60.81 73.5307 61.4834 73.5307 61.4385 73.1031C61.2365 71.5276 61.214 69.0968 62.8302 68.3091C64.222 67.6114 66.0402 67.9715 66.983 69.2319C67.2524 69.5695 67.836 69.2319 67.5891 68.8718Z" fill="#2D2D2D"/>
<path d="M61.3477 72.788C60.1131 71.8427 58.8336 71.0324 57.2398 71.46C57.0602 71.505 56.9705 71.7076 57.0153 71.8652C57.4194 73.4407 59.8886 74.0934 61.1906 74.656C63.1884 75.5338 65.2311 76.2766 67.2962 76.9293C67.7003 77.0643 67.8799 76.4116 67.4758 76.2766C65.8147 75.7589 64.1985 75.1962 62.5823 74.521C61.7068 74.1609 60.8538 73.7783 60.0008 73.3731C59.2376 73.013 57.8683 72.5854 57.6439 71.6851C57.5765 71.8201 57.4867 71.9552 57.4194 72.0902C58.8111 71.7076 59.956 72.5404 60.9885 73.3506C61.3477 73.6432 61.6844 73.058 61.3477 72.788Z" fill="#2D2D2D"/>
<path d="M41.617 64.8204C42.4924 66.2608 44.2658 66.5084 45.8146 66.7335C48.1043 67.0711 50.3939 67.0711 52.6835 66.8235C53.11 66.7785 53.11 66.1033 52.6835 66.1483C50.8429 66.3509 49.0022 66.3959 47.1615 66.2158C45.6126 66.0583 43.121 65.9682 42.1782 64.4828C41.9761 64.1001 41.3925 64.4378 41.617 64.8204Z" fill="#2D2D2D"/>
<path d="M36.387 62.525C36.6788 60.9495 38.0481 60.1392 39.5745 60.0717C39.4623 59.9817 39.3501 59.9141 39.2603 59.8241C39.3725 60.3643 39.5297 60.882 39.7541 61.3771C39.9113 61.7823 40.5622 61.6022 40.4051 61.1971C40.2031 60.6794 40.0459 60.1842 39.9113 59.6441C39.8888 59.509 39.7317 59.3965 39.597 59.3965C37.8012 59.4865 36.0952 60.4768 35.7585 62.3449C35.6687 62.7726 36.3197 62.9526 36.387 62.525Z" fill="#2D2D2D"/>
<path d="M40.2933 55.5478C39.9566 54.58 39.7096 53.5672 39.6198 52.5319C39.6198 52.4418 39.5974 52.3518 39.5974 52.2618C39.5749 52.0592 39.5974 52.0817 39.6872 52.3293C39.8892 52.4643 40.0912 52.6219 40.2933 52.7794C40.63 53.072 40.9442 53.3871 41.2136 53.7247C41.5054 54.0624 41.9768 53.5672 41.685 53.2521C41.3034 52.802 39.7096 50.9564 39.0362 51.6766C38.6995 52.0367 38.9464 52.8695 39.0138 53.2746C39.126 54.1074 39.3505 54.9401 39.6198 55.7279C39.7994 56.133 40.4504 55.9755 40.2933 55.5478Z" fill="#2D2D2D"/>
<path d="M47.8802 52.3967C48.0822 52.0366 48.2843 51.6765 48.5087 51.3163C48.5985 51.1588 48.6883 51.0238 48.7557 50.8662C48.8904 50.6411 48.8903 50.4386 49.1597 50.5061C49.474 50.5736 49.3617 51.3163 49.3617 51.5864C49.3617 52.0141 49.3842 52.4417 49.3842 52.8693C49.3842 53.297 50.0576 53.297 50.0576 52.8693C50.0576 52.1716 50.0801 51.4739 50.0352 50.7762C50.0127 50.326 49.8556 49.8309 49.3617 49.6733C48.9128 49.5383 48.5985 49.8309 48.3741 50.1685C47.9925 50.7762 47.6557 51.4289 47.2966 52.0366C47.0721 52.4417 47.6557 52.7793 47.8802 52.3967Z" fill="#2D2D2D"/>
<path d="M69.3834 67.1159C69.518 68.8264 71.4261 69.3891 72.7505 68.5563C74.7034 67.3409 75.1299 64.5951 74.883 62.5244C74.5463 59.6885 73.8728 57.0552 74.8381 54.2418C75.7584 51.5634 78.048 49.3802 80.9438 49.2002C81.3703 49.1777 81.3703 48.5025 80.9438 48.525C76.993 48.7725 74.2993 52.1486 73.7382 55.8848C73.4014 58.113 73.8953 60.1837 74.1871 62.3669C74.3667 63.8073 74.2769 65.1802 73.6259 66.5082C73.3341 67.0708 72.93 67.6335 72.3913 67.9936C71.5608 68.5113 70.1241 68.3537 70.0343 67.1384C70.0343 66.6882 69.3609 66.6657 69.3834 67.1159Z" fill="#2D2D2D"/>
<path d="M69.743 68.3311C70.4389 70.1992 72.8632 69.3664 73.9182 68.2861C75.6467 66.5305 75.2651 63.6046 75.1304 61.3764C75.108 60.9488 74.4345 60.9488 74.457 61.3764C74.5468 62.7943 74.6815 64.3248 74.4345 65.7428C74.3223 66.418 74.0754 67.0482 73.6264 67.5884C73.1326 68.196 70.9776 69.7265 70.394 68.151C70.2369 67.7459 69.5859 67.926 69.743 68.3311Z" fill="#2D2D2D"/>
<path d="M80.9669 48.5029C78.4079 49.4932 75.8264 50.8886 74.7938 53.5895C73.6041 56.6954 74.4571 60.0715 74.3898 63.29C74.3898 63.7177 75.0632 63.7177 75.0632 63.29C75.1305 60.4766 74.4571 57.5957 75.1305 54.8049C75.8713 51.7439 78.4078 50.2134 81.1464 49.1556C81.5505 48.998 81.3709 48.3453 80.9669 48.5029Z" fill="#2D2D2D"/>
<path d="M80.4505 48.8856C78.0935 49.9659 75.9386 51.8565 74.8387 54.2648C74.255 55.5252 74.3448 56.9206 74.3448 58.2935C74.3448 60.0491 74.4122 61.8272 74.5468 63.5827C74.5693 64.0103 75.2427 64.0103 75.2203 63.5827C75.1305 62.1648 75.0631 60.7693 75.0407 59.3514C75.0182 57.8659 74.8162 56.1103 75.3774 54.7149C76.3426 52.3517 78.52 50.5286 80.7872 49.4707C81.1913 49.2907 80.8546 48.7055 80.4505 48.8856Z" fill="#2D2D2D"/>
<path d="M41.1893 57.0326C41.8178 58.1354 43.4116 57.7528 43.5687 56.5374C43.5912 56.3124 43.2545 56.3349 43.232 56.5374C43.1198 57.4602 41.9525 57.6403 41.4811 56.875C41.3689 56.6725 41.0771 56.8525 41.1893 57.0326Z" fill="white"/>
<path d="M45.951 56.1555C46.6469 57.3484 48.4202 56.8757 48.4427 55.5028C48.4427 55.2777 48.106 55.2777 48.106 55.5028C48.0835 56.5606 46.7816 56.8982 46.2428 55.9979C46.1306 55.7954 45.8388 55.9529 45.951 56.1555Z" fill="white"/>
<path d="M44.6038 57.6407C44.7609 58.2934 44.6262 58.9461 44.2222 59.4863C44.0875 59.6664 44.3793 59.8239 44.514 59.6664C44.9629 59.0587 45.0976 58.2934 44.9405 57.5507C44.8732 57.3481 44.5364 57.4382 44.6038 57.6407Z" fill="white"/>
<path d="M44.7368 57.618C44.6695 58.4733 45.1409 59.2836 45.9266 59.6437C46.1286 59.7337 46.2857 59.4411 46.1061 59.3511C45.4327 59.036 45.0062 58.3608 45.0735 57.618C45.0735 57.393 44.7368 57.393 44.7368 57.618Z" fill="white"/>
<path d="M39.2609 59.6209C41.2363 59.4633 42.4933 61.0838 43.8177 62.2767C43.9749 62.4118 44.2218 62.1867 44.0646 62.0291C42.6729 60.7687 41.3261 59.1257 39.2609 59.2607C39.0589 59.2833 39.0589 59.6209 39.2609 59.6209Z" fill="white"/>
<path d="M42.9417 63.5826C45.4782 61.9621 48.4862 61.4219 51.4268 62.0746C51.6288 62.1196 51.7186 61.8045 51.5166 61.7595C48.4862 61.1068 45.3885 61.647 42.7846 63.3125C42.5825 63.4025 42.7621 63.6951 42.9417 63.5826Z" fill="white"/>
<path d="M49.3156 66.6655C51.4032 66.8006 53.3785 66.1479 54.9723 64.7749C55.1294 64.6399 54.905 64.3923 54.7254 64.5274C53.199 65.8328 51.3134 66.463 49.3156 66.3279C49.1136 66.3279 49.1136 66.6655 49.3156 66.6655Z" fill="white"/>
<path d="M48.7117 50.6855C48.2178 51.5182 48.1056 52.4861 48.3974 53.4088C48.4648 53.6114 48.779 53.5214 48.7117 53.3188C48.4423 52.4861 48.5321 51.6083 48.9811 50.8655C49.1157 50.663 48.8239 50.4829 48.7117 50.6855Z" fill="white"/>
<path d="M39.8215 52.7788C40.3602 53.1164 40.6969 53.6341 40.8316 54.2418C40.8765 54.4444 41.1908 54.3543 41.1459 54.1518C40.9888 53.4541 40.5847 52.8689 39.9786 52.4862C39.799 52.3737 39.6419 52.6663 39.8215 52.7788Z" fill="white"/>
<path d="M51.6976 56.3801C52.1241 56.8977 52.6179 57.3479 53.1791 57.6855C53.3587 57.798 53.5382 57.5054 53.3587 57.3929C52.8199 57.0553 52.3261 56.6276 51.9445 56.1325C51.7873 55.9749 51.5629 56.2225 51.6976 56.3801Z" fill="white"/>
<path d="M65.548 67.4312C65.0766 66.2383 62.8095 67.0485 62.0687 67.5212C60.7443 68.399 60.1607 70.042 60.6545 71.5499C60.7219 71.7525 61.0361 71.6625 60.9688 71.4599C60.5872 70.267 60.9014 68.9841 61.8442 68.1064C62.2483 67.7237 62.787 67.4537 63.3258 67.3186C63.7074 67.2061 65.0093 66.9585 65.2113 67.4987C65.3011 67.7237 65.6154 67.6337 65.548 67.4312Z" fill="white"/>
<path d="M60.9211 71.5726C59.1702 70.8299 57.3071 70.7624 55.4889 71.325C55.2869 71.3925 55.3766 71.7076 55.5787 71.6401C57.352 71.0774 59.1254 71.1675 60.8314 71.8877C61.0334 71.9777 61.1232 71.6401 60.9211 71.5726Z" fill="white"/>
<path d="M122.584 165.18C121.663 167.386 121.663 169.029 121.529 173.26C121.372 178.482 120.923 183.681 120.878 188.88C120.833 193.269 120.766 199.908 120.586 208.551C127.769 208.956 135.715 209.046 144.335 208.619C152.551 208.214 160.138 207.381 166.985 206.345C163.752 195.384 161.62 187.394 160.093 181.205C159.285 177.896 158.096 172.945 154.818 167.161C153.022 163.987 151.159 161.601 149.79 160.003C149.431 159.688 141.507 153.004 132.348 156.155C131.899 156.335 125.233 158.765 122.584 165.18Z" fill="#EC615B"/>
<path d="M135.804 178.302C137.308 180.98 138.812 183.658 140.293 186.337C140.495 186.719 141.079 186.382 140.877 185.999C139.373 183.321 137.869 180.643 136.387 177.964C136.185 177.582 135.602 177.919 135.804 178.302Z" fill="#C64F4F"/>
<path d="M135.625 178.167C139.082 182.488 141.08 187.417 142.157 192.819C143.167 197.928 143.818 203.104 144.2 208.304C144.222 208.731 144.896 208.731 144.873 208.304C144.469 202.969 143.796 197.635 142.763 192.391C141.686 186.967 139.576 182.015 136.119 177.694C135.849 177.334 135.355 177.829 135.625 178.167Z" fill="#C64F4F"/>
<path opacity="0.19" d="M141.035 155.637C141.821 157.212 142.943 159.53 144.2 162.321C147.859 170.469 151.653 179.067 153.673 189.645C154.504 193.921 155.289 200.111 154.953 207.831C156.838 207.741 158.836 207.583 160.924 207.358C163.011 207.133 165.009 206.863 166.895 206.548C166.311 204.567 165.368 201.416 164.313 197.522C161.372 186.629 160.968 183.23 158.454 176.051C156.591 170.716 154.863 167.093 152.371 163.627C150.126 160.498 148.016 158.54 145.345 157.167C143.684 156.312 142.135 155.884 141.035 155.637Z" fill="#3F3F3F"/>
<path opacity="0.11" d="M135.672 178.414C136.547 181.7 137.311 185.616 137.67 190.028C138.298 197.658 137.49 204.162 136.502 209.024C139.084 208.866 141.643 208.709 144.224 208.551C143.955 203.442 143.371 199.143 142.81 195.88C141.396 187.574 139.914 184.491 138.725 182.51C137.602 180.687 136.48 179.314 135.672 178.414Z" fill="#3F3F3F"/>
<path d="M106.919 126.828C106.178 127.323 105.729 128.268 104.854 130.136C104.135 131.667 103.799 132.86 103.26 134.638C101.778 139.679 101.936 138.824 101.419 140.737C100.746 143.28 99.5337 147.737 98.8603 153.611C98.2093 159.306 98.344 163.694 98.3665 164.752C98.6134 171.437 99.7807 176.411 100.566 179.607C101.958 185.346 103.821 190.118 107.525 199.638C108.333 201.686 109.007 203.374 109.478 204.545C109.141 204.59 108.602 204.657 107.952 204.747C104.562 205.153 104.091 205.063 102.721 205.355C100.97 205.738 99.399 206.12 98.793 207.448C98.5236 208.056 98.4114 208.911 98.7481 209.204C99.1746 209.564 100.005 208.754 101.442 208.281C102.654 207.898 103.731 207.921 104.472 208.033C103.889 209.181 103.552 210.217 103.35 210.959C102.856 212.67 102.474 214.065 103.103 215.056C103.417 215.551 104.023 216.001 104.517 215.866C104.786 215.798 105.033 215.551 105.707 213.773C106.358 211.995 106.403 211.432 106.941 210.734C107.413 210.149 107.952 209.834 108.311 209.654C108.131 210.217 107.929 211.049 107.839 212.062C107.794 212.67 107.727 213.233 107.839 213.953C107.929 214.606 108.131 216.001 109.164 216.766C109.343 216.901 110.084 217.464 110.533 217.171C110.915 216.946 110.802 216.316 110.959 214.29C111.094 212.58 111.229 212.107 111.341 211.837C111.633 211.049 112.082 210.487 112.419 210.149C112.306 211.77 112.329 213.12 112.374 214.11C112.463 215.708 112.621 216.429 113.137 216.879C113.429 217.126 113.923 217.374 114.327 217.194C114.731 217.014 114.865 216.451 114.978 215.753C115.471 213.12 115.18 212.355 115.741 211.027C115.965 210.509 116.212 209.879 116.818 209.429C118.098 208.484 119.916 209.046 120.163 209.114C121.24 209.451 121.644 210.037 122.183 209.789C122.632 209.586 122.879 208.934 122.901 208.394C122.924 207.066 121.465 206.053 120.208 205.22C119.579 204.792 118.636 204.23 117.379 203.78C116.28 201.596 114.888 198.423 113.743 194.394C112.98 191.693 112.621 189.623 112.284 187.665C111.094 180.8 111.521 178.167 110.196 171.347C109.882 169.704 109.568 168.398 109.388 167.656C109.478 166.53 109.635 164.775 109.86 162.637C110.6 155.659 111.094 151.293 112.598 146.161C113.788 142.133 115 138.824 115 138.824C116.526 134.705 117.02 134.143 116.841 132.815C116.212 128.628 109.68 124.982 106.919 126.828Z" fill="white"/>
<path d="M105.19 128.966C101.194 138.216 98.6804 148.097 98.1416 158.18C97.5805 168.466 99.3538 178.526 102.676 188.249C104.562 193.809 106.851 199.21 109.186 204.612C109.365 205.017 109.927 204.657 109.769 204.275C105.729 194.912 101.778 185.414 99.8925 175.375C98.0294 165.472 98.411 155.232 100.566 145.396C101.778 139.882 103.529 134.502 105.774 129.326C105.931 128.921 105.37 128.561 105.19 128.966Z" fill="#161616"/>
<path d="M113.565 141.817C110.736 150.392 109.255 159.373 109.098 168.398C109.098 168.826 109.771 168.826 109.771 168.398C109.928 159.418 111.41 150.527 114.216 141.997C114.35 141.592 113.699 141.412 113.565 141.817Z" fill="#161616"/>
<path d="M106.739 164.302C108.737 167.093 109.545 170.424 110.017 173.755C110.511 177.153 110.735 180.597 111.229 183.995C112.217 190.905 113.833 197.792 117.088 203.982C117.29 204.364 117.873 204.027 117.671 203.644C114.282 197.207 112.688 190.027 111.745 182.87C110.915 176.591 111.161 169.321 107.323 163.964C107.076 163.626 106.492 163.964 106.739 164.302Z" fill="#161616"/>
<path d="M109.095 204.297C107.008 204.41 104.92 204.613 102.877 204.995C101.418 205.288 99.8695 205.76 98.8594 206.931C98.2758 207.628 97.535 209.294 98.8145 209.767C99.3757 209.969 99.8695 209.587 100.341 209.317C101.508 208.641 102.72 207.944 104.112 208.326C104.539 208.439 104.718 207.786 104.292 207.674C103.147 207.358 102.114 207.628 101.082 208.146C100.767 208.304 100.476 208.461 100.184 208.641C100.004 208.731 99.8471 208.844 99.6675 208.956C99.4655 208.596 99.241 208.236 99.039 207.876C99.0839 207.313 100.206 206.661 100.61 206.436C101.71 205.85 102.99 205.648 104.202 205.468C105.841 205.22 107.479 205.063 109.118 204.973C109.544 204.95 109.544 204.275 109.095 204.297Z" fill="#161616"/>
<path d="M107.254 206.3C105.48 206.592 104.021 207.808 103.348 209.451C102.63 211.161 102.024 213.705 102.854 215.46C103.483 216.788 105.032 217.261 105.615 215.64C105.974 214.627 105.907 213.525 106.266 212.512C106.715 211.251 107.478 210.171 108.601 209.428C108.96 209.181 108.623 208.596 108.264 208.843C107.209 209.541 106.423 210.486 105.907 211.634C105.638 212.219 105.436 212.827 105.301 213.457C105.189 213.975 105.121 216.586 103.887 215.82C103.191 215.393 103.124 214.02 103.146 213.322C103.191 212.287 103.46 211.094 103.797 210.104C104.358 208.438 105.683 207.245 107.411 206.953C107.86 206.885 107.68 206.232 107.254 206.3Z" fill="#161616"/>
<path d="M109.367 207.966C107.975 208.866 107.481 210.824 107.346 212.4C107.212 214.088 107.683 215.911 108.94 217.104C109.681 217.802 110.826 218.162 111.028 216.856C111.365 214.673 110.489 211.59 112.868 210.284C113.25 210.082 112.913 209.497 112.532 209.699C111.679 210.172 111.14 210.937 110.803 211.86C110.332 213.21 110.601 214.583 110.399 215.979C110.309 216.609 110.13 217.284 109.434 216.631C109.187 216.406 108.963 216.114 108.783 215.821C108.357 215.146 108.11 214.381 108.042 213.593C107.885 212.017 108.289 209.497 109.726 208.551C110.063 208.304 109.726 207.718 109.367 207.966Z" fill="#161616"/>
<path d="M112.554 209.766C112.128 211.387 111.724 213.075 111.993 214.763C112.105 215.573 112.577 217.554 113.609 217.756C114.777 217.981 115.248 215.911 115.36 215.145C115.607 213.48 115.293 211.477 116.595 210.194C116.909 209.879 116.438 209.406 116.124 209.721C114.552 211.274 115.091 213.525 114.62 215.505C114.462 216.226 114.013 217.306 113.273 216.473C112.869 216.046 112.756 215.213 112.667 214.65C112.442 213.075 112.824 211.499 113.228 209.969C113.318 209.541 112.667 209.361 112.554 209.766Z" fill="#161616"/>
<path d="M117.401 204.364C118.726 204.905 120.095 205.49 121.127 206.525C121.599 206.998 122.183 207.718 122.317 208.393C122.654 210.261 121.262 209.068 120.746 208.843C119.332 208.213 116.526 208.663 115.718 210.104C115.516 210.486 116.099 210.824 116.301 210.441C116.728 209.654 117.895 209.451 118.703 209.338C119.197 209.271 119.758 209.226 120.23 209.361C120.768 209.519 121.105 209.991 121.621 210.149C122.362 210.374 122.923 209.856 123.036 209.136C123.238 207.966 122.227 206.66 121.442 205.895C120.342 204.837 118.928 204.252 117.536 203.689C117.177 203.554 117.02 204.207 117.401 204.364Z" fill="#161616"/>
<path opacity="0.13" d="M112.867 134.548C110.286 134.705 108.737 141.322 107.884 144.991C106.919 149.11 106.043 154.782 106.223 163.042C106.38 170.424 107.323 176.051 107.637 178.009C109.051 186.427 111.273 193.494 113.451 199.031C114.169 201.056 114.865 203.082 115.583 205.085C115.179 206.751 114.775 208.461 114.394 210.239C113.9 212.58 113.451 214.876 113.092 217.081C113.518 217.126 114.102 217.104 114.506 216.699C115.022 216.181 114.955 215.348 114.977 214.628C115 213.953 115.067 210.689 116.526 209.474C117.424 208.731 118.861 208.731 119.848 209.091C120.858 209.474 121.307 210.217 121.981 209.992C122.497 209.834 122.856 209.204 122.924 208.709C123.148 207.066 120.005 205.378 119.489 205.108C118.479 204.567 118.008 204.5 117.357 203.825C116.549 202.969 116.279 201.957 116.167 201.506C114.304 194.394 113.384 194.844 112.126 186.674C111.184 180.507 111.79 180.867 110.824 175.961C110.151 172.495 109.59 171.077 109.41 168.083C109.208 164.797 109.59 162.232 109.994 159.958C111.677 150.663 114.91 139.409 115.696 136.731C114.977 135.606 113.99 134.48 112.867 134.548Z" fill="#3F3F3F"/>
<path d="M158.682 42.0216C157.986 41.9991 157.448 43.2595 157.313 43.5971C157.111 44.0922 156.797 45.06 157.021 46.433C157.021 46.433 157.156 47.3783 157.605 53.0951C157.717 54.378 157.739 56.2461 157.403 58.5868C156.505 61.0626 155.652 62.9982 155.068 64.2586C153.093 68.4899 151.768 70.178 149.007 75.5347C147.975 77.5378 147.885 77.8529 146.673 80.3287C143.643 86.4731 141.42 90.3218 139.153 94.4407C137.155 98.0418 134.349 103.331 131.05 110.128C130.892 110.713 130.107 113.842 131.925 116.588C133.855 119.491 137.896 120.796 141.802 119.536C142.408 118.681 143.261 117.353 144.047 115.62C144.81 113.932 145.169 112.626 145.416 111.794C145.663 110.961 146.65 108.147 148.648 102.476C149.277 100.72 150.04 98.627 151.589 94.5307C153.946 88.2512 155.113 85.1227 155.899 83.1646C157.672 78.7082 159.019 75.6247 161.668 69.6378C163.06 66.4868 164.766 62.6831 166.741 58.3617C167.886 57.709 169.457 56.6962 171.141 55.2332C173.565 53.1401 174.777 51.362 177.112 47.986C178.616 45.7803 179.76 43.8446 179.446 41.909C179.401 41.6389 179.289 40.8512 178.862 40.7387C178.324 40.5811 177.65 41.6615 176.91 42.6068C176.146 43.5746 175.002 44.835 173.296 46.1404C173.879 44.5199 174.463 43.2595 174.867 42.4267C175.787 40.5361 176.55 39.3207 177.022 37.2276C177.538 34.9993 177.067 34.5942 176.932 34.4817C176.326 34.0315 175.293 34.8868 174.687 34.3917C174.149 33.919 174.62 32.8837 174.193 32.6361C173.767 32.3885 172.824 33.1313 172.151 33.919C170.983 35.2694 170.714 36.5748 170.288 37.8352C169.884 39.0731 169.143 40.7612 167.751 42.6293C167.414 42.6743 166.965 42.6968 166.763 42.4267C166.539 42.1116 166.853 41.5939 167.145 40.7612C167.212 40.5586 167.167 40.6711 167.639 38.6005C167.818 37.8127 168.155 36.3498 168.424 35.1794C168.806 33.4914 168.986 32.7937 168.626 32.0509C168.559 31.8934 168.267 31.2857 167.841 31.2632C167.347 31.2407 166.965 32.0284 166.674 32.6361C165.484 35.0894 164.878 36.3273 164.721 36.7549C163.935 38.8931 162.88 42.1566 162.723 43.282C162.7 43.417 162.655 43.8897 162.431 44.4974C162.319 44.7899 162.251 44.9025 162.184 45.0825C161.623 46.3429 162.094 47.1757 161.511 47.6258C161.443 47.6709 161.107 47.9184 160.837 47.8284C160.545 47.7384 160.411 47.3558 160.254 46.0729C160.029 44.3173 160.164 43.7996 159.76 43.0344C159.49 42.6968 159.154 42.0441 158.682 42.0216Z" fill="white"/>
<path d="M157.602 52.4417C157.759 50.7986 157.512 49.2006 157.422 47.5576C157.378 46.7699 157.378 45.9596 157.49 45.1719C157.557 44.7217 157.647 44.2716 157.782 43.8439C158.006 43.1912 158.029 42.6511 158.747 42.6286C159.42 42.606 159.375 43.0112 159.488 43.5739C159.6 44.069 159.622 44.5867 159.645 45.0818C159.69 45.7795 159.712 46.4998 159.869 47.175C160.026 47.8727 160.453 48.4579 161.238 48.2103C161.643 48.0753 161.485 47.4226 161.059 47.5576C160.273 47.7827 160.341 45.1268 160.296 44.6767C160.228 43.9565 160.161 43.2137 159.892 42.5385C159.51 41.5932 158.635 41.1206 157.894 41.9984C156.929 43.1237 156.727 45.1493 156.727 46.5448C156.727 48.5254 157.108 50.461 156.929 52.4417C156.906 52.8693 157.58 52.8693 157.602 52.4417Z" fill="#161616"/>
<path d="M161.508 47.9405C162.631 45.7573 162.967 43.2815 163.618 40.9408C164.314 38.42 165.19 35.9442 166.492 33.6935C166.783 33.1983 167.075 32.5006 167.502 32.118C168.332 31.3527 168.332 32.8157 168.265 33.4459C168.13 34.8414 167.771 36.2593 167.457 37.6322C167.165 38.8926 166.761 40.108 166.469 41.3684C166.312 42.0661 166.312 42.6738 166.806 43.214C167.098 43.5291 167.569 43.0564 167.277 42.7413C166.716 42.1337 167.3 40.9183 167.479 40.2656C167.681 39.5228 167.883 38.7801 168.041 38.0374C168.355 36.6644 168.669 35.269 168.871 33.851C168.983 33.1083 169.14 31.8029 168.489 31.2402C167.928 30.7676 167.367 31.2177 166.986 31.6678C165.347 33.716 164.337 36.4169 163.529 38.8926C162.608 41.751 162.316 44.9471 160.925 47.6254C160.723 47.9855 161.306 48.3231 161.508 47.9405Z" fill="#161616"/>
<path d="M166.962 43.2812C167.635 43.3487 167.882 42.8535 168.196 42.3134C168.69 41.4581 169.139 40.5578 169.566 39.68C170.396 37.9695 170.98 36.1014 171.99 34.5034C172.214 34.1433 172.484 33.6932 172.843 33.4231C173.135 33.0855 173.516 32.9729 174.01 33.1305C174.077 33.4456 174.122 33.7607 174.122 34.0758C174.145 35.1786 173.786 36.2815 173.404 37.3168C172.641 39.3649 171.788 41.3906 170.957 43.4387C170.8 43.8439 171.451 44.0239 171.608 43.6188C172.08 42.4484 176.928 32.1852 173.763 32.1177C173.135 32.0952 172.416 32.8829 172.057 33.3105C171.429 34.0533 170.98 34.9085 170.576 35.7863C170.104 36.8442 169.678 37.902 169.184 38.9373C168.892 39.5675 168.555 40.2202 168.241 40.8279C168.039 41.233 167.545 42.6285 166.984 42.5835C166.535 42.561 166.535 43.2362 166.962 43.2812Z" fill="#161616"/>
<path d="M174.907 34.9993C175.154 33.6939 176.569 34.5942 176.748 35.4269C176.905 36.1247 176.636 36.8224 176.411 37.4751C176.075 38.4654 175.693 39.4332 175.289 40.3785C174.503 42.2241 173.583 43.9796 172.55 45.7127C172.326 46.0953 172.91 46.4329 173.134 46.0503C174.099 44.4523 174.952 42.7868 175.716 41.0987C176.367 39.6358 177.152 38.0153 177.399 36.4172C177.556 35.4044 177.264 34.099 176.142 33.7389C175.312 33.4688 174.414 33.9865 174.256 34.8417C174.189 35.2469 174.84 35.4269 174.907 34.9993Z" fill="#161616"/>
<path d="M173.608 46.3203C174.461 45.3525 175.292 44.3847 176.145 43.4169C176.594 42.8992 176.998 42.3365 177.492 41.8864C177.649 41.7513 177.806 41.6388 177.941 41.5038C178.322 41.6388 178.704 41.7738 179.108 41.9089C179.22 42.1114 178.951 42.6966 178.883 42.8767C178.188 45.0149 177.177 47.0405 175.988 48.9311C173.586 52.7348 170.286 55.9308 166.425 58.2491C166.044 58.4741 166.403 59.0593 166.762 58.8342C171.566 55.9533 175.516 51.722 178.008 46.7029C178.614 45.4875 179.198 44.2046 179.579 42.8992C179.804 42.134 179.939 41.0986 179.063 40.6935C178.21 40.2884 177.312 41.0761 176.773 41.6388C175.494 42.9667 174.327 44.4522 173.115 45.8476C172.845 46.1627 173.317 46.6354 173.608 46.3203Z" fill="#161616"/>
<path d="M157.019 51.7446C157.176 53.8152 157.333 55.9309 156.997 58.0015C156.66 60.0497 155.807 61.9403 154.864 63.7859C152.956 67.5221 150.958 71.2132 149.005 74.9269C145.1 82.3542 141.194 89.7591 137.288 97.1864C135.043 101.44 132.798 105.717 130.554 109.97C130.352 110.353 130.935 110.691 131.137 110.308C139.196 94.9807 147.412 79.7209 155.336 64.3035C156.278 62.4805 157.154 60.6124 157.535 58.6092C157.984 56.336 157.827 54.0403 157.648 51.7446C157.67 51.3169 156.997 51.3169 157.019 51.7446Z" fill="#161616"/>
<path d="M166.379 58.0912C159.196 73.306 152.933 88.8809 147.411 104.771C145.794 109.385 144.178 113.999 142.225 118.478C142.046 118.883 142.629 119.221 142.809 118.815C146.154 111.185 148.6 103.195 151.474 95.408C154.414 87.3954 157.602 79.4504 160.991 71.6179C162.922 67.184 164.897 62.7952 166.962 58.4288C167.142 58.0461 166.558 57.7085 166.379 58.0912Z" fill="#161616"/>
<path opacity="0.1" d="M176.527 34.7291C175.607 34.5941 174.372 38.3753 173.654 40.2659C171.476 46.0727 169.636 46.7479 164.967 54.6254C163.238 57.5288 160.859 61.8952 158.457 67.5895C151.274 82.7593 144.113 97.9516 136.93 113.121C138.681 115.26 140.409 117.42 142.16 119.558C143.035 117.06 144.315 113.392 145.909 108.958C148.804 100.968 152.553 90.6818 157.851 78.1679C159.961 73.2163 162.879 66.5317 166.628 58.6767C167.66 58.024 169.097 57.0112 170.668 55.6157C172.778 53.7701 175.562 51.2718 177.47 47.1981C178.076 45.9377 178.839 44.002 179.243 41.4587C178.951 41.3237 178.525 41.1661 178.053 41.2562C177.245 41.4137 176.819 42.2015 176.482 42.7416C175.18 44.7448 173.272 46.0727 173.025 45.9151C172.89 45.8026 173.272 45.1499 174.305 43.0342C176.415 38.6904 175.539 39.8382 176.37 38.3753C176.841 37.5425 177.313 36.8223 177.155 35.8995C177.155 35.4944 176.909 34.7966 176.527 34.7291Z" fill="#3F3F3F"/>
<path opacity="0.13" d="M175.157 50.0791C174.035 50.7993 172.441 51.8572 170.623 53.2526C168.535 54.8281 166.29 56.5386 164.405 58.6993C161.846 61.6253 160.723 64.5287 160.05 66.2167C153.877 82.0167 146.537 99.1671 144.449 103.939C143.304 106.549 141.508 110.488 139.129 115.215C140.206 116.633 141.306 118.051 142.384 119.469C145.482 109.993 149.051 100.067 153.136 89.7817C157.536 78.7307 162.093 68.3999 166.672 58.7894C167.906 57.9566 169.298 56.8988 170.712 55.5258C172.71 53.6127 174.147 51.6771 175.157 50.0791Z" fill="#3F3F3F"/>
<path d="M115.466 115.238C114.636 115.8 112.773 117.106 110.865 119.221C108.889 121.405 107.745 123.453 106.802 125.186C106.061 126.514 105.522 127.684 105.141 128.539C105.724 129.665 106.667 131.398 107.969 133.468C110.281 137.137 112.077 139.118 115.175 143.101C116.477 144.767 118.362 147.265 120.607 150.416C120.966 152.104 121.28 153.882 121.55 155.75C122.088 159.577 122.29 163.133 122.29 166.329C123.121 167.229 124.558 168.534 126.668 169.457C130.169 171.01 133.357 170.56 135.018 170.29C138.699 169.727 141.214 168.084 142.942 166.936C146.085 164.866 148.217 162.39 149.631 160.342C149.34 156.831 148.958 153.207 148.487 149.448C148.082 146.252 147.634 143.146 147.14 140.13C147.095 137.767 146.87 134.549 146.107 130.813C145.479 127.684 144.715 124.038 142.448 119.717C139.62 114.337 136.096 111.074 134.726 109.881C133.514 108.823 132.414 108.035 131.606 107.473C128.329 109.566 125.5 110.871 123.57 111.659C119.978 113.144 118.295 113.37 115.466 115.238Z" fill="white"/>
<path d="M105.501 128.629C106.197 125.973 108.127 123.498 109.788 121.337C111.539 119.086 113.515 117.038 115.872 115.395C116.231 115.147 115.894 114.562 115.535 114.81C113.111 116.498 111.068 118.591 109.272 120.909C107.544 123.137 105.591 125.658 104.872 128.427C104.76 128.877 105.411 129.034 105.501 128.629Z" fill="#161616"/>
<path d="M105.008 128.854C109.632 136.956 115.109 144.564 121.327 151.518C121.619 151.833 122.09 151.361 121.798 151.046C115.625 144.136 110.193 136.574 105.591 128.516C105.367 128.133 104.783 128.471 105.008 128.854Z" fill="#161616"/>
<path d="M123.998 111.974C126.512 110.196 129.273 108.868 132.214 108.012C132.64 107.9 132.461 107.247 132.034 107.36C129.026 108.237 126.22 109.588 123.661 111.388C123.302 111.636 123.639 112.221 123.998 111.974Z" fill="#161616"/>
<path d="M131.651 108.193C142.381 115.688 146.983 128.832 146.466 141.548C146.444 141.976 147.117 141.976 147.14 141.548C147.679 128.562 142.92 115.238 131.988 107.608C131.651 107.36 131.314 107.945 131.651 108.193Z" fill="#161616"/>
<path d="M119.867 150.191C121.034 152.599 121.169 155.593 121.416 158.203C121.685 160.859 121.775 163.538 121.775 166.216C121.775 166.644 122.448 166.644 122.448 166.216C122.471 163.245 122.336 160.274 121.999 157.326C121.73 154.827 121.551 152.126 120.451 149.831C120.249 149.448 119.687 149.786 119.867 150.191Z" fill="#161616"/>
<path d="M122.202 166.351C125.569 170.493 131.315 171.663 136.321 170.38C139.105 169.66 141.686 168.287 143.998 166.576C146.31 164.866 148.51 162.885 149.812 160.274C150.014 159.892 149.43 159.554 149.228 159.937C147.971 162.435 145.861 164.348 143.639 165.991C141.484 167.589 139.082 168.895 136.478 169.637C131.585 171.01 125.95 169.953 122.651 165.879C122.404 165.541 121.932 166.014 122.202 166.351Z" fill="#161616"/>
<path d="M146.716 140.535C147.816 147.13 148.893 153.724 149.275 160.386C149.297 160.814 149.971 160.814 149.948 160.386C149.544 153.657 148.467 146.994 147.367 140.355C147.299 139.927 146.648 140.107 146.716 140.535Z" fill="#161616"/>
<path opacity="0.13" d="M124.852 111.074C127.343 114.022 130.755 118.613 133.606 124.825C137.781 133.918 138.612 141.773 139.24 148.458C139.734 153.544 140.004 160.634 139.016 169.097C140.924 168.264 143.618 166.824 146.221 164.325C147.658 162.93 148.736 161.534 149.544 160.319C148.803 154.04 148.062 147.738 147.321 141.458C147.456 136.281 146.648 132.095 145.885 129.259C143.528 120.481 138.993 114.832 137.467 113.054C135.379 110.601 133.337 108.8 131.833 107.607C129.498 108.778 127.186 109.926 124.852 111.074Z" fill="#3F3F3F"/>
<path opacity="0.14" d="M141.573 118.951C141.169 119.064 142.112 122.732 143.009 128.157C143.009 128.157 144.379 136.394 144.671 144.362C144.873 149.628 144.603 157.326 142.246 166.891C143.324 166.351 144.648 165.563 146.017 164.46C147.679 163.11 148.868 161.692 149.676 160.567C149.385 151.496 148.621 146.792 147.903 144.137C147.768 143.619 147.409 142.404 147.117 140.693C146.579 137.497 146.848 136.124 146.556 133.468C146.332 131.353 145.905 129.957 145.12 127.369C143.93 123.475 142.022 118.816 141.573 118.951Z" fill="#3F3F3F"/>
<path d="M115.156 78.213C113.675 79.0458 111.789 80.3062 109.971 82.2193C106.2 86.248 104.988 90.7495 104.561 92.9777C104.224 92.9327 103.304 92.8651 102.563 93.4503C101.463 94.3056 101.441 95.9936 101.867 96.9839C102.025 97.3441 102.249 97.6366 102.72 98.2218C103.282 98.9195 103.641 99.3472 104.224 99.5948C104.471 99.7073 105.032 99.8648 105.841 99.6848C106.087 100.428 106.492 101.463 107.098 102.656C107.883 104.186 109.073 106.459 111.452 108.44C112.148 109.025 113.226 109.79 114.685 110.488C115.224 111.186 116.211 112.649 116.324 114.63C116.548 118.118 114.011 121.022 111.61 122.304C107.434 124.533 102.9 122.304 101.239 121.472C100.341 121.022 95.829 118.681 93.9435 113.549C91.6538 107.36 94.6393 101.17 96.4127 97.4791C98.2085 93.7654 99.039 94.013 100.408 90.3894C102.227 85.5953 101.261 83.9073 103.349 80.2386C104.157 78.7982 105.796 75.9173 109.23 74.5668C112.171 73.419 114.887 74.0042 116.054 74.3418C117.019 73.7566 118.725 72.9238 120.88 72.9238C125.998 72.9238 129.276 77.7854 130.061 78.9557C132.396 82.3993 131.161 83.4572 133.249 88.2962C135.875 94.3956 138.434 94.0355 140.791 99.7523C141.936 102.543 143.844 107.157 141.734 111.569C139.557 116.115 134.596 117.443 133.967 117.6C132.822 117.893 129.747 118.658 126.672 117.015C126.38 116.858 122.519 114.742 122.205 111.118C122.092 109.79 122.474 108.553 122.564 108.283C123.035 106.82 123.843 105.874 124.09 105.559C125.056 104.366 126.223 102.161 127.031 97.7717C127.413 97.7492 128.041 97.6591 128.67 97.299C129.994 96.5338 130.622 94.9808 130.555 93.6304C130.533 93.3153 130.443 91.5147 129.141 90.907C128.602 90.6594 128.041 90.727 127.727 90.7945C123.552 86.5631 119.354 82.3993 115.156 78.213Z" fill="#2F80ED"/>
<path d="M115.155 78.1904C112.663 79.6534 110.935 81.2739 109.835 82.4668C106.176 86.4505 105.009 90.6144 104.762 91.5822C104.605 92.1899 104.493 92.685 104.448 93.0451C104.201 92.9551 103.64 92.7975 103.078 93.0451C102.225 93.4277 102.046 94.4631 101.956 94.9807C101.732 96.1736 102.18 97.1189 102.36 97.479C102.607 97.9967 103.011 98.8295 103.976 99.2571C104.762 99.6172 105.503 99.4822 105.817 99.4146C106.131 100.225 106.58 101.35 107.276 102.633C108.331 104.659 109.319 106.527 111.227 108.192C111.968 108.845 113.18 109.745 114.931 110.443C115.29 111.006 115.784 111.884 116.053 113.031C116.277 113.932 116.322 114.697 116.3 115.282C116.884 115.575 117.983 116.025 119.353 116.002C121.979 115.957 123.708 114.314 124.112 113.909C123.685 112.626 123.303 111.051 123.146 109.228C123.079 108.395 123.057 107.607 123.057 106.887C123.752 106.144 124.605 105.086 125.301 103.668C126.536 101.215 126.738 98.942 126.76 97.6141C127.075 97.6591 127.703 97.7266 128.377 97.4565C129.319 97.0739 129.746 96.2411 129.993 95.7685C130.06 95.6559 131.003 93.7203 130.15 91.8072C129.948 91.3796 129.611 90.5919 128.938 90.5243C128.444 90.4793 128.04 90.8619 127.883 91.0195C126.962 89.9166 125.234 87.8685 122.81 85.0551C120.722 82.6018 119.398 81.0713 117.175 79.4958C116.367 78.9107 115.649 78.483 115.155 78.1904Z" fill="white"/>
<path d="M112.058 102.07C111.834 102.588 112.889 103.511 113.383 103.894C114.415 104.659 115.515 104.771 115.919 104.794C116.391 104.839 117.939 104.951 119.354 103.939C119.69 103.691 120.633 103.038 120.992 101.823C121.239 100.945 121.172 99.7297 120.7 99.5271C120.341 99.3921 120.005 99.8422 119.241 100.382C117.895 101.305 116.503 101.53 115.313 101.71C113.293 102.025 112.283 101.62 112.058 102.07Z" fill="#2D2D2D"/>
<path d="M104.943 96.8713C105.751 100.247 107.053 103.556 109.208 106.302C111.116 108.755 113.944 111.118 117.244 110.803C120.297 110.511 122.788 108.125 124.405 105.694C126.313 102.858 127.233 99.4596 127.143 96.0385C127.121 95.6109 126.447 95.6109 126.47 96.0385C126.56 99.167 125.751 102.228 124.113 104.884C122.564 107.382 120.005 110.015 116.885 110.15C113.585 110.286 110.869 107.585 109.118 105.064C107.367 102.543 106.289 99.6396 105.571 96.6687C105.481 96.2636 104.83 96.4436 104.943 96.8713Z" fill="#161616"/>
<path d="M114.48 110.488C115.423 111.929 115.894 113.504 115.894 115.237C115.894 115.665 116.568 115.665 116.568 115.237C116.568 113.414 116.051 111.681 115.064 110.151C114.839 109.768 114.256 110.106 114.48 110.488Z" fill="#161616"/>
<path d="M116.211 115.507C118.949 117.083 122.496 116.318 124.359 113.797C124.629 113.459 124.045 113.122 123.776 113.459C122.115 115.687 118.927 116.318 116.548 114.922C116.166 114.72 115.829 115.305 116.211 115.507Z" fill="#161616"/>
<path d="M122.676 107.472C122.698 109.521 123.012 111.546 123.663 113.504C123.798 113.909 124.449 113.729 124.314 113.324C123.708 111.411 123.372 109.476 123.349 107.472C123.349 107.022 122.676 107.022 122.676 107.472Z" fill="#161616"/>
<path d="M105.615 99.0095C105.323 99.3246 104.605 99.2121 104.268 99.032C103.999 98.897 103.752 98.6944 103.55 98.4919C103.101 98.0642 102.742 97.5466 102.518 96.9839C102.069 95.926 101.867 92.8876 103.864 93.4278C104.291 93.5403 104.47 92.8876 104.044 92.775C101.575 92.1223 101.193 95.4084 101.822 97.0514C102.316 98.3793 104.583 101.125 106.109 99.4822C106.378 99.1671 105.907 98.6944 105.615 99.0095Z" fill="#161616"/>
<path d="M128.173 91.1317C128.442 90.2314 129.609 91.9645 129.744 92.2796C130.013 92.9998 130.103 93.7876 129.991 94.5528C129.811 96.0833 128.599 97.5462 126.916 97.1186C126.489 97.0061 126.31 97.6588 126.736 97.7713C129.452 98.469 130.911 95.6331 130.664 93.3149C130.552 92.3021 130.148 90.9967 129.183 90.4565C128.554 90.1189 127.746 90.2089 127.522 90.9291C127.387 91.3793 128.038 91.5368 128.173 91.1317Z" fill="#161616"/>
<path d="M108.016 86.3601C108.757 84.9422 110.059 84.0194 111.63 83.7943C112.057 83.7268 111.877 83.0741 111.451 83.1416C109.722 83.3892 108.241 84.4695 107.433 86.0225C107.23 86.4052 107.814 86.7428 108.016 86.3601Z" fill="#161616"/>
<path d="M118.388 82.8943C120.274 82.4442 122.159 83.3895 123.012 85.1001C123.214 85.4827 123.776 85.1451 123.596 84.7624C122.608 82.7593 120.364 81.724 118.209 82.2416C117.782 82.3542 117.962 83.0069 118.388 82.8943Z" fill="#161616"/>
<path d="M113.493 85.663C113.92 88.0487 114.032 90.502 113.785 92.9328C113.695 93.6755 113.336 94.7333 113.673 95.4761C114.032 96.2863 114.997 96.984 115.603 97.6142C115.895 97.9293 116.389 97.4567 116.075 97.1416C115.671 96.714 115.267 96.3088 114.862 95.8812C114.234 95.2285 114.167 95.0259 114.301 94.0806C114.414 93.2254 114.526 92.3476 114.571 91.4698C114.66 89.4667 114.503 87.4635 114.144 85.5054C114.077 85.0553 113.426 85.2353 113.493 85.663Z" fill="#161616"/>
<path d="M110.665 91.4472C110.328 90.9071 110.171 90.3219 110.216 89.6917C110.216 89.5566 110.306 88.9714 110.418 88.9489C110.486 88.9489 110.598 89.7367 110.62 89.8267C110.665 90.1193 110.688 90.4344 110.688 90.727C110.688 90.817 110.665 91.5598 110.665 91.1096C110.643 90.4569 110.688 89.8042 110.71 89.1515C110.486 89.174 110.261 89.219 110.059 89.2415C110.171 89.9392 110.239 90.637 110.239 91.3572C110.463 91.3572 110.688 91.3572 110.912 91.3572C110.912 91.2672 110.912 91.1771 110.912 91.0871C110.912 90.6595 110.239 90.6595 110.239 91.0871C110.239 91.1771 110.239 91.2672 110.239 91.3572C110.239 91.7848 110.912 91.7848 110.912 91.3572C110.912 90.592 110.845 89.8267 110.71 89.0615C110.643 88.6789 110.059 88.7914 110.059 89.1515C110.037 89.8717 109.947 90.6595 110.037 91.3797C110.082 91.7173 110.239 92.0324 110.62 92.0999C111.743 92.325 111.406 90.1193 111.316 89.5791C111.249 89.1515 111.181 88.4988 110.777 88.2512C110.441 88.0487 110.082 88.2512 109.88 88.5663C109.318 89.5116 109.633 90.9071 110.149 91.7623C110.306 92.1449 110.89 91.8073 110.665 91.4472Z" fill="#161616"/>
<path d="M121.036 90.2539C120.7 89.7137 120.542 89.1285 120.587 88.4983C120.587 88.3633 120.677 87.7781 120.789 87.7556C120.857 87.7556 120.969 88.5433 120.991 88.6334C121.036 88.926 121.059 89.2411 121.059 89.5336C121.059 89.6237 121.036 90.3664 121.036 89.9163C121.014 89.2636 121.059 88.6109 121.081 87.9581C120.857 87.9807 120.632 88.0257 120.43 88.0482C120.542 88.7459 120.61 89.4436 120.61 90.1638C120.834 90.1638 121.059 90.1638 121.283 90.1638C121.283 90.0738 121.283 89.9838 121.283 89.8938C121.283 89.4661 120.61 89.4661 120.61 89.8938C120.61 89.9838 120.61 90.0738 120.61 90.1638C120.61 90.5915 121.283 90.5915 121.283 90.1638C121.283 89.3986 121.216 88.6334 121.081 87.8681C121.014 87.4855 120.43 87.598 120.43 87.9581C120.408 88.6784 120.318 89.4661 120.408 90.1864C120.453 90.524 120.61 90.8391 120.991 90.9066C122.114 91.1317 121.777 88.926 121.687 88.3858C121.62 87.9581 121.553 87.3054 121.149 87.0579C120.812 86.8553 120.453 87.0579 120.251 87.373C119.689 88.3183 120.004 89.7137 120.52 90.569C120.677 90.9741 121.261 90.6365 121.036 90.2539Z" fill="#161616"/>
<path d="M107.343 93.518C107.77 93.518 107.77 92.8428 107.343 92.8428C106.917 92.8428 106.917 93.518 107.343 93.518Z" fill="#161616"/>
<path d="M109.993 94.0131C110.015 94.0131 110.038 94.0131 110.083 94.0131C110.262 94.0131 110.419 93.8556 110.419 93.6755C110.419 93.4954 110.262 93.3379 110.083 93.3379C110.06 93.3379 110.038 93.3379 109.993 93.3379C109.813 93.3379 109.656 93.4954 109.656 93.6755C109.656 93.8556 109.791 94.0131 109.993 94.0131Z" fill="#161616"/>
<path d="M108.422 96.0834C108.849 96.0834 108.849 95.4082 108.422 95.4082C107.996 95.4082 107.973 96.0834 108.422 96.0834Z" fill="#161616"/>
<path d="M121.173 93.1801C121.195 93.1801 121.218 93.1801 121.262 93.1801C121.442 93.1801 121.599 93.0225 121.599 92.8425C121.599 92.6624 121.442 92.5049 121.262 92.5049C121.24 92.5049 121.218 92.5049 121.173 92.5049C120.993 92.5049 120.836 92.6624 120.836 92.8425C120.836 93.0225 120.971 93.1801 121.173 93.1801Z" fill="#161616"/>
<path d="M123.64 91.5151C124.067 91.5151 124.067 90.8398 123.64 90.8398C123.214 90.8398 123.214 91.5151 123.64 91.5151Z" fill="#161616"/>
<path d="M123.302 93.3383C123.324 93.3383 123.346 93.3383 123.391 93.3383C123.571 93.3383 123.728 93.1807 123.728 93.0007C123.728 92.8206 123.571 92.6631 123.391 92.6631C123.369 92.6631 123.346 92.6631 123.302 92.6631C123.122 92.6631 122.965 92.8206 122.965 93.0007C122.987 93.1807 123.122 93.3383 123.302 93.3383Z" fill="#161616"/>
<path d="M112.618 102.589C112.259 102.071 111.675 101.328 111.922 100.653C112.214 99.8877 113.135 100 113.741 100.09C114.481 100.203 115.087 100.338 115.806 100.113C116.389 99.9327 116.906 99.5501 117.444 99.2575C118.724 98.5373 120.228 98.4698 120.632 100.158C121.777 104.772 113.651 106.077 112.394 102.026C112.259 101.621 111.608 101.778 111.743 102.206C113.292 107.18 122.899 105.334 121.216 99.8202C120.924 98.8974 120.228 98.1096 119.24 97.9971C117.624 97.8396 116.569 99.4601 115.02 99.5726C113.875 99.6626 112.484 98.7849 111.563 99.8652C110.733 100.833 111.406 102.071 112.012 102.926C112.282 103.286 112.865 102.949 112.618 102.589Z" fill="#161616"/>
<path d="M111.317 101.305C111.811 102.678 114.28 102.25 115.358 102.093C117.423 101.778 119.308 100.877 120.902 99.5495C121.239 99.2794 120.768 98.7843 120.431 99.0769C119.264 100.067 117.917 100.787 116.435 101.193C115.784 101.373 112.35 102.138 111.991 101.148C111.811 100.72 111.16 100.9 111.317 101.305Z" fill="#161616"/>
<path d="M115.31 111.186C117.937 111.861 121.438 110.195 122.92 108.012C123.167 107.652 122.583 107.314 122.336 107.674C121.034 109.588 117.779 111.118 115.49 110.533C115.063 110.42 114.884 111.073 115.31 111.186Z" fill="#161616"/>
<path d="M115.558 111.389C117.893 112.852 121.732 110.781 122.854 108.553C123.056 108.17 122.472 107.833 122.27 108.215C121.327 110.106 117.893 112.064 115.895 110.826C115.514 110.578 115.177 111.164 115.558 111.389Z" fill="#161616"/>
<path opacity="0.2" d="M124.873 87.5312C125.031 88.3415 125.233 89.6244 125.367 91.1774C125.681 95.3187 126.22 102.251 122.045 106.865C121.147 107.855 119.239 109.611 115.715 110.601C116.837 110.556 118.207 110.421 119.688 110.038C120.429 109.858 121.102 109.633 121.708 109.386C121.798 111.389 121.865 113.392 121.955 115.395C122.718 114.9 123.459 114.427 124.222 113.932C123.19 111.636 123.19 109.858 123.325 108.733C123.527 107.157 124.11 105.875 124.694 104.592C125.21 103.466 125.749 102.566 126.175 101.936C126.22 102.408 126.332 102.904 126.647 103.376C128.016 105.424 132.303 105.627 134.997 103.871C137.489 102.251 138.701 98.9649 138.072 95.5888C138.499 95.9489 138.948 96.3766 139.374 96.8942C139.711 97.2993 140.587 98.4697 141.799 102.589C142.18 103.871 142.36 104.524 142.472 105.177C142.607 106.077 142.854 107.788 142.382 109.723C141.574 113.054 139.172 114.967 138.454 115.508C137.938 115.89 136.366 117.038 134.009 117.578C132.887 117.826 129.52 118.636 126.355 116.791C125.165 116.093 124.514 115.575 124.155 114.945C123.773 114.247 123.729 113.595 123.684 113.099C123.482 110.016 123.392 108.463 123.594 107.405C124.2 104.344 125.569 104.029 126.332 100.54C126.602 99.28 126.669 98.2221 126.692 97.5469C126.983 97.5919 127.432 97.637 127.971 97.5019C129.093 97.2093 129.655 96.2865 129.857 95.9489C130.665 94.666 131.024 92.3703 129.767 91.3125C129.587 91.1549 128.959 90.6822 127.747 90.7723C126.826 89.6919 125.861 88.6116 124.873 87.5312Z" fill="#3F3F3F"/>
<path opacity="0.13" d="M114.234 94.8232C115.379 95.1608 116.546 95.521 117.691 95.8586C117.399 96.1287 117.108 96.3762 116.793 96.6463C116.502 96.8939 116.232 97.0965 115.94 97.3215C115.581 97.0514 115.065 96.5788 114.661 95.8586C114.436 95.4759 114.302 95.1158 114.234 94.8232Z" fill="#3F3F3F"/>
<path opacity="0.16" d="M96.2316 97.6365C93.7848 106.302 95.6031 113.301 99.262 114.832C102.135 116.025 107.321 114.337 108.286 111.388C108.421 111.006 108.555 110.331 108.039 108.26C107.59 106.437 106.67 103.691 104.604 100.562C104.245 100.337 103.774 99.9773 103.325 99.4371C102.539 98.4693 102.315 97.434 102.247 96.9388C102.898 97.614 103.841 98.4693 104.447 98.1992C105.031 97.9291 105.39 97.1189 105.188 96.3086C105.39 97.3439 105.704 98.7619 106.288 100.405C107.051 102.588 107.814 104.704 109.588 106.707C110.396 107.63 111.99 109.138 114.683 110.218C115.132 110.781 115.963 111.996 116.232 113.774C116.277 114.044 116.434 115.282 116.03 116.835C115.94 117.195 115.402 119.153 113.628 120.841C111.563 122.822 109.094 123.182 108.286 123.295C102.203 124.105 97.4886 118.771 96.6581 117.848C95.8275 116.903 94.4582 115.327 93.6726 112.896C92.4155 109.025 93.3808 105.537 94.0766 102.993C94.7276 100.607 95.6031 98.8069 96.2316 97.6365Z" fill="#3F3F3F"/>
</svg>
