<svg width="639" height="465" viewBox="0 0 639 465" fill="none" xmlns="http://www.w3.org/2000/svg">
<g filter="url(#filter0_f_784_1394)">
<ellipse cx="328" cy="163" rx="157" ry="99" fill="#05A0BE" fill-opacity="0.1"/>
</g>
<g filter="url(#filter1_f_784_1394)">
<ellipse cx="240" cy="292" rx="157" ry="99" fill="#05A0BE" fill-opacity="0.1"/>
</g>
<g filter="url(#filter2_f_784_1394)">
<ellipse cx="418" cy="302" rx="157" ry="99" fill="#05A0BE" fill-opacity="0.1"/>
</g>
<g filter="url(#filter3_d_784_1394)">
<rect x="51" y="253.652" width="255.352" height="131.127" rx="11.5023" fill="white"/>
<rect x="51" y="253.652" width="255.352" height="131.127" rx="11.5023" fill="url(#paint0_linear_784_1394)" fill-opacity="0.4"/>
</g>
<path d="M75.4417 268.971V281.854H74.0983V275.909H66.0374V281.854H64.6755V268.971H66.0374V274.713H74.0983V268.971H75.4417ZM83.4711 281.946C82.5386 281.946 81.6982 281.737 80.9498 281.32C80.2014 280.89 79.6125 280.301 79.183 279.553C78.7536 278.805 78.5389 277.958 78.5389 277.013C78.5389 276.069 78.7536 275.222 79.183 274.474C79.6125 273.725 80.2014 273.142 80.9498 272.725C81.6982 272.308 82.5386 272.1 83.4711 272.1C84.4036 272.1 85.244 272.308 85.9924 272.725C86.7408 273.142 87.3236 273.725 87.7408 274.474C88.1702 275.222 88.3849 276.069 88.3849 277.013C88.3849 277.958 88.1702 278.805 87.7408 279.553C87.3236 280.301 86.7408 280.89 85.9924 281.32C85.244 281.737 84.4036 281.946 83.4711 281.946ZM83.4711 280.786C84.1582 280.786 84.7716 280.633 85.3115 280.326C85.8636 280.007 86.293 279.559 86.5997 278.983C86.9065 278.406 87.0598 277.749 87.0598 277.013C87.0598 276.277 86.9065 275.621 86.5997 275.044C86.293 274.467 85.8636 274.026 85.3115 273.719C84.7716 273.4 84.1582 273.241 83.4711 273.241C82.784 273.241 82.1644 273.4 81.6123 273.719C81.0725 274.026 80.6431 274.467 80.3241 275.044C80.0173 275.621 79.864 276.277 79.864 277.013C79.864 277.749 80.0173 278.406 80.3241 278.983C80.6431 279.559 81.0725 280.007 81.6123 280.326C82.1644 280.633 82.784 280.786 83.4711 280.786ZM97.3428 276.848C98.6556 277.154 99.312 277.946 99.312 279.222C99.312 280.068 98.9991 280.719 98.3734 281.173C97.7477 281.627 96.8152 281.854 95.576 281.854H91.1775V272.173H95.4472C96.5514 272.173 97.4164 272.388 98.0421 272.817C98.6679 273.247 98.9807 273.86 98.9807 274.658C98.9807 275.185 98.8335 275.639 98.539 276.02C98.2568 276.388 97.8581 276.664 97.3428 276.848ZM92.4474 276.48H95.3552C96.1036 276.48 96.6741 276.339 97.0667 276.056C97.4716 275.774 97.6741 275.363 97.6741 274.823C97.6741 274.283 97.4716 273.879 97.0667 273.609C96.6741 273.339 96.1036 273.204 95.3552 273.204H92.4474V276.48ZM95.5208 280.823C96.3551 280.823 96.9809 280.688 97.398 280.418C97.8152 280.148 98.0237 279.725 98.0237 279.148C98.0237 278.572 97.8336 278.148 97.4532 277.878C97.0729 277.596 96.4717 277.455 95.6496 277.455H92.4474V280.823H95.5208ZM106.442 275.596C107.656 275.609 108.583 275.878 109.221 276.406C109.859 276.934 110.178 277.694 110.178 278.688C110.178 279.719 109.834 280.51 109.147 281.062C108.46 281.614 107.478 281.884 106.202 281.872L102.374 281.854V272.173H103.681V275.559L106.442 275.596ZM111.797 272.173H113.104V281.854H111.797V272.173ZM106.129 280.878C107.024 280.89 107.699 280.712 108.153 280.344C108.619 279.964 108.852 279.412 108.852 278.688C108.852 277.976 108.625 277.449 108.172 277.105C107.718 276.762 107.037 276.584 106.129 276.572L103.681 276.535V280.841L106.129 280.878ZM122.879 281.854L119.806 277.805L116.714 281.854H115.241L119.069 276.885L115.425 272.173H116.898L119.806 275.964L122.713 272.173H124.149L120.505 276.885L124.37 281.854H122.879ZM134.843 277.547H132.635V281.854H131.328V272.173H132.635V276.424H134.861L138.266 272.173H139.683L135.874 276.866L139.959 281.854H138.413L134.843 277.547ZM149.935 272.173V281.854H148.628V273.333H143.991L143.862 275.725C143.764 277.737 143.531 279.283 143.163 280.363C142.794 281.442 142.138 281.982 141.193 281.982C140.936 281.982 140.623 281.933 140.255 281.835L140.347 280.712C140.568 280.762 140.721 280.786 140.807 280.786C141.31 280.786 141.69 280.553 141.948 280.087C142.206 279.621 142.377 279.044 142.463 278.357C142.549 277.67 142.623 276.762 142.684 275.633L142.85 272.173H149.935ZM153.65 272.173H154.956V279.866L161.416 272.173H162.575V281.854H161.269V274.161L154.828 281.854H153.65V272.173ZM174.786 277.418H166.688C166.762 278.424 167.148 279.24 167.848 279.866C168.547 280.479 169.43 280.786 170.498 280.786C171.099 280.786 171.651 280.682 172.154 280.473C172.657 280.252 173.093 279.933 173.461 279.516L174.197 280.363C173.768 280.878 173.228 281.271 172.577 281.541C171.94 281.811 171.234 281.946 170.461 281.946C169.467 281.946 168.584 281.737 167.811 281.32C167.05 280.89 166.455 280.301 166.026 279.553C165.596 278.805 165.382 277.958 165.382 277.013C165.382 276.069 165.584 275.222 165.989 274.474C166.406 273.725 166.97 273.142 167.682 272.725C168.406 272.308 169.216 272.1 170.111 272.1C171.007 272.1 171.811 272.308 172.522 272.725C173.234 273.142 173.792 273.725 174.197 274.474C174.602 275.21 174.804 276.056 174.804 277.013L174.786 277.418ZM170.111 273.222C169.179 273.222 168.394 273.523 167.756 274.124C167.13 274.713 166.774 275.486 166.688 276.443H173.553C173.467 275.486 173.105 274.713 172.467 274.124C171.841 273.523 171.056 273.222 170.111 273.222ZM177.697 272.173H179.003V276.461H185.095V272.173H186.402V281.854H185.095V277.584H179.003V281.854H177.697V272.173ZM196.925 273.333H193.263V281.854H191.956V273.333H188.294V272.173H196.925V273.333ZM202.359 281.946C201.426 281.946 200.586 281.737 199.837 281.32C199.089 280.89 198.5 280.301 198.071 279.553C197.641 278.805 197.426 277.958 197.426 277.013C197.426 276.069 197.641 275.222 198.071 274.474C198.5 273.725 199.089 273.142 199.837 272.725C200.586 272.308 201.426 272.1 202.359 272.1C203.291 272.1 204.132 272.308 204.88 272.725C205.628 273.142 206.211 273.725 206.628 274.474C207.058 275.222 207.272 276.069 207.272 277.013C207.272 277.958 207.058 278.805 206.628 279.553C206.211 280.301 205.628 280.89 204.88 281.32C204.132 281.737 203.291 281.946 202.359 281.946ZM202.359 280.786C203.046 280.786 203.659 280.633 204.199 280.326C204.751 280.007 205.181 279.559 205.487 278.983C205.794 278.406 205.947 277.749 205.947 277.013C205.947 276.277 205.794 275.621 205.487 275.044C205.181 274.467 204.751 274.026 204.199 273.719C203.659 273.4 203.046 273.241 202.359 273.241C201.672 273.241 201.052 273.4 200.5 273.719C199.96 274.026 199.531 274.467 199.212 275.044C198.905 275.621 198.752 276.277 198.752 277.013C198.752 277.749 198.905 278.406 199.212 278.983C199.531 279.559 199.96 280.007 200.5 280.326C201.052 280.633 201.672 280.786 202.359 280.786ZM216.23 276.848C217.543 277.154 218.2 277.946 218.2 279.222C218.2 280.068 217.887 280.719 217.261 281.173C216.635 281.627 215.703 281.854 214.464 281.854H210.065V272.173H214.335C215.439 272.173 216.304 272.388 216.93 272.817C217.555 273.247 217.868 273.86 217.868 274.658C217.868 275.185 217.721 275.639 217.427 276.02C217.144 276.388 216.746 276.664 216.23 276.848ZM211.335 276.48H214.243C214.991 276.48 215.562 276.339 215.954 276.056C216.359 275.774 216.562 275.363 216.562 274.823C216.562 274.283 216.359 273.879 215.954 273.609C215.562 273.339 214.991 273.204 214.243 273.204H211.335V276.48ZM214.408 280.823C215.243 280.823 215.868 280.688 216.286 280.418C216.703 280.148 216.911 279.725 216.911 279.148C216.911 278.572 216.721 278.148 216.341 277.878C215.96 277.596 215.359 277.455 214.537 277.455H211.335V280.823H214.408Z" fill="#565656"/>
<path d="M73.6428 307.776H70.0402V311.296H67.3694V307.776H63.7876V305.25H67.3694V301.731H70.0402V305.25H73.6428V307.776ZM87.1592 299.267V313.76H83.8052V301.958H80.9066V299.267H87.1592ZM99.5942 306.141C100.312 306.499 100.857 306.969 101.23 307.548C101.616 308.128 101.81 308.798 101.81 309.557C101.81 310.454 101.554 311.241 101.044 311.917C100.533 312.58 99.8151 313.097 98.8903 313.47C97.9655 313.829 96.8958 314.008 95.6811 314.008C94.4665 314.008 93.3968 313.829 92.472 313.47C91.561 313.097 90.8502 312.58 90.3394 311.917C89.8425 311.241 89.5941 310.454 89.5941 309.557C89.5941 308.798 89.7804 308.128 90.1531 307.548C90.5396 306.969 91.0848 306.499 91.7887 306.141C91.2504 305.809 90.8363 305.395 90.5465 304.898C90.2566 304.388 90.1117 303.808 90.1117 303.159C90.1117 302.317 90.3463 301.586 90.8156 300.965C91.2849 300.343 91.9406 299.867 92.7825 299.536C93.6245 299.191 94.5907 299.018 95.6811 299.018C96.7854 299.018 97.7585 299.191 98.6004 299.536C99.4562 299.867 100.119 300.343 100.588 300.965C101.057 301.586 101.292 302.317 101.292 303.159C101.292 303.808 101.147 304.388 100.857 304.898C100.567 305.395 100.146 305.809 99.5942 306.141ZM95.6811 301.482C95.0048 301.482 94.4596 301.648 94.0455 301.979C93.6452 302.297 93.4451 302.738 93.4451 303.304C93.4451 303.856 93.6452 304.291 94.0455 304.608C94.4458 304.926 94.991 305.085 95.6811 305.085C96.3713 305.085 96.9234 304.926 97.3375 304.608C97.7516 304.291 97.9586 303.856 97.9586 303.304C97.9586 302.738 97.7516 302.297 97.3375 301.979C96.9234 301.648 96.3713 301.482 95.6811 301.482ZM95.6811 311.544C96.5231 311.544 97.1856 311.358 97.6687 310.985C98.1656 310.599 98.4141 310.088 98.4141 309.453C98.4141 308.818 98.1656 308.315 97.6687 307.942C97.1856 307.569 96.5231 307.383 95.6811 307.383C94.853 307.383 94.1973 307.569 93.7142 307.942C93.2311 308.315 92.9896 308.818 92.9896 309.453C92.9896 310.102 93.2311 310.613 93.7142 310.985C94.1973 311.358 94.853 311.544 95.6811 311.544ZM120.554 299.267V301.441L115.171 313.76H111.527L116.724 302H111.921V304.36H108.939V299.267H120.554ZM128.676 305.168C129.946 305.375 130.919 305.851 131.596 306.596C132.272 307.328 132.61 308.239 132.61 309.329C132.61 310.171 132.389 310.951 131.948 311.669C131.506 312.373 130.829 312.938 129.918 313.366C129.021 313.794 127.917 314.008 126.606 314.008C125.584 314.008 124.577 313.877 123.583 313.615C122.603 313.339 121.768 312.952 121.078 312.455L122.382 309.888C122.934 310.302 123.569 310.627 124.287 310.861C125.018 311.082 125.764 311.192 126.523 311.192C127.365 311.192 128.028 311.034 128.511 310.716C128.994 310.385 129.235 309.923 129.235 309.329C129.235 308.142 128.331 307.548 126.523 307.548H124.991V305.333L127.972 301.958H121.802V299.267H131.948V301.441L128.676 305.168ZM139.749 299.267V313.76H136.395V301.958H133.496V299.267H139.749Z" fill="#565656"/>
<path d="M208.844 325.699C186.607 322.938 174.099 342.569 170.625 352.729V375.578H294.546V315.922C294.546 315.922 299.411 313.737 270.225 325.699C233.744 340.652 236.639 329.15 208.844 325.699Z" fill="url(#paint1_linear_784_1394)"/>
<path d="M170.625 352.729C174.076 342.569 186.498 322.938 208.583 325.699C236.188 329.15 233.313 340.652 269.545 325.699C298.531 313.737 293.7 315.922 293.7 315.922" stroke="url(#paint2_linear_784_1394)" stroke-width="2.30047" stroke-linecap="round"/>
<path d="M98.689 354.22V362.271H97.8608V354.956H95.9629V354.22H98.689ZM109.306 354.22V354.806L105.936 362.271H105.039L108.351 354.956H104.211V356.463H103.394V354.22H109.306ZM113.034 357.671C113.877 357.717 114.518 357.947 114.955 358.361C115.399 358.767 115.622 359.3 115.622 359.96C115.622 360.42 115.511 360.83 115.288 361.19C115.066 361.543 114.736 361.823 114.299 362.03C113.862 362.237 113.329 362.34 112.7 362.34C112.117 362.34 111.565 362.248 111.044 362.064C110.53 361.873 110.116 361.62 109.802 361.305L110.204 360.65C110.473 360.926 110.829 361.152 111.274 361.328C111.719 361.497 112.194 361.581 112.7 361.581C113.36 361.581 113.87 361.439 114.23 361.156C114.59 360.864 114.771 360.466 114.771 359.96C114.771 359.461 114.59 359.07 114.23 358.786C113.87 358.503 113.325 358.361 112.597 358.361H112.022V357.751L114.253 354.956H110.135V354.22H115.311V354.806L113.034 357.671ZM119.02 354.22V362.271H118.192V354.956H116.294V354.22H119.02ZM129.085 356.221V362.271H128.269V359.752C127.571 360.059 126.885 360.213 126.21 360.213C125.481 360.213 124.914 360.048 124.507 359.718C124.101 359.381 123.898 358.878 123.898 358.211V356.221H124.714V358.165C124.714 358.618 124.86 358.963 125.152 359.2C125.443 359.43 125.846 359.545 126.359 359.545C126.927 359.545 127.563 359.396 128.269 359.097V356.221H129.085ZM133.751 352.587H134.499L130.703 363.422H129.955L133.751 352.587ZM141.235 356.221V362.271H140.487V357.487L138.037 361.535H137.669L135.219 357.475V362.271H134.471V356.221H135.299L137.864 360.581L140.475 356.221H141.235ZM148.85 359.499H143.788C143.834 360.128 144.076 360.638 144.513 361.029C144.95 361.413 145.502 361.604 146.169 361.604C146.545 361.604 146.89 361.539 147.205 361.409C147.519 361.271 147.791 361.071 148.021 360.811L148.481 361.34C148.213 361.662 147.876 361.907 147.469 362.076C147.07 362.245 146.63 362.329 146.146 362.329C145.525 362.329 144.973 362.199 144.49 361.938C144.015 361.67 143.643 361.301 143.374 360.834C143.106 360.366 142.972 359.837 142.972 359.246C142.972 358.656 143.098 358.127 143.351 357.659C143.612 357.191 143.965 356.827 144.41 356.566C144.862 356.306 145.368 356.175 145.928 356.175C146.488 356.175 146.99 356.306 147.435 356.566C147.879 356.827 148.228 357.191 148.481 357.659C148.734 358.119 148.861 358.648 148.861 359.246L148.85 359.499ZM145.928 356.877C145.345 356.877 144.854 357.065 144.456 357.44C144.065 357.809 143.842 358.292 143.788 358.89H148.079C148.025 358.292 147.799 357.809 147.4 357.44C147.009 357.065 146.518 356.877 145.928 356.877ZM153.199 362.329C152.601 362.329 152.064 362.199 151.589 361.938C151.121 361.677 150.753 361.313 150.485 360.845C150.216 360.37 150.082 359.837 150.082 359.246C150.082 358.656 150.216 358.127 150.485 357.659C150.753 357.191 151.121 356.827 151.589 356.566C152.064 356.306 152.601 356.175 153.199 356.175C153.721 356.175 154.185 356.279 154.591 356.486C155.005 356.685 155.331 356.98 155.569 357.371L154.959 357.786C154.76 357.487 154.507 357.264 154.2 357.118C153.893 356.965 153.56 356.888 153.199 356.888C152.762 356.888 152.367 356.988 152.015 357.187C151.669 357.379 151.397 357.655 151.198 358.016C151.006 358.376 150.91 358.786 150.91 359.246C150.91 359.714 151.006 360.128 151.198 360.489C151.397 360.841 151.669 361.117 152.015 361.317C152.367 361.508 152.762 361.604 153.199 361.604C153.56 361.604 153.893 361.531 154.2 361.386C154.507 361.24 154.76 361.018 154.959 360.719L155.569 361.133C155.331 361.524 155.005 361.823 154.591 362.03C154.177 362.229 153.713 362.329 153.199 362.329Z" fill="#DD54FF"/>
<g opacity="0.7">
<circle cx="78.606" cy="357.172" r="9.777" fill="#F7EAFF" stroke="#C971FF" stroke-width="1.15023"/>
<path d="M78.0304 362.924C78.0304 363.241 78.2878 363.499 78.6055 363.499C78.9231 363.499 79.1806 363.241 79.1806 362.924L78.0304 362.924ZM79.0121 351.015C78.7875 350.79 78.4234 350.79 78.1988 351.015L74.5388 354.675C74.3142 354.899 74.3142 355.264 74.5388 355.488C74.7634 355.713 75.1275 355.713 75.3521 355.488L78.6055 352.235L81.8588 355.488C82.0834 355.713 82.4476 355.713 82.6722 355.488C82.8968 355.264 82.8968 354.899 82.6722 354.675L79.0121 351.015ZM79.1806 362.924L79.1806 351.421L78.0304 351.421L78.0304 362.924L79.1806 362.924Z" fill="#C971FF"/>
</g>
<g filter="url(#filter4_d_784_1394)">
<rect x="168.324" y="74.2168" width="277.207" height="193.239" rx="11.5023" fill="url(#paint3_linear_784_1394)"/>
</g>
<g clip-path="url(#clip0_784_1394)">
<path d="M199.637 239.769C198.226 239.769 197.079 238.625 197.112 237.215C197.427 223.66 200.25 210.273 205.444 197.733C210.964 184.405 219.056 172.296 229.256 162.095C239.456 151.895 251.566 143.804 264.893 138.284C278.22 132.763 292.505 129.922 306.93 129.922C321.355 129.922 335.639 132.763 348.967 138.284C362.294 143.804 374.404 151.895 384.604 162.095C394.804 172.296 402.895 184.405 408.416 197.733C413.61 210.273 416.432 223.66 416.748 237.215C416.78 238.625 415.634 239.769 414.223 239.769H391.87C390.459 239.769 389.32 238.625 389.276 237.215C388.967 227.267 386.858 217.45 383.044 208.242C378.904 198.246 372.836 189.164 365.185 181.514C357.535 173.864 348.453 167.795 338.458 163.655C328.462 159.515 317.749 157.384 306.93 157.384C296.111 157.384 285.398 159.515 275.402 163.655C265.407 167.795 256.325 173.864 248.675 181.514C241.024 189.164 234.956 198.246 230.816 208.242C227.001 217.45 224.893 227.267 224.584 237.215C224.54 238.625 223.401 239.769 221.99 239.769H199.637Z" fill="url(#paint4_linear_784_1394)" fill-opacity="0.6"/>
<path d="M199.637 239.769C198.226 239.769 197.079 238.625 197.112 237.215C197.676 212.953 206.262 189.532 221.566 170.635C236.87 151.738 257.996 138.473 281.611 132.88C282.984 132.554 284.341 133.438 284.634 134.819L289.29 156.735C289.583 158.115 288.701 159.467 287.331 159.803C269.882 164.08 254.284 173.955 242.948 187.952C231.612 201.949 225.194 219.258 224.637 237.215C224.593 238.625 223.453 239.769 222.043 239.769H199.637Z" fill="url(#paint5_linear_784_1394)"/>
<path d="M265.15 116.728V120.796H263.88V117.906H252.635L252.617 120.796H251.347L251.365 116.728H252.01C252.856 116.679 253.445 116.011 253.776 114.722C254.108 113.422 254.31 111.581 254.384 109.201L254.531 105.024H263.217V116.728H265.15ZM255.598 109.33C255.537 111.293 255.384 112.913 255.138 114.189C254.905 115.452 254.506 116.299 253.942 116.728H261.874V106.201H255.709L255.598 109.33ZM271.339 117.998C270.406 117.998 269.566 117.79 268.818 117.373C268.069 116.943 267.48 116.354 267.051 115.606C266.621 114.857 266.407 114.011 266.407 113.066C266.407 112.121 266.621 111.275 267.051 110.526C267.48 109.778 268.069 109.195 268.818 108.778C269.566 108.361 270.406 108.152 271.339 108.152C272.271 108.152 273.112 108.361 273.86 108.778C274.609 109.195 275.191 109.778 275.609 110.526C276.038 111.275 276.253 112.121 276.253 113.066C276.253 114.011 276.038 114.857 275.609 115.606C275.191 116.354 274.609 116.943 273.86 117.373C273.112 117.79 272.271 117.998 271.339 117.998ZM271.339 116.839C272.026 116.839 272.639 116.685 273.179 116.379C273.731 116.06 274.161 115.612 274.468 115.035C274.774 114.459 274.928 113.802 274.928 113.066C274.928 112.33 274.774 111.674 274.468 111.097C274.161 110.52 273.731 110.079 273.179 109.772C272.639 109.453 272.026 109.293 271.339 109.293C270.652 109.293 270.032 109.453 269.48 109.772C268.94 110.079 268.511 110.52 268.192 111.097C267.885 111.674 267.732 112.33 267.732 113.066C267.732 113.802 267.885 114.459 268.192 115.035C268.511 115.612 268.94 116.06 269.48 116.379C270.032 116.685 270.652 116.839 271.339 116.839ZM287.732 108.226V117.906H286.425V109.385H280.352V117.906H279.045V108.226H287.732ZM296.434 108.152C297.342 108.152 298.164 108.361 298.9 108.778C299.636 109.183 300.213 109.76 300.63 110.508C301.047 111.256 301.256 112.109 301.256 113.066C301.256 114.035 301.047 114.894 300.63 115.643C300.213 116.391 299.636 116.974 298.9 117.391C298.176 117.796 297.354 117.998 296.434 117.998C295.649 117.998 294.937 117.839 294.299 117.52C293.673 117.189 293.158 116.71 292.753 116.084V121.477H291.446V108.226H292.698V110.14C293.09 109.502 293.606 109.011 294.244 108.668C294.894 108.324 295.624 108.152 296.434 108.152ZM296.342 116.839C297.017 116.839 297.63 116.685 298.182 116.379C298.734 116.06 299.164 115.612 299.47 115.035C299.789 114.459 299.949 113.802 299.949 113.066C299.949 112.33 299.789 111.68 299.47 111.115C299.164 110.539 298.734 110.091 298.182 109.772C297.63 109.453 297.017 109.293 296.342 109.293C295.655 109.293 295.035 109.453 294.483 109.772C293.943 110.091 293.514 110.539 293.195 111.115C292.888 111.68 292.735 112.33 292.735 113.066C292.735 113.802 292.888 114.459 293.195 115.035C293.514 115.612 293.943 116.06 294.483 116.379C295.035 116.685 295.655 116.839 296.342 116.839ZM308.057 117.998C307.124 117.998 306.284 117.79 305.535 117.373C304.787 116.943 304.198 116.354 303.768 115.606C303.339 114.857 303.124 114.011 303.124 113.066C303.124 112.121 303.339 111.275 303.768 110.526C304.198 109.778 304.787 109.195 305.535 108.778C306.284 108.361 307.124 108.152 308.057 108.152C308.989 108.152 309.829 108.361 310.578 108.778C311.326 109.195 311.909 109.778 312.326 110.526C312.756 111.275 312.97 112.121 312.97 113.066C312.97 114.011 312.756 114.857 312.326 115.606C311.909 116.354 311.326 116.943 310.578 117.373C309.829 117.79 308.989 117.998 308.057 117.998ZM308.057 116.839C308.744 116.839 309.357 116.685 309.897 116.379C310.449 116.06 310.878 115.612 311.185 115.035C311.492 114.459 311.645 113.802 311.645 113.066C311.645 112.33 311.492 111.674 311.185 111.097C310.878 110.52 310.449 110.079 309.897 109.772C309.357 109.453 308.744 109.293 308.057 109.293C307.369 109.293 306.75 109.453 306.198 109.772C305.658 110.079 305.229 110.52 304.91 111.097C304.603 111.674 304.449 112.33 304.449 113.066C304.449 113.802 304.603 114.459 304.91 115.035C305.229 115.612 305.658 116.06 306.198 116.379C306.75 116.685 307.369 116.839 308.057 116.839ZM325.15 116.765V120.244H323.917V117.906H315.249V120.244H314.016V116.765H314.568C315.218 116.728 315.66 116.25 315.893 115.33C316.126 114.41 316.286 113.121 316.372 111.465L316.5 108.226H323.641V116.765H325.15ZM317.568 111.539C317.507 112.913 317.39 114.048 317.218 114.943C317.046 115.827 316.74 116.434 316.298 116.765H322.334V109.385H317.678L317.568 111.539ZM331.028 108.152C332.291 108.152 333.261 108.471 333.936 109.109C334.61 109.735 334.948 110.667 334.948 111.907V117.906H333.696V116.397C333.402 116.9 332.966 117.293 332.39 117.575C331.825 117.857 331.15 117.998 330.365 117.998C329.286 117.998 328.427 117.741 327.789 117.225C327.151 116.71 326.832 116.029 326.832 115.182C326.832 114.36 327.126 113.698 327.715 113.195C328.316 112.692 329.267 112.44 330.568 112.44H333.641V111.851C333.641 111.017 333.408 110.385 332.942 109.956C332.476 109.514 331.795 109.293 330.899 109.293C330.285 109.293 329.697 109.398 329.132 109.606C328.568 109.802 328.083 110.079 327.678 110.434L327.089 109.459C327.58 109.042 328.169 108.723 328.856 108.502C329.543 108.269 330.267 108.152 331.028 108.152ZM330.568 116.968C331.304 116.968 331.936 116.802 332.463 116.471C332.991 116.127 333.383 115.636 333.641 114.998V113.416H330.604C328.948 113.416 328.12 113.992 328.12 115.146C328.12 115.71 328.335 116.158 328.764 116.489C329.194 116.808 329.795 116.968 330.568 116.968ZM346.91 113.6H344.812V117.906H343.506V113.6H341.408L338.445 117.906H336.88L340.359 112.919L337.156 108.226H338.573L341.408 112.477H343.506V108.226H344.812V112.477H346.91L349.763 108.226H351.18L347.978 112.937L351.456 117.906H349.892L346.91 113.6ZM353.631 108.226H354.938V115.919L361.397 108.226H362.557V117.906H361.25V110.213L354.809 117.906H353.631V108.226Z" fill="#565656"/>
<path d="M299.305 221.406H294.209V227.941H289.029V221.406H273.245V217.706L287.426 199.168H293.14L279.781 216.884H289.194V211.089H294.209V216.884H299.305V221.406ZM313.402 211.047C316.06 211.376 318.088 212.281 319.486 213.76C320.883 215.24 321.582 217.09 321.582 219.309C321.582 220.981 321.157 222.502 320.308 223.872C319.458 225.242 318.17 226.338 316.444 227.16C314.745 227.955 312.662 228.352 310.196 228.352C308.141 228.352 306.154 228.065 304.236 227.489C302.345 226.886 300.728 226.064 299.385 225.023L301.687 220.871C302.729 221.748 303.989 222.447 305.469 222.968C306.976 223.461 308.524 223.708 310.114 223.708C312.005 223.708 313.484 223.324 314.553 222.557C315.649 221.762 316.197 220.693 316.197 219.351C316.197 218.008 315.677 216.966 314.635 216.227C313.621 215.459 312.059 215.076 309.949 215.076H307.319V211.417L313.854 203.649H300.783V199.168H320.39V202.744L313.402 211.047ZM329.141 218.458C327.672 218.458 326.488 217.939 325.588 216.902C324.688 215.865 324.237 214.504 324.237 212.821C324.237 211.137 324.688 209.777 325.588 208.74C326.488 207.702 327.672 207.184 329.141 207.184C330.609 207.184 331.793 207.702 332.693 208.74C333.613 209.758 334.073 211.118 334.073 212.821C334.073 214.524 333.613 215.894 332.693 216.931C331.793 217.949 330.609 218.458 329.141 218.458ZM341.472 207.389H344.349L330.315 227.941H327.438L341.472 207.389ZM329.141 216.403C329.943 216.403 330.56 216.09 330.99 215.463C331.44 214.837 331.666 213.956 331.666 212.821C331.666 211.686 331.44 210.805 330.99 210.178C330.56 209.552 329.943 209.239 329.141 209.239C328.377 209.239 327.761 209.562 327.291 210.208C326.841 210.834 326.616 211.705 326.616 212.821C326.616 213.937 326.841 214.817 327.291 215.463C327.761 216.09 328.377 216.403 329.141 216.403ZM342.617 228.147C341.149 228.147 339.965 227.628 339.064 226.591C338.164 225.553 337.714 224.193 337.714 222.51C337.714 220.826 338.164 219.466 339.064 218.429C339.965 217.391 341.149 216.873 342.617 216.873C344.085 216.873 345.269 217.391 346.17 218.429C347.089 219.466 347.549 220.826 347.549 222.51C347.549 224.193 347.089 225.553 346.17 226.591C345.269 227.628 344.085 228.147 342.617 228.147ZM342.617 226.092C343.4 226.092 344.016 225.779 344.467 225.152C344.917 224.506 345.142 223.625 345.142 222.51C345.142 221.394 344.917 220.523 344.467 219.897C344.016 219.251 343.4 218.928 342.617 218.928C341.834 218.928 341.217 219.241 340.767 219.867C340.317 220.494 340.092 221.374 340.092 222.51C340.092 223.645 340.317 224.526 340.767 225.152C341.217 225.779 341.834 226.092 342.617 226.092Z" fill="url(#paint6_linear_784_1394)" fill-opacity="0.8"/>
</g>
<g filter="url(#filter5_d_784_1394)">
<rect x="281.047" y="229.498" width="259.953" height="178.286" rx="11.5023" fill="white"/>
<rect x="281.047" y="229.498" width="259.953" height="178.286" rx="11.5023" fill="url(#paint7_linear_784_1394)" fill-opacity="0.6"/>
</g>
<path opacity="0.5" d="M293.379 381.893C294.641 381.893 295.272 380.695 295.272 378.299C295.272 376.857 295.06 375.85 294.636 375.277C294.328 374.874 293.91 374.673 293.379 374.673C292.256 374.673 291.635 375.606 291.519 377.472C291.508 377.726 291.503 377.997 291.503 378.283C291.503 378.559 291.508 378.829 291.519 379.094C291.54 379.349 291.572 379.608 291.614 379.874C291.656 380.139 291.72 380.393 291.805 380.637C291.89 380.87 292.001 381.077 292.139 381.257C292.446 381.681 292.86 381.893 293.379 381.893ZM293.379 373.798C295.394 373.798 296.401 375.298 296.401 378.299C296.401 379.158 296.338 379.815 296.21 380.271C296.083 380.727 295.945 381.098 295.797 381.384C295.648 381.66 295.463 381.899 295.24 382.1C294.763 382.535 294.143 382.752 293.379 382.752C292.277 382.752 291.476 382.296 290.978 381.384C290.575 380.653 290.374 379.624 290.374 378.299C290.374 377.43 290.432 376.762 290.548 376.295C290.676 375.829 290.814 375.457 290.962 375.182C291.121 374.896 291.312 374.652 291.535 374.45C292.012 374.015 292.627 373.798 293.379 373.798ZM298.958 379.349V382.132C298.958 382.291 298.905 382.413 298.799 382.498C298.693 382.583 298.577 382.625 298.449 382.625C298.333 382.625 298.221 382.588 298.115 382.514C298.02 382.429 297.972 382.302 297.972 382.132V374.371C297.972 374.212 298.025 374.09 298.131 374.005C298.237 373.92 298.333 373.878 298.418 373.878C298.513 373.878 298.587 373.888 298.64 373.909C298.704 373.931 298.757 373.962 298.799 374.005C298.905 374.111 298.958 374.233 298.958 374.371V379.015L301.726 376.693C301.821 376.597 301.927 376.55 302.044 376.55C302.16 376.55 302.261 376.587 302.346 376.661C302.431 376.735 302.473 376.809 302.473 376.884C302.473 377.032 302.431 377.138 302.346 377.202L299.976 379.174L302.648 381.941C302.722 382.037 302.759 382.116 302.759 382.18C302.759 382.243 302.744 382.302 302.712 382.355C302.69 382.408 302.659 382.455 302.616 382.498C302.51 382.583 302.399 382.625 302.282 382.625C302.176 382.625 302.07 382.572 301.964 382.466L298.958 379.349ZM305.032 379.349V382.132C305.032 382.291 304.979 382.413 304.873 382.498C304.767 382.583 304.65 382.625 304.523 382.625C304.406 382.625 304.295 382.588 304.189 382.514C304.094 382.429 304.046 382.302 304.046 382.132V374.371C304.046 374.212 304.099 374.09 304.205 374.005C304.311 373.92 304.406 373.878 304.491 373.878C304.587 373.878 304.661 373.888 304.714 373.909C304.777 373.931 304.83 373.962 304.873 374.005C304.979 374.111 305.032 374.233 305.032 374.371V379.015L307.799 376.693C307.895 376.597 308.001 376.55 308.117 376.55C308.234 376.55 308.335 376.587 308.42 376.661C308.504 376.735 308.547 376.809 308.547 376.884C308.547 377.032 308.504 377.138 308.42 377.202L306.05 379.174L308.722 381.941C308.796 382.037 308.833 382.116 308.833 382.18C308.833 382.243 308.817 382.302 308.785 382.355C308.764 382.408 308.732 382.455 308.69 382.498C308.584 382.583 308.473 382.625 308.356 382.625C308.25 382.625 308.144 382.572 308.038 382.466L305.032 379.349Z" fill="#565656"/>
<line x1="293.492" y1="387.315" x2="529.051" y2="387.315" stroke="#E2F1EA" stroke-width="1.25644"/>
<path opacity="0.5" d="M293.459 344.912C293.279 344.912 293.109 344.928 292.95 344.959C292.802 344.981 292.658 345.018 292.521 345.071C292.192 345.198 291.948 345.315 291.789 345.421C291.672 345.484 291.556 345.516 291.439 345.516C291.333 345.516 291.238 345.479 291.153 345.405C291.079 345.331 291.042 345.246 291.042 345.15C291.042 345.055 291.079 344.965 291.153 344.88C291.227 344.784 291.328 344.694 291.455 344.61C291.582 344.525 291.725 344.45 291.884 344.387C292.054 344.313 292.229 344.244 292.409 344.18C292.802 344.063 293.167 344.005 293.507 344.005C293.846 344.005 294.169 344.053 294.477 344.148C294.795 344.233 295.071 344.36 295.304 344.53C295.823 344.912 296.083 345.426 296.083 346.073C296.083 347.144 295.261 348.485 293.618 350.096C293.3 350.415 292.966 350.749 292.616 351.098C292.277 351.438 291.98 351.719 291.725 351.941H295.654C295.802 351.941 295.908 351.989 295.972 352.085C296.046 352.18 296.083 352.286 296.083 352.403C296.083 352.509 296.046 352.609 295.972 352.705C295.898 352.79 295.792 352.832 295.654 352.832H291.201C290.946 352.832 290.755 352.779 290.628 352.673C290.511 352.567 290.453 352.44 290.453 352.291C290.453 352.005 290.591 351.745 290.867 351.512C291.068 351.332 291.323 351.077 291.63 350.749C291.937 350.42 292.24 350.107 292.537 349.81C292.833 349.513 293.125 349.201 293.411 348.872C293.708 348.533 293.973 348.204 294.206 347.886C294.715 347.197 294.97 346.624 294.97 346.168C294.97 345.765 294.811 345.452 294.493 345.23C294.196 345.018 293.851 344.912 293.459 344.912ZM298.958 349.556V352.339C298.958 352.498 298.905 352.62 298.799 352.705C298.693 352.79 298.577 352.832 298.449 352.832C298.333 352.832 298.221 352.795 298.115 352.721C298.02 352.636 297.972 352.509 297.972 352.339V344.578C297.972 344.419 298.025 344.297 298.131 344.212C298.237 344.127 298.333 344.085 298.418 344.085C298.513 344.085 298.587 344.095 298.64 344.116C298.704 344.138 298.757 344.169 298.799 344.212C298.905 344.318 298.958 344.44 298.958 344.578V349.222L301.726 346.9C301.821 346.804 301.927 346.757 302.044 346.757C302.16 346.757 302.261 346.794 302.346 346.868C302.431 346.942 302.473 347.016 302.473 347.091C302.473 347.239 302.431 347.345 302.346 347.409L299.976 349.381L302.648 352.148C302.722 352.244 302.759 352.323 302.759 352.387C302.759 352.45 302.744 352.509 302.712 352.562C302.69 352.615 302.659 352.662 302.616 352.705C302.51 352.79 302.399 352.832 302.282 352.832C302.176 352.832 302.07 352.779 301.964 352.673L298.958 349.556ZM305.032 349.556V352.339C305.032 352.498 304.979 352.62 304.873 352.705C304.767 352.79 304.65 352.832 304.523 352.832C304.406 352.832 304.295 352.795 304.189 352.721C304.094 352.636 304.046 352.509 304.046 352.339V344.578C304.046 344.419 304.099 344.297 304.205 344.212C304.311 344.127 304.406 344.085 304.491 344.085C304.587 344.085 304.661 344.095 304.714 344.116C304.777 344.138 304.83 344.169 304.873 344.212C304.979 344.318 305.032 344.44 305.032 344.578V349.222L307.799 346.9C307.895 346.804 308.001 346.757 308.117 346.757C308.234 346.757 308.335 346.794 308.42 346.868C308.504 346.942 308.547 347.016 308.547 347.091C308.547 347.239 308.504 347.345 308.42 347.409L306.05 349.381L308.722 352.148C308.796 352.244 308.833 352.323 308.833 352.387C308.833 352.45 308.817 352.509 308.785 352.562C308.764 352.615 308.732 352.662 308.69 352.705C308.584 352.79 308.473 352.832 308.356 352.832C308.25 352.832 308.144 352.779 308.038 352.673L305.032 349.556Z" fill="#565656"/>
<line x1="293.492" y1="357.772" x2="529.051" y2="357.772" stroke="#E2F1EA" stroke-width="1.25644"/>
<path opacity="0.5" d="M293.586 314.783C293.777 314.454 294.069 314.29 294.461 314.29C294.8 314.29 295.034 314.428 295.161 314.703C295.203 314.799 295.224 314.91 295.224 315.037V320.286H296.163C296.301 320.286 296.401 320.328 296.465 320.413C296.539 320.498 296.576 320.593 296.576 320.699C296.576 320.805 296.539 320.901 296.465 320.985C296.401 321.06 296.301 321.097 296.163 321.097H295.224V322.544C295.224 322.693 295.187 322.799 295.113 322.862C294.986 322.979 294.848 323.037 294.7 323.037C294.477 323.037 294.313 322.942 294.206 322.751C294.175 322.698 294.159 322.629 294.159 322.544V321.097H290.628C290.448 321.097 290.305 321.038 290.199 320.922C290.093 320.805 290.04 320.694 290.04 320.588C290.04 320.397 290.077 320.243 290.151 320.127L293.586 314.783ZM290.978 320.286H294.159V315.292L290.978 320.286ZM298.958 319.761V322.544C298.958 322.703 298.905 322.825 298.799 322.91C298.693 322.995 298.577 323.037 298.449 323.037C298.333 323.037 298.221 323 298.115 322.926C298.02 322.841 297.972 322.714 297.972 322.544V314.783C297.972 314.624 298.025 314.502 298.131 314.417C298.237 314.332 298.333 314.29 298.418 314.29C298.513 314.29 298.587 314.3 298.64 314.322C298.704 314.343 298.757 314.375 298.799 314.417C298.905 314.523 298.958 314.645 298.958 314.783V319.427L301.726 317.105C301.821 317.009 301.927 316.962 302.044 316.962C302.16 316.962 302.261 316.999 302.346 317.073C302.431 317.147 302.473 317.221 302.473 317.296C302.473 317.444 302.431 317.55 302.346 317.614L299.976 319.586L302.648 322.353C302.722 322.449 302.759 322.528 302.759 322.592C302.759 322.655 302.744 322.714 302.712 322.767C302.69 322.82 302.659 322.867 302.616 322.91C302.51 322.995 302.399 323.037 302.282 323.037C302.176 323.037 302.07 322.984 301.964 322.878L298.958 319.761ZM305.032 319.761V322.544C305.032 322.703 304.979 322.825 304.873 322.91C304.767 322.995 304.65 323.037 304.523 323.037C304.406 323.037 304.295 323 304.189 322.926C304.094 322.841 304.046 322.714 304.046 322.544V314.783C304.046 314.624 304.099 314.502 304.205 314.417C304.311 314.332 304.406 314.29 304.491 314.29C304.587 314.29 304.661 314.3 304.714 314.322C304.777 314.343 304.83 314.375 304.873 314.417C304.979 314.523 305.032 314.645 305.032 314.783V319.427L307.799 317.105C307.895 317.009 308.001 316.962 308.117 316.962C308.234 316.962 308.335 316.999 308.42 317.073C308.504 317.147 308.547 317.221 308.547 317.296C308.547 317.444 308.504 317.55 308.42 317.614L306.05 319.586L308.722 322.353C308.796 322.449 308.833 322.528 308.833 322.592C308.833 322.655 308.817 322.714 308.785 322.767C308.764 322.82 308.732 322.867 308.69 322.91C308.584 322.995 308.473 323.037 308.356 323.037C308.25 323.037 308.144 322.984 308.038 322.878L305.032 319.761Z" fill="#565656"/>
<line x1="293.492" y1="328.229" x2="529.051" y2="328.229" stroke="#E2F1EA" stroke-width="1.25644"/>
<path opacity="0.5" d="M291.614 285.165C291.879 284.931 292.197 284.751 292.568 284.624C292.939 284.486 293.427 284.417 294.032 284.417C294.636 284.417 295.214 284.566 295.765 284.863C295.892 284.916 295.956 285.027 295.956 285.197C295.956 285.377 295.876 285.52 295.717 285.626C295.664 285.658 295.611 285.674 295.558 285.674C295.516 285.674 295.421 285.642 295.272 285.578C294.827 285.398 294.403 285.308 294 285.308C293.597 285.308 293.263 285.361 292.998 285.467C292.733 285.573 292.51 285.716 292.33 285.896C292.15 286.066 292.001 286.267 291.884 286.501C291.768 286.734 291.678 286.983 291.614 287.248C291.519 287.704 291.471 288.245 291.471 288.87C291.683 288.436 291.985 288.112 292.377 287.9C292.77 287.678 293.199 287.566 293.666 287.566C294.132 287.566 294.53 287.635 294.859 287.773C295.198 287.911 295.484 288.102 295.717 288.346C296.195 288.844 296.433 289.528 296.433 290.397C296.433 291.288 296.179 292.004 295.67 292.544C295.161 293.096 294.456 293.371 293.554 293.371C291.413 293.371 290.342 291.988 290.342 289.22C290.342 287.259 290.766 285.907 291.614 285.165ZM293.491 292.513C293.766 292.513 294.021 292.465 294.254 292.369C294.487 292.274 294.689 292.141 294.859 291.972C295.177 291.622 295.336 291.113 295.336 290.445C295.336 289.48 295.018 288.833 294.381 288.505C294.169 288.399 293.904 288.346 293.586 288.346C293.279 288.346 292.998 288.399 292.743 288.505C292.499 288.611 292.293 288.759 292.123 288.95C291.784 289.31 291.614 289.83 291.614 290.509C291.614 291.102 291.784 291.579 292.123 291.94C292.484 292.322 292.939 292.513 293.491 292.513ZM298.958 289.968V292.751C298.958 292.91 298.905 293.032 298.799 293.117C298.693 293.202 298.577 293.244 298.449 293.244C298.333 293.244 298.221 293.207 298.115 293.133C298.02 293.048 297.972 292.921 297.972 292.751V284.99C297.972 284.831 298.025 284.709 298.131 284.624C298.237 284.539 298.333 284.497 298.418 284.497C298.513 284.497 298.587 284.507 298.64 284.529C298.704 284.55 298.757 284.582 298.799 284.624C298.905 284.73 298.958 284.852 298.958 284.99V289.634L301.726 287.312C301.821 287.216 301.927 287.169 302.044 287.169C302.16 287.169 302.261 287.206 302.346 287.28C302.431 287.354 302.473 287.428 302.473 287.503C302.473 287.651 302.431 287.757 302.346 287.821L299.976 289.793L302.648 292.56C302.722 292.656 302.759 292.735 302.759 292.799C302.759 292.862 302.744 292.921 302.712 292.974C302.69 293.027 302.659 293.074 302.616 293.117C302.51 293.202 302.399 293.244 302.282 293.244C302.176 293.244 302.07 293.191 301.964 293.085L298.958 289.968ZM305.032 289.968V292.751C305.032 292.91 304.979 293.032 304.873 293.117C304.767 293.202 304.65 293.244 304.523 293.244C304.406 293.244 304.295 293.207 304.189 293.133C304.094 293.048 304.046 292.921 304.046 292.751V284.99C304.046 284.831 304.099 284.709 304.205 284.624C304.311 284.539 304.406 284.497 304.491 284.497C304.587 284.497 304.661 284.507 304.714 284.529C304.777 284.55 304.83 284.582 304.873 284.624C304.979 284.73 305.032 284.852 305.032 284.99V289.634L307.799 287.312C307.895 287.216 308.001 287.169 308.117 287.169C308.234 287.169 308.335 287.206 308.42 287.28C308.504 287.354 308.547 287.428 308.547 287.503C308.547 287.651 308.504 287.757 308.42 287.821L306.05 289.793L308.722 292.56C308.796 292.656 308.833 292.735 308.833 292.799C308.833 292.862 308.817 292.921 308.785 292.974C308.764 293.027 308.732 293.074 308.69 293.117C308.584 293.202 308.473 293.244 308.356 293.244C308.25 293.244 308.144 293.191 308.038 293.085L305.032 289.968Z" fill="#565656"/>
<line x1="293.492" y1="297.909" x2="529.051" y2="297.909" stroke="#E2F1EA" stroke-width="1.25644"/>
<rect x="315.555" y="343.371" width="6.90141" height="47.1596" rx="3.4507" fill="#00B76A"/>
<rect x="332.809" y="342.221" width="8.05164" height="48.3099" rx="4.02582" fill="#00B76A"/>
<rect x="351.211" y="337.621" width="8.05164" height="52.9108" rx="4.02582" fill="#00B76A"/>
<rect x="369.613" y="334.17" width="8.05164" height="56.3615" rx="4.02582" fill="#00B76A"/>
<rect x="388.02" y="328.418" width="6.90141" height="62.1127" rx="3.4507" fill="#00B76A"/>
<rect x="406.422" y="311.164" width="6.90141" height="79.3662" rx="3.4507" fill="#00B76A"/>
<rect x="424.828" y="307.715" width="8.05164" height="82.8169" rx="4.02582" fill="#00B76A"/>
<rect width="7.53863" height="71.074" rx="3.76932" transform="matrix(0.999999 0.00145042 -0.00199964 0.999998 443.504 319.582)" fill="#00B76A"/>
<rect width="7.53863" height="63.5664" rx="3.76932" transform="matrix(0.999999 0.00145042 -0.00199964 0.999998 461.992 327.09)" fill="#00B76A"/>
<rect x="480.039" y="319.217" width="8.05164" height="71.3146" rx="4.02582" fill="#00B76A"/>
<rect x="498.441" y="297.361" width="8.05164" height="93.169" rx="4.02582" fill="#00B76A"/>
<rect x="517.996" y="282.41" width="6.90141" height="108.122" rx="3.4507" fill="#00B76A"/>
<path d="M300.514 257.96C299.238 257.96 298.085 257.678 297.054 257.113C296.036 256.549 295.232 255.77 294.643 254.776C294.067 253.77 293.778 252.647 293.778 251.408C293.778 250.169 294.067 249.053 294.643 248.059C295.232 247.053 296.042 246.268 297.073 245.703C298.103 245.139 299.257 244.857 300.533 244.857C301.49 244.857 302.373 245.016 303.183 245.335C303.992 245.654 304.68 246.12 305.244 246.734L304.379 247.599C303.373 246.58 302.103 246.071 300.569 246.071C299.551 246.071 298.625 246.304 297.79 246.771C296.956 247.237 296.3 247.875 295.821 248.685C295.355 249.494 295.122 250.402 295.122 251.408C295.122 252.414 295.355 253.322 295.821 254.132C296.3 254.942 296.956 255.58 297.79 256.046C298.625 256.512 299.551 256.745 300.569 256.745C302.115 256.745 303.385 256.23 304.379 255.199L305.244 256.064C304.68 256.678 303.986 257.15 303.164 257.482C302.355 257.801 301.471 257.96 300.514 257.96ZM312.731 248.096C313.639 248.096 314.461 248.304 315.197 248.721C315.933 249.126 316.51 249.703 316.927 250.451C317.344 251.2 317.553 252.052 317.553 253.009C317.553 253.979 317.344 254.838 316.927 255.586C316.51 256.334 315.933 256.917 315.197 257.334C314.473 257.739 313.651 257.942 312.731 257.942C311.946 257.942 311.234 257.782 310.596 257.463C309.97 257.132 309.455 256.653 309.05 256.028V261.42H307.744V248.169H308.995V250.083C309.388 249.445 309.903 248.954 310.541 248.611C311.191 248.267 311.921 248.096 312.731 248.096ZM312.639 256.782C313.314 256.782 313.927 256.629 314.479 256.322C315.031 256.003 315.461 255.555 315.768 254.979C316.087 254.402 316.246 253.746 316.246 253.009C316.246 252.273 316.087 251.623 315.768 251.059C315.461 250.482 315.031 250.034 314.479 249.715C313.927 249.396 313.314 249.237 312.639 249.237C311.952 249.237 311.332 249.396 310.78 249.715C310.24 250.034 309.811 250.482 309.492 251.059C309.185 251.623 309.032 252.273 309.032 253.009C309.032 253.746 309.185 254.402 309.492 254.979C309.811 255.555 310.24 256.003 310.78 256.322C311.332 256.629 311.952 256.782 312.639 256.782ZM328.826 253.414H320.728C320.802 254.42 321.188 255.236 321.888 255.862C322.587 256.475 323.47 256.782 324.538 256.782C325.139 256.782 325.691 256.678 326.194 256.469C326.697 256.248 327.133 255.929 327.501 255.512L328.237 256.359C327.808 256.874 327.268 257.267 326.617 257.537C325.979 257.807 325.274 257.942 324.501 257.942C323.507 257.942 322.624 257.733 321.851 257.316C321.09 256.886 320.495 256.298 320.066 255.549C319.636 254.801 319.422 253.954 319.422 253.009C319.422 252.065 319.624 251.218 320.029 250.47C320.446 249.721 321.01 249.138 321.722 248.721C322.446 248.304 323.256 248.096 324.151 248.096C325.047 248.096 325.851 248.304 326.562 248.721C327.274 249.138 327.832 249.721 328.237 250.47C328.642 251.206 328.844 252.052 328.844 253.009L328.826 253.414ZM324.151 249.218C323.219 249.218 322.434 249.519 321.796 250.12C321.17 250.709 320.814 251.482 320.728 252.439H327.593C327.507 251.482 327.145 250.709 326.507 250.12C325.881 249.519 325.096 249.218 324.151 249.218ZM340.98 256.709V260.187H339.747V257.85H331.079V260.187H329.846V256.709H330.398C331.048 256.672 331.49 256.193 331.723 255.273C331.956 254.353 332.116 253.065 332.202 251.408L332.33 248.169H339.471V256.709H340.98ZM333.398 251.482C333.336 252.856 333.22 253.991 333.048 254.887C332.876 255.77 332.57 256.377 332.128 256.709H338.164V249.329H333.508L333.398 251.482ZM343.527 248.169H344.833V252.457H350.925V248.169H352.232V257.85H350.925V253.58H344.833V257.85H343.527V248.169ZM355.946 248.169H357.252V255.862L363.712 248.169H364.871V257.85H363.565V250.157L357.123 257.85H355.946V248.169ZM368.616 248.169H369.923V255.862L376.382 248.169H377.542V257.85H376.235V250.157L369.794 257.85H368.616V248.169ZM373.015 246.771C372.18 246.771 371.518 246.562 371.027 246.145C370.536 245.728 370.285 245.139 370.272 244.378H371.211C371.223 244.857 371.395 245.243 371.726 245.537C372.058 245.82 372.487 245.961 373.015 245.961C373.542 245.961 373.972 245.82 374.303 245.537C374.646 245.243 374.824 244.857 374.837 244.378H375.775C375.763 245.139 375.505 245.728 375.002 246.145C374.511 246.562 373.849 246.771 373.015 246.771ZM393.41 248.169V257.85H392.103V253.819C390.986 254.31 389.888 254.555 388.809 254.555C387.643 254.555 386.735 254.292 386.085 253.764C385.435 253.224 385.109 252.421 385.109 251.353V248.169H386.416V251.279C386.416 252.003 386.649 252.555 387.115 252.936C387.582 253.304 388.226 253.488 389.048 253.488C389.956 253.488 390.974 253.249 392.103 252.77V248.169H393.41ZM405.586 253.414H397.488C397.562 254.42 397.949 255.236 398.648 255.862C399.347 256.475 400.231 256.782 401.298 256.782C401.899 256.782 402.451 256.678 402.954 256.469C403.457 256.248 403.893 255.929 404.261 255.512L404.997 256.359C404.568 256.874 404.028 257.267 403.378 257.537C402.74 257.807 402.034 257.942 401.261 257.942C400.267 257.942 399.384 257.733 398.611 257.316C397.85 256.886 397.255 256.298 396.826 255.549C396.396 254.801 396.182 253.954 396.182 253.009C396.182 252.065 396.384 251.218 396.789 250.47C397.206 249.721 397.771 249.138 398.482 248.721C399.206 248.304 400.016 248.096 400.912 248.096C401.807 248.096 402.611 248.304 403.322 248.721C404.034 249.138 404.592 249.721 404.997 250.47C405.402 251.206 405.604 252.052 405.604 253.009L405.586 253.414ZM400.912 249.218C399.979 249.218 399.194 249.519 398.556 250.12C397.93 250.709 397.574 251.482 397.488 252.439H404.353C404.267 251.482 403.905 250.709 403.267 250.12C402.641 249.519 401.856 249.218 400.912 249.218ZM412.012 253.543H409.804V257.85H408.497V248.169H409.804V252.421H412.03L415.435 248.169H416.852L413.043 252.862L417.128 257.85H415.582L412.012 253.543Z" fill="#565656"/>
<defs>
<filter id="filter0_f_784_1394" x="107" y="0" width="442" height="326" filterUnits="userSpaceOnUse" color-interpolation-filters="sRGB">
<feFlood flood-opacity="0" result="BackgroundImageFix"/>
<feBlend mode="normal" in="SourceGraphic" in2="BackgroundImageFix" result="shape"/>
<feGaussianBlur stdDeviation="32" result="effect1_foregroundBlur_784_1394"/>
</filter>
<filter id="filter1_f_784_1394" x="19" y="129" width="442" height="326" filterUnits="userSpaceOnUse" color-interpolation-filters="sRGB">
<feFlood flood-opacity="0" result="BackgroundImageFix"/>
<feBlend mode="normal" in="SourceGraphic" in2="BackgroundImageFix" result="shape"/>
<feGaussianBlur stdDeviation="32" result="effect1_foregroundBlur_784_1394"/>
</filter>
<filter id="filter2_f_784_1394" x="197" y="139" width="442" height="326" filterUnits="userSpaceOnUse" color-interpolation-filters="sRGB">
<feFlood flood-opacity="0" result="BackgroundImageFix"/>
<feBlend mode="normal" in="SourceGraphic" in2="BackgroundImageFix" result="shape"/>
<feGaussianBlur stdDeviation="32" result="effect1_foregroundBlur_784_1394"/>
</filter>
<filter id="filter3_d_784_1394" x="11.892" y="219.145" width="333.568" height="209.343" filterUnits="userSpaceOnUse" color-interpolation-filters="sRGB">
<feFlood flood-opacity="0" result="BackgroundImageFix"/>
<feColorMatrix in="SourceAlpha" type="matrix" values="0 0 0 0 0 0 0 0 0 0 0 0 0 0 0 0 0 0 127 0" result="hardAlpha"/>
<feOffset dy="4.60094"/>
<feGaussianBlur stdDeviation="19.554"/>
<feComposite in2="hardAlpha" operator="out"/>
<feColorMatrix type="matrix" values="0 0 0 0 0 0 0 0 0 0 0 0 0 0 0 0 0 0 0.1 0"/>
<feBlend mode="normal" in2="BackgroundImageFix" result="effect1_dropShadow_784_1394"/>
<feBlend mode="normal" in="SourceGraphic" in2="effect1_dropShadow_784_1394" result="shape"/>
</filter>
<filter id="filter4_d_784_1394" x="129.216" y="39.7098" width="355.423" height="271.455" filterUnits="userSpaceOnUse" color-interpolation-filters="sRGB">
<feFlood flood-opacity="0" result="BackgroundImageFix"/>
<feColorMatrix in="SourceAlpha" type="matrix" values="0 0 0 0 0 0 0 0 0 0 0 0 0 0 0 0 0 0 127 0" result="hardAlpha"/>
<feOffset dy="4.60094"/>
<feGaussianBlur stdDeviation="19.554"/>
<feComposite in2="hardAlpha" operator="out"/>
<feColorMatrix type="matrix" values="0 0 0 0 0 0 0 0 0 0 0 0 0 0 0 0 0 0 0.1 0"/>
<feBlend mode="normal" in2="BackgroundImageFix" result="effect1_dropShadow_784_1394"/>
<feBlend mode="normal" in="SourceGraphic" in2="effect1_dropShadow_784_1394" result="shape"/>
</filter>
<filter id="filter5_d_784_1394" x="241.939" y="194.991" width="338.169" height="256.503" filterUnits="userSpaceOnUse" color-interpolation-filters="sRGB">
<feFlood flood-opacity="0" result="BackgroundImageFix"/>
<feColorMatrix in="SourceAlpha" type="matrix" values="0 0 0 0 0 0 0 0 0 0 0 0 0 0 0 0 0 0 127 0" result="hardAlpha"/>
<feOffset dy="4.60094"/>
<feGaussianBlur stdDeviation="19.554"/>
<feComposite in2="hardAlpha" operator="out"/>
<feColorMatrix type="matrix" values="0 0 0 0 0 0 0 0 0 0 0 0 0 0 0 0 0 0 0.1 0"/>
<feBlend mode="normal" in2="BackgroundImageFix" result="effect1_dropShadow_784_1394"/>
<feBlend mode="normal" in="SourceGraphic" in2="effect1_dropShadow_784_1394" result="shape"/>
</filter>
<linearGradient id="paint0_linear_784_1394" x1="52.6369" y1="255.694" x2="307.68" y2="376.936" gradientUnits="userSpaceOnUse">
<stop stop-color="#FCF6FF"/>
<stop offset="1" stop-color="#F8F0FD"/>
</linearGradient>
<linearGradient id="paint1_linear_784_1394" x1="232.738" y1="315.766" x2="232.738" y2="375.578" gradientUnits="userSpaceOnUse">
<stop stop-color="#EABDFF"/>
<stop offset="0.700529" stop-color="#EED1FF" stop-opacity="0"/>
<stop offset="1" stop-color="#EBD1FF" stop-opacity="0"/>
</linearGradient>
<linearGradient id="paint2_linear_784_1394" x1="232.314" y1="315.766" x2="232.314" y2="352.729" gradientUnits="userSpaceOnUse">
<stop stop-color="#E168FF"/>
<stop offset="1" stop-color="#ECA1FF"/>
</linearGradient>
<linearGradient id="paint3_linear_784_1394" x1="170.101" y1="77.2257" x2="472.462" y2="183.108" gradientUnits="userSpaceOnUse">
<stop stop-color="#FAFDFC"/>
<stop offset="1" stop-color="#F0F8FD"/>
</linearGradient>
<linearGradient id="paint4_linear_784_1394" x1="416.888" y1="140.595" x2="192.922" y2="145.195" gradientUnits="userSpaceOnUse">
<stop stop-color="#1C89D1"/>
<stop offset="1" stop-color="#2FA0EB"/>
</linearGradient>
<linearGradient id="paint5_linear_784_1394" x1="416.888" y1="140.595" x2="192.922" y2="145.195" gradientUnits="userSpaceOnUse">
<stop stop-color="#1C89D1"/>
<stop offset="1" stop-color="#2FA0EB"/>
</linearGradient>
<linearGradient id="paint6_linear_784_1394" x1="271.809" y1="189.516" x2="350.269" y2="191.858" gradientUnits="userSpaceOnUse">
<stop stop-color="#1C89D1"/>
<stop offset="1" stop-color="#2FA0EB"/>
</linearGradient>
<linearGradient id="paint7_linear_784_1394" x1="282.713" y1="232.274" x2="565.234" y2="332.832" gradientUnits="userSpaceOnUse">
<stop stop-color="#E9FFF8"/>
<stop offset="1" stop-color="#F0FDF2"/>
</linearGradient>
<clipPath id="clip0_784_1394">
<rect width="219.695" height="159.917" fill="white" transform="translate(197.082 97.2227)"/>
</clipPath>
</defs>
</svg>
