<svg width="609" height="321" viewBox="0 0 609 321" fill="none" xmlns="http://www.w3.org/2000/svg">
<g id="2">
<g id="2-1">
<g id="Rectangle 222" filter="url(#filter0_d_884_2532)">
<rect x="229" y="30" width="345.435" height="219.661" rx="10" fill="url(#paint0_linear_884_2532)"/>
</g>
<g id="2-1-range-min">
<path id="Vector 18" d="M286.574 208.918C289.052 207.31 291.698 205.625 294.5 203.875" stroke="#FF7A00" stroke-opacity="0.7" stroke-width="3.33" stroke-linecap="round"/>
</g>
<g id="2-2-range-max">
<path id="Vector 18_2" d="M286.574 208.918C289.052 207.31 291.698 205.625 294.5 203.875M536.35 114.238C463.566 111.571 354.829 166.864 299 201.091M294.5 203.875C295.958 202.964 297.459 202.036 299 201.091M294.5 203.875L299 201.091" stroke="#FF7A00" stroke-opacity="0.7" stroke-width="3.33" stroke-linecap="round"/>
</g>
<g id="2-1-aura">
<path id="Vector 22" d="M265.361 202.88C262.861 210.88 273.361 219.38 296.361 215.38C309.348 213.121 405.861 157.285 443.361 152.582C480.861 147.88 536.861 134.88 549.361 126.38C561.861 117.88 556.861 90.8796 524.861 88.8797C492.861 86.8798 490.361 84.2834 435.861 94.0816C381.361 103.88 315.361 167.38 296.861 177.88C278.361 188.38 267.861 194.88 265.361 202.88Z" fill="#FF7A00"/>
</g>
<path id="Arrow 1" d="M397.478 79.3286C397.214 79.0646 396.786 79.0646 396.522 79.3286L392.221 83.6299C391.957 83.8938 391.957 84.3218 392.221 84.5857C392.485 84.8496 392.913 84.8496 393.177 84.5857L397 80.7623L400.823 84.5857C401.087 84.8496 401.515 84.8496 401.779 84.5857C402.043 84.3218 402.043 83.8938 401.779 83.6299L397.478 79.3286ZM397.676 94L397.676 79.8065L396.324 79.8065L396.324 94L397.676 94Z" fill="#FF7A00"/>
<path id="&#208;&#160;&#208;&#190;&#209;&#129;&#209;&#130; &#208;&#191;&#209;&#128;&#208;&#190;&#208;&#180;&#208;&#176;&#208;&#182; &#209;&#129; &#209;&#128;&#208;&#176;&#209;&#129;&#209;&#129;&#209;&#139;&#208;&#187;&#208;&#186;&#208;&#184;" d="M254.08 53.8C255.509 53.8 256.629 54.1413 257.44 54.824C258.251 55.5067 258.656 56.4453 258.656 57.64C258.656 58.8347 258.251 59.7733 257.44 60.456C256.629 61.128 255.509 61.464 254.08 61.464H251.072V65H249.888V53.8H254.08ZM254.048 60.424C255.157 60.424 256.005 60.184 256.592 59.704C257.179 59.2133 257.472 58.5253 257.472 57.64C257.472 56.7333 257.179 56.04 256.592 55.56C256.005 55.0693 255.157 54.824 254.048 54.824H251.072V60.424H254.048ZM264.244 65.08C263.434 65.08 262.703 64.8987 262.052 64.536C261.402 64.1627 260.89 63.6507 260.516 63C260.143 62.3493 259.956 61.6133 259.956 60.792C259.956 59.9707 260.143 59.2347 260.516 58.584C260.89 57.9333 261.402 57.4267 262.052 57.064C262.703 56.7013 263.434 56.52 264.244 56.52C265.055 56.52 265.786 56.7013 266.436 57.064C267.087 57.4267 267.594 57.9333 267.956 58.584C268.33 59.2347 268.516 59.9707 268.516 60.792C268.516 61.6133 268.33 62.3493 267.956 63C267.594 63.6507 267.087 64.1627 266.436 64.536C265.786 64.8987 265.055 65.08 264.244 65.08ZM264.244 64.072C264.842 64.072 265.375 63.9387 265.844 63.672C266.324 63.3947 266.698 63.0053 266.964 62.504C267.231 62.0027 267.364 61.432 267.364 60.792C267.364 60.152 267.231 59.5813 266.964 59.08C266.698 58.5787 266.324 58.1947 265.844 57.928C265.375 57.6507 264.842 57.512 264.244 57.512C263.647 57.512 263.108 57.6507 262.628 57.928C262.159 58.1947 261.786 58.5787 261.508 59.08C261.242 59.5813 261.108 60.152 261.108 60.792C261.108 61.432 261.242 62.0027 261.508 62.504C261.786 63.0053 262.159 63.3947 262.628 63.672C263.108 63.9387 263.647 64.072 264.244 64.072ZM274.464 65.08C273.632 65.08 272.885 64.8987 272.224 64.536C271.573 64.1733 271.061 63.6667 270.688 63.016C270.315 62.3547 270.128 61.6133 270.128 60.792C270.128 59.9707 270.315 59.2347 270.688 58.584C271.061 57.9333 271.573 57.4267 272.224 57.064C272.885 56.7013 273.632 56.52 274.464 56.52C275.189 56.52 275.835 56.664 276.4 56.952C276.976 57.2293 277.429 57.64 277.76 58.184L276.912 58.76C276.635 58.344 276.283 58.0347 275.856 57.832C275.429 57.6187 274.965 57.512 274.464 57.512C273.856 57.512 273.307 57.6507 272.816 57.928C272.336 58.1947 271.957 58.5787 271.68 59.08C271.413 59.5813 271.28 60.152 271.28 60.792C271.28 61.4427 271.413 62.0187 271.68 62.52C271.957 63.0107 272.336 63.3947 272.816 63.672C273.307 63.9387 273.856 64.072 274.464 64.072C274.965 64.072 275.429 63.9707 275.856 63.768C276.283 63.5653 276.635 63.256 276.912 62.84L277.76 63.416C277.429 63.96 276.976 64.376 276.4 64.664C275.824 64.9413 275.179 65.08 274.464 65.08ZM285.724 57.592H282.54V65H281.404V57.592H278.22V56.584H285.724V57.592ZM299.106 56.584V65H297.97V57.592H292.69V65H291.554V56.584H299.106ZM306.671 56.52C307.46 56.52 308.175 56.7013 308.815 57.064C309.455 57.416 309.956 57.9173 310.319 58.568C310.681 59.2187 310.863 59.96 310.863 60.792C310.863 61.6347 310.681 62.3813 310.319 63.032C309.956 63.6827 309.455 64.1893 308.815 64.552C308.185 64.904 307.471 65.08 306.671 65.08C305.988 65.08 305.369 64.9413 304.815 64.664C304.271 64.376 303.823 63.96 303.471 63.416V68.104H302.335V56.584H303.423V58.248C303.764 57.6933 304.212 57.2667 304.767 56.968C305.332 56.6693 305.967 56.52 306.671 56.52ZM306.591 64.072C307.177 64.072 307.711 63.9387 308.191 63.672C308.671 63.3947 309.044 63.0053 309.311 62.504C309.588 62.0027 309.727 61.432 309.727 60.792C309.727 60.152 309.588 59.5867 309.311 59.096C309.044 58.5947 308.671 58.2053 308.191 57.928C307.711 57.6507 307.177 57.512 306.591 57.512C305.993 57.512 305.455 57.6507 304.975 57.928C304.505 58.2053 304.132 58.5947 303.855 59.096C303.588 59.5867 303.455 60.152 303.455 60.792C303.455 61.432 303.588 62.0027 303.855 62.504C304.132 63.0053 304.505 63.3947 304.975 63.672C305.455 63.9387 305.993 64.072 306.591 64.072ZM316.776 65.08C315.965 65.08 315.234 64.8987 314.584 64.536C313.933 64.1627 313.421 63.6507 313.048 63C312.674 62.3493 312.488 61.6133 312.488 60.792C312.488 59.9707 312.674 59.2347 313.048 58.584C313.421 57.9333 313.933 57.4267 314.584 57.064C315.234 56.7013 315.965 56.52 316.776 56.52C317.586 56.52 318.317 56.7013 318.968 57.064C319.618 57.4267 320.125 57.9333 320.488 58.584C320.861 59.2347 321.048 59.9707 321.048 60.792C321.048 61.6133 320.861 62.3493 320.488 63C320.125 63.6507 319.618 64.1627 318.968 64.536C318.317 64.8987 317.586 65.08 316.776 65.08ZM316.776 64.072C317.373 64.072 317.906 63.9387 318.376 63.672C318.856 63.3947 319.229 63.0053 319.496 62.504C319.762 62.0027 319.896 61.432 319.896 60.792C319.896 60.152 319.762 59.5813 319.496 59.08C319.229 58.5787 318.856 58.1947 318.376 57.928C317.906 57.6507 317.373 57.512 316.776 57.512C316.178 57.512 315.64 57.6507 315.16 57.928C314.69 58.1947 314.317 58.5787 314.039 59.08C313.773 59.5813 313.64 60.152 313.64 60.792C313.64 61.432 313.773 62.0027 314.039 62.504C314.317 63.0053 314.69 63.3947 315.16 63.672C315.64 63.9387 316.178 64.072 316.776 64.072ZM331.637 64.008V67.032H330.565V65H323.029V67.032H321.957V64.008H322.437C323.002 63.976 323.386 63.56 323.589 62.76C323.791 61.96 323.93 60.84 324.005 59.4L324.117 56.584H330.325V64.008H331.637ZM325.045 59.464C324.991 60.6587 324.89 61.6453 324.741 62.424C324.591 63.192 324.325 63.72 323.941 64.008H329.189V57.592H325.141L325.045 59.464ZM336.746 56.52C337.845 56.52 338.688 56.7973 339.274 57.352C339.861 57.896 340.154 58.7067 340.154 59.784V65H339.066V63.688C338.81 64.1253 338.432 64.4667 337.93 64.712C337.44 64.9573 336.853 65.08 336.17 65.08C335.232 65.08 334.485 64.856 333.93 64.408C333.376 63.96 333.098 63.368 333.098 62.632C333.098 61.9173 333.354 61.3413 333.866 60.904C334.389 60.4667 335.216 60.248 336.346 60.248H339.018V59.736C339.018 59.0107 338.816 58.4613 338.41 58.088C338.005 57.704 337.413 57.512 336.634 57.512C336.101 57.512 335.589 57.6027 335.098 57.784C334.608 57.9547 334.186 58.1947 333.834 58.504L333.322 57.656C333.749 57.2933 334.261 57.016 334.858 56.824C335.456 56.6213 336.085 56.52 336.746 56.52ZM336.346 64.184C336.986 64.184 337.536 64.04 337.994 63.752C338.453 63.4533 338.794 63.0267 339.018 62.472V61.096H336.378C334.938 61.096 334.218 61.5973 334.218 62.6C334.218 63.0907 334.405 63.48 334.778 63.768C335.152 64.0453 335.674 64.184 336.346 64.184ZM350.555 61.256H348.731V65H347.595V61.256H345.771L343.195 65H341.835L344.859 60.664L342.075 56.584H343.307L345.771 60.28H347.595V56.584H348.731V60.28H350.555L353.035 56.584H354.267L351.483 60.68L354.507 65H353.147L350.555 61.256ZM364.105 65.08C363.273 65.08 362.526 64.8987 361.865 64.536C361.214 64.1733 360.702 63.6667 360.329 63.016C359.955 62.3547 359.769 61.6133 359.769 60.792C359.769 59.9707 359.955 59.2347 360.329 58.584C360.702 57.9333 361.214 57.4267 361.865 57.064C362.526 56.7013 363.273 56.52 364.105 56.52C364.83 56.52 365.475 56.664 366.041 56.952C366.617 57.2293 367.07 57.64 367.401 58.184L366.553 58.76C366.275 58.344 365.923 58.0347 365.497 57.832C365.07 57.6187 364.606 57.512 364.105 57.512C363.497 57.512 362.947 57.6507 362.457 57.928C361.977 58.1947 361.598 58.5787 361.321 59.08C361.054 59.5813 360.921 60.152 360.921 60.792C360.921 61.4427 361.054 62.0187 361.321 62.52C361.598 63.0107 361.977 63.3947 362.457 63.672C362.947 63.9387 363.497 64.072 364.105 64.072C364.606 64.072 365.07 63.9707 365.497 63.768C365.923 63.5653 366.275 63.256 366.553 62.84L367.401 63.416C367.07 63.96 366.617 64.376 366.041 64.664C365.465 64.9413 364.819 65.08 364.105 65.08ZM378.124 56.52C378.913 56.52 379.628 56.7013 380.268 57.064C380.908 57.416 381.409 57.9173 381.772 58.568C382.135 59.2187 382.316 59.96 382.316 60.792C382.316 61.6347 382.135 62.3813 381.772 63.032C381.409 63.6827 380.908 64.1893 380.268 64.552C379.639 64.904 378.924 65.08 378.124 65.08C377.441 65.08 376.823 64.9413 376.268 64.664C375.724 64.376 375.276 63.96 374.924 63.416V68.104H373.788V56.584H374.876V58.248C375.217 57.6933 375.665 57.2667 376.22 56.968C376.785 56.6693 377.42 56.52 378.124 56.52ZM378.044 64.072C378.631 64.072 379.164 63.9387 379.644 63.672C380.124 63.3947 380.497 63.0053 380.764 62.504C381.041 62.0027 381.18 61.432 381.18 60.792C381.18 60.152 381.041 59.5867 380.764 59.096C380.497 58.5947 380.124 58.2053 379.644 57.928C379.164 57.6507 378.631 57.512 378.044 57.512C377.447 57.512 376.908 57.6507 376.428 57.928C375.959 58.2053 375.585 58.5947 375.308 59.096C375.041 59.5867 374.908 60.152 374.908 60.792C374.908 61.432 375.041 62.0027 375.308 62.504C375.585 63.0053 375.959 63.3947 376.428 63.672C376.908 63.9387 377.447 64.072 378.044 64.072ZM387.606 56.52C388.704 56.52 389.547 56.7973 390.134 57.352C390.72 57.896 391.014 58.7067 391.014 59.784V65H389.926V63.688C389.67 64.1253 389.291 64.4667 388.79 64.712C388.299 64.9573 387.712 65.08 387.03 65.08C386.091 65.08 385.344 64.856 384.79 64.408C384.235 63.96 383.958 63.368 383.958 62.632C383.958 61.9173 384.214 61.3413 384.726 60.904C385.248 60.4667 386.075 60.248 387.206 60.248H389.878V59.736C389.878 59.0107 389.675 58.4613 389.27 58.088C388.864 57.704 388.272 57.512 387.494 57.512C386.96 57.512 386.448 57.6027 385.958 57.784C385.467 57.9547 385.046 58.1947 384.694 58.504L384.182 57.656C384.608 57.2933 385.12 57.016 385.718 56.824C386.315 56.6213 386.944 56.52 387.606 56.52ZM387.206 64.184C387.846 64.184 388.395 64.04 388.854 63.752C389.312 63.4533 389.654 63.0267 389.878 62.472V61.096H387.238C385.798 61.096 385.078 61.5973 385.078 62.6C385.078 63.0907 385.264 63.48 385.638 63.768C386.011 64.0453 386.534 64.184 387.206 64.184ZM397.558 65.08C396.726 65.08 395.979 64.8987 395.318 64.536C394.667 64.1733 394.155 63.6667 393.782 63.016C393.409 62.3547 393.222 61.6133 393.222 60.792C393.222 59.9707 393.409 59.2347 393.782 58.584C394.155 57.9333 394.667 57.4267 395.318 57.064C395.979 56.7013 396.726 56.52 397.558 56.52C398.283 56.52 398.929 56.664 399.494 56.952C400.07 57.2293 400.523 57.64 400.854 58.184L400.006 58.76C399.729 58.344 399.377 58.0347 398.95 57.832C398.523 57.6187 398.059 57.512 397.558 57.512C396.95 57.512 396.401 57.6507 395.91 57.928C395.43 58.1947 395.051 58.5787 394.774 59.08C394.507 59.5813 394.374 60.152 394.374 60.792C394.374 61.4427 394.507 62.0187 394.774 62.52C395.051 63.0107 395.43 63.3947 395.91 63.672C396.401 63.9387 396.95 64.072 397.558 64.072C398.059 64.072 398.523 63.9707 398.95 63.768C399.377 63.5653 399.729 63.256 400.006 62.84L400.854 63.416C400.523 63.96 400.07 64.376 399.494 64.664C398.918 64.9413 398.273 65.08 397.558 65.08ZM406.433 65.08C405.601 65.08 404.854 64.8987 404.193 64.536C403.542 64.1733 403.03 63.6667 402.657 63.016C402.284 62.3547 402.097 61.6133 402.097 60.792C402.097 59.9707 402.284 59.2347 402.657 58.584C403.03 57.9333 403.542 57.4267 404.193 57.064C404.854 56.7013 405.601 56.52 406.433 56.52C407.158 56.52 407.804 56.664 408.369 56.952C408.945 57.2293 409.398 57.64 409.729 58.184L408.881 58.76C408.604 58.344 408.252 58.0347 407.825 57.832C407.398 57.6187 406.934 57.512 406.433 57.512C405.825 57.512 405.276 57.6507 404.785 57.928C404.305 58.1947 403.926 58.5787 403.649 59.08C403.382 59.5813 403.249 60.152 403.249 60.792C403.249 61.4427 403.382 62.0187 403.649 62.52C403.926 63.0107 404.305 63.3947 404.785 63.672C405.276 63.9387 405.825 64.072 406.433 64.072C406.934 64.072 407.398 63.9707 407.825 63.768C408.252 63.5653 408.604 63.256 408.881 62.84L409.729 63.416C409.398 63.96 408.945 64.376 408.369 64.664C407.793 64.9413 407.148 65.08 406.433 65.08ZM415.465 59.56C416.521 59.5707 417.326 59.8053 417.881 60.264C418.435 60.7227 418.713 61.384 418.713 62.248C418.713 63.144 418.414 63.832 417.817 64.312C417.219 64.792 416.366 65.0267 415.257 65.016L411.929 65V56.584H413.065V59.528L415.465 59.56ZM420.121 56.584H421.257V65H420.121V56.584ZM415.193 64.152C415.971 64.1627 416.558 64.008 416.953 63.688C417.358 63.3573 417.561 62.8773 417.561 62.248C417.561 61.6293 417.363 61.1707 416.969 60.872C416.574 60.5733 415.982 60.4187 415.193 60.408L413.065 60.376V64.12L415.193 64.152ZM431.371 56.584V65H430.235V57.592H426.203L426.091 59.672C426.006 61.4213 425.803 62.7653 425.483 63.704C425.163 64.6427 424.592 65.112 423.771 65.112C423.547 65.112 423.275 65.0693 422.955 64.984L423.035 64.008C423.227 64.0507 423.36 64.072 423.435 64.072C423.872 64.072 424.203 63.8693 424.427 63.464C424.651 63.0587 424.8 62.5573 424.875 61.96C424.95 61.3627 425.014 60.5733 425.067 59.592L425.211 56.584H431.371ZM437.656 61.256H435.736V65H434.6V56.584H435.736V60.28H437.672L440.632 56.584H441.864L438.552 60.664L442.104 65H440.76L437.656 61.256ZM443.897 56.584H445.033V63.272L450.649 56.584H451.657V65H450.521V58.312L444.921 65H443.897V56.584Z" fill="#2D2D2D"/>
<path id="12 350 000 &#226;&#130;&#189;" d="M254.569 80.1197V95H251.125V82.8832H248.149V80.1197H254.569ZM268.271 92.194V95H257.026V92.768L262.766 87.3473C263.375 86.7662 263.786 86.2702 263.998 85.8593C264.211 85.4341 264.317 85.016 264.317 84.6051C264.317 84.0098 264.112 83.5564 263.701 83.2446C263.304 82.9186 262.716 82.7557 261.936 82.7557C261.285 82.7557 260.696 82.8832 260.172 83.1383C259.648 83.3792 259.208 83.7477 258.854 84.2437L256.346 82.6281C256.927 81.7636 257.727 81.0905 258.748 80.6086C259.768 80.1126 260.937 79.8646 262.255 79.8646C263.361 79.8646 264.324 80.0489 265.146 80.4173C265.982 80.7716 266.627 81.2818 267.081 81.9479C267.548 82.5998 267.782 83.3721 267.782 84.2649C267.782 85.0727 267.612 85.8309 267.272 86.5395C266.932 87.2481 266.273 88.0559 265.295 88.9629L261.873 92.194H268.271ZM282.664 86.1781C283.967 86.3907 284.966 86.8796 285.661 87.6449C286.355 88.396 286.703 89.3313 286.703 90.4509C286.703 91.3154 286.476 92.1161 286.022 92.853C285.569 93.5757 284.874 94.1568 283.939 94.5961C283.018 95.0354 281.884 95.2551 280.538 95.2551C279.489 95.2551 278.455 95.1205 277.434 94.8512C276.428 94.5678 275.571 94.171 274.862 93.6608L276.201 91.0248C276.768 91.45 277.42 91.783 278.157 92.0239C278.908 92.2507 279.673 92.3641 280.453 92.3641C281.317 92.3641 281.998 92.2011 282.494 91.8751C282.99 91.535 283.238 91.0603 283.238 90.4509C283.238 89.2321 282.309 88.6227 280.453 88.6227H278.88V86.3482L281.941 82.8832H275.606V80.1197H286.022V82.3518L282.664 86.1781ZM293.187 85.7105C295.284 85.7105 296.829 86.1285 297.821 86.9646C298.827 87.8008 299.33 88.9203 299.33 90.3233C299.33 91.2303 299.103 92.0594 298.65 92.8105C298.196 93.5474 297.502 94.1426 296.567 94.5961C295.646 95.0354 294.505 95.2551 293.144 95.2551C292.096 95.2551 291.061 95.1205 290.041 94.8512C289.034 94.5678 288.177 94.171 287.468 93.6608L288.829 91.0248C289.396 91.45 290.048 91.783 290.785 92.0239C291.522 92.2507 292.28 92.3641 293.059 92.3641C293.924 92.3641 294.604 92.194 295.1 91.8539C295.596 91.5138 295.844 91.039 295.844 90.4296C295.844 89.7919 295.582 89.3101 295.057 88.9841C294.547 88.6582 293.654 88.4952 292.379 88.4952H288.574L289.339 80.1197H298.416V82.8832H292.209L291.975 85.7105H293.187ZM307.105 95.2551C305.872 95.2551 304.773 94.9504 303.81 94.341C302.846 93.7316 302.088 92.853 301.535 91.7051C300.997 90.543 300.727 89.1613 300.727 87.5599C300.727 85.9585 300.997 84.5838 301.535 83.4359C302.088 82.2738 302.846 81.3881 303.81 80.7787C304.773 80.1693 305.872 79.8646 307.105 79.8646C308.338 79.8646 309.436 80.1693 310.4 80.7787C311.363 81.3881 312.114 82.2738 312.653 83.4359C313.206 84.5838 313.482 85.9585 313.482 87.5599C313.482 89.1613 313.206 90.543 312.653 91.7051C312.114 92.853 311.363 93.7316 310.4 94.341C309.436 94.9504 308.338 95.2551 307.105 95.2551ZM307.105 92.3428C308.012 92.3428 308.72 91.9531 309.23 91.1736C309.755 90.3942 310.017 89.1896 310.017 87.5599C310.017 85.9301 309.755 84.7255 309.23 83.9461C308.72 83.1666 308.012 82.7769 307.105 82.7769C306.212 82.7769 305.503 83.1666 304.979 83.9461C304.469 84.7255 304.214 85.9301 304.214 87.5599C304.214 89.1896 304.469 90.3942 304.979 91.1736C305.503 91.9531 306.212 92.3428 307.105 92.3428ZM327.553 95.2551C326.32 95.2551 325.221 94.9504 324.258 94.341C323.294 93.7316 322.536 92.853 321.983 91.7051C321.445 90.543 321.175 89.1613 321.175 87.5599C321.175 85.9585 321.445 84.5838 321.983 83.4359C322.536 82.2738 323.294 81.3881 324.258 80.7787C325.221 80.1693 326.32 79.8646 327.553 79.8646C328.785 79.8646 329.884 80.1693 330.847 80.7787C331.811 81.3881 332.562 82.2738 333.101 83.4359C333.653 84.5838 333.93 85.9585 333.93 87.5599C333.93 89.1613 333.653 90.543 333.101 91.7051C332.562 92.853 331.811 93.7316 330.847 94.341C329.884 94.9504 328.785 95.2551 327.553 95.2551ZM327.553 92.3428C328.46 92.3428 329.168 91.9531 329.678 91.1736C330.203 90.3942 330.465 89.1896 330.465 87.5599C330.465 85.9301 330.203 84.7255 329.678 83.9461C329.168 83.1666 328.46 82.7769 327.553 82.7769C326.66 82.7769 325.951 83.1666 325.427 83.9461C324.917 84.7255 324.662 85.9301 324.662 87.5599C324.662 89.1896 324.917 90.3942 325.427 91.1736C325.951 91.9531 326.66 92.3428 327.553 92.3428ZM341.98 95.2551C340.747 95.2551 339.649 94.9504 338.685 94.341C337.722 93.7316 336.963 92.853 336.411 91.7051C335.872 90.543 335.603 89.1613 335.603 87.5599C335.603 85.9585 335.872 84.5838 336.411 83.4359C336.963 82.2738 337.722 81.3881 338.685 80.7787C339.649 80.1693 340.747 79.8646 341.98 79.8646C343.213 79.8646 344.312 80.1693 345.275 80.7787C346.239 81.3881 346.99 82.2738 347.528 83.4359C348.081 84.5838 348.358 85.9585 348.358 87.5599C348.358 89.1613 348.081 90.543 347.528 91.7051C346.99 92.853 346.239 93.7316 345.275 94.341C344.312 94.9504 343.213 95.2551 341.98 95.2551ZM341.98 92.3428C342.887 92.3428 343.596 91.9531 344.106 91.1736C344.63 90.3942 344.893 89.1896 344.893 87.5599C344.893 85.9301 344.63 84.7255 344.106 83.9461C343.596 83.1666 342.887 82.7769 341.98 82.7769C341.087 82.7769 340.379 83.1666 339.855 83.9461C339.344 84.7255 339.089 85.9301 339.089 87.5599C339.089 89.1896 339.344 90.3942 339.855 91.1736C340.379 91.9531 341.087 92.3428 341.98 92.3428ZM356.408 95.2551C355.175 95.2551 354.077 94.9504 353.113 94.341C352.149 93.7316 351.391 92.853 350.839 91.7051C350.3 90.543 350.031 89.1613 350.031 87.5599C350.031 85.9585 350.3 84.5838 350.839 83.4359C351.391 82.2738 352.149 81.3881 353.113 80.7787C354.077 80.1693 355.175 79.8646 356.408 79.8646C357.641 79.8646 358.739 80.1693 359.703 80.7787C360.667 81.3881 361.418 82.2738 361.956 83.4359C362.509 84.5838 362.785 85.9585 362.785 87.5599C362.785 89.1613 362.509 90.543 361.956 91.7051C361.418 92.853 360.667 93.7316 359.703 94.341C358.739 94.9504 357.641 95.2551 356.408 95.2551ZM356.408 92.3428C357.315 92.3428 358.024 91.9531 358.534 91.1736C359.058 90.3942 359.32 89.1896 359.32 87.5599C359.32 85.9301 359.058 84.7255 358.534 83.9461C358.024 83.1666 357.315 82.7769 356.408 82.7769C355.515 82.7769 354.807 83.1666 354.282 83.9461C353.772 84.7255 353.517 85.9301 353.517 87.5599C353.517 89.1896 353.772 90.3942 354.282 91.1736C354.807 91.9531 355.515 92.3428 356.408 92.3428ZM375.814 90.132V91.3224H380.406V93.0868H375.814V95H372.349V93.0868H370.287V91.3224H372.349V80.1197H378.79C380.817 80.1197 382.397 80.5449 383.531 81.3952C384.679 82.2455 385.253 83.4926 385.253 85.1365C385.253 86.7662 384.679 88.0063 383.531 88.8566C382.397 89.7069 380.817 90.132 378.79 90.132H375.814ZM381.766 85.1578C381.766 84.435 381.504 83.8823 380.98 83.4997C380.47 83.117 379.733 82.9257 378.769 82.9257H375.814V87.4323H378.769C379.733 87.4323 380.47 87.241 380.98 86.8584C381.504 86.4616 381.766 85.8947 381.766 85.1578Z" fill="#2D2D2D"/>
<path id="200%" d="M253.024 142.433V143H248.675V142.548L251.253 140.024C251.578 139.705 251.796 139.431 251.908 139.2C252.026 138.964 252.085 138.728 252.085 138.492C252.085 138.126 251.958 137.842 251.705 137.641C251.456 137.435 251.099 137.331 250.633 137.331C249.906 137.331 249.343 137.562 248.941 138.022L248.489 137.632C248.731 137.349 249.038 137.131 249.41 136.977C249.788 136.824 250.214 136.747 250.686 136.747C251.318 136.747 251.817 136.897 252.183 137.198C252.555 137.494 252.741 137.901 252.741 138.421C252.741 138.74 252.67 139.047 252.528 139.342C252.387 139.637 252.118 139.977 251.722 140.361L249.614 142.433H253.024ZM256.261 143.053C255.783 143.053 255.355 142.926 254.977 142.672C254.605 142.418 254.313 142.055 254.1 141.583C253.893 141.105 253.79 140.544 253.79 139.9C253.79 139.256 253.893 138.698 254.1 138.226C254.313 137.748 254.605 137.382 254.977 137.128C255.355 136.874 255.783 136.747 256.261 136.747C256.739 136.747 257.165 136.874 257.537 137.128C257.915 137.382 258.21 137.748 258.422 138.226C258.635 138.698 258.741 139.256 258.741 139.9C258.741 140.544 258.635 141.105 258.422 141.583C258.21 142.055 257.915 142.418 257.537 142.672C257.165 142.926 256.739 143.053 256.261 143.053ZM256.261 142.469C256.621 142.469 256.937 142.368 257.209 142.167C257.486 141.967 257.702 141.674 257.855 141.291C258.009 140.907 258.086 140.443 258.086 139.9C258.086 139.357 258.009 138.893 257.855 138.509C257.702 138.126 257.486 137.833 257.209 137.632C256.937 137.432 256.621 137.331 256.261 137.331C255.901 137.331 255.582 137.432 255.305 137.632C255.033 137.833 254.82 138.126 254.667 138.509C254.513 138.893 254.437 139.357 254.437 139.9C254.437 140.443 254.513 140.907 254.667 141.291C254.82 141.674 255.033 141.967 255.305 142.167C255.582 142.368 255.901 142.469 256.261 142.469ZM262.126 143.053C261.647 143.053 261.219 142.926 260.841 142.672C260.469 142.418 260.177 142.055 259.964 141.583C259.758 141.105 259.654 140.544 259.654 139.9C259.654 139.256 259.758 138.698 259.964 138.226C260.177 137.748 260.469 137.382 260.841 137.128C261.219 136.874 261.647 136.747 262.126 136.747C262.604 136.747 263.029 136.874 263.401 137.128C263.779 137.382 264.074 137.748 264.287 138.226C264.499 138.698 264.606 139.256 264.606 139.9C264.606 140.544 264.499 141.105 264.287 141.583C264.074 142.055 263.779 142.418 263.401 142.672C263.029 142.926 262.604 143.053 262.126 143.053ZM262.126 142.469C262.486 142.469 262.802 142.368 263.073 142.167C263.351 141.967 263.566 141.674 263.72 141.291C263.874 140.907 263.95 140.443 263.95 139.9C263.95 139.357 263.874 138.893 263.72 138.509C263.566 138.126 263.351 137.833 263.073 137.632C262.802 137.432 262.486 137.331 262.126 137.331C261.765 137.331 261.447 137.432 261.169 137.632C260.897 137.833 260.685 138.126 260.531 138.509C260.378 138.893 260.301 139.357 260.301 139.9C260.301 140.443 260.378 140.907 260.531 141.291C260.685 141.674 260.897 141.967 261.169 142.167C261.447 142.368 261.765 142.469 262.126 142.469ZM266.83 140.121C266.411 140.121 266.071 139.968 265.811 139.661C265.557 139.348 265.43 138.94 265.43 138.438C265.43 137.937 265.557 137.532 265.811 137.225C266.071 136.912 266.411 136.756 266.83 136.756C267.243 136.756 267.58 136.909 267.84 137.216C268.099 137.523 268.229 137.931 268.229 138.438C268.229 138.946 268.099 139.354 267.84 139.661C267.58 139.968 267.243 140.121 266.83 140.121ZM270.585 136.8H271.108L266.874 143H266.352L270.585 136.8ZM266.83 139.723C267.119 139.723 267.35 139.611 267.521 139.386C267.698 139.156 267.786 138.84 267.786 138.438C267.786 138.037 267.698 137.724 267.521 137.5C267.35 137.269 267.119 137.154 266.83 137.154C266.535 137.154 266.301 137.269 266.13 137.5C265.959 137.73 265.873 138.043 265.873 138.438C265.873 138.834 265.959 139.147 266.13 139.377C266.301 139.608 266.535 139.723 266.83 139.723ZM270.63 143.044C270.216 143.044 269.88 142.891 269.62 142.584C269.36 142.271 269.23 141.863 269.23 141.361C269.23 140.859 269.36 140.455 269.62 140.148C269.88 139.835 270.216 139.679 270.63 139.679C271.049 139.679 271.385 139.835 271.639 140.148C271.899 140.455 272.029 140.859 272.029 141.361C272.029 141.863 271.899 142.271 271.639 142.584C271.385 142.891 271.049 143.044 270.63 143.044ZM270.63 142.646C270.925 142.646 271.158 142.531 271.329 142.3C271.501 142.07 271.586 141.757 271.586 141.361C271.586 140.966 271.501 140.653 271.329 140.423C271.158 140.192 270.925 140.077 270.63 140.077C270.34 140.077 270.107 140.192 269.93 140.423C269.759 140.647 269.673 140.96 269.673 141.361C269.673 141.763 269.759 142.079 269.93 142.309C270.107 142.534 270.34 142.646 270.63 142.646Z" fill="#2D2D2D"/>
<path id="250%" d="M253.837 119.433V120H249.488V119.548L252.066 117.024C252.391 116.705 252.609 116.431 252.721 116.2C252.839 115.964 252.898 115.728 252.898 115.492C252.898 115.126 252.771 114.842 252.518 114.641C252.27 114.435 251.912 114.331 251.446 114.331C250.72 114.331 250.156 114.562 249.754 115.022L249.302 114.632C249.544 114.349 249.852 114.131 250.224 113.977C250.601 113.824 251.027 113.747 251.499 113.747C252.131 113.747 252.63 113.897 252.996 114.198C253.368 114.494 253.554 114.901 253.554 115.421C253.554 115.74 253.483 116.047 253.341 116.342C253.2 116.637 252.931 116.977 252.535 117.361L250.427 119.433H253.837ZM256.267 116.342C257.165 116.342 257.817 116.504 258.225 116.829C258.638 117.148 258.845 117.597 258.845 118.175C258.845 118.536 258.759 118.857 258.588 119.141C258.423 119.424 258.172 119.649 257.835 119.814C257.499 119.973 257.085 120.053 256.595 120.053C256.152 120.053 255.73 119.982 255.329 119.841C254.933 119.693 254.614 119.498 254.372 119.256L254.682 118.751C254.889 118.964 255.16 119.138 255.497 119.274C255.833 119.404 256.197 119.469 256.586 119.469C257.1 119.469 257.496 119.353 257.773 119.123C258.057 118.893 258.198 118.586 258.198 118.202C258.198 117.777 258.039 117.455 257.72 117.237C257.407 117.018 256.876 116.909 256.126 116.909H254.806L255.125 113.8H258.517V114.367H255.683L255.47 116.342H256.267ZM262.126 120.053C261.647 120.053 261.219 119.926 260.841 119.672C260.469 119.418 260.177 119.055 259.964 118.583C259.758 118.105 259.654 117.544 259.654 116.9C259.654 116.256 259.758 115.698 259.964 115.226C260.177 114.748 260.469 114.382 260.841 114.128C261.219 113.874 261.647 113.747 262.126 113.747C262.604 113.747 263.029 113.874 263.401 114.128C263.779 114.382 264.074 114.748 264.287 115.226C264.499 115.698 264.606 116.256 264.606 116.9C264.606 117.544 264.499 118.105 264.287 118.583C264.074 119.055 263.779 119.418 263.401 119.672C263.029 119.926 262.604 120.053 262.126 120.053ZM262.126 119.469C262.486 119.469 262.802 119.368 263.073 119.167C263.351 118.967 263.566 118.674 263.72 118.291C263.874 117.907 263.95 117.443 263.95 116.9C263.95 116.357 263.874 115.893 263.72 115.509C263.566 115.126 263.351 114.833 263.073 114.632C262.802 114.432 262.486 114.331 262.126 114.331C261.765 114.331 261.447 114.432 261.169 114.632C260.897 114.833 260.685 115.126 260.531 115.509C260.378 115.893 260.301 116.357 260.301 116.9C260.301 117.443 260.378 117.907 260.531 118.291C260.685 118.674 260.897 118.967 261.169 119.167C261.447 119.368 261.765 119.469 262.126 119.469ZM266.83 117.121C266.411 117.121 266.071 116.968 265.811 116.661C265.557 116.348 265.43 115.94 265.43 115.438C265.43 114.937 265.557 114.532 265.811 114.225C266.071 113.912 266.411 113.756 266.83 113.756C267.243 113.756 267.58 113.909 267.84 114.216C268.099 114.523 268.229 114.931 268.229 115.438C268.229 115.946 268.099 116.354 267.84 116.661C267.58 116.968 267.243 117.121 266.83 117.121ZM270.585 113.8H271.108L266.874 120H266.352L270.585 113.8ZM266.83 116.723C267.119 116.723 267.35 116.611 267.521 116.386C267.698 116.156 267.786 115.84 267.786 115.438C267.786 115.037 267.698 114.724 267.521 114.5C267.35 114.269 267.119 114.154 266.83 114.154C266.535 114.154 266.301 114.269 266.13 114.5C265.959 114.73 265.873 115.043 265.873 115.438C265.873 115.834 265.959 116.147 266.13 116.377C266.301 116.608 266.535 116.723 266.83 116.723ZM270.63 120.044C270.216 120.044 269.88 119.891 269.62 119.584C269.36 119.271 269.23 118.863 269.23 118.361C269.23 117.859 269.36 117.455 269.62 117.148C269.88 116.835 270.216 116.679 270.63 116.679C271.049 116.679 271.385 116.835 271.639 117.148C271.899 117.455 272.029 117.859 272.029 118.361C272.029 118.863 271.899 119.271 271.639 119.584C271.385 119.891 271.049 120.044 270.63 120.044ZM270.63 119.646C270.925 119.646 271.158 119.531 271.329 119.3C271.501 119.07 271.586 118.757 271.586 118.361C271.586 117.966 271.501 117.653 271.329 117.423C271.158 117.192 270.925 117.077 270.63 117.077C270.34 117.077 270.107 117.192 269.93 117.423C269.759 117.647 269.673 117.96 269.673 118.361C269.673 118.763 269.759 119.079 269.93 119.309C270.107 119.534 270.34 119.646 270.63 119.646Z" fill="#2D2D2D"/>
<path id="150%" d="M254.041 159.8V166H253.404V160.367H251.942V159.8H254.041ZM257.153 162.342C258.051 162.342 258.703 162.504 259.111 162.829C259.524 163.148 259.731 163.597 259.731 164.175C259.731 164.536 259.645 164.857 259.474 165.141C259.308 165.424 259.057 165.649 258.721 165.814C258.384 165.973 257.971 166.053 257.481 166.053C257.038 166.053 256.616 165.982 256.214 165.841C255.819 165.693 255.5 165.498 255.258 165.256L255.568 164.751C255.774 164.964 256.046 165.138 256.383 165.274C256.719 165.404 257.082 165.469 257.472 165.469C257.986 165.469 258.381 165.353 258.659 165.123C258.942 164.893 259.084 164.586 259.084 164.202C259.084 163.777 258.925 163.455 258.606 163.237C258.293 163.018 257.761 162.909 257.011 162.909H255.692L256.011 159.8H259.403V160.367H256.569L256.356 162.342H257.153ZM263.011 166.053C262.533 166.053 262.105 165.926 261.727 165.672C261.355 165.418 261.063 165.055 260.85 164.583C260.644 164.105 260.54 163.544 260.54 162.9C260.54 162.256 260.644 161.698 260.85 161.226C261.063 160.748 261.355 160.382 261.727 160.128C262.105 159.874 262.533 159.747 263.011 159.747C263.49 159.747 263.915 159.874 264.287 160.128C264.665 160.382 264.96 160.748 265.173 161.226C265.385 161.698 265.491 162.256 265.491 162.9C265.491 163.544 265.385 164.105 265.173 164.583C264.96 165.055 264.665 165.418 264.287 165.672C263.915 165.926 263.49 166.053 263.011 166.053ZM263.011 165.469C263.372 165.469 263.688 165.368 263.959 165.167C264.237 164.967 264.452 164.674 264.606 164.291C264.759 163.907 264.836 163.443 264.836 162.9C264.836 162.357 264.759 161.893 264.606 161.509C264.452 161.126 264.237 160.833 263.959 160.632C263.688 160.432 263.372 160.331 263.011 160.331C262.651 160.331 262.332 160.432 262.055 160.632C261.783 160.833 261.571 161.126 261.417 161.509C261.264 161.893 261.187 162.357 261.187 162.9C261.187 163.443 261.264 163.907 261.417 164.291C261.571 164.674 261.783 164.967 262.055 165.167C262.332 165.368 262.651 165.469 263.011 165.469ZM267.716 163.121C267.296 163.121 266.957 162.968 266.697 162.661C266.443 162.348 266.316 161.94 266.316 161.438C266.316 160.937 266.443 160.532 266.697 160.225C266.957 159.912 267.296 159.756 267.716 159.756C268.129 159.756 268.466 159.909 268.725 160.216C268.985 160.523 269.115 160.931 269.115 161.438C269.115 161.946 268.985 162.354 268.725 162.661C268.466 162.968 268.129 163.121 267.716 163.121ZM271.471 159.8H271.994L267.76 166H267.237L271.471 159.8ZM267.716 162.723C268.005 162.723 268.235 162.611 268.406 162.386C268.584 162.156 268.672 161.84 268.672 161.438C268.672 161.037 268.584 160.724 268.406 160.5C268.235 160.269 268.005 160.154 267.716 160.154C267.42 160.154 267.187 160.269 267.016 160.5C266.845 160.73 266.759 161.043 266.759 161.438C266.759 161.834 266.845 162.147 267.016 162.377C267.187 162.608 267.42 162.723 267.716 162.723ZM271.515 166.044C271.102 166.044 270.765 165.891 270.506 165.584C270.246 165.271 270.116 164.863 270.116 164.361C270.116 163.859 270.246 163.455 270.506 163.148C270.765 162.835 271.102 162.679 271.515 162.679C271.935 162.679 272.271 162.835 272.525 163.148C272.785 163.455 272.915 163.859 272.915 164.361C272.915 164.863 272.785 165.271 272.525 165.584C272.271 165.891 271.935 166.044 271.515 166.044ZM271.515 165.646C271.811 165.646 272.044 165.531 272.215 165.3C272.386 165.07 272.472 164.757 272.472 164.361C272.472 163.966 272.386 163.653 272.215 163.423C272.044 163.192 271.811 163.077 271.515 163.077C271.226 163.077 270.993 163.192 270.816 163.423C270.644 163.647 270.559 163.96 270.559 164.361C270.559 164.763 270.644 165.079 270.816 165.309C270.993 165.534 271.226 165.646 271.515 165.646Z" fill="#2D2D2D"/>
<path id="100%" d="M252.308 182.8V189H251.67V183.367H250.209V182.8H252.308ZM256.261 189.053C255.783 189.053 255.355 188.926 254.977 188.672C254.605 188.418 254.313 188.055 254.1 187.583C253.893 187.105 253.79 186.544 253.79 185.9C253.79 185.256 253.893 184.698 254.1 184.226C254.313 183.748 254.605 183.382 254.977 183.128C255.355 182.874 255.783 182.747 256.261 182.747C256.739 182.747 257.165 182.874 257.537 183.128C257.915 183.382 258.21 183.748 258.422 184.226C258.635 184.698 258.741 185.256 258.741 185.9C258.741 186.544 258.635 187.105 258.422 187.583C258.21 188.055 257.915 188.418 257.537 188.672C257.165 188.926 256.739 189.053 256.261 189.053ZM256.261 188.469C256.621 188.469 256.937 188.368 257.209 188.167C257.486 187.967 257.702 187.674 257.855 187.291C258.009 186.907 258.086 186.443 258.086 185.9C258.086 185.357 258.009 184.893 257.855 184.509C257.702 184.126 257.486 183.833 257.209 183.632C256.937 183.432 256.621 183.331 256.261 183.331C255.901 183.331 255.582 183.432 255.305 183.632C255.033 183.833 254.82 184.126 254.667 184.509C254.513 184.893 254.437 185.357 254.437 185.9C254.437 186.443 254.513 186.907 254.667 187.291C254.82 187.674 255.033 187.967 255.305 188.167C255.582 188.368 255.901 188.469 256.261 188.469ZM262.126 189.053C261.647 189.053 261.219 188.926 260.841 188.672C260.469 188.418 260.177 188.055 259.964 187.583C259.758 187.105 259.654 186.544 259.654 185.9C259.654 185.256 259.758 184.698 259.964 184.226C260.177 183.748 260.469 183.382 260.841 183.128C261.219 182.874 261.647 182.747 262.126 182.747C262.604 182.747 263.029 182.874 263.401 183.128C263.779 183.382 264.074 183.748 264.287 184.226C264.499 184.698 264.606 185.256 264.606 185.9C264.606 186.544 264.499 187.105 264.287 187.583C264.074 188.055 263.779 188.418 263.401 188.672C263.029 188.926 262.604 189.053 262.126 189.053ZM262.126 188.469C262.486 188.469 262.802 188.368 263.073 188.167C263.351 187.967 263.566 187.674 263.72 187.291C263.874 186.907 263.95 186.443 263.95 185.9C263.95 185.357 263.874 184.893 263.72 184.509C263.566 184.126 263.351 183.833 263.073 183.632C262.802 183.432 262.486 183.331 262.126 183.331C261.765 183.331 261.447 183.432 261.169 183.632C260.897 183.833 260.685 184.126 260.531 184.509C260.378 184.893 260.301 185.357 260.301 185.9C260.301 186.443 260.378 186.907 260.531 187.291C260.685 187.674 260.897 187.967 261.169 188.167C261.447 188.368 261.765 188.469 262.126 188.469ZM266.83 186.121C266.411 186.121 266.071 185.968 265.811 185.661C265.557 185.348 265.43 184.94 265.43 184.438C265.43 183.937 265.557 183.532 265.811 183.225C266.071 182.912 266.411 182.756 266.83 182.756C267.243 182.756 267.58 182.909 267.84 183.216C268.099 183.523 268.229 183.931 268.229 184.438C268.229 184.946 268.099 185.354 267.84 185.661C267.58 185.968 267.243 186.121 266.83 186.121ZM270.585 182.8H271.108L266.874 189H266.352L270.585 182.8ZM266.83 185.723C267.119 185.723 267.35 185.611 267.521 185.386C267.698 185.156 267.786 184.84 267.786 184.438C267.786 184.037 267.698 183.724 267.521 183.5C267.35 183.269 267.119 183.154 266.83 183.154C266.535 183.154 266.301 183.269 266.13 183.5C265.959 183.73 265.873 184.043 265.873 184.438C265.873 184.834 265.959 185.147 266.13 185.377C266.301 185.608 266.535 185.723 266.83 185.723ZM270.63 189.044C270.216 189.044 269.88 188.891 269.62 188.584C269.36 188.271 269.23 187.863 269.23 187.361C269.23 186.859 269.36 186.455 269.62 186.148C269.88 185.835 270.216 185.679 270.63 185.679C271.049 185.679 271.385 185.835 271.639 186.148C271.899 186.455 272.029 186.859 272.029 187.361C272.029 187.863 271.899 188.271 271.639 188.584C271.385 188.891 271.049 189.044 270.63 189.044ZM270.63 188.646C270.925 188.646 271.158 188.531 271.329 188.3C271.501 188.07 271.586 187.757 271.586 187.361C271.586 186.966 271.501 186.653 271.329 186.423C271.158 186.192 270.925 186.077 270.63 186.077C270.34 186.077 270.107 186.192 269.93 186.423C269.759 186.647 269.673 186.96 269.673 187.361C269.673 187.763 269.759 188.079 269.93 188.309C270.107 188.534 270.34 188.646 270.63 188.646Z" fill="#2D2D2D"/>
<path id="50%" d="M256.267 208.342C257.165 208.342 257.817 208.504 258.225 208.829C258.638 209.148 258.845 209.597 258.845 210.175C258.845 210.536 258.759 210.857 258.588 211.141C258.423 211.424 258.172 211.649 257.835 211.814C257.499 211.973 257.085 212.053 256.595 212.053C256.152 212.053 255.73 211.982 255.329 211.841C254.933 211.693 254.614 211.498 254.372 211.256L254.682 210.751C254.889 210.964 255.16 211.138 255.497 211.274C255.833 211.404 256.197 211.469 256.586 211.469C257.1 211.469 257.496 211.353 257.773 211.123C258.057 210.893 258.198 210.586 258.198 210.202C258.198 209.777 258.039 209.455 257.72 209.237C257.407 209.018 256.876 208.909 256.126 208.909H254.806L255.125 205.8H258.517V206.367H255.683L255.47 208.342H256.267ZM262.126 212.053C261.647 212.053 261.219 211.926 260.841 211.672C260.469 211.418 260.177 211.055 259.964 210.583C259.758 210.105 259.654 209.544 259.654 208.9C259.654 208.256 259.758 207.698 259.964 207.226C260.177 206.748 260.469 206.382 260.841 206.128C261.219 205.874 261.647 205.747 262.126 205.747C262.604 205.747 263.029 205.874 263.401 206.128C263.779 206.382 264.074 206.748 264.287 207.226C264.499 207.698 264.606 208.256 264.606 208.9C264.606 209.544 264.499 210.105 264.287 210.583C264.074 211.055 263.779 211.418 263.401 211.672C263.029 211.926 262.604 212.053 262.126 212.053ZM262.126 211.469C262.486 211.469 262.802 211.368 263.073 211.167C263.351 210.967 263.566 210.674 263.72 210.291C263.874 209.907 263.95 209.443 263.95 208.9C263.95 208.357 263.874 207.893 263.72 207.509C263.566 207.126 263.351 206.833 263.073 206.632C262.802 206.432 262.486 206.331 262.126 206.331C261.765 206.331 261.447 206.432 261.169 206.632C260.897 206.833 260.685 207.126 260.531 207.509C260.378 207.893 260.301 208.357 260.301 208.9C260.301 209.443 260.378 209.907 260.531 210.291C260.685 210.674 260.897 210.967 261.169 211.167C261.447 211.368 261.765 211.469 262.126 211.469ZM266.83 209.121C266.411 209.121 266.071 208.968 265.811 208.661C265.557 208.348 265.43 207.94 265.43 207.438C265.43 206.937 265.557 206.532 265.811 206.225C266.071 205.912 266.411 205.756 266.83 205.756C267.243 205.756 267.58 205.909 267.84 206.216C268.099 206.523 268.229 206.931 268.229 207.438C268.229 207.946 268.099 208.354 267.84 208.661C267.58 208.968 267.243 209.121 266.83 209.121ZM270.585 205.8H271.108L266.874 212H266.352L270.585 205.8ZM266.83 208.723C267.119 208.723 267.35 208.611 267.521 208.386C267.698 208.156 267.786 207.84 267.786 207.438C267.786 207.037 267.698 206.724 267.521 206.5C267.35 206.269 267.119 206.154 266.83 206.154C266.535 206.154 266.301 206.269 266.13 206.5C265.959 206.73 265.873 207.043 265.873 207.438C265.873 207.834 265.959 208.147 266.13 208.377C266.301 208.608 266.535 208.723 266.83 208.723ZM270.63 212.044C270.216 212.044 269.88 211.891 269.62 211.584C269.36 211.271 269.23 210.863 269.23 210.361C269.23 209.859 269.36 209.455 269.62 209.148C269.88 208.835 270.216 208.679 270.63 208.679C271.049 208.679 271.385 208.835 271.639 209.148C271.899 209.455 272.029 209.859 272.029 210.361C272.029 210.863 271.899 211.271 271.639 211.584C271.385 211.891 271.049 212.044 270.63 212.044ZM270.63 211.646C270.925 211.646 271.158 211.531 271.329 211.3C271.501 211.07 271.586 210.757 271.586 210.361C271.586 209.966 271.501 209.653 271.329 209.423C271.158 209.192 270.925 209.077 270.63 209.077C270.34 209.077 270.107 209.192 269.93 209.423C269.759 209.647 269.673 209.96 269.673 210.361C269.673 210.763 269.759 211.079 269.93 211.309C270.107 211.534 270.34 211.646 270.63 211.646Z" fill="#2D2D2D"/>
<path id="01.06" d="M299.248 232.914C298.77 232.914 298.342 232.788 297.964 232.534C297.592 232.28 297.3 231.917 297.087 231.444C296.88 230.966 296.777 230.405 296.777 229.761C296.777 229.118 296.88 228.56 297.087 228.087C297.3 227.609 297.592 227.243 297.964 226.989C298.342 226.735 298.77 226.608 299.248 226.608C299.726 226.608 300.152 226.735 300.524 226.989C300.902 227.243 301.197 227.609 301.409 228.087C301.622 228.56 301.728 229.118 301.728 229.761C301.728 230.405 301.622 230.966 301.409 231.444C301.197 231.917 300.902 232.28 300.524 232.534C300.152 232.788 299.726 232.914 299.248 232.914ZM299.248 232.33C299.608 232.33 299.924 232.23 300.196 232.029C300.473 231.828 300.689 231.536 300.842 231.152C300.996 230.768 301.073 230.305 301.073 229.761C301.073 229.218 300.996 228.754 300.842 228.371C300.689 227.987 300.473 227.695 300.196 227.494C299.924 227.293 299.608 227.193 299.248 227.193C298.888 227.193 298.569 227.293 298.292 227.494C298.02 227.695 297.807 227.987 297.654 228.371C297.5 228.754 297.424 229.218 297.424 229.761C297.424 230.305 297.5 230.768 297.654 231.152C297.807 231.536 298.02 231.828 298.292 232.029C298.569 232.23 298.888 232.33 299.248 232.33ZM304.343 226.661V232.861H303.705V227.228H302.243V226.661H304.343ZM306.303 232.906C306.173 232.906 306.061 232.858 305.966 232.764C305.878 232.669 305.833 232.554 305.833 232.418C305.833 232.283 305.878 232.17 305.966 232.082C306.061 231.987 306.173 231.94 306.303 231.94C306.433 231.94 306.545 231.987 306.639 232.082C306.734 232.17 306.781 232.283 306.781 232.418C306.781 232.554 306.734 232.669 306.639 232.764C306.545 232.858 306.433 232.906 306.303 232.906ZM310.078 232.914C309.599 232.914 309.171 232.788 308.793 232.534C308.421 232.28 308.129 231.917 307.916 231.444C307.71 230.966 307.606 230.405 307.606 229.761C307.606 229.118 307.71 228.56 307.916 228.087C308.129 227.609 308.421 227.243 308.793 226.989C309.171 226.735 309.599 226.608 310.078 226.608C310.556 226.608 310.981 226.735 311.353 226.989C311.731 227.243 312.026 227.609 312.239 228.087C312.451 228.56 312.558 229.118 312.558 229.761C312.558 230.405 312.451 230.966 312.239 231.444C312.026 231.917 311.731 232.28 311.353 232.534C310.981 232.788 310.556 232.914 310.078 232.914ZM310.078 232.33C310.438 232.33 310.754 232.23 311.025 232.029C311.303 231.828 311.518 231.536 311.672 231.152C311.825 230.768 311.902 230.305 311.902 229.761C311.902 229.218 311.825 228.754 311.672 228.371C311.518 227.987 311.303 227.695 311.025 227.494C310.754 227.293 310.438 227.193 310.078 227.193C309.717 227.193 309.399 227.293 309.121 227.494C308.849 227.695 308.637 227.987 308.483 228.371C308.33 228.754 308.253 229.218 308.253 229.761C308.253 230.305 308.33 230.768 308.483 231.152C308.637 231.536 308.849 231.828 309.121 232.029C309.399 232.23 309.717 232.33 310.078 232.33ZM316.04 229.15C316.447 229.15 316.807 229.227 317.12 229.38C317.439 229.534 317.687 229.752 317.864 230.036C318.041 230.313 318.13 230.638 318.13 231.01C318.13 231.388 318.038 231.722 317.855 232.011C317.672 232.3 317.418 232.525 317.094 232.684C316.775 232.838 316.415 232.914 316.013 232.914C315.192 232.914 314.563 232.646 314.126 232.108C313.689 231.565 313.471 230.801 313.471 229.814C313.471 229.124 313.589 228.539 313.825 228.061C314.061 227.582 314.392 227.222 314.817 226.98C315.242 226.732 315.738 226.608 316.305 226.608C316.919 226.608 317.409 226.72 317.776 226.945L317.519 227.458C317.223 227.264 316.822 227.166 316.314 227.166C315.629 227.166 315.092 227.385 314.702 227.822C314.312 228.253 314.118 228.881 314.118 229.708C314.118 229.856 314.126 230.024 314.144 230.213C314.298 229.876 314.543 229.617 314.879 229.434C315.216 229.245 315.603 229.15 316.04 229.15ZM315.986 232.374C316.435 232.374 316.798 232.253 317.076 232.011C317.359 231.763 317.501 231.435 317.501 231.028C317.501 230.62 317.359 230.296 317.076 230.054C316.798 229.811 316.42 229.69 315.942 229.69C315.629 229.69 315.352 229.749 315.11 229.868C314.873 229.986 314.687 230.148 314.552 230.355C314.416 230.561 314.348 230.792 314.348 231.046C314.348 231.282 314.41 231.5 314.534 231.701C314.664 231.902 314.853 232.064 315.101 232.188C315.349 232.312 315.644 232.374 315.986 232.374Z" fill="#2D2D2D"/>
<path id="01.07" d="M357.705 232.914C357.227 232.914 356.799 232.788 356.421 232.534C356.049 232.28 355.757 231.917 355.544 231.444C355.337 230.966 355.234 230.405 355.234 229.761C355.234 229.118 355.337 228.56 355.544 228.087C355.757 227.609 356.049 227.243 356.421 226.989C356.799 226.735 357.227 226.608 357.705 226.608C358.184 226.608 358.609 226.735 358.981 226.989C359.359 227.243 359.654 227.609 359.866 228.087C360.079 228.56 360.185 229.118 360.185 229.761C360.185 230.405 360.079 230.966 359.866 231.444C359.654 231.917 359.359 232.28 358.981 232.534C358.609 232.788 358.184 232.914 357.705 232.914ZM357.705 232.33C358.065 232.33 358.381 232.23 358.653 232.029C358.93 231.828 359.146 231.536 359.3 231.152C359.453 230.768 359.53 230.305 359.53 229.761C359.53 229.218 359.453 228.754 359.3 228.371C359.146 227.987 358.93 227.695 358.653 227.494C358.381 227.293 358.065 227.193 357.705 227.193C357.345 227.193 357.026 227.293 356.749 227.494C356.477 227.695 356.264 227.987 356.111 228.371C355.957 228.754 355.881 229.218 355.881 229.761C355.881 230.305 355.957 230.768 356.111 231.152C356.264 231.536 356.477 231.828 356.749 232.029C357.026 232.23 357.345 232.33 357.705 232.33ZM362.8 226.661V232.861H362.162V227.228H360.7V226.661H362.8ZM364.76 232.906C364.63 232.906 364.518 232.858 364.423 232.764C364.335 232.669 364.29 232.554 364.29 232.418C364.29 232.283 364.335 232.17 364.423 232.082C364.518 231.987 364.63 231.94 364.76 231.94C364.89 231.94 365.002 231.987 365.096 232.082C365.191 232.17 365.238 232.283 365.238 232.418C365.238 232.554 365.191 232.669 365.096 232.764C365.002 232.858 364.89 232.906 364.76 232.906ZM368.535 232.914C368.056 232.914 367.628 232.788 367.25 232.534C366.878 232.28 366.586 231.917 366.373 231.444C366.167 230.966 366.063 230.405 366.063 229.761C366.063 229.118 366.167 228.56 366.373 228.087C366.586 227.609 366.878 227.243 367.25 226.989C367.628 226.735 368.056 226.608 368.535 226.608C369.013 226.608 369.438 226.735 369.81 226.989C370.188 227.243 370.483 227.609 370.696 228.087C370.908 228.56 371.015 229.118 371.015 229.761C371.015 230.405 370.908 230.966 370.696 231.444C370.483 231.917 370.188 232.28 369.81 232.534C369.438 232.788 369.013 232.914 368.535 232.914ZM368.535 232.33C368.895 232.33 369.211 232.23 369.482 232.029C369.76 231.828 369.975 231.536 370.129 231.152C370.282 230.768 370.359 230.305 370.359 229.761C370.359 229.218 370.282 228.754 370.129 228.371C369.975 227.987 369.76 227.695 369.482 227.494C369.211 227.293 368.895 227.193 368.535 227.193C368.174 227.193 367.856 227.293 367.578 227.494C367.306 227.695 367.094 227.987 366.94 228.371C366.787 228.754 366.71 229.218 366.71 229.761C366.71 230.305 366.787 230.768 366.94 231.152C367.094 231.536 367.306 231.828 367.578 232.029C367.856 232.23 368.174 232.33 368.535 232.33ZM376.234 226.661V227.113L373.639 232.861H372.948L375.499 227.228H372.31V228.388H371.682V226.661H376.234Z" fill="#2D2D2D"/>
<path id="01.08" d="M416.162 232.914C415.684 232.914 415.256 232.788 414.878 232.534C414.506 232.28 414.214 231.917 414.001 231.444C413.794 230.966 413.691 230.405 413.691 229.761C413.691 229.118 413.794 228.56 414.001 228.087C414.214 227.609 414.506 227.243 414.878 226.989C415.256 226.735 415.684 226.608 416.162 226.608C416.641 226.608 417.066 226.735 417.438 226.989C417.816 227.243 418.111 227.609 418.323 228.087C418.536 228.56 418.642 229.118 418.642 229.761C418.642 230.405 418.536 230.966 418.323 231.444C418.111 231.917 417.816 232.28 417.438 232.534C417.066 232.788 416.641 232.914 416.162 232.914ZM416.162 232.33C416.522 232.33 416.838 232.23 417.11 232.029C417.387 231.828 417.603 231.536 417.757 231.152C417.91 230.768 417.987 230.305 417.987 229.761C417.987 229.218 417.91 228.754 417.757 228.371C417.603 227.987 417.387 227.695 417.11 227.494C416.838 227.293 416.522 227.193 416.162 227.193C415.802 227.193 415.483 227.293 415.206 227.494C414.934 227.695 414.721 227.987 414.568 228.371C414.414 228.754 414.338 229.218 414.338 229.761C414.338 230.305 414.414 230.768 414.568 231.152C414.721 231.536 414.934 231.828 415.206 232.029C415.483 232.23 415.802 232.33 416.162 232.33ZM421.257 226.661V232.861H420.619V227.228H419.157V226.661H421.257ZM423.217 232.906C423.087 232.906 422.975 232.858 422.88 232.764C422.792 232.669 422.748 232.554 422.748 232.418C422.748 232.283 422.792 232.17 422.88 232.082C422.975 231.987 423.087 231.94 423.217 231.94C423.347 231.94 423.459 231.987 423.554 232.082C423.648 232.17 423.695 232.283 423.695 232.418C423.695 232.554 423.648 232.669 423.554 232.764C423.459 232.858 423.347 232.906 423.217 232.906ZM426.992 232.914C426.513 232.914 426.085 232.788 425.707 232.534C425.335 232.28 425.043 231.917 424.83 231.444C424.624 230.966 424.52 230.405 424.52 229.761C424.52 229.118 424.624 228.56 424.83 228.087C425.043 227.609 425.335 227.243 425.707 226.989C426.085 226.735 426.513 226.608 426.992 226.608C427.47 226.608 427.895 226.735 428.267 226.989C428.645 227.243 428.94 227.609 429.153 228.087C429.365 228.56 429.472 229.118 429.472 229.761C429.472 230.405 429.365 230.966 429.153 231.444C428.94 231.917 428.645 232.28 428.267 232.534C427.895 232.788 427.47 232.914 426.992 232.914ZM426.992 232.33C427.352 232.33 427.668 232.23 427.939 232.029C428.217 231.828 428.432 231.536 428.586 231.152C428.74 230.768 428.816 230.305 428.816 229.761C428.816 229.218 428.74 228.754 428.586 228.371C428.432 227.987 428.217 227.695 427.939 227.494C427.668 227.293 427.352 227.193 426.992 227.193C426.631 227.193 426.313 227.293 426.035 227.494C425.763 227.695 425.551 227.987 425.397 228.371C425.244 228.754 425.167 229.218 425.167 229.761C425.167 230.305 425.244 230.768 425.397 231.152C425.551 231.536 425.763 231.828 426.035 232.029C426.313 232.23 426.631 232.33 426.992 232.33ZM433.937 229.611C434.327 229.741 434.625 229.935 434.831 230.195C435.044 230.455 435.15 230.768 435.15 231.134C435.15 231.494 435.053 231.81 434.858 232.082C434.663 232.348 434.383 232.554 434.016 232.702C433.656 232.844 433.231 232.914 432.741 232.914C431.997 232.914 431.412 232.755 430.987 232.436C430.562 232.117 430.35 231.683 430.35 231.134C430.35 230.762 430.45 230.449 430.651 230.195C430.857 229.935 431.156 229.741 431.545 229.611C431.226 229.487 430.984 229.31 430.819 229.079C430.654 228.843 430.571 228.566 430.571 228.247C430.571 227.745 430.766 227.346 431.156 227.051C431.551 226.756 432.08 226.608 432.741 226.608C433.178 226.608 433.559 226.676 433.884 226.812C434.214 226.942 434.471 227.131 434.654 227.379C434.837 227.627 434.929 227.916 434.929 228.247C434.929 228.566 434.843 228.843 434.672 229.079C434.501 229.31 434.256 229.487 433.937 229.611ZM431.209 228.264C431.209 228.607 431.345 228.878 431.616 229.079C431.888 229.28 432.263 229.38 432.741 229.38C433.219 229.38 433.594 229.28 433.866 229.079C434.143 228.878 434.282 228.61 434.282 228.273C434.282 227.925 434.141 227.65 433.857 227.45C433.58 227.249 433.208 227.148 432.741 227.148C432.269 227.148 431.894 227.249 431.616 227.45C431.345 227.65 431.209 227.922 431.209 228.264ZM432.741 232.374C433.29 232.374 433.718 232.262 434.025 232.038C434.338 231.813 434.495 231.509 434.495 231.125C434.495 230.741 434.338 230.44 434.025 230.222C433.718 229.997 433.29 229.885 432.741 229.885C432.198 229.885 431.77 229.997 431.457 230.222C431.15 230.44 430.996 230.741 430.996 231.125C430.996 231.515 431.15 231.822 431.457 232.046C431.764 232.265 432.192 232.374 432.741 232.374Z" fill="#2D2D2D"/>
<path id="01.09" d="M475.51 232.914C475.032 232.914 474.603 232.788 474.226 232.534C473.854 232.28 473.561 231.917 473.349 231.444C473.142 230.966 473.039 230.405 473.039 229.761C473.039 229.118 473.142 228.56 473.349 228.087C473.561 227.609 473.854 227.243 474.226 226.989C474.603 226.735 475.032 226.608 475.51 226.608C475.988 226.608 476.413 226.735 476.785 226.989C477.163 227.243 477.459 227.609 477.671 228.087C477.884 228.56 477.99 229.118 477.99 229.761C477.99 230.405 477.884 230.966 477.671 231.444C477.459 231.917 477.163 232.28 476.785 232.534C476.413 232.788 475.988 232.914 475.51 232.914ZM475.51 232.33C475.87 232.33 476.186 232.23 476.458 232.029C476.735 231.828 476.951 231.536 477.104 231.152C477.258 230.768 477.335 230.305 477.335 229.761C477.335 229.218 477.258 228.754 477.104 228.371C476.951 227.987 476.735 227.695 476.458 227.494C476.186 227.293 475.87 227.193 475.51 227.193C475.15 227.193 474.831 227.293 474.553 227.494C474.282 227.695 474.069 227.987 473.916 228.371C473.762 228.754 473.685 229.218 473.685 229.761C473.685 230.305 473.762 230.768 473.916 231.152C474.069 231.536 474.282 231.828 474.553 232.029C474.831 232.23 475.15 232.33 475.51 232.33ZM480.604 226.661V232.861H479.967V227.228H478.505V226.661H480.604ZM482.565 232.906C482.435 232.906 482.323 232.858 482.228 232.764C482.139 232.669 482.095 232.554 482.095 232.418C482.095 232.283 482.139 232.17 482.228 232.082C482.323 231.987 482.435 231.94 482.565 231.94C482.695 231.94 482.807 231.987 482.901 232.082C482.996 232.17 483.043 232.283 483.043 232.418C483.043 232.554 482.996 232.669 482.901 232.764C482.807 232.858 482.695 232.906 482.565 232.906ZM486.339 232.914C485.861 232.914 485.433 232.788 485.055 232.534C484.683 232.28 484.391 231.917 484.178 231.444C483.971 230.966 483.868 230.405 483.868 229.761C483.868 229.118 483.971 228.56 484.178 228.087C484.391 227.609 484.683 227.243 485.055 226.989C485.433 226.735 485.861 226.608 486.339 226.608C486.818 226.608 487.243 226.735 487.615 226.989C487.993 227.243 488.288 227.609 488.501 228.087C488.713 228.56 488.819 229.118 488.819 229.761C488.819 230.405 488.713 230.966 488.501 231.444C488.288 231.917 487.993 232.28 487.615 232.534C487.243 232.788 486.818 232.914 486.339 232.914ZM486.339 232.33C486.7 232.33 487.015 232.23 487.287 232.029C487.565 231.828 487.78 231.536 487.934 231.152C488.087 230.768 488.164 230.305 488.164 229.761C488.164 229.218 488.087 228.754 487.934 228.371C487.78 227.987 487.565 227.695 487.287 227.494C487.015 227.293 486.7 227.193 486.339 227.193C485.979 227.193 485.66 227.293 485.383 227.494C485.111 227.695 484.899 227.987 484.745 228.371C484.591 228.754 484.515 229.218 484.515 229.761C484.515 230.305 484.591 230.768 484.745 231.152C484.899 231.536 485.111 231.828 485.383 232.029C485.66 232.23 485.979 232.33 486.339 232.33ZM491.664 226.608C492.484 226.608 493.113 226.88 493.55 227.423C493.987 227.96 494.206 228.722 494.206 229.708C494.206 230.399 494.088 230.984 493.851 231.462C493.615 231.94 493.284 232.303 492.859 232.551C492.434 232.793 491.938 232.914 491.371 232.914C490.757 232.914 490.267 232.802 489.901 232.578L490.158 232.064C490.453 232.259 490.855 232.356 491.362 232.356C492.047 232.356 492.585 232.141 492.974 231.71C493.364 231.273 493.559 230.641 493.559 229.814C493.559 229.661 493.55 229.493 493.532 229.31C493.379 229.646 493.134 229.909 492.797 230.098C492.461 230.281 492.074 230.372 491.637 230.372C491.23 230.372 490.866 230.296 490.548 230.142C490.235 229.989 489.99 229.773 489.812 229.496C489.635 229.212 489.547 228.884 489.547 228.512C489.547 228.134 489.638 227.801 489.821 227.512C490.004 227.222 490.255 227.001 490.574 226.847C490.899 226.688 491.262 226.608 491.664 226.608ZM491.734 229.832C492.047 229.832 492.322 229.773 492.558 229.655C492.8 229.537 492.989 229.375 493.125 229.168C493.261 228.961 493.329 228.731 493.329 228.477C493.329 228.241 493.264 228.022 493.134 227.822C493.01 227.621 492.824 227.458 492.576 227.334C492.328 227.21 492.033 227.148 491.69 227.148C491.241 227.148 490.875 227.272 490.592 227.52C490.314 227.762 490.176 228.087 490.176 228.495C490.176 228.902 490.314 229.227 490.592 229.469C490.875 229.711 491.256 229.832 491.734 229.832Z" fill="#2D2D2D"/>
<path id="01.10" d="M533.967 232.914C533.489 232.914 533.061 232.788 532.683 232.534C532.311 232.28 532.018 231.917 531.806 231.444C531.599 230.966 531.496 230.405 531.496 229.761C531.496 229.118 531.599 228.56 531.806 228.087C532.018 227.609 532.311 227.243 532.683 226.989C533.061 226.735 533.489 226.608 533.967 226.608C534.445 226.608 534.87 226.735 535.242 226.989C535.62 227.243 535.916 227.609 536.128 228.087C536.341 228.56 536.447 229.118 536.447 229.761C536.447 230.405 536.341 230.966 536.128 231.444C535.916 231.917 535.62 232.28 535.242 232.534C534.87 232.788 534.445 232.914 533.967 232.914ZM533.967 232.33C534.327 232.33 534.643 232.23 534.915 232.029C535.192 231.828 535.408 231.536 535.561 231.152C535.715 230.768 535.792 230.305 535.792 229.761C535.792 229.218 535.715 228.754 535.561 228.371C535.408 227.987 535.192 227.695 534.915 227.494C534.643 227.293 534.327 227.193 533.967 227.193C533.607 227.193 533.288 227.293 533.01 227.494C532.739 227.695 532.526 227.987 532.373 228.371C532.219 228.754 532.142 229.218 532.142 229.761C532.142 230.305 532.219 230.768 532.373 231.152C532.526 231.536 532.739 231.828 533.01 232.029C533.288 232.23 533.607 232.33 533.967 232.33ZM539.061 226.661V232.861H538.424V227.228H536.962V226.661H539.061ZM541.022 232.906C540.892 232.906 540.78 232.858 540.685 232.764C540.596 232.669 540.552 232.554 540.552 232.418C540.552 232.283 540.596 232.17 540.685 232.082C540.78 231.987 540.892 231.94 541.022 231.94C541.152 231.94 541.264 231.987 541.358 232.082C541.453 232.17 541.5 232.283 541.5 232.418C541.5 232.554 541.453 232.669 541.358 232.764C541.264 232.858 541.152 232.906 541.022 232.906ZM544.035 226.661V232.861H543.397V227.228H541.936V226.661H544.035ZM547.988 232.914C547.51 232.914 547.082 232.788 546.704 232.534C546.332 232.28 546.04 231.917 545.827 231.444C545.62 230.966 545.517 230.405 545.517 229.761C545.517 229.118 545.62 228.56 545.827 228.087C546.04 227.609 546.332 227.243 546.704 226.989C547.082 226.735 547.51 226.608 547.988 226.608C548.466 226.608 548.892 226.735 549.264 226.989C549.641 227.243 549.937 227.609 550.149 228.087C550.362 228.56 550.468 229.118 550.468 229.761C550.468 230.405 550.362 230.966 550.149 231.444C549.937 231.917 549.641 232.28 549.264 232.534C548.892 232.788 548.466 232.914 547.988 232.914ZM547.988 232.33C548.348 232.33 548.664 232.23 548.936 232.029C549.213 231.828 549.429 231.536 549.582 231.152C549.736 230.768 549.813 230.305 549.813 229.761C549.813 229.218 549.736 228.754 549.582 228.371C549.429 227.987 549.213 227.695 548.936 227.494C548.664 227.293 548.348 227.193 547.988 227.193C547.628 227.193 547.309 227.293 547.032 227.494C546.76 227.695 546.547 227.987 546.394 228.371C546.24 228.754 546.164 229.218 546.164 229.761C546.164 230.305 546.24 230.768 546.394 231.152C546.547 231.536 546.76 231.828 547.032 232.029C547.309 232.23 547.628 232.33 547.988 232.33Z" fill="#2D2D2D"/>
<line id="Line 28" x1="265.316" y1="219.989" x2="552.293" y2="219.989" stroke="#707070" stroke-opacity="0.3" stroke-width="0.885731"/>
<line id="Line 29" x1="280.815" y1="231.945" x2="280.815" y2="116.8" stroke="#707070" stroke-opacity="0.3" stroke-width="0.885731"/>
</g>
<g id="2-2">
<g id="Rectangle 331" filter="url(#filter1_d_884_2532)">
<path d="M34 122C34 116.477 38.4772 112 44 112H250.42C255.943 112 260.42 116.477 260.42 122V272.322C260.42 277.845 255.943 282.322 250.42 282.322H44C38.4772 282.322 34 277.845 34 272.322V122Z" fill="url(#paint1_linear_884_2532)"/>
</g>
<g id="Group 990">
<g id="Group 999">
<path id="0k" opacity="0.5" d="M46.9431 259.712C48.04 259.712 48.5885 258.67 48.5885 256.587C48.5885 255.333 48.4042 254.457 48.0354 253.96C47.7681 253.609 47.404 253.434 46.9431 253.434C45.966 253.434 45.4267 254.245 45.3253 255.868C45.3161 256.089 45.3115 256.324 45.3115 256.573C45.3115 256.813 45.3161 257.048 45.3253 257.278C45.3438 257.499 45.3714 257.725 45.4083 257.956C45.4452 258.186 45.5005 258.407 45.5742 258.619C45.648 258.822 45.7448 259.002 45.8646 259.159C46.1319 259.527 46.4914 259.712 46.9431 259.712ZM46.9431 252.674C48.6945 252.674 49.5702 253.978 49.5702 256.587C49.5702 257.333 49.5149 257.905 49.4043 258.301C49.2937 258.698 49.1739 259.02 49.0448 259.269C48.9158 259.509 48.7544 259.716 48.5609 259.891C48.1461 260.269 47.6068 260.458 46.9431 260.458C45.9844 260.458 45.2885 260.062 44.8552 259.269C44.5049 258.633 44.3298 257.739 44.3298 256.587C44.3298 255.831 44.3805 255.25 44.4819 254.845C44.5925 254.439 44.7123 254.116 44.8414 253.877C44.9797 253.628 45.1456 253.416 45.3392 253.241C45.754 252.863 46.2886 252.674 46.9431 252.674ZM51.7933 257.499V259.919C51.7933 260.057 51.7472 260.163 51.655 260.237C51.5628 260.311 51.4614 260.348 51.3508 260.348C51.2494 260.348 51.1526 260.315 51.0604 260.251C50.9775 260.177 50.936 260.067 50.936 259.919V253.171C50.936 253.033 50.9821 252.927 51.0743 252.853C51.1665 252.78 51.2494 252.743 51.3232 252.743C51.4061 252.743 51.4706 252.752 51.5167 252.77C51.572 252.789 51.6181 252.817 51.655 252.853C51.7472 252.946 51.7933 253.052 51.7933 253.171V257.209L54.1992 255.19C54.2821 255.107 54.3743 255.066 54.4757 255.066C54.5771 255.066 54.6647 255.098 54.7384 255.163C54.8122 255.227 54.849 255.292 54.849 255.356C54.849 255.485 54.8122 255.577 54.7384 255.633L52.6782 257.347L55.0011 259.753C55.0657 259.836 55.0979 259.905 55.0979 259.961C55.0979 260.016 55.0841 260.067 55.0564 260.113C55.038 260.159 55.0104 260.2 54.9735 260.237C54.8813 260.311 54.7845 260.348 54.6831 260.348C54.5909 260.348 54.4988 260.302 54.4066 260.209L51.7933 257.499Z" fill="#451856"/>
<line id="Line 127" x1="44.8164" y1="264.204" x2="249.608" y2="264.204" stroke="#F5F5F5" stroke-width="1.09233"/>
</g>
<g id="Group 1000">
<path id="2k" opacity="0.5" d="M47.0122 227.559C46.8555 227.559 46.708 227.573 46.5698 227.601C46.4407 227.619 46.3163 227.652 46.1964 227.698C45.9107 227.808 45.6987 227.91 45.5604 228.002C45.459 228.057 45.3576 228.085 45.2562 228.085C45.164 228.085 45.0811 228.053 45.0073 227.988C44.9428 227.924 44.9105 227.85 44.9105 227.767C44.9105 227.684 44.9428 227.606 45.0073 227.532C45.0719 227.449 45.1594 227.371 45.27 227.297C45.3807 227.223 45.5051 227.158 45.6434 227.103C45.7909 227.039 45.943 226.979 46.0997 226.923C46.4407 226.822 46.7587 226.771 47.0537 226.771C47.3487 226.771 47.6298 226.813 47.8972 226.896C48.1737 226.97 48.4134 227.08 48.6162 227.228C49.0679 227.559 49.2937 228.007 49.2937 228.569C49.2937 229.5 48.5793 230.666 47.1505 232.067C46.874 232.344 46.5836 232.634 46.2794 232.938C45.9844 233.233 45.7263 233.477 45.5051 233.671H48.9204C49.0494 233.671 49.1416 233.712 49.1969 233.795C49.2614 233.878 49.2937 233.971 49.2937 234.072C49.2937 234.164 49.2614 234.252 49.1969 234.335C49.1324 234.408 49.0402 234.445 48.9204 234.445H45.0488C44.8276 234.445 44.6617 234.399 44.551 234.307C44.4496 234.215 44.3989 234.104 44.3989 233.975C44.3989 233.726 44.5188 233.5 44.7584 233.298C44.9336 233.141 45.1548 232.92 45.4221 232.634C45.6895 232.348 45.9522 232.076 46.2103 231.818C46.4684 231.56 46.7219 231.288 46.9708 231.002C47.2289 230.707 47.4593 230.422 47.6621 230.145C48.1046 229.546 48.3258 229.048 48.3258 228.652C48.3258 228.302 48.1875 228.03 47.911 227.836C47.6529 227.652 47.3533 227.559 47.0122 227.559ZM51.7933 231.597V234.017C51.7933 234.155 51.7472 234.261 51.655 234.335C51.5628 234.408 51.4614 234.445 51.3508 234.445C51.2494 234.445 51.1526 234.413 51.0604 234.349C50.9775 234.275 50.936 234.164 50.936 234.017V227.269C50.936 227.131 50.9821 227.025 51.0743 226.951C51.1665 226.877 51.2494 226.84 51.3232 226.84C51.4061 226.84 51.4706 226.85 51.5167 226.868C51.572 226.887 51.6181 226.914 51.655 226.951C51.7472 227.043 51.7933 227.149 51.7933 227.269V231.307L54.1992 229.288C54.2821 229.205 54.3743 229.163 54.4757 229.163C54.5771 229.163 54.6647 229.196 54.7384 229.26C54.8122 229.325 54.849 229.389 54.849 229.454C54.849 229.583 54.8122 229.675 54.7384 229.73L52.6782 231.445L55.0011 233.851C55.0657 233.934 55.0979 234.003 55.0979 234.058C55.0979 234.113 55.0841 234.164 55.0564 234.21C55.038 234.256 55.0104 234.298 54.9735 234.335C54.8813 234.408 54.7845 234.445 54.6831 234.445C54.5909 234.445 54.4988 234.399 54.4066 234.307L51.7933 231.597Z" fill="#451856"/>
<line id="Line 128" x1="44.8164" y1="238.52" x2="249.608" y2="238.52" stroke="#F5F5F5" stroke-width="1.09233"/>
</g>
<g id="Group 1001">
<path id="4k" opacity="0.5" d="M47.1229 201.367C47.2888 201.081 47.5423 200.938 47.8833 200.938C48.1783 200.938 48.3811 201.058 48.4917 201.298C48.5286 201.381 48.547 201.477 48.547 201.588V206.151H49.3628C49.4827 206.151 49.5702 206.188 49.6255 206.262C49.6901 206.335 49.7223 206.418 49.7223 206.51C49.7223 206.603 49.6901 206.686 49.6255 206.759C49.5702 206.824 49.4827 206.856 49.3628 206.856H48.547V208.114C48.547 208.243 48.5148 208.336 48.4502 208.391C48.3396 208.492 48.2198 208.543 48.0907 208.543C47.8972 208.543 47.7543 208.46 47.6621 208.294C47.6345 208.248 47.6206 208.188 47.6206 208.114V206.856H44.551C44.3943 206.856 44.2699 206.805 44.1777 206.704C44.0855 206.603 44.0394 206.506 44.0394 206.414C44.0394 206.248 44.0717 206.114 44.1362 206.013L47.1229 201.367ZM44.8552 206.151H47.6206V201.809L44.8552 206.151ZM51.7933 205.695V208.114C51.7933 208.253 51.7472 208.359 51.655 208.432C51.5628 208.506 51.4614 208.543 51.3508 208.543C51.2494 208.543 51.1526 208.511 51.0604 208.446C50.9775 208.372 50.936 208.262 50.936 208.114V201.367C50.936 201.228 50.9821 201.122 51.0743 201.049C51.1665 200.975 51.2494 200.938 51.3232 200.938C51.4061 200.938 51.4706 200.947 51.5167 200.966C51.572 200.984 51.6181 201.012 51.655 201.049C51.7472 201.141 51.7933 201.247 51.7933 201.367V205.404L54.1992 203.385C54.2821 203.303 54.3743 203.261 54.4757 203.261C54.5771 203.261 54.6647 203.293 54.7384 203.358C54.8122 203.422 54.849 203.487 54.849 203.551C54.849 203.68 54.8122 203.773 54.7384 203.828L52.6782 205.543L55.0011 207.948C55.0657 208.031 55.0979 208.101 55.0979 208.156C55.0979 208.211 55.0841 208.262 55.0564 208.308C55.038 208.354 55.0104 208.395 54.9735 208.432C54.8813 208.506 54.7845 208.543 54.6831 208.543C54.5909 208.543 54.4988 208.497 54.4066 208.405L51.7933 205.695Z" fill="#451856"/>
<line id="Line 129" x1="44.8164" y1="212.837" x2="249.608" y2="212.837" stroke="#F5F5F5" stroke-width="1.09233"/>
</g>
<g id="Group 1002">
<path id="6k" opacity="0.5" d="M45.4083 175.618C45.6388 175.416 45.9153 175.259 46.2379 175.148C46.5606 175.029 46.9846 174.969 47.51 174.969C48.0354 174.969 48.5378 175.098 49.0172 175.356C49.1278 175.402 49.1831 175.499 49.1831 175.646C49.1831 175.803 49.1139 175.927 48.9757 176.019C48.9296 176.047 48.8835 176.061 48.8374 176.061C48.8005 176.061 48.7176 176.033 48.5885 175.978C48.2014 175.821 47.8326 175.743 47.4824 175.743C47.1321 175.743 46.8417 175.789 46.6113 175.881C46.3808 175.973 46.1872 176.098 46.0305 176.255C45.8738 176.402 45.7448 176.577 45.6434 176.78C45.542 176.983 45.4636 177.199 45.4083 177.43C45.3253 177.826 45.2839 178.296 45.2839 178.84C45.4682 178.462 45.7309 178.181 46.072 177.997C46.4131 177.803 46.7864 177.706 47.192 177.706C47.5976 177.706 47.9433 177.766 48.229 177.886C48.524 178.006 48.7729 178.172 48.9757 178.384C49.3905 178.817 49.5979 179.412 49.5979 180.168C49.5979 180.942 49.3767 181.564 48.9342 182.034C48.4917 182.514 47.8787 182.753 47.0952 182.753C45.2332 182.753 44.3021 181.55 44.3021 179.144C44.3021 177.439 44.6709 176.264 45.4083 175.618ZM47.0399 182.007C47.2796 182.007 47.5008 181.965 47.7036 181.882C47.9064 181.799 48.0815 181.684 48.229 181.536C48.5056 181.232 48.6438 180.79 48.6438 180.209C48.6438 179.37 48.3673 178.808 47.8142 178.522C47.6298 178.43 47.3994 178.384 47.1229 178.384C46.8555 178.384 46.6113 178.43 46.39 178.522C46.178 178.614 45.9983 178.743 45.8508 178.909C45.5558 179.223 45.4083 179.674 45.4083 180.264C45.4083 180.781 45.5558 181.195 45.8508 181.509C46.1642 181.841 46.5606 182.007 47.0399 182.007ZM51.7933 179.794V182.214C51.7933 182.352 51.7472 182.458 51.655 182.532C51.5628 182.606 51.4614 182.643 51.3508 182.643C51.2494 182.643 51.1526 182.61 51.0604 182.546C50.9775 182.472 50.936 182.361 50.936 182.214V175.466C50.936 175.328 50.9821 175.222 51.0743 175.148C51.1665 175.075 51.2494 175.038 51.3232 175.038C51.4061 175.038 51.4706 175.047 51.5167 175.065C51.572 175.084 51.6181 175.111 51.655 175.148C51.7472 175.241 51.7933 175.347 51.7933 175.466V179.504L54.1992 177.485C54.2821 177.402 54.3743 177.361 54.4757 177.361C54.5771 177.361 54.6647 177.393 54.7384 177.457C54.8122 177.522 54.849 177.587 54.849 177.651C54.849 177.78 54.8122 177.872 54.7384 177.928L52.6782 179.642L55.0011 182.048C55.0657 182.131 55.0979 182.2 55.0979 182.255C55.0979 182.311 55.0841 182.361 55.0564 182.408C55.038 182.454 55.0104 182.495 54.9735 182.532C54.8813 182.606 54.7845 182.643 54.6831 182.643C54.5909 182.643 54.4988 182.596 54.4066 182.504L51.7933 179.794Z" fill="#451856"/>
<line id="Line 130" x1="44.8164" y1="186.479" x2="249.608" y2="186.479" stroke="#F5F5F5" stroke-width="1.09233"/>
</g>
<g id="Group 1003">
<path id="8k" opacity="0.5" d="M45.9199 152.813C45.5143 152.758 45.1502 152.555 44.8276 152.205C44.5418 151.873 44.3989 151.518 44.3989 151.14C44.3989 150.753 44.4681 150.435 44.6063 150.186C44.7538 149.937 44.9474 149.73 45.1871 149.564C45.648 149.232 46.2333 149.066 46.9431 149.066C47.6529 149.066 48.2475 149.232 48.7268 149.564C49.243 149.933 49.5011 150.435 49.5011 151.071C49.5011 151.67 49.1969 152.168 48.5885 152.564C48.4042 152.684 48.2014 152.767 47.9801 152.813C48.4871 152.952 48.8835 153.187 49.1693 153.519C49.4642 153.841 49.6117 154.247 49.6117 154.735C49.6117 155.417 49.3444 155.947 48.8097 156.325C48.312 156.676 47.6898 156.851 46.9431 156.851C46.1964 156.851 45.5742 156.676 45.0765 156.325C44.551 155.947 44.2883 155.417 44.2883 154.735C44.2883 154.274 44.4312 153.883 44.717 153.56C45.0765 153.173 45.4774 152.929 45.9199 152.827V152.813ZM45.3253 151.071C45.3253 151.302 45.3622 151.495 45.436 151.652C45.5189 151.809 45.6341 151.942 45.7816 152.053C46.0674 152.265 46.4546 152.371 46.9431 152.371C47.7174 152.371 48.2198 152.131 48.4502 151.652C48.5332 151.486 48.5747 151.292 48.5747 151.071C48.5747 150.85 48.5286 150.656 48.4364 150.49C48.3442 150.315 48.2198 150.177 48.0631 150.076C47.7497 149.873 47.3764 149.771 46.9431 149.771C46.5191 149.771 46.1504 149.873 45.8369 150.076C45.4959 150.297 45.3253 150.629 45.3253 151.071ZM45.2562 154.68C45.2562 154.92 45.3023 155.132 45.3945 155.316C45.4867 155.5 45.6111 155.653 45.7678 155.772C46.0536 155.994 46.4453 156.104 46.9431 156.104C47.699 156.104 48.2198 155.846 48.5056 155.33C48.5977 155.146 48.6438 154.934 48.6438 154.694C48.6438 154.445 48.5931 154.233 48.4917 154.058C48.3995 153.873 48.2751 153.726 48.1184 153.615C47.7681 153.339 47.3764 153.201 46.9431 153.201C46.5283 153.201 46.1365 153.339 45.7678 153.615C45.4267 153.864 45.2562 154.219 45.2562 154.68ZM51.7933 153.892V156.312C51.7933 156.45 51.7472 156.556 51.655 156.63C51.5628 156.703 51.4614 156.74 51.3508 156.74C51.2494 156.74 51.1526 156.708 51.0604 156.643C50.9775 156.57 50.936 156.459 50.936 156.312V149.564C50.936 149.426 50.9821 149.32 51.0743 149.246C51.1665 149.172 51.2494 149.135 51.3232 149.135C51.4061 149.135 51.4706 149.145 51.5167 149.163C51.572 149.181 51.6181 149.209 51.655 149.246C51.7472 149.338 51.7933 149.444 51.7933 149.564V153.602L54.1992 151.583C54.2821 151.5 54.3743 151.458 54.4757 151.458C54.5771 151.458 54.6647 151.491 54.7384 151.555C54.8122 151.62 54.849 151.684 54.849 151.749C54.849 151.878 54.8122 151.97 54.7384 152.025L52.6782 153.74L55.0011 156.146C55.0657 156.229 55.0979 156.298 55.0979 156.353C55.0979 156.408 55.0841 156.459 55.0564 156.505C55.038 156.551 55.0104 156.593 54.9735 156.63C54.8813 156.703 54.7845 156.74 54.6831 156.74C54.5909 156.74 54.4988 156.694 54.4066 156.602L51.7933 153.892Z" fill="#451856"/>
<line id="Line 130_2" x1="44.8164" y1="160.794" x2="249.608" y2="160.794" stroke="#F5F5F5" stroke-width="1.09233"/>
</g>
</g>
<g id="2-2-scale-min">
<rect id="Rectangle 320" x="64" y="261" width="6.03308" height="6" rx="3" fill="url(#paint2_linear_884_2532)"/>
<rect id="Rectangle 321" x="79.082" y="261" width="6.03308" height="6" rx="3" fill="url(#paint3_linear_884_2532)"/>
<rect id="Rectangle 322" x="95.4727" y="261" width="6.03308" height="6" rx="3" fill="url(#paint4_linear_884_2532)"/>
<rect id="Rectangle 323" x="111.578" y="261" width="6.03308" height="6" rx="3" fill="url(#paint5_linear_884_2532)"/>
<rect id="Rectangle 324" x="127.682" y="261" width="6.03308" height="6" rx="3" fill="url(#paint6_linear_884_2532)"/>
<rect id="Rectangle 325" x="143.314" y="261" width="6.03308" height="6" rx="3" fill="url(#paint7_linear_884_2532)"/>
<rect id="Rectangle 326" x="159.418" y="261" width="6.03308" height="6" rx="3" fill="url(#paint8_linear_884_2532)"/>
<rect id="Rectangle 327" width="6.03308" height="6" rx="3" transform="matrix(0.999999 0.00169369 -0.00171242 0.999999 175.801 261)" fill="url(#paint9_linear_884_2532)"/>
<rect id="Rectangle 332" width="6.03308" height="6" rx="3" transform="matrix(0.999999 0.00169369 -0.00171242 0.999999 191.986 261)" fill="url(#paint10_linear_884_2532)"/>
<rect id="Rectangle 328" x="208.096" y="261" width="6.03308" height="6" rx="3" fill="url(#paint11_linear_884_2532)"/>
<rect id="Rectangle 329" x="224.199" y="261" width="6.03308" height="6" rx="3" fill="url(#paint12_linear_884_2532)"/>
<rect id="Rectangle 330" x="240.508" y="261" width="6.03308" height="6" rx="3" fill="url(#paint13_linear_884_2532)"/>
</g>
<g id="2-2-scale-max">
<rect id="Rectangle 320_2" x="64" y="175.926" width="6.08293" height="91.2439" rx="3.04146" fill="url(#paint14_linear_884_2532)"/>
<rect id="Rectangle 321_2" x="78.8008" y="223" width="6.554" height="43.6933" rx="3.277" fill="url(#paint15_linear_884_2532)"/>
<rect id="Rectangle 322_2" x="95.1992" y="200" width="6.554" height="66.6323" rx="3.277" fill="url(#paint16_linear_884_2532)"/>
<rect id="Rectangle 323_2" x="111.301" y="218" width="6.554" height="49.155" rx="3.277" fill="url(#paint17_linear_884_2532)"/>
<rect id="Rectangle 324_2" x="127.594" y="218.506" width="6.08293" height="48.6634" rx="3.04146" fill="url(#paint18_linear_884_2532)"/>
<rect id="Rectangle 325_2" x="143" y="186" width="6.554" height="80.8326" rx="3.277" fill="url(#paint19_linear_884_2532)"/>
<rect id="Rectangle 326_2" x="159.156" y="226.617" width="6.75881" height="40.5528" rx="3.3794" fill="url(#paint20_linear_884_2532)"/>
<rect id="Rectangle 327_2" x="175.551" y="224" width="6.554" height="42.4125" rx="3.277" transform="rotate(0.0975764 175.551 224)" fill="url(#paint21_linear_884_2532)"/>
<rect id="Rectangle 332_2" x="191.547" y="217.785" width="6.554" height="48.7136" rx="3.277" transform="rotate(0.0975764 191.547 217.785)" fill="url(#paint22_linear_884_2532)"/>
<rect id="Rectangle 328_2" x="207.77" y="194" width="6.554" height="73.1863" rx="3.277" fill="url(#paint23_linear_884_2532)"/>
<rect id="Rectangle 329_2" x="223.779" y="172.545" width="6.75881" height="94.6233" rx="3.3794" fill="url(#paint24_linear_884_2532)"/>
<rect id="Rectangle 330_2" x="240.199" y="157" width="6.75881" height="110.169" rx="3.3794" fill="url(#paint25_linear_884_2532)"/>
</g>
<path id="&#208;&#159;&#208;&#181;&#209;&#128;&#208;&#178;&#209;&#139;&#208;&#181; &#208;&#191;&#209;&#128;&#208;&#190;&#208;&#180;&#208;&#176;&#208;&#182;&#208;&#184;" d="M53.6976 127.001V136.463H52.7108V127.866H46.7225V136.463H45.7357V127.001H53.6976ZM62.8787 133.205H56.9309C56.985 133.944 57.2689 134.543 57.7825 135.003C58.2962 135.454 58.9451 135.679 59.7291 135.679C60.1707 135.679 60.5762 135.602 60.9457 135.449C61.3151 135.287 61.6351 135.053 61.9054 134.746L62.4461 135.368C62.1307 135.746 61.7342 136.035 61.2566 136.233C60.788 136.431 60.2698 136.53 59.702 136.53C58.9721 136.53 58.3232 136.377 57.7555 136.071C57.1968 135.755 56.7597 135.323 56.4443 134.773C56.1289 134.223 55.9712 133.602 55.9712 132.908C55.9712 132.214 56.1199 131.592 56.4173 131.042C56.7237 130.493 57.1382 130.065 57.6609 129.758C58.1926 129.452 58.7874 129.299 59.4452 129.299C60.1031 129.299 60.6933 129.452 61.216 129.758C61.7387 130.065 62.1487 130.493 62.4461 131.042C62.7435 131.583 62.8922 132.205 62.8922 132.908L62.8787 133.205ZM59.4452 130.123C58.7603 130.123 58.1836 130.344 57.715 130.785C57.2554 131.218 56.994 131.786 56.9309 132.489H61.973C61.9099 131.786 61.6441 131.218 61.1755 130.785C60.7159 130.344 60.1391 130.123 59.4452 130.123ZM68.68 129.299C69.3468 129.299 69.9506 129.452 70.4913 129.758C71.032 130.056 71.4556 130.479 71.762 131.029C72.0684 131.579 72.2216 132.205 72.2216 132.908C72.2216 133.62 72.0684 134.251 71.762 134.8C71.4556 135.35 71.032 135.778 70.4913 136.084C69.9596 136.382 69.3558 136.53 68.68 136.53C68.1032 136.53 67.5805 136.413 67.1119 136.179C66.6523 135.936 66.2738 135.584 65.9764 135.125V139.085H65.0167V129.353H65.9359V130.758C66.2243 130.29 66.6028 129.929 67.0714 129.677C67.549 129.425 68.0852 129.299 68.68 129.299ZM68.6124 135.679C69.108 135.679 69.5586 135.566 69.9641 135.341C70.3697 135.107 70.6851 134.778 70.9104 134.354C71.1447 133.931 71.2618 133.448 71.2618 132.908C71.2618 132.367 71.1447 131.889 70.9104 131.475C70.6851 131.051 70.3697 130.722 69.9641 130.488C69.5586 130.254 69.108 130.137 68.6124 130.137C68.1077 130.137 67.6526 130.254 67.2471 130.488C66.8506 130.722 66.5352 131.051 66.3009 131.475C66.0756 131.889 65.9629 132.367 65.9629 132.908C65.9629 133.448 66.0756 133.931 66.3009 134.354C66.5352 134.778 66.8506 135.107 67.2471 135.341C67.6526 135.566 68.1077 135.679 68.6124 135.679ZM78.812 132.786C79.7763 133.011 80.2584 133.593 80.2584 134.53C80.2584 135.152 80.0286 135.629 79.569 135.963C79.1094 136.296 78.4245 136.463 77.5144 136.463H74.2836V129.353H77.4197C78.2308 129.353 78.8661 129.51 79.3257 129.826C79.7853 130.141 80.0151 130.592 80.0151 131.178C80.0151 131.565 79.907 131.898 79.6907 132.178C79.4834 132.448 79.1905 132.651 78.812 132.786ZM75.2164 132.516H77.3521C77.9019 132.516 78.3209 132.412 78.6093 132.205C78.9067 131.998 79.0554 131.696 79.0554 131.299C79.0554 130.903 78.9067 130.605 78.6093 130.407C78.3209 130.209 77.9019 130.11 77.3521 130.11H75.2164V132.516ZM77.4738 135.706C78.0866 135.706 78.5462 135.607 78.8526 135.409C79.159 135.21 79.3122 134.899 79.3122 134.476C79.3122 134.052 79.1725 133.741 78.8932 133.543C78.6138 133.336 78.1722 133.232 77.5684 133.232H75.2164V135.706H77.4738ZM85.4951 131.867C86.3873 131.876 87.0677 132.074 87.5363 132.462C88.0049 132.849 88.2392 133.408 88.2392 134.138C88.2392 134.895 87.9869 135.476 87.4822 135.882C86.9776 136.287 86.2566 136.485 85.3194 136.476L82.5077 136.463V129.353H83.4675V131.84L85.4951 131.867ZM89.4288 129.353H90.3885V136.463H89.4288V129.353ZM85.2653 135.746C85.9232 135.755 86.4188 135.625 86.7523 135.354C87.0947 135.075 87.2659 134.67 87.2659 134.138C87.2659 133.615 87.0992 133.228 86.7658 132.975C86.4324 132.723 85.9322 132.592 85.2653 132.583L83.4675 132.556V135.719L85.2653 135.746ZM99.3393 133.205H93.3915C93.4456 133.944 93.7295 134.543 94.2431 135.003C94.7568 135.454 95.4057 135.679 96.1897 135.679C96.6313 135.679 97.0368 135.602 97.4063 135.449C97.7758 135.287 98.0957 135.053 98.366 134.746L98.9067 135.368C98.5913 135.746 98.1948 136.035 97.7172 136.233C97.2486 136.431 96.7304 136.53 96.1626 136.53C95.4327 136.53 94.7839 136.377 94.2161 136.071C93.6574 135.755 93.2203 135.323 92.9049 134.773C92.5895 134.223 92.4318 133.602 92.4318 132.908C92.4318 132.214 92.5805 131.592 92.8779 131.042C93.1843 130.493 93.5988 130.065 94.1215 129.758C94.6532 129.452 95.248 129.299 95.9058 129.299C96.5637 129.299 97.1539 129.452 97.6766 129.758C98.1993 130.065 98.6093 130.493 98.9067 131.042C99.2041 131.583 99.3528 132.205 99.3528 132.908L99.3393 133.205ZM95.9058 130.123C95.2209 130.123 94.6442 130.344 94.1756 130.785C93.716 131.218 93.4546 131.786 93.3915 132.489H98.4336C98.3705 131.786 98.1047 131.218 97.6361 130.785C97.1765 130.344 96.5997 130.123 95.9058 130.123ZM111.395 129.353V136.463H110.436V130.204H105.975V136.463H105.015V129.353H111.395ZM117.787 129.299C118.454 129.299 119.058 129.452 119.598 129.758C120.139 130.056 120.563 130.479 120.869 131.029C121.175 131.579 121.329 132.205 121.329 132.908C121.329 133.62 121.175 134.251 120.869 134.8C120.563 135.35 120.139 135.778 119.598 136.084C119.067 136.382 118.463 136.53 117.787 136.53C117.21 136.53 116.687 136.413 116.219 136.179C115.759 135.936 115.381 135.584 115.083 135.125V139.085H114.124V129.353H115.043V130.758C115.331 130.29 115.71 129.929 116.178 129.677C116.656 129.425 117.192 129.299 117.787 129.299ZM117.719 135.679C118.215 135.679 118.666 135.566 119.071 135.341C119.477 135.107 119.792 134.778 120.017 134.354C120.252 133.931 120.369 133.448 120.369 132.908C120.369 132.367 120.252 131.889 120.017 131.475C119.792 131.051 119.477 130.722 119.071 130.488C118.666 130.254 118.215 130.137 117.719 130.137C117.215 130.137 116.76 130.254 116.354 130.488C115.958 130.722 115.642 131.051 115.408 131.475C115.183 131.889 115.07 132.367 115.07 132.908C115.07 133.448 115.183 133.931 115.408 134.354C115.642 134.778 115.958 135.107 116.354 135.341C116.76 135.566 117.215 135.679 117.719 135.679ZM126.324 136.53C125.639 136.53 125.022 136.377 124.472 136.071C123.922 135.755 123.49 135.323 123.174 134.773C122.859 134.223 122.701 133.602 122.701 132.908C122.701 132.214 122.859 131.592 123.174 131.042C123.49 130.493 123.922 130.065 124.472 129.758C125.022 129.452 125.639 129.299 126.324 129.299C127.009 129.299 127.626 129.452 128.176 129.758C128.726 130.065 129.154 130.493 129.46 131.042C129.775 131.592 129.933 132.214 129.933 132.908C129.933 133.602 129.775 134.223 129.46 134.773C129.154 135.323 128.726 135.755 128.176 136.071C127.626 136.377 127.009 136.53 126.324 136.53ZM126.324 135.679C126.829 135.679 127.279 135.566 127.676 135.341C128.081 135.107 128.397 134.778 128.622 134.354C128.847 133.931 128.96 133.448 128.96 132.908C128.96 132.367 128.847 131.885 128.622 131.461C128.397 131.038 128.081 130.713 127.676 130.488C127.279 130.254 126.829 130.137 126.324 130.137C125.819 130.137 125.364 130.254 124.959 130.488C124.562 130.713 124.247 131.038 124.012 131.461C123.787 131.885 123.674 132.367 123.674 132.908C123.674 133.448 123.787 133.931 124.012 134.354C124.247 134.778 124.562 135.107 124.959 135.341C125.364 135.566 125.819 135.679 126.324 135.679ZM138.879 135.625V138.18H137.974V136.463H131.607V138.18H130.701V135.625H131.107C131.584 135.598 131.909 135.246 132.08 134.57C132.251 133.895 132.368 132.948 132.431 131.732L132.526 129.353H137.771V135.625H138.879ZM133.31 131.786C133.265 132.795 133.179 133.629 133.053 134.287C132.927 134.935 132.702 135.381 132.377 135.625H136.811V130.204H133.391L133.31 131.786ZM143.196 129.299C144.125 129.299 144.836 129.533 145.332 130.001C145.828 130.461 146.076 131.146 146.076 132.056V136.463H145.156V135.354C144.94 135.724 144.62 136.012 144.197 136.22C143.782 136.427 143.286 136.53 142.71 136.53C141.917 136.53 141.286 136.341 140.817 135.963C140.349 135.584 140.114 135.084 140.114 134.462C140.114 133.858 140.331 133.372 140.763 133.002C141.205 132.633 141.903 132.448 142.858 132.448H145.116V132.016C145.116 131.403 144.945 130.939 144.602 130.623C144.26 130.299 143.76 130.137 143.102 130.137C142.651 130.137 142.219 130.213 141.804 130.366C141.389 130.511 141.034 130.713 140.736 130.975L140.304 130.258C140.664 129.952 141.097 129.718 141.601 129.555C142.106 129.384 142.638 129.299 143.196 129.299ZM142.858 135.773C143.399 135.773 143.863 135.652 144.251 135.409C144.638 135.156 144.927 134.796 145.116 134.327V133.165H142.885C141.669 133.165 141.061 133.588 141.061 134.435C141.061 134.85 141.218 135.179 141.534 135.422C141.849 135.656 142.291 135.773 142.858 135.773ZM154.862 133.3H153.321V136.463H152.361V133.3H150.82L148.644 136.463H147.495L150.05 132.8L147.698 129.353H148.739L150.82 132.475H152.361V129.353H153.321V132.475H154.862L156.957 129.353H157.998L155.646 132.813L158.201 136.463H157.052L154.862 133.3ZM159.798 129.353H160.758V135.003L165.503 129.353H166.354V136.463H165.395V130.813L160.664 136.463H159.798V129.353Z" fill="#2D2D2D"/>
</g>
</g>
<defs>
<filter id="filter0_d_884_2532" x="195" y="0" width="413.436" height="287.661" filterUnits="userSpaceOnUse" color-interpolation-filters="sRGB">
<feFlood flood-opacity="0" result="BackgroundImageFix"/>
<feColorMatrix in="SourceAlpha" type="matrix" values="0 0 0 0 0 0 0 0 0 0 0 0 0 0 0 0 0 0 127 0" result="hardAlpha"/>
<feOffset dy="4"/>
<feGaussianBlur stdDeviation="17"/>
<feComposite in2="hardAlpha" operator="out"/>
<feColorMatrix type="matrix" values="0 0 0 0 0 0 0 0 0 0 0 0 0 0 0 0 0 0 0.1 0"/>
<feBlend mode="normal" in2="BackgroundImageFix" result="effect1_dropShadow_884_2532"/>
<feBlend mode="normal" in="SourceGraphic" in2="effect1_dropShadow_884_2532" result="shape"/>
</filter>
<filter id="filter1_d_884_2532" x="0" y="82" width="294.42" height="238.322" filterUnits="userSpaceOnUse" color-interpolation-filters="sRGB">
<feFlood flood-opacity="0" result="BackgroundImageFix"/>
<feColorMatrix in="SourceAlpha" type="matrix" values="0 0 0 0 0 0 0 0 0 0 0 0 0 0 0 0 0 0 127 0" result="hardAlpha"/>
<feOffset dy="4"/>
<feGaussianBlur stdDeviation="17"/>
<feComposite in2="hardAlpha" operator="out"/>
<feColorMatrix type="matrix" values="0 0 0 0 0 0 0 0 0 0 0 0 0 0 0 0 0 0 0.1 0"/>
<feBlend mode="normal" in2="BackgroundImageFix" result="effect1_dropShadow_884_2532"/>
<feBlend mode="normal" in="SourceGraphic" in2="effect1_dropShadow_884_2532" result="shape"/>
</filter>
<linearGradient id="paint0_linear_884_2532" x1="231.214" y1="33.4203" x2="599.871" y2="174.943" gradientUnits="userSpaceOnUse">
<stop stop-color="#FAFDFC"/>
<stop offset="1" stop-color="#F0F8FD"/>
</linearGradient>
<linearGradient id="paint1_linear_884_2532" x1="35.4514" y1="114.652" x2="286.287" y2="196.052" gradientUnits="userSpaceOnUse">
<stop stop-color="#FAFDFC"/>
<stop offset="1" stop-color="#F0F8FD"/>
</linearGradient>
<linearGradient id="paint2_linear_884_2532" x1="63.997" y1="261.291" x2="70.1473" y2="261.419" gradientUnits="userSpaceOnUse">
<stop stop-color="#1C89D1"/>
<stop offset="1" stop-color="#2FA0EB"/>
</linearGradient>
<linearGradient id="paint3_linear_884_2532" x1="79.079" y1="261.291" x2="85.2293" y2="261.419" gradientUnits="userSpaceOnUse">
<stop stop-color="#1C89D1"/>
<stop offset="1" stop-color="#2FA0EB"/>
</linearGradient>
<linearGradient id="paint4_linear_884_2532" x1="95.4696" y1="261.291" x2="101.62" y2="261.419" gradientUnits="userSpaceOnUse">
<stop stop-color="#1C89D1"/>
<stop offset="1" stop-color="#2FA0EB"/>
</linearGradient>
<linearGradient id="paint5_linear_884_2532" x1="111.575" y1="261.291" x2="117.725" y2="261.419" gradientUnits="userSpaceOnUse">
<stop stop-color="#1C89D1"/>
<stop offset="1" stop-color="#2FA0EB"/>
</linearGradient>
<linearGradient id="paint6_linear_884_2532" x1="127.679" y1="261.291" x2="133.829" y2="261.419" gradientUnits="userSpaceOnUse">
<stop stop-color="#1C89D1"/>
<stop offset="1" stop-color="#2FA0EB"/>
</linearGradient>
<linearGradient id="paint7_linear_884_2532" x1="143.311" y1="261.291" x2="149.462" y2="261.419" gradientUnits="userSpaceOnUse">
<stop stop-color="#1C89D1"/>
<stop offset="1" stop-color="#2FA0EB"/>
</linearGradient>
<linearGradient id="paint8_linear_884_2532" x1="159.415" y1="261.291" x2="165.565" y2="261.419" gradientUnits="userSpaceOnUse">
<stop stop-color="#1C89D1"/>
<stop offset="1" stop-color="#2FA0EB"/>
</linearGradient>
<linearGradient id="paint9_linear_884_2532" x1="-0.00304458" y1="0.291498" x2="6.1473" y2="0.418515" gradientUnits="userSpaceOnUse">
<stop stop-color="#1C89D1"/>
<stop offset="1" stop-color="#2FA0EB"/>
</linearGradient>
<linearGradient id="paint10_linear_884_2532" x1="-0.00304458" y1="0.291498" x2="6.1473" y2="0.418515" gradientUnits="userSpaceOnUse">
<stop stop-color="#1C89D1"/>
<stop offset="1" stop-color="#2FA0EB"/>
</linearGradient>
<linearGradient id="paint11_linear_884_2532" x1="208.093" y1="261.291" x2="214.243" y2="261.419" gradientUnits="userSpaceOnUse">
<stop stop-color="#1C89D1"/>
<stop offset="1" stop-color="#2FA0EB"/>
</linearGradient>
<linearGradient id="paint12_linear_884_2532" x1="224.196" y1="261.291" x2="230.347" y2="261.419" gradientUnits="userSpaceOnUse">
<stop stop-color="#1C89D1"/>
<stop offset="1" stop-color="#2FA0EB"/>
</linearGradient>
<linearGradient id="paint13_linear_884_2532" x1="240.505" y1="261.291" x2="246.655" y2="261.419" gradientUnits="userSpaceOnUse">
<stop stop-color="#1C89D1"/>
<stop offset="1" stop-color="#2FA0EB"/>
</linearGradient>
<linearGradient id="paint14_linear_884_2532" x1="63.9969" y1="180.359" x2="70.2007" y2="180.367" gradientUnits="userSpaceOnUse">
<stop stop-color="#1C89D1"/>
<stop offset="1" stop-color="#2FA0EB"/>
</linearGradient>
<linearGradient id="paint15_linear_884_2532" x1="78.7975" y1="225.123" x2="85.4816" y2="225.143" gradientUnits="userSpaceOnUse">
<stop stop-color="#1C89D1"/>
<stop offset="1" stop-color="#2FA0EB"/>
</linearGradient>
<linearGradient id="paint16_linear_884_2532" x1="95.1959" y1="203.237" x2="101.88" y2="203.251" gradientUnits="userSpaceOnUse">
<stop stop-color="#1C89D1"/>
<stop offset="1" stop-color="#2FA0EB"/>
</linearGradient>
<linearGradient id="paint17_linear_884_2532" x1="111.297" y1="220.388" x2="117.982" y2="220.406" gradientUnits="userSpaceOnUse">
<stop stop-color="#1C89D1"/>
<stop offset="1" stop-color="#2FA0EB"/>
</linearGradient>
<linearGradient id="paint18_linear_884_2532" x1="127.591" y1="220.87" x2="133.794" y2="220.886" gradientUnits="userSpaceOnUse">
<stop stop-color="#1C89D1"/>
<stop offset="1" stop-color="#2FA0EB"/>
</linearGradient>
<linearGradient id="paint19_linear_884_2532" x1="142.997" y1="189.927" x2="149.681" y2="189.938" gradientUnits="userSpaceOnUse">
<stop stop-color="#1C89D1"/>
<stop offset="1" stop-color="#2FA0EB"/>
</linearGradient>
<linearGradient id="paint20_linear_884_2532" x1="159.153" y1="228.587" x2="166.046" y2="228.611" gradientUnits="userSpaceOnUse">
<stop stop-color="#1C89D1"/>
<stop offset="1" stop-color="#2FA0EB"/>
</linearGradient>
<linearGradient id="paint21_linear_884_2532" x1="175.547" y1="226.061" x2="182.232" y2="226.082" gradientUnits="userSpaceOnUse">
<stop stop-color="#1C89D1"/>
<stop offset="1" stop-color="#2FA0EB"/>
</linearGradient>
<linearGradient id="paint22_linear_884_2532" x1="191.544" y1="220.152" x2="198.228" y2="220.17" gradientUnits="userSpaceOnUse">
<stop stop-color="#1C89D1"/>
<stop offset="1" stop-color="#2FA0EB"/>
</linearGradient>
<linearGradient id="paint23_linear_884_2532" x1="207.766" y1="197.556" x2="214.45" y2="197.568" gradientUnits="userSpaceOnUse">
<stop stop-color="#1C89D1"/>
<stop offset="1" stop-color="#2FA0EB"/>
</linearGradient>
<linearGradient id="paint24_linear_884_2532" x1="223.776" y1="177.142" x2="230.669" y2="177.152" gradientUnits="userSpaceOnUse">
<stop stop-color="#1C89D1"/>
<stop offset="1" stop-color="#2FA0EB"/>
</linearGradient>
<linearGradient id="paint25_linear_884_2532" x1="240.196" y1="162.352" x2="247.089" y2="162.361" gradientUnits="userSpaceOnUse">
<stop stop-color="#1C89D1"/>
<stop offset="1" stop-color="#2FA0EB"/>
</linearGradient>
</defs>
</svg>
